<?xml version="1.0" standalone="no"?>
<!DOCTYPE svg PUBLIC "-//W3C//DTD SVG 1.1//EN" "http://www.w3.org/Graphics/SVG/1.1/DTD/svg11.dtd" >
<svg xmlns="http://www.w3.org/2000/svg" xmlns:xlink="http://www.w3.org/1999/xlink" version="1.1">
<metadata>
Created by FontForge 20201107 at Thu Nov 27 15:56:33 2025
 By 
Copyright (c) 2015 by Mariya Pigoulevskaya. All rights reserved.
</metadata>
<defs>
<font id="Stolzl-Book" horiz-adv-x="0" >
  <font-face 
    font-family="Stolzl Book"
    font-weight="400"
    font-stretch="normal"
    units-per-em="2048"
    panose-1="0 0 5 0 0 0 0 0 0 0"
    ascent="1638"
    descent="-410"
    x-height="1126"
    cap-height="1434"
    bbox="-1120 -537 2871 2140"
    underline-thickness="102"
    underline-position="-204"
    unicode-range="U+0020-25CA"
  />
<missing-glyph horiz-adv-x="1044" 
d="M856 1577v-2089h-661v2089h661zM696 1438h-346v-70h137v-78h-139v-67h348v67h-139v78h139v70zM557 1167h-209v-217h348v72h-139v145zM487 1096v-74h-69v74h69zM696 893h-348v-68h139v-77h-139v-70h209v147h139v68zM696 768h-69v-137h-279v-72h348v209zM696 514h-209v-117
h70v47h70v-98h-209v168h-70v-235h348v235zM696 152h-348v-236h348v236zM627 84v-98h-209v98h209zM696 -131h-348v-70h148l-148 -98v-70h348v70h-213l146 98h67v70z" />
    <glyph glyph-name=".notdef" horiz-adv-x="1044" 
d="M856 1577v-2089h-661v2089h661zM696 1438h-346v-70h137v-78h-139v-67h348v67h-139v78h139v70zM557 1167h-209v-217h348v72h-139v145zM487 1096v-74h-69v74h69zM696 893h-348v-68h139v-77h-139v-70h209v147h139v68zM696 768h-69v-137h-279v-72h348v209zM696 514h-209v-117
h70v47h70v-98h-209v168h-70v-235h348v235zM696 152h-348v-236h348v236zM627 84v-98h-209v98h209zM696 -131h-348v-70h148l-148 -98v-70h348v70h-213l146 98h67v70z" />
    <glyph glyph-name=".null" 
 />
    <glyph glyph-name="nonmarkingreturn" horiz-adv-x="682" 
 />
    <glyph glyph-name="space" unicode=" " horiz-adv-x="614" 
 />
    <glyph glyph-name="exclam" unicode="!" horiz-adv-x="598" 
d="M385 1434v-557l-12 -455h-148l-12 455v557h172zM299 207q51 0 85 -32t34 -83q0 -49 -34 -82t-85 -33t-85 33t-34 82q0 51 34 83t85 32z" />
    <glyph glyph-name="quotedbl" unicode="&#x22;" horiz-adv-x="884" 
d="M201 772l-21 406v256h170v-256l-20 -406h-129zM555 772l-20 406v256h170v-256l-19 -406h-131z" />
    <glyph glyph-name="numbersign" unicode="#" horiz-adv-x="1869" 
d="M1653 995h-316l-100 -374h317l-36 -142h-318l-127 -479h-158l127 479h-387l-127 -479h-157l125 479h-316l37 142h318l98 374h-318l37 142h318l116 440h158l-117 -440h387l117 440h158l-115 -440h318zM1079 621l99 374h-387l-99 -374h387z" />
    <glyph glyph-name="dollar" unicode="$" horiz-adv-x="1312" 
d="M1223 399q0 -81 -26 -148.5t-70.5 -115.5t-106 -82.5t-131 -53t-146.5 -22.5v-231h-168v240q-214 28 -334 147t-151 297h172q72 -293 432 -293q167 0 262 67t95 189q0 30 -5.5 54t-20.5 44t-30 35t-46 29.5t-56.5 24.5t-72.5 22.5t-82.5 20.5t-98.5 22q-72 16 -124.5 30
t-109 33.5t-95 40.5t-75.5 50t-58.5 63.5t-34.5 79t-13 98.5q0 122 62.5 214.5t164 141.5t230.5 58v234h170v-238q188 -24 299 -124t147 -251h-172q-85 221 -385 221q-160 0 -253 -67t-93 -189q0 -87 78 -132.5t301 -96.5q83 -18 139 -32.5t118 -35t102 -41.5t78.5 -51
t60 -65.5t34.5 -82.5t13 -104z" />
    <glyph glyph-name="percent" unicode="%" horiz-adv-x="2183" 
d="M553 594q-170 0 -271.5 111.5t-101.5 320.5q0 208 101.5 319t271.5 111t272.5 -111t102.5 -319q0 -209 -102.5 -320.5t-272.5 -111.5zM1585 1434l-819 -1434h-168l819 1434h168zM553 731q106 0 164.5 73t58.5 222t-58.5 222t-164.5 73t-164.5 -73t-58.5 -222t58.5 -222
t164.5 -73zM1628 840q170 0 272.5 -111.5t102.5 -320.5q0 -208 -102.5 -319.5t-272.5 -111.5q-169 0 -271 111.5t-102 319.5q0 209 101.5 320.5t271.5 111.5zM1628 702q-106 0 -164.5 -72.5t-58.5 -221.5t58.5 -222t164.5 -73t164.5 73t58.5 222t-58.5 221.5t-164.5 72.5z
" />
    <glyph glyph-name="ampersand" unicode="&#x26;" horiz-adv-x="1425" 
d="M1335 0h-217l-125 131q-181 -154 -428 -154q-212 0 -343.5 100t-131.5 281q0 68 21 123t67.5 103.5t96 85t131.5 86.5q-97 117 -136 197t-39 159q0 159 110 251.5t275 92.5q159 0 260 -89t101 -234q0 -53 -16.5 -100t-42.5 -85t-72 -79t-90.5 -72.5t-112.5 -75.5
q152 -163 336 -352q70 118 96 284h172q-28 -235 -149 -407q31 -32 110 -114.5t127 -131.5zM403 1102q0 -56 30 -113.5t108 -150.5l6 4q152 100 205 158.5t53 127.5q0 76 -49.5 123.5t-139.5 48.5q-97 -2 -155 -53.5t-58 -144.5zM575 133q181 0 306 113q-248 258 -371 391
q-57 -36 -89 -57.5t-67 -50t-52 -52t-28.5 -53t-11.5 -62.5q0 -104 82 -166.5t231 -62.5z" />
    <glyph glyph-name="quotesingle" unicode="'" horiz-adv-x="530" 
d="M350 1434v-256l-20 -406h-129l-21 406v256h170z" />
    <glyph glyph-name="parenleft" unicode="(" horiz-adv-x="815" 
d="M635 1524q-154 -290 -219.5 -514.5t-65.5 -477.5t65.5 -477t219.5 -514l-129 -78q-170 273 -248 535t-78 534t78 534.5t248 535.5z" />
    <glyph glyph-name="parenright" unicode=")" horiz-adv-x="815" 
d="M180 1524l129 78q170 -273 248 -535.5t78 -534.5t-78 -534t-248 -535l-129 78q153 289 218 513t65 478t-65 478.5t-218 513.5z" />
    <glyph glyph-name="asterisk" unicode="*" horiz-adv-x="1142" 
d="M963 1135l-287 -117l198 -240l-102 -82l-201 244l-200 -244l-103 82l197 242l-285 115l51 120l275 -110v289h129v-289l276 110z" />
    <glyph glyph-name="plus" unicode="+" horiz-adv-x="1386" 
d="M778 1116v-424h428v-162h-428v-424h-170v424h-428v162h428v424h170z" />
    <glyph glyph-name="comma" unicode="," horiz-adv-x="651" 
d="M471 86q1 -20 -6 -48t-46.5 -124.5t-117.5 -265.5h-121l135 334q-37 9 -59.5 38t-22.5 70q0 52 33.5 84.5t85.5 32.5q45 0 81.5 -28.5t37.5 -92.5z" />
    <glyph glyph-name="hyphen" unicode="-" horiz-adv-x="1021" 
d="M844 698v-161h-664v161h664z" />
    <glyph glyph-name="period" unicode="." horiz-adv-x="598" 
d="M299 207q51 0 85 -33t34 -82t-34 -82t-85 -33t-85 33t-34 82t34 82t85 33z" />
    <glyph glyph-name="slash" unicode="/" horiz-adv-x="677" 
d="M633 1577l-416 -1577h-172l416 1577h172z" />
    <glyph glyph-name="zero" unicode="0" horiz-adv-x="1392" 
d="M696 1456q274 0 426 -194t152 -545t-152 -545.5t-426 -194.5q-272 0 -424.5 193t-152.5 547t152.5 546.5t424.5 192.5zM696 139q191 0 298.5 140.5t107.5 437.5t-107.5 437t-298.5 140t-298 -140t-107 -437t107 -437.5t298 -140.5z" />
    <glyph glyph-name="one" unicode="1" horiz-adv-x="749" 
d="M492 1434h77v-1434h-170v1235l-329 -133v168z" />
    <glyph glyph-name="two" unicode="2" horiz-adv-x="1255" 
d="M1165 164v-164h-1075v123l416 362q255 223 324 296q101 104 119 185q7 28 7 60q0 119 -88 193.5t-235 74.5q-148 0 -238.5 -79.5t-120.5 -221.5h-172q31 214 176 338.5t363 124.5q217 0 351 -120.5t134 -303.5q0 -35 -6.5 -69t-15 -62.5t-31 -64t-38.5 -60t-54.5 -65
t-63 -65.5t-80 -75t-88 -79t-104.5 -91l-274 -237h794z" />
    <glyph glyph-name="three" unicode="3" horiz-adv-x="1253" 
d="M909 756q120 -38 187 -131.5t67 -223.5q0 -194 -141.5 -309t-370.5 -115q-221 0 -375.5 111t-185.5 322h172q31 -140 133.5 -205.5t253.5 -65.5q159 0 250.5 74t91.5 201q0 115 -76.5 183.5t-242.5 68.5h-199v149h150q160 0 240.5 57.5t80.5 163.5q0 119 -87 188.5
t-230 69.5q-136 0 -221.5 -58.5t-120.5 -193.5h-172q38 210 176.5 312t341.5 102q208 0 346.5 -111.5t138.5 -287.5q0 -104 -54 -184.5t-153 -116.5z" />
    <glyph glyph-name="four" unicode="4" horiz-adv-x="1288" 
d="M1219 504v-160h-211v-344h-170v344h-768v160l684 930h254v-930h211zM258 506l580 -2v770h-17z" />
    <glyph glyph-name="five" unicode="5" horiz-adv-x="1259" 
d="M682 946q100 0 189 -33t155 -93t104.5 -149t38.5 -196q0 -218 -149.5 -358t-372.5 -140q-139 0 -255.5 49t-198.5 152t-103 246h172q32 -137 135.5 -211t249.5 -74q153 0 251.5 96t98.5 240q0 148 -97.5 238t-250.5 90q-231 0 -340 -187h-164l174 818h783v-162h-653
l-95 -447q131 121 328 121z" />
    <glyph glyph-name="six" unicode="6" horiz-adv-x="1251" 
d="M672 965q97 0 184.5 -32t155.5 -91t108.5 -151t40.5 -204q0 -151 -71 -268t-193 -179.5t-272 -62.5q-109 0 -206 35.5t-170.5 100.5t-116 163.5t-42.5 217.5q0 61 11 118t40.5 123.5t64 127t98.5 152t125 174.5t161 216q15 19 22 29h199l-408 -545q134 76 269 76z
M625 139q157 0 261.5 96.5t104.5 251.5q0 157 -103.5 250.5t-260.5 93.5q-161 0 -263 -93.5t-102 -252.5q0 -157 104 -251.5t259 -94.5z" />
    <glyph glyph-name="seven" unicode="7" horiz-adv-x="1116" 
d="M70 1434h977v-129l-644 -1305h-192l635 1270h-776v164z" />
    <glyph glyph-name="eight" unicode="8" horiz-adv-x="1239" 
d="M891 756q123 -41 190.5 -138t67.5 -227q0 -190 -149.5 -302t-378.5 -112q-150 0 -269.5 48.5t-190.5 143.5t-71 222q0 130 67.5 227t190.5 138q-100 38 -154.5 119.5t-54.5 187.5q0 117 64.5 207.5t173.5 138t244 47.5q206 0 343.5 -108.5t137.5 -284.5
q0 -106 -55 -187.5t-156 -119.5zM621 1296q-140 0 -226 -67.5t-86 -184.5q0 -104 76 -164.5t236 -60.5t235.5 60.5t75.5 164.5q0 117 -85.5 184.5t-225.5 67.5zM621 137q160 0 259 70.5t99 195.5q0 267 -358 267q-361 0 -361 -267q0 -125 99.5 -195.5t261.5 -70.5z" />
    <glyph glyph-name="nine" unicode="9" horiz-adv-x="1251" 
d="M627 1456q148 0 268 -60t193 -179t73 -277q0 -61 -11 -118t-40.5 -123.5t-64 -127t-98.5 -152t-125 -174.5t-161 -216q-15 -19 -22 -29h-199l408 545q-134 -76 -268 -76q-96 0 -184 32t-156.5 91t-109 150.5t-40.5 203.5q0 151 72 268.5t194 179.5t271 62zM625 602
q161 0 263.5 93.5t102.5 252.5q0 157 -104 251.5t-260 94.5q-157 0 -261 -96t-104 -252q0 -157 104 -250.5t259 -93.5z" />
    <glyph glyph-name="colon" unicode=":" horiz-adv-x="598" 
d="M299 1030q51 0 85 -33t34 -82q0 -51 -33.5 -82.5t-85.5 -31.5t-85.5 31.5t-33.5 82.5q0 49 34 82t85 33zM299 207q51 0 85 -33t34 -82t-34 -82t-85 -33t-85 33t-34 82t34 82t85 33z" />
    <glyph glyph-name="semicolon" unicode=";" horiz-adv-x="651" 
d="M352 801q-52 0 -85.5 31.5t-33.5 82.5q0 49 34 82t85 33t85 -33t34 -82q0 -51 -33.5 -82.5t-85.5 -31.5zM471 86q1 -20 -6 -48t-46.5 -124.5t-117.5 -265.5h-121l135 334q-37 9 -59.5 38t-22.5 70q0 52 33.5 84.5t85.5 32.5q45 0 81.5 -28.5t37.5 -92.5z" />
    <glyph glyph-name="less" unicode="&#x3c;" horiz-adv-x="1386" 
d="M1206 1034v-176l-772 -242l772 -241v-180l-1026 360v121z" />
    <glyph glyph-name="equal" unicode="=" horiz-adv-x="1386" 
d="M1206 909v-157h-1026v157h1026zM1206 492v-158h-1026v158h1026z" />
    <glyph glyph-name="greater" unicode="&#x3e;" horiz-adv-x="1386" 
d="M180 1034l1026 -358v-121l-1026 -360v180l770 241l-770 242v176z" />
    <glyph glyph-name="question" unicode="?" horiz-adv-x="1173" 
d="M479 422v106q0 43 12 77.5t28 58t51.5 49.5t63 42t81.5 44q53 27 84 47t59.5 48t40.5 63t12 81q0 118 -84 189t-237 71q-295 0 -328 -297h-172q20 225 156.5 340t349.5 115q218 0 352.5 -112t134.5 -302q0 -59 -15 -107.5t-37 -82.5t-61 -67t-73.5 -54t-87.5 -49
q-44 -23 -67 -37t-49 -36t-37 -48.5t-11 -60.5v-78h-166zM565 -23q-53 0 -87 32t-34 83t34 83t87 32t87 -32t34 -83t-34 -83t-87 -32z" />
    <glyph glyph-name="at" unicode="@" horiz-adv-x="2342" 
d="M1192 1599q216 0 403.5 -69t328 -196.5t221.5 -323t81 -435.5q0 -284 -109 -435.5t-296 -151.5q-51 0 -98.5 13t-91.5 39.5t-77 74.5t-47 112q-58 -112 -161 -175.5t-236 -63.5q-206 0 -338.5 146.5t-132.5 375.5t132.5 375.5t336.5 146.5q129 0 230 -60.5t161 -166.5
v207h154l-2 -684q0 -97 51.5 -146t128.5 -49q106 0 173 102t67 322q0 179 -45.5 327t-126 252.5t-191.5 177t-240.5 106.5t-273.5 34q-198 0 -368 -66.5t-292 -186t-191 -295.5t-69 -386q0 -281 118.5 -489t321.5 -314t462 -106q233 0 421 90l29 -143q-206 -93 -455 -93
q-225 0 -419 74t-334 208.5t-219.5 333t-79.5 437.5q0 241 81.5 444t224 342t340.5 217t427 78zM1141 135q152 0 254 105.5t102 269.5q0 163 -102 270t-254 107q-153 0 -249.5 -106t-96.5 -271q0 -164 97 -269.5t249 -105.5z" />
    <glyph glyph-name="A" unicode="A" horiz-adv-x="1505" 
d="M1255 0l-170 430h-665l-170 -430h-180l573 1434h219l574 -1434h-181zM485 592h537l-268 680z" />
    <glyph glyph-name="B" unicode="B" horiz-adv-x="1341" 
d="M1004 762q123 -34 185 -129.5t62 -235.5q0 -187 -120 -292t-349 -105h-602v1434h592q216 0 325 -95.5t109 -269.5q0 -224 -202 -307zM1034 1044q0 113 -65 170.5t-217 57.5h-402v-453h398q155 0 220.5 57.5t65.5 167.5zM780 162q301 0 301 248q0 124 -71.5 189t-233.5 65
h-426v-502h430z" />
    <glyph glyph-name="C" unicode="C" horiz-adv-x="1630" 
d="M860 -23q-156 0 -293 56.5t-234.5 154t-153.5 235t-56 294.5t56 294t153.5 235t234.5 154t293 56q241 0 423.5 -130t256.5 -349h-182q-65 146 -197.5 231.5t-302.5 85.5q-160 0 -289 -75t-201.5 -207t-72.5 -295q0 -122 42.5 -229t117 -184t179 -121t224.5 -44
q170 0 302.5 85.5t197.5 232.5h182q-74 -219 -256.5 -349.5t-423.5 -130.5z" />
    <glyph glyph-name="D" unicode="D" horiz-adv-x="1517" 
d="M666 1434q207 0 375 -91.5t264 -255.5t96 -370q0 -153 -56.5 -287t-154.5 -228t-234 -148t-290 -54h-486v1434h486zM668 162q158 0 286 70t202 197.5t75 287.5q0 242 -161 398.5t-402 156.5h-318v-1110h318z" />
    <glyph glyph-name="E" unicode="E" horiz-adv-x="1179" 
d="M1090 1272h-740v-455h690v-162h-690v-493h740v-162h-910v1434h910v-162z" />
    <glyph glyph-name="F" unicode="F" horiz-adv-x="1179" 
d="M1090 1272h-740v-465h690v-162h-690v-645h-170v1434h910v-162z" />
    <glyph glyph-name="G" unicode="G" horiz-adv-x="1716" 
d="M786 745h762v-745h-149v336q-54 -165 -203.5 -262t-351.5 -97q-152 0 -286 56t-230.5 153.5t-152.5 235.5t-56 295t56.5 294.5t154 235t234.5 153.5t292 56q241 0 423.5 -128t256.5 -345h-182q-65 143 -198.5 227t-301.5 84q-243 0 -403 -164.5t-160 -416.5
q0 -162 70 -293.5t199 -208t294 -76.5q214 0 358.5 126.5t163.5 338.5h-590v145z" />
    <glyph glyph-name="H" unicode="H" horiz-adv-x="1531" 
d="M1182 1434h170v-1434h-170v659h-832v-659h-170v1434h170v-613h832v613z" />
    <glyph glyph-name="I" unicode="I" horiz-adv-x="530" 
d="M180 0v1434h170v-1434h-170z" />
    <glyph glyph-name="J" unicode="J" horiz-adv-x="1142" 
d="M793 1434h172v-985q0 -223 -125 -347.5t-326 -124.5q-199 0 -321.5 120.5t-122.5 342.5v92h172v-88q0 -154 73.5 -229.5t200.5 -75.5t202 78.5t75 235.5v981z" />
    <glyph glyph-name="K" unicode="K" horiz-adv-x="1312" 
d="M1243 0h-219l-674 696v-696h-170v1434h170v-672l651 672h218l-678 -703z" />
    <glyph glyph-name="L" unicode="L" horiz-adv-x="1110" 
d="M350 162h690v-162h-860v1434h170v-1272z" />
    <glyph glyph-name="M" unicode="M" horiz-adv-x="1677" 
d="M1288 1434h209v-1434h-170v1214l-485 -733h-17l-485 733v-1214h-170v1434h209l455 -684z" />
    <glyph glyph-name="N" unicode="N" horiz-adv-x="1511" 
d="M1174 1434h169v-1434h-210l-809 1206l16 -606v-600h-170v1434h209l809 -1207l-14 607v600z" />
    <glyph glyph-name="O" unicode="O" horiz-adv-x="1716" 
d="M860 1456q205 0 374 -96t266 -265.5t97 -377.5t-97 -377.5t-266.5 -266t-375.5 -96.5q-154 0 -290.5 56.5t-235 154.5t-156 235.5t-57.5 293.5t57.5 293.5t156 235t236 154t291.5 56.5zM858 1294q-158 0 -287.5 -75t-204.5 -207.5t-75 -294.5t75 -295t204.5 -208
t287.5 -75t287.5 74.5t204.5 207.5t75 296t-75 295.5t-204.5 207t-287.5 74.5z" />
    <glyph glyph-name="P" unicode="P" horiz-adv-x="1370" 
d="M756 1434q232 0 363.5 -127.5t131.5 -331.5t-132 -335.5t-363 -131.5h-406v-508h-170v1434h576zM750 670q162 0 245.5 85.5t83.5 217.5q0 131 -83.5 215t-245.5 84h-400v-602h400z" />
    <glyph glyph-name="Q" unicode="Q" horiz-adv-x="1716" 
d="M1597 717q0 -164 -61.5 -306t-171.5 -243l233 -311l-131 -99l-235 314q-170 -95 -373 -95q-154 0 -290.5 56.5t-235 154.5t-156 235.5t-57.5 293.5t57.5 293.5t156 235t236 154t291.5 56.5q205 0 374 -96t266 -265.5t97 -377.5zM858 139q158 0 287.5 74.5t204.5 207.5
t75 296t-75 295.5t-204.5 207t-287.5 74.5t-287.5 -75t-204.5 -207.5t-75 -294.5t75 -295t204.5 -208t287.5 -75z" />
    <glyph glyph-name="R" unicode="R" horiz-adv-x="1357" 
d="M1077 0l-448 555h-279v-555h-170v1434h568q232 0 358.5 -122t126.5 -321q0 -180 -105.5 -294.5t-298.5 -137.5l459 -559h-211zM350 1272v-565h381q163 0 246.5 78t83.5 206q0 126 -84 203.5t-246 77.5h-381z" />
    <glyph glyph-name="S" unicode="S" horiz-adv-x="1312" 
d="M678 811q83 -18 139 -32.5t118 -35t102 -41.5t78.5 -51t60 -65.5t34.5 -82.5t13 -104q0 -85 -29 -156t-78 -119.5t-116.5 -82t-143 -49t-158.5 -15.5q-139 0 -249 35t-182 97.5t-116 142.5t-61 178h172q72 -293 432 -293q167 0 262 67t95 189q0 30 -5.5 54t-20.5 44
t-30 35t-46 29.5t-56.5 24.5t-72.5 22.5t-82.5 20.5t-98.5 22q-72 16 -124.5 30t-109 33.5t-95 40.5t-75.5 50t-58.5 63.5t-34.5 79t-13 98.5q0 129 71.5 225.5t187 143.5t255.5 47q123 0 221.5 -29t165.5 -81.5t109.5 -120t62.5 -150.5h-172q-85 221 -385 221
q-159 0 -252.5 -68.5t-93.5 -187.5q0 -87 78 -132.5t301 -96.5z" />
    <glyph glyph-name="T" unicode="T" horiz-adv-x="1234" 
d="M1165 1434v-162h-463v-1272h-172v1272h-460v162h1095z" />
    <glyph glyph-name="U" unicode="U" horiz-adv-x="1484" 
d="M1141 1434h174v-869q0 -145 -43 -258t-120 -184.5t-179.5 -108.5t-224.5 -37t-224.5 37t-180 108.5t-120.5 184.5t-43 258v869h174v-861q0 -218 108 -326t286 -108t285.5 108t107.5 326v861z" />
    <glyph glyph-name="V" unicode="V" horiz-adv-x="1386" 
d="M1139 1434h180l-516 -1434h-219l-514 1434h180l442 -1246z" />
    <glyph glyph-name="W" unicode="W" horiz-adv-x="2041" 
d="M1796 1434h176l-399 -1434h-215l-146 518l-176 711h-30l-177 -711l-143 -518h-217l-399 1434h176l190 -686l144 -574l141 574l190 686h219l191 -686l143 -576l144 576z" />
    <glyph glyph-name="X" unicode="X" horiz-adv-x="1296" 
d="M1227 0h-203l-377 594l-375 -594h-202l473 737l-453 697h203l356 -562l359 562h202l-456 -707z" />
    <glyph glyph-name="Y" unicode="Y" horiz-adv-x="1368" 
d="M1300 1434l-530 -920v-514h-170v510l-530 924h192l422 -734l422 734h194z" />
    <glyph glyph-name="Z" unicode="Z" horiz-adv-x="1218" 
d="M301 162h827v-162h-1038v162l828 1110h-793v162h1001v-162z" />
    <glyph glyph-name="bracketleft" unicode="[" horiz-adv-x="811" 
d="M631 1577v-162h-281v-1765h281v-162h-451v2089h451z" />
    <glyph glyph-name="backslash" unicode="\" horiz-adv-x="948" 
d="M352 1577l416 -1577h-172l-416 1577h172z" />
    <glyph glyph-name="bracketright" unicode="]" horiz-adv-x="811" 
d="M180 1577h451v-2089h-451v162h281v1765h-281v162z" />
    <glyph glyph-name="asciicircum" unicode="^" horiz-adv-x="1181" 
d="M592 1456l412 -412l-121 -118l-291 291l-293 -291l-119 118z" />
    <glyph glyph-name="underscore" unicode="_" horiz-adv-x="1302" 
d="M1122 -39v-162h-942v162h942z" />
    <glyph glyph-name="grave" unicode="`" horiz-adv-x="802" 
d="M285 1720l338 -338l-84 -82l-359 314z" />
    <glyph glyph-name="a" unicode="a" horiz-adv-x="1388" 
d="M1067 1126h170v-1126h-170v227q-68 -117 -179.5 -183.5t-254.5 -66.5q-230 0 -378.5 165.5t-148.5 420.5q0 256 149 421t378 165q143 0 255.5 -68t178.5 -186v231zM666 139q173 0 288 119.5t115 304.5t-115 304.5t-288 119.5q-171 0 -279 -119.5t-108 -304.5
q0 -186 108.5 -305t278.5 -119z" />
    <glyph glyph-name="b" unicode="b" horiz-adv-x="1388" 
d="M756 1149q229 0 377.5 -165t148.5 -421q0 -255 -149 -420.5t-379 -165.5q-143 0 -254.5 66.5t-177.5 183.5v-227h-170v1577h170v-682q66 118 178.5 186t255.5 68zM723 139q170 0 278.5 119t108.5 305q0 185 -108.5 304.5t-278.5 119.5q-173 0 -288.5 -119.5
t-115.5 -304.5t115.5 -304.5t288.5 -119.5z" />
    <glyph glyph-name="c" unicode="c" horiz-adv-x="1320" 
d="M688 -23q-248 0 -415 167.5t-167 418.5t167 418.5t415 167.5q200 0 351.5 -112.5t195.5 -303.5h-176q-40 120 -140 189t-231 69q-178 0 -293.5 -121t-115.5 -307q0 -187 115.5 -307.5t293.5 -120.5q131 0 231 70t140 188h176q-45 -192 -197 -304t-350 -112z" />
    <glyph glyph-name="d" unicode="d" horiz-adv-x="1396" 
d="M1075 1577h170v-1577h-170v227q-66 -117 -178.5 -183.5t-255.5 -66.5q-230 0 -378 165.5t-148 420.5q0 256 148.5 421t377.5 165q143 0 255.5 -68t178.5 -186v682zM674 139q173 0 288 119.5t115 304.5t-115 304.5t-288 119.5q-170 0 -278.5 -119.5t-108.5 -304.5
q0 -186 108.5 -305t278.5 -119z" />
    <glyph glyph-name="e" unicode="e" horiz-adv-x="1341" 
d="M682 1149q172 0 303 -81.5t199 -226.5t61 -329h-964q12 -173 124.5 -274t284.5 -101q119 0 210.5 50t141.5 147h177q-69 -175 -210.5 -266t-324.5 -91q-165 0 -297 73t-206.5 206.5t-74.5 302.5t73.5 304t205 210.5t297.5 75.5zM682 989q-152 0 -257.5 -88t-135.5 -229
h772q-28 144 -128.5 230.5t-250.5 86.5z" />
    <glyph glyph-name="f" unicode="f" horiz-adv-x="976" 
d="M709 1448q-269 0 -269 -315v-7h457v-159h-457v-967h-170v967h-217v159h217v15q0 217 114.5 337.5t305.5 120.5q136 0 242 -47l-31 -141l-29 8q-80 29 -163 29z" />
    <glyph glyph-name="g" unicode="g" horiz-adv-x="1388" 
d="M1067 1126h170v-1114q0 -252 -144 -399.5t-391 -147.5q-206 0 -358 107t-192 299h176q35 -120 133.5 -187t236.5 -67q177 0 273 101.5t96 289.5v228q-68 -117 -180 -183.5t-254 -66.5q-230 0 -378.5 164.5t-148.5 416.5q0 253 149 417.5t378 164.5q140 0 254 -68
t180 -184v229zM666 147q173 0 288 119t115 301t-115 301t-288 119q-171 0 -279 -118.5t-108 -301.5t108.5 -301.5t278.5 -118.5z" />
    <glyph glyph-name="h" unicode="h" horiz-adv-x="1284" 
d="M735 1149q192 0 300 -114.5t108 -319.5v-715h-170v682q0 152 -72.5 228.5t-212.5 76.5q-171 0 -263.5 -110t-92.5 -299v-578h-170v1577h170v-670q126 242 403 242z" />
    <glyph glyph-name="i" unicode="i" horiz-adv-x="471" 
d="M238 1622q51 0 84.5 -32.5t33.5 -80.5q0 -49 -33.5 -81.5t-84.5 -32.5t-85 32.5t-34 81.5q0 48 34 80.5t85 32.5zM152 0v1126h170v-1126h-170z" />
    <glyph glyph-name="j" unicode="j" horiz-adv-x="471" 
d="M238 1622q51 0 84.5 -32.5t33.5 -80.5q0 -49 -33.5 -81.5t-84.5 -32.5t-85 32.5t-34 81.5q0 48 34 80.5t85 32.5zM152 -512v1638h170v-1638h-170z" />
    <glyph glyph-name="k" unicode="k" horiz-adv-x="1210" 
d="M1157 0h-223l-602 543v-543h-170v1577h170v-952l549 501h223l-592 -534z" />
    <glyph glyph-name="l" unicode="l" horiz-adv-x="473" 
d="M158 0v1577h170v-1577h-170z" />
    <glyph glyph-name="m" unicode="m" horiz-adv-x="1943" 
d="M1427 1149q179 0 277 -109.5t98 -308.5v-731h-170v700q0 287 -254 287q-153 0 -235 -115t-82 -294l2 -578h-172v700q0 287 -254 287q-152 0 -233.5 -115t-81.5 -294v-578h-170v1126h170v-213q120 236 366 236q138 0 228 -66.5t124 -191.5q119 258 387 258z" />
    <glyph glyph-name="n" unicode="n" horiz-adv-x="1271" 
d="M725 1149q191 0 299.5 -114.5t108.5 -319.5v-715h-170v682q0 151 -73 228t-212 77q-169 0 -262.5 -110t-93.5 -299v-578h-170v1126h170v-223q123 246 403 246z" />
    <glyph glyph-name="o" unicode="o" horiz-adv-x="1372" 
d="M686 1149q119 0 226.5 -44.5t185.5 -121.5t124 -186.5t46 -233.5q0 -166 -77 -300.5t-210.5 -210t-294.5 -75.5q-120 0 -227 44.5t-184.5 122t-123 186.5t-45.5 233t46 233.5t124 186.5t185 121.5t225 44.5zM686 987q-171 0 -289 -119.5t-118 -304.5q0 -184 117.5 -304
t289.5 -120q174 0 292 120t118 304t-118.5 304t-291.5 120z" />
    <glyph glyph-name="p" unicode="p" horiz-adv-x="1398" 
d="M766 1149q229 0 377.5 -165t148.5 -421q0 -255 -149 -420.5t-379 -165.5q-143 0 -254.5 66.5t-177.5 183.5v-739h-170v1638h170v-231q66 118 178.5 186t255.5 68zM733 139q170 0 278.5 119t108.5 305q0 185 -108.5 304.5t-278.5 119.5q-173 0 -288 -119.5t-115 -304.5
t115 -304.5t288 -119.5z" />
    <glyph glyph-name="q" unicode="q" horiz-adv-x="1388" 
d="M1067 1126h170v-1638h-170v739q-66 -117 -178.5 -183.5t-255.5 -66.5q-230 0 -378.5 165.5t-148.5 420.5q0 256 149 421t378 165q143 0 255.5 -68t178.5 -186v231zM666 139q173 0 288 119.5t115 304.5t-115 304.5t-288 119.5q-171 0 -279 -119.5t-108 -304.5
q0 -186 108.5 -305t278.5 -119z" />
    <glyph glyph-name="r" unicode="r" horiz-adv-x="845" 
d="M723 1149q38 0 70 -4v-174q-36 4 -72 4q-182 0 -290.5 -115.5t-108.5 -327.5v-532h-170v1126h170v-252q53 130 154.5 202.5t246.5 72.5z" />
    <glyph glyph-name="s" unicode="s" horiz-adv-x="1177" 
d="M629 -23q-222 0 -366.5 98.5t-178.5 276.5h174q33 -116 121.5 -164.5t249.5 -48.5q130 0 210.5 44t80.5 124q0 31 -13.5 54t-36.5 39.5t-61.5 31t-80.5 25.5t-102 26q-25 6 -38 9q-73 18 -123.5 32.5t-101 32t-82.5 35t-61 40t-45 48t-25 58t-9 71.5q0 159 126.5 249.5
t330.5 90.5q196 0 320.5 -85t158.5 -239h-172q-61 162 -303 162q-134 0 -211.5 -46t-77.5 -120q0 -23 6.5 -40t26.5 -32t39.5 -26t63 -24.5t79 -23t103.5 -26.5q92 -23 136.5 -35t110 -34t95.5 -43t63.5 -52t45.5 -71t12 -92q0 -112 -64 -191.5t-167.5 -116.5t-233.5 -37z
" />
    <glyph glyph-name="t" unicode="t" horiz-adv-x="1056" 
d="M948 190l31 -141q-52 -28 -136 -50t-169 -22q-186 0 -295 117.5t-109 335.5v537h-217v159h217v271l170 37v-308h506v-159h-506v-529q0 -147 66 -225t196 -78q97 0 246 55z" />
    <glyph glyph-name="u" unicode="u" horiz-adv-x="1257" 
d="M942 1126h170v-1126h-170v223q-127 -246 -401 -246q-188 0 -294 115t-106 320v714h170v-682q0 -151 70.5 -228t208.5 -77q166 0 259 110.5t93 299.5v577z" />
    <glyph glyph-name="v" unicode="v" horiz-adv-x="1165" 
d="M930 1126h182l-424 -1126h-211l-424 1126h183l346 -956z" />
    <glyph glyph-name="w" unicode="w" horiz-adv-x="1724" 
d="M1501 1126h170l-332 -1126h-204l-111 379l-145 571h-31l-146 -571l-112 -379h-205l-332 1126h170l105 -354l164 -596l161 596l105 354h209l104 -354l162 -594l164 594z" />
    <glyph glyph-name="x" unicode="x" horiz-adv-x="1134" 
d="M1081 0h-204l-312 449l-307 -449h-205l410 580l-387 546h205l288 -419l285 419h207l-389 -548z" />
    <glyph glyph-name="y" unicode="y" horiz-adv-x="1206" 
d="M971 1126h182l-760 -1638h-182l299 649l-457 989h183l364 -807z" />
    <glyph glyph-name="z" unicode="z" horiz-adv-x="1103" 
d="M299 160l721 2v-162h-936v162l713 805l-674 -2v161h891v-161z" />
    <glyph glyph-name="braceleft" unicode="{" horiz-adv-x="1024" 
d="M604 899q0 -166 -48 -251.5t-165 -115.5q117 -30 165 -115.5t48 -250.5v-111q0 -235 48.5 -328.5t191.5 -99.5v-162q-200 0 -305 136.5t-105 402.5v117q0 50 -1.5 84t-6.5 71t-14.5 61.5t-25.5 47.5t-39 36t-55.5 20.5t-74.5 7.5h-37v167h37q42 0 74.5 7.5t55.5 20.5
t39 36t25.5 47.5t14.5 61.5t6.5 71t1.5 84v117q0 266 105 402t305 136v-161q-143 -6 -191.5 -99.5t-48.5 -328.5v-111z" />
    <glyph glyph-name="bar" unicode="|" horiz-adv-x="530" 
d="M350 1434v-1627h-170v1627h170z" />
    <glyph glyph-name="braceright" unicode="}" horiz-adv-x="1024" 
d="M807 616h37v-167h-37q-42 0 -74.5 -7.5t-55.5 -20.5t-39 -36t-25.5 -47.5t-14.5 -61.5t-6.5 -71t-1.5 -84v-117q0 -266 -105 -402.5t-305 -136.5v162q143 6 191.5 99.5t48.5 328.5v111q0 165 48 250.5t165 115.5q-117 30 -165 115.5t-48 251.5v111q0 235 -48.5 328.5
t-191.5 99.5v161q200 0 305 -136t105 -402v-117q0 -50 1.5 -84t6.5 -71t14.5 -61.5t25.5 -47.5t39 -36t55.5 -20.5t74.5 -7.5z" />
    <glyph glyph-name="asciitilde" unicode="~" horiz-adv-x="1308" 
d="M887 502q-46 0 -93.5 18t-71.5 33.5t-83 56.5q-17 11 -51 34.5t-50 33.5t-42 19.5t-50 9.5q-60 0 -91 -47t-31 -132h-144q0 168 64.5 249t177.5 81q46 0 93.5 -18t71 -33t81.5 -55q18 -12 51.5 -36t50 -34t41.5 -19.5t49 -9.5q62 0 93.5 47t31.5 131h143
q0 -168 -64 -248.5t-177 -80.5z" />
    <glyph glyph-name="exclamdown" unicode="&#xa1;" horiz-adv-x="598" 
d="M299 731q-51 0 -85 33t-34 82t34 82t85 33t85 -33t34 -82t-34 -82t-85 -33zM385 -496h-172v557l12 455h148l12 -455v-557z" />
    <glyph glyph-name="cent" unicode="&#xa2;" horiz-adv-x="1320" 
d="M688 135q131 0 231 70t140 188h176q-40 -171 -166 -279t-297 -130v-291h-170v291q-217 30 -356.5 190.5t-139.5 388.5q0 227 139.5 389t356.5 191v291h170v-289q172 -24 298 -133t165 -279h-176q-40 120 -140 189t-231 69q-178 0 -293.5 -121t-115.5 -307
q0 -187 115.5 -307.5t293.5 -120.5z" />
    <glyph glyph-name="sterling" unicode="&#xa3;" horiz-adv-x="1484" 
d="M1196 350h170q0 -191 -87 -270.5t-267 -79.5h-893v162h100q80 0 108.5 33.5t28.5 109.5v307h-237v154h237v240q0 205 120.5 327.5t336.5 122.5q213 0 338 -120.5t125 -323.5h-172q0 130 -70.5 206t-212.5 76q-146 0 -220.5 -78t-74.5 -219v-231h432v-154h-432v-297
q0 -59 -14 -93.5t-49 -59.5h526q117 0 162 39.5t45 148.5z" />
    <glyph glyph-name="currency" unicode="&#xa4;" horiz-adv-x="1486" 
d="M1219 719q0 -154 -80 -273l168 -170l-119 -120l-168 168q-119 -86 -277 -86q-149 0 -276 86l-166 -168l-121 120l168 168q-80 122 -80 275q0 152 82 274l-170 170l121 119l168 -168q122 86 274 86q155 0 275 -84l168 166l121 -119l-168 -170q80 -119 80 -274zM743 389
q137 0 229.5 93t92.5 237q0 143 -93 236.5t-229 93.5q-134 0 -226.5 -93t-92.5 -237q0 -143 92 -236.5t227 -93.5z" />
    <glyph glyph-name="yen" unicode="&#xa5;" horiz-adv-x="1468" 
d="M1350 1434l-488 -846h346v-103h-387v-147h387v-100h-387v-238h-172v238h-389v100h389v147h-389v103h344l-485 846h194l422 -734l422 734h193z" />
    <glyph glyph-name="brokenbar" unicode="&#xa6;" horiz-adv-x="530" 
d="M350 1434v-727h-170v727h170zM350 532v-725h-170v725h170z" />
    <glyph glyph-name="section" unicode="&#xa7;" horiz-adv-x="1325" 
d="M967 358q82 -39 119.5 -92t37.5 -137q0 -161 -120.5 -250.5t-321.5 -89.5q-193 0 -321.5 83t-161.5 241h172q29 -99 116 -145t199 -46q121 0 193.5 50.5t72.5 138.5q0 68 -60 99.5t-243 76.5q-58 14 -90.5 22.5t-81 22t-75 23.5t-63 26t-56 31.5t-42 36.5t-33.5 44.5
t-18.5 53t-7.5 63.5q0 90 45.5 155.5t130.5 121.5q-82 39 -119.5 92t-37.5 137q0 160 125 250t323 90q193 0 317.5 -79t159.5 -234h-172q-21 65 -70 107t-108 57.5t-131 15.5q-119 0 -195.5 -51t-76.5 -139q0 -67 60.5 -98.5t242.5 -76.5q217 -54 294 -88q129 -56 160 -151
q13 -38 13 -84q0 -90 -45.5 -155.5t-130.5 -121.5zM356 643q0 -41 16.5 -68.5t56.5 -47.5t88.5 -35t131.5 -36q27 -6 41 -10q115 -30 141 -38q69 45 103.5 90t34.5 104q0 41 -16.5 68.5t-56.5 47.5t-88.5 35t-131.5 36q-27 6 -41 10q-125 34 -141 39q-69 -45 -103.5 -90.5
t-34.5 -104.5z" />
    <glyph glyph-name="dieresis" unicode="&#xa8;" horiz-adv-x="1046" 
d="M291 1616q47 0 78.5 -31t31.5 -76q0 -46 -31.5 -77t-78.5 -31t-79 31t-32 77q0 45 32 76t79 31zM754 1616q47 0 79.5 -31.5t32.5 -75.5q0 -46 -32.5 -77t-79.5 -31q-46 0 -78.5 31.5t-32.5 76.5q0 44 32.5 75.5t78.5 31.5z" />
    <glyph glyph-name="copyright" unicode="&#xa9;" horiz-adv-x="1466" 
d="M733 1599q150 0 277.5 -74t201.5 -201t74 -277q0 -112 -44 -214.5t-118 -176.5t-176.5 -118t-214.5 -44t-214.5 44t-176.5 118t-118 176.5t-44 214.5q0 150 74 277t201.5 201t277.5 74zM733 573q195 0 333 139t138 335t-138 334.5t-333 138.5t-333 -138.5t-138 -334.5
t138 -335t333 -139zM735 1245q-81 0 -135.5 -55.5t-54.5 -142.5q0 -85 55 -141t135 -56q57 0 102.5 30.5t65.5 82.5h103q-25 -93 -100 -149t-171 -56q-122 0 -204 82.5t-82 206.5q0 125 82 207.5t204 82.5q96 0 171.5 -55.5t99.5 -148.5h-103q-20 52 -65.5 82t-102.5 30z
" />
    <glyph glyph-name="guillemotleft" unicode="&#xab;" horiz-adv-x="1325" 
d="M588 164l-408 407l408 408l117 -117l-293 -291l293 -290zM1028 164l-407 407l407 408l117 -117l-291 -291l291 -290z" />
    <glyph glyph-name="logicalnot" unicode="&#xac;" horiz-adv-x="1386" 
d="M1206 698v-440h-170v279h-856v161h1026z" />
    <glyph glyph-name="registered" unicode="&#xae;" horiz-adv-x="1466" 
d="M733 1599q150 0 277.5 -74t201.5 -201t74 -277q0 -112 -44 -214.5t-118 -176.5t-176.5 -118t-214.5 -44t-214.5 44t-176.5 118t-118 176.5t-44 214.5q0 150 74 277t201.5 201t277.5 74zM733 573q195 0 333 139t138 335t-138 334.5t-333 138.5t-334 -138.5t-139 -334.5
t139 -335t334 -139zM967 1149q0 -70 -41.5 -117t-116.5 -57l176 -219h-117l-170 217h-75v-217h-95v569h254q92 0 138.5 -48t46.5 -128zM623 1243v-194h133q63 0 88.5 25t25.5 73t-25.5 72t-88.5 24h-133z" />
    <glyph glyph-name="macron" unicode="&#xaf;" horiz-adv-x="872" 
d="M692 1577v-129h-512v129h512z" />
    <glyph glyph-name="degree" unicode="&#xb0;" horiz-adv-x="1062" 
d="M530 1599q148 0 250.5 -102t102.5 -248t-103.5 -249t-249.5 -103q-145 0 -248 103t-102 249q-1 146 101 248t249 102zM530 1473q-92 0 -156.5 -65t-64.5 -159q0 -95 64 -160t157 -65t158.5 65t65.5 160q0 94 -65 159t-159 65z" />
    <glyph glyph-name="plusminus" unicode="&#xb1;" horiz-adv-x="1386" 
d="M778 1116v-297h428v-133h-428v-305h-170v305h-428v133h428v297h170zM1206 295v-133h-1026v133h1026z" />
    <glyph glyph-name="uni00B2" unicode="&#xb2;" horiz-adv-x="851" 
d="M283 885h495v-123h-704v106l297 224q134 100 177.5 148.5t43.5 107.5q0 61 -43.5 99t-118.5 38q-169 0 -192 -178h-150q14 134 104 213t242 79q147 0 228 -75t81 -181q0 -92 -64 -163.5t-212 -169.5z" />
    <glyph glyph-name="uni00B3" unicode="&#xb3;" horiz-adv-x="845" 
d="M639 1198q61 -27 97 -80.5t36 -126.5q0 -106 -86 -180t-244 -74q-152 0 -250.5 73t-117.5 202h151q17 -79 73 -119.5t138 -40.5q88 0 136.5 40t48.5 107q0 63 -35 97t-94 34h-154v103h113q59 0 101 30.5t42 88.5q0 61 -44.5 97t-121.5 36q-74 0 -124.5 -39t-61.5 -119
h-152q13 127 106 199.5t236 72.5q146 0 228.5 -70.5t82.5 -174.5q0 -102 -104 -156z" />
    <glyph glyph-name="acute" unicode="&#xb4;" horiz-adv-x="802" 
d="M516 1722l107 -106l-361 -313l-82 79z" />
    <glyph glyph-name="paragraph" unicode="&#xb6;" horiz-adv-x="1306" 
d="M389 1434h737v-1641h-170v1479h-303v-1479h-170v1053h-94q-91 0 -150 59t-59 150v170q0 91 59 150t150 59z" />
    <glyph glyph-name="periodcentered" unicode="&#xb7;" horiz-adv-x="598" 
d="M299 756q51 0 85 -33.5t34 -83.5q0 -49 -34 -82t-85 -33t-85 33t-34 82q0 50 34 83.5t85 33.5z" />
    <glyph glyph-name="cedilla" unicode="&#xb8;" horiz-adv-x="745" 
d="M379 -166q85 -12 144 -57t59 -127q0 -90 -76.5 -137.5t-204.5 -47.5q-81 0 -121 9v94q45 -10 105 -10q75 0 118 25t43 75q0 104 -206 115l96 227h123z" />
    <glyph glyph-name="uni00B9" unicode="&#xb9;" horiz-adv-x="550" 
d="M399 1577h78v-815h-149v657l-254 -90v137z" />
    <glyph glyph-name="guillemotright" unicode="&#xbb;" horiz-adv-x="1325" 
d="M297 164l-117 117l291 290l-291 291l117 117l408 -408zM737 164l-116 117l292 290l-292 291l116 117l408 -408z" />
    <glyph glyph-name="onequarter" unicode="&#xbc;" horiz-adv-x="1763" 
d="M477 618h-149v658l-254 -90v137l325 111h78v-816zM1157 1434h166l-819 -1434h-166zM1692 297v-123h-150v-174h-149v174h-441v123l402 518h188v-518h150zM1083 297h310v405z" />
    <glyph glyph-name="onehalf" unicode="&#xbd;" horiz-adv-x="1875" 
d="M477 618h-149v658l-254 -90v137l325 111h78v-816zM1157 1434h166l-819 -1434h-166zM1307 123h495v-123h-704v109l297 223q134 99 177.5 147t43.5 109q0 60 -43.5 98.5t-118.5 38.5q-169 0 -192 -180h-150q14 134 104 214.5t242 80.5q147 0 228 -76t81 -182
q0 -92 -64 -164t-212 -170z" />
    <glyph glyph-name="threequarters" unicode="&#xbe;" horiz-adv-x="1972" 
d="M772 848q0 -106 -86 -180t-244 -74q-152 0 -250.5 72.5t-117.5 201.5h151q17 -79 73 -119t138 -40q88 0 136.5 40t48.5 107q0 63 -35 97t-94 34h-154v103h113q59 0 101 30t42 88q0 61 -44.5 97t-121.5 36q-75 0 -125 -38.5t-61 -118.5h-152q13 127 106 199.5t236 72.5
q146 0 228.5 -71t82.5 -175q0 -101 -104 -155q61 -27 97 -80.5t36 -126.5zM1366 1434h166l-819 -1434h-166zM1898 297v-123h-149v-174h-150v174h-440v123l402 518h188v-518h149zM1290 297h309v405z" />
    <glyph glyph-name="questiondown" unicode="&#xbf;" horiz-adv-x="1173" 
d="M608 944q52 0 86.5 -32.5t34.5 -82.5t-34.5 -82t-86.5 -32q-53 0 -88 32t-35 82q0 51 35 83t88 32zM694 500v-107q0 -42 -12 -77t-28 -58t-52 -49.5t-62 -41.5t-81 -44q-106 -54 -152.5 -103t-46.5 -137q0 -118 85 -189t237 -71q296 0 329 297h172q-20 -225 -156 -340
t-349 -115q-218 0 -353 112t-135 302q0 59 14.5 107.5t36.5 83t60.5 67t73 54t87.5 49.5q44 22 67.5 36.5t50 36.5t37.5 48.5t11 60.5v78h166z" />
    <glyph glyph-name="Agrave" unicode="&#xc0;" horiz-adv-x="1505" 
d="M973 1659l-84 -82l-359 315l105 105zM1255 0l-170 430h-665l-170 -430h-180l573 1434h219l574 -1434h-181zM485 592h537l-268 680z" />
    <glyph glyph-name="Aacute" unicode="&#xc1;" horiz-adv-x="1505" 
d="M973 1892l-361 -315l-82 82l336 338zM1255 0l-170 430h-665l-170 -430h-180l573 1434h219l574 -1434h-181zM485 592h537l-268 680z" />
    <glyph glyph-name="Acircumflex" unicode="&#xc2;" horiz-adv-x="1505" 
d="M752 1827l-242 -250l-94 94l336 340l338 -340l-97 -94zM1255 0l-170 430h-665l-170 -430h-180l573 1434h219l574 -1434h-181zM485 592h537l-268 680z" />
    <glyph glyph-name="Atilde" unicode="&#xc3;" horiz-adv-x="1505" 
d="M598 1784q-88 0 -88 -158h-111q0 293 195 293q46 0 81 -19.5t95 -72.5q3 -3 15.5 -14.5t15.5 -14.5t14 -12t15 -12t13.5 -9.5t15.5 -8.5t14.5 -5.5t16.5 -4.5t17 -1q47 0 67.5 40t20.5 118h111q0 -295 -195 -295q-48 0 -82.5 20t-93.5 74q-3 3 -15.5 14.5t-15.5 14.5
t-14 12t-15 12t-13.5 9.5t-15.5 8.5t-14.5 5.5t-16.5 4.5t-17 1zM1255 0l-170 430h-665l-170 -430h-180l573 1434h219l574 -1434h-181zM485 592h537l-268 680z" />
    <glyph glyph-name="Adieresis" unicode="&#xc4;" horiz-adv-x="1505" 
d="M520 1679q-47 0 -78.5 30.5t-31.5 76.5t31.5 76t78.5 30t79 -30t32 -76t-32 -76.5t-79 -30.5zM983 1679q-46 0 -78.5 31t-32.5 76t32.5 75.5t78.5 30.5q48 0 80.5 -30.5t32.5 -75.5q0 -46 -33 -76.5t-80 -30.5zM1255 0l-170 430h-665l-170 -430h-180l573 1434h219
l574 -1434h-181zM485 592h537l-268 680z" />
    <glyph glyph-name="Aring" unicode="&#xc5;" horiz-adv-x="1505" 
d="M754 1577q-103 0 -175.5 72.5t-72.5 175.5q0 104 72 176t176 72t176 -72t71 -176q1 -103 -71.5 -175.5t-175.5 -72.5zM754 1968q-59 0 -100.5 -41t-41.5 -102t41.5 -102.5t100.5 -41.5t100 41.5t41 102.5t-41 102t-100 41zM1255 0l-170 430h-665l-170 -430h-180l573 1434
h219l574 -1434h-181zM485 592h537l-268 680z" />
    <glyph glyph-name="AE" unicode="&#xc6;" horiz-adv-x="1757" 
d="M1667 1272h-741v-455h690v-162h-690v-493h741v-162h-911v430h-336l-170 -430h-180l573 1434h219h805v-162zM485 592h271v686z" />
    <glyph glyph-name="Ccedilla" unicode="&#xc7;" horiz-adv-x="1630" 
d="M858 139q170 0 302.5 85.5t197.5 232.5h182q-72 -217 -254 -348t-418 -132l-69 -143q85 -12 143.5 -57t58.5 -127q0 -90 -76 -137.5t-204 -47.5q-81 0 -121 9v94q45 -10 105 -10q75 0 118 25t43 75q0 104 -207 115l91 211q-182 25 -324.5 125.5t-222.5 259t-80 348.5
q0 157 56 294t153.5 235t234.5 154t293 56q241 0 423.5 -130t256.5 -349h-182q-65 146 -197.5 231.5t-302.5 85.5q-160 0 -289 -75t-201.5 -207t-72.5 -295q0 -122 42.5 -229t117 -184t179 -121t224.5 -44z" />
    <glyph glyph-name="Egrave" unicode="&#xc8;" horiz-adv-x="1179" 
d="M811 1659l-84 -82l-358 315l104 105zM1090 1272h-740v-455h690v-162h-690v-493h740v-162h-910v1434h910v-162z" />
    <glyph glyph-name="Eacute" unicode="&#xc9;" horiz-adv-x="1179" 
d="M811 1892l-360 -315l-82 82l336 338zM1090 1272h-740v-455h690v-162h-690v-493h740v-162h-910v1434h910v-162z" />
    <glyph glyph-name="Ecircumflex" unicode="&#xca;" horiz-adv-x="1179" 
d="M590 1827l-242 -250l-94 94l336 340l338 -340l-97 -94zM1090 1272h-740v-455h690v-162h-690v-493h740v-162h-910v1434h910v-162z" />
    <glyph glyph-name="Edieresis" unicode="&#xcb;" horiz-adv-x="1179" 
d="M358 1679q-47 0 -78.5 30.5t-31.5 76.5t31.5 76t78.5 30t79 -30t32 -76t-32 -76.5t-79 -30.5zM821 1679q-46 0 -78 31t-32 76t32 75.5t78 30.5q48 0 80.5 -30.5t32.5 -75.5q0 -46 -33 -76.5t-80 -30.5zM1090 1272h-740v-455h690v-162h-690v-493h740v-162h-910v1434h910
v-162z" />
    <glyph glyph-name="Igrave" unicode="&#xcc;" horiz-adv-x="530" 
d="M147 1997l338 -338l-84 -82l-358 315zM180 0v1434h170v-1434h-170z" />
    <glyph glyph-name="Iacute" unicode="&#xcd;" horiz-adv-x="530" 
d="M379 1997l106 -105l-360 -315l-82 82zM180 0v1434h170v-1434h-170z" />
    <glyph glyph-name="Icircumflex" unicode="&#xce;" horiz-adv-x="530" 
d="M602 1671l-96 -94l-242 250l-241 -250l-95 94l336 340zM180 0v1434h170v-1434h-170z" />
    <glyph glyph-name="Idieresis" unicode="&#xcf;" horiz-adv-x="530" 
d="M33 1892q47 0 78.5 -30t31.5 -76t-31.5 -76.5t-78.5 -30.5t-79 30.5t-32 76.5t32 76t79 30zM496 1892q48 0 80 -30t32 -76t-32.5 -76.5t-79.5 -30.5q-46 0 -78.5 31t-32.5 76t32.5 75.5t78.5 30.5zM180 0v1434h170v-1434h-170z" />
    <glyph glyph-name="Eth" unicode="&#xd0;" horiz-adv-x="1517" 
d="M666 1434q207 0 375 -91.5t264 -255.5t96 -370q0 -153 -56.5 -287t-154.5 -228t-234 -148t-290 -54h-486v635h-145v162h145v637h486zM668 162q158 0 286 70t202 197.5t75 287.5q0 242 -161 398.5t-402 156.5h-318v-475h287v-162h-287v-473h318z" />
    <glyph glyph-name="Ntilde" unicode="&#xd1;" horiz-adv-x="1511" 
d="M602 1784q-88 0 -88 -158h-111q0 293 195 293q46 0 81 -19.5t95 -72.5q3 -3 15.5 -14.5t15.5 -14.5t14 -12t15 -12t13.5 -9.5t15.5 -8.5t14.5 -5.5t16.5 -4.5t17 -1q47 0 67.5 40t20.5 118h111q0 -295 -195 -295q-48 0 -82.5 20t-93.5 74q-3 3 -15.5 14.5t-15.5 14.5
t-14 12t-15 12t-13.5 9.5t-15.5 8.5t-14.5 5.5t-16.5 4.5t-17 1zM1174 1434h169v-1434h-210l-809 1206l16 -606v-600h-170v1434h209l809 -1207l-14 607v600z" />
    <glyph glyph-name="Ograve" unicode="&#xd2;" horiz-adv-x="1716" 
d="M741 1997l338 -338l-84 -82l-358 315zM860 1456q205 0 374 -96t266 -265.5t97 -377.5t-97 -377.5t-266.5 -266t-375.5 -96.5q-154 0 -290.5 56.5t-235 154.5t-156 235.5t-57.5 293.5t57.5 293.5t156 235t236 154t291.5 56.5zM858 1294q-158 0 -287.5 -75t-204.5 -207.5
t-75 -294.5t75 -295t204.5 -208t287.5 -75t287.5 74.5t204.5 207.5t75 296t-75 295.5t-204.5 207t-287.5 74.5z" />
    <glyph glyph-name="Oacute" unicode="&#xd3;" horiz-adv-x="1716" 
d="M973 1997l106 -105l-360 -315l-82 82zM860 1456q205 0 374 -96t266 -265.5t97 -377.5t-97 -377.5t-266.5 -266t-375.5 -96.5q-154 0 -290.5 56.5t-235 154.5t-156 235.5t-57.5 293.5t57.5 293.5t156 235t236 154t291.5 56.5zM858 1294q-158 0 -287.5 -75t-204.5 -207.5
t-75 -294.5t75 -295t204.5 -208t287.5 -75t287.5 74.5t204.5 207.5t75 296t-75 295.5t-204.5 207t-287.5 74.5z" />
    <glyph glyph-name="Ocircumflex" unicode="&#xd4;" horiz-adv-x="1716" 
d="M1194 1671l-96 -94l-242 250l-242 -250l-94 94l336 340zM860 1456q205 0 374 -96t266 -265.5t97 -377.5t-97 -377.5t-266.5 -266t-375.5 -96.5q-154 0 -290.5 56.5t-235 154.5t-156 235.5t-57.5 293.5t57.5 293.5t156 235t236 154t291.5 56.5zM858 1294
q-158 0 -287.5 -75t-204.5 -207.5t-75 -294.5t75 -295t204.5 -208t287.5 -75t287.5 74.5t204.5 207.5t75 296t-75 295.5t-204.5 207t-287.5 74.5z" />
    <glyph glyph-name="Otilde" unicode="&#xd5;" horiz-adv-x="1716" 
d="M1100 1903h110q0 -295 -194 -295q-48 0 -82.5 20t-93.5 74q-60 55 -84 68q-26 14 -54 14q-88 0 -88 -158h-110q0 293 194 293q46 0 81 -19.5t95 -72.5q60 -55 84 -68q26 -14 54 -14q47 0 67.5 40t20.5 118zM860 1456q205 0 374 -96t266 -265.5t97 -377.5t-97 -377.5
t-266.5 -266t-375.5 -96.5q-154 0 -290.5 56.5t-235 154.5t-156 235.5t-57.5 293.5t57.5 293.5t156 235t236 154t291.5 56.5zM858 1294q-158 0 -287.5 -75t-204.5 -207.5t-75 -294.5t75 -295t204.5 -208t287.5 -75t287.5 74.5t204.5 207.5t75 296t-75 295.5t-204.5 207
t-287.5 74.5z" />
    <glyph glyph-name="Odieresis" unicode="&#xd6;" horiz-adv-x="1716" 
d="M625 1892q47 0 78.5 -30t31.5 -76t-31.5 -76.5t-78.5 -30.5t-79 30.5t-32 76.5t32 76t79 30zM1087 1892q48 0 80.5 -30.5t32.5 -75.5q0 -46 -33 -76.5t-80 -30.5q-46 0 -78 31t-32 76t32 75.5t78 30.5zM860 1456q205 0 374 -96t266 -265.5t97 -377.5t-97 -377.5
t-266.5 -266t-375.5 -96.5q-154 0 -290.5 56.5t-235 154.5t-156 235.5t-57.5 293.5t57.5 293.5t156 235t236 154t291.5 56.5zM858 1294q-158 0 -287.5 -75t-204.5 -207.5t-75 -294.5t75 -295t204.5 -208t287.5 -75t287.5 74.5t204.5 207.5t75 296t-75 295.5t-204.5 207
t-287.5 74.5z" />
    <glyph glyph-name="multiply" unicode="&#xd7;" horiz-adv-x="1376" 
d="M1079 1122l117 -114l-393 -392l393 -395l-117 -115l-393 396l-391 -396l-115 115l391 395l-391 392l115 114l391 -391z" />
    <glyph glyph-name="Oslash" unicode="&#xd8;" horiz-adv-x="1716" 
d="M1251 1350q161 -97 253.5 -263.5t92.5 -369.5q0 -208 -97 -377.5t-266.5 -266t-375.5 -96.5q-136 0 -254 41l-45 -90h-172l76 158q-159 97 -251.5 263t-92.5 368q0 156 57.5 293.5t156 235t236 154t291.5 56.5q132 0 250 -41l43 90h174zM291 717q0 -152 65.5 -277.5
t180.5 -203.5l499 1032q-89 26 -178 26q-158 0 -287.5 -75t-204.5 -207.5t-75 -294.5zM858 139q158 0 287.5 74.5t204.5 207.5t75 296q0 153 -65.5 279t-181.5 204l-502 -1032q92 -29 182 -29z" />
    <glyph glyph-name="Ugrave" unicode="&#xd9;" horiz-adv-x="1484" 
d="M627 1997l338 -338l-84 -82l-359 315zM1141 1434h174v-869q0 -145 -43 -258t-120 -184.5t-179.5 -108.5t-224.5 -37t-224.5 37t-180 108.5t-120.5 184.5t-43 258v869h174v-861q0 -218 108 -326t286 -108t285.5 108t107.5 326v861z" />
    <glyph glyph-name="Uacute" unicode="&#xda;" horiz-adv-x="1484" 
d="M858 1997l107 -105l-361 -315l-82 82zM1141 1434h174v-869q0 -145 -43 -258t-120 -184.5t-179.5 -108.5t-224.5 -37t-224.5 37t-180 108.5t-120.5 184.5t-43 258v869h174v-861q0 -218 108 -326t286 -108t285.5 108t107.5 326v861z" />
    <glyph glyph-name="Ucircumflex" unicode="&#xdb;" horiz-adv-x="1484" 
d="M1079 1671l-96 -94l-242 250l-241 -250l-94 94l335 340zM1141 1434h174v-869q0 -145 -43 -258t-120 -184.5t-179.5 -108.5t-224.5 -37t-224.5 37t-180 108.5t-120.5 184.5t-43 258v869h174v-861q0 -218 108 -326t286 -108t285.5 108t107.5 326v861z" />
    <glyph glyph-name="Udieresis" unicode="&#xdc;" horiz-adv-x="1484" 
d="M510 1892q47 0 79 -30t32 -76t-32 -76.5t-79 -30.5t-79 30.5t-32 76.5t32 76t79 30zM973 1892q48 0 80 -30t32 -76t-32.5 -76.5t-79.5 -30.5q-46 0 -78.5 31t-32.5 76t32.5 75.5t78.5 30.5zM1141 1434h174v-869q0 -145 -43 -258t-120 -184.5t-179.5 -108.5t-224.5 -37
t-224.5 37t-180 108.5t-120.5 184.5t-43 258v869h174v-861q0 -218 108 -326t286 -108t285.5 108t107.5 326v861z" />
    <glyph glyph-name="Yacute" unicode="&#xdd;" horiz-adv-x="1368" 
d="M905 1892l-360 -315l-82 82l336 338zM1300 1434l-530 -920v-514h-170v510l-530 924h192l422 -734l422 734h194z" />
    <glyph glyph-name="Thorn" unicode="&#xde;" horiz-adv-x="1370" 
d="M756 1235q232 0 363.5 -127.5t131.5 -331.5t-132 -335.5t-363 -131.5h-406v-309h-170v1434h170v-199h406zM750 471q162 0 245.5 85.5t83.5 217.5q0 131 -83.5 214t-245.5 83h-400v-600h400z" />
    <glyph glyph-name="germandbls" unicode="&#xdf;" horiz-adv-x="1275" 
d="M905 827q138 -36 212.5 -146.5t74.5 -262.5q0 -208 -133.5 -324.5t-339.5 -116.5q-68 0 -150 12t-135 34l33 155q103 -39 225 -39q150 0 239 76t89 215q0 130 -82.5 210.5t-241.5 80.5h-184v162h145q139 0 217 74t78 194q0 125 -81 206t-230 81q-153 0 -236 -89t-83 -247
v-1102h-170v1106q0 228 131 360.5t358 132.5q222 0 352.5 -123.5t130.5 -306.5q0 -118 -58 -208t-161 -134z" />
    <glyph glyph-name="agrave" unicode="&#xe0;" horiz-adv-x="1388" 
d="M924 1382l-84 -82l-359 314l105 106zM1067 1126h170v-1126h-170v227q-68 -117 -179.5 -183.5t-254.5 -66.5q-230 0 -378.5 165.5t-148.5 420.5q0 256 149 421t378 165q143 0 255.5 -68t178.5 -186v231zM666 139q173 0 288 119.5t115 304.5t-115 304.5t-288 119.5
q-171 0 -279 -119.5t-108 -304.5q0 -186 108.5 -305t278.5 -119z" />
    <glyph glyph-name="aacute" unicode="&#xe1;" horiz-adv-x="1388" 
d="M924 1616l-361 -313l-82 79l336 340zM1067 1126h170v-1126h-170v227q-68 -117 -179.5 -183.5t-254.5 -66.5q-230 0 -378.5 165.5t-148.5 420.5q0 256 149 421t378 165q143 0 255.5 -68t178.5 -186v231zM666 139q173 0 288 119.5t115 304.5t-115 304.5t-288 119.5
q-171 0 -279 -119.5t-108 -304.5q0 -186 108.5 -305t278.5 -119z" />
    <glyph glyph-name="acircumflex" unicode="&#xe2;" horiz-adv-x="1388" 
d="M700 1552l-241 -249l-94 94l335 338l338 -338l-96 -94zM1067 1126h170v-1126h-170v227q-68 -117 -179.5 -183.5t-254.5 -66.5q-230 0 -378.5 165.5t-148.5 420.5q0 256 149 421t378 165q143 0 255.5 -68t178.5 -186v231zM666 139q173 0 288 119.5t115 304.5t-115 304.5
t-288 119.5q-171 0 -279 -119.5t-108 -304.5q0 -186 108.5 -305t278.5 -119z" />
    <glyph glyph-name="atilde" unicode="&#xe3;" horiz-adv-x="1388" 
d="M547 1516q-47 0 -67.5 -40t-20.5 -118h-111q0 293 195 293q47 0 83 -19.5t93 -72.5q3 -3 15.5 -14.5t15.5 -14.5t14 -12t15 -12t13.5 -9.5t15.5 -8.5t14.5 -5.5t16.5 -4.5t17 -1q47 0 67.5 40t20.5 117h111q0 -293 -195 -293q-48 0 -82.5 19.5t-93.5 73.5
q-3 3 -15.5 14.5t-15.5 14.5t-14 12t-15 12t-13.5 9.5t-15.5 8.5t-14.5 5.5t-16.5 4.5t-17 1zM1067 1126h170v-1126h-170v227q-68 -117 -179.5 -183.5t-254.5 -66.5q-230 0 -378.5 165.5t-148.5 420.5q0 256 149 421t378 165q143 0 255.5 -68t178.5 -186v231zM666 139
q173 0 288 119.5t115 304.5t-115 304.5t-288 119.5q-171 0 -279 -119.5t-108 -304.5q0 -186 108.5 -305t278.5 -119z" />
    <glyph glyph-name="adieresis" unicode="&#xe4;" horiz-adv-x="1388" 
d="M469 1401q-47 0 -79 31t-32 77q0 45 32 76t79 31t79 -31t32 -76q0 -46 -32 -77t-79 -31zM932 1401q-46 0 -78.5 31.5t-32.5 76.5q0 44 32.5 75.5t78.5 31.5q47 0 79.5 -31.5t32.5 -75.5q0 -46 -32.5 -77t-79.5 -31zM1067 1126h170v-1126h-170v227q-68 -117 -179.5 -183.5
t-254.5 -66.5q-230 0 -378.5 165.5t-148.5 420.5q0 256 149 421t378 165q143 0 255.5 -68t178.5 -186v231zM666 139q173 0 288 119.5t115 304.5t-115 304.5t-288 119.5q-171 0 -279 -119.5t-108 -304.5q0 -186 108.5 -305t278.5 -119z" />
    <glyph glyph-name="aring" unicode="&#xe5;" horiz-adv-x="1388" 
d="M702 1303q-103 0 -175 72t-72 175t71.5 175.5t175.5 72.5t177 -72.5t71 -175.5q1 -102 -72 -174.5t-176 -72.5zM702 1694q-59 0 -100 -41.5t-41 -102.5t41 -102t100 -41t100.5 41t41.5 102t-41.5 102.5t-100.5 41.5zM1067 1126h170v-1126h-170v227
q-68 -117 -179.5 -183.5t-254.5 -66.5q-230 0 -378.5 165.5t-148.5 420.5q0 256 149 421t378 165q143 0 255.5 -68t178.5 -186v231zM666 139q173 0 288 119.5t115 304.5t-115 304.5t-288 119.5q-171 0 -279 -119.5t-108 -304.5q0 -186 108.5 -305t278.5 -119z" />
    <glyph glyph-name="ae" unicode="&#xe6;" horiz-adv-x="2304" 
d="M1645 1149q172 0 303 -81.5t199 -226.5t61 -329h-965q12 -173 125 -274t285 -101q119 0 210.5 50t141.5 147h176q-69 -175 -210.5 -266t-323.5 -91q-132 0 -245 48.5t-192 136.5v-162h-143v225q-66 -116 -178.5 -183t-255.5 -67q-230 0 -378.5 165.5t-148.5 422.5
q0 255 149 420.5t378 165.5q143 0 255.5 -68.5t178.5 -187.5v233h145v-163q77 89 189 137.5t244 48.5zM1645 989q-152 0 -258 -88t-136 -229h772q-28 144 -128.5 230.5t-249.5 86.5zM666 139q173 0 288 119t115 305q0 185 -115 304.5t-288 119.5q-170 0 -278.5 -119.5
t-108.5 -304.5q0 -186 108.5 -305t278.5 -119z" />
    <glyph glyph-name="ccedilla" unicode="&#xe7;" horiz-adv-x="1320" 
d="M688 135q131 0 231 70t140 188h176q-43 -184 -185 -295.5t-329 -120.5l-70 -143q85 -12 144 -57t59 -127q0 -90 -76.5 -137.5t-204.5 -47.5q-79 0 -120 9v94q45 -10 104 -10q75 0 118.5 25.5t43.5 74.5q0 104 -207 115l88 211q-215 29 -354.5 190.5t-139.5 388.5
q0 251 167 418.5t415 167.5q200 0 351.5 -112.5t195.5 -303.5h-176q-40 120 -140 189t-231 69q-178 0 -293.5 -121t-115.5 -307q0 -187 115.5 -307.5t293.5 -120.5z" />
    <glyph glyph-name="egrave" unicode="&#xe8;" horiz-adv-x="1341" 
d="M891 1382l-84 -82l-358 314l104 106zM682 1149q172 0 303 -81.5t199 -226.5t61 -329h-964q12 -173 124.5 -274t284.5 -101q119 0 210.5 50t141.5 147h177q-69 -175 -210.5 -266t-324.5 -91q-165 0 -297 73t-206.5 206.5t-74.5 302.5t73.5 304t205 210.5t297.5 75.5z
M682 989q-152 0 -257.5 -88t-135.5 -229h772q-28 144 -128.5 230.5t-250.5 86.5z" />
    <glyph glyph-name="eacute" unicode="&#xe9;" horiz-adv-x="1341" 
d="M891 1616l-361 -313l-81 79l335 340zM682 1149q172 0 303 -81.5t199 -226.5t61 -329h-964q12 -173 124.5 -274t284.5 -101q119 0 210.5 50t141.5 147h177q-69 -175 -210.5 -266t-324.5 -91q-165 0 -297 73t-206.5 206.5t-74.5 302.5t73.5 304t205 210.5t297.5 75.5z
M682 989q-152 0 -257.5 -88t-135.5 -229h772q-28 144 -128.5 230.5t-250.5 86.5z" />
    <glyph glyph-name="ecircumflex" unicode="&#xea;" horiz-adv-x="1341" 
d="M668 1552l-242 -249l-94 94l336 338l338 -338l-97 -94zM682 1149q172 0 303 -81.5t199 -226.5t61 -329h-964q12 -173 124.5 -274t284.5 -101q119 0 210.5 50t141.5 147h177q-69 -175 -210.5 -266t-324.5 -91q-165 0 -297 73t-206.5 206.5t-74.5 302.5t73.5 304t205 210.5
t297.5 75.5zM682 989q-152 0 -257.5 -88t-135.5 -229h772q-28 144 -128.5 230.5t-250.5 86.5z" />
    <glyph glyph-name="edieresis" unicode="&#xeb;" horiz-adv-x="1341" 
d="M436 1401q-47 0 -78.5 31t-31.5 77q0 45 31.5 76t78.5 31t79 -31t32 -76q0 -46 -32 -77t-79 -31zM899 1401q-46 0 -78.5 31.5t-32.5 76.5q0 44 32.5 75.5t78.5 31.5q47 0 80 -31.5t33 -75.5q0 -46 -33 -77t-80 -31zM682 1149q172 0 303 -81.5t199 -226.5t61 -329h-964
q12 -173 124.5 -274t284.5 -101q119 0 210.5 50t141.5 147h177q-69 -175 -210.5 -266t-324.5 -91q-165 0 -297 73t-206.5 206.5t-74.5 302.5t73.5 304t205 210.5t297.5 75.5zM682 989q-152 0 -257.5 -88t-135.5 -229h772q-28 144 -128.5 230.5t-250.5 86.5z" />
    <glyph glyph-name="igrave" unicode="&#xec;" horiz-adv-x="471" 
d="M119 1720l338 -338l-84 -82l-359 314zM152 0v1126h170v-1126h-170z" />
    <glyph glyph-name="iacute" unicode="&#xed;" horiz-adv-x="471" 
d="M350 1722l107 -106l-361 -313l-82 79zM152 0v1126h170v-1126h-170z" />
    <glyph glyph-name="icircumflex" unicode="&#xee;" horiz-adv-x="471" 
d="M573 1397l-96 -94l-241 249l-242 -249l-94 94l336 338zM152 0v1126h170v-1126h-170z" />
    <glyph glyph-name="idieresis" unicode="&#xef;" horiz-adv-x="471" 
d="M4 1616q47 0 79 -31t32 -76q0 -46 -32 -77t-79 -31t-78.5 31t-31.5 77q0 45 31.5 76t78.5 31zM467 1616q47 0 80 -31.5t33 -75.5q0 -46 -33 -77t-80 -31q-46 0 -78.5 31.5t-32.5 76.5q0 44 32.5 75.5t78.5 31.5zM152 0v1126h170v-1126h-170z" />
    <glyph glyph-name="eth" unicode="&#xf0;" horiz-adv-x="1361" 
d="M1255 1448l-161 -141q161 -228 161 -676q-1 -158 -46.5 -284.5t-124.5 -206t-182.5 -121.5t-223.5 -42q-161 0 -290.5 71.5t-205.5 205.5t-76 305q0 122 40 225t109 174t165.5 110.5t206.5 39.5q144 0 265 -68.5t185 -195.5q-14 142 -54 245t-101 170.5t-153.5 108
t-200 56.5t-251.5 16v159q217 0 381 -39.5t281 -132.5l166 146zM684 125q174 0 287.5 118t113.5 310q0 180 -123.5 294t-295.5 114q-169 0 -279.5 -114t-110.5 -296q0 -190 117 -308t291 -118z" />
    <glyph glyph-name="ntilde" unicode="&#xf1;" horiz-adv-x="1271" 
d="M481 1516q-47 0 -67.5 -40t-20.5 -118h-110q0 293 194 293q47 0 83 -19.5t93 -72.5q60 -55 84 -68q26 -14 54 -14q47 0 67.5 40t20.5 117h110q0 -293 -194 -293q-48 0 -83.5 19.5t-93.5 73.5q-3 3 -15.5 14.5t-15.5 14.5t-14 12t-15 12t-13.5 9.5t-15.5 8.5t-14.5 5.5
t-16.5 4.5t-17 1zM725 1149q191 0 299.5 -114.5t108.5 -319.5v-715h-170v682q0 151 -73 228t-212 77q-169 0 -262.5 -110t-93.5 -299v-578h-170v1126h170v-223q123 246 403 246z" />
    <glyph glyph-name="ograve" unicode="&#xf2;" horiz-adv-x="1372" 
d="M569 1720l338 -338l-84 -82l-358 314zM686 1149q119 0 226.5 -44.5t185.5 -121.5t124 -186.5t46 -233.5q0 -166 -77 -300.5t-210.5 -210t-294.5 -75.5q-120 0 -227 44.5t-184.5 122t-123 186.5t-45.5 233t46 233.5t124 186.5t185 121.5t225 44.5zM686 987
q-171 0 -289 -119.5t-118 -304.5q0 -184 117.5 -304t289.5 -120q174 0 292 120t118 304t-118.5 304t-291.5 120z" />
    <glyph glyph-name="oacute" unicode="&#xf3;" horiz-adv-x="1372" 
d="M801 1722l106 -106l-360 -313l-82 79zM686 1149q119 0 226.5 -44.5t185.5 -121.5t124 -186.5t46 -233.5q0 -166 -77 -300.5t-210.5 -210t-294.5 -75.5q-120 0 -227 44.5t-184.5 122t-123 186.5t-45.5 233t46 233.5t124 186.5t185 121.5t225 44.5zM686 987
q-171 0 -289 -119.5t-118 -304.5q0 -184 117.5 -304t289.5 -120q174 0 292 120t118 304t-118.5 304t-291.5 120z" />
    <glyph glyph-name="ocircumflex" unicode="&#xf4;" horiz-adv-x="1372" 
d="M1022 1397l-96 -94l-242 249l-242 -249l-94 94l336 338zM686 1149q119 0 226.5 -44.5t185.5 -121.5t124 -186.5t46 -233.5q0 -166 -77 -300.5t-210.5 -210t-294.5 -75.5q-120 0 -227 44.5t-184.5 122t-123 186.5t-45.5 233t46 233.5t124 186.5t185 121.5t225 44.5z
M686 987q-171 0 -289 -119.5t-118 -304.5q0 -184 117.5 -304t289.5 -120q174 0 292 120t118 304t-118.5 304t-291.5 120z" />
    <glyph glyph-name="otilde" unicode="&#xf5;" horiz-adv-x="1372" 
d="M928 1634h110q0 -293 -194 -293q-48 0 -82.5 19.5t-93.5 73.5q-60 55 -84 68q-26 14 -54 14q-47 0 -67.5 -40t-20.5 -118h-110q0 293 194 293q47 0 83 -19.5t93 -72.5q60 -55 84 -68q26 -14 54 -14q47 0 67.5 40t20.5 117zM686 1149q119 0 226.5 -44.5t185.5 -121.5
t124 -186.5t46 -233.5q0 -166 -77 -300.5t-210.5 -210t-294.5 -75.5q-120 0 -227 44.5t-184.5 122t-123 186.5t-45.5 233t46 233.5t124 186.5t185 121.5t225 44.5zM686 987q-171 0 -289 -119.5t-118 -304.5q0 -184 117.5 -304t289.5 -120q174 0 292 120t118 304t-118.5 304
t-291.5 120z" />
    <glyph glyph-name="odieresis" unicode="&#xf6;" horiz-adv-x="1372" 
d="M453 1616q47 0 78.5 -31t31.5 -76q0 -46 -31.5 -77t-78.5 -31t-79 31t-32 77q0 45 32 76t79 31zM915 1616q47 0 80 -31.5t33 -75.5q0 -46 -33 -77t-80 -31q-46 0 -78 31t-32 77q0 44 32 75.5t78 31.5zM686 1149q119 0 226.5 -44.5t185.5 -121.5t124 -186.5t46 -233.5
q0 -166 -77 -300.5t-210.5 -210t-294.5 -75.5q-120 0 -227 44.5t-184.5 122t-123 186.5t-45.5 233t46 233.5t124 186.5t185 121.5t225 44.5zM686 987q-171 0 -289 -119.5t-118 -304.5q0 -184 117.5 -304t289.5 -120q174 0 292 120t118 304t-118.5 304t-291.5 120z" />
    <glyph glyph-name="divide" unicode="&#xf7;" horiz-adv-x="1386" 
d="M694 1090q50 0 84.5 -33t34.5 -82t-34.5 -80t-84.5 -31q-53 0 -87 31t-34 80q0 50 34.5 82.5t86.5 32.5zM1206 698v-161h-1026v161h1026zM694 371q50 0 84.5 -31t34.5 -80q0 -50 -34 -81.5t-85 -31.5q-53 0 -87 31t-34 82q0 49 34 80t87 31z" />
    <glyph glyph-name="oslash" unicode="&#xf8;" horiz-adv-x="1372" 
d="M1071 1008q92 -79 144.5 -195t52.5 -250q0 -166 -77 -300.5t-210.5 -210t-294.5 -75.5q-162 0 -297 80l-41 -57h-133l86 121q-92 79 -143.5 193.5t-51.5 248.5q0 124 46 233.5t124 186.5t185 121.5t225 44.5q157 0 297 -78l39 55h133zM279 563q0 -187 120 -307l488 680
q-91 51 -201 51q-171 0 -289 -119.5t-118 -304.5zM686 139q174 0 292 120t118 304q0 186 -123 309l-488 -682q91 -51 201 -51z" />
    <glyph glyph-name="ugrave" unicode="&#xf9;" horiz-adv-x="1257" 
d="M848 1382l-84 -82l-358 314l104 106zM942 1126h170v-1126h-170v223q-127 -246 -401 -246q-188 0 -294 115t-106 320v714h170v-682q0 -151 70.5 -228t208.5 -77q166 0 259 110.5t93 299.5v577z" />
    <glyph glyph-name="uacute" unicode="&#xfa;" horiz-adv-x="1257" 
d="M848 1616l-361 -313l-81 79l335 340zM942 1126h170v-1126h-170v223q-127 -246 -401 -246q-188 0 -294 115t-106 320v714h170v-682q0 -151 70.5 -228t208.5 -77q166 0 259 110.5t93 299.5v577z" />
    <glyph glyph-name="ucircumflex" unicode="&#xfb;" horiz-adv-x="1257" 
d="M625 1552l-242 -249l-94 94l336 338l338 -338l-97 -94zM942 1126h170v-1126h-170v223q-127 -246 -401 -246q-188 0 -294 115t-106 320v714h170v-682q0 -151 70.5 -228t208.5 -77q166 0 259 110.5t93 299.5v577z" />
    <glyph glyph-name="udieresis" unicode="&#xfc;" horiz-adv-x="1257" 
d="M393 1401q-47 0 -78.5 31t-31.5 77q0 45 31.5 76t78.5 31t79 -31t32 -76q0 -46 -32 -77t-79 -31zM856 1401q-46 0 -78.5 31.5t-32.5 76.5q0 44 32.5 75.5t78.5 31.5q47 0 80 -31.5t33 -75.5q0 -46 -33 -77t-80 -31zM942 1126h170v-1126h-170v223q-127 -246 -401 -246
q-188 0 -294 115t-106 320v714h170v-682q0 -151 70.5 -228t208.5 -77q166 0 259 110.5t93 299.5v577z" />
    <glyph glyph-name="yacute" unicode="&#xfd;" horiz-adv-x="1206" 
d="M823 1616l-360 -313l-82 79l336 340zM971 1126h182l-760 -1638h-182l299 649l-457 989h183l364 -807z" />
    <glyph glyph-name="thorn" unicode="&#xfe;" horiz-adv-x="1398" 
d="M766 1149q229 0 377.5 -165t148.5 -421q0 -255 -149 -420.5t-379 -165.5q-143 0 -254.5 66.5t-177.5 183.5v-739h-170v2089h170v-682q66 118 178.5 186t255.5 68zM733 139q170 0 278.5 119t108.5 305q0 185 -108.5 304.5t-278.5 119.5q-173 0 -288 -119.5t-115 -304.5
t115 -304.5t288 -119.5z" />
    <glyph glyph-name="ydieresis" unicode="&#xff;" horiz-adv-x="1206" 
d="M371 1401q-47 0 -79 31t-32 77q0 45 32 76t79 31t78.5 -31t31.5 -76q0 -46 -31.5 -77t-78.5 -31zM834 1401q-46 0 -78.5 31.5t-32.5 76.5q0 44 32.5 75.5t78.5 31.5q47 0 79.5 -31.5t32.5 -75.5q0 -46 -32.5 -77t-79.5 -31zM971 1126h182l-760 -1638h-182l299 649
l-457 989h183l364 -807z" />
    <glyph glyph-name="Amacron" unicode="&#x100;" horiz-adv-x="1505" 
d="M1008 1851v-127h-512v127h512zM1255 0l-170 430h-665l-170 -430h-180l573 1434h219l574 -1434h-181zM485 592h537l-268 680z" />
    <glyph glyph-name="amacron" unicode="&#x101;" horiz-adv-x="1388" 
d="M958 1577v-129h-512v129h512zM1067 1126h170v-1126h-170v227q-68 -117 -179.5 -183.5t-254.5 -66.5q-230 0 -378.5 165.5t-148.5 420.5q0 256 149 421t378 165q143 0 255.5 -68t178.5 -186v231zM666 139q173 0 288 119.5t115 304.5t-115 304.5t-288 119.5
q-171 0 -279 -119.5t-108 -304.5q0 -186 108.5 -305t278.5 -119z" />
    <glyph glyph-name="Abreve" unicode="&#x102;" horiz-adv-x="1505" 
d="M752 1599q-139 0 -233.5 85.5t-94.5 226.5v37h139v-31q0 -84 51.5 -133t137.5 -49q87 0 138.5 49t51.5 133v31h139v-37q0 -141 -95 -226.5t-234 -85.5zM1255 0l-170 430h-665l-170 -430h-180l573 1434h219l574 -1434h-181zM485 592h537l-268 680z" />
    <glyph glyph-name="abreve" unicode="&#x103;" horiz-adv-x="1388" 
d="M702 1325q-139 0 -233 85t-94 226v37h139v-33q0 -83 51.5 -132.5t136.5 -49.5q87 0 139 49.5t52 132.5v33h139v-37q0 -141 -95.5 -226t-234.5 -85zM1067 1126h170v-1126h-170v227q-68 -117 -179.5 -183.5t-254.5 -66.5q-230 0 -378.5 165.5t-148.5 420.5q0 256 149 421
t378 165q143 0 255.5 -68t178.5 -186v231zM666 139q173 0 288 119.5t115 304.5t-115 304.5t-288 119.5q-171 0 -279 -119.5t-108 -304.5q0 -186 108.5 -305t278.5 -119z" />
    <glyph glyph-name="Aogonek" unicode="&#x104;" horiz-adv-x="1505" 
d="M1212 -326q0 -106 131 -106q55 0 95 10v-104q-40 -9 -119 -9q-109 0 -175.5 48t-66.5 141q0 35 13.5 71.5t28.5 62t55.5 69t62.5 65t82 78.5h-64l-170 430h-665l-170 -430h-180l573 1434h219l574 -1434h2q-131 -138 -178.5 -202.5t-47.5 -123.5zM485 592h537l-268 680z
" />
    <glyph glyph-name="aogonek" unicode="&#x105;" horiz-adv-x="1388" 
d="M1067 1126h170v-1126h-2q-130 -137 -177.5 -202t-47.5 -124q0 -106 131 -106q54 0 94 10v-104q-40 -9 -119 -9q-109 0 -175.5 48t-66.5 141q0 43 14 82.5t49.5 84.5t70.5 81t100 98h-41v227q-68 -117 -179.5 -183.5t-254.5 -66.5q-230 0 -378.5 165.5t-148.5 420.5
q0 256 149 421t378 165q143 0 255.5 -68t178.5 -186v231zM666 139q173 0 288 119.5t115 304.5t-115 304.5t-288 119.5q-171 0 -279 -119.5t-108 -304.5q0 -186 108.5 -305t278.5 -119z" />
    <glyph glyph-name="Cacute" unicode="&#x106;" horiz-adv-x="1630" 
d="M930 1997l106 -105l-360 -315l-82 82zM860 -23q-156 0 -293 56.5t-234.5 154t-153.5 235t-56 294.5t56 294t153.5 235t234.5 154t293 56q241 0 423.5 -130t256.5 -349h-182q-65 146 -197.5 231.5t-302.5 85.5q-160 0 -289 -75t-201.5 -207t-72.5 -295q0 -122 42.5 -229
t117 -184t179 -121t224.5 -44q170 0 302.5 85.5t197.5 232.5h182q-74 -219 -256.5 -349.5t-423.5 -130.5z" />
    <glyph glyph-name="cacute" unicode="&#x107;" horiz-adv-x="1320" 
d="M780 1722l107 -106l-361 -313l-82 79zM688 -23q-248 0 -415 167.5t-167 418.5t167 418.5t415 167.5q200 0 351.5 -112.5t195.5 -303.5h-176q-40 120 -140 189t-231 69q-178 0 -293.5 -121t-115.5 -307q0 -187 115.5 -307.5t293.5 -120.5q131 0 231 70t140 188h176
q-45 -192 -197 -304t-350 -112z" />
    <glyph glyph-name="Ccaron" unicode="&#x10c;" horiz-adv-x="1630" 
d="M1151 1917l-338 -336l-336 336l94 96l242 -250l242 250zM860 -23q-156 0 -293 56.5t-234.5 154t-153.5 235t-56 294.5t56 294t153.5 235t234.5 154t293 56q241 0 423.5 -130t256.5 -349h-182q-65 146 -197.5 231.5t-302.5 85.5q-160 0 -289 -75t-201.5 -207t-72.5 -295
q0 -122 42.5 -229t117 -184t179 -121t224.5 -44q170 0 302.5 85.5t197.5 232.5h182q-74 -219 -256.5 -349.5t-423.5 -130.5z" />
    <glyph glyph-name="ccaron" unicode="&#x10d;" horiz-adv-x="1320" 
d="M1001 1638l-337 -335l-336 335l94 97l242 -250l241 250zM688 -23q-248 0 -415 167.5t-167 418.5t167 418.5t415 167.5q200 0 351.5 -112.5t195.5 -303.5h-176q-40 120 -140 189t-231 69q-178 0 -293.5 -121t-115.5 -307q0 -187 115.5 -307.5t293.5 -120.5q131 0 231 70
t140 188h176q-45 -192 -197 -304t-350 -112z" />
    <glyph glyph-name="Dcaron" unicode="&#x10e;" horiz-adv-x="1517" 
d="M1001 1917l-337 -336l-336 336l94 96l242 -250l241 250zM666 1434q207 0 375 -91.5t264 -255.5t96 -370q0 -153 -56.5 -287t-154.5 -228t-234 -148t-290 -54h-486v1434h486zM668 162q158 0 286 70t202 197.5t75 287.5q0 242 -161 398.5t-402 156.5h-318v-1110h318z" />
    <glyph glyph-name="dcaron" unicode="&#x10f;" horiz-adv-x="1396" 
d="M1593 1516q2 -25 -16.5 -78.5t-83.5 -200.5h-107l93 195q-36 6 -58 27t-22 54q0 41 29 67t69 26q37 0 66 -24t30 -66zM1075 895v682h170v-1577h-170v227q-66 -117 -178.5 -183.5t-255.5 -66.5q-230 0 -378 165.5t-148 420.5q0 256 148.5 421t377.5 165q143 0 255.5 -68
t178.5 -186zM674 139q173 0 288 119.5t115 304.5t-115 304.5t-288 119.5q-170 0 -278.5 -119.5t-108.5 -304.5q0 -186 108.5 -305t278.5 -119z" />
    <glyph glyph-name="Dcroat" unicode="&#x110;" horiz-adv-x="1517" 
d="M666 1434q207 0 375 -91.5t264 -255.5t96 -370q0 -153 -56.5 -287t-154.5 -228t-234 -148t-290 -54h-486v635h-145v162h145v637h486zM668 162q158 0 286 70t202 197.5t75 287.5q0 242 -161 398.5t-402 156.5h-318v-475h287v-162h-287v-473h318z" />
    <glyph glyph-name="dcroat" unicode="&#x111;" horiz-adv-x="1396" 
d="M1362 1440v-162h-117v-1278h-170v227q-66 -117 -178.5 -183.5t-255.5 -66.5q-230 0 -378 165.5t-148 420.5q0 256 148.5 421t377.5 165q143 0 255.5 -68t178.5 -186v383h-315v162h315v137h170v-137h117zM674 139q173 0 288 119.5t115 304.5t-115 304.5t-288 119.5
q-170 0 -278.5 -119.5t-108.5 -304.5q0 -186 108.5 -305t278.5 -119z" />
    <glyph glyph-name="Emacron" unicode="&#x112;" horiz-adv-x="1179" 
d="M846 1851v-127h-512v127h512zM1090 1272h-740v-455h690v-162h-690v-493h740v-162h-910v1434h910v-162z" />
    <glyph glyph-name="emacron" unicode="&#x113;" horiz-adv-x="1341" 
d="M926 1577v-129h-512v129h512zM682 1149q172 0 303 -81.5t199 -226.5t61 -329h-964q12 -173 124.5 -274t284.5 -101q119 0 210.5 50t141.5 147h177q-69 -175 -210.5 -266t-324.5 -91q-165 0 -297 73t-206.5 206.5t-74.5 302.5t73.5 304t205 210.5t297.5 75.5zM682 989
q-152 0 -257.5 -88t-135.5 -229h772q-28 144 -128.5 230.5t-250.5 86.5z" />
    <glyph glyph-name="Edotaccent" unicode="&#x116;" horiz-adv-x="1179" 
d="M592 1679q-47 0 -79 30.5t-32 76.5t32 76t79 30t78.5 -30t31.5 -76t-31.5 -76.5t-78.5 -30.5zM1090 1272h-740v-455h690v-162h-690v-493h740v-162h-910v1434h910v-162z" />
    <glyph glyph-name="edotaccent" unicode="&#x117;" horiz-adv-x="1341" 
d="M670 1395q-51 0 -85 32.5t-34 81.5q0 48 34 80.5t85 32.5t84.5 -32.5t33.5 -80.5q0 -49 -33.5 -81.5t-84.5 -32.5zM682 1149q172 0 303 -81.5t199 -226.5t61 -329h-964q12 -173 124.5 -274t284.5 -101q119 0 210.5 50t141.5 147h177q-69 -175 -210.5 -266t-324.5 -91
q-165 0 -297 73t-206.5 206.5t-74.5 302.5t73.5 304t205 210.5t297.5 75.5zM682 989q-152 0 -257.5 -88t-135.5 -229h772q-28 144 -128.5 230.5t-250.5 86.5z" />
    <glyph glyph-name="Eogonek" unicode="&#x118;" horiz-adv-x="1179" 
d="M1090 1272h-740v-455h690v-162h-690v-493h740v-162q-131 -138 -178.5 -202.5t-47.5 -123.5q0 -106 131 -106q55 0 95 10v-104q-41 -9 -119 -9q-109 0 -175.5 48t-66.5 141q0 35 13.5 71.5t28.5 62t55.5 69t62.5 65t82 78.5h-791v1434h910v-162z" />
    <glyph glyph-name="eogonek" unicode="&#x119;" horiz-adv-x="1341" 
d="M682 1149q172 0 303 -81.5t199 -226.5t61 -329h-964q12 -173 124.5 -274t284.5 -101q119 0 210.5 50t141.5 147h177q-51 -131 -144.5 -215t-216.5 -119h8q-130 -137 -177.5 -202t-47.5 -124q0 -106 131 -106q54 0 94 10v-104q-40 -9 -118 -9q-109 0 -175.5 48t-66.5 141
q0 78 49 147.5t162 175.5h-33q-165 0 -297 73t-206.5 206.5t-74.5 302.5t73.5 304t205 210.5t297.5 75.5zM682 989q-152 0 -257.5 -88t-135.5 -229h772q-28 144 -128.5 230.5t-250.5 86.5z" />
    <glyph glyph-name="Ecaron" unicode="&#x11a;" horiz-adv-x="1179" 
d="M928 1917l-338 -336l-336 336l94 96l242 -250l241 250zM1090 1272h-740v-455h690v-162h-690v-493h740v-162h-910v1434h910v-162z" />
    <glyph glyph-name="ecaron" unicode="&#x11b;" horiz-adv-x="1341" 
d="M1006 1638l-338 -335l-336 335l94 97l242 -250l241 250zM682 1149q172 0 303 -81.5t199 -226.5t61 -329h-964q12 -173 124.5 -274t284.5 -101q119 0 210.5 50t141.5 147h177q-69 -175 -210.5 -266t-324.5 -91q-165 0 -297 73t-206.5 206.5t-74.5 302.5t73.5 304
t205 210.5t297.5 75.5zM682 989q-152 0 -257.5 -88t-135.5 -229h772q-28 144 -128.5 230.5t-250.5 86.5z" />
    <glyph glyph-name="Gcommaaccent" unicode="&#x122;" horiz-adv-x="1716" 
d="M786 745h762v-745h-149v336q-54 -165 -203.5 -262t-351.5 -97q-152 0 -286 56t-230.5 153.5t-152.5 235.5t-56 295t56.5 294.5t154 235t234.5 153.5t292 56q241 0 423.5 -128t256.5 -345h-182q-65 143 -198.5 227t-301.5 84q-243 0 -403 -164.5t-160 -416.5
q0 -162 70 -293.5t199 -208t294 -76.5q214 0 358.5 126.5t163.5 338.5h-590v145zM868 -143q38 0 68 -24t31 -66q0 -26 -19 -79t-84 -200h-104l92 195q-36 6 -58 28t-22 56q0 40 29 65t67 25z" />
    <glyph glyph-name="gcommaaccent" unicode="&#x123;" horiz-adv-x="1388" 
d="M686 1303q-37 0 -66 24t-30 66q-2 25 16.5 76.5t85.5 201.5h105l-92 -196q37 -5 58 -26t21 -56q0 -40 -29 -65t-69 -25zM1067 1126h170v-1114q0 -252 -144 -399.5t-391 -147.5q-206 0 -358 107t-192 299h176q35 -120 133.5 -187t236.5 -67q177 0 273 101.5t96 289.5v228
q-68 -117 -180 -183.5t-254 -66.5q-230 0 -378.5 164.5t-148.5 416.5q0 253 149 417.5t378 164.5q140 0 254 -68t180 -184v229zM666 147q173 0 288 119t115 301t-115 301t-288 119q-171 0 -279 -118.5t-108 -301.5t108.5 -301.5t278.5 -118.5z" />
    <glyph glyph-name="Imacron" unicode="&#x12a;" horiz-adv-x="530" 
d="M520 1851v-127h-512v127h512zM180 0v1434h170v-1434h-170z" />
    <glyph glyph-name="imacron" unicode="&#x12b;" horiz-adv-x="471" 
d="M492 1577v-129h-512v129h512zM152 0v1126h170v-1126h-170z" />
    <glyph glyph-name="Iogonek" unicode="&#x12e;" horiz-adv-x="530" 
d="M180 1434h170v-1434q-130 -137 -177.5 -202t-47.5 -124q0 -106 131 -106q54 0 94 10v-104q-40 -9 -119 -9q-109 0 -175 48t-66 141q0 30 6.5 57t25.5 58t33.5 51.5t51 58t55.5 56t69 65.5h-51v1434z" />
    <glyph glyph-name="iogonek" unicode="&#x12f;" horiz-adv-x="471" 
d="M238 1622q51 0 84.5 -32.5t33.5 -80.5q0 -49 -33.5 -81.5t-84.5 -32.5t-85 32.5t-34 81.5q0 48 34 80.5t85 32.5zM152 0v1126h170v-1126h-3q-130 -137 -177.5 -202t-47.5 -124q0 -106 131 -106q54 0 94 10v-104q-40 -9 -118 -9q-109 0 -175.5 48t-66.5 141q0 43 14 82.5
t49.5 84.5t70.5 81t100 98h-41z" />
    <glyph glyph-name="dotlessi" unicode="&#x131;" horiz-adv-x="471" 
d="M152 0v1126h170v-1126h-170z" />
    <glyph glyph-name="Kcommaaccent" unicode="&#x136;" horiz-adv-x="1312" 
d="M541 731l702 -731h-219l-674 696v-696h-170v1434h170v-672l651 672h218zM666 -143q38 0 67.5 -24t30.5 -66q0 -27 -18.5 -80t-83.5 -199h-105l92 195q-36 6 -58 28t-22 56q0 40 29 65t68 25z" />
    <glyph glyph-name="kcommaaccent" unicode="&#x137;" horiz-adv-x="1210" 
d="M512 592l645 -592h-223l-602 543v-543h-170v1577h170v-952l549 501h223zM616 -143q38 0 68 -24t31 -66q0 -26 -19 -79t-84 -200h-104l92 195q-36 6 -58 28t-22 56q0 40 29 65t67 25z" />
    <glyph glyph-name="Lacute" unicode="&#x139;" horiz-adv-x="1110" 
d="M776 1892l-360 -315l-82 82l336 338zM350 162h690v-162h-860v1434h170v-1272z" />
    <glyph glyph-name="lacute" unicode="&#x13a;" horiz-adv-x="473" 
d="M348 2140l107 -104l-361 -316l-82 82zM158 0v1577h170v-1577h-170z" />
    <glyph glyph-name="Lcommaaccent" unicode="&#x13b;" horiz-adv-x="1110" 
d="M350 162h690v-162h-860v1434h170v-1272zM565 -143q38 0 68 -24t31 -66q0 -26 -19 -79t-84 -200h-104l92 195q-36 6 -58 28t-22 56q0 40 29 65t67 25z" />
    <glyph glyph-name="lcommaaccent" unicode="&#x13c;" horiz-adv-x="473" 
d="M328 1577v-1577h-170v1577h170zM246 -143q38 0 67.5 -24t30.5 -66q0 -27 -18.5 -80t-83.5 -199h-105l92 195q-36 6 -57.5 28t-21.5 56q0 40 29 65t67 25z" />
    <glyph glyph-name="Lcaron" unicode="&#x13d;" horiz-adv-x="1110" 
d="M766 1087h-104l90 195q-36 6 -57 27.5t-21 54.5q0 41 28 66.5t68 25.5q38 0 66.5 -24t31.5 -66q0 -25 -18.5 -77.5t-83.5 -201.5zM350 162h690v-162h-860v1434h170v-1272z" />
    <glyph glyph-name="lcaron" unicode="&#x13e;" horiz-adv-x="468" 
d="M676 1516q2 -25 -16.5 -77.5t-84.5 -201.5h-104l90 195q-36 6 -57 27t-21 54q0 41 28.5 67t68.5 26q38 0 66.5 -24t29.5 -66zM158 0v1577h170v-1577h-170z" />
    <glyph glyph-name="Lslash" unicode="&#x141;" horiz-adv-x="1110" 
d="M350 162h690v-162h-860v569l-141 -34v163l141 35v701h170v-658l291 72v-164l-291 -72v-450z" />
    <glyph glyph-name="lslash" unicode="&#x142;" horiz-adv-x="468" 
d="M506 831v-163l-178 -43v-625h-170v582l-187 -47v163l187 47v832h170v-791z" />
    <glyph glyph-name="Nacute" unicode="&#x143;" horiz-adv-x="1511" 
d="M977 1892l-361 -315l-81 82l335 338zM1174 1434h169v-1434h-210l-809 1206l16 -606v-600h-170v1434h209l809 -1207l-14 607v600z" />
    <glyph glyph-name="nacute" unicode="&#x144;" horiz-adv-x="1271" 
d="M858 1616l-360 -313l-82 79l336 340zM725 1149q191 0 299.5 -114.5t108.5 -319.5v-715h-170v682q0 151 -73 228t-212 77q-169 0 -262.5 -110t-93.5 -299v-578h-170v1126h170v-223q123 246 403 246z" />
    <glyph glyph-name="Ncommaaccent" unicode="&#x145;" horiz-adv-x="1511" 
d="M1174 1434h169v-1434h-210l-809 1206l16 -606v-600h-170v1434h209l809 -1207l-14 607v600zM766 -143q38 0 67.5 -24t30.5 -66q0 -27 -18.5 -80t-83.5 -199h-105l93 195q-36 6 -58 28t-22 56q0 40 29 65t67 25z" />
    <glyph glyph-name="ncommaaccent" unicode="&#x146;" horiz-adv-x="1271" 
d="M725 1149q191 0 299.5 -114.5t108.5 -319.5v-715h-170v682q0 151 -73 228t-212 77q-169 0 -262.5 -110t-93.5 -299v-578h-170v1126h170v-223q123 246 403 246zM647 -143q38 0 67.5 -24t30.5 -66q0 -27 -18.5 -80t-83.5 -199h-104l92 195q-36 6 -58 28t-22 56q0 40 29 65
t67 25z" />
    <glyph glyph-name="Ncaron" unicode="&#x147;" horiz-adv-x="1511" 
d="M1092 1917l-338 -336l-336 336l94 96l242 -250l241 250zM1174 1434h169v-1434h-210l-809 1206l16 -606v-600h-170v1434h209l809 -1207l-14 607v600z" />
    <glyph glyph-name="ncaron" unicode="&#x148;" horiz-adv-x="1271" 
d="M973 1638l-338 -335l-336 335l94 97l242 -250l242 250zM725 1149q191 0 299.5 -114.5t108.5 -319.5v-715h-170v682q0 151 -73 228t-212 77q-169 0 -262.5 -110t-93.5 -299v-578h-170v1126h170v-223q123 246 403 246z" />
    <glyph glyph-name="Eng" unicode="&#x14a;" horiz-adv-x="1511" 
d="M1174 1434h169v-1434v-82q0 -218 -109.5 -335.5t-295.5 -117.5q-84 0 -168.5 22t-134.5 50l31 141q149 -55 245 -55q129 0 196 78.5t67 224.5v74h-41l-809 1206l16 -606v-600h-170v1434h209l795 -1184v20h12l-12 564v600z" />
    <glyph glyph-name="eng" unicode="&#x14b;" horiz-adv-x="1271" 
d="M725 1149q191 0 299.5 -114.5t108.5 -319.5v-715v-82q0 -218 -110 -335.5t-296 -117.5q-85 0 -169 22t-134 50l29 141q153 -55 247 -55q129 0 196 78.5t67 224.5v332v424q0 151 -73 228t-212 77q-169 0 -262.5 -110t-93.5 -299v-578h-170v1126h170v-223q123 246 403 246z
" />
    <glyph glyph-name="Omacron" unicode="&#x14c;" horiz-adv-x="1716" 
d="M1114 1851v-127h-512v127h512zM860 1456q205 0 374 -96t266 -265.5t97 -377.5t-97 -377.5t-266.5 -266t-375.5 -96.5q-154 0 -290.5 56.5t-235 154.5t-156 235.5t-57.5 293.5t57.5 293.5t156 235t236 154t291.5 56.5zM858 1294q-158 0 -287.5 -75t-204.5 -207.5
t-75 -294.5t75 -295t204.5 -208t287.5 -75t287.5 74.5t204.5 207.5t75 296t-75 295.5t-204.5 207t-287.5 74.5z" />
    <glyph glyph-name="omacron" unicode="&#x14d;" horiz-adv-x="1372" 
d="M942 1577v-129h-512v129h512zM686 1149q119 0 226.5 -44.5t185.5 -121.5t124 -186.5t46 -233.5q0 -166 -77 -300.5t-210.5 -210t-294.5 -75.5q-120 0 -227 44.5t-184.5 122t-123 186.5t-45.5 233t46 233.5t124 186.5t185 121.5t225 44.5zM686 987q-171 0 -289 -119.5
t-118 -304.5q0 -184 117.5 -304t289.5 -120q174 0 292 120t118 304t-118.5 304t-291.5 120z" />
    <glyph glyph-name="Ohungarumlaut" unicode="&#x150;" horiz-adv-x="1716" 
d="M782 2013l111 -55l-234 -381l-84 43zM1028 2013l111 -55l-232 -381l-86 43zM860 1456q205 0 374 -96t266 -265.5t97 -377.5t-97 -377.5t-266.5 -266t-375.5 -96.5q-154 0 -290.5 56.5t-235 154.5t-156 235.5t-57.5 293.5t57.5 293.5t156 235t236 154t291.5 56.5z
M858 1294q-158 0 -287.5 -75t-204.5 -207.5t-75 -294.5t75 -295t204.5 -208t287.5 -75t287.5 74.5t204.5 207.5t75 296t-75 295.5t-204.5 207t-287.5 74.5z" />
    <glyph glyph-name="ohungarumlaut" unicode="&#x151;" horiz-adv-x="1372" 
d="M610 1737l111 -54l-234 -380l-84 40zM856 1737l111 -54l-232 -380l-86 40zM686 1149q119 0 226.5 -44.5t185.5 -121.5t124 -186.5t46 -233.5q0 -166 -77 -300.5t-210.5 -210t-294.5 -75.5q-120 0 -227 44.5t-184.5 122t-123 186.5t-45.5 233t46 233.5t124 186.5
t185 121.5t225 44.5zM686 987q-171 0 -289 -119.5t-118 -304.5q0 -184 117.5 -304t289.5 -120q174 0 292 120t118 304t-118.5 304t-291.5 120z" />
    <glyph glyph-name="OE" unicode="&#x152;" horiz-adv-x="2426" 
d="M2337 1272h-742v-455h693v-162h-693v-493h742v-162h-912v258q-94 -131 -241.5 -206t-323.5 -75q-154 0 -291.5 56.5t-236 154.5t-156 235.5t-57.5 293.5t57.5 293.5t156 235t236 154t291.5 56.5q176 0 323.5 -74.5t241.5 -205.5v258h912v-162zM860 139q157 0 286 74.5
t204 207.5t75 296t-75 295.5t-204 207t-286 74.5q-159 0 -289.5 -75t-205 -207.5t-74.5 -294.5q0 -122 44 -229.5t119.5 -184t181 -120.5t224.5 -44z" />
    <glyph glyph-name="oe" unicode="&#x153;" horiz-adv-x="2330" 
d="M1671 1149q172 0 303 -81.5t199 -226.5t61 -329h-964q12 -173 124.5 -274t284.5 -101q119 0 211 50t142 147h176q-69 -175 -210.5 -266t-324.5 -91q-164 0 -295 73t-204 202q-73 -128 -202.5 -202.5t-285.5 -74.5q-160 0 -293 76t-210 211t-77 301q0 124 46 233.5
t124 186.5t185 121.5t225 44.5q157 0 287 -75t201 -204q73 131 203 205t294 74zM1671 989q-152 0 -257.5 -88t-135.5 -229h772q-28 144 -128.5 230.5t-250.5 86.5zM686 139q174 0 292 119.5t118 304.5q0 184 -118.5 304t-291.5 120q-171 0 -289 -120t-118 -304t117.5 -304
t289.5 -120z" />
    <glyph glyph-name="Racute" unicode="&#x154;" horiz-adv-x="1357" 
d="M901 1892l-360 -315l-82 82l336 338zM1077 0l-448 555h-279v-555h-170v1434h568q232 0 358.5 -122t126.5 -321q0 -180 -105.5 -294.5t-298.5 -137.5l459 -559h-211zM350 1272v-565h381q163 0 246.5 78t83.5 206q0 126 -84 203.5t-246 77.5h-381z" />
    <glyph glyph-name="racute" unicode="&#x155;" horiz-adv-x="845" 
d="M645 1616l-360 -313l-82 79l336 340zM723 1149q38 0 70 -4v-174q-36 4 -72 4q-182 0 -290.5 -115.5t-108.5 -327.5v-532h-170v1126h170v-252q53 130 154.5 202.5t246.5 72.5z" />
    <glyph glyph-name="Rcommaaccent" unicode="&#x156;" horiz-adv-x="1357" 
d="M829 559l459 -559h-211l-448 555h-279v-555h-170v1434h568q232 0 358.5 -122t126.5 -321q0 -180 -105.5 -294.5t-298.5 -137.5zM350 1272v-565h381q163 0 246.5 78t83.5 206q0 126 -84 203.5t-246 77.5h-381zM690 -143q38 0 67.5 -24t30.5 -66q0 -27 -18.5 -80
t-83.5 -199h-104l92 195q-36 6 -58 28t-22 56q0 40 29 65t67 25z" />
    <glyph glyph-name="rcommaaccent" unicode="&#x157;" horiz-adv-x="845" 
d="M723 1149q38 0 70 -4v-174q-36 4 -72 4q-182 0 -290.5 -115.5t-108.5 -327.5v-532h-170v1126h170v-252q53 130 154.5 202.5t246.5 72.5zM434 -143q38 0 67.5 -24t30.5 -66q0 -27 -18.5 -80t-83.5 -199h-104l92 195q-36 6 -58 28t-22 56q0 40 29 65t67 25z" />
    <glyph glyph-name="Rcaron" unicode="&#x158;" horiz-adv-x="1357" 
d="M1016 1917l-338 -336l-336 336l94 96l242 -250l242 250zM1077 0l-448 555h-279v-555h-170v1434h568q232 0 358.5 -122t126.5 -321q0 -180 -105.5 -294.5t-298.5 -137.5l459 -559h-211zM350 1272v-565h381q163 0 246.5 78t83.5 206q0 126 -84 203.5t-246 77.5h-381z" />
    <glyph glyph-name="rcaron" unicode="&#x159;" horiz-adv-x="845" 
d="M760 1638l-338 -335l-336 335l94 97l242 -250l242 250zM723 1149q38 0 70 -4v-174q-36 4 -72 4q-182 0 -290.5 -115.5t-108.5 -327.5v-532h-170v1126h170v-252q53 130 154.5 202.5t246.5 72.5z" />
    <glyph glyph-name="Sacute" unicode="&#x15a;" horiz-adv-x="1312" 
d="M772 1997l107 -105l-361 -315l-82 82zM678 811q83 -18 139 -32.5t118 -35t102 -41.5t78.5 -51t60 -65.5t34.5 -82.5t13 -104q0 -85 -29 -156t-78 -119.5t-116.5 -82t-143 -49t-158.5 -15.5q-139 0 -249 35t-182 97.5t-116 142.5t-61 178h172q72 -293 432 -293
q167 0 262 67t95 189q0 30 -5.5 54t-20.5 44t-30 35t-46 29.5t-56.5 24.5t-72.5 22.5t-82.5 20.5t-98.5 22q-72 16 -124.5 30t-109 33.5t-95 40.5t-75.5 50t-58.5 63.5t-34.5 79t-13 98.5q0 129 71.5 225.5t187 143.5t255.5 47q123 0 221.5 -29t165.5 -81.5t109.5 -120
t62.5 -150.5h-172q-85 221 -385 221q-159 0 -252.5 -68.5t-93.5 -187.5q0 -87 78 -132.5t301 -96.5z" />
    <glyph glyph-name="sacute" unicode="&#x15b;" horiz-adv-x="1177" 
d="M705 1722l106 -106l-360 -313l-82 79zM629 -23q-222 0 -366.5 98.5t-178.5 276.5h174q33 -116 121.5 -164.5t249.5 -48.5q130 0 210.5 44t80.5 124q0 31 -13.5 54t-36.5 39.5t-61.5 31t-80.5 25.5t-102 26q-25 6 -38 9q-73 18 -123.5 32.5t-101 32t-82.5 35t-61 40
t-45 48t-25 58t-9 71.5q0 159 126.5 249.5t330.5 90.5q196 0 320.5 -85t158.5 -239h-172q-61 162 -303 162q-134 0 -211.5 -46t-77.5 -120q0 -23 6.5 -40t26.5 -32t39.5 -26t63 -24.5t79 -23t103.5 -26.5q92 -23 136.5 -35t110 -34t95.5 -43t63.5 -52t45.5 -71t12 -92
q0 -112 -64 -191.5t-167.5 -116.5t-233.5 -37z" />
    <glyph glyph-name="Scedilla" unicode="&#x15e;" horiz-adv-x="1312" 
d="M1223 399q0 -105 -42.5 -187t-115 -131.5t-162.5 -75.5t-192 -28l-70 -143q85 -12 144 -57t59 -127q0 -90 -76.5 -137.5t-204.5 -47.5q-81 0 -121 9v94q45 -10 105 -10q75 0 118.5 25.5t43.5 74.5q0 104 -207 115l88 211q-220 25 -344.5 145t-155.5 301h172
q72 -293 432 -293q167 0 262 67t95 189q0 30 -5.5 54t-20.5 44t-30 35t-46 29.5t-56.5 24.5t-72.5 22.5t-82.5 20.5t-98.5 22q-72 16 -124.5 30t-109 33.5t-95 40.5t-75.5 50t-58.5 63.5t-34.5 79t-13 98.5q0 129 71.5 225.5t187 143.5t255.5 47q123 0 221.5 -29
t165.5 -81.5t109.5 -120t62.5 -150.5h-172q-85 221 -385 221q-159 0 -252.5 -68.5t-93.5 -187.5q0 -87 78 -132.5t301 -96.5q83 -18 139 -32.5t118 -35t102 -41.5t78.5 -51t60 -65.5t34.5 -82.5t13 -104z" />
    <glyph glyph-name="scedilla" unicode="&#x15f;" horiz-adv-x="1177" 
d="M1094 322q0 -110 -62 -188.5t-162 -116.5t-227 -40l-70 -143q85 -12 144 -57t59 -127q0 -90 -76 -137.5t-204 -47.5q-80 0 -121 9v94q45 -10 104 -10q75 0 118.5 25.5t43.5 74.5q0 104 -207 115l90 211q-181 22 -296 117t-144 251h174q33 -116 121.5 -164.5t249.5 -48.5
q130 0 210.5 44t80.5 124q0 31 -13.5 54t-36.5 39.5t-61.5 31t-80.5 25.5t-102 26q-25 6 -38 9q-73 18 -123.5 32.5t-101 32t-82.5 35t-61 40t-45 48t-25 58t-9 71.5q0 159 126.5 249.5t330.5 90.5q196 0 320.5 -85t158.5 -239h-172q-61 162 -303 162q-134 0 -211.5 -46
t-77.5 -120q0 -23 6.5 -40t26.5 -32t39.5 -26t63 -24.5t79 -23t103.5 -26.5q92 -23 136.5 -35t110 -34t95.5 -43t63.5 -52t45.5 -71t12 -92z" />
    <glyph glyph-name="Scaron" unicode="&#x160;" horiz-adv-x="1312" 
d="M993 1917l-338 -336l-336 336l95 96l241 -250l242 250zM678 811q83 -18 139 -32.5t118 -35t102 -41.5t78.5 -51t60 -65.5t34.5 -82.5t13 -104q0 -85 -29 -156t-78 -119.5t-116.5 -82t-143 -49t-158.5 -15.5q-139 0 -249 35t-182 97.5t-116 142.5t-61 178h172
q72 -293 432 -293q167 0 262 67t95 189q0 30 -5.5 54t-20.5 44t-30 35t-46 29.5t-56.5 24.5t-72.5 22.5t-82.5 20.5t-98.5 22q-72 16 -124.5 30t-109 33.5t-95 40.5t-75.5 50t-58.5 63.5t-34.5 79t-13 98.5q0 129 71.5 225.5t187 143.5t255.5 47q123 0 221.5 -29
t165.5 -81.5t109.5 -120t62.5 -150.5h-172q-85 221 -385 221q-159 0 -252.5 -68.5t-93.5 -187.5q0 -87 78 -132.5t301 -96.5z" />
    <glyph glyph-name="scaron" unicode="&#x161;" horiz-adv-x="1177" 
d="M926 1638l-338 -335l-336 335l94 97l242 -250l241 250zM629 -23q-222 0 -366.5 98.5t-178.5 276.5h174q33 -116 121.5 -164.5t249.5 -48.5q130 0 210.5 44t80.5 124q0 31 -13.5 54t-36.5 39.5t-61.5 31t-80.5 25.5t-102 26q-25 6 -38 9q-73 18 -123.5 32.5t-101 32
t-82.5 35t-61 40t-45 48t-25 58t-9 71.5q0 159 126.5 249.5t330.5 90.5q196 0 320.5 -85t158.5 -239h-172q-61 162 -303 162q-134 0 -211.5 -46t-77.5 -120q0 -23 6.5 -40t26.5 -32t39.5 -26t63 -24.5t79 -23t103.5 -26.5q92 -23 136.5 -35t110 -34t95.5 -43t63.5 -52
t45.5 -71t12 -92q0 -112 -64 -191.5t-167.5 -116.5t-233.5 -37z" />
    <glyph glyph-name="uni0162" unicode="&#x162;" horiz-adv-x="1234" 
d="M702 0h-20l-80 -166q85 -12 144 -57t59 -127q0 -90 -76.5 -137.5t-204.5 -47.5q-80 0 -121 9v94q45 -10 105 -10q75 0 118.5 25.5t43.5 74.5q0 104 -207 115l96 227h-29v1272h-460v162h1095v-162h-463v-1272z" />
    <glyph glyph-name="uni0163" unicode="&#x163;" horiz-adv-x="1056" 
d="M662 -166q85 -12 143.5 -57t58.5 -127q0 -90 -76 -137.5t-204 -47.5q-80 0 -121 9v94q45 -10 104 -10q75 0 118.5 25.5t43.5 74.5q0 104 -207 115l88 209q-158 19 -249 134.5t-91 313.5v537h-217v159h217v271l170 37v-308h506v-159h-506v-529q0 -147 66 -225t196 -78
q97 0 246 55l31 -141q-104 -55 -248 -69z" />
    <glyph glyph-name="Tcaron" unicode="&#x164;" horiz-adv-x="1234" 
d="M954 1917l-338 -336l-335 336l94 96l241 -250l242 250zM1165 1434v-162h-463v-1272h-172v1272h-460v162h1095z" />
    <glyph glyph-name="tcaron" unicode="&#x165;" horiz-adv-x="1073" 
d="M784 1237h-104l90 195q-36 6 -57 27t-21 54q0 41 28 67t68 26q38 0 67 -24t32 -66q0 -25 -19 -78t-84 -201zM948 190l31 -141q-52 -28 -136 -50t-169 -22q-186 0 -295 117.5t-109 335.5v537h-217v159h217v271l170 37v-308h506v-159h-506v-529q0 -147 66 -225t196 -78
q97 0 246 55z" />
    <glyph glyph-name="Tbar" unicode="&#x166;" horiz-adv-x="1234" 
d="M1165 1272h-463v-475h218v-162h-218v-635h-172v635h-213v162h213v475h-460v162h1095v-162z" />
    <glyph glyph-name="tbar" unicode="&#x167;" horiz-adv-x="1056" 
d="M948 190l31 -141q-52 -28 -136 -50t-169 -22q-186 0 -295 117.5t-109 335.5v51h-217v162h217v324h-217v159h217v271l170 37v-308h506v-159h-506v-324h215v-162h-215v-43q0 -147 66 -225t196 -78q97 0 246 55z" />
    <glyph glyph-name="Umacron" unicode="&#x16a;" horiz-adv-x="1484" 
d="M999 1851v-127h-512v127h512zM1141 1434h174v-869q0 -145 -43 -258t-120 -184.5t-179.5 -108.5t-224.5 -37t-224.5 37t-180 108.5t-120.5 184.5t-43 258v869h174v-861q0 -218 108 -326t286 -108t285.5 108t107.5 326v861z" />
    <glyph glyph-name="umacron" unicode="&#x16b;" horiz-adv-x="1257" 
d="M881 1577v-129h-512v129h512zM942 1126h170v-1126h-170v223q-127 -246 -401 -246q-188 0 -294 115t-106 320v714h170v-682q0 -151 70.5 -228t208.5 -77q166 0 259 110.5t93 299.5v577z" />
    <glyph glyph-name="Uring" unicode="&#x16e;" horiz-adv-x="1484" 
d="M743 2073q105 0 177 -72t71 -176q1 -102 -72 -175t-176 -73t-175 72.5t-72 175.5q0 104 71.5 176t175.5 72zM743 1968q-59 0 -100 -41t-41 -102t41 -102.5t100 -41.5t100.5 41.5t41.5 102.5t-41.5 102t-100.5 41zM1141 1434h174v-869q0 -145 -43 -258t-120 -184.5
t-179.5 -108.5t-224.5 -37t-224.5 37t-180 108.5t-120.5 184.5t-43 258v869h174v-861q0 -218 108 -326t286 -108t285.5 108t107.5 326v861z" />
    <glyph glyph-name="uring" unicode="&#x16f;" horiz-adv-x="1257" 
d="M627 1303q-103 0 -175.5 72t-72.5 175t72 175.5t176 72.5t176.5 -72.5t70.5 -175.5q1 -102 -71.5 -174.5t-175.5 -72.5zM627 1694q-59 0 -100.5 -41.5t-41.5 -102.5t41.5 -102t100.5 -41t100 41t41 102t-41 102.5t-100 41.5zM942 1126h170v-1126h-170v223
q-127 -246 -401 -246q-188 0 -294 115t-106 320v714h170v-682q0 -151 70.5 -228t208.5 -77q166 0 259 110.5t93 299.5v577z" />
    <glyph glyph-name="Uhungarumlaut" unicode="&#x170;" horiz-adv-x="1484" 
d="M668 2013l110 -55l-233 -381l-84 43zM913 2013l111 -55l-231 -381l-86 43zM1141 1434h174v-869q0 -145 -43 -258t-120 -184.5t-179.5 -108.5t-224.5 -37t-224.5 37t-180 108.5t-120.5 184.5t-43 258v869h174v-861q0 -218 108 -326t286 -108t285.5 108t107.5 326v861z" />
    <glyph glyph-name="uhungarumlaut" unicode="&#x171;" horiz-adv-x="1257" 
d="M662 1683l-234 -380l-84 40l207 394zM676 1303l-86 40l207 394l110 -54zM942 1126h170v-1126h-170v223q-127 -246 -401 -246q-188 0 -294 115t-106 320v714h170v-682q0 -151 70.5 -228t208.5 -77q166 0 259 110.5t93 299.5v577z" />
    <glyph glyph-name="Uogonek" unicode="&#x172;" horiz-adv-x="1484" 
d="M1141 1434h174v-869q0 -230 -104.5 -373.5t-282.5 -191.5q-131 -138 -178.5 -202.5t-47.5 -123.5q0 -106 132 -106q54 0 94 10v-104q-41 -9 -119 -9q-109 0 -175.5 48t-66.5 141q0 78 50 145t169 178h-38q-122 0 -224.5 37t-180 108.5t-120.5 184.5t-43 258v869h174v-861
q0 -218 108 -326t286 -108t285.5 108t107.5 326v861z" />
    <glyph glyph-name="uogonek" unicode="&#x173;" horiz-adv-x="1257" 
d="M887 -326q0 -106 131 -106q54 0 94 10v-104q-40 -9 -119 -9q-109 0 -175 48t-66 141q0 82 52.5 153.5t180.5 192.5h-43v223q-127 -246 -401 -246q-188 0 -294 115t-106 320v714h170v-682q0 -151 70.5 -228t208.5 -77q166 0 259 110.5t93 299.5v577h170v-1126
q-130 -137 -177.5 -202t-47.5 -124z" />
    <glyph glyph-name="Wcircumflex" unicode="&#x174;" horiz-adv-x="2041" 
d="M1020 1827l-242 -250l-94 94l336 340l338 -340l-96 -94zM1796 1434h176l-399 -1434h-215l-146 518l-176 711h-30l-177 -711l-143 -518h-217l-399 1434h176l190 -686l144 -574l141 574l190 686h219l191 -686l143 -576l144 576z" />
    <glyph glyph-name="wcircumflex" unicode="&#x175;" horiz-adv-x="1724" 
d="M862 1552l-241 -249l-95 94l336 338l338 -338l-96 -94zM1501 1126h170l-332 -1126h-204l-111 379l-145 571h-31l-146 -571l-112 -379h-205l-332 1126h170l105 -354l164 -596l161 596l105 354h209l104 -354l162 -594l164 594z" />
    <glyph glyph-name="Ycircumflex" unicode="&#x176;" horiz-adv-x="1368" 
d="M684 1827l-242 -250l-94 94l336 340l338 -340l-96 -94zM1300 1434l-530 -920v-514h-170v510l-530 924h192l422 -734l422 734h194z" />
    <glyph glyph-name="ycircumflex" unicode="&#x177;" horiz-adv-x="1206" 
d="M600 1552l-242 -249l-94 94l336 338l338 -338l-96 -94zM971 1126h182l-760 -1638h-182l299 649l-457 989h183l364 -807z" />
    <glyph glyph-name="Ydieresis" unicode="&#x178;" horiz-adv-x="1368" 
d="M453 1679q-47 0 -79 30.5t-32 76.5t32 76t79 30t78.5 -30t31.5 -76t-31.5 -76.5t-78.5 -30.5zM915 1679q-46 0 -78 31t-32 76t32 75.5t78 30.5q48 0 80.5 -30.5t32.5 -75.5q0 -46 -33 -76.5t-80 -30.5zM1300 1434l-530 -920v-514h-170v510l-530 924h192l422 -734l422 734
h194z" />
    <glyph glyph-name="Zacute" unicode="&#x179;" horiz-adv-x="1218" 
d="M831 1892l-360 -315l-82 82l336 338zM301 162h827v-162h-1038v162l828 1110h-793v162h1001v-162z" />
    <glyph glyph-name="zacute" unicode="&#x17a;" horiz-adv-x="1103" 
d="M774 1616l-360 -313l-82 79l336 340zM299 160l721 2v-162h-936v162l713 805l-674 -2v161h891v-161z" />
    <glyph glyph-name="Zdotaccent" unicode="&#x17b;" horiz-adv-x="1218" 
d="M610 1679q-47 0 -78.5 30.5t-31.5 76.5t31.5 76t78.5 30t79 -30t32 -76t-32 -76.5t-79 -30.5zM301 162h827v-162h-1038v162l828 1110h-793v162h1001v-162z" />
    <glyph glyph-name="zdotaccent" unicode="&#x17c;" horiz-adv-x="1103" 
d="M553 1395q-51 0 -85 32.5t-34 81.5q0 48 34 80.5t85 32.5t85 -32.5t34 -80.5q0 -49 -34 -81.5t-85 -32.5zM299 160l721 2v-162h-936v162l713 805l-674 -2v161h891v-161z" />
    <glyph glyph-name="Zcaron" unicode="&#x17d;" horiz-adv-x="1218" 
d="M946 1917l-338 -336l-336 336l95 96l241 -250l242 250zM301 162h827v-162h-1038v162l828 1110h-793v162h1001v-162z" />
    <glyph glyph-name="zcaron" unicode="&#x17e;" horiz-adv-x="1103" 
d="M889 1638l-338 -335l-336 335l94 97l242 -250l242 250zM299 160l721 2v-162h-936v162l713 805l-674 -2v161h891v-161z" />
    <glyph glyph-name="uni0237" unicode="&#x237;" horiz-adv-x="471" 
d="M152 -512v1638h170v-1638h-170z" />
    <glyph glyph-name="circumflex" unicode="&#x2c6;" horiz-adv-x="1034" 
d="M854 1397l-96 -94l-242 249l-242 -249l-94 94l336 338z" />
    <glyph glyph-name="caron" unicode="&#x2c7;" horiz-adv-x="1034" 
d="M854 1638l-338 -335l-336 335l94 97l242 -250l242 250z" />
    <glyph glyph-name="breve" unicode="&#x2d8;" horiz-adv-x="1007" 
d="M834 1673v-37q0 -141 -95.5 -226t-234.5 -85t-233.5 85t-94.5 226v37h139v-33q0 -83 52 -132.5t137 -49.5q86 0 138 49.5t52 132.5v33h140z" />
    <glyph glyph-name="dotaccent" unicode="&#x2d9;" horiz-adv-x="579" 
d="M291 1622q51 0 85 -32.5t34 -80.5q0 -49 -34 -81.5t-85 -32.5t-85 32.5t-34 81.5q0 48 34 80.5t85 32.5z" />
    <glyph glyph-name="ring" unicode="&#x2da;" horiz-adv-x="856" 
d="M428 1798q104 0 177 -72.5t71 -175.5q1 -102 -72 -174.5t-176 -72.5t-175.5 72t-72.5 175t72 175.5t176 72.5zM428 1694q-59 0 -100 -41.5t-41 -102.5t41 -102t100 -41t100 41t41 102t-41 102.5t-100 41.5z" />
    <glyph glyph-name="ogonek" unicode="&#x2db;" horiz-adv-x="704" 
d="M541 -526q-41 -9 -119 -9q-109 0 -175.5 48t-66.5 141q0 44 14.5 84t51 86.5t72.5 83t104 100.5l119 -8q-131 -138 -178.5 -202.5t-47.5 -123.5q0 -106 131 -106q55 0 95 10v-104z" />
    <glyph glyph-name="tilde" unicode="&#x2dc;" horiz-adv-x="1054" 
d="M776 1634h111q0 -293 -195 -293q-48 0 -82.5 19.5t-93.5 73.5q-3 3 -15.5 14.5t-15.5 14.5t-14 12t-15 12t-13.5 9.5t-15.5 8.5t-14.5 5.5t-16.5 4.5t-17 1q-47 0 -67.5 -40t-20.5 -118h-111q0 293 195 293q47 0 83 -19.5t93 -72.5q3 -3 15.5 -14.5t15.5 -14.5t14 -12
t15 -12t13.5 -9.5t15.5 -8.5t14.5 -5.5t16.5 -4.5t17 -1q47 0 67.5 40t20.5 117z" />
    <glyph glyph-name="hungarumlaut" unicode="&#x2dd;" horiz-adv-x="923" 
d="M387 1737l111 -54l-234 -380l-84 40zM633 1737l110 -54l-231 -380l-86 40z" />
    <glyph glyph-name="gravecomb" unicode="&#x300;" 
d="M-518 1720l338 -338l-84 -82l-359 314z" />
    <glyph glyph-name="acutecomb" unicode="&#x301;" 
d="M-287 1722l107 -106l-361 -313l-82 79z" />
    <glyph glyph-name="uni0302" unicode="&#x302;" 
d="M-180 1397l-96 -94l-242 249l-242 -249l-94 94l336 338z" />
    <glyph glyph-name="tildecomb" unicode="&#x303;" 
d="M-291 1634h111q0 -293 -195 -293q-48 0 -82.5 19.5t-93.5 73.5q-3 3 -15.5 14.5t-15.5 14.5t-14 12t-15 12t-13.5 9.5t-15.5 8.5t-14.5 5.5t-16.5 4.5t-17 1q-47 0 -67.5 -40t-20.5 -118h-111q0 293 195 293q47 0 83 -19.5t93 -72.5q3 -3 15.5 -14.5t15.5 -14.5t14 -12
t15 -12t13.5 -9.5t15.5 -8.5t14.5 -5.5t16.5 -4.5t17 -1q47 0 67.5 40t20.5 117z" />
    <glyph glyph-name="uni0304" unicode="&#x304;" 
d="M-180 1577v-129h-512v129h512z" />
    <glyph glyph-name="uni0306" unicode="&#x306;" 
d="M-174 1673v-37q0 -141 -95.5 -226t-234.5 -85t-233 85t-94 226v37h139v-33q0 -83 51.5 -132.5t136.5 -49.5q87 0 139 49.5t52 132.5v33h139z" />
    <glyph glyph-name="uni0307" unicode="&#x307;" 
d="M-289 1622q51 0 85 -32.5t34 -80.5q0 -49 -34 -81.5t-85 -32.5t-85 32.5t-34 81.5q0 48 34 80.5t85 32.5z" />
    <glyph glyph-name="uni0308" unicode="&#x308;" 
d="M-756 1616q47 0 79 -31t32 -76q0 -46 -32 -77t-79 -31t-78.5 31t-31.5 77q0 45 31.5 76t78.5 31zM-293 1616q47 0 80 -31.5t33 -75.5q0 -46 -33 -77t-80 -31q-46 0 -78 31t-32 77q0 44 32 75.5t78 31.5z" />
    <glyph glyph-name="uni030A" unicode="&#x30a;" 
d="M-428 1798q104 0 177 -72.5t71 -175.5q1 -102 -72 -174.5t-176 -72.5t-175.5 72t-72.5 175t72 175.5t176 72.5zM-428 1694q-59 0 -100 -41.5t-41 -102.5t41 -102t100 -41t100 41t41 102t-41 102.5t-100 41.5z" />
    <glyph glyph-name="uni030B" unicode="&#x30b;" 
d="M-537 1737l111 -54l-233 -380l-84 40zM-291 1737l111 -54l-232 -380l-86 40z" />
    <glyph glyph-name="uni030C" unicode="&#x30c;" 
d="M-180 1638l-338 -335l-336 335l94 97l242 -250l242 250z" />
    <glyph glyph-name="uni0312" unicode="&#x312;" 
d="M-274 1475q36 -5 57.5 -26t21.5 -56q0 -40 -29 -65t-69 -25q-37 0 -66 24t-30 66q-2 25 16.5 76.5t85.5 201.5h105z" />
    <glyph glyph-name="uni0326" unicode="&#x326;" 
d="M-180 -233q0 -26 -19 -79t-84 -200h-104l90 197q-36 5 -57 26t-21 56q0 40 29 65t67 25t68 -24t31 -66z" />
    <glyph glyph-name="uni0327" unicode="&#x327;" 
d="M-383 -166q85 -12 144 -57t59 -127q0 -90 -76.5 -137.5t-204.5 -47.5q-81 0 -121 9v94q45 -10 105 -10q75 0 118.5 25.5t43.5 74.5q0 104 -207 115l96 227h123z" />
    <glyph glyph-name="uni0328" unicode="&#x328;" 
d="M-180 -526q-40 -9 -119 -9q-109 0 -175.5 48t-66.5 141q0 44 14.5 84t51 86.5t72.5 83t104 100.5l119 -8q-131 -138 -178.5 -202.5t-47.5 -123.5q0 -106 132 -106q54 0 94 10v-104z" />
    <glyph glyph-name="uni0335" unicode="&#x335;" 
d="M-178 698v-161h-602v161h602z" />
    <glyph glyph-name="uni0337" unicode="&#x337;" 
d="M-180 1126l-807 -1126h-133l807 1126h133z" />
    <glyph glyph-name="uni0338" unicode="&#x338;" 
d="M-180 1577l-768 -1577h-172l766 1577h174z" />
    <glyph glyph-name="uni0401" unicode="&#x401;" horiz-adv-x="1179" 
d="M397 1679q-47 0 -78.5 30.5t-31.5 76.5t31.5 76t78.5 30t79 -30t32 -76t-32 -76.5t-79 -30.5zM860 1679q-46 0 -78 31t-32 76t32 75.5t78 30.5q48 0 80.5 -30.5t32.5 -75.5q0 -46 -33 -76.5t-80 -30.5zM1090 1272h-740v-455h690v-162h-690v-493h740v-162h-910v1434h910
v-162z" />
    <glyph glyph-name="uni0404" unicode="&#x404;" horiz-adv-x="1630" 
d="M858 139q170 0 302.5 85.5t197.5 232.5h182q-74 -219 -256.5 -349.5t-423.5 -130.5q-156 0 -293 56.5t-234.5 154t-153.5 235t-56 294.5t56 294t153.5 235t234.5 154t293 56q241 0 423.5 -130t256.5 -349h-182q-65 146 -197.5 231.5t-302.5 85.5q-220 0 -375 -138
t-184 -355h659v-162h-659q26 -218 182 -359t377 -141z" />
    <glyph glyph-name="uni0406" unicode="&#x406;" horiz-adv-x="530" 
d="M180 0v1434h170v-1434h-170z" />
    <glyph glyph-name="uni0407" unicode="&#x407;" horiz-adv-x="530" 
d="M33 1892q47 0 78.5 -30t31.5 -76t-31.5 -76.5t-78.5 -30.5t-79 30.5t-32 76.5t32 76t79 30zM496 1892q48 0 80 -30t32 -76t-32.5 -76.5t-79.5 -30.5q-46 0 -78.5 31t-32.5 76t32.5 75.5t78.5 30.5zM180 0v1434h170v-1434h-170z" />
    <glyph glyph-name="uni040E" unicode="&#x40e;" horiz-adv-x="1437" 
d="M1075 1948v-37q0 -141 -95.5 -226.5t-234.5 -85.5t-233 85.5t-94 226.5v37h139v-31q0 -84 51.5 -133t136.5 -49q87 0 139 49t52 133v31h139zM1368 1434l-811 -1434h-192l297 520l-523 914h193l424 -732l422 732h190z" />
    <glyph glyph-name="uni0410" unicode="&#x410;" horiz-adv-x="1505" 
d="M1255 0l-170 430h-665l-170 -430h-180l573 1434h219l574 -1434h-181zM485 592h537l-268 680z" />
    <glyph glyph-name="uni0411" unicode="&#x411;" horiz-adv-x="1343" 
d="M780 860q233 0 353 -114.5t120 -313.5q0 -198 -125 -315t-358 -117h-590v1434h170h803v-162h-803v-412h430zM764 162q158 0 237.5 74t79.5 198q0 125 -74.5 196.5t-232.5 71.5h-424v-540h414z" />
    <glyph glyph-name="uni0412" unicode="&#x412;" horiz-adv-x="1341" 
d="M1004 762q123 -34 185 -129.5t62 -235.5q0 -187 -120 -292t-349 -105h-602v1434h592q216 0 325 -95.5t109 -269.5q0 -224 -202 -307zM1034 1044q0 113 -65 170.5t-217 57.5h-402v-453h398q155 0 220.5 57.5t65.5 167.5zM780 162q301 0 301 248q0 124 -71.5 189t-233.5 65
h-426v-502h430z" />
    <glyph glyph-name="uni0413" unicode="&#x413;" horiz-adv-x="1110" 
d="M1042 1434v-162h-692v-1272h-170v1434h862z" />
    <glyph glyph-name="uni0414" unicode="&#x414;" horiz-adv-x="1675" 
d="M1401 162h205v-463h-172v301h-1194v-301h-170v463h204q37 27 62 93.5t47 193.5l162 985h856v-1272zM551 438q-35 -203 -84 -276h764v1110h-543z" />
    <glyph glyph-name="uni0415" unicode="&#x415;" horiz-adv-x="1179" 
d="M1090 1272h-740v-455h690v-162h-690v-493h740v-162h-910v1434h910v-162z" />
    <glyph glyph-name="uni0416" unicode="&#x416;" horiz-adv-x="2025" 
d="M1956 0h-215l-643 694v-694h-170v694l-643 -694h-215l669 731l-645 703h213l621 -670v670h170v-670l620 670h213l-645 -703z" />
    <glyph glyph-name="uni0417" unicode="&#x417;" horiz-adv-x="1290" 
d="M940 756q122 -37 191 -131t69 -224q0 -194 -145 -309t-385 -115q-234 0 -391.5 110.5t-188.5 322.5h172q60 -271 406 -271q170 0 265 74t95 201q0 115 -78.5 183.5t-249.5 68.5h-225v149h174q164 0 246 57.5t82 163.5q0 120 -89.5 189t-242.5 69q-148 0 -236 -58
t-124 -194h-172q38 212 179 313t357 101q218 0 359 -111t141 -288q0 -103 -55.5 -184t-153.5 -117z" />
    <glyph glyph-name="uni0418" unicode="&#x418;" horiz-adv-x="1511" 
d="M1135 1434h208v-1434h-169v600l14 606l-809 -1206h-209v1434h170v-600l-14 -607z" />
    <glyph glyph-name="uni0419" unicode="&#x419;" horiz-adv-x="1511" 
d="M756 1599q-139 0 -233.5 85.5t-94.5 226.5v37h139v-31q0 -84 51.5 -133t137.5 -49q87 0 138.5 49t51.5 133v31h139v-37q0 -141 -95 -226.5t-234 -85.5zM1135 1434h208v-1434h-169v600l14 606l-809 -1206h-209v1434h170v-600l-14 -607z" />
    <glyph glyph-name="uni041A" unicode="&#x41a;" horiz-adv-x="1312" 
d="M1243 0h-219l-674 696v-696h-170v1434h170v-672l651 672h218l-678 -703z" />
    <glyph glyph-name="uni041B" unicode="&#x41b;" horiz-adv-x="1558" 
d="M516 1434h862v-1434h-170v1272h-549l-137 -834q-40 -251 -121 -356t-219 -105q-61 0 -112 7v155q36 -4 80 -4q87 0 130.5 65.5t73.5 248.5z" />
    <glyph glyph-name="uni041C" unicode="&#x41c;" horiz-adv-x="1677" 
d="M1288 1434h209v-1434h-170v1214l-485 -733h-17l-485 733v-1214h-170v1434h209l455 -684z" />
    <glyph glyph-name="uni041D" unicode="&#x41d;" horiz-adv-x="1531" 
d="M1182 1434h170v-1434h-170v659h-832v-659h-170v1434h170v-613h832v613z" />
    <glyph glyph-name="uni041E" unicode="&#x41e;" horiz-adv-x="1716" 
d="M860 1456q205 0 374 -96t266 -265.5t97 -377.5t-97 -377.5t-266.5 -266t-375.5 -96.5q-154 0 -290.5 56.5t-235 154.5t-156 235.5t-57.5 293.5t57.5 293.5t156 235t236 154t291.5 56.5zM858 1294q-158 0 -287.5 -75t-204.5 -207.5t-75 -294.5t75 -295t204.5 -208
t287.5 -75t287.5 74.5t204.5 207.5t75 296t-75 295.5t-204.5 207t-287.5 74.5z" />
    <glyph glyph-name="uni041F" unicode="&#x41f;" horiz-adv-x="1531" 
d="M1352 1434v-1434h-170v1272h-832v-1272h-170v1434h170h1002z" />
    <glyph glyph-name="uni0420" unicode="&#x420;" horiz-adv-x="1370" 
d="M756 1434q232 0 363.5 -127.5t131.5 -331.5t-132 -335.5t-363 -131.5h-406v-508h-170v1434h576zM750 670q162 0 245.5 85.5t83.5 217.5q0 131 -83.5 215t-245.5 84h-400v-602h400z" />
    <glyph glyph-name="uni0421" unicode="&#x421;" horiz-adv-x="1630" 
d="M860 -23q-156 0 -293 56.5t-234.5 154t-153.5 235t-56 294.5t56 294t153.5 235t234.5 154t293 56q241 0 423.5 -130t256.5 -349h-182q-65 146 -197.5 231.5t-302.5 85.5q-160 0 -289 -75t-201.5 -207t-72.5 -295q0 -122 42.5 -229t117 -184t179 -121t224.5 -44
q170 0 302.5 85.5t197.5 232.5h182q-74 -219 -256.5 -349.5t-423.5 -130.5z" />
    <glyph glyph-name="uni0422" unicode="&#x422;" horiz-adv-x="1234" 
d="M1165 1434v-162h-463v-1272h-172v1272h-460v162h1095z" />
    <glyph glyph-name="uni0423" unicode="&#x423;" horiz-adv-x="1437" 
d="M1368 1434l-811 -1434h-192l297 520l-523 914h193l424 -732l422 732h190z" />
    <glyph glyph-name="uni0424" unicode="&#x424;" horiz-adv-x="1867" 
d="M1174 1272q120 0 224.5 -37.5t182.5 -106t123 -171t45 -226.5q0 -165 -76.5 -289t-206 -188t-292.5 -64h-142v-190h-170v190h-143q-163 0 -293 64t-206.5 188t-76.5 289q0 124 45 226.5t123 171t183 106t225 37.5h143v162h170v-162h142zM719 352h143v758h-143
q-176 0 -290 -99.5t-114 -279.5t113.5 -279.5t290.5 -99.5zM1174 352q177 0 291 99.5t114 279.5t-114 279.5t-291 99.5h-142v-758h142z" />
    <glyph glyph-name="uni0425" unicode="&#x425;" horiz-adv-x="1296" 
d="M1227 0h-203l-377 594l-375 -594h-202l473 737l-453 697h203l356 -562l359 562h202l-456 -707z" />
    <glyph glyph-name="uni0426" unicode="&#x426;" horiz-adv-x="1613" 
d="M1298 162h246v-463h-170v301h-1194v162v1272h170v-1272h778v1272h170v-1272z" />
    <glyph glyph-name="uni0427" unicode="&#x427;" horiz-adv-x="1343" 
d="M993 1434h170v-1434h-170v549q-159 -74 -383 -74q-228 0 -359.5 117.5t-131.5 357.5v484h172v-465q0 -175 91 -253.5t259 -78.5q232 0 352 74v723z" />
    <glyph glyph-name="uni0428" unicode="&#x428;" horiz-adv-x="2088" 
d="M1739 1434h170v-1309v-125h-1729v164v1270h170v-1270h608v1270h170v-1270h611v1270z" />
    <glyph glyph-name="uni0429" unicode="&#x429;" horiz-adv-x="2224" 
d="M1909 162h245v-463h-169v301h-1805v162v1272h170v-1272h608v1272h170v-1272h611v1272h170v-1272z" />
    <glyph glyph-name="uni042A" unicode="&#x42a;" horiz-adv-x="1536" 
d="M940 862q233 0 355 -115.5t122 -314.5q0 -198 -125 -315t-358 -117h-580v1272h-284v162h381h75v-572h414zM928 162q158 0 237.5 74t79.5 198t-76.5 196t-234.5 72h-408v-540h402z" />
    <glyph glyph-name="uni042B" unicode="&#x42b;" horiz-adv-x="1767" 
d="M766 862q233 0 355 -115.5t122 -314.5q0 -198 -125 -315t-358 -117h-580v1434h170v-572h416zM1440 1434h170v-1434h-170v1434zM754 162q158 0 237.5 74t79.5 198t-76.5 196t-234.5 72h-410v-540h404z" />
    <glyph glyph-name="uni042C" unicode="&#x42c;" horiz-adv-x="1359" 
d="M766 862q233 0 355 -115.5t122 -314.5q0 -198 -125 -315t-358 -117h-580v1434h170v-572h416zM754 162q158 0 237.5 74t79.5 198t-76.5 196t-234.5 72h-410v-540h404z" />
    <glyph glyph-name="uni042D" unicode="&#x42d;" horiz-adv-x="1624" 
d="M776 1456q208 0 374 -96t258.5 -264.5t92.5 -378.5q0 -157 -54.5 -294t-149.5 -235t-230 -154.5t-291 -56.5q-246 0 -432 131t-254 349h182q62 -147 197.5 -232.5t308.5 -85.5q222 0 373 140.5t176 361.5h-659v162h657q-28 217 -178.5 354t-370.5 137q-172 0 -307 -85.5
t-197 -231.5h-182q68 218 253 348.5t433 130.5z" />
    <glyph glyph-name="uni042E" unicode="&#x42e;" horiz-adv-x="2215" 
d="M1358 1456q154 0 291 -56.5t235.5 -154.5t155.5 -235t57 -293q0 -208 -97 -377.5t-266.5 -266t-375.5 -96.5q-192 0 -353.5 84.5t-262 234.5t-119.5 337h-273v-633h-170v1434h170v-637h271q19 188 120 338.5t262.5 235.5t354.5 85zM1358 139q158 0 287.5 74.5
t204.5 207.5t75 296t-75 295.5t-204.5 207t-287.5 74.5q-159 0 -289 -75t-205 -207t-76 -295q1 -163 76 -295.5t205 -207.5t289 -75z" />
    <glyph glyph-name="uni042F" unicode="&#x42f;" horiz-adv-x="1357" 
d="M610 1434h568v-1434h-170v545h-297l-430 -545h-211l444 551q-186 27 -287.5 144.5t-101.5 295.5q0 199 126.5 321t358.5 122zM627 698h381v574h-381q-163 0 -246.5 -78.5t-83.5 -206.5q0 -129 83.5 -209t246.5 -80z" />
    <glyph glyph-name="uni0430" unicode="&#x430;" horiz-adv-x="1388" 
d="M1067 1126h170v-1126h-170v227q-68 -117 -179.5 -183.5t-254.5 -66.5q-230 0 -378.5 165.5t-148.5 420.5q0 256 149 421t378 165q143 0 255.5 -68t178.5 -186v231zM666 139q173 0 288 119.5t115 304.5t-115 304.5t-288 119.5q-171 0 -279 -119.5t-108 -304.5
q0 -186 108.5 -305t278.5 -119z" />
    <glyph glyph-name="uni0431" unicode="&#x431;" horiz-adv-x="1361" 
d="M735 1108q110 0 206 -39.5t165.5 -110.5t109 -174t39.5 -225q0 -171 -75.5 -305t-205.5 -205.5t-290 -71.5q-120 0 -223 42t-182.5 121.5t-125.5 206t-47 284.5q0 175 23 313t64 239t108.5 174.5t146.5 120t188.5 73.5t223.5 37.5t262 10.5v-159q-146 0 -252.5 -9.5
t-202 -34.5t-159.5 -68t-113.5 -110.5t-76 -161t-35.5 -220.5q61 131 183.5 201.5t268.5 70.5zM678 125q174 0 290.5 118t116.5 308q0 183 -110 296.5t-279 113.5q-111 0 -205.5 -49.5t-153 -144t-58.5 -214.5q0 -192 113 -310t286 -118z" />
    <glyph glyph-name="uni0432" unicode="&#x432;" horiz-adv-x="1185" 
d="M885 600q109 -30 163 -103.5t54 -177.5q0 -150 -100 -234.5t-295 -84.5h-555v1126h503q394 0 394 -286q0 -156 -164 -240zM877 811q0 87 -51.5 132.5t-182.5 45.5h-321v-344h317q126 0 182 45.5t56 120.5zM696 137q130 0 183 53t53 144q0 84 -56.5 134t-183.5 50h-370
v-381h374z" />
    <glyph glyph-name="uni0433" unicode="&#x433;" horiz-adv-x="937" 
d="M885 1126v-159h-563v-967h-170v1126h733z" />
    <glyph glyph-name="uni0434" unicode="&#x434;" horiz-adv-x="1509" 
d="M1251 160h205v-461h-170v301h-205h-858v-301h-170v461h193q91 64 137 354l98 612h770v-966zM436 160h645v807h-454l-74 -457q-42 -252 -117 -350z" />
    <glyph glyph-name="uni0435" unicode="&#x435;" horiz-adv-x="1341" 
d="M682 1149q172 0 303 -81.5t199 -226.5t61 -329h-964q12 -173 124.5 -274t284.5 -101q119 0 210.5 50t141.5 147h177q-69 -175 -210.5 -266t-324.5 -91q-165 0 -297 73t-206.5 206.5t-74.5 302.5t73.5 304t205 210.5t297.5 75.5zM682 989q-152 0 -257.5 -88t-135.5 -229
h772q-28 144 -128.5 230.5t-250.5 86.5z" />
    <glyph glyph-name="uni0436" unicode="&#x436;" horiz-adv-x="1927" 
d="M1874 0h-223l-602 545v-545h-170v545l-603 -545h-223l645 592l-594 534h224l551 -503v503h170v-503l550 503h224l-594 -534z" />
    <glyph glyph-name="uni0437" unicode="&#x437;" horiz-adv-x="1165" 
d="M887 596q98 -32 146 -107.5t48 -173.5q0 -154 -126 -246t-345 -92q-468 0 -542 388h172q29 -131 119 -192.5t245 -61.5q153 0 229 59.5t76 157.5q0 188 -235 188h-228v135h181q245 0 245 166q0 88 -68.5 144.5t-215.5 56.5q-116 0 -200.5 -46.5t-113.5 -148.5h-172
q35 153 158 239.5t332 86.5q212 0 332 -89t120 -233q0 -165 -157 -231z" />
    <glyph glyph-name="uni0438" unicode="&#x438;" horiz-adv-x="1318" 
d="M961 1126h208v-1126h-170v541l11 379l-650 -920h-208v1126h170v-540l-11 -377z" />
    <glyph glyph-name="uni0439" unicode="&#x439;" horiz-adv-x="1318" 
d="M659 1325q-139 0 -233 85t-94 226v37h139v-33q0 -83 51.5 -132.5t136.5 -49.5q87 0 139 49.5t52 132.5v33h139v-37q0 -141 -95.5 -226t-234.5 -85zM961 1126h208v-1126h-170v541l11 379l-650 -920h-208v1126h170v-540l-11 -377z" />
    <glyph glyph-name="uni043A" unicode="&#x43a;" horiz-adv-x="1200" 
d="M1147 0h-223l-602 543v-543h-170v1126h170v-501l548 501h224l-592 -534z" />
    <glyph glyph-name="uni043B" unicode="&#x43b;" horiz-adv-x="1347" 
d="M430 1126h766v-1126h-170v967h-453l-84 -529q-40 -248 -123 -354.5t-221 -106.5q-41 0 -92 7v155q36 -4 60 -4q88 0 133.5 66.5t75.5 247.5z" />
    <glyph glyph-name="uni043C" unicode="&#x43c;" horiz-adv-x="1470" 
d="M1110 1126h209v-1126h-170v541l10 397l-422 -596h-6l-422 596l13 -397v-541h-170v1126h208l375 -524z" />
    <glyph glyph-name="uni043D" unicode="&#x43d;" horiz-adv-x="1335" 
d="M1014 1126h170v-1126h-170v496h-692v-496h-170v1126h170v-469h692v469z" />
    <glyph glyph-name="uni043E" unicode="&#x43e;" horiz-adv-x="1372" 
d="M686 1149q119 0 226.5 -44.5t185.5 -121.5t124 -186.5t46 -233.5q0 -166 -77 -300.5t-210.5 -210t-294.5 -75.5q-120 0 -227 44.5t-184.5 122t-123 186.5t-45.5 233t46 233.5t124 186.5t185 121.5t225 44.5zM686 987q-171 0 -289 -119.5t-118 -304.5q0 -184 117.5 -304
t289.5 -120q174 0 292 120t118 304t-118.5 304t-291.5 120z" />
    <glyph glyph-name="uni043F" unicode="&#x43f;" horiz-adv-x="1323" 
d="M1174 1126v-1126h-170v967h-682v-967h-170v1126h170h852z" />
    <glyph glyph-name="uni0440" unicode="&#x440;" horiz-adv-x="1398" 
d="M766 1149q229 0 377.5 -165t148.5 -421q0 -255 -149 -420.5t-379 -165.5q-143 0 -254.5 66.5t-177.5 183.5v-739h-170v1638h170v-231q66 118 178.5 186t255.5 68zM733 139q170 0 278.5 119t108.5 305q0 185 -108.5 304.5t-278.5 119.5q-173 0 -288 -119.5t-115 -304.5
t115 -304.5t288 -119.5z" />
    <glyph glyph-name="uni0441" unicode="&#x441;" horiz-adv-x="1320" 
d="M688 -23q-248 0 -415 167.5t-167 418.5t167 418.5t415 167.5q200 0 351.5 -112.5t195.5 -303.5h-176q-40 120 -140 189t-231 69q-178 0 -293.5 -121t-115.5 -307q0 -187 115.5 -307.5t293.5 -120.5q131 0 231 70t140 188h176q-45 -192 -197 -304t-350 -112z" />
    <glyph glyph-name="uni0442" unicode="&#x442;" horiz-adv-x="1054" 
d="M1001 1126v-159h-389v-967h-170v967h-389v159h559h389z" />
    <glyph glyph-name="uni0443" unicode="&#x443;" horiz-adv-x="1206" 
d="M971 1126h182l-760 -1638h-182l299 649l-457 989h183l364 -807z" />
    <glyph glyph-name="uni0444" unicode="&#x444;" horiz-adv-x="2304" 
d="M1671 1149q229 0 378 -165t149 -421q0 -255 -148.5 -420.5t-378.5 -165.5q-143 0 -254.5 66t-179.5 182v-721h-170v721q-68 -116 -179.5 -182t-254.5 -66q-230 0 -378.5 165.5t-148.5 420.5q0 256 149 421t378 165q142 0 255 -67.5t179 -184.5v680h170v-680
q66 117 178.5 184.5t255.5 67.5zM666 139q173 0 288 119.5t115 304.5t-115 304.5t-288 119.5q-171 0 -279 -119.5t-108 -304.5q0 -186 108.5 -305t278.5 -119zM1638 139q170 0 278.5 119t108.5 305q0 185 -108.5 304.5t-278.5 119.5q-173 0 -288 -119.5t-115 -304.5
t115 -304.5t288 -119.5z" />
    <glyph glyph-name="uni0445" unicode="&#x445;" horiz-adv-x="1134" 
d="M1081 0h-204l-312 449l-307 -449h-205l410 580l-387 546h205l288 -419l285 419h207l-389 -548z" />
    <glyph glyph-name="uni0446" unicode="&#x446;" horiz-adv-x="1402" 
d="M1145 160h205v-461h-170v301h-205h-768h-55v1126h170v-966h653v966h170v-966z" />
    <glyph glyph-name="uni0447" unicode="&#x447;" horiz-adv-x="1202" 
d="M881 1126h170v-1126h-170v408q-149 -64 -332 -64q-207 0 -322.5 100.5t-115.5 315.5v366h170v-327q0 -160 69 -230.5t228 -70.5q86 0 169 17t134 48v563z" />
    <glyph glyph-name="uni0448" unicode="&#x448;" horiz-adv-x="1781" 
d="M1462 1126h170v-1126h-170h-655h-578h-77v1126h170v-966h485v966h170v-966h485v966z" />
    <glyph glyph-name="uni0449" unicode="&#x449;" horiz-adv-x="1888" 
d="M1632 160h205v-461h-170v301h-205h-655h-578h-77v1126h170v-966h485v966h170v-966h485v966h170v-966z" />
    <glyph glyph-name="uni044A" unicode="&#x44a;" horiz-adv-x="1349" 
d="M846 754q193 0 295 -93.5t102 -277.5t-106 -283.5t-297 -99.5h-527l-2 965h-258v161h428l2 -372h363zM836 162q129 0 182 59t53 162q0 105 -51 162t-180 57h-357v-440h353z" />
    <glyph glyph-name="uni044B" unicode="&#x44b;" horiz-adv-x="1581" 
d="M684 754q193 0 295 -93.5t102 -277.5q0 -183 -106.5 -283t-298.5 -100h-524v1126h170v-372h362zM1260 1126h170v-1126h-170v1126zM674 162q129 0 182 59t53 162q0 105 -52 162t-181 57h-354v-440h352z" />
    <glyph glyph-name="uni044C" unicode="&#x44c;" horiz-adv-x="1187" 
d="M686 754q193 0 295 -93.5t102 -277.5q0 -183 -106.5 -283t-298.5 -100h-526v1126h170v-372h364zM674 162q237 0 237 221q0 105 -52 162t-181 57h-356v-440h352z" />
    <glyph glyph-name="uni044D" unicode="&#x44d;" horiz-adv-x="1323" 
d="M639 1149q163 0 295.5 -76t207.5 -210t75 -300t-75 -300t-207 -210t-296 -76q-201 0 -356 112t-197 304h176q36 -120 140 -191t237 -71q161 0 272 102t131 267h-481v135h479q-22 162 -132 261t-269 99q-136 0 -238 -70.5t-139 -191.5h-176q42 190 196 303t357 113z" />
    <glyph glyph-name="uni044E" unicode="&#x44e;" horiz-adv-x="1828" 
d="M1143 1149q118 0 224.5 -44.5t184.5 -121.5t124 -186.5t46 -233.5q0 -166 -77 -300.5t-209.5 -210t-292.5 -75.5q-223 0 -385.5 141.5t-190.5 362.5h-245v-481h-170v1126h170v-483h245q28 222 191 364t385 142zM1143 139q172 0 289.5 120t117.5 304t-117.5 304
t-289.5 120q-173 0 -291.5 -119.5t-118.5 -304.5q0 -184 118.5 -304t291.5 -120z" />
    <glyph glyph-name="uni044F" unicode="&#x44f;" horiz-adv-x="1208" 
d="M508 1126h549v-1126h-170v426h-295l-328 -426h-211l353 436q-140 24 -220 105.5t-80 216.5q0 179 105 273.5t297 94.5zM522 569h365v404h-373q-129 0 -182 -56t-53 -155q0 -90 58.5 -141.5t184.5 -51.5z" />
    <glyph glyph-name="uni0451" unicode="&#x451;" horiz-adv-x="1341" 
d="M438 1401q-47 0 -78.5 31t-31.5 77q0 45 31.5 76t78.5 31t79 -31t32 -76q0 -46 -32 -77t-79 -31zM901 1401q-46 0 -78 31t-32 77q0 44 32 75.5t78 31.5q47 0 80 -31.5t33 -75.5q0 -46 -33 -77t-80 -31zM682 1149q172 0 303 -81.5t199 -226.5t61 -329h-964
q12 -173 124.5 -274t284.5 -101q119 0 210.5 50t141.5 147h177q-69 -175 -210.5 -266t-324.5 -91q-165 0 -297 73t-206.5 206.5t-74.5 302.5t73.5 304t205 210.5t297.5 75.5zM682 989q-152 0 -257.5 -88t-135.5 -229h772q-28 144 -128.5 230.5t-250.5 86.5z" />
    <glyph glyph-name="uni0454" unicode="&#x454;" horiz-adv-x="1320" 
d="M688 131q131 0 231 70.5t140 191.5h176q-45 -192 -197 -304t-350 -112q-248 0 -415 167.5t-167 418.5t167 418.5t415 167.5q200 0 351.5 -112.5t195.5 -303.5h-176q-39 122 -139.5 192t-231.5 70q-159 0 -270.5 -99.5t-134.5 -260.5h479v-135h-479q20 -165 132 -267
t273 -102z" />
    <glyph glyph-name="uni0456" unicode="&#x456;" horiz-adv-x="471" 
d="M238 1622q51 0 84.5 -32.5t33.5 -80.5q0 -49 -33.5 -81.5t-84.5 -32.5t-85 32.5t-34 81.5q0 48 34 80.5t85 32.5zM152 0v1126h170v-1126h-170z" />
    <glyph glyph-name="uni0457" unicode="&#x457;" horiz-adv-x="471" 
d="M4 1616q47 0 79 -31t32 -76q0 -46 -32 -77t-79 -31t-78.5 31t-31.5 77q0 45 31.5 76t78.5 31zM467 1616q47 0 80 -31.5t33 -75.5q0 -46 -33 -77t-80 -31q-46 0 -78.5 31.5t-32.5 76.5q0 44 32.5 75.5t78.5 31.5zM152 0v1126h170v-1126h-170z" />
    <glyph glyph-name="uni045E" unicode="&#x45e;" horiz-adv-x="1206" 
d="M602 1325q-139 0 -233.5 85t-94.5 226v37h140v-33q0 -83 51.5 -132.5t136.5 -49.5q87 0 139 49.5t52 132.5v33h139v-37q0 -141 -95.5 -226t-234.5 -85zM971 1126h182l-760 -1638h-182l299 649l-457 989h183l364 -807z" />
    <glyph glyph-name="uni0490" unicode="&#x490;" horiz-adv-x="1110" 
d="M1042 1577v-305h-692v-1272h-170v1434h690v143h172z" />
    <glyph glyph-name="uni0491" unicode="&#x491;" horiz-adv-x="937" 
d="M885 1278v-311h-563v-967h-170v1126h563v152h170z" />
    <glyph glyph-name="Wgrave" unicode="&#x1e80;" horiz-adv-x="2041" 
d="M1243 1659l-84 -82l-358 315l104 105zM1796 1434h176l-399 -1434h-215l-146 518l-176 711h-30l-177 -711l-143 -518h-217l-399 1434h176l190 -686l144 -574l141 574l190 686h219l191 -686l143 -576l144 576z" />
    <glyph glyph-name="wgrave" unicode="&#x1e81;" horiz-adv-x="1724" 
d="M1083 1382l-84 -82l-358 314l104 106zM1501 1126h170l-332 -1126h-204l-111 379l-145 571h-31l-146 -571l-112 -379h-205l-332 1126h170l105 -354l164 -596l161 596l105 354h209l104 -354l162 -594l164 594z" />
    <glyph glyph-name="Wacute" unicode="&#x1e82;" horiz-adv-x="2041" 
d="M1243 1892l-360 -315l-82 82l336 338zM1796 1434h176l-399 -1434h-215l-146 518l-176 711h-30l-177 -711l-143 -518h-217l-399 1434h176l190 -686l144 -574l141 574l190 686h219l191 -686l143 -576l144 576z" />
    <glyph glyph-name="wacute" unicode="&#x1e83;" horiz-adv-x="1724" 
d="M1083 1616l-360 -313l-82 79l336 340zM1501 1126h170l-332 -1126h-204l-111 379l-145 571h-31l-146 -571l-112 -379h-205l-332 1126h170l105 -354l164 -596l161 596l105 354h209l104 -354l162 -594l164 594z" />
    <glyph glyph-name="Wdieresis" unicode="&#x1e84;" horiz-adv-x="2041" 
d="M788 1679q-47 0 -78.5 30.5t-31.5 76.5t31.5 76t78.5 30t79 -30t32 -76t-32 -76.5t-79 -30.5zM1251 1679q-46 0 -78 31t-32 76t32 75.5t78 30.5q48 0 80.5 -30.5t32.5 -75.5q0 -46 -33 -76.5t-80 -30.5zM1796 1434h176l-399 -1434h-215l-146 518l-176 711h-30l-177 -711
l-143 -518h-217l-399 1434h176l190 -686l144 -574l141 574l190 686h219l191 -686l143 -576l144 576z" />
    <glyph glyph-name="wdieresis" unicode="&#x1e85;" horiz-adv-x="1724" 
d="M631 1401q-47 0 -79 31t-32 77q0 45 32 76t79 31t78.5 -31t31.5 -76q0 -46 -31.5 -77t-78.5 -31zM1094 1401q-46 0 -78.5 31.5t-32.5 76.5q0 44 32.5 75.5t78.5 31.5q47 0 79.5 -31.5t32.5 -75.5q0 -46 -32.5 -77t-79.5 -31zM1501 1126h170l-332 -1126h-204l-111 379
l-145 571h-31l-146 -571l-112 -379h-205l-332 1126h170l105 -354l164 -596l161 596l105 354h209l104 -354l162 -594l164 594z" />
    <glyph glyph-name="Ygrave" unicode="&#x1ef2;" horiz-adv-x="1368" 
d="M905 1659l-84 -82l-358 315l104 105zM1300 1434l-530 -920v-514h-170v510l-530 924h192l422 -734l422 734h194z" />
    <glyph glyph-name="ygrave" unicode="&#x1ef3;" horiz-adv-x="1206" 
d="M823 1382l-84 -82l-358 314l104 106zM971 1126h182l-760 -1638h-182l299 649l-457 989h183l364 -807z" />
    <glyph glyph-name="uni2009" unicode="&#x2009;" horiz-adv-x="307" 
 />
    <glyph glyph-name="endash" unicode="&#x2013;" horiz-adv-x="1314" 
d="M1135 698v-161h-955v161h955z" />
    <glyph glyph-name="emdash" unicode="&#x2014;" horiz-adv-x="1546" 
d="M1368 698v-161h-1188v161h1188z" />
    <glyph glyph-name="quoteleft" unicode="&#x2018;" horiz-adv-x="651" 
d="M334 1100q37 -9 60.5 -38.5t23.5 -70.5q0 -52 -33.5 -84.5t-85.5 -32.5q-46 0 -82.5 28.5t-36.5 92.5q-1 21 5.5 48t46 125t118.5 266h121z" />
    <glyph glyph-name="quoteright" unicode="&#x2019;" horiz-adv-x="651" 
d="M471 1335q1 -21 -6 -49t-46 -123.5t-118 -265.5h-121l135 334q-38 9 -60 37.5t-22 70.5q0 52 33.5 84.5t85.5 32.5q45 0 81.5 -28.5t37.5 -92.5z" />
    <glyph glyph-name="quotesinglbase" unicode="&#x201a;" horiz-adv-x="651" 
d="M471 86q1 -20 -6 -48t-46.5 -124.5t-117.5 -265.5h-121l135 334q-37 9 -59.5 38t-22.5 70q0 52 33.5 84.5t85.5 32.5q45 0 81.5 -28.5t37.5 -92.5z" />
    <glyph glyph-name="quotedblleft" unicode="&#x201c;" horiz-adv-x="1042" 
d="M350 1434h121l-137 -334q37 -9 60.5 -38.5t23.5 -70.5q0 -52 -33.5 -84.5t-85.5 -32.5q-46 0 -82.5 28.5t-36.5 92.5q-1 21 5.5 48t46 125t118.5 266zM727 1100q36 -9 59 -39t23 -70q0 -52 -33.5 -84.5t-85.5 -32.5q-46 0 -82.5 28.5t-36.5 92.5q-1 21 5.5 48t46 125
t118.5 266h121z" />
    <glyph glyph-name="quotedblright" unicode="&#x201d;" horiz-adv-x="1042" 
d="M352 1456q45 0 81.5 -28.5t37.5 -92.5q1 -21 -6 -49t-46 -123.5t-118 -265.5h-121l135 334q-38 9 -60 37.5t-22 70.5q0 52 33.5 84.5t85.5 32.5zM862 1335q1 -22 -5.5 -49t-46 -123.5t-118.5 -265.5h-121l136 334q-36 9 -59 37.5t-23 70.5q0 52 33.5 84.5t84.5 32.5
q45 0 81.5 -28.5t37.5 -92.5z" />
    <glyph glyph-name="quotedblbase" unicode="&#x201e;" horiz-adv-x="1042" 
d="M352 207q45 0 81.5 -28.5t37.5 -92.5q1 -20 -6 -48t-46.5 -124.5t-117.5 -265.5h-121l135 334q-37 9 -59.5 38t-22.5 70q0 52 33.5 84.5t85.5 32.5zM862 86q1 -21 -5.5 -48t-46 -124.5t-118.5 -265.5h-121l136 334q-36 9 -59 38.5t-23 69.5q0 52 33.5 84.5t84.5 32.5
q45 0 81.5 -28.5t37.5 -92.5z" />
    <glyph glyph-name="dagger" unicode="&#x2020;" horiz-adv-x="1234" 
d="M702 1434v-433h353v-161h-353v-1047h-170v1047h-352v161h352v433h170z" />
    <glyph glyph-name="daggerdbl" unicode="&#x2021;" horiz-adv-x="1234" 
d="M702 1434v-390h353v-161h-353v-430h353v-162h-353v-498h-170v498h-352v162h352v430h-352v161h352v390h170z" />
    <glyph glyph-name="bullet" unicode="&#x2022;" horiz-adv-x="948" 
d="M475 874q125 0 210 -82.5t85 -205.5t-85 -206t-210 -83t-210 83t-85 206t85 205.5t210 82.5z" />
    <glyph glyph-name="ellipsis" unicode="&#x2026;" horiz-adv-x="1548" 
d="M299 207q51 0 85 -33t34 -82t-34 -82t-85 -33t-85 33t-34 82t34 82t85 33zM774 207q51 0 85 -33t34 -82t-34 -82t-85 -33t-85 33t-34 82t34 82t85 33zM1251 207q51 0 85 -33t34 -82t-34 -82t-85 -33t-84.5 32.5t-33.5 82.5t33.5 82.5t84.5 32.5z" />
    <glyph glyph-name="perthousand" unicode="&#x2030;" horiz-adv-x="3051" 
d="M553 594q-170 0 -271.5 111.5t-101.5 320.5q0 208 101.5 319t271.5 111t272.5 -111t102.5 -319q0 -209 -102.5 -320.5t-272.5 -111.5zM1585 1434l-819 -1434h-168l819 1434h168zM553 731q106 0 164.5 73t58.5 222t-58.5 222t-164.5 73t-164.5 -73t-58.5 -222t58.5 -222
t164.5 -73zM1628 840q170 0 272.5 -111.5t102.5 -320.5q0 -208 -102.5 -319.5t-272.5 -111.5q-169 0 -271 111.5t-102 319.5q0 209 101.5 320.5t271.5 111.5zM2497 840q170 0 272 -111.5t102 -320.5q0 -208 -102 -319.5t-272 -111.5q-169 0 -271 111.5t-102 319.5
q0 209 101.5 320.5t271.5 111.5zM1628 702q-106 0 -164.5 -72.5t-58.5 -221.5t58.5 -222t164.5 -73t164.5 73t58.5 222t-58.5 221.5t-164.5 72.5zM2497 702q-106 0 -165 -72.5t-59 -221.5t59 -222t165 -73q108 0 166.5 72.5t58.5 222.5t-58.5 222t-166.5 72z" />
    <glyph glyph-name="guilsinglleft" unicode="&#x2039;" horiz-adv-x="884" 
d="M588 164l-408 407l408 408l117 -117l-293 -291l293 -290z" />
    <glyph glyph-name="guilsinglright" unicode="&#x203a;" horiz-adv-x="884" 
d="M297 164l-117 117l291 290l-291 291l117 117l408 -408z" />
    <glyph glyph-name="fraction" unicode="&#x2044;" horiz-adv-x="387" 
d="M-299 0l819 1434h166l-819 -1434h-166z" />
    <glyph glyph-name="uni2070" unicode="&#x2070;" horiz-adv-x="894" 
d="M449 737q-170 0 -272.5 111.5t-102.5 320.5q0 208 102.5 319t272.5 111q169 0 270.5 -111t101.5 -319q0 -209 -101 -320.5t-271 -111.5zM449 874q106 0 164.5 73t58.5 222t-58.5 222t-164.5 73t-165 -73t-59 -222t59 -222t165 -73z" />
    <glyph glyph-name="uni2074" unicode="&#x2074;" horiz-adv-x="886" 
d="M813 1057v-123h-149v-172h-150v172h-440v123l401 520h189v-520h149zM203 1057h311v409z" />
    <glyph glyph-name="uni2075" unicode="&#x2075;" horiz-adv-x="831" 
d="M459 1303q128 0 213.5 -75t85.5 -200q0 -124 -87 -207.5t-241 -83.5q-144 0 -239 73.5t-117 195.5h151q15 -72 70.5 -113t130.5 -41q84 0 133 49t49 125q0 75 -47.5 125.5t-130.5 50.5q-109 0 -182 -90h-139l98 465h506v-119h-412l-49 -229q84 74 207 74z" />
    <glyph glyph-name="uni2076" unicode="&#x2076;" horiz-adv-x="808" 
d="M444 1298q132 0 211.5 -80t79.5 -192q0 -120 -87.5 -204.5t-239.5 -84.5q-156 0 -245 89t-89 214q0 68 37 144t83 135.5t161 196.5q33 40 51 61h159l-260 -305q62 26 139 26zM403 858q86 0 135.5 48.5t49.5 121.5t-48.5 120.5t-136.5 47.5q-82 0 -132 -47t-50 -121
q0 -72 48.5 -121t133.5 -49z" />
    <glyph glyph-name="uni2077" unicode="&#x2077;" horiz-adv-x="743" 
d="M74 1577h596v-100l-353 -715h-141l344 692h-446v123z" />
    <glyph glyph-name="uni2078" unicode="&#x2078;" horiz-adv-x="837" 
d="M608 1190q67 -23 111.5 -78t44.5 -131q0 -108 -88.5 -176t-255.5 -68t-256.5 68t-89.5 176q0 76 44 131t111 78q-129 57 -129 180q0 102 86 165.5t234 63.5q147 0 232 -63.5t85 -165.5q0 -123 -129 -180zM420 1485q-76 0 -122 -35t-46 -94t44.5 -93t123.5 -34
q78 0 122 34t44 93t-46 94t-120 35zM420 852q93 0 143.5 38t50.5 103q0 63 -49 98t-145 35q-97 0 -146 -35t-49 -98q0 -65 51 -103t144 -38z" />
    <glyph glyph-name="uni2079" unicode="&#x2079;" horiz-adv-x="808" 
d="M403 1599q155 0 243.5 -89t88.5 -212q0 -70 -39 -149t-87.5 -141t-172.5 -207l-33 -39h-157l258 303q-73 -27 -139 -27q-131 0 -211 80.5t-80 192.5q0 120 87.5 204t241.5 84zM406 1143q83 0 132.5 46t49.5 120t-48.5 123t-133.5 49q-86 0 -135.5 -49t-49.5 -123
q0 -72 48.5 -119t136.5 -47z" />
    <glyph glyph-name="Euro" unicode="&#x20ac;" horiz-adv-x="1843" 
d="M1073 139q168 0 300.5 85.5t197.5 232.5h184q-74 -219 -257 -349.5t-423 -130.5q-259 0 -452 145t-258 382h-267v133h242q-4 54 -4 80q0 24 4 78h-242v131h267q64 238 257 384t453 146q240 0 423 -130.5t257 -348.5h-184q-65 146 -197.5 231.5t-300.5 85.5
q-185 0 -327 -100t-203 -268h614v-131h-645q-4 -50 -4 -78q0 -39 6 -80h643v-133h-612q61 -165 202 -265t326 -100z" />
    <glyph glyph-name="uni2116" unicode="&#x2116;" horiz-adv-x="2551" 
d="M1950 618q-177 0 -299.5 121.5t-122.5 296.5q0 177 122.5 298.5t299.5 121.5q175 0 298.5 -122t123.5 -298q0 -177 -122.5 -297.5t-299.5 -120.5zM1184 834v600h172v-1434h-211l-809 1206l14 -606v-600h-170v1434h211l807 -1207zM1950 1313q-115 0 -195 -80.5t-80 -196.5
t80 -196t195 -80t194.5 80t79.5 196t-79.5 196.5t-194.5 80.5zM1552 336v131h797v-131h-797zM1552 0v133h797v-133h-797z" />
    <glyph glyph-name="trademark" unicode="&#x2122;" horiz-adv-x="1693" 
d="M180 1475v102h520v-102h-204v-525h-111v525h-205zM1389 1577h124v-627h-108v482l-231 -318h-7l-233 318v-482h-111v627h127l219 -299z" />
    <glyph glyph-name="oneeighth" unicode="&#x215b;" horiz-adv-x="1863" 
d="M477 618h-149v658l-254 -90v137l325 111h78v-816zM1157 1434h166l-819 -1434h-166zM1630 430q69 -23 113.5 -78t44.5 -131q0 -109 -88.5 -176.5t-255.5 -67.5t-256.5 67.5t-89.5 176.5q0 76 44.5 131t112.5 78q-131 53 -131 178q0 102 86 167t234 65q146 0 231.5 -65
t85.5 -167q0 -125 -131 -178zM1444 725q-75 0 -121.5 -35.5t-46.5 -95.5q0 -58 44.5 -92.5t123.5 -34.5q77 0 121.5 34.5t44.5 92.5q0 60 -46 95.5t-120 35.5zM1444 92q93 0 143.5 37t50.5 102q0 63 -49 99.5t-145 36.5q-97 0 -146 -36t-49 -100q0 -65 51 -102t144 -37z" />
    <glyph glyph-name="threeeighths" unicode="&#x215c;" horiz-adv-x="2070" 
d="M772 848q0 -106 -86 -180t-244 -74q-152 0 -250.5 72.5t-117.5 201.5h151q17 -79 73 -119t138 -40q88 0 136.5 40t48.5 107q0 63 -35 97t-94 34h-154v103h113q59 0 101 30t42 88q0 61 -44.5 97t-121.5 36q-75 0 -125 -38.5t-61 -118.5h-152q13 127 106 199.5t236 72.5
q146 0 228.5 -71t82.5 -175q0 -101 -104 -155q61 -27 97 -80.5t36 -126.5zM1366 1434h166l-819 -1434h-166zM1839 430q69 -23 113.5 -78t44.5 -131q0 -109 -88.5 -176.5t-255.5 -67.5t-256.5 67.5t-89.5 176.5q0 76 44.5 131t112.5 78q-131 53 -131 178q0 102 86 167t234 65
q146 0 231.5 -65t85.5 -167q0 -125 -131 -178zM1653 725q-75 0 -121.5 -35.5t-46.5 -95.5q0 -58 44.5 -92.5t123.5 -34.5q77 0 121.5 34.5t44.5 92.5q0 60 -46 95.5t-120 35.5zM1653 92q93 0 143.5 37t50.5 102q0 63 -49 99.5t-145 36.5q-97 0 -146 -36t-49 -100
q0 -65 51 -102t144 -37z" />
    <glyph glyph-name="fiveeighths" unicode="&#x215d;" horiz-adv-x="2056" 
d="M758 885q0 -124 -87 -207.5t-241 -83.5q-144 0 -239 73t-117 195h151q15 -72 70.5 -112.5t130.5 -40.5q84 0 133 49t49 125q0 75 -47.5 125.5t-130.5 50.5q-109 0 -182 -90h-139l98 465h506v-119h-412l-49 -230q84 74 207 74q128 0 213.5 -75t85.5 -199zM1352 1434h166
l-820 -1434h-166zM1825 430q68 -23 112.5 -78t44.5 -131q0 -109 -88.5 -176.5t-255.5 -67.5t-256.5 67.5t-89.5 176.5q0 76 44.5 131t113.5 78q-131 53 -131 178q0 102 85.5 167t233.5 65q146 0 232 -65t86 -167q0 -125 -131 -178zM1638 725q-75 0 -121.5 -35.5t-46.5 -95.5
q0 -58 44.5 -92.5t123.5 -34.5q77 0 121.5 34.5t44.5 92.5q0 60 -46 95.5t-120 35.5zM1638 92q93 0 144 37t51 102q0 63 -49.5 99.5t-145.5 36.5q-97 0 -145.5 -36t-48.5 -100q0 -65 50.5 -102t143.5 -37z" />
    <glyph glyph-name="seveneighths" unicode="&#x215e;" horiz-adv-x="1835" 
d="M317 618h-141l344 693h-446v123h596v-101zM1128 1434h166l-819 -1434h-166zM1604 430q68 -23 112.5 -78t44.5 -131q0 -109 -88.5 -176.5t-255.5 -67.5t-256.5 67.5t-89.5 176.5q0 76 44.5 131t113.5 78q-131 53 -131 178q0 102 85.5 167t233.5 65q146 0 232 -65t86 -167
q0 -125 -131 -178zM1417 725q-75 0 -121.5 -35.5t-46.5 -95.5q0 -58 44.5 -92.5t123.5 -34.5q77 0 121.5 34.5t44.5 92.5q0 60 -46 95.5t-120 35.5zM1417 92q93 0 144 37t51 102q0 63 -49.5 99.5t-145.5 36.5q-97 0 -145.5 -36t-48.5 -100q0 -65 50.5 -102t143.5 -37z" />
    <glyph glyph-name="arrowleft" unicode="&#x2190;" horiz-adv-x="1900" 
d="M666 268l-486 488l486 487l120 -121l-290 -280h1224v-172h-1222l286 -281z" />
    <glyph glyph-name="arrowup" unicode="&#x2191;" horiz-adv-x="1333" 
d="M580 0v1139l-281 -287l-119 119l486 485l487 -485l-119 -121l-282 291v-1141h-172z" />
    <glyph glyph-name="arrowright" unicode="&#x2192;" horiz-adv-x="1900" 
d="M1235 254l-119 121l289 280h-1225v172h1223l-287 281l119 119l485 -486z" />
    <glyph glyph-name="arrowdown" unicode="&#x2193;" horiz-adv-x="1333" 
d="M668 -18l-488 487l119 119l283 -289v1225h170v-1225l282 289l119 -119z" />
    <glyph glyph-name="arrowboth" unicode="&#x2194;" horiz-adv-x="2340" 
d="M1675 268l-119 121l287 281h-1345l286 -281l-118 -121l-486 488l486 487l120 -121l-290 -280h1349l-291 280l121 121l486 -487z" />
    <glyph glyph-name="arrowupdn" unicode="&#x2195;" horiz-adv-x="1333" 
d="M668 -180l-488 485l119 121l283 -289v1157l-283 -290l-119 118l488 488l485 -488l-119 -118l-282 288v-1155l282 287l119 -119z" />
    <glyph glyph-name="uni2196" unicode="&#x2196;" horiz-adv-x="1509" 
d="M1208 166l-864 866l4 -403h-168v686l688 2v-170l-405 6l866 -866z" />
    <glyph glyph-name="uni2197" unicode="&#x2197;" horiz-adv-x="1511" 
d="M299 141l-119 121l867 866l-404 -6v168h686l2 -688h-170l6 406z" />
    <glyph glyph-name="uni2198" unicode="&#x2198;" horiz-adv-x="1509" 
d="M641 195v170l406 -7l-867 869l121 121l864 -867l-4 402l168 2v-688z" />
    <glyph glyph-name="uni2199" unicode="&#x2199;" horiz-adv-x="1511" 
d="M180 184v688h170l-6 -405l866 866l121 -121l-866 -866l403 6v-168h-688z" />
    <glyph glyph-name="partialdiff" unicode="&#x2202;" horiz-adv-x="1413" 
d="M836 1456q128 0 212 -50t133 -160.5t50.5 -286.5t-35.5 -429q-43 -260 -198.5 -406.5t-387.5 -146.5q-221 0 -341 149.5t-83 381.5q35 220 180.5 338.5t344.5 118.5q74 0 139.5 -18.5t123 -64.5t87.5 -114q9 105 8 186t-17.5 140.5t-39.5 100t-58 65t-74 35t-87 10.5
q-171 0 -361 -93l-31 138q209 106 435 106zM1018 498q14 88 -13 163t-97 122.5t-171 47.5q-149 0 -252 -87t-127 -246q-25 -160 50.5 -259.5t226.5 -99.5q148 0 252.5 99t130.5 260z" />
    <glyph glyph-name="emptyset" unicode="&#x2205;" horiz-adv-x="1673" 
d="M1493 1137l-203 -203q127 -156 127 -371q0 -166 -77 -300.5t-209.5 -210t-292.5 -75.5q-216 0 -373 132l-203 -203l-82 84l203 203q-127 156 -127 370q0 124 46.5 233.5t125 186.5t185.5 121.5t225 44.5q214 0 370 -131l203 203zM428 563q0 -138 74 -250l590 588
q-109 86 -254 86q-173 0 -291.5 -119.5t-118.5 -304.5zM1245 563q0 143 -74 250l-587 -588q109 -86 254 -86q172 0 289.5 120t117.5 304z" />
    <glyph glyph-name="product" unicode="&#x220f;" horiz-adv-x="1722" 
d="M1542 1434v-162h-196v-1272h-170v1272h-629v-1272h-170v1272h-197v162h1362z" />
    <glyph glyph-name="summation" unicode="&#x2211;" horiz-adv-x="1316" 
d="M1139 1434v-162h-721l500 -531v-49l-500 -530h721v-162h-959v156l529 561l-529 563v154h959z" />
    <glyph glyph-name="minus" unicode="&#x2212;" horiz-adv-x="1386" 
d="M1206 698v-161h-1026v161h1026z" />
    <glyph glyph-name="radical" unicode="&#x221a;" horiz-adv-x="1714" 
d="M1358 1434h176l-535 -1434h-211l-362 965h-246v161h367l348 -933z" />
    <glyph glyph-name="infinity" unicode="&#x221e;" horiz-adv-x="1839" 
d="M1305 934q155 0 254.5 -102t99.5 -259q0 -158 -100 -258t-256 -100q-213 0 -383 236q-169 -236 -383 -236q-158 0 -257.5 100.5t-99.5 257.5q0 158 99.5 259.5t252.5 101.5q215 0 388 -236q171 233 385 236zM535 354q97 0 167 56.5t136 162.5q-35 52 -64 87.5t-66.5 68.5
t-81.5 49.5t-94 16.5q-93 0 -150.5 -61.5t-57.5 -160.5q0 -98 57.5 -158.5t153.5 -60.5zM1305 354q94 0 151 60.5t57 158.5q0 99 -56 160.5t-152 61.5q-50 -1 -93 -17.5t-80 -49t-66 -68.5t-62 -87q34 -52 63 -87.5t66 -68t79.5 -48t92.5 -15.5z" />
    <glyph glyph-name="integral" unicode="&#x222b;" horiz-adv-x="1521" 
d="M1067 1599q135 0 204.5 -76t69.5 -210h-122q0 57 -34 96t-106 39q-84 0 -121 -57.5t-47 -169.5l-131 -1364q-32 -392 -327 -392q-135 0 -204 76.5t-69 210.5h123q0 -58 32.5 -96.5t104.5 -38.5q84 0 121 57t49 170l129 1364q36 391 328 391z" />
    <glyph glyph-name="approxequal" unicode="&#x2248;" horiz-adv-x="1273" 
d="M866 670q-41 0 -85 16t-66.5 30.5t-76.5 51.5q-10 7 -15 10q-14 10 -50.5 35.5t-51.5 34.5t-41 19t-50 10q-60 0 -91.5 -48t-31.5 -133h-127q0 150 61 229t167 79q14 0 28 -2t25 -3.5t26 -7.5t23 -8.5t24.5 -12t22 -12t24 -15t22.5 -15t24.5 -17t23.5 -16.5
q17 -11 51.5 -35.5t50.5 -34t41.5 -19t49.5 -9.5q62 0 92.5 47t30.5 133h129q0 -150 -61.5 -228.5t-168.5 -78.5zM866 283q-41 0 -85 16t-66.5 30.5t-76.5 51.5q-10 7 -15 10q-16 10 -51 34.5t-50.5 33.5t-41.5 18.5t-50 9.5q-61 0 -92 -46.5t-31 -131.5h-127
q0 150 61 227.5t167 77.5q41 0 85 -16t66.5 -30.5t76.5 -51.5q10 -7 15 -10q19 -12 52 -34.5t49.5 -33t42 -19.5t49.5 -9q123 0 123 178h129q0 -150 -61.5 -227.5t-168.5 -77.5z" />
    <glyph glyph-name="notequal" unicode="&#x2260;" horiz-adv-x="1386" 
d="M942 1243l-92 -344h356v-158h-397l-64 -237h461v-158h-501l-93 -346h-172l92 346h-352v158h393l64 237h-457v158h498l90 344h174z" />
    <glyph glyph-name="lessequal" unicode="&#x2264;" horiz-adv-x="1386" 
d="M1206 1053v-144l-731 -168l731 -170v-143l-1026 252v121zM1206 295v-133h-1026v133h1026z" />
    <glyph glyph-name="greaterequal" unicode="&#x2265;" horiz-adv-x="1386" 
d="M180 1053l1026 -252v-121l-1026 -252v143l731 170l-731 168v144zM1206 295v-133h-1026v133h1026z" />
    <glyph glyph-name="lozenge" unicode="&#x25ca;" horiz-adv-x="1607" 
d="M805 1225l622 -623l-622 -625l-625 625zM805 987l-385 -385l385 -385l385 385z" />
    <glyph glyph-name="A.001" horiz-adv-x="1505" 
d="M1255 0l-170 430h-665l-170 -430h-180l573 1434h219l574 -1434h-181zM485 592h537l-268 680z" />
    <glyph glyph-name="zero.subs" horiz-adv-x="894" 
d="M449 737q-170 0 -272.5 111.5t-102.5 320.5q0 208 102.5 319t272.5 111q169 0 270.5 -111t101.5 -319q0 -209 -101 -320.5t-271 -111.5zM449 874q106 0 164.5 73t58.5 222t-58.5 222t-164.5 73t-165 -73t-59 -222t59 -222t165 -73z" />
    <glyph glyph-name="one.subs" horiz-adv-x="550" 
d="M399 1577h78v-815h-149v657l-254 -90v137z" />
    <glyph glyph-name="two.subs" horiz-adv-x="851" 
d="M285 885h493v-123h-704v106l297 224q134 100 177.5 148.5t43.5 107.5q0 61 -43.5 99t-118.5 38q-169 0 -192 -178h-150q14 134 104 213t242 79q147 0 228 -75t81 -181q0 -92 -64 -163.5t-212 -169.5z" />
    <glyph glyph-name="three.subs" horiz-adv-x="845" 
d="M639 1198q59 -26 96 -80.5t37 -126.5q0 -106 -86 -180t-244 -74q-152 0 -250.5 73t-117.5 202h151q17 -79 73 -119.5t138 -40.5q88 0 136.5 40t48.5 107q0 63 -35 97t-94 34h-154v103h113q59 0 101 30.5t42 88.5q0 61 -44.5 97t-121.5 36q-74 0 -124.5 -39t-61.5 -119
h-152q13 127 106 199.5t236 72.5q146 0 228.5 -70.5t82.5 -174.5q0 -102 -104 -156z" />
    <glyph glyph-name="four.subs" horiz-adv-x="886" 
d="M813 1057v-123h-149v-172h-150v172h-440v123l401 520h189v-520h149zM203 1057h311v407z" />
    <glyph glyph-name="five.subs" horiz-adv-x="831" 
d="M459 1303q128 0 213.5 -75t85.5 -200q0 -124 -87 -207.5t-241 -83.5q-144 0 -239 73.5t-117 195.5h151q15 -72 70.5 -113t130.5 -41q84 0 133 49t49 125q0 75 -47.5 125.5t-130.5 50.5q-109 0 -182 -90h-139l98 465h506v-119h-414l-47 -229q88 74 207 74z" />
    <glyph glyph-name="six.subs" horiz-adv-x="808" 
d="M444 1298q132 0 211.5 -80t79.5 -192q0 -120 -87.5 -204.5t-239.5 -84.5q-156 0 -245 89t-89 214q0 68 37 144t83 135.5t161 196.5q33 40 51 61h159l-262 -305q73 26 141 26zM403 858q86 0 135.5 48.5t49.5 121.5t-48.5 120.5t-136.5 47.5q-82 0 -132 -47t-50 -121
q0 -72 48.5 -121t133.5 -49z" />
    <glyph glyph-name="seven.subs" horiz-adv-x="743" 
d="M74 1577h596v-100l-353 -715h-141l344 692h-446v123z" />
    <glyph glyph-name="eight.subs" horiz-adv-x="837" 
d="M606 1192q67 -23 112.5 -79t45.5 -132q0 -108 -88.5 -176t-255.5 -68t-256.5 68t-89.5 176q0 76 44.5 132t112.5 79q-131 53 -131 178q0 102 86 165.5t234 63.5q147 0 232 -63.5t85 -165.5q0 -125 -131 -178zM420 1485q-76 0 -122 -35t-46 -94t44.5 -93t123.5 -34
q78 0 122 34t44 93t-46 94t-120 35zM420 852q93 0 143.5 38t50.5 103q0 63 -49 98t-145 35q-97 0 -146 -35t-49 -98q0 -65 51 -103t144 -38z" />
    <glyph glyph-name="nine.subs" horiz-adv-x="808" 
d="M403 1599q155 0 243.5 -89t88.5 -212q0 -70 -39 -149t-87.5 -141t-172.5 -207l-33 -39h-157l256 303q-69 -27 -137 -27q-131 0 -211 80.5t-80 192.5q0 120 87.5 204t241.5 84zM406 1143q83 0 132.5 46t49.5 120t-48.5 123t-133.5 49q-86 0 -135.5 -49t-49.5 -123
q0 -72 48.5 -119t136.5 -47z" />
    <glyph glyph-name="zero.dnom" horiz-adv-x="894" 
d="M449 -23q-170 0 -272.5 111.5t-102.5 319.5q0 209 102.5 320.5t272.5 111.5t271 -111.5t101 -320.5q0 -208 -101.5 -319.5t-270.5 -111.5zM449 113q106 0 164.5 73t58.5 222t-58.5 221.5t-164.5 72.5t-165 -72.5t-59 -221.5t59 -222t165 -73z" />
    <glyph glyph-name="one.dnom" horiz-adv-x="550" 
d="M399 815h78v-815h-149v657l-254 -90v138z" />
    <glyph glyph-name="two.dnom" horiz-adv-x="851" 
d="M283 123h495v-123h-704v109l297 223q134 99 177.5 147t43.5 109q0 60 -43.5 98.5t-118.5 38.5q-169 0 -192 -180h-150q14 134 104 214.5t242 80.5q147 0 228 -76t81 -182q0 -92 -64 -164t-212 -170z" />
    <glyph glyph-name="three.dnom" horiz-adv-x="845" 
d="M639 436q60 -26 96.5 -79.5t36.5 -125.5q0 -107 -85.5 -180.5t-244.5 -73.5q-152 0 -250.5 72.5t-117.5 200.5h151q17 -77 73 -117.5t138 -40.5q88 0 136.5 39.5t48.5 106.5q0 63 -35 97t-94 34h-154v102h113q59 0 101 31t42 88q0 62 -45 98.5t-121 36.5q-74 0 -124 -40
t-62 -120h-152q13 128 106.5 201.5t235.5 73.5q146 0 228.5 -72t82.5 -176q0 -102 -104 -156z" />
    <glyph glyph-name="four.dnom" horiz-adv-x="886" 
d="M813 297v-123h-149v-174h-150v174h-440v123l401 518h189v-518h149zM203 297h311v408z" />
    <glyph glyph-name="five.dnom" horiz-adv-x="831" 
d="M459 541q128 0 213.5 -74.5t85.5 -200.5q0 -124 -87 -206.5t-241 -82.5q-145 0 -239.5 73t-116.5 196h151q15 -73 70 -113.5t131 -40.5q84 0 133 48.5t49 123.5t-47.5 125.5t-130.5 50.5q-109 0 -182 -90h-139l98 465h506v-119h-412l-49 -227q85 72 207 72z" />
    <glyph glyph-name="six.dnom" horiz-adv-x="808" 
d="M444 539q131 0 211 -81t80 -194q0 -119 -87 -203t-240 -84q-156 0 -245 89t-89 213q0 52 16 101.5t58.5 112.5t85.5 116.5t127 152.5q30 35 45 53h159l-260 -303q73 27 139 27zM403 96q86 0 135.5 48.5t49.5 121.5t-48.5 120.5t-136.5 47.5q-83 0 -132.5 -46t-49.5 -120
t48.5 -123t133.5 -49z" />
    <glyph glyph-name="seven.dnom" horiz-adv-x="743" 
d="M74 815h596v-100l-353 -715h-141l344 692h-446v123z" />
    <glyph glyph-name="eight.dnom" horiz-adv-x="837" 
d="M608 430q67 -23 111.5 -78t44.5 -131q0 -109 -88.5 -176.5t-255.5 -67.5t-256.5 67.5t-89.5 176.5q0 76 44 131t111 78q-57 24 -93 69t-36 109q0 102 86 167t234 65q146 0 231.5 -65t85.5 -167q0 -64 -36 -109t-93 -69zM420 725q-75 0 -121.5 -35.5t-46.5 -95.5
q0 -58 44.5 -92.5t123.5 -34.5q77 0 121.5 34.5t44.5 92.5q0 60 -46 95.5t-120 35.5zM420 92q93 0 143.5 37t50.5 102q0 63 -49 99.5t-145 36.5q-97 0 -146 -36t-49 -100q0 -65 51 -102t144 -37z" />
    <glyph glyph-name="nine.dnom" horiz-adv-x="808" 
d="M403 840q155 0 243.5 -89t88.5 -214q0 -43 -12.5 -85.5t-33.5 -82.5t-60 -92.5t-80 -102.5t-106 -127q-26 -31 -40 -47h-157l258 305q-62 -26 -139 -26q-132 0 -211.5 79.5t-79.5 192.5q0 118 88 203.5t241 85.5zM406 381q82 0 132 47t50 121q0 72 -48.5 121t-133.5 49
q-86 0 -135.5 -49t-49.5 -121q0 -73 48.5 -120.5t136.5 -47.5z" />
    <glyph glyph-name="zero.numr" horiz-adv-x="894" 
d="M449 594q-170 0 -272.5 111.5t-102.5 320.5q0 208 102.5 319t272.5 111q169 0 270.5 -111t101.5 -319q0 -209 -101 -320.5t-271 -111.5zM449 731q106 0 164.5 73t58.5 222t-58.5 222t-164.5 73t-165 -73t-59 -222t59 -222t165 -73z" />
    <glyph glyph-name="one.numr" horiz-adv-x="550" 
d="M399 1434h78v-816h-149v658l-254 -90v137z" />
    <glyph glyph-name="two.numr" horiz-adv-x="851" 
d="M283 741h495v-123h-704v107l297 223q134 100 177.5 148.5t43.5 107.5q0 61 -43.5 99t-118.5 38q-169 0 -192 -178h-150q14 134 104 213.5t242 79.5q147 0 228 -75t81 -181q0 -92 -64 -164t-212 -170z" />
    <glyph glyph-name="three.numr" horiz-adv-x="845" 
d="M639 1055q61 -27 97 -80.5t36 -126.5q0 -106 -86 -180t-244 -74q-152 0 -250.5 72.5t-117.5 201.5h151q17 -79 73 -119t138 -40q88 0 136.5 40t48.5 107q0 63 -35 97t-94 34h-154v103h113q59 0 101 30t42 88q0 61 -44.5 97t-121.5 36q-75 0 -125 -38.5t-61 -118.5h-152
q13 127 106 199.5t236 72.5q146 0 228.5 -71t82.5 -175q0 -101 -104 -155z" />
    <glyph glyph-name="four.numr" horiz-adv-x="886" 
d="M813 913v-122h-149v-173h-150v173h-440v122l401 521h189v-521h149zM203 913h311v410z" />
    <glyph glyph-name="five.numr" horiz-adv-x="831" 
d="M459 1159q128 0 213.5 -75t85.5 -199t-87 -207.5t-241 -83.5q-144 0 -239 73t-117 195h151q15 -72 70.5 -112.5t130.5 -40.5q84 0 133 49t49 125q0 75 -47.5 125.5t-130.5 50.5q-109 0 -182 -90h-139l98 465h506v-119h-412l-49 -230q84 74 207 74z" />
    <glyph glyph-name="six.numr" horiz-adv-x="808" 
d="M444 1155q132 0 211.5 -80t79.5 -192q0 -120 -87.5 -204.5t-239.5 -84.5q-156 0 -245 89t-89 214q0 68 37 144t83 135.5t161 196.5q33 40 51 61h159l-260 -306q64 27 139 27zM403 715q86 0 135.5 48.5t49.5 121.5t-48.5 120.5t-136.5 47.5q-82 0 -132 -47t-50 -121
q0 -72 48.5 -121t133.5 -49z" />
    <glyph glyph-name="seven.numr" horiz-adv-x="743" 
d="M74 1434h596v-101l-353 -715h-141l344 693h-446v123z" />
    <glyph glyph-name="eight.numr" horiz-adv-x="837" 
d="M608 1047q67 -23 111.5 -78t44.5 -131q0 -108 -88.5 -176t-255.5 -68t-256.5 68t-89.5 176q0 76 44 131t111 78q-129 57 -129 180q0 102 86 165.5t234 63.5q147 0 232 -63.5t85 -165.5q0 -123 -129 -180zM420 1341q-76 0 -122 -35t-46 -94t44.5 -93t123.5 -34
q78 0 122 34t44 93t-46 94t-120 35zM420 709q93 0 143.5 38t50.5 103q0 63 -49 98t-145 35q-97 0 -146 -35t-49 -98q0 -65 51 -103t144 -38z" />
    <glyph glyph-name="nine.numr" horiz-adv-x="808" 
d="M403 1456q155 0 243.5 -89t88.5 -212q0 -54 -16.5 -104t-61.5 -116.5t-89.5 -121.5t-134.5 -160q-20 -23 -30 -35h-157l258 304q-73 -27 -139 -27q-132 0 -211.5 80t-79.5 192q0 120 87.5 204.5t241.5 84.5zM406 999q83 0 132.5 46t49.5 120t-48.5 123t-133.5 49
q-86 0 -135.5 -49t-49.5 -123q0 -72 48.5 -119t136.5 -47z" />
    <glyph glyph-name="uni0308.case" 
d="M-756 1892q47 0 79 -30t32 -76t-32 -76.5t-79 -30.5t-78.5 30.5t-31.5 76.5t31.5 76t78.5 30zM-293 1892q48 0 80.5 -30.5t32.5 -75.5q0 -46 -33 -76.5t-80 -30.5q-46 0 -78 31t-32 76t32 75.5t78 30.5z" />
    <glyph glyph-name="uni0307.case" 
d="M-289 1892q47 0 79 -30t32 -76t-32 -76.5t-79 -30.5t-78.5 30.5t-31.5 76.5t31.5 76t78.5 30z" />
    <glyph glyph-name="gravecomb.case" 
d="M-518 1997l338 -338l-84 -82l-359 315z" />
    <glyph glyph-name="acutecomb.case" 
d="M-287 1997l107 -105l-361 -315l-82 82z" />
    <glyph glyph-name="uni030B.case" 
d="M-537 2013l111 -55l-233 -381l-84 43zM-291 2013l111 -55l-232 -381l-86 43z" />
    <glyph glyph-name="uni0302.case" 
d="M-180 1671l-96 -94l-242 250l-242 -250l-94 94l336 340z" />
    <glyph glyph-name="uni030C.case" 
d="M-180 1917l-338 -336l-336 336l94 96l242 -250l242 250z" />
    <glyph glyph-name="uni0306.case" 
d="M-174 1948v-37q0 -141 -95.5 -226.5t-234.5 -85.5t-233 85.5t-94 226.5v37h139v-31q0 -84 51.5 -133t136.5 -49q87 0 139 49t52 133v31h139z" />
    <glyph glyph-name="uni030A.case" 
d="M-428 2073q105 0 177 -72t71 -176q1 -102 -72 -175t-176 -73t-175.5 72.5t-72.5 175.5q0 104 72 176t176 72zM-428 1968q-59 0 -100 -41t-41 -102t41 -102.5t100 -41.5t100 41.5t41 102.5t-41 102t-100 41z" />
    <glyph glyph-name="tildecomb.case" 
d="M-291 1903h111q0 -295 -195 -295q-48 0 -82.5 20t-93.5 74q-3 3 -15.5 14.5t-15.5 14.5t-14 12t-15 12t-13.5 9.5t-15.5 8.5t-14.5 5.5t-16.5 4.5t-17 1q-88 0 -88 -158h-111q0 293 195 293q46 0 81 -19.5t95 -72.5q3 -3 15.5 -14.5t15.5 -14.5t14 -12t15 -12t13.5 -9.5
t15.5 -8.5t14.5 -5.5t16.5 -4.5t17 -1q47 0 67.5 40t20.5 118z" />
    <glyph glyph-name="uni0304.case" 
d="M-180 1851v-127h-512v127h512z" />
    <glyph glyph-name="uni0327.case" 
d="M-383 -166q85 -12 144 -57t59 -127q0 -90 -76.5 -137.5t-204.5 -47.5q-81 0 -121 9v94q45 -10 105 -10q75 0 118.5 25.5t43.5 74.5q0 104 -207 115l96 227h123z" />
    <glyph glyph-name="uni0328.case" 
d="M-180 -526q-40 -9 -119 -9q-109 0 -175.5 48t-66.5 141q0 35 13.5 71.5t28.5 62t55.5 69t62.5 65t82 78.5h119q-131 -138 -178.5 -202.5t-47.5 -123.5q0 -106 132 -106q54 0 94 10v-104z" />
    <glyph glyph-name="newGlyph" horiz-adv-x="1228" 
 />
    <glyph glyph-name="Bitcoinsymbol" horiz-adv-x="1343" 
d="M1253 397q0 -152 -80.5 -251.5t-236.5 -131.5v-270h-154v256h-282v-256h-154v256h-166v1434h166v254h154v-254h272h10v254h154v-273q135 -32 203.5 -120.5t68.5 -225.5q0 -229 -204 -311q123 -36 186 -130t63 -231zM1036 1044q0 112 -65.5 170t-216.5 58h-404v-457h398
q156 0 222 58t66 171zM780 162q162 0 231.5 65t69.5 183q0 122 -70.5 185.5t-232.5 63.5h-428v-497h430z" />
    </font>
</defs>
</svg>
