<?xml version="1.0" standalone="no"?>
<!DOCTYPE svg PUBLIC "-//W3C//DTD SVG 1.1//EN" "http://www.w3.org/Graphics/SVG/1.1/DTD/svg11.dtd" >
<svg xmlns="http://www.w3.org/2000/svg" xmlns:xlink="http://www.w3.org/1999/xlink" version="1.1">
<metadata>
Created by FontForge 20201107 at Thu Nov 27 15:56:33 2025
 By 
Copyright (c) 2015 by Mariya Pigoulevskaya. All rights reserved.
</metadata>
<defs>
<font id="Stolzl-Thin" horiz-adv-x="0" >
  <font-face 
    font-family="Stolzl Thin"
    font-weight="250"
    font-stretch="normal"
    units-per-em="2048"
    panose-1="0 0 3 0 0 0 0 0 0 0"
    ascent="1638"
    descent="-410"
    x-height="1126"
    cap-height="1434"
    bbox="-1063 -535 2736 2099"
    underline-thickness="102"
    underline-position="-204"
    unicode-range="U+0020-25CA"
  />
<missing-glyph horiz-adv-x="1044" 
d="M856 1577v-2089h-661v2089h661zM696 1438h-346v-70h137v-78h-139v-67h348v67h-139v78h139v70zM557 1167h-209v-217h348v72h-139v145zM487 1096v-74h-69v74h69zM696 893h-348v-68h139v-77h-139v-70h209v147h139v68zM696 768h-69v-137h-279v-72h348v209zM696 514h-209v-117
h70v47h70v-98h-209v168h-70v-235h348v235zM696 152h-348v-236h348v236zM627 84v-98h-209v98h209zM696 -131h-348v-70h148l-148 -98v-70h348v70h-213l146 98h67v70z" />
    <glyph glyph-name=".notdef" horiz-adv-x="1044" 
d="M856 1577v-2089h-661v2089h661zM696 1438h-346v-70h137v-78h-139v-67h348v67h-139v78h139v70zM557 1167h-209v-217h348v72h-139v145zM487 1096v-74h-69v74h69zM696 893h-348v-68h139v-77h-139v-70h209v147h139v68zM696 768h-69v-137h-279v-72h348v209zM696 514h-209v-117
h70v47h70v-98h-209v168h-70v-235h348v235zM696 152h-348v-236h348v236zM627 84v-98h-209v98h209zM696 -131h-348v-70h148l-148 -98v-70h348v70h-213l146 98h67v70z" />
    <glyph glyph-name=".null" 
 />
    <glyph glyph-name="nonmarkingreturn" horiz-adv-x="682" 
 />
    <glyph glyph-name="space" unicode=" " horiz-adv-x="614" 
 />
    <glyph glyph-name="exclam" unicode="!" horiz-adv-x="520" 
d="M287 1434v-639l-4 -428h-43l-4 428v639h51zM260 92q23 0 39 -16t16 -39t-16 -40t-39 -17t-39 17t-16 40t16 39t39 16z" />
    <glyph glyph-name="quotedbl" unicode="&#x22;" horiz-adv-x="741" 
d="M211 772l-6 383v279h47v-279l-6 -383h-35zM496 772l-7 383v279h48v-279l-7 -383h-34z" />
    <glyph glyph-name="numbersign" unicode="#" horiz-adv-x="1796" 
d="M1579 1036h-338l-115 -438h338l-12 -45h-338l-145 -553h-47l145 553h-479l-146 -553h-47l146 553h-336l12 45h336l115 438h-336l12 45h336l131 496h47l-131 -496h479l131 496h47l-131 -496h338zM1079 598l115 438h-479l-115 -438h479z" />
    <glyph glyph-name="dollar" unicode="$" horiz-adv-x="1300" 
d="M686 748q114 -26 172 -41t135.5 -45.5t114 -65t63.5 -90t27 -129.5q0 -188 -138 -292.5t-366 -104.5h-20v-234h-47v236q-221 15 -353.5 124.5t-171.5 294.5h48q45 -183 182 -279.5t358 -96.5q210 0 335.5 92t125.5 258q0 35 -6.5 64t-17 53t-31 45t-41 37t-54.5 31.5
t-63.5 27t-76.5 24.5t-85.5 22.5t-97.5 22.5q-117 27 -191.5 48t-146.5 52t-111 66.5t-62.5 86.5t-23.5 118q0 178 136 279.5t352 101.5h18v234h47v-236q185 -13 307.5 -95.5t170.5 -219.5h-48q-57 132 -184 202t-307 70q-128 0 -226.5 -37t-158.5 -116.5t-60 -192.5
q0 -80 43.5 -132.5t148.5 -95t304 -87.5z" />
    <glyph glyph-name="percent" unicode="%" horiz-adv-x="2103" 
d="M553 594q-158 0 -253 108.5t-95 321.5t95 321.5t253 108.5t253 -108.5t95 -321.5t-95 -321.5t-253 -108.5zM1489 1434l-819 -1434h-56l820 1434h55zM553 639q138 0 219.5 95.5t81.5 289.5t-81.5 289.5t-219.5 95.5t-219.5 -95.5t-81.5 -289.5t81.5 -289.5t219.5 -95.5z
M1550 840q158 0 253 -108.5t95 -321.5t-95 -321.5t-253 -108.5t-253 108.5t-95 321.5t95 321.5t253 108.5zM1550 795q-138 0 -219.5 -95.5t-81.5 -289.5t81.5 -289.5t219.5 -95.5t219.5 95.5t81.5 289.5t-81.5 289.5t-219.5 95.5z" />
    <glyph glyph-name="ampersand" unicode="&#x26;" horiz-adv-x="1320" 
d="M1219 0h-60l-174 180q-174 -200 -442 -200q-204 0 -322.5 96.5t-118.5 255.5q0 52 19 99.5t36 76t74.5 75.5t78.5 61.5t104 69.5q24 17 37 25q-123 140 -170.5 227t-47.5 173q0 139 94.5 227t252.5 88q147 0 228 -80t81 -200q0 -102 -74 -189t-260 -223q-14 -12 -37 -27
q72 -81 461 -485q115 159 145 397h47q-36 -264 -159 -432q26 -27 96 -99.5t111 -115.5zM281 1139q0 -79 44 -158.5t164 -214.5q9 7 29 20.5t29 20.5q177 128 236 204.5t59 162.5q0 103 -68.5 168.5t-193.5 66.5q-136 -2 -217.5 -74t-81.5 -196zM547 25q250 0 405 188
q-353 363 -473 496q-160 -113 -196 -143q-104 -87 -126 -174q-7 -29 -7 -62q0 -137 105 -221t292 -84z" />
    <glyph glyph-name="quotesingle" unicode="'" horiz-adv-x="456" 
d="M252 1434v-279l-6 -383h-35l-6 383v279h47z" />
    <glyph glyph-name="parenleft" unicode="(" horiz-adv-x="751" 
d="M547 1577q-157 -287 -226 -529.5t-69 -515.5t69 -515t226 -529l-37 -23q-164 290 -234.5 549t-70.5 518t70.5 518t234.5 549z" />
    <glyph glyph-name="parenright" unicode=")" horiz-adv-x="751" 
d="M205 1577l37 22q164 -290 234.5 -549t70.5 -518t-70.5 -518t-234.5 -549l-37 23q157 287 226 529t69 515t-69 515.5t-226 529.5z" />
    <glyph glyph-name="asterisk" unicode="*" horiz-adv-x="1118" 
d="M913 1190l-323 -119l223 -264l-35 -29l-219 264l-221 -264l-33 29l221 264l-321 119l16 41l316 -117v320h43v-320l317 117z" />
    <glyph glyph-name="plus" unicode="+" horiz-adv-x="1435" 
d="M741 1116v-477h490v-45h-490v-475h-47v475h-489v45h489v477h47z" />
    <glyph glyph-name="comma" unicode="," horiz-adv-x="579" 
d="M375 37q1 -12 -3 -31.5t-31 -105t-85 -252.5h-51l110 329q-22 3 -36.5 19t-14.5 39q0 25 16 41t39 16q21 0 38 -14t18 -41z" />
    <glyph glyph-name="hyphen" unicode="-" horiz-adv-x="1044" 
d="M840 649v-45h-635v45h635z" />
    <glyph glyph-name="period" unicode="." horiz-adv-x="520" 
d="M260 92q23 0 39 -16t16 -39t-16 -40t-39 -17t-39 17t-16 40t16 39t39 16z" />
    <glyph glyph-name="slash" unicode="/" horiz-adv-x="587" 
d="M526 1577l-415 -1577h-50l416 1577h49z" />
    <glyph glyph-name="zero" unicode="0" horiz-adv-x="1363" 
d="M682 1454q259 0 399 -188t140 -549t-140 -549t-399 -188q-257 0 -398 186.5t-141 550.5t141 550.5t398 186.5zM682 25q83 0 154 22t133.5 74t106.5 130t69.5 197t25.5 269t-25.5 269t-69.5 197t-106.5 130t-133.5 74t-154 22t-154 -22t-133.5 -74t-106.5 -130t-69.5 -197
t-25.5 -269t25.5 -269t69.5 -197t106.5 -130t133.5 -74t154 -22z" />
    <glyph glyph-name="one" unicode="1" horiz-adv-x="673" 
d="M446 1434h23v-1434h-47v1376l-340 -133v49z" />
    <glyph glyph-name="two" unicode="2" horiz-adv-x="1257" 
d="M180 47h975v-47h-1053v37l412 358q284 248 366 330q132 133 165 231q16 49 16 103q0 158 -119.5 254t-306.5 96q-188 0 -309 -101t-166 -274h-49q46 195 185 307.5t341 112.5q205 0 338 -110.5t133 -284.5q0 -35 -6.5 -67.5t-16 -62t-33 -65t-43 -63.5t-61 -71t-73 -74
t-92.5 -86t-106 -94t-126 -109z" />
    <glyph glyph-name="three" unicode="3" horiz-adv-x="1249" 
d="M848 760q140 -35 219.5 -134.5t79.5 -238.5q0 -181 -139 -294t-353 -113q-207 0 -358 99.5t-195 293.5h50q44 -177 180 -262.5t325 -85.5q193 0 318 99.5t125 262.5q0 151 -103.5 246.5t-316.5 95.5h-205v45h148q216 0 321 79.5t105 215.5q0 105 -58 183.5t-151 117.5
t-205 39q-175 0 -289 -75.5t-164 -250.5h-49q28 103 77 177t116 115.5t142.5 60t166.5 18.5q126 0 230 -45.5t167.5 -134t63.5 -203.5q0 -110 -63 -192.5t-185 -118.5z" />
    <glyph glyph-name="four" unicode="4" horiz-adv-x="1259" 
d="M1178 420v-45h-224v-375h-47v375h-825v45l797 1014h75v-1014h224zM139 420h768v969h-6z" />
    <glyph glyph-name="five" unicode="5" horiz-adv-x="1255" 
d="M657 930q214 0 355 -131t141 -338q0 -203 -143 -342t-353 -139q-206 0 -356 109.5t-199 299.5h50q47 -170 182 -267t325 -97q191 0 319 125.5t128 310.5q0 189 -126.5 306.5t-320.5 117.5q-295 0 -442 -254h-47l170 803h747v-45h-710l-137 -654q150 195 417 195z" />
    <glyph glyph-name="six" unicode="6" horiz-adv-x="1236" 
d="M627 954q136 0 251 -58t186 -170.5t71 -258.5q0 -144 -69 -256t-187.5 -171.5t-264.5 -59.5q-106 0 -198.5 33t-162.5 94.5t-110.5 158t-40.5 215.5q0 65 15.5 126t45 127.5t99.5 172t151.5 218.5t227.5 309h51l-436 -609q70 56 166 92.5t205 36.5zM616 25q130 0 237 54
t170.5 155.5t63.5 232.5q0 134 -64 236t-169 154t-233 52q-206 0 -338.5 -122t-132.5 -324q0 -132 64 -233t169 -153t233 -52z" />
    <glyph glyph-name="seven" unicode="7" horiz-adv-x="1095" 
d="M82 1434h932v-48l-684 -1386h-54l685 1386h-879v48z" />
    <glyph glyph-name="eight" unicode="8" horiz-adv-x="1224" 
d="M819 760q145 -35 224 -137t79 -246q0 -121 -69.5 -212.5t-184 -138t-256.5 -46.5t-256.5 46.5t-184 138t-69.5 212.5q0 144 79.5 246t224.5 137q-123 37 -184.5 120t-61.5 197q0 172 129.5 274.5t322.5 102.5q194 0 323.5 -102.5t129.5 -274.5q0 -114 -61.5 -197
t-184.5 -120zM207 1075q0 -138 99.5 -219.5t305.5 -81.5t306 81.5t100 219.5q0 105 -56 182t-146.5 114.5t-203.5 37.5q-112 0 -203 -37.5t-146.5 -114.5t-55.5 -182zM612 25q130 0 234 40.5t166.5 121.5t62.5 190q0 352 -463 352q-462 0 -462 -352q0 -164 131 -258t331 -94
z" />
    <glyph glyph-name="nine" unicode="9" horiz-adv-x="1236" 
d="M623 1454q143 0 257.5 -56.5t184.5 -172t70 -273.5q0 -154 -97.5 -323t-441.5 -629h-51l436 608q-70 -56 -166 -92.5t-205 -36.5q-101 0 -193 34.5t-162 96t-111.5 154.5t-41.5 203q0 144 69 256t187.5 171.5t264.5 59.5zM616 524q206 0 338.5 122.5t132.5 324.5
q0 132 -64 233t-169 153t-233 52q-130 0 -237 -54t-170.5 -155.5t-63.5 -232.5q0 -134 64 -236t169 -154.5t233 -52.5z" />
    <glyph glyph-name="colon" unicode=":" horiz-adv-x="520" 
d="M260 989q23 0 39 -16t16 -39t-16 -39t-39 -16t-39 16t-16 39t16 39t39 16zM260 92q23 0 39 -16t16 -39t-16 -40t-39 -17t-39 17t-16 40t16 39t39 16z" />
    <glyph glyph-name="semicolon" unicode=";" horiz-adv-x="579" 
d="M319 879q-23 0 -39 16t-16 39t16 39t39 16t39.5 -16t16.5 -39t-16.5 -39t-39.5 -16zM375 37q1 -12 -3 -31.5t-31 -105t-85 -252.5h-51l110 329q-22 3 -36.5 19t-14.5 39q0 25 16 41t39 16q21 0 38 -14t18 -41z" />
    <glyph glyph-name="less" unicode="&#x3c;" horiz-adv-x="1435" 
d="M1231 1014v-49l-946 -332l946 -334v-51l-1026 358v51z" />
    <glyph glyph-name="equal" unicode="=" horiz-adv-x="1435" 
d="M1231 854v-47h-1026v47h1026zM1231 442v-45h-1026v45h1026z" />
    <glyph glyph-name="greater" unicode="&#x3e;" horiz-adv-x="1435" 
d="M205 1014l1026 -357v-51l-1026 -358v51l946 334l-946 332v49z" />
    <glyph glyph-name="question" unicode="?" horiz-adv-x="1165" 
d="M522 367v104q0 48 15.5 85t57.5 71t67 49t92 50q16 9 24 13q58 31 94.5 55.5t73 61.5t53.5 85.5t17 111.5q0 163 -116 259.5t-312 96.5q-181 0 -295 -91t-141 -284h-50q30 214 158 317t328 103q217 0 346 -110.5t129 -292.5q0 -70 -20 -125.5t-60 -97.5t-81 -70t-103 -60
q-112 -57 -143 -80q-87 -62 -87 -149v-102h-47zM553 -20q-23 0 -39 17t-16 40t16 39t39 16t39 -16t16 -39t-16 -40t-39 -17z" />
    <glyph glyph-name="at" unicode="@" horiz-adv-x="2365" 
d="M1200 1597q140 0 270 -30.5t243.5 -89t207 -148.5t160.5 -203.5t104 -259t37 -311.5q0 -279 -96 -427t-254 -148q-112 0 -191 71.5t-79 200.5v27q-61 -138 -183.5 -218.5t-277.5 -80.5q-214 0 -349 147t-135 375t135 375t349 147q155 0 277.5 -80.5t183.5 -218.5v281h47
v-754q0 -112 65 -169.5t154 -57.5q61 0 114 29.5t97.5 90t70 165.5t25.5 243q0 192 -51 355.5t-141.5 280.5t-213.5 200t-267.5 123t-303.5 40q-214 0 -400 -75t-320 -209t-211 -330t-77 -428q0 -231 76.5 -421t211 -315t315.5 -193t391 -68q257 0 463 102l10 -47
q-217 -100 -473 -100q-177 0 -335 44.5t-286.5 133t-222.5 212.5t-145.5 291t-51.5 361q0 245 81 450t222.5 344t335.5 216t418 77zM1141 25q196 0 327 135.5t131 341.5t-131 341.5t-327 135.5q-193 0 -314.5 -135t-121.5 -342t121.5 -342t314.5 -135z" />
    <glyph glyph-name="A" unicode="A" horiz-adv-x="1454" 
d="M1321 0l-221 522h-746l-221 -522h-51l610 1434h70l610 -1434h-51zM375 567h704l-352 834z" />
    <glyph glyph-name="B" unicode="B" horiz-adv-x="1335" 
d="M952 756q281 -70 281 -373q0 -179 -110 -281t-345 -102h-573v1434h553q432 0 432 -357q0 -254 -238 -321zM1143 1079q0 72 -19 126t-62 96.5t-119.5 65t-184.5 22.5h-506v-615h487q114 0 194.5 22t125.5 64t64.5 95t19.5 124zM778 45q408 0 408 338q0 346 -414 346h-520
v-684h526z" />
    <glyph glyph-name="C" unicode="C" horiz-adv-x="1646" 
d="M879 -20q-207 0 -375 94.5t-264.5 263.5t-96.5 379t96.5 379t264.5 263.5t375 94.5q225 0 403.5 -119t261.5 -325h-51q-81 182 -246 290.5t-373 108.5q-189 0 -346 -91t-247.5 -250t-90.5 -351t90.5 -351t247.5 -250t346 -91q208 0 373 108.5t246 290.5h51
q-83 -206 -261.5 -325t-403.5 -119z" />
    <glyph glyph-name="D" unicode="D" horiz-adv-x="1536" 
d="M657 1434q155 0 291 -52.5t234 -145.5t154.5 -227.5t56.5 -291.5q0 -207 -97.5 -371.5t-265 -255t-373.5 -90.5h-452v1434h452zM662 45q142 0 268 50t217 138t144.5 213.5t54.5 270.5q0 192 -91 346.5t-247 240t-346 85.5h-410v-1344h410z" />
    <glyph glyph-name="E" unicode="E" horiz-adv-x="1165" 
d="M1063 1389h-811v-621h766v-45h-766v-678h811v-45h-858v1434h858v-45z" />
    <glyph glyph-name="F" unicode="F" horiz-adv-x="1165" 
d="M1063 1389h-811v-627h766v-45h-766v-717h-47v1434h858v-45z" />
    <glyph glyph-name="G" unicode="G" horiz-adv-x="1748" 
d="M817 713h737v-713h-47v428q-63 -215 -232.5 -331.5t-393.5 -116.5q-207 0 -376 95.5t-265.5 265t-96.5 378.5q0 156 57 293t154.5 234t233.5 152.5t289 55.5q228 0 405.5 -119t261.5 -325h-51q-81 182 -246 290.5t-373 108.5q-189 0 -346 -91t-247.5 -250.5t-90.5 -352.5
t90.5 -351t248.5 -248.5t350 -90.5q183 0 327 81.5t223.5 228.5t75.5 333h-688v45z" />
    <glyph glyph-name="H" unicode="H" horiz-adv-x="1529" 
d="M1278 1434h47v-1434h-47v723h-1026v-723h-47v1434h47v-666h1026v666z" />
    <glyph glyph-name="I" unicode="I" horiz-adv-x="458" 
d="M207 0v1434h47v-1434h-47z" />
    <glyph glyph-name="J" unicode="J" horiz-adv-x="1093" 
d="M842 1434h47v-1012q0 -207 -109.5 -324.5t-294.5 -117.5q-186 0 -294.5 113t-108.5 319v110h47v-110q0 -185 96.5 -286t261.5 -101q163 0 259 104t96 293v1012z" />
    <glyph glyph-name="K" unicode="K" horiz-adv-x="1212" 
d="M1130 0h-69l-809 711v-711h-47v1434h47v-697l790 697h72l-805 -709z" />
    <glyph glyph-name="L" unicode="L" horiz-adv-x="1099" 
d="M252 45h766v-45h-813v1434h47v-1389z" />
    <glyph glyph-name="M" unicode="M" horiz-adv-x="1646" 
d="M1362 1434h80v-1434h-47v1399l-574 -860h-6l-573 860v-1399h-47v1434h79l545 -816z" />
    <glyph glyph-name="N" unicode="N" horiz-adv-x="1507" 
d="M1266 1434h47v-1434h-82l-989 1399v-1399h-47v1434h79l992 -1399v1399z" />
    <glyph glyph-name="O" unicode="O" horiz-adv-x="1753" 
d="M879 1454q203 0 370.5 -95.5t264 -264.5t96.5 -377t-96.5 -377t-264.5 -264.5t-372 -95.5q-152 0 -288 56.5t-234 153.5t-155 234.5t-57 292.5q0 156 57 293t155 234t234.5 153.5t289.5 56.5zM877 1409q-189 0 -346 -90.5t-247.5 -249.5t-90.5 -352t90.5 -352
t247.5 -249.5t346 -90.5t346.5 90t248.5 249t91 353t-91 353t-248.5 249t-346.5 90z" />
    <glyph glyph-name="P" unicode="P" horiz-adv-x="1378" 
d="M754 1434q119 0 213 -36t151.5 -97.5t87 -139t29.5 -164.5q0 -69 -18 -133.5t-57 -121t-94.5 -98.5t-135.5 -66.5t-176 -24.5h-500v-553h-49v1434h549zM754 598q109 0 194 33.5t136.5 90.5t77.5 127t26 148t-26 147t-77.5 124.5t-136.5 88t-194 32.5h-500v-791h500z" />
    <glyph glyph-name="Q" unicode="Q" horiz-adv-x="1753" 
d="M1610 717q0 -177 -70.5 -325.5t-196.5 -250.5l267 -354l-39 -29l-266 355q-184 -133 -428 -133q-152 0 -288 56.5t-234 153.5t-155 234.5t-57 292.5q0 156 57 293t155 234t234.5 153.5t289.5 56.5q203 0 370.5 -95.5t264 -264.5t96.5 -377zM877 25q189 0 346.5 90
t248.5 249t91 353t-91 353t-248.5 249t-346.5 90t-346 -90.5t-247.5 -249.5t-90.5 -352t90.5 -352t247.5 -249.5t346 -90.5z" />
    <glyph glyph-name="R" unicode="R" horiz-adv-x="1318" 
d="M1174 0l-539 594h-381v-594h-49v1434h518q119 0 212.5 -33t151.5 -90.5t87.5 -131.5t29.5 -161t-29.5 -162.5t-87 -134.5t-151.5 -93t-213 -34h-25l539 -594h-63zM254 1389v-750h469q109 0 194 30.5t136.5 83.5t77.5 120t26 145t-26 144t-77.5 117.5t-136 80.5t-194.5 29
h-469z" />
    <glyph glyph-name="S" unicode="S" horiz-adv-x="1300" 
d="M686 748q114 -26 172 -41t135.5 -45.5t114 -65t63.5 -90t27 -129.5q0 -188 -138 -292.5t-366 -104.5q-250 0 -400 111t-192 310h48q45 -183 182 -279.5t358 -96.5q210 0 335.5 92t125.5 258q0 35 -6.5 64t-17 53t-31 45t-41 37t-54.5 31.5t-63.5 27t-76.5 24.5
t-85.5 22.5t-97.5 22.5q-117 27 -191.5 48t-146.5 52t-111 66.5t-62.5 86.5t-23.5 118q0 174 136.5 277.5t351.5 103.5q211 0 350 -84t193 -233h-48q-57 132 -184 202t-307 70q-127 0 -226.5 -38.5t-159 -118t-59.5 -189.5q0 -80 43.5 -132.5t148.5 -95t304 -87.5z" />
    <glyph glyph-name="T" unicode="T" horiz-adv-x="1236" 
d="M1155 1434v-45h-512v-1389h-49v1389h-512v45h1073z" />
    <glyph glyph-name="U" unicode="U" horiz-adv-x="1484" 
d="M1241 1434h49v-883q0 -141 -41.5 -251.5t-115.5 -179.5t-171.5 -104.5t-213.5 -35.5t-213.5 35.5t-172 104.5t-116 179.5t-41.5 251.5v883h49v-883q0 -131 38 -233t105.5 -165t156.5 -95.5t194 -32.5t193.5 32.5t156 95.5t105.5 165t38 233v883z" />
    <glyph glyph-name="V" unicode="V" horiz-adv-x="1349" 
d="M1217 1434h51l-557 -1434h-70l-559 1434h51l543 -1395z" />
    <glyph glyph-name="W" unicode="W" horiz-adv-x="2013" 
d="M1882 1434h49l-434 -1434h-70l-157 518l-260 850l-6 2l-259 -852l-157 -518h-70l-436 1434h51l420 -1381l420 1381h69l207 -686l213 -695z" />
    <glyph glyph-name="X" unicode="X" horiz-adv-x="1191" 
d="M1110 0h-57l-457 688l-457 -688h-57l485 731l-465 703h58l436 -658l436 658h58l-465 -701z" />
    <glyph glyph-name="Y" unicode="Y" horiz-adv-x="1316" 
d="M1235 1434l-551 -873v-561h-49v557l-553 877h57l520 -824l519 824h57z" />
    <glyph glyph-name="Z" unicode="Z" horiz-adv-x="1214" 
d="M1112 1434v-45l-950 -1344h950v-45h-1010v45l951 1344h-914v45h973z" />
    <glyph glyph-name="bracketleft" unicode="[" horiz-adv-x="753" 
d="M549 1577v-45h-295v-1999h295v-45h-344v2089h344z" />
    <glyph glyph-name="backslash" unicode="\" horiz-adv-x="874" 
d="M254 1577l416 -1577h-49l-416 1577h49z" />
    <glyph glyph-name="bracketright" unicode="]" horiz-adv-x="753" 
d="M205 1577h344v-2089h-344v45h295v1999h-295v45z" />
    <glyph glyph-name="asciicircum" unicode="^" horiz-adv-x="1089" 
d="M545 1454l340 -340l-33 -33l-307 308l-307 -308l-33 33z" />
    <glyph glyph-name="underscore" unicode="_" horiz-adv-x="1351" 
d="M1147 -39v-45h-942v45h942z" />
    <glyph glyph-name="grave" unicode="`" horiz-adv-x="788" 
d="M240 1722l344 -344l-37 -35l-342 343z" />
    <glyph glyph-name="a" unicode="a" horiz-adv-x="1406" 
d="M1176 1126h47v-1126h-47v315q-67 -154 -203.5 -244.5t-308.5 -90.5q-158 0 -282 75.5t-191.5 208t-67.5 299.5t67.5 300t191.5 208.5t282 75.5q172 0 308.5 -91t203.5 -245v315zM662 25q221 0 368.5 153t147.5 385t-147.5 385.5t-368.5 153.5q-218 0 -355 -152.5
t-137 -386.5t137 -386t355 -152z" />
    <glyph glyph-name="b" unicode="b" horiz-adv-x="1406" 
d="M743 1147q158 0 282 -75.5t191.5 -208.5t67.5 -300t-67.5 -299.5t-191.5 -208t-282 -75.5q-172 0 -308.5 90.5t-203.5 244.5v-315h-47v1577h47v-766q67 154 203.5 245t308.5 91zM745 25q218 0 355 152t137 386t-137 386.5t-355 152.5q-221 0 -368.5 -153.5t-147.5 -385.5
t147.5 -385t368.5 -153z" />
    <glyph glyph-name="c" unicode="c" horiz-adv-x="1333" 
d="M698 -20q-158 0 -289.5 74.5t-208.5 208.5t-77 300q0 124 45 233.5t122.5 186t183.5 120.5t224 44q185 0 329.5 -103t203.5 -274h-51q-54 148 -184 240t-298 92q-109 0 -206.5 -41t-168 -112t-112 -171.5t-41.5 -214.5q0 -152 70 -275.5t191 -193t267 -69.5
q169 0 298.5 91.5t183.5 239.5h51q-59 -171 -203.5 -273.5t-329.5 -102.5z" />
    <glyph glyph-name="d" unicode="d" horiz-adv-x="1406" 
d="M1176 1577h47v-1577h-47v315q-67 -154 -203.5 -244.5t-308.5 -90.5q-158 0 -282 75.5t-191.5 208t-67.5 299.5t67.5 300t191.5 208.5t282 75.5q172 0 308.5 -91t203.5 -245v766zM662 25q221 0 368.5 153t147.5 385t-147.5 385.5t-368.5 153.5q-218 0 -355 -152.5
t-137 -386.5t137 -386t355 -152z" />
    <glyph glyph-name="e" unicode="e" horiz-adv-x="1337" 
d="M694 25q153 0 274.5 64.5t182.5 184.5h51q-65 -144 -202 -219t-306 -75q-250 0 -410.5 158.5t-160.5 418.5q0 259 159 424.5t404 165.5q254 0 401.5 -165.5t147.5 -438.5h-1065q5 -157 73 -275t185 -180.5t266 -62.5zM686 1102q-218 0 -362.5 -143.5t-153.5 -370.5h1018
q-8 226 -146 370t-356 144z" />
    <glyph glyph-name="f" unicode="f" horiz-adv-x="954" 
d="M678 1552q-336 0 -336 -415v-11h537v-45h-537v-1081h-47v1081h-234v45h234v11q0 213 94 336.5t287 123.5q114 0 217 -41l-10 -47l-15 7q-81 36 -190 36z" />
    <glyph glyph-name="g" unicode="g" horiz-adv-x="1406" 
d="M1176 1126h47v-1116q0 -253 -136.5 -397.5t-375.5 -144.5q-194 0 -337 101.5t-196 274.5h51q47 -149 175.5 -240t306.5 -91q220 0 342.5 132t122.5 365v305q-68 -153 -206 -244t-306 -91q-158 0 -282 75.5t-191.5 208t-67.5 299.5t67.5 300t191.5 208.5t282 75.5
q168 0 306 -91.5t206 -244.5v315zM662 25q221 0 368.5 153t147.5 385t-147.5 385.5t-368.5 153.5q-218 0 -355 -152.5t-137 -386.5t137 -386t355 -152z" />
    <glyph glyph-name="h" unicode="h" horiz-adv-x="1284" 
d="M700 1147q195 0 302.5 -110t107.5 -316v-721h-47v721q0 188 -96 284.5t-265 96.5q-216 0 -338 -149.5t-122 -389.5v-563h-47v1577h47v-756q53 153 168 239.5t290 86.5z" />
    <glyph glyph-name="i" unicode="i" horiz-adv-x="415" 
d="M209 1597q23 0 39 -16t16 -39t-16 -39t-39 -16t-39 16t-16 39t16 39t39 16zM184 0v1126h47v-1126h-47z" />
    <glyph glyph-name="j" unicode="j" horiz-adv-x="415" 
d="M209 1597q23 0 39 -16t16 -39t-16 -39t-39 -16t-39 16t-16 39t16 39t39 16zM184 -512v1638h47v-1638h-47z" />
    <glyph glyph-name="k" unicode="k" horiz-adv-x="1120" 
d="M1059 0h-74l-743 586v-586h-47v1577h47v-975l673 524h74l-684 -532z" />
    <glyph glyph-name="l" unicode="l" horiz-adv-x="417" 
d="M195 0v1577h49v-1577h-49z" />
    <glyph glyph-name="m" unicode="m" horiz-adv-x="1925" 
d="M1391 1147q175 0 267.5 -101.5t92.5 -295.5v-750h-47v750q0 176 -81.5 264t-231.5 88q-79 0 -145 -29.5t-112.5 -80t-79 -119t-48 -147t-15.5 -163.5l2 -563h-49v750q0 176 -81.5 264t-231.5 88q-79 0 -145 -29.5t-112.5 -80t-79 -119t-48 -147t-15.5 -163.5l2 -563h-49
v1126h49v-301q104 322 398 322q161 0 252 -84.5t106 -247.5q101 332 402 332z" />
    <glyph glyph-name="n" unicode="n" horiz-adv-x="1269" 
d="M690 1147q192 0 299 -110.5t107 -315.5v-721h-47v721q0 187 -95.5 284t-261.5 97q-215 0 -338 -150t-123 -389v-563h-47v1126h47v-311q50 152 166 242t293 90z" />
    <glyph glyph-name="o" unicode="o" horiz-adv-x="1392" 
d="M696 1147q117 0 223 -44.5t183 -121t122.5 -185.5t45.5 -233q0 -165 -76 -299t-207.5 -209t-290.5 -75q-158 0 -289 75t-207.5 209t-76.5 299q0 124 45.5 233.5t122.5 186t182.5 120.5t222.5 44zM696 1102q-107 0 -204 -40.5t-168 -111t-112.5 -171.5t-41.5 -216
q0 -230 152.5 -384t373.5 -154q145 0 265.5 69t191 193t70.5 276t-71 276.5t-191.5 193.5t-264.5 69z" />
    <glyph glyph-name="p" unicode="p" horiz-adv-x="1417" 
d="M754 1147q119 0 220 -44t171 -121.5t109.5 -185.5t39.5 -233q0 -167 -67.5 -299.5t-191 -208t-281.5 -75.5q-172 0 -308.5 90.5t-203.5 244.5v-827h-47v1638h47v-315q67 154 203.5 245t308.5 91zM756 25q218 0 354.5 152t136.5 386q0 154 -61 276.5t-173.5 192.5
t-256.5 70q-221 0 -368.5 -153.5t-147.5 -385.5t147.5 -385t368.5 -153z" />
    <glyph glyph-name="q" unicode="q" horiz-adv-x="1406" 
d="M1176 1126h47v-1638h-47v827q-67 -154 -203.5 -244.5t-308.5 -90.5q-158 0 -282 75.5t-191.5 208t-67.5 299.5t67.5 300t191.5 208.5t282 75.5q172 0 308.5 -91t203.5 -245v315zM662 25q221 0 368.5 153t147.5 385t-147.5 385.5t-368.5 153.5q-218 0 -355 -152.5
t-137 -386.5t137 -386t355 -152z" />
    <glyph glyph-name="r" unicode="r" horiz-adv-x="821" 
d="M684 1147q40 0 76 -4v-45q-36 4 -74 4q-210 0 -332.5 -150.5t-122.5 -388.5v-563h-47v1126h47v-311q49 148 164 240t289 92z" />
    <glyph glyph-name="s" unicode="s" horiz-adv-x="1122" 
d="M598 -20q-217 0 -354 95.5t-172 274.5h47q40 -163 165 -244t312 -81q105 0 190.5 28t141 90.5t55.5 149.5q0 44 -18 77.5t-36.5 53.5t-76.5 42.5t-89 31.5t-123 33q-39 10 -60 16q-109 28 -177 49.5t-124.5 46.5t-85 52.5t-43.5 62t-15 80.5q0 97 57 168.5t150.5 106
t210.5 34.5q172 0 295 -77t162 -220h-47q-43 122 -154 187t-258 65q-158 0 -263.5 -70.5t-105.5 -191.5q0 -97 82 -139.5t333 -108.5q5 -1 7 -2q72 -19 114.5 -30.5t94.5 -29t80 -32t58.5 -35.5t45 -44.5t24 -54.5t9.5 -69q0 -77 -34.5 -138.5t-95 -99.5t-137.5 -57.5
t-165 -19.5z" />
    <glyph glyph-name="t" unicode="t" horiz-adv-x="1034" 
d="M942 80l10 -45q-125 -55 -270 -55q-189 0 -288 119t-99 327v655h-234v45h234v297l47 11v-308h596v-45h-596v-655q0 -192 85.5 -296.5t258.5 -104.5q129 0 256 55z" />
    <glyph glyph-name="u" unicode="u" horiz-adv-x="1249" 
d="M1028 1126h47v-1126h-47v311q-49 -150 -164 -240.5t-291 -90.5q-190 0 -294.5 110.5t-104.5 315.5v720h47v-720q0 -187 92.5 -284t257.5 -97q212 0 334.5 149.5t122.5 388.5v563z" />
    <glyph glyph-name="v" unicode="v" horiz-adv-x="1116" 
d="M1004 1126h51l-461 -1126h-72l-461 1126h52l444 -1089z" />
    <glyph glyph-name="w" unicode="w" horiz-adv-x="1652" 
d="M1540 1126h51l-354 -1126h-72l-118 379l-218 684l-6 2l-217 -684l-119 -381h-69l-357 1126h52l112 -354l228 -721l227 721l113 354h69l111 -354l229 -719l228 719z" />
    <glyph glyph-name="x" unicode="x" horiz-adv-x="1028" 
d="M967 0h-60l-393 537l-393 -537h-60l424 580l-399 546h59l369 -503l369 503h59l-399 -544z" />
    <glyph glyph-name="y" unicode="y" horiz-adv-x="1138" 
d="M1024 1126h53l-786 -1638h-53l305 635l-482 1003h54l454 -948z" />
    <glyph glyph-name="z" unicode="z" horiz-adv-x="1091" 
d="M999 1126v-45l-845 -1036h845v-45h-907v45l846 1036h-801v45h862z" />
    <glyph glyph-name="braceleft" unicode="{" horiz-adv-x="968" 
d="M508 971q0 -90 -6 -153t-22.5 -124.5t-50.5 -101.5t-87 -60q53 -20 87 -60t50.5 -101t22.5 -124t6 -153v-166q0 -54 1 -90t5 -79.5t11.5 -72t20 -59t31.5 -49.5t45 -35t61.5 -23t80.5 -7v-45q-79 0 -135 23t-88.5 60t-50.5 99.5t-23.5 125t-5.5 152.5v166
q0 61 -1.5 101.5t-7 88.5t-15.5 78.5t-28.5 61t-44.5 48t-64 28t-87 10.5h-8v45h8q49 0 87 10.5t64 28t44.5 48t28.5 61t15.5 78.5t7 88.5t1.5 101.5v166q0 90 5.5 152.5t23.5 125t50.5 99.5t88.5 60t135 23v-45q-45 0 -80.5 -7t-61.5 -23t-45 -35t-31.5 -49.5t-20 -59
t-11.5 -72t-5 -79.5t-1 -90v-166z" />
    <glyph glyph-name="bar" unicode="|" horiz-adv-x="456" 
d="M252 1434v-1627h-47v1627h47z" />
    <glyph glyph-name="braceright" unicode="}" horiz-adv-x="968" 
d="M756 555h8v-45h-8q-49 0 -87 -10.5t-64 -28t-44.5 -48t-28.5 -61t-15.5 -78.5t-7 -88.5t-1.5 -101.5v-166q0 -90 -5.5 -152.5t-23.5 -125t-50.5 -99.5t-88.5 -60t-135 -23v45q45 0 80.5 7t61.5 23t45 35t31.5 49.5t20 59t11.5 72t5 79.5t1 90v166q0 90 6 153t22.5 124
t50.5 101t87 60q-53 20 -87 60t-50.5 101.5t-22.5 124.5t-6 153v166q0 54 -1 90t-5 79.5t-11.5 72t-20 59t-31.5 49.5t-45 35t-61.5 23t-80.5 7v45q79 0 135 -23t88.5 -60t50.5 -99.5t23.5 -125t5.5 -152.5v-166q0 -61 1.5 -101.5t7 -88.5t15.5 -78.5t28.5 -61t44.5 -48
t64 -28t87 -10.5z" />
    <glyph glyph-name="asciitilde" unicode="~" horiz-adv-x="1304" 
d="M883 545q-49 0 -97.5 22t-77.5 46.5t-71 66.5l-8 8q-34 35 -56.5 54.5t-66 41t-86.5 21.5q-81 0 -124.5 -63.5t-43.5 -163.5h-47q0 123 59.5 197.5t157.5 74.5q49 0 97.5 -22t77.5 -46.5t71 -66.5l8 -8q34 -35 56.5 -54.5t66 -41t86.5 -21.5q81 0 124.5 63.5t43.5 163.5
h47q0 -123 -59.5 -197.5t-157.5 -74.5z" />
    <glyph glyph-name="exclamdown" unicode="&#xa1;" horiz-adv-x="520" 
d="M260 829q-23 0 -39 16.5t-16 39.5t16 40t39 17t39 -17t16 -40t-16 -39.5t-39 -16.5zM287 -512h-51v639l4 428h43l4 -428v-639z" />
    <glyph glyph-name="cent" unicode="&#xa2;" horiz-adv-x="1333" 
d="M698 25q169 0 298.5 91.5t183.5 239.5h51q-57 -166 -194.5 -268t-315.5 -108v-287h-49v287q-233 11 -391 175.5t-158 407.5t158 408t391 176v287h49v-287q178 -6 315.5 -108t194.5 -269h-51q-54 148 -184 240t-298 92q-109 0 -206.5 -41t-168 -112t-112 -171.5
t-41.5 -214.5q0 -152 70 -275.5t191 -193t267 -69.5z" />
    <glyph glyph-name="sterling" unicode="&#xa3;" horiz-adv-x="1445" 
d="M1296 260h47q0 -77 -18 -128.5t-57 -80t-90 -40t-125 -11.5h-951v45h142q80 0 108.5 33.5t28.5 109.5v465h-279v45h279v314q0 210 119 326t325 116q203 0 320 -113t117 -307h-50q0 170 -98.5 272.5t-286.5 102.5t-293.5 -102t-105.5 -295v-314h514v-45h-514v-465
q0 -105 -51 -143h676q131 0 187 45t56 170z" />
    <glyph glyph-name="currency" unicode="&#xa4;" horiz-adv-x="1437" 
d="M1182 727q0 -183 -113 -315l164 -164l-35 -35l-162 164q-129 -123 -317 -123q-187 0 -318 125l-161 -166l-35 35l164 166q-113 132 -113 313q0 182 115 313l-166 166l35 35l163 -166q129 123 316 123q184 0 315 -121l164 164l35 -35l-166 -166q115 -131 115 -313z
M719 299q176 0 296 121.5t120 306.5q0 183 -120.5 304.5t-295.5 121.5q-173 0 -294.5 -121.5t-121.5 -304.5t120.5 -305.5t295.5 -122.5z" />
    <glyph glyph-name="yen" unicode="&#xa5;" horiz-adv-x="1357" 
d="M1255 1434l-534 -846h434v-47h-450v-201h450v-45h-450v-295h-50v295h-450v45h450v201h-450v47h430l-533 846h58l520 -824l518 824h57z" />
    <glyph glyph-name="brokenbar" unicode="&#xa6;" horiz-adv-x="456" 
d="M252 1434v-723h-47v723h47zM252 530v-723h-47v723h47z" />
    <glyph glyph-name="section" unicode="&#xa7;" horiz-adv-x="1339" 
d="M948 305q80 -37 116 -84.5t36 -118.5q0 -141 -110 -222t-294 -81q-84 0 -158.5 18t-138.5 53.5t-109.5 95.5t-64.5 138h47q22 -72 68 -125t106.5 -81t122.5 -41t129 -13q161 0 258 70t97 188q0 30 -9 54.5t-22.5 43.5t-43.5 37.5t-56.5 31t-79.5 29t-94 27.5t-117 31
q-51 13 -80.5 21t-71 20t-65 20.5t-54.5 21t-48 24t-37.5 26.5t-31 31.5t-20.5 36.5t-14 43.5t-4 50.5q0 175 186 297q-80 37 -115.5 84t-35.5 119q0 139 117.5 221t295.5 82q174 0 298.5 -70.5t162.5 -216.5h-47q-23 68 -67.5 117.5t-103 75.5t-118.5 37.5t-127 11.5
q-156 0 -260 -71t-104 -187q0 -30 9 -54.5t22.5 -43.5t43.5 -37.5t56.5 -31t79.5 -29t94 -27.5t117 -31q51 -13 80.5 -21t71 -20t65 -20.5t54.5 -21t48 -24t37.5 -26.5t31 -31.5t20.5 -36.5t14 -43.5t4 -50.5q0 -175 -187 -297zM252 653q0 -36 9 -64t30.5 -50t46 -37.5
t67.5 -30.5t81.5 -26.5t100.5 -27.5q44 -12 68 -18q190 -52 242 -73q89 59 139.5 122.5t50.5 151.5q0 36 -9 64t-30.5 50t-46 37.5t-67.5 30.5t-81.5 26.5t-100.5 27.5q-44 12 -68 18q-182 50 -242 74q-89 -59 -139.5 -123t-50.5 -152z" />
    <glyph glyph-name="dieresis" unicode="&#xa8;" horiz-adv-x="985" 
d="M260 1597q23 0 39 -16t16 -39t-16 -39t-39 -16t-39 16t-16 39t16 39t39 16zM723 1597q23 0 40 -16t17 -39t-17 -39t-40 -16t-39 16t-16 39t16 39t39 16z" />
    <glyph glyph-name="copyright" unicode="&#xa9;" horiz-adv-x="1515" 
d="M758 1597q112 0 214.5 -44t176.5 -118t118 -176.5t44 -214.5q0 -150 -74 -277t-201.5 -201t-277.5 -74t-277.5 74t-201.5 201t-74 277q0 112 44 214.5t118 176.5t176.5 118t214.5 44zM758 539q137 0 253 67t183.5 183.5t67.5 254.5t-67.5 254.5t-183.5 184t-253 67.5
t-253 -67.5t-183.5 -184t-67.5 -254.5t67.5 -254.5t183.5 -183.5t253 -67zM758 1294q-101 0 -171.5 -71.5t-70.5 -178.5t70.5 -178t171.5 -71q73 0 132 39.5t87 105.5h53q-31 -86 -104.5 -138t-167.5 -52q-122 0 -205.5 83.5t-83.5 210.5q0 128 83.5 211.5t205.5 83.5
q94 0 167.5 -52t104.5 -138h-53q-28 66 -87 105.5t-132 39.5z" />
    <glyph glyph-name="guillemotleft" unicode="&#xab;" horiz-adv-x="1064" 
d="M545 231l-340 340l340 340l33 -32l-308 -308l308 -307zM827 231l-340 340l340 340l33 -32l-307 -308l307 -307z" />
    <glyph glyph-name="logicalnot" unicode="&#xac;" horiz-adv-x="1435" 
d="M1231 649v-338h-47v293h-979v45h1026z" />
    <glyph glyph-name="registered" unicode="&#xae;" horiz-adv-x="1515" 
d="M758 1597q112 0 214.5 -44t176.5 -118t118 -176.5t44 -214.5q0 -150 -74 -277t-201.5 -201t-277.5 -74t-277.5 74t-201.5 201t-74 277q0 112 44 214.5t118 176.5t176.5 118t214.5 44zM758 539q137 0 253 67t183.5 183.5t67.5 254.5t-67.5 254.5t-183.5 184t-253 67.5
t-253 -67.5t-183.5 -184t-67.5 -254.5t67.5 -254.5t183.5 -183.5t253 -67zM797 981h-13l215 -252h-63l-213 252h-113v-252h-47v608h234q98 0 144 -49t46 -127q0 -80 -46 -130t-144 -50zM610 1292v-266h168q90 0 126 35t36 100q0 67 -35.5 99t-126.5 32h-168z" />
    <glyph glyph-name="macron" unicode="&#xaf;" horiz-adv-x="923" 
d="M719 1577v-45h-514v45h514z" />
    <glyph glyph-name="degree" unicode="&#xb0;" horiz-adv-x="1112" 
d="M557 1597q148 0 249.5 -102t100.5 -248q1 -146 -101.5 -249t-248.5 -103t-249 103t-103 249t102 248t250 102zM557 1552q-127 0 -216 -89t-89 -216t89.5 -217t215.5 -90q125 0 214 90t89 217t-88.5 216t-214.5 89z" />
    <glyph glyph-name="plusminus" unicode="&#xb1;" horiz-adv-x="1435" 
d="M741 1116v-338h490v-45h-490v-352h-47v352h-489v45h489v338h47zM1231 285v-45h-1026v45h1026z" />
    <glyph glyph-name="uni00B2" unicode="&#xb2;" horiz-adv-x="833" 
d="M170 803h582v-45h-670v35l295 219q173 128 232 193.5t59 146.5q0 87 -65 143.5t-175 56.5q-115 0 -187.5 -60.5t-90.5 -180.5h-48q20 142 107.5 214t220.5 72q130 0 207.5 -71t77.5 -172q0 -50 -16.5 -92.5t-57 -87t-86 -82.5t-125.5 -97z" />
    <glyph glyph-name="uni00B3" unicode="&#xb3;" horiz-adv-x="821" 
d="M596 1200q63 -21 103 -78t40 -139q0 -107 -83 -176.5t-222 -69.5q-81 0 -151.5 25t-126.5 86t-74 151h47q24 -104 106.5 -160.5t196.5 -56.5q120 0 190 55t70 148q0 85 -49.5 131.5t-124.5 46.5h-196v45h127q84 0 147 38t63 118q0 88 -65.5 138t-171.5 50
q-103 0 -177.5 -53.5t-92.5 -163.5h-48q10 67 40 118.5t73.5 82t95.5 46t111 15.5q127 0 205 -65t78 -168q0 -105 -111 -164z" />
    <glyph glyph-name="acute" unicode="&#xb4;" horiz-adv-x="788" 
d="M547 1722l37 -36l-344 -343l-35 35z" />
    <glyph glyph-name="paragraph" unicode="&#xb6;" horiz-adv-x="1175" 
d="M414 1434h557v-1641h-49v1596h-355v-1596h-47v1073h-106q-91 0 -150 59t-59 150v150q0 91 59 150t150 59z" />
    <glyph glyph-name="periodcentered" unicode="&#xb7;" horiz-adv-x="520" 
d="M260 696q23 0 39 -17t16 -40t-16 -39t-39 -16t-39 16t-16 39t16 40t39 17z" />
    <glyph glyph-name="cedilla" unicode="&#xb8;" horiz-adv-x="780" 
d="M340 -178q35 -1 72 -9.5t75.5 -27.5t63 -55.5t24.5 -85.5q0 -84 -68 -130t-179 -46q-73 0 -123 10v45q50 -10 121 -10q93 0 147.5 32.5t54.5 96.5q0 67 -64.5 103t-187.5 36l95 219h45z" />
    <glyph glyph-name="uni00B9" unicode="&#xb9;" horiz-adv-x="493" 
d="M389 1577h23v-819h-47v762l-283 -111v49z" />
    <glyph glyph-name="guillemotright" unicode="&#xbb;" horiz-adv-x="1064" 
d="M238 231l-33 33l307 307l-307 308l33 32l340 -340zM520 231l-33 33l308 307l-308 308l33 32l340 -340z" />
    <glyph glyph-name="onequarter" unicode="&#xbc;" horiz-adv-x="1536" 
d="M365 614v762l-283 -110v49l307 119h23v-820h-47zM1108 1434h55l-819 -1434h-55zM1454 242v-45h-156v-197h-47v197h-477v45l455 577h69v-577h156zM831 242h420v534z" />
    <glyph glyph-name="onehalf" unicode="&#xbd;" horiz-adv-x="1689" 
d="M365 614v762l-283 -110v49l307 119h23v-820h-47zM1108 1434h55l-819 -1434h-55zM1026 45h582v-45h-670v35l295 219q173 128 232 193.5t59 146.5q0 87 -65 144t-175 57q-115 0 -187.5 -60.5t-90.5 -181.5h-48q20 142 108 214.5t220 72.5q130 0 207.5 -71.5t77.5 -172.5
q0 -50 -16.5 -92t-57 -86.5t-86 -82.5t-125.5 -97z" />
    <glyph glyph-name="threequarters" unicode="&#xbe;" horiz-adv-x="1761" 
d="M739 840q0 -107 -83 -176.5t-222 -69.5q-81 0 -151.5 25t-126.5 86t-74 151h47q24 -104 106.5 -160.5t196.5 -56.5q120 0 190 55t70 148q0 85 -49.5 131.5t-124.5 46.5h-196v45h127q84 0 147 38t63 118q0 88 -65.5 138t-171.5 50q-103 0 -177.5 -53.5t-92.5 -163.5h-48
q10 67 40 118.5t73.5 82t95.5 46t111 15.5q127 0 205 -65t78 -168q0 -105 -111 -164q63 -21 103 -78t40 -139zM1333 1434h56l-820 -1434h-55zM1679 242v-45h-155v-197h-47v197h-478v45l455 577h70v-577h155zM1057 242h420v534z" />
    <glyph glyph-name="questiondown" unicode="&#xbf;" horiz-adv-x="1165" 
d="M612 942q23 0 39.5 -17t16.5 -40t-16.5 -39.5t-39.5 -16.5t-39 16.5t-16 39.5t16 40t39 17zM643 555v-104q0 -48 -18 -87t-54 -69t-72 -52t-90 -50q-15 -7 -22 -11q-58 -31 -94.5 -55t-72.5 -61t-53 -85.5t-17 -111.5q0 -163 116 -259.5t312 -96.5q181 0 295 90.5
t141 283.5h49q-30 -214 -157.5 -316.5t-327.5 -102.5q-217 0 -346.5 110.5t-129.5 292.5q0 57 14.5 105t37 82t59.5 65.5t71 53t83 46.5q112 58 146 83q83 62 83 147v102h47z" />
    <glyph glyph-name="Agrave" unicode="&#xc0;" horiz-adv-x="1454" 
d="M915 1612l-36 -35l-342 342l34 37zM1321 0l-221 522h-746l-221 -522h-51l610 1434h70l610 -1434h-51zM375 567h704l-352 834z" />
    <glyph glyph-name="Aacute" unicode="&#xc1;" horiz-adv-x="1454" 
d="M915 1919l-344 -342l-34 35l342 344zM1321 0l-221 522h-746l-221 -522h-51l610 1434h70l610 -1434h-51zM375 567h704l-352 834z" />
    <glyph glyph-name="Acircumflex" unicode="&#xc2;" horiz-adv-x="1454" 
d="M725 1884l-307 -307l-35 35l342 344l344 -344l-37 -35zM1321 0l-221 522h-746l-221 -522h-51l610 1434h70l610 -1434h-51zM375 567h704l-352 834z" />
    <glyph glyph-name="Atilde" unicode="&#xc3;" horiz-adv-x="1454" 
d="M545 1862q-28 0 -48.5 -11t-32.5 -29.5t-18.5 -47t-9 -58t-2.5 -69.5h-47q0 260 160 260q48 0 86 -25.5t108 -97.5q10 -10 33 -34t33 -33t28 -22.5t35 -18.5t37 -5q28 0 48.5 11t32.5 29.5t18.5 47t9 58t2.5 69.5h47q0 -260 -160 -260q-48 0 -86 25.5t-108 97.5
q-10 10 -33 34t-33 33t-28 22.5t-35 18.5t-37 5zM1321 0l-221 522h-746l-221 -522h-51l610 1434h70l610 -1434h-51zM375 567h704l-352 834z" />
    <glyph glyph-name="Adieresis" unicode="&#xc4;" horiz-adv-x="1454" 
d="M494 1720q-23 0 -39.5 16.5t-16.5 39.5t16.5 39t39.5 16t39 -16t16 -39t-16 -39.5t-39 -16.5zM956 1720q-23 0 -39 16.5t-16 39.5t16 39t39 16q24 0 41 -16t17 -39t-17.5 -39.5t-40.5 -16.5zM1321 0l-221 522h-746l-221 -522h-51l610 1434h70l610 -1434h-51zM375 567h704
l-352 834z" />
    <glyph glyph-name="Aring" unicode="&#xc5;" horiz-adv-x="1454" 
d="M727 1577q-95 0 -162 67t-67 162q0 97 66 163.5t163 66.5t163.5 -66.5t65.5 -163.5q1 -95 -66 -162t-163 -67zM727 1991q-75 0 -128.5 -53.5t-53.5 -131.5q2 -77 54.5 -130.5t127.5 -53.5t128.5 54t53.5 130q0 78 -52.5 131.5t-129.5 53.5zM1321 0l-221 522h-746
l-221 -522h-51l610 1434h70l610 -1434h-51zM375 567h704l-352 834z" />
    <glyph glyph-name="AE" unicode="&#xc6;" horiz-adv-x="1689" 
d="M1587 1389h-811v-621h766v-45h-766v-678h811v-45h-858v522h-375l-221 -522h-51l610 1434h70h825v-45zM375 567h354v838z" />
    <glyph glyph-name="Ccedilla" unicode="&#xc7;" horiz-adv-x="1646" 
d="M874 25q208 0 373 108.5t246 290.5h51q-83 -206 -261.5 -325t-403.5 -119h-39l-68 -158q35 -1 72 -9.5t76 -27.5t63.5 -55.5t24.5 -85.5q0 -84 -68.5 -130t-179.5 -46q-73 0 -123 10v45q50 -10 121 -10q93 0 148 32.5t55 96.5q0 67 -64.5 103t-187.5 36l88 203
q-187 19 -336 117.5t-233.5 259.5t-84.5 356q0 210 96.5 379t264.5 263.5t375 94.5q225 0 403.5 -119t261.5 -325h-51q-81 182 -246 290.5t-373 108.5q-189 0 -346 -91t-247.5 -250t-90.5 -351t90.5 -351t247.5 -250t346 -91z" />
    <glyph glyph-name="Egrave" unicode="&#xc8;" horiz-adv-x="1165" 
d="M772 1612l-37 -35l-342 342l35 37zM1063 1389h-811v-621h766v-45h-766v-678h811v-45h-858v1434h858v-45z" />
    <glyph glyph-name="Eacute" unicode="&#xc9;" horiz-adv-x="1165" 
d="M772 1919l-344 -342l-35 35l342 344zM1063 1389h-811v-621h766v-45h-766v-678h811v-45h-858v1434h858v-45z" />
    <glyph glyph-name="Ecircumflex" unicode="&#xca;" horiz-adv-x="1165" 
d="M582 1884l-308 -307l-34 35l342 344l344 -344l-37 -35zM1063 1389h-811v-621h766v-45h-766v-678h811v-45h-858v1434h858v-45z" />
    <glyph glyph-name="Edieresis" unicode="&#xcb;" horiz-adv-x="1165" 
d="M350 1720q-23 0 -39 16.5t-16 39.5t16 39t39 16t39.5 -16t16.5 -39t-16.5 -39.5t-39.5 -16.5zM813 1720q-23 0 -39 16.5t-16 39.5t16 39t39 16t40 -16t17 -39t-17 -39.5t-40 -16.5zM1063 1389h-811v-621h766v-45h-766v-678h811v-45h-858v1434h858v-45z" />
    <glyph glyph-name="Igrave" unicode="&#xcc;" horiz-adv-x="458" 
d="M74 1956l344 -344l-37 -35l-342 342zM207 0v1434h47v-1434h-47z" />
    <glyph glyph-name="Iacute" unicode="&#xcd;" horiz-adv-x="458" 
d="M381 1956l37 -37l-344 -342l-35 35zM207 0v1434h47v-1434h-47z" />
    <glyph glyph-name="Icircumflex" unicode="&#xce;" horiz-adv-x="458" 
d="M571 1612l-36 -35l-308 307l-307 -307l-35 35l342 344zM207 0v1434h47v-1434h-47z" />
    <glyph glyph-name="Idieresis" unicode="&#xcf;" horiz-adv-x="458" 
d="M-4 1831q23 0 39 -16t16 -39t-16 -39.5t-39 -16.5t-39 16.5t-16 39.5t16 39t39 16zM459 1831q23 0 40 -16t17 -39t-17 -39.5t-40 -16.5t-39.5 16.5t-16.5 39.5t16.5 39t39.5 16zM207 0v1434h47v-1434h-47z" />
    <glyph glyph-name="Eth" unicode="&#xd0;" horiz-adv-x="1536" 
d="M657 1434q155 0 291 -52.5t234 -145.5t154.5 -227.5t56.5 -291.5q0 -207 -97.5 -371.5t-265 -255t-373.5 -90.5h-452v694h-174v45h174v695h452zM662 45q142 0 268 50t217 138t144.5 213.5t54.5 270.5q0 192 -91 346.5t-247 240t-346 85.5h-410v-650h356v-45h-356v-649
h410z" />
    <glyph glyph-name="Ntilde" unicode="&#xd1;" horiz-adv-x="1507" 
d="M571 1862q-35 0 -57.5 -15.5t-33.5 -47.5t-15 -66.5t-4 -85.5h-47q0 260 159 260q48 0 86.5 -26t108.5 -97q10 -10 33 -34t33 -33t28 -22.5t35 -18.5t37 -5q35 0 57.5 15.5t33.5 47.5t15 66.5t4 85.5h48q0 -260 -160 -260q-48 0 -86.5 26t-108.5 97q-10 10 -33 34t-33 33
t-28 22.5t-35 18.5t-37 5zM1266 1434h47v-1434h-82l-989 1399v-1399h-47v1434h79l992 -1399v1399z" />
    <glyph glyph-name="Ograve" unicode="&#xd2;" horiz-adv-x="1753" 
d="M721 1956l344 -344l-37 -35l-342 342zM879 1454q203 0 370.5 -95.5t264 -264.5t96.5 -377t-96.5 -377t-264.5 -264.5t-372 -95.5q-152 0 -288 56.5t-234 153.5t-155 234.5t-57 292.5q0 156 57 293t155 234t234.5 153.5t289.5 56.5zM877 1409q-189 0 -346 -90.5
t-247.5 -249.5t-90.5 -352t90.5 -352t247.5 -249.5t346 -90.5t346.5 90t248.5 249t91 353t-91 353t-248.5 249t-346.5 90z" />
    <glyph glyph-name="Oacute" unicode="&#xd3;" horiz-adv-x="1753" 
d="M1028 1956l37 -37l-344 -342l-35 35zM879 1454q203 0 370.5 -95.5t264 -264.5t96.5 -377t-96.5 -377t-264.5 -264.5t-372 -95.5q-152 0 -288 56.5t-234 153.5t-155 234.5t-57 292.5q0 156 57 293t155 234t234.5 153.5t289.5 56.5zM877 1409q-189 0 -346 -90.5
t-247.5 -249.5t-90.5 -352t90.5 -352t247.5 -249.5t346 -90.5t346.5 90t248.5 249t91 353t-91 353t-248.5 249t-346.5 90z" />
    <glyph glyph-name="Ocircumflex" unicode="&#xd4;" horiz-adv-x="1753" 
d="M1219 1612l-37 -35l-308 307l-307 -307l-35 35l342 344zM879 1454q203 0 370.5 -95.5t264 -264.5t96.5 -377t-96.5 -377t-264.5 -264.5t-372 -95.5q-152 0 -288 56.5t-234 153.5t-155 234.5t-57 292.5q0 156 57 293t155 234t234.5 153.5t289.5 56.5zM877 1409
q-189 0 -346 -90.5t-247.5 -249.5t-90.5 -352t90.5 -352t247.5 -249.5t346 -90.5t346.5 90t248.5 249t91 353t-91 353t-248.5 249t-346.5 90z" />
    <glyph glyph-name="Otilde" unicode="&#xd5;" horiz-adv-x="1753" 
d="M1167 1886h47q0 -260 -159 -260q-48 0 -86.5 26t-108.5 97q-10 10 -33 34t-33 33t-28 22.5t-35 18.5t-37 5q-35 0 -57.5 -15.5t-33.5 -47.5t-15 -66.5t-4 -85.5h-47q0 260 159 260q48 0 86.5 -26t108.5 -97q10 -10 33 -34t33 -33t28 -22.5t35 -18.5t37 -5q35 0 57.5 15.5
t33.5 47.5t15 66.5t4 85.5zM879 1454q203 0 370.5 -95.5t264 -264.5t96.5 -377t-96.5 -377t-264.5 -264.5t-372 -95.5q-152 0 -288 56.5t-234 153.5t-155 234.5t-57 292.5q0 156 57 293t155 234t234.5 153.5t289.5 56.5zM877 1409q-189 0 -346 -90.5t-247.5 -249.5
t-90.5 -352t90.5 -352t247.5 -249.5t346 -90.5t346.5 90t248.5 249t91 353t-91 353t-248.5 249t-346.5 90z" />
    <glyph glyph-name="Odieresis" unicode="&#xd6;" horiz-adv-x="1753" 
d="M643 1831q23 0 39 -16t16 -39t-16 -39.5t-39 -16.5t-39 16.5t-16 39.5t16 39t39 16zM1106 1831q23 0 40 -16t17 -39t-17 -39.5t-40 -16.5t-39 16.5t-16 39.5t16 39t39 16zM879 1454q203 0 370.5 -95.5t264 -264.5t96.5 -377t-96.5 -377t-264.5 -264.5t-372 -95.5
q-152 0 -288 56.5t-234 153.5t-155 234.5t-57 292.5q0 156 57 293t155 234t234.5 153.5t289.5 56.5zM877 1409q-189 0 -346 -90.5t-247.5 -249.5t-90.5 -352t90.5 -352t247.5 -249.5t346 -90.5t346.5 90t248.5 249t91 353t-91 353t-248.5 249t-346.5 90z" />
    <glyph glyph-name="multiply" unicode="&#xd7;" horiz-adv-x="1419" 
d="M1180 1126l34 -32l-473 -469l473 -473l-34 -33l-471 473l-471 -473l-33 33l471 473l-471 469l33 32l471 -469z" />
    <glyph glyph-name="Oslash" unicode="&#xd8;" horiz-adv-x="1753" 
d="M1233 1366q173 -92 275 -264t102 -385q0 -208 -96.5 -377t-264.5 -264.5t-372 -95.5q-173 0 -320 69l-61 -121h-50l72 140q-172 94 -273.5 265.5t-101.5 383.5q0 156 57 293t155 234t234.5 153.5t289.5 56.5q166 0 315 -68l61 119h50zM193 717q0 -196 94 -356.5
t254 -249.5l633 1232q-138 66 -297 66q-189 0 -346 -90.5t-247.5 -249.5t-90.5 -352zM877 25q189 0 346.5 90t248.5 249t91 353q0 197 -95.5 358.5t-255.5 249.5l-632 -1235q140 -65 297 -65z" />
    <glyph glyph-name="Ugrave" unicode="&#xd9;" horiz-adv-x="1484" 
d="M588 1956l344 -344l-37 -35l-342 342zM1241 1434h49v-883q0 -141 -41.5 -251.5t-115.5 -179.5t-171.5 -104.5t-213.5 -35.5t-213.5 35.5t-172 104.5t-116 179.5t-41.5 251.5v883h49v-883q0 -131 38 -233t105.5 -165t156.5 -95.5t194 -32.5t193.5 32.5t156 95.5t105.5 165
t38 233v883z" />
    <glyph glyph-name="Uacute" unicode="&#xda;" horiz-adv-x="1484" 
d="M895 1956l37 -37l-344 -342l-35 35zM1241 1434h49v-883q0 -141 -41.5 -251.5t-115.5 -179.5t-171.5 -104.5t-213.5 -35.5t-213.5 35.5t-172 104.5t-116 179.5t-41.5 251.5v883h49v-883q0 -131 38 -233t105.5 -165t156.5 -95.5t194 -32.5t193.5 32.5t156 95.5t105.5 165
t38 233v883z" />
    <glyph glyph-name="Ucircumflex" unicode="&#xdb;" horiz-adv-x="1484" 
d="M1085 1612l-36 -35l-308 307l-307 -307l-35 35l342 344zM1241 1434h49v-883q0 -141 -41.5 -251.5t-115.5 -179.5t-171.5 -104.5t-213.5 -35.5t-213.5 35.5t-172 104.5t-116 179.5t-41.5 251.5v883h49v-883q0 -131 38 -233t105.5 -165t156.5 -95.5t194 -32.5t193.5 32.5
t156 95.5t105.5 165t38 233v883z" />
    <glyph glyph-name="Udieresis" unicode="&#xdc;" horiz-adv-x="1484" 
d="M510 1831q23 0 39 -16t16 -39t-16 -39.5t-39 -16.5t-39 16.5t-16 39.5t16 39t39 16zM973 1831q23 0 40 -16t17 -39t-17 -39.5t-40 -16.5t-39 16.5t-16 39.5t16 39t39 16zM1241 1434h49v-883q0 -141 -41.5 -251.5t-115.5 -179.5t-171.5 -104.5t-213.5 -35.5t-213.5 35.5
t-172 104.5t-116 179.5t-41.5 251.5v883h49v-883q0 -131 38 -233t105.5 -165t156.5 -95.5t194 -32.5t193.5 32.5t156 95.5t105.5 165t38 233v883z" />
    <glyph glyph-name="Yacute" unicode="&#xdd;" horiz-adv-x="1316" 
d="M848 1919l-344 -342l-35 35l342 344zM1235 1434l-551 -873v-561h-49v557l-553 877h57l520 -824l519 824h57z" />
    <glyph glyph-name="Thorn" unicode="&#xde;" horiz-adv-x="1378" 
d="M754 1212q119 0 213 -36t151.5 -97.5t87 -138.5t29.5 -164q0 -69 -18 -133.5t-57 -121t-94.5 -98.5t-135.5 -66.5t-176 -24.5h-500v-332h-49v1434h49v-222h500zM754 377q109 0 194 33.5t136.5 90.5t77.5 127t26 148t-26 147t-77.5 124.5t-136.5 87.5t-194 32h-500v-790
h500z" />
    <glyph glyph-name="germandbls" unicode="&#xdf;" horiz-adv-x="1239" 
d="M819 834q162 -35 245 -149t83 -271q0 -138 -64.5 -237.5t-175 -148t-254.5 -48.5q-174 0 -278 38l10 45q99 -38 268 -38q201 0 324 100.5t123 286.5q0 79 -24 148t-73 124t-132 87t-191 32h-205v45h148q105 0 185.5 26.5t129.5 74t73.5 108.5t24.5 133q0 158 -107.5 260
t-293.5 102q-191 0 -297.5 -111t-106.5 -304v-1137h-47v1137q0 209 120.5 334.5t330.5 125.5q204 0 326 -115t122 -288q0 -126 -68 -224.5t-196 -135.5z" />
    <glyph glyph-name="agrave" unicode="&#xe0;" horiz-adv-x="1406" 
d="M893 1378l-37 -35l-342 343l35 36zM1176 1126h47v-1126h-47v315q-67 -154 -203.5 -244.5t-308.5 -90.5q-158 0 -282 75.5t-191.5 208t-67.5 299.5t67.5 300t191.5 208.5t282 75.5q172 0 308.5 -91t203.5 -245v315zM662 25q221 0 368.5 153t147.5 385t-147.5 385.5
t-368.5 153.5q-218 0 -355 -152.5t-137 -386.5t137 -386t355 -152z" />
    <glyph glyph-name="aacute" unicode="&#xe1;" horiz-adv-x="1406" 
d="M893 1686l-344 -343l-35 35l342 344zM1176 1126h47v-1126h-47v315q-67 -154 -203.5 -244.5t-308.5 -90.5q-158 0 -282 75.5t-191.5 208t-67.5 299.5t67.5 300t191.5 208.5t282 75.5q172 0 308.5 -91t203.5 -245v315zM662 25q221 0 368.5 153t147.5 385t-147.5 385.5
t-368.5 153.5q-218 0 -355 -152.5t-137 -386.5t137 -386t355 -152z" />
    <glyph glyph-name="acircumflex" unicode="&#xe2;" horiz-adv-x="1406" 
d="M702 1651l-307 -308l-35 35l342 344l345 -344l-37 -35zM1176 1126h47v-1126h-47v315q-67 -154 -203.5 -244.5t-308.5 -90.5q-158 0 -282 75.5t-191.5 208t-67.5 299.5t67.5 300t191.5 208.5t282 75.5q172 0 308.5 -91t203.5 -245v315zM662 25q221 0 368.5 153t147.5 385
t-147.5 385.5t-368.5 153.5q-218 0 -355 -152.5t-137 -386.5t137 -386t355 -152z" />
    <glyph glyph-name="atilde" unicode="&#xe3;" horiz-adv-x="1406" 
d="M522 1628q-35 0 -57.5 -15.5t-33.5 -47.5t-15 -66.5t-4 -85.5h-47q0 260 159 260q48 0 86.5 -26t108.5 -97q9 -9 33 -34t33 -33t27.5 -22t35.5 -18.5t37 -4.5q35 0 57.5 15.5t33.5 47.5t15 66.5t4 85.5h47q0 -260 -159 -260q-48 0 -86.5 26t-108.5 97q-9 9 -33 34t-33 33
t-27.5 22t-35.5 18.5t-37 4.5zM1176 1126h47v-1126h-47v315q-67 -154 -203.5 -244.5t-308.5 -90.5q-158 0 -282 75.5t-191.5 208t-67.5 299.5t67.5 300t191.5 208.5t282 75.5q172 0 308.5 -91t203.5 -245v315zM662 25q221 0 368.5 153t147.5 385t-147.5 385.5t-368.5 153.5
q-218 0 -355 -152.5t-137 -386.5t137 -386t355 -152z" />
    <glyph glyph-name="adieresis" unicode="&#xe4;" horiz-adv-x="1406" 
d="M471 1487q-23 0 -39 16t-16 39t16 39t39 16t39 -16t16 -39t-16 -39t-39 -16zM934 1487q-23 0 -39 16t-16 39t16 39t39 16t40 -16t17 -39t-17 -39t-40 -16zM1176 1126h47v-1126h-47v315q-67 -154 -203.5 -244.5t-308.5 -90.5q-158 0 -282 75.5t-191.5 208t-67.5 299.5
t67.5 300t191.5 208.5t282 75.5q172 0 308.5 -91t203.5 -245v315zM662 25q221 0 368.5 153t147.5 385t-147.5 385.5t-368.5 153.5q-218 0 -355 -152.5t-137 -386.5t137 -386t355 -152z" />
    <glyph glyph-name="aring" unicode="&#xe5;" horiz-adv-x="1406" 
d="M705 1343q-95 0 -162.5 67.5t-67.5 162.5q0 97 66.5 163t163.5 66t163.5 -66.5t65.5 -162.5q1 -95 -66.5 -162.5t-162.5 -67.5zM705 1757q-76 0 -129.5 -53.5t-53.5 -130.5q2 -77 55 -130.5t128 -53.5t128.5 54t53.5 130q0 78 -52.5 131t-129.5 53zM1176 1126h47v-1126
h-47v315q-67 -154 -203.5 -244.5t-308.5 -90.5q-158 0 -282 75.5t-191.5 208t-67.5 299.5t67.5 300t191.5 208.5t282 75.5q172 0 308.5 -91t203.5 -245v315zM662 25q221 0 368.5 153t147.5 385t-147.5 385.5t-368.5 153.5q-218 0 -355 -152.5t-137 -386.5t137 -386t355 -152
z" />
    <glyph glyph-name="ae" unicode="&#xe6;" horiz-adv-x="2392" 
d="M1749 25q153 0 274.5 64.5t182.5 184.5h51q-65 -144 -202 -219t-306 -75q-185 0 -324 88t-202 245v-313h-47v315q-67 -154 -203.5 -244.5t-308.5 -90.5q-158 0 -282 75.5t-191.5 208t-67.5 299.5t67.5 300t191.5 208.5t282 75.5q172 0 308.5 -91t203.5 -245v315h47v-323
q64 160 201 252t317 92q254 0 401.5 -165.5t147.5 -438.5h-1065q5 -157 73 -275t185 -180.5t266 -62.5zM662 25q221 0 368.5 153t147.5 385t-147.5 385.5t-368.5 153.5q-218 0 -355 -152.5t-137 -386.5t137 -386t355 -152zM1741 1102q-218 0 -362.5 -143.5t-153.5 -370.5
h1018q-8 226 -146 370t-356 144z" />
    <glyph glyph-name="ccedilla" unicode="&#xe7;" horiz-adv-x="1333" 
d="M698 25q169 0 298.5 91.5t183.5 239.5h51q-59 -171 -203.5 -273.5t-329.5 -102.5h-10l-67 -158q35 -1 72 -9.5t75.5 -27.5t63 -55.5t24.5 -85.5q0 -84 -68.5 -130t-179.5 -46q-73 0 -123 10v45q50 -10 121 -10q93 0 148 32.5t55 96.5q0 67 -64.5 103t-187.5 36l86 201
q-223 21 -371.5 183.5t-148.5 397.5q0 124 45 233.5t122.5 186t183.5 120.5t224 44q185 0 329.5 -103t203.5 -274h-51q-54 148 -184 240t-298 92q-109 0 -206.5 -41t-168 -112t-112 -171.5t-41.5 -214.5q0 -152 70 -275.5t191 -193t267 -69.5z" />
    <glyph glyph-name="egrave" unicode="&#xe8;" horiz-adv-x="1337" 
d="M862 1378l-37 -35l-342 343l35 36zM694 25q153 0 274.5 64.5t182.5 184.5h51q-65 -144 -202 -219t-306 -75q-250 0 -410.5 158.5t-160.5 418.5q0 259 159 424.5t404 165.5q254 0 401.5 -165.5t147.5 -438.5h-1065q5 -157 73 -275t185 -180.5t266 -62.5zM686 1102
q-218 0 -362.5 -143.5t-153.5 -370.5h1018q-8 226 -146 370t-356 144z" />
    <glyph glyph-name="eacute" unicode="&#xe9;" horiz-adv-x="1337" 
d="M862 1686l-344 -343l-35 35l342 344zM694 25q153 0 274.5 64.5t182.5 184.5h51q-65 -144 -202 -219t-306 -75q-250 0 -410.5 158.5t-160.5 418.5q0 259 159 424.5t404 165.5q254 0 401.5 -165.5t147.5 -438.5h-1065q5 -157 73 -275t185 -180.5t266 -62.5zM686 1102
q-218 0 -362.5 -143.5t-153.5 -370.5h1018q-8 226 -146 370t-356 144z" />
    <glyph glyph-name="ecircumflex" unicode="&#xea;" horiz-adv-x="1337" 
d="M672 1651l-307 -308l-35 35l342 344l344 -344l-37 -35zM694 25q153 0 274.5 64.5t182.5 184.5h51q-65 -144 -202 -219t-306 -75q-250 0 -410.5 158.5t-160.5 418.5q0 259 159 424.5t404 165.5q254 0 401.5 -165.5t147.5 -438.5h-1065q5 -157 73 -275t185 -180.5
t266 -62.5zM686 1102q-218 0 -362.5 -143.5t-153.5 -370.5h1018q-8 226 -146 370t-356 144z" />
    <glyph glyph-name="edieresis" unicode="&#xeb;" horiz-adv-x="1337" 
d="M440 1487q-23 0 -39 16t-16 39t16 39t39 16t39.5 -16t16.5 -39t-16.5 -39t-39.5 -16zM903 1487q-23 0 -39 16t-16 39t16 39t39 16q24 0 41 -16t17 -39t-17 -39t-41 -16zM694 25q153 0 274.5 64.5t182.5 184.5h51q-65 -144 -202 -219t-306 -75q-250 0 -410.5 158.5
t-160.5 418.5q0 259 159 424.5t404 165.5q254 0 401.5 -165.5t147.5 -438.5h-1065q5 -157 73 -275t185 -180.5t266 -62.5zM686 1102q-218 0 -362.5 -143.5t-153.5 -370.5h1018q-8 226 -146 370t-356 144z" />
    <glyph glyph-name="igrave" unicode="&#xec;" horiz-adv-x="415" 
d="M53 1722l344 -344l-37 -35l-342 343zM184 0v1126h47v-1126h-47z" />
    <glyph glyph-name="iacute" unicode="&#xed;" horiz-adv-x="415" 
d="M360 1722l37 -36l-344 -343l-35 35zM184 0v1126h47v-1126h-47z" />
    <glyph glyph-name="icircumflex" unicode="&#xee;" horiz-adv-x="415" 
d="M551 1378l-37 -35l-307 308l-307 -308l-35 35l342 344zM184 0v1126h47v-1126h-47z" />
    <glyph glyph-name="idieresis" unicode="&#xef;" horiz-adv-x="415" 
d="M-25 1597q23 0 39.5 -16t16.5 -39t-16.5 -39t-39.5 -16t-39 16t-16 39t16 39t39 16zM438 1597q24 0 41 -16t17 -39t-17 -39t-41 -16q-23 0 -39 16t-16 39t16 39t39 16zM184 0v1126h47v-1126h-47z" />
    <glyph glyph-name="eth" unicode="&#xf0;" horiz-adv-x="1378" 
d="M1255 1520l-188 -164q188 -235 188 -789q-3 -175 -75 -309t-198 -206t-286 -72t-290.5 72.5t-206.5 207t-76 305.5q0 248 153 403.5t390 155.5q177 0 323 -90.5t213 -257.5q-12 159 -42 280t-82 206.5t-118 142t-158 89t-192.5 45.5t-232.5 13v45q231 0 393 -45.5
t268 -160.5l189 161zM696 25q224 0 368 149t144 393q0 114 -45.5 211.5t-121 162.5t-173 101.5t-202.5 36.5q-216 0 -356 -142.5t-140 -371.5q0 -160 71 -284.5t190 -190t265 -65.5z" />
    <glyph glyph-name="ntilde" unicode="&#xf1;" horiz-adv-x="1269" 
d="M453 1628q-28 0 -48.5 -11t-32.5 -29.5t-18.5 -47t-9 -58t-2.5 -69.5h-47q0 260 160 260q48 0 86 -25.5t108 -97.5q9 -9 33 -34t33 -33t27.5 -22t35.5 -18.5t37 -4.5q28 0 48.5 11t32.5 29.5t18.5 47t9 58t2.5 69.5h47q0 -260 -160 -260q-48 0 -86.5 26t-108.5 97
q-10 10 -33 34t-32.5 33t-27.5 22.5t-35 18t-37 4.5zM690 1147q192 0 299 -110.5t107 -315.5v-721h-47v721q0 187 -95.5 284t-261.5 97q-215 0 -338 -150t-123 -389v-563h-47v1126h47v-311q50 152 166 242t293 90z" />
    <glyph glyph-name="ograve" unicode="&#xf2;" horiz-adv-x="1392" 
d="M541 1722l344 -344l-37 -35l-342 343zM696 1147q117 0 223 -44.5t183 -121t122.5 -185.5t45.5 -233q0 -165 -76 -299t-207.5 -209t-290.5 -75q-158 0 -289 75t-207.5 209t-76.5 299q0 124 45.5 233.5t122.5 186t182.5 120.5t222.5 44zM696 1102q-107 0 -204 -40.5
t-168 -111t-112.5 -171.5t-41.5 -216q0 -230 152.5 -384t373.5 -154q145 0 265.5 69t191 193t70.5 276t-71 276.5t-191.5 193.5t-264.5 69z" />
    <glyph glyph-name="oacute" unicode="&#xf3;" horiz-adv-x="1392" 
d="M848 1722l37 -36l-344 -343l-35 35zM696 1147q117 0 223 -44.5t183 -121t122.5 -185.5t45.5 -233q0 -165 -76 -299t-207.5 -209t-290.5 -75q-158 0 -289 75t-207.5 209t-76.5 299q0 124 45.5 233.5t122.5 186t182.5 120.5t222.5 44zM696 1102q-107 0 -204 -40.5
t-168 -111t-112.5 -171.5t-41.5 -216q0 -230 152.5 -384t373.5 -154q145 0 265.5 69t191 193t70.5 276t-71 276.5t-191.5 193.5t-264.5 69z" />
    <glyph glyph-name="ocircumflex" unicode="&#xf4;" horiz-adv-x="1392" 
d="M1038 1378l-37 -35l-307 308l-307 -308l-35 35l342 344zM696 1147q117 0 223 -44.5t183 -121t122.5 -185.5t45.5 -233q0 -165 -76 -299t-207.5 -209t-290.5 -75q-158 0 -289 75t-207.5 209t-76.5 299q0 124 45.5 233.5t122.5 186t182.5 120.5t222.5 44zM696 1102
q-107 0 -204 -40.5t-168 -111t-112.5 -171.5t-41.5 -216q0 -230 152.5 -384t373.5 -154q145 0 265.5 69t191 193t70.5 276t-71 276.5t-191.5 193.5t-264.5 69z" />
    <glyph glyph-name="otilde" unicode="&#xf5;" horiz-adv-x="1392" 
d="M987 1653h47q0 -260 -160 -260q-48 0 -86 25.5t-108 97.5q-9 9 -33 34t-33 33t-27.5 22t-35.5 18.5t-37 4.5q-28 0 -48.5 -11t-32.5 -29.5t-18.5 -47t-9 -58t-2.5 -69.5h-47q0 260 160 260q48 0 86.5 -26t108.5 -97q9 -9 33 -34t33 -33t27.5 -22t35.5 -18.5t37 -4.5
q35 0 57.5 15.5t33.5 47.5t15 66.5t4 85.5zM696 1147q117 0 223 -44.5t183 -121t122.5 -185.5t45.5 -233q0 -165 -76 -299t-207.5 -209t-290.5 -75q-158 0 -289 75t-207.5 209t-76.5 299q0 124 45.5 233.5t122.5 186t182.5 120.5t222.5 44zM696 1102q-107 0 -204 -40.5
t-168 -111t-112.5 -171.5t-41.5 -216q0 -230 152.5 -384t373.5 -154q145 0 265.5 69t191 193t70.5 276t-71 276.5t-191.5 193.5t-264.5 69z" />
    <glyph glyph-name="odieresis" unicode="&#xf6;" horiz-adv-x="1392" 
d="M463 1597q23 0 39 -16t16 -39t-16 -39t-39 -16t-39 16t-16 39t16 39t39 16zM926 1597q23 0 40 -16t17 -39t-17 -39t-40 -16t-39.5 16t-16.5 39t16.5 39t39.5 16zM696 1147q117 0 223 -44.5t183 -121t122.5 -185.5t45.5 -233q0 -165 -76 -299t-207.5 -209t-290.5 -75
q-158 0 -289 75t-207.5 209t-76.5 299q0 124 45.5 233.5t122.5 186t182.5 120.5t222.5 44zM696 1102q-107 0 -204 -40.5t-168 -111t-112.5 -171.5t-41.5 -216q0 -230 152.5 -384t373.5 -154q145 0 265.5 69t191 193t70.5 276t-71 276.5t-191.5 193.5t-264.5 69z" />
    <glyph glyph-name="divide" unicode="&#xf7;" horiz-adv-x="1435" 
d="M719 989q23 0 39 -17t16 -40t-16 -39t-39 -16q-25 0 -41 16t-16 39q0 24 16.5 40.5t40.5 16.5zM1231 649v-45h-1026v45h1026zM719 377q23 0 39 -16t16 -39t-16 -39.5t-39 -16.5q-25 0 -41 16t-16 40q0 23 16 39t41 16z" />
    <glyph glyph-name="oslash" unicode="&#xf8;" horiz-adv-x="1392" 
d="M1053 1026q101 -80 159 -200t58 -263q0 -165 -76 -299t-207.5 -209t-290.5 -75q-182 0 -325 98l-56 -78h-49l74 102q-102 80 -159.5 199.5t-57.5 261.5q0 124 45.5 233.5t122.5 186t182.5 120.5t222.5 44q181 0 324 -98l55 77h49zM170 563q0 -130 52.5 -240.5
t144.5 -183.5l626 873q-133 90 -297 90q-107 0 -204 -40.5t-168 -111t-112.5 -171.5t-41.5 -216zM696 25q145 0 265.5 69t191 193t70.5 276q0 131 -52.5 241.5t-144.5 184.5l-629 -874q136 -90 299 -90z" />
    <glyph glyph-name="ugrave" unicode="&#xf9;" horiz-adv-x="1249" 
d="M813 1378l-37 -35l-342 343l35 36zM1028 1126h47v-1126h-47v311q-49 -150 -164 -240.5t-291 -90.5q-190 0 -294.5 110.5t-104.5 315.5v720h47v-720q0 -187 92.5 -284t257.5 -97q212 0 334.5 149.5t122.5 388.5v563z" />
    <glyph glyph-name="uacute" unicode="&#xfa;" horiz-adv-x="1249" 
d="M813 1686l-344 -343l-35 35l342 344zM1028 1126h47v-1126h-47v311q-49 -150 -164 -240.5t-291 -90.5q-190 0 -294.5 110.5t-104.5 315.5v720h47v-720q0 -187 92.5 -284t257.5 -97q212 0 334.5 149.5t122.5 388.5v563z" />
    <glyph glyph-name="ucircumflex" unicode="&#xfb;" horiz-adv-x="1249" 
d="M623 1651l-308 -308l-34 35l342 344l344 -344l-37 -35zM1028 1126h47v-1126h-47v311q-49 -150 -164 -240.5t-291 -90.5q-190 0 -294.5 110.5t-104.5 315.5v720h47v-720q0 -187 92.5 -284t257.5 -97q212 0 334.5 149.5t122.5 388.5v563z" />
    <glyph glyph-name="udieresis" unicode="&#xfc;" horiz-adv-x="1249" 
d="M391 1487q-23 0 -39 16t-16 39t16 39t39 16t39 -16t16 -39t-16 -39t-39 -16zM854 1487q-23 0 -39 16t-16 39t16 39t39 16t40 -16t17 -39t-17 -39t-40 -16zM1028 1126h47v-1126h-47v311q-49 -150 -164 -240.5t-291 -90.5q-190 0 -294.5 110.5t-104.5 315.5v720h47v-720
q0 -187 92.5 -284t257.5 -97q212 0 334.5 149.5t122.5 388.5v563z" />
    <glyph glyph-name="yacute" unicode="&#xfd;" horiz-adv-x="1138" 
d="M758 1686l-344 -343l-35 35l342 344zM1024 1126h53l-786 -1638h-53l305 635l-482 1003h54l454 -948z" />
    <glyph glyph-name="thorn" unicode="&#xfe;" horiz-adv-x="1417" 
d="M754 1147q119 0 220 -44t171 -121.5t109.5 -185.5t39.5 -233q0 -167 -67.5 -299.5t-191 -208t-281.5 -75.5q-172 0 -308.5 90.5t-203.5 244.5v-827h-47v2089h47v-766q67 154 203.5 245t308.5 91zM756 25q218 0 354.5 152t136.5 386q0 154 -61 276.5t-173.5 192.5
t-256.5 70q-221 0 -368.5 -153.5t-147.5 -385.5t147.5 -385t368.5 -153z" />
    <glyph glyph-name="ydieresis" unicode="&#xff;" horiz-adv-x="1138" 
d="M336 1487q-23 0 -39 16t-16 39t16 39t39 16t39 -16t16 -39t-16 -39t-39 -16zM799 1487q-23 0 -39.5 16t-16.5 39t16.5 39t39.5 16t40 -16t17 -39t-17 -39t-40 -16zM1024 1126h53l-786 -1638h-53l305 635l-482 1003h54l454 -948z" />
    <glyph glyph-name="Amacron" unicode="&#x100;" horiz-adv-x="1454" 
d="M983 1810v-45h-514v45h514zM1321 0l-221 522h-746l-221 -522h-51l610 1434h70l610 -1434h-51zM375 567h704l-352 834z" />
    <glyph glyph-name="amacron" unicode="&#x101;" horiz-adv-x="1406" 
d="M961 1577v-45h-515v45h515zM1176 1126h47v-1126h-47v315q-67 -154 -203.5 -244.5t-308.5 -90.5q-158 0 -282 75.5t-191.5 208t-67.5 299.5t67.5 300t191.5 208.5t282 75.5q172 0 308.5 -91t203.5 -245v315zM662 25q221 0 368.5 153t147.5 385t-147.5 385.5t-368.5 153.5
q-218 0 -355 -152.5t-137 -386.5t137 -386t355 -152z" />
    <glyph glyph-name="Abreve" unicode="&#x102;" horiz-adv-x="1454" 
d="M725 1616q-137 0 -225 81.5t-88 213.5v18h49v-14q0 -116 71.5 -184t192.5 -68q122 0 194 67.5t72 184.5v14h49v-18q0 -132 -89 -213.5t-226 -81.5zM1321 0l-221 522h-746l-221 -522h-51l610 1434h70l610 -1434h-51zM375 567h704l-352 834z" />
    <glyph glyph-name="abreve" unicode="&#x103;" horiz-adv-x="1406" 
d="M702 1382q-137 0 -225 81.5t-88 213.5v19h49v-15q0 -116 71.5 -183.5t192.5 -67.5q122 0 194.5 67.5t72.5 183.5v15h49v-19q0 -132 -89.5 -213.5t-226.5 -81.5zM1176 1126h47v-1126h-47v315q-67 -154 -203.5 -244.5t-308.5 -90.5q-158 0 -282 75.5t-191.5 208
t-67.5 299.5t67.5 300t191.5 208.5t282 75.5q172 0 308.5 -91t203.5 -245v315zM662 25q221 0 368.5 153t147.5 385t-147.5 385.5t-368.5 153.5q-218 0 -355 -152.5t-137 -386.5t137 -386t355 -152z" />
    <glyph glyph-name="Aogonek" unicode="&#x104;" horiz-adv-x="1454" 
d="M1116 -358q0 -64 41.5 -96.5t110.5 -32.5q54 0 104 10v-45q-50 -10 -106 -10q-88 0 -142.5 46t-54.5 128q0 40 15.5 78t49.5 80.5t73 83t100 99.5q12 11 18 17h-4l-221 522h-746l-221 -522h-51l610 1434h70l610 -1434q-144 -140 -200 -215t-56 -143zM375 567h704
l-352 834z" />
    <glyph glyph-name="aogonek" unicode="&#x105;" horiz-adv-x="1406" 
d="M1223 0q-144 -140 -200 -215t-56 -143q0 -64 41 -96.5t110 -32.5q55 0 105 10v-45q-50 -10 -107 -10q-87 0 -141.5 45.5t-54.5 128.5q0 79 56 155t200 215v303q-67 -154 -203.5 -244.5t-308.5 -90.5q-158 0 -282 75.5t-191.5 208t-67.5 299.5t67.5 300t191.5 208.5
t282 75.5q172 0 308.5 -91t203.5 -245v315h47v-1126zM662 25q221 0 368.5 153t147.5 385t-147.5 385.5t-368.5 153.5q-218 0 -355 -152.5t-137 -386.5t137 -386t355 -152z" />
    <glyph glyph-name="Cacute" unicode="&#x106;" horiz-adv-x="1646" 
d="M975 1956l37 -37l-344 -342l-35 35zM879 -20q-207 0 -375 94.5t-264.5 263.5t-96.5 379t96.5 379t264.5 263.5t375 94.5q225 0 403.5 -119t261.5 -325h-51q-81 182 -246 290.5t-373 108.5q-189 0 -346 -91t-247.5 -250t-90.5 -351t90.5 -351t247.5 -250t346 -91
q208 0 373 108.5t246 290.5h51q-83 -206 -261.5 -325t-403.5 -119z" />
    <glyph glyph-name="cacute" unicode="&#x107;" horiz-adv-x="1333" 
d="M823 1722l37 -36l-344 -343l-35 35zM698 -20q-158 0 -289.5 74.5t-208.5 208.5t-77 300q0 124 45 233.5t122.5 186t183.5 120.5t224 44q185 0 329.5 -103t203.5 -274h-51q-54 148 -184 240t-298 92q-109 0 -206.5 -41t-168 -112t-112 -171.5t-41.5 -214.5
q0 -152 70 -275.5t191 -193t267 -69.5q169 0 298.5 91.5t183.5 239.5h51q-59 -171 -203.5 -273.5t-329.5 -102.5z" />
    <glyph glyph-name="Ccaron" unicode="&#x10c;" horiz-adv-x="1646" 
d="M1165 1919l-344 -342l-342 342l35 37l307 -307l307 307zM879 -20q-207 0 -375 94.5t-264.5 263.5t-96.5 379t96.5 379t264.5 263.5t375 94.5q225 0 403.5 -119t261.5 -325h-51q-81 182 -246 290.5t-373 108.5q-189 0 -346 -91t-247.5 -250t-90.5 -351t90.5 -351
t247.5 -250t346 -91q208 0 373 108.5t246 290.5h51q-83 -206 -261.5 -325t-403.5 -119z" />
    <glyph glyph-name="ccaron" unicode="&#x10d;" horiz-adv-x="1333" 
d="M1014 1686l-344 -343l-342 343l34 36l308 -307l307 307zM698 -20q-158 0 -289.5 74.5t-208.5 208.5t-77 300q0 124 45 233.5t122.5 186t183.5 120.5t224 44q185 0 329.5 -103t203.5 -274h-51q-54 148 -184 240t-298 92q-109 0 -206.5 -41t-168 -112t-112 -171.5
t-41.5 -214.5q0 -152 70 -275.5t191 -193t267 -69.5q169 0 298.5 91.5t183.5 239.5h51q-59 -171 -203.5 -273.5t-329.5 -102.5z" />
    <glyph glyph-name="Dcaron" unicode="&#x10e;" horiz-adv-x="1536" 
d="M999 1919l-344 -342l-342 342l35 37l307 -307l308 307zM657 1434q155 0 291 -52.5t234 -145.5t154.5 -227.5t56.5 -291.5q0 -207 -97.5 -371.5t-265 -255t-373.5 -90.5h-452v1434h452zM662 45q142 0 268 50t217 138t144.5 213.5t54.5 270.5q0 192 -91 346.5t-247 240
t-346 85.5h-410v-1344h410z" />
    <glyph glyph-name="dcaron" unicode="&#x10f;" horiz-adv-x="1406" 
d="M1505 1542q1 -11 -2 -26t-22.5 -78.5t-61.5 -186.5h-51l78 232q-22 3 -36.5 18.5t-14.5 38.5q0 25 16 41t39 16q21 0 36.5 -14t18.5 -41zM1176 811v766h47v-1577h-47v315q-67 -154 -203.5 -244.5t-308.5 -90.5q-158 0 -282 75.5t-191.5 208t-67.5 299.5t67.5 300
t191.5 208.5t282 75.5q172 0 308.5 -91t203.5 -245zM662 25q221 0 368.5 153t147.5 385t-147.5 385.5t-368.5 153.5q-218 0 -355 -152.5t-137 -386.5t137 -386t355 -152z" />
    <glyph glyph-name="Dcroat" unicode="&#x110;" horiz-adv-x="1536" 
d="M657 1434q155 0 291 -52.5t234 -145.5t154.5 -227.5t56.5 -291.5q0 -207 -97.5 -371.5t-265 -255t-373.5 -90.5h-452v694h-174v45h174v695h452zM662 45q142 0 268 50t217 138t144.5 213.5t54.5 270.5q0 192 -91 346.5t-247 240t-346 85.5h-410v-650h356v-45h-356v-649
h410z" />
    <glyph glyph-name="dcroat" unicode="&#x111;" horiz-adv-x="1406" 
d="M1362 1382v-45h-139v-1337h-47v315q-67 -154 -203.5 -244.5t-308.5 -90.5q-158 0 -282 75.5t-191.5 208t-67.5 299.5t67.5 300t191.5 208.5t282 75.5q172 0 308.5 -91t203.5 -245v526h-392v45h392v195h47v-195h139zM662 25q221 0 368.5 153t147.5 385t-147.5 385.5
t-368.5 153.5q-218 0 -355 -152.5t-137 -386.5t137 -386t355 -152z" />
    <glyph glyph-name="Emacron" unicode="&#x112;" horiz-adv-x="1165" 
d="M840 1810v-45h-514v45h514zM1063 1389h-811v-621h766v-45h-766v-678h811v-45h-858v1434h858v-45z" />
    <glyph glyph-name="emacron" unicode="&#x113;" horiz-adv-x="1337" 
d="M930 1577v-45h-514v45h514zM694 25q153 0 274.5 64.5t182.5 184.5h51q-65 -144 -202 -219t-306 -75q-250 0 -410.5 158.5t-160.5 418.5q0 259 159 424.5t404 165.5q254 0 401.5 -165.5t147.5 -438.5h-1065q5 -157 73 -275t185 -180.5t266 -62.5zM686 1102
q-218 0 -362.5 -143.5t-153.5 -370.5h1018q-8 226 -146 370t-356 144z" />
    <glyph glyph-name="Edotaccent" unicode="&#x116;" horiz-adv-x="1165" 
d="M584 1720q-23 0 -39.5 16.5t-16.5 39.5t16.5 39t39.5 16t39 -16t16 -39t-16 -39.5t-39 -16.5zM1063 1389h-811v-621h766v-45h-766v-678h811v-45h-858v1434h858v-45z" />
    <glyph glyph-name="edotaccent" unicode="&#x117;" horiz-adv-x="1337" 
d="M674 1487q-23 0 -39.5 16t-16.5 39t16.5 39t39.5 16t39 -16t16 -39t-16 -39t-39 -16zM694 25q153 0 274.5 64.5t182.5 184.5h51q-65 -144 -202 -219t-306 -75q-250 0 -410.5 158.5t-160.5 418.5q0 259 159 424.5t404 165.5q254 0 401.5 -165.5t147.5 -438.5h-1065
q5 -157 73 -275t185 -180.5t266 -62.5zM686 1102q-218 0 -362.5 -143.5t-153.5 -370.5h1018q-8 226 -146 370t-356 144z" />
    <glyph glyph-name="Eogonek" unicode="&#x118;" horiz-adv-x="1165" 
d="M1063 1389h-811v-621h766v-45h-766v-678h811v-45q-144 -140 -200 -215t-56 -143q0 -64 41 -96.5t110 -32.5q55 0 105 10v-45q-50 -10 -107 -10q-87 0 -141.5 45.5t-54.5 128.5q0 40 15.5 78t49.5 80.5t73 83t100 99.5q12 11 18 17h-811v1434h858v-45z" />
    <glyph glyph-name="eogonek" unicode="&#x119;" horiz-adv-x="1337" 
d="M694 25q153 0 274.5 64.5t182.5 184.5h51q-48 -106 -138 -175.5t-204 -98.5q-144 -140 -200 -215t-56 -143q0 -64 41.5 -96.5t110.5 -32.5q54 0 104 10v-45q-50 -10 -106 -10q-88 0 -142.5 46t-54.5 128q0 75 51 148t176 196q-44 -6 -90 -6q-250 0 -410.5 158.5
t-160.5 418.5q0 259 159 424.5t404 165.5q254 0 401.5 -165.5t147.5 -438.5h-1065q5 -157 73 -275t185 -180.5t266 -62.5zM686 1102q-218 0 -362.5 -143.5t-153.5 -370.5h1018q-8 226 -146 370t-356 144z" />
    <glyph glyph-name="Ecaron" unicode="&#x11a;" horiz-adv-x="1165" 
d="M926 1919l-344 -342l-342 342l34 37l308 -307l307 307zM1063 1389h-811v-621h766v-45h-766v-678h811v-45h-858v1434h858v-45z" />
    <glyph glyph-name="ecaron" unicode="&#x11b;" horiz-adv-x="1337" 
d="M1016 1686l-344 -343l-342 343l35 36l307 -307l307 307zM694 25q153 0 274.5 64.5t182.5 184.5h51q-65 -144 -202 -219t-306 -75q-250 0 -410.5 158.5t-160.5 418.5q0 259 159 424.5t404 165.5q254 0 401.5 -165.5t147.5 -438.5h-1065q5 -157 73 -275t185 -180.5
t266 -62.5zM686 1102q-218 0 -362.5 -143.5t-153.5 -370.5h1018q-8 226 -146 370t-356 144z" />
    <glyph glyph-name="Gcommaaccent" unicode="&#x122;" horiz-adv-x="1748" 
d="M817 713h737v-713h-47v428q-63 -215 -232.5 -331.5t-393.5 -116.5q-207 0 -376 95.5t-265.5 265t-96.5 378.5q0 156 57 293t154.5 234t233.5 152.5t289 55.5q228 0 405.5 -119t261.5 -325h-51q-81 182 -246 290.5t-373 108.5q-189 0 -346 -91t-247.5 -250.5t-90.5 -352.5
t90.5 -351t248.5 -248.5t350 -90.5q183 0 327 81.5t223.5 228.5t75.5 333h-688v45zM893 -166q21 0 36.5 -14t18.5 -41q1 -11 -2 -26t-22.5 -78.5t-61.5 -186.5h-51l78 231q-22 3 -36.5 19t-14.5 39q0 25 16 41t39 16z" />
    <glyph glyph-name="gcommaaccent" unicode="&#x123;" horiz-adv-x="1406" 
d="M692 1343q-21 0 -36.5 14.5t-18.5 41.5q-1 11 2 26t22.5 78.5t61.5 186.5h51l-78 -232q22 -3 37 -18.5t15 -38.5q0 -25 -16.5 -41.5t-39.5 -16.5zM1176 1126h47v-1116q0 -253 -136.5 -397.5t-375.5 -144.5q-194 0 -337 101.5t-196 274.5h51q47 -149 175.5 -240t306.5 -91
q220 0 342.5 132t122.5 365v305q-68 -153 -206 -244t-306 -91q-158 0 -282 75.5t-191.5 208t-67.5 299.5t67.5 300t191.5 208.5t282 75.5q168 0 306 -91.5t206 -244.5v315zM662 25q221 0 368.5 153t147.5 385t-147.5 385.5t-368.5 153.5q-218 0 -355 -152.5t-137 -386.5
t137 -386t355 -152z" />
    <glyph glyph-name="Imacron" unicode="&#x12a;" horiz-adv-x="458" 
d="M485 1810v-45h-514v45h514zM207 0v1434h47v-1434h-47z" />
    <glyph glyph-name="imacron" unicode="&#x12b;" horiz-adv-x="415" 
d="M465 1577v-45h-514v45h514zM184 0v1126h47v-1126h-47z" />
    <glyph glyph-name="Iogonek" unicode="&#x12e;" horiz-adv-x="458" 
d="M254 0q-144 -140 -200 -215t-56 -143q0 -64 41.5 -96.5t110.5 -32.5q54 0 104 10v-45q-50 -10 -107 -10q-87 0 -141.5 45.5t-54.5 128.5q0 40 15.5 78t49.5 80.5t73 83t100 99.5q12 11 18 17v1434h47v-1434z" />
    <glyph glyph-name="iogonek" unicode="&#x12f;" horiz-adv-x="415" 
d="M209 1597q23 0 39 -16t16 -39t-16 -39t-39 -16t-39 16t-16 39t16 39t39 16zM184 12v1114h47v-1126q-144 -140 -200 -215t-56 -143q0 -64 41.5 -96.5t110.5 -32.5q54 0 104 10v-45q-50 -10 -106 -10q-88 0 -142.5 46t-54.5 128q0 79 56 155t200 215z" />
    <glyph glyph-name="dotlessi" unicode="&#x131;" horiz-adv-x="415" 
d="M184 0v1126h47v-1126h-47z" />
    <glyph glyph-name="Kcommaaccent" unicode="&#x136;" horiz-adv-x="1212" 
d="M309 725l821 -725h-69l-809 711v-711h-47v1434h47v-697l790 697h72zM625 -166q21 0 36.5 -14t18.5 -41q1 -11 -2 -26t-22.5 -78.5t-61.5 -186.5h-51l78 231q-22 3 -37 19t-15 39q0 25 16.5 41t39.5 16z" />
    <glyph glyph-name="kcommaaccent" unicode="&#x137;" horiz-adv-x="1120" 
d="M305 594l754 -594h-74l-743 586v-586h-47v1577h47v-975l673 524h74zM580 -166q21 0 36.5 -14t18.5 -41q1 -11 -2 -26t-22.5 -78.5t-61.5 -186.5h-51l77 231q-22 3 -36.5 19t-14.5 39q0 25 16 41t40 16z" />
    <glyph glyph-name="Lacute" unicode="&#x139;" horiz-adv-x="1099" 
d="M739 1919l-344 -342l-35 35l342 344zM252 45h766v-45h-813v1434h47v-1389z" />
    <glyph glyph-name="lacute" unicode="&#x13a;" horiz-adv-x="417" 
d="M360 2099l37 -37l-344 -342l-35 35zM195 0v1577h49v-1577h-49z" />
    <glyph glyph-name="Lcommaaccent" unicode="&#x13b;" horiz-adv-x="1099" 
d="M252 45h766v-45h-813v1434h47v-1389zM569 -166q21 0 37 -14t19 -41q1 -11 -2 -26t-22.5 -78.5t-61.5 -186.5h-52l78 231q-22 3 -36.5 19t-14.5 39q0 25 16 41t39 16z" />
    <glyph glyph-name="lcommaaccent" unicode="&#x13c;" horiz-adv-x="417" 
d="M244 1577v-1577h-49v1577h49zM283 -221q1 -11 -2 -26t-22.5 -78.5t-61.5 -186.5h-52l78 231q-22 3 -36.5 19t-14.5 39q0 25 16 41t39 16q21 0 37 -14t19 -41z" />
    <glyph glyph-name="Lcaron" unicode="&#x13d;" horiz-adv-x="1099" 
d="M719 1108h-51l77 231q-22 3 -36.5 19t-14.5 39q0 25 16 41t40 16q21 0 36.5 -14t18.5 -41q1 -11 -2 -26t-22.5 -78.5t-61.5 -186.5zM252 45h766v-45h-813v1434h47v-1389z" />
    <glyph glyph-name="lcaron" unicode="&#x13e;" horiz-adv-x="417" 
d="M526 1542q1 -11 -2 -26t-22.5 -78.5t-61.5 -186.5h-51l78 232q-22 3 -36.5 18.5t-14.5 38.5q0 25 16 41t39 16q21 0 36.5 -14t18.5 -41zM195 0v1577h49v-1577h-49z" />
    <glyph glyph-name="Lslash" unicode="&#x141;" horiz-adv-x="1099" 
d="M252 45h766v-45h-813v643l-164 -41v47l164 41v744h47v-732l366 91v-48l-366 -90v-610z" />
    <glyph glyph-name="lslash" unicode="&#x142;" horiz-adv-x="417" 
d="M446 764v-47l-202 -51v-666h-49v655l-211 -53v47l211 53v875h49v-864z" />
    <glyph glyph-name="Nacute" unicode="&#x143;" horiz-adv-x="1507" 
d="M942 1919l-344 -342l-35 35l342 344zM1266 1434h47v-1434h-82l-989 1399v-1399h-47v1434h79l992 -1399v1399z" />
    <glyph glyph-name="nacute" unicode="&#x144;" horiz-adv-x="1269" 
d="M823 1686l-344 -343l-35 35l342 344zM690 1147q192 0 299 -110.5t107 -315.5v-721h-47v721q0 187 -95.5 284t-261.5 97q-215 0 -338 -150t-123 -389v-563h-47v1126h47v-311q50 152 166 242t293 90z" />
    <glyph glyph-name="Ncommaaccent" unicode="&#x145;" horiz-adv-x="1507" 
d="M1266 1434h47v-1434h-82l-989 1399v-1399h-47v1434h79l992 -1399v1399zM772 -166q21 0 36.5 -14t18.5 -41q1 -11 -2 -26t-22.5 -78.5t-61.5 -186.5h-51l78 231q-22 3 -36.5 19t-14.5 39q0 25 16 41t39 16z" />
    <glyph glyph-name="ncommaaccent" unicode="&#x146;" horiz-adv-x="1269" 
d="M690 1147q192 0 299 -110.5t107 -315.5v-721h-47v721q0 187 -95.5 284t-261.5 97q-215 0 -338 -150t-123 -389v-563h-47v1126h47v-311q50 152 166 242t293 90zM653 -166q21 0 37 -14t19 -41q1 -11 -2 -26t-22.5 -78.5t-61.5 -186.5h-52l78 231q-22 3 -36.5 19t-14.5 39
q0 25 16 41t39 16z" />
    <glyph glyph-name="Ncaron" unicode="&#x147;" horiz-adv-x="1507" 
d="M1096 1919l-344 -342l-342 342l34 37l308 -307l307 307zM1266 1434h47v-1434h-82l-989 1399v-1399h-47v1434h79l992 -1399v1399z" />
    <glyph glyph-name="ncaron" unicode="&#x148;" horiz-adv-x="1269" 
d="M977 1686l-344 -343l-342 343l35 36l307 -307l307 307zM690 1147q192 0 299 -110.5t107 -315.5v-721h-47v721q0 187 -95.5 284t-261.5 97q-215 0 -338 -150t-123 -389v-563h-47v1126h47v-311q50 152 166 242t293 90z" />
    <glyph glyph-name="Eng" unicode="&#x14a;" horiz-adv-x="1507" 
d="M1266 1434h47v-1434v-86q0 -208 -99 -327t-288 -119q-146 0 -271 55l11 45q127 -55 256 -55q173 0 258.5 104.5t85.5 296.5v86h-35l-989 1399v-1399h-47v1434h79l992 -1399v799v600z" />
    <glyph glyph-name="eng" unicode="&#x14b;" horiz-adv-x="1269" 
d="M690 1147q192 0 299 -110.5t107 -315.5v-721v-86q0 -208 -99 -327t-288 -119q-146 0 -271 55l11 45q127 -55 256 -55q173 0 258.5 104.5t85.5 296.5v252v555q0 187 -95.5 284t-261.5 97q-215 0 -338 -150t-123 -389v-563h-47v1126h47v-311q50 152 166 242t293 90z" />
    <glyph glyph-name="Omacron" unicode="&#x14c;" horiz-adv-x="1753" 
d="M1133 1810v-45h-515v45h515zM879 1454q203 0 370.5 -95.5t264 -264.5t96.5 -377t-96.5 -377t-264.5 -264.5t-372 -95.5q-152 0 -288 56.5t-234 153.5t-155 234.5t-57 292.5q0 156 57 293t155 234t234.5 153.5t289.5 56.5zM877 1409q-189 0 -346 -90.5t-247.5 -249.5
t-90.5 -352t90.5 -352t247.5 -249.5t346 -90.5t346.5 90t248.5 249t91 353t-91 353t-248.5 249t-346.5 90z" />
    <glyph glyph-name="omacron" unicode="&#x14d;" horiz-adv-x="1392" 
d="M952 1577v-45h-514v45h514zM696 1147q117 0 223 -44.5t183 -121t122.5 -185.5t45.5 -233q0 -165 -76 -299t-207.5 -209t-290.5 -75q-158 0 -289 75t-207.5 209t-76.5 299q0 124 45.5 233.5t122.5 186t182.5 120.5t222.5 44zM696 1102q-107 0 -204 -40.5t-168 -111
t-112.5 -171.5t-41.5 -216q0 -230 152.5 -384t373.5 -154q145 0 265.5 69t191 193t70.5 276t-71 276.5t-191.5 193.5t-264.5 69z" />
    <glyph glyph-name="Ohungarumlaut" unicode="&#x150;" horiz-adv-x="1753" 
d="M866 1974l43 -24l-215 -373l-43 25zM1057 1974l43 -24l-215 -373l-43 25zM879 1454q203 0 370.5 -95.5t264 -264.5t96.5 -377t-96.5 -377t-264.5 -264.5t-372 -95.5q-152 0 -288 56.5t-234 153.5t-155 234.5t-57 292.5q0 156 57 293t155 234t234.5 153.5t289.5 56.5z
M877 1409q-189 0 -346 -90.5t-247.5 -249.5t-90.5 -352t90.5 -352t247.5 -249.5t346 -90.5t346.5 90t248.5 249t91 353t-91 353t-248.5 249t-346.5 90z" />
    <glyph glyph-name="ohungarumlaut" unicode="&#x151;" horiz-adv-x="1392" 
d="M686 1741l43 -25l-215 -373l-43 25zM877 1741l43 -25l-215 -373l-43 25zM696 1147q117 0 223 -44.5t183 -121t122.5 -185.5t45.5 -233q0 -165 -76 -299t-207.5 -209t-290.5 -75q-158 0 -289 75t-207.5 209t-76.5 299q0 124 45.5 233.5t122.5 186t182.5 120.5t222.5 44z
M696 1102q-107 0 -204 -40.5t-168 -111t-112.5 -171.5t-41.5 -216q0 -230 152.5 -384t373.5 -154q145 0 265.5 69t191 193t70.5 276t-71 276.5t-191.5 193.5t-264.5 69z" />
    <glyph glyph-name="OE" unicode="&#x152;" horiz-adv-x="2523" 
d="M2421 1389h-811v-621h766v-45h-766v-678h811v-45h-858v444q-79 -209 -264 -336.5t-420 -127.5q-153 0 -289.5 56.5t-234.5 153.5t-155 234t-57 293q0 207 97.5 376.5t266 265t372.5 95.5q235 0 420 -128t264 -337v445h858v-45zM879 25q188 0 345 90t248 249t91 353
t-91 353t-248 249t-345 90q-190 0 -347.5 -90.5t-248 -249.5t-90.5 -352t90.5 -352t248 -249.5t347.5 -90.5z" />
    <glyph glyph-name="oe" unicode="&#x153;" horiz-adv-x="2437" 
d="M1794 25q153 0 274.5 64.5t182.5 184.5h51q-65 -144 -202 -219t-306 -75q-205 0 -352.5 108.5t-196.5 296.5q-54 -182 -204.5 -293.5t-344.5 -111.5q-158 0 -289 75t-207.5 209t-76.5 299q0 124 45.5 233.5t122.5 186t182.5 120.5t222.5 44q194 0 345 -113t204 -297
q51 187 197 298.5t344 111.5q254 0 401.5 -165.5t147.5 -438.5h-1065q5 -157 73 -275t185 -180.5t266 -62.5zM696 25q145 0 265.5 69t191 193t70.5 276t-71 276.5t-191.5 193.5t-264.5 69q-107 0 -204 -40.5t-168 -111t-112.5 -171.5t-41.5 -216q0 -230 152.5 -384
t373.5 -154zM1786 1102q-218 0 -362.5 -143.5t-153.5 -370.5h1018q-8 226 -146 370t-356 144z" />
    <glyph glyph-name="Racute" unicode="&#x154;" horiz-adv-x="1318" 
d="M848 1919l-344 -342l-35 35l342 344zM1174 0l-539 594h-381v-594h-49v1434h518q119 0 212.5 -33t151.5 -90.5t87.5 -131.5t29.5 -161t-29.5 -162.5t-87 -134.5t-151.5 -93t-213 -34h-25l539 -594h-63zM254 1389v-750h469q109 0 194 30.5t136.5 83.5t77.5 120t26 145
t-26 144t-77.5 117.5t-136 80.5t-194.5 29h-469z" />
    <glyph glyph-name="racute" unicode="&#x155;" horiz-adv-x="821" 
d="M600 1686l-344 -343l-35 35l342 344zM684 1147q40 0 76 -4v-45q-36 4 -74 4q-210 0 -332.5 -150.5t-122.5 -388.5v-563h-47v1126h47v-311q49 148 164 240t289 92z" />
    <glyph glyph-name="Rcommaaccent" unicode="&#x156;" horiz-adv-x="1318" 
d="M698 594l539 -594h-63l-539 594h-381v-594h-49v1434h518q119 0 212.5 -33t151.5 -90.5t87.5 -131.5t29.5 -161t-29.5 -162.5t-87 -134.5t-151.5 -93t-213 -34h-25zM254 1389v-750h469q109 0 194 30.5t136.5 83.5t77.5 120t26 145t-26 144t-77.5 117.5t-136 80.5
t-194.5 29h-469zM678 -166q21 0 36.5 -14t18.5 -41q1 -11 -2 -26t-22.5 -78.5t-61.5 -186.5h-51l78 231q-22 3 -36.5 19t-14.5 39q0 25 16 41t39 16z" />
    <glyph glyph-name="rcommaaccent" unicode="&#x157;" horiz-adv-x="821" 
d="M684 1147q40 0 76 -4v-45q-36 4 -74 4q-210 0 -332.5 -150.5t-122.5 -388.5v-563h-47v1126h47v-311q49 148 164 240t289 92zM430 -166q21 0 36.5 -14t18.5 -41q1 -11 -2 -26t-22.5 -78.5t-61.5 -186.5h-51l78 231q-22 3 -36.5 19t-14.5 39q0 25 16 41t39 16z" />
    <glyph glyph-name="Rcaron" unicode="&#x158;" horiz-adv-x="1318" 
d="M1001 1919l-344 -342l-342 342l35 37l307 -307l308 307zM1174 0l-539 594h-381v-594h-49v1434h518q119 0 212.5 -33t151.5 -90.5t87.5 -131.5t29.5 -161t-29.5 -162.5t-87 -134.5t-151.5 -93t-213 -34h-25l539 -594h-63zM254 1389v-750h469q109 0 194 30.5t136.5 83.5
t77.5 120t26 145t-26 144t-77.5 117.5t-136 80.5t-194.5 29h-469z" />
    <glyph glyph-name="rcaron" unicode="&#x159;" horiz-adv-x="821" 
d="M754 1686l-344 -343l-342 343l34 36l308 -307l307 307zM684 1147q40 0 76 -4v-45q-36 4 -74 4q-210 0 -332.5 -150.5t-122.5 -388.5v-563h-47v1126h47v-311q49 148 164 240t289 92z" />
    <glyph glyph-name="Sacute" unicode="&#x15a;" horiz-adv-x="1300" 
d="M803 1956l37 -37l-344 -342l-35 35zM686 748q114 -26 172 -41t135.5 -45.5t114 -65t63.5 -90t27 -129.5q0 -188 -138 -292.5t-366 -104.5q-250 0 -400 111t-192 310h48q45 -183 182 -279.5t358 -96.5q210 0 335.5 92t125.5 258q0 35 -6.5 64t-17 53t-31 45t-41 37
t-54.5 31.5t-63.5 27t-76.5 24.5t-85.5 22.5t-97.5 22.5q-117 27 -191.5 48t-146.5 52t-111 66.5t-62.5 86.5t-23.5 118q0 174 136.5 277.5t351.5 103.5q211 0 350 -84t193 -233h-48q-57 132 -184 202t-307 70q-127 0 -226.5 -38.5t-159 -118t-59.5 -189.5
q0 -80 43.5 -132.5t148.5 -95t304 -87.5z" />
    <glyph glyph-name="sacute" unicode="&#x15b;" horiz-adv-x="1122" 
d="M702 1722l37 -36l-344 -343l-35 35zM598 -20q-217 0 -354 95.5t-172 274.5h47q40 -163 165 -244t312 -81q105 0 190.5 28t141 90.5t55.5 149.5q0 44 -18 77.5t-36.5 53.5t-76.5 42.5t-89 31.5t-123 33q-39 10 -60 16q-109 28 -177 49.5t-124.5 46.5t-85 52.5t-43.5 62
t-15 80.5q0 97 57 168.5t150.5 106t210.5 34.5q172 0 295 -77t162 -220h-47q-43 122 -154 187t-258 65q-158 0 -263.5 -70.5t-105.5 -191.5q0 -97 82 -139.5t333 -108.5q5 -1 7 -2q72 -19 114.5 -30.5t94.5 -29t80 -32t58.5 -35.5t45 -44.5t24 -54.5t9.5 -69
q0 -77 -34.5 -138.5t-95 -99.5t-137.5 -57.5t-165 -19.5z" />
    <glyph glyph-name="Scedilla" unicode="&#x15e;" horiz-adv-x="1300" 
d="M694 -20h-26l-68 -158q35 -1 72 -9.5t76 -27.5t63.5 -55.5t24.5 -85.5q0 -84 -68.5 -130t-179.5 -46q-73 0 -123 10v45q50 -10 121 -10q93 0 147.5 32.5t54.5 96.5q0 67 -64 103t-187 36l86 201q-219 17 -350.5 126t-170.5 293h48q45 -183 182 -279.5t358 -96.5
q210 0 335.5 92t125.5 258q0 35 -6.5 64t-17 53t-31 45t-41 37t-54.5 31.5t-63.5 27t-76.5 24.5t-85.5 22.5t-97.5 22.5q-117 27 -191.5 48t-146.5 52t-111 66.5t-62.5 86.5t-23.5 118q0 174 136.5 277.5t351.5 103.5q211 0 350 -84t193 -233h-48q-57 132 -184 202t-307 70
q-127 0 -226.5 -38.5t-159 -118t-59.5 -189.5q0 -80 43.5 -132.5t148.5 -95t304 -87.5q114 -26 172 -41t135.5 -45.5t114 -65t63.5 -90t27 -129.5q0 -188 -138 -292.5t-366 -104.5z" />
    <glyph glyph-name="scedilla" unicode="&#x15f;" horiz-adv-x="1122" 
d="M598 -20h-31l-67 -158q35 -1 72 -9.5t75.5 -27.5t63 -55.5t24.5 -85.5q0 -84 -68.5 -130t-179.5 -46q-72 0 -122 10v45q50 -10 120 -10q93 0 148 32.5t55 96.5q0 67 -64.5 103t-187.5 36l86 203q-184 15 -301 109.5t-149 256.5h47q40 -163 165 -244t312 -81
q105 0 190.5 28t141 90.5t55.5 149.5q0 44 -18 77.5t-36.5 53.5t-76.5 42.5t-89 31.5t-123 33q-39 10 -60 16q-109 28 -177 49.5t-124.5 46.5t-85 52.5t-43.5 62t-15 80.5q0 97 57 168.5t150.5 106t210.5 34.5q172 0 295 -77t162 -220h-47q-43 122 -154 187t-258 65
q-158 0 -263.5 -70.5t-105.5 -191.5q0 -97 82 -139.5t333 -108.5q5 -1 7 -2q72 -19 114.5 -30.5t94.5 -29t80 -32t58.5 -35.5t45 -44.5t24 -54.5t9.5 -69q0 -77 -34.5 -138.5t-95 -99.5t-137.5 -57.5t-165 -19.5z" />
    <glyph glyph-name="Scaron" unicode="&#x160;" horiz-adv-x="1300" 
d="M993 1919l-344 -342l-342 342l35 37l307 -307l307 307zM686 748q114 -26 172 -41t135.5 -45.5t114 -65t63.5 -90t27 -129.5q0 -188 -138 -292.5t-366 -104.5q-250 0 -400 111t-192 310h48q45 -183 182 -279.5t358 -96.5q210 0 335.5 92t125.5 258q0 35 -6.5 64t-17 53
t-31 45t-41 37t-54.5 31.5t-63.5 27t-76.5 24.5t-85.5 22.5t-97.5 22.5q-117 27 -191.5 48t-146.5 52t-111 66.5t-62.5 86.5t-23.5 118q0 174 136.5 277.5t351.5 103.5q211 0 350 -84t193 -233h-48q-57 132 -184 202t-307 70q-127 0 -226.5 -38.5t-159 -118t-59.5 -189.5
q0 -80 43.5 -132.5t148.5 -95t304 -87.5z" />
    <glyph glyph-name="scaron" unicode="&#x161;" horiz-adv-x="1122" 
d="M893 1686l-344 -343l-342 343l35 36l307 -307l307 307zM598 -20q-217 0 -354 95.5t-172 274.5h47q40 -163 165 -244t312 -81q105 0 190.5 28t141 90.5t55.5 149.5q0 44 -18 77.5t-36.5 53.5t-76.5 42.5t-89 31.5t-123 33q-39 10 -60 16q-109 28 -177 49.5t-124.5 46.5
t-85 52.5t-43.5 62t-15 80.5q0 97 57 168.5t150.5 106t210.5 34.5q172 0 295 -77t162 -220h-47q-43 122 -154 187t-258 65q-158 0 -263.5 -70.5t-105.5 -191.5q0 -97 82 -139.5t333 -108.5q5 -1 7 -2q72 -19 114.5 -30.5t94.5 -29t80 -32t58.5 -35.5t45 -44.5t24 -54.5
t9.5 -69q0 -77 -34.5 -138.5t-95 -99.5t-137.5 -57.5t-165 -19.5z" />
    <glyph glyph-name="uni0162" unicode="&#x162;" horiz-adv-x="1236" 
d="M643 1389v-1389l-76 -178q35 -1 72 -9.5t76 -27.5t63.5 -55.5t24.5 -85.5q0 -84 -68.5 -130t-179.5 -46q-73 0 -123 10v45q50 -10 121 -10q93 0 148 32.5t55 96.5q0 67 -64.5 103t-187.5 36l94 219h-4v1389h-512v45h1073v-45h-512z" />
    <glyph glyph-name="uni0163" unicode="&#x163;" horiz-adv-x="1034" 
d="M635 -178q35 -1 72 -9.5t75.5 -27.5t63 -55.5t24.5 -85.5q0 -84 -68 -130t-179 -46q-73 0 -123 10v45q50 -10 121 -10q93 0 147.5 32.5t54.5 96.5q0 67 -64.5 103t-187.5 36l86 199q-178 9 -270 127t-92 319v655h-234v45h234v297l47 11v-308h596v-45h-596v-655
q0 -192 85.5 -296.5t258.5 -104.5q129 0 256 55l10 -45q-114 -50 -250 -55z" />
    <glyph glyph-name="Tcaron" unicode="&#x164;" horiz-adv-x="1236" 
d="M961 1919l-345 -342l-342 342l35 37l307 -307l308 307zM1155 1434v-45h-512v-1389h-49v1389h-512v45h1073z" />
    <glyph glyph-name="tcaron" unicode="&#x165;" horiz-adv-x="1054" 
d="M737 1251h-51l78 232q-22 3 -36.5 18.5t-14.5 38.5q0 25 16 41t39 16q21 0 36.5 -14t18.5 -41q1 -11 -2 -26t-22.5 -78.5t-61.5 -186.5zM942 80l10 -45q-125 -55 -270 -55q-189 0 -288 119t-99 327v655h-234v45h234v297l47 11v-308h596v-45h-596v-655q0 -192 85.5 -296.5
t258.5 -104.5q129 0 256 55z" />
    <glyph glyph-name="Tbar" unicode="&#x166;" horiz-adv-x="1236" 
d="M1155 1389h-512v-650h264v-45h-264v-694h-49v694h-264v45h264v650h-512v45h1073v-45z" />
    <glyph glyph-name="tbar" unicode="&#x167;" horiz-adv-x="1034" 
d="M942 80l10 -45q-125 -55 -270 -55q-189 0 -288 119t-99 327v115h-234v45h234v495h-234v45h234v297l47 11v-308h596v-45h-596v-495h297v-45h-297v-115q0 -192 85.5 -296.5t258.5 -104.5q129 0 256 55z" />
    <glyph glyph-name="Umacron" unicode="&#x16a;" horiz-adv-x="1484" 
d="M999 1810v-45h-514v45h514zM1241 1434h49v-883q0 -141 -41.5 -251.5t-115.5 -179.5t-171.5 -104.5t-213.5 -35.5t-213.5 35.5t-172 104.5t-116 179.5t-41.5 251.5v883h49v-883q0 -131 38 -233t105.5 -165t156.5 -95.5t194 -32.5t193.5 32.5t156 95.5t105.5 165t38 233
v883z" />
    <glyph glyph-name="umacron" unicode="&#x16b;" horiz-adv-x="1249" 
d="M881 1577v-45h-514v45h514zM1028 1126h47v-1126h-47v311q-49 -150 -164 -240.5t-291 -90.5q-190 0 -294.5 110.5t-104.5 315.5v720h47v-720q0 -187 92.5 -284t257.5 -97q212 0 334.5 149.5t122.5 388.5v563z" />
    <glyph glyph-name="Uring" unicode="&#x16e;" horiz-adv-x="1484" 
d="M743 2036q97 0 164 -67t66 -163q1 -95 -66.5 -162t-163.5 -67q-95 0 -162 67t-67 162q0 97 66 163.5t163 66.5zM743 1991q-75 0 -128.5 -53.5t-53.5 -131.5q2 -77 54.5 -130.5t127.5 -53.5t129 54t54 130q0 78 -53 131.5t-130 53.5zM1241 1434h49v-883
q0 -141 -41.5 -251.5t-115.5 -179.5t-171.5 -104.5t-213.5 -35.5t-213.5 35.5t-172 104.5t-116 179.5t-41.5 251.5v883h49v-883q0 -131 38 -233t105.5 -165t156.5 -95.5t194 -32.5t193.5 32.5t156 95.5t105.5 165t38 233v883z" />
    <glyph glyph-name="uring" unicode="&#x16f;" horiz-adv-x="1249" 
d="M625 1343q-95 0 -162.5 67.5t-67.5 162.5q0 97 66.5 163t163.5 66t163.5 -66.5t65.5 -162.5q1 -95 -66.5 -162.5t-162.5 -67.5zM625 1757q-76 0 -129.5 -53.5t-53.5 -130.5q2 -77 55 -130.5t128 -53.5t128.5 54t53.5 130q0 78 -52.5 131t-129.5 53zM1028 1126h47v-1126
h-47v311q-49 -150 -164 -240.5t-291 -90.5q-190 0 -294.5 110.5t-104.5 315.5v720h47v-720q0 -187 92.5 -284t257.5 -97q212 0 334.5 149.5t122.5 388.5v563z" />
    <glyph glyph-name="Uhungarumlaut" unicode="&#x170;" horiz-adv-x="1484" 
d="M733 1974l43 -24l-215 -373l-43 25zM924 1974l43 -24l-215 -373l-43 25zM1241 1434h49v-883q0 -141 -41.5 -251.5t-115.5 -179.5t-171.5 -104.5t-213.5 -35.5t-213.5 35.5t-172 104.5t-116 179.5t-41.5 251.5v883h49v-883q0 -131 38 -233t105.5 -165t156.5 -95.5
t194 -32.5t193.5 32.5t156 95.5t105.5 165t38 233v883z" />
    <glyph glyph-name="uhungarumlaut" unicode="&#x171;" horiz-adv-x="1249" 
d="M657 1716l-215 -373l-43 25l215 373zM633 1343l-43 25l215 373l43 -25zM1028 1126h47v-1126h-47v311q-49 -150 -164 -240.5t-291 -90.5q-190 0 -294.5 110.5t-104.5 315.5v720h47v-720q0 -187 92.5 -284t257.5 -97q212 0 334.5 149.5t122.5 388.5v563z" />
    <glyph glyph-name="Uogonek" unicode="&#x172;" horiz-adv-x="1484" 
d="M1241 1434h49v-883q0 -226 -102 -366t-275 -185q-144 -140 -200 -215t-56 -143q0 -64 41.5 -96.5t110.5 -32.5q54 0 104 10v-45q-50 -10 -106 -10q-88 0 -142.5 46t-54.5 128q0 40 15 78t52 83.5t73 82.5t104 102q-47 -8 -106 -8q-116 0 -213.5 35.5t-172 104.5
t-116 179.5t-41.5 251.5v883h49v-883q0 -131 38 -233t105.5 -165t156.5 -95.5t194 -32.5t193.5 32.5t156 95.5t105.5 165t38 233v883z" />
    <glyph glyph-name="uogonek" unicode="&#x173;" horiz-adv-x="1249" 
d="M1075 0q-144 -140 -200 -215t-56 -143q0 -64 41.5 -96.5t110.5 -32.5q54 0 104 10v-45q-50 -10 -106 -10q-88 0 -142.5 46t-54.5 128q0 79 56 155t200 215v299q-49 -150 -164 -240.5t-291 -90.5q-190 0 -294.5 110.5t-104.5 315.5v720h47v-720q0 -187 92.5 -284
t257.5 -97q212 0 334.5 149.5t122.5 388.5v563h47v-1126z" />
    <glyph glyph-name="Wcircumflex" unicode="&#x174;" horiz-adv-x="2013" 
d="M1006 1884l-308 -307l-34 35l342 344l344 -344l-37 -35zM1882 1434h49l-434 -1434h-70l-157 518l-260 850l-6 2l-259 -852l-157 -518h-70l-436 1434h51l420 -1381l420 1381h69l207 -686l213 -695z" />
    <glyph glyph-name="wcircumflex" unicode="&#x175;" horiz-adv-x="1652" 
d="M825 1651l-307 -308l-35 35l342 344l344 -344l-36 -35zM1540 1126h51l-354 -1126h-72l-118 379l-218 684l-6 2l-217 -684l-119 -381h-69l-357 1126h52l112 -354l228 -721l227 721l113 354h69l111 -354l229 -719l228 719z" />
    <glyph glyph-name="Ycircumflex" unicode="&#x176;" horiz-adv-x="1316" 
d="M657 1884l-307 -307l-35 35l342 344l344 -344l-36 -35zM1235 1434l-551 -873v-561h-49v557l-553 877h57l520 -824l519 824h57z" />
    <glyph glyph-name="ycircumflex" unicode="&#x177;" horiz-adv-x="1138" 
d="M567 1651l-307 -308l-35 35l342 344l344 -344l-37 -35zM1024 1126h53l-786 -1638h-53l305 635l-482 1003h54l454 -948z" />
    <glyph glyph-name="Ydieresis" unicode="&#x178;" horiz-adv-x="1316" 
d="M426 1720q-23 0 -39 16.5t-16 39.5t16 39t39 16t39 -16t16 -39t-16 -39.5t-39 -16.5zM889 1720q-23 0 -39 16.5t-16 39.5t16 39t39 16t40 -16t17 -39t-17 -39.5t-40 -16.5zM1235 1434l-551 -873v-561h-49v557l-553 877h57l520 -824l519 824h57z" />
    <glyph glyph-name="Zacute" unicode="&#x179;" horiz-adv-x="1214" 
d="M797 1919l-344 -342l-35 35l342 344zM1112 1434v-45l-950 -1344h950v-45h-1010v45l951 1344h-914v45h973z" />
    <glyph glyph-name="zacute" unicode="&#x17a;" horiz-adv-x="1091" 
d="M735 1686l-344 -343l-35 35l342 344zM999 1126v-45l-845 -1036h845v-45h-907v45l846 1036h-801v45h862z" />
    <glyph glyph-name="Zdotaccent" unicode="&#x17b;" horiz-adv-x="1214" 
d="M608 1720q-23 0 -39 16.5t-16 39.5t16 39t39 16t39.5 -16t16.5 -39t-16.5 -39.5t-39.5 -16.5zM1112 1434v-45l-950 -1344h950v-45h-1010v45l951 1344h-914v45h973z" />
    <glyph glyph-name="zdotaccent" unicode="&#x17c;" horiz-adv-x="1091" 
d="M547 1487q-23 0 -39 16t-16 39t16 39t39 16t39 -16t16 -39t-16 -39t-39 -16zM999 1126v-45l-845 -1036h845v-45h-907v45l846 1036h-801v45h862z" />
    <glyph glyph-name="Zcaron" unicode="&#x17d;" horiz-adv-x="1214" 
d="M950 1919l-344 -342l-342 342l35 37l307 -307l307 307zM1112 1434v-45l-950 -1344h950v-45h-1010v45l951 1344h-914v45h973z" />
    <glyph glyph-name="zcaron" unicode="&#x17e;" horiz-adv-x="1091" 
d="M889 1686l-344 -343l-342 343l35 36l307 -307l307 307zM999 1126v-45l-845 -1036h845v-45h-907v45l846 1036h-801v45h862z" />
    <glyph glyph-name="uni0237" unicode="&#x237;" horiz-adv-x="415" 
d="M184 -512v1638h47v-1638h-47z" />
    <glyph glyph-name="circumflex" unicode="&#x2c6;" horiz-adv-x="1095" 
d="M891 1378l-37 -35l-307 308l-307 -308l-35 35l342 344z" />
    <glyph glyph-name="caron" unicode="&#x2c7;" horiz-adv-x="1095" 
d="M891 1686l-344 -343l-342 343l35 36l307 -307l307 307z" />
    <glyph glyph-name="breve" unicode="&#x2d8;" horiz-adv-x="1038" 
d="M834 1696v-19q0 -132 -89.5 -213.5t-226.5 -81.5t-225 81.5t-88 213.5v19h49v-15q0 -116 71.5 -183.5t192.5 -67.5q122 0 194 67.5t72 183.5v15h50z" />
    <glyph glyph-name="dotaccent" unicode="&#x2d9;" horiz-adv-x="520" 
d="M260 1597q23 0 39 -16t16 -39t-16 -39t-39 -16t-39 16t-16 39t16 39t39 16z" />
    <glyph glyph-name="ring" unicode="&#x2da;" horiz-adv-x="868" 
d="M434 1802q97 0 164 -66.5t66 -162.5q1 -95 -66.5 -162.5t-163.5 -67.5q-95 0 -162 67.5t-67 162.5q0 97 66 163t163 66zM434 1757q-76 0 -129 -53.5t-53 -130.5q2 -77 54.5 -130.5t127.5 -53.5t128.5 54t53.5 130q0 78 -52.5 131t-129.5 53z" />
    <glyph glyph-name="ogonek" unicode="&#x2db;" horiz-adv-x="712" 
d="M508 -522q-50 -10 -107 -10q-87 0 -141.5 45.5t-54.5 128.5q0 79 56 155t200 215l47 -12q-144 -140 -200 -215t-56 -143q0 -64 41 -96.5t110 -32.5q55 0 105 10v-45z" />
    <glyph glyph-name="tilde" unicode="&#x2dc;" horiz-adv-x="1087" 
d="M836 1653h47q0 -260 -160 -260q-48 0 -86.5 26t-108.5 97q-9 9 -33 34t-33 33t-27.5 22t-35.5 18.5t-37 4.5q-35 0 -57.5 -15.5t-33.5 -47.5t-15 -66.5t-4 -85.5h-47q0 260 160 260q48 0 86 -25.5t108 -97.5q9 -9 33 -34t33 -33t27.5 -22t35.5 -18.5t37 -4.5
q28 0 48.5 11t32.5 29.5t18.5 47t9 58t2.5 69.5z" />
    <glyph glyph-name="hungarumlaut" unicode="&#x2dd;" horiz-adv-x="858" 
d="M420 1741l43 -25l-215 -373l-43 25zM610 1741l43 -25l-215 -373l-43 25z" />
    <glyph glyph-name="gravecomb" unicode="&#x300;" 
d="M-549 1722l344 -344l-37 -35l-342 343z" />
    <glyph glyph-name="acutecomb" unicode="&#x301;" 
d="M-242 1722l37 -36l-344 -343l-35 35z" />
    <glyph glyph-name="uni0302" unicode="&#x302;" 
d="M-205 1378l-37 -35l-307 308l-307 -308l-35 35l342 344z" />
    <glyph glyph-name="tildecomb" unicode="&#x303;" 
d="M-252 1653h47q0 -260 -160 -260q-48 0 -86 25.5t-108 97.5q-9 9 -33 34t-33 33t-27.5 22t-35.5 18.5t-37 4.5q-28 0 -48.5 -11t-32.5 -29.5t-18.5 -47t-9 -58t-2.5 -69.5h-47q0 260 160 260q48 0 86.5 -26t108.5 -97q9 -9 33 -34t33 -33t27.5 -22t35.5 -18.5t37 -4.5
q35 0 57.5 15.5t33.5 47.5t15 66.5t4 85.5z" />
    <glyph glyph-name="uni0304" unicode="&#x304;" 
d="M-205 1577v-45h-514v45h514z" />
    <glyph glyph-name="uni0306" unicode="&#x306;" 
d="M-205 1696v-19q0 -132 -89 -213.5t-226 -81.5t-225.5 81.5t-88.5 213.5v19h50v-15q0 -116 71.5 -183.5t192.5 -67.5q122 0 194 67.5t72 183.5v15h49z" />
    <glyph glyph-name="uni0307" unicode="&#x307;" 
d="M-260 1597q23 0 39 -16t16 -39t-16 -39t-39 -16t-39 16t-16 39t16 39t39 16z" />
    <glyph glyph-name="uni0308" unicode="&#x308;" 
d="M-725 1597q23 0 39 -16t16 -39t-16 -39t-39 -16t-39 16t-16 39t16 39t39 16zM-262 1597q23 0 40 -16t17 -39t-17 -39t-40 -16t-39 16t-16 39t16 39t39 16z" />
    <glyph glyph-name="uni030A" unicode="&#x30a;" 
d="M-434 1802q97 0 163.5 -66.5t65.5 -162.5q1 -95 -66 -162.5t-163 -67.5q-95 0 -162.5 67.5t-67.5 162.5q0 97 66.5 163t163.5 66zM-434 1757q-76 0 -129 -53.5t-53 -130.5q2 -77 54.5 -130.5t127.5 -53.5t128.5 54t53.5 130q0 78 -52.5 131t-129.5 53z" />
    <glyph glyph-name="uni030B" unicode="&#x30b;" 
d="M-438 1741l43 -25l-215 -373l-43 25zM-248 1741l43 -25l-215 -373l-43 25z" />
    <glyph glyph-name="uni030C" unicode="&#x30c;" 
d="M-205 1686l-344 -343l-342 343l35 36l307 -307l307 307z" />
    <glyph glyph-name="uni0312" unicode="&#x312;" 
d="M-283 1458q22 -3 37 -18.5t15 -38.5q0 -25 -16.5 -41.5t-39.5 -16.5q-21 0 -36.5 14.5t-18.5 41.5q-1 11 2 26t22.5 78.5t61.5 186.5h51z" />
    <glyph glyph-name="uni0326" unicode="&#x326;" 
d="M-205 -221q1 -11 -2 -26t-22.5 -78.5t-61.5 -186.5h-51l78 231q-22 3 -36.5 19t-14.5 39q0 25 16 41t39 16q21 0 36.5 -14t18.5 -41z" />
    <glyph glyph-name="uni0327" unicode="&#x327;" 
d="M-440 -178q35 -1 72 -9.5t75.5 -27.5t63 -55.5t24.5 -85.5q0 -84 -68.5 -130t-179.5 -46q-72 0 -122 10v45q50 -10 120 -10q93 0 148 32.5t55 96.5q0 67 -64.5 103t-187.5 36l94 219h45z" />
    <glyph glyph-name="uni0328" unicode="&#x328;" 
d="M-205 -522q-50 -10 -106 -10q-88 0 -142.5 46t-54.5 128q0 79 56 155t200 215l47 -12q-144 -140 -200 -215t-56 -143q0 -64 41.5 -96.5t110.5 -32.5q54 0 104 10v-45z" />
    <glyph glyph-name="uni0335" unicode="&#x335;" 
d="M-205 649v-45h-577v45h577z" />
    <glyph glyph-name="uni0337" unicode="&#x337;" 
d="M-205 1126l-809 -1126h-49l809 1126h49z" />
    <glyph glyph-name="uni0338" unicode="&#x338;" 
d="M-205 1577l-809 -1577h-49l809 1577h49z" />
    <glyph glyph-name="uni0401" unicode="&#x401;" horiz-adv-x="1165" 
d="M395 1720q-23 0 -39 16.5t-16 39.5t16 39t39 16t39.5 -16t16.5 -39t-16.5 -39.5t-39.5 -16.5zM858 1720q-23 0 -39 16.5t-16 39.5t16 39t39 16t40 -16t17 -39t-17 -39.5t-40 -16.5zM1063 1389h-811v-621h766v-45h-766v-678h811v-45h-858v1434h858v-45z" />
    <glyph glyph-name="uni0404" unicode="&#x404;" horiz-adv-x="1646" 
d="M874 25q208 0 373 108.5t246 290.5h51q-83 -206 -261.5 -325t-403.5 -119q-207 0 -375 94.5t-264.5 263.5t-96.5 379t96.5 379t264.5 263.5t375 94.5q225 0 403.5 -119t261.5 -325h-51q-81 182 -246 290.5t-373 108.5q-138 0 -263 -51.5t-215.5 -140t-146 -212.5
t-59.5 -264h764v-45h-764q4 -141 58.5 -265.5t145.5 -213.5t216 -140.5t264 -51.5z" />
    <glyph glyph-name="uni0406" unicode="&#x406;" horiz-adv-x="458" 
d="M207 0v1434h47v-1434h-47z" />
    <glyph glyph-name="uni0407" unicode="&#x407;" horiz-adv-x="458" 
d="M-4 1831q23 0 39 -16t16 -39t-16 -39.5t-39 -16.5t-39 16.5t-16 39.5t16 39t39 16zM459 1831q23 0 40 -16t17 -39t-17 -39.5t-40 -16.5t-39.5 16.5t-16.5 39.5t16.5 39t39.5 16zM207 0v1434h47v-1434h-47z" />
    <glyph glyph-name="uni040E" unicode="&#x40e;" horiz-adv-x="1398" 
d="M1042 1929v-18q0 -132 -89 -213.5t-226 -81.5t-225 81.5t-88 213.5v18h49v-14q0 -116 71.5 -184t192.5 -68q122 0 194 67.5t72 184.5v14h49zM1317 1434l-883 -1434h-55l334 543l-549 891h55l522 -844l521 844h55z" />
    <glyph glyph-name="uni0410" unicode="&#x410;" horiz-adv-x="1454" 
d="M1321 0l-221 522h-746l-221 -522h-51l610 1434h70l610 -1434h-51zM375 567h704l-352 834z" />
    <glyph glyph-name="uni0411" unicode="&#x411;" horiz-adv-x="1343" 
d="M772 829q119 0 211 -32.5t147 -89.5t83 -130.5t28 -160.5t-28.5 -161t-85 -131.5t-149.5 -90.5t-212 -33h-561v1434h49h895v-45h-895v-560h518zM766 45q214 0 321 104t107 267q0 78 -24 143.5t-73.5 116.5t-132 79.5t-192.5 28.5h-518v-739h512z" />
    <glyph glyph-name="uni0412" unicode="&#x412;" horiz-adv-x="1335" 
d="M952 756q281 -70 281 -373q0 -179 -110 -281t-345 -102h-573v1434h553q432 0 432 -357q0 -254 -238 -321zM1143 1079q0 72 -19 126t-62 96.5t-119.5 65t-184.5 22.5h-506v-615h487q114 0 194.5 22t125.5 64t64.5 95t19.5 124zM778 45q408 0 408 338q0 346 -414 346h-520
v-684h526z" />
    <glyph glyph-name="uni0413" unicode="&#x413;" horiz-adv-x="1101" 
d="M1020 1434v-45h-766v-1389h-49v1434h815z" />
    <glyph glyph-name="uni0414" unicode="&#x414;" horiz-adv-x="1679" 
d="M1393 45h204v-362h-49v317h-1419v-317h-47v362h203q53 29 87 117t64 268l168 1004h789v-1389zM483 434q-49 -299 -127 -389h990v1344h-703z" />
    <glyph glyph-name="uni0415" unicode="&#x415;" horiz-adv-x="1165" 
d="M1063 1389h-811v-621h766v-45h-766v-678h811v-45h-858v1434h858v-45z" />
    <glyph glyph-name="uni0416" unicode="&#x416;" horiz-adv-x="1906" 
d="M1825 0h-70l-778 711v-711h-47v711l-778 -711h-70l790 725l-774 709h72l760 -697v697h47v-697l760 697h71l-774 -709z" />
    <glyph glyph-name="uni0417" unicode="&#x417;" horiz-adv-x="1286" 
d="M883 760q141 -34 221 -133t80 -240q0 -182 -142 -294.5t-370 -112.5q-219 0 -372.5 99t-197.5 294h50q44 -178 183 -263t339 -85q207 0 335 98.5t128 263.5q0 151 -103.5 246.5t-316.5 95.5h-246v45h182q216 0 321 79.5t105 215.5q0 105 -58 183.5t-154.5 117.5
t-215.5 39q-187 0 -302.5 -75t-166.5 -251h-49q54 201 185.5 286t332.5 85q203 0 339 -105t136 -278q0 -110 -61 -192t-182 -119z" />
    <glyph glyph-name="uni0418" unicode="&#x418;" horiz-adv-x="1507" 
d="M1233 1434h80v-1434h-47v1399l-990 -1399h-81v1434h47v-1399z" />
    <glyph glyph-name="uni0419" unicode="&#x419;" horiz-adv-x="1507" 
d="M752 1616q-137 0 -225.5 81.5t-88.5 213.5v18h49v-14q0 -116 72 -184t193 -68q122 0 194 67.5t72 184.5v14h49v-18q0 -132 -89 -213.5t-226 -81.5zM1233 1434h80v-1434h-47v1399l-990 -1399h-81v1434h47v-1399z" />
    <glyph glyph-name="uni041A" unicode="&#x41a;" horiz-adv-x="1212" 
d="M1130 0h-69l-809 711v-711h-47v1434h47v-697l790 697h72l-805 -709z" />
    <glyph glyph-name="uni041B" unicode="&#x41b;" horiz-adv-x="1566" 
d="M565 1434h797v-1434h-47v1389h-711l-160 -955q-43 -258 -103.5 -356t-176.5 -98h-82v45h78q66 0 107.5 36t72 122t57.5 247z" />
    <glyph glyph-name="uni041C" unicode="&#x41c;" horiz-adv-x="1646" 
d="M1362 1434h80v-1434h-47v1399l-574 -860h-6l-573 860v-1399h-47v1434h79l545 -816z" />
    <glyph glyph-name="uni041D" unicode="&#x41d;" horiz-adv-x="1529" 
d="M1278 1434h47v-1434h-47v723h-1026v-723h-47v1434h47v-666h1026v666z" />
    <glyph glyph-name="uni041E" unicode="&#x41e;" horiz-adv-x="1753" 
d="M879 1454q203 0 370.5 -95.5t264 -264.5t96.5 -377t-96.5 -377t-264.5 -264.5t-372 -95.5q-152 0 -288 56.5t-234 153.5t-155 234.5t-57 292.5q0 156 57 293t155 234t234.5 153.5t289.5 56.5zM877 1409q-189 0 -346 -90.5t-247.5 -249.5t-90.5 -352t90.5 -352
t247.5 -249.5t346 -90.5t346.5 90t248.5 249t91 353t-91 353t-248.5 249t-346.5 90z" />
    <glyph glyph-name="uni041F" unicode="&#x41f;" horiz-adv-x="1529" 
d="M1325 1434v-1434h-47v1389h-1026v-1389h-47v1434h47h1073z" />
    <glyph glyph-name="uni0420" unicode="&#x420;" horiz-adv-x="1378" 
d="M754 1434q119 0 213 -36t151.5 -97.5t87 -139t29.5 -164.5q0 -69 -18 -133.5t-57 -121t-94.5 -98.5t-135.5 -66.5t-176 -24.5h-500v-553h-49v1434h549zM754 598q109 0 194 33.5t136.5 90.5t77.5 127t26 148t-26 147t-77.5 124.5t-136.5 88t-194 32.5h-500v-791h500z" />
    <glyph glyph-name="uni0421" unicode="&#x421;" horiz-adv-x="1646" 
d="M879 -20q-207 0 -375 94.5t-264.5 263.5t-96.5 379t96.5 379t264.5 263.5t375 94.5q225 0 403.5 -119t261.5 -325h-51q-81 182 -246 290.5t-373 108.5q-189 0 -346 -91t-247.5 -250t-90.5 -351t90.5 -351t247.5 -250t346 -91q208 0 373 108.5t246 290.5h51
q-83 -206 -261.5 -325t-403.5 -119z" />
    <glyph glyph-name="uni0422" unicode="&#x422;" horiz-adv-x="1236" 
d="M1155 1434v-45h-512v-1389h-49v1389h-512v45h1073z" />
    <glyph glyph-name="uni0423" unicode="&#x423;" horiz-adv-x="1398" 
d="M1317 1434l-883 -1434h-55l334 543l-549 891h55l522 -844l521 844h55z" />
    <glyph glyph-name="uni0424" unicode="&#x424;" horiz-adv-x="1837" 
d="M1126 1266q160 0 287.5 -62t204 -184.5t76.5 -286.5t-75 -286t-203 -184t-290 -62h-184v-201h-47v201h-184q-162 0 -290 62t-203 184t-75 286t76.5 286.5t204 184.5t287.5 62h184v168h47v-168h184zM711 246h184v975h-184q-147 0 -264 -56t-187 -168.5t-70 -263.5
t69.5 -263t186.5 -168t265 -56zM1126 246q148 0 265 56t186.5 168t69.5 263t-70 263.5t-187 168.5t-264 56h-184v-975h184z" />
    <glyph glyph-name="uni0425" unicode="&#x425;" horiz-adv-x="1191" 
d="M1110 0h-57l-457 688l-457 -688h-57l485 731l-465 703h58l436 -658l436 658h58l-465 -701z" />
    <glyph glyph-name="uni0426" unicode="&#x426;" horiz-adv-x="1636" 
d="M1280 45h274v-362h-47v317h-1302v45v1389h47v-1389h981v1389h47v-1389z" />
    <glyph glyph-name="uni0427" unicode="&#x427;" horiz-adv-x="1329" 
d="M1077 1434h47v-1434h-47v592q-172 -86 -456 -86q-108 0 -194 26.5t-150 80.5t-99 143t-35 207v471h47v-471q0 -213 114.5 -312.5t316.5 -99.5q152 0 270.5 26t185.5 66v791z" />
    <glyph glyph-name="uni0428" unicode="&#x428;" horiz-adv-x="2091" 
d="M1839 1434h47v-1409v-25h-1681v47v1387h47v-1387h770v1387h47v-1387h770v1387z" />
    <glyph glyph-name="uni0429" unicode="&#x429;" horiz-adv-x="2242" 
d="M1886 45h275v-362h-47v317h-1909v45v1389h47v-1389h770v1389h47v-1389h770v1389h47v-1389z" />
    <glyph glyph-name="uni042A" unicode="&#x42a;" horiz-adv-x="1550" 
d="M938 829q119 0 211 -32.5t147 -89.5t83 -130.5t28 -160.5t-28.5 -161t-85 -131.5t-149.5 -90.5t-212 -33h-551v1389h-299v45h328h20v-605h508zM932 45q214 0 321 104t107 267q0 78 -24 143.5t-73.5 116.5t-132 79.5t-192.5 28.5h-508v-739h502z" />
    <glyph glyph-name="uni042B" unicode="&#x42b;" horiz-adv-x="1708" 
d="M762 829q119 0 211 -32.5t147 -89.5t83 -130.5t28 -160.5t-28.5 -161t-85 -131.5t-149.5 -90.5t-212 -33h-551v1434h49v-605h508zM1456 1434h47v-1434h-47v1434zM756 45q214 0 321 104t107 267q0 78 -24 143.5t-73.5 116.5t-132 79.5t-192.5 28.5h-508v-739h502z" />
    <glyph glyph-name="uni042C" unicode="&#x42c;" horiz-adv-x="1374" 
d="M762 829q119 0 211 -32.5t147 -89.5t83 -130.5t28 -160.5t-28.5 -161t-85 -131.5t-149.5 -90.5t-212 -33h-551v1434h49v-605h508zM756 45q214 0 321 104t107 267q0 78 -24 143.5t-73.5 116.5t-132 79.5t-192.5 28.5h-508v-739h502z" />
    <glyph glyph-name="uni042D" unicode="&#x42d;" horiz-adv-x="1640" 
d="M778 1454q206 0 370.5 -95t256.5 -263.5t92 -378.5t-92 -378.5t-256.5 -263.5t-370.5 -95q-235 0 -416.5 119.5t-259.5 324.5h52q76 -182 243.5 -290.5t382.5 -108.5q187 0 339 88t239 241t92 342h-764v45h764q-4 140 -56.5 264t-140.5 212.5t-210.5 140t-262.5 51.5
q-215 0 -382.5 -108.5t-243.5 -290.5h-52q78 205 259.5 324.5t416.5 119.5z" />
    <glyph glyph-name="uni042E" unicode="&#x42e;" horiz-adv-x="2205" 
d="M1331 1454q203 0 370.5 -95.5t264 -264.5t96.5 -377t-96.5 -377t-264.5 -264.5t-372 -95.5q-149 0 -282.5 54t-231 148t-156.5 226.5t-63 283.5h-344v-692h-47v1434h47v-697h344q4 152 62 285.5t155.5 228t232 149t285.5 54.5zM1329 25q142 0 268.5 53t218 144.5
t145 220.5t52.5 274q1 145 -52.5 274t-145 220.5t-218 144.5t-268.5 53q-189 0 -346 -90.5t-248 -249.5t-92 -352q1 -193 92 -352t248 -249.5t346 -90.5z" />
    <glyph glyph-name="uni042F" unicode="&#x42f;" horiz-adv-x="1318" 
d="M596 1434h518v-1434h-49v594h-399l-521 -594h-63l522 594h-8q-119 0 -213 34t-151.5 93t-87 134.5t-29.5 162.5t29.5 161t87.5 131.5t151.5 90.5t212.5 33zM596 639h469v750h-469q-110 0 -194.5 -29t-136 -80.5t-77.5 -117.5t-26 -144t26 -145t77.5 -120t136.5 -83.5
t194 -30.5z" />
    <glyph glyph-name="uni0430" unicode="&#x430;" horiz-adv-x="1406" 
d="M1176 1126h47v-1126h-47v315q-67 -154 -203.5 -244.5t-308.5 -90.5q-158 0 -282 75.5t-191.5 208t-67.5 299.5t67.5 300t191.5 208.5t282 75.5q172 0 308.5 -91t203.5 -245v315zM662 25q221 0 368.5 153t147.5 385t-147.5 385.5t-368.5 153.5q-218 0 -355 -152.5
t-137 -386.5t137 -386t355 -152z" />
    <glyph glyph-name="uni0431" unicode="&#x431;" horiz-adv-x="1378" 
d="M713 1124q155 0 278.5 -69.5t193.5 -197.5t70 -292q0 -171 -76 -305.5t-206.5 -207t-290.5 -72.5q-159 0 -284.5 72t-198.5 206t-76 309q0 145 12 263.5t34 215.5t59.5 173t83.5 134t110.5 99.5t135.5 69.5t164.5 44.5t191.5 23.5t221 7v-45q-169 0 -292 -13t-231.5 -46
t-181 -88.5t-128 -142.5t-85.5 -206t-41 -280q65 165 213 256.5t324 91.5zM682 25q146 0 265 65.5t190 190t71 284.5q0 229 -139.5 371.5t-355.5 142.5q-105 0 -202.5 -36.5t-173.5 -101.5t-121.5 -162.5t-45.5 -211.5q0 -244 144.5 -393t367.5 -149z" />
    <glyph glyph-name="uni0432" unicode="&#x432;" horiz-adv-x="1175" 
d="M840 594q125 -29 184 -104t59 -175q0 -51 -11 -95t-38 -85.5t-69.5 -70.5t-110 -46.5t-154.5 -17.5h-516v1126h463q109 0 185.5 -21.5t118.5 -62t60.5 -90.5t18.5 -114q0 -80 -47 -146t-143 -98zM649 1081h-418v-473h408q93 0 162 19t107.5 52.5t56.5 73t18 85.5
q0 54 -15 95.5t-50.5 76t-103 53t-165.5 18.5zM702 45q334 0 334 270q0 50 -17.5 92t-55 78.5t-106 57t-161.5 20.5h-465v-518h471z" />
    <glyph glyph-name="uni0433" unicode="&#x433;" horiz-adv-x="948" 
d="M887 1126v-45h-656v-1081h-47v1126h703z" />
    <glyph glyph-name="uni0434" unicode="&#x434;" horiz-adv-x="1497" 
d="M1231 45h205v-362h-47v317h-205h-1075v-317h-48v362h185q64 37 110 153.5t82 342.5l94 585h699v-1081zM315 45h869v1036h-613l-86 -536q-60 -384 -170 -500z" />
    <glyph glyph-name="uni0435" unicode="&#x435;" horiz-adv-x="1337" 
d="M694 25q153 0 274.5 64.5t182.5 184.5h51q-65 -144 -202 -219t-306 -75q-250 0 -410.5 158.5t-160.5 418.5q0 259 159 424.5t404 165.5q254 0 401.5 -165.5t147.5 -438.5h-1065q5 -157 73 -275t185 -180.5t266 -62.5zM686 1102q-218 0 -362.5 -143.5t-153.5 -370.5h1018
q-8 226 -146 370t-356 144z" />
    <glyph glyph-name="uni0436" unicode="&#x436;" horiz-adv-x="1804" 
d="M1743 0h-74l-743 586v-586h-47v586l-744 -586h-74l754 594l-684 532h74l674 -524v524h47v-524l673 524h74l-684 -532z" />
    <glyph glyph-name="uni0437" unicode="&#x437;" horiz-adv-x="1134" 
d="M823 598q62 -15 106.5 -47t68 -73t34 -83t10.5 -88q0 -139 -114.5 -233t-325.5 -94q-226 0 -360.5 94.5t-169.5 275.5h47q80 -325 481 -325q194 0 294.5 81t100.5 205q0 36 -7 68.5t-27.5 68t-53 61t-89 42t-130.5 16.5h-264v45h201q333 0 333 222q0 53 -21 99.5t-64 85
t-118 61t-173 22.5q-148 0 -261 -60t-155 -182h-47q39 142 162.5 214.5t304.5 72.5q107 0 189.5 -26t131.5 -70.5t74 -99t25 -117.5q0 -177 -183 -236z" />
    <glyph glyph-name="uni0438" unicode="&#x438;" horiz-adv-x="1327" 
d="M1063 1126h80v-1126h-47v1092l-832 -1092h-80v1126h47v-1091z" />
    <glyph glyph-name="uni0439" unicode="&#x439;" horiz-adv-x="1327" 
d="M662 1382q-137 0 -225.5 81.5t-88.5 213.5v19h49v-15q0 -116 72 -183.5t193 -67.5q122 0 194 67.5t72 183.5v15h49v-19q0 -132 -89 -213.5t-226 -81.5zM1063 1126h80v-1126h-47v1092l-832 -1092h-80v1126h47v-1091z" />
    <glyph glyph-name="uni043A" unicode="&#x43a;" horiz-adv-x="1110" 
d="M1049 0h-74l-744 586v-586h-47v1126h47v-524l674 524h74l-684 -532z" />
    <glyph glyph-name="uni043B" unicode="&#x43b;" horiz-adv-x="1343" 
d="M461 1126h698v-1126h-47v1081h-612l-105 -647q-41 -254 -105.5 -354t-180.5 -100h-48v45h43q67 0 110 35t75.5 123t58.5 247z" />
    <glyph glyph-name="uni043C" unicode="&#x43c;" horiz-adv-x="1449" 
d="M1186 1126h80v-1126h-47v1087l-492 -684h-4l-492 684v-1087h-47v1126h80l461 -651z" />
    <glyph glyph-name="uni043D" unicode="&#x43d;" horiz-adv-x="1343" 
d="M1112 1126h47v-1126h-47v557h-881v-557h-47v1126h47v-524h881v524z" />
    <glyph glyph-name="uni043E" unicode="&#x43e;" horiz-adv-x="1392" 
d="M696 1147q117 0 223 -44.5t183 -121t122.5 -185.5t45.5 -233q0 -165 -76 -299t-207.5 -209t-290.5 -75q-158 0 -289 75t-207.5 209t-76.5 299q0 124 45.5 233.5t122.5 186t182.5 120.5t222.5 44zM696 1102q-107 0 -204 -40.5t-168 -111t-112.5 -171.5t-41.5 -216
q0 -230 152.5 -384t373.5 -154q145 0 265.5 69t191 193t70.5 276t-71 276.5t-191.5 193.5t-264.5 69z" />
    <glyph glyph-name="uni043F" unicode="&#x43f;" horiz-adv-x="1343" 
d="M1159 1126v-1126h-47v1081h-881v-1081h-47v1126h47h928z" />
    <glyph glyph-name="uni0440" unicode="&#x440;" horiz-adv-x="1417" 
d="M754 1147q119 0 220 -44t171 -121.5t109.5 -185.5t39.5 -233q0 -167 -67.5 -299.5t-191 -208t-281.5 -75.5q-172 0 -308.5 90.5t-203.5 244.5v-827h-47v1638h47v-315q67 154 203.5 245t308.5 91zM756 25q218 0 354.5 152t136.5 386q0 154 -61 276.5t-173.5 192.5
t-256.5 70q-221 0 -368.5 -153.5t-147.5 -385.5t147.5 -385t368.5 -153z" />
    <glyph glyph-name="uni0441" unicode="&#x441;" horiz-adv-x="1333" 
d="M698 -20q-158 0 -289.5 74.5t-208.5 208.5t-77 300q0 124 45 233.5t122.5 186t183.5 120.5t224 44q185 0 329.5 -103t203.5 -274h-51q-54 148 -184 240t-298 92q-109 0 -206.5 -41t-168 -112t-112 -171.5t-41.5 -214.5q0 -152 70 -275.5t191 -193t267 -69.5
q169 0 298.5 91.5t183.5 239.5h51q-59 -171 -203.5 -273.5t-329.5 -102.5z" />
    <glyph glyph-name="uni0442" unicode="&#x442;" horiz-adv-x="1034" 
d="M973 1126v-45h-432v-1081h-47v1081h-433v45h480h432z" />
    <glyph glyph-name="uni0443" unicode="&#x443;" horiz-adv-x="1138" 
d="M1024 1126h53l-786 -1638h-53l305 635l-482 1003h54l454 -948z" />
    <glyph glyph-name="uni0444" unicode="&#x444;" horiz-adv-x="2398" 
d="M1735 1147q119 0 220 -44t171 -121.5t109.5 -185.5t39.5 -233q0 -167 -67.5 -299.5t-191 -208t-281.5 -75.5q-171 0 -308.5 91t-203.5 244v-827h-47v827q-66 -153 -203.5 -244t-308.5 -91q-158 0 -282 75.5t-191.5 208t-67.5 299.5t67.5 300t191.5 208.5t282 75.5
q170 0 307.5 -91t204.5 -245v766h47v-766q67 154 204.5 245t307.5 91zM662 25q221 0 368.5 153t147.5 385t-147.5 385.5t-368.5 153.5q-218 0 -355 -152.5t-137 -386.5t137 -386t355 -152zM1737 25q218 0 354.5 152t136.5 386q0 154 -61 276.5t-173.5 192.5t-256.5 70
q-221 0 -368.5 -153.5t-147.5 -385.5t147.5 -385t368.5 -153z" />
    <glyph glyph-name="uni0445" unicode="&#x445;" horiz-adv-x="1028" 
d="M967 0h-60l-393 537l-393 -537h-60l424 580l-399 546h59l369 -503l369 503h59l-399 -544z" />
    <glyph glyph-name="uni0446" unicode="&#x446;" horiz-adv-x="1400" 
d="M1135 45h204v-362h-47v317h-205h-876h-27v1126h47v-1081h856v1081h48v-1081z" />
    <glyph glyph-name="uni0447" unicode="&#x447;" horiz-adv-x="1181" 
d="M950 1126h47v-1126h-47v457q-69 -37 -182 -60.5t-221 -23.5q-215 0 -319.5 104.5t-104.5 321.5v327h47v-327q0 -198 92.5 -289.5t284.5 -91.5q109 0 226.5 25t176.5 65v618z" />
    <glyph glyph-name="uni0448" unicode="&#x448;" horiz-adv-x="1779" 
d="M1548 1126h47v-1126h-47h-682h-673h-9v1126h47v-1081h635v1081h47v-1081h635v1081z" />
    <glyph glyph-name="uni0449" unicode="&#x449;" horiz-adv-x="1861" 
d="M1595 45h205v-362h-47v317h-205h-682h-673h-9v1126h47v-1081h635v1081h47v-1081h635v1081h47v-1081z" />
    <glyph glyph-name="uni044A" unicode="&#x44a;" horiz-adv-x="1325" 
d="M819 711q109 0 185.5 -26.5t118.5 -76t60.5 -110t18.5 -138.5q0 -360 -389 -360h-483v1079h-269v47h316v-415h442zM815 45q79 0 139 16.5t97.5 45t61.5 69.5t33 85.5t9 98.5q0 69 -15 120.5t-50.5 95.5t-103 67t-165.5 23h-444v-621h438z" />
    <glyph glyph-name="uni044B" unicode="&#x44b;" horiz-adv-x="1495" 
d="M674 711q109 0 185.5 -26.5t118.5 -76t60.5 -110t18.5 -138.5q0 -360 -389 -360h-484v1126h47v-415h443zM1264 1126h47v-1126h-47v1126zM670 45q79 0 139 16.5t97.5 45t61.5 69.5t33 85.5t9 98.5q0 69 -15 120.5t-50.5 95.5t-103 67t-165.5 23h-445v-621h439z" />
    <glyph glyph-name="uni044C" unicode="&#x44c;" horiz-adv-x="1179" 
d="M674 711q109 0 185.5 -26.5t118.5 -76t60.5 -110t18.5 -138.5q0 -360 -389 -360h-484v1126h47v-415h443zM670 45q79 0 139 16.5t97.5 45t61.5 69.5t33 85.5t9 98.5q0 69 -15 120.5t-50.5 95.5t-103 67t-165.5 23h-445v-621h439z" />
    <glyph glyph-name="uni044D" unicode="&#x44d;" horiz-adv-x="1333" 
d="M639 1147q158 0 288.5 -75t206.5 -209t76 -300t-76 -300t-206.5 -208.5t-288.5 -74.5q-189 0 -335 102.5t-202 273.5h52q50 -147 181.5 -239t303.5 -92q218 0 368 148.5t156 371.5h-604v45h604q-7 145 -77 262.5t-187.5 183.5t-259.5 66q-172 0 -303.5 -92t-181.5 -240
h-52q56 171 202 274t335 103z" />
    <glyph glyph-name="uni044E" unicode="&#x44e;" horiz-adv-x="1804" 
d="M1108 1147q117 0 223 -44.5t183 -121t122 -185.5t45 -233t-44.5 -232.5t-121 -185.5t-182.5 -121t-225 -44q-154 0 -283 72t-206.5 201t-83.5 288h-304v-541h-47v1126h47v-540h304q9 242 174 401.5t399 159.5zM1108 25q145 0 265.5 69t190.5 192.5t70 276.5
q0 114 -41.5 215t-112 171.5t-167.5 111.5t-205 41q-107 0 -204 -40.5t-168 -111t-112.5 -171.5t-41.5 -216q0 -230 152.5 -384t373.5 -154z" />
    <glyph glyph-name="uni044F" unicode="&#x44f;" horiz-adv-x="1189" 
d="M489 1126h517v-1126h-48v465h-426l-407 -465h-64l410 465q-189 7 -277 89.5t-88 221.5q0 78 18.5 138.5t60.5 109.5t118.5 75.5t185.5 26.5zM500 510h458v571h-471q-98 0 -165.5 -23t-103 -66.5t-50 -95t-14.5 -120.5q0 -266 346 -266z" />
    <glyph glyph-name="uni0451" unicode="&#x451;" horiz-adv-x="1337" 
d="M440 1487q-23 0 -39 16t-16 39t16 39t39 16t39.5 -16t16.5 -39t-16.5 -39t-39.5 -16zM903 1487q-23 0 -39 16t-16 39t16 39t39 16q24 0 41 -16t17 -39t-17 -39t-41 -16zM694 25q153 0 274.5 64.5t182.5 184.5h51q-65 -144 -202 -219t-306 -75q-250 0 -410.5 158.5
t-160.5 418.5q0 259 159 424.5t404 165.5q254 0 401.5 -165.5t147.5 -438.5h-1065q5 -157 73 -275t185 -180.5t266 -62.5zM686 1102q-218 0 -362.5 -143.5t-153.5 -370.5h1018q-8 226 -146 370t-356 144z" />
    <glyph glyph-name="uni0454" unicode="&#x454;" horiz-adv-x="1333" 
d="M698 25q169 0 298.5 91.5t183.5 239.5h51q-59 -171 -203.5 -273.5t-329.5 -102.5q-158 0 -289.5 74.5t-208.5 208.5t-77 300q0 124 45 233.5t122.5 186t183.5 120.5t224 44q185 0 329.5 -103t203.5 -274h-51q-54 148 -184 240t-298 92q-142 0 -260.5 -66t-189.5 -183.5
t-78 -262.5h604v-45h-604q5 -147 76 -266.5t190 -186.5t262 -67z" />
    <glyph glyph-name="uni0456" unicode="&#x456;" horiz-adv-x="415" 
d="M209 1597q23 0 39 -16t16 -39t-16 -39t-39 -16t-39 16t-16 39t16 39t39 16zM184 0v1126h47v-1126h-47z" />
    <glyph glyph-name="uni0457" unicode="&#x457;" horiz-adv-x="415" 
d="M-25 1597q23 0 39.5 -16t16.5 -39t-16.5 -39t-39.5 -16t-39 16t-16 39t16 39t39 16zM438 1597q24 0 41 -16t17 -39t-17 -39t-41 -16q-23 0 -39 16t-16 39t16 39t39 16zM184 0v1126h47v-1126h-47z" />
    <glyph glyph-name="uni045E" unicode="&#x45e;" horiz-adv-x="1138" 
d="M567 1382q-137 0 -225 81.5t-88 213.5v19h49v-15q0 -116 71.5 -183.5t192.5 -67.5q122 0 194.5 67.5t72.5 183.5v15h49v-19q0 -132 -89.5 -213.5t-226.5 -81.5zM1024 1126h53l-786 -1638h-53l305 635l-482 1003h54l454 -948z" />
    <glyph glyph-name="uni0490" unicode="&#x490;" horiz-adv-x="1101" 
d="M1020 1577v-188h-766v-1389h-49v1434h766v143h49z" />
    <glyph glyph-name="uni0491" unicode="&#x491;" horiz-adv-x="948" 
d="M887 1278v-197h-656v-1081h-47v1126h656v152h47z" />
    <glyph glyph-name="Wgrave" unicode="&#x1e80;" horiz-adv-x="2013" 
d="M1196 1612l-37 -35l-342 342l35 37zM1882 1434h49l-434 -1434h-70l-157 518l-260 850l-6 2l-259 -852l-157 -518h-70l-436 1434h51l420 -1381l420 1381h69l207 -686l213 -695z" />
    <glyph glyph-name="wgrave" unicode="&#x1e81;" horiz-adv-x="1652" 
d="M1016 1378l-37 -35l-342 343l35 36zM1540 1126h51l-354 -1126h-72l-118 379l-218 684l-6 2l-217 -684l-119 -381h-69l-357 1126h52l112 -354l228 -721l227 721l113 354h69l111 -354l229 -719l228 719z" />
    <glyph glyph-name="Wacute" unicode="&#x1e82;" horiz-adv-x="2013" 
d="M1196 1919l-344 -342l-35 35l342 344zM1882 1434h49l-434 -1434h-70l-157 518l-260 850l-6 2l-259 -852l-157 -518h-70l-436 1434h51l420 -1381l420 1381h69l207 -686l213 -695z" />
    <glyph glyph-name="wacute" unicode="&#x1e83;" horiz-adv-x="1652" 
d="M1016 1686l-344 -343l-35 35l342 344zM1540 1126h51l-354 -1126h-72l-118 379l-218 684l-6 2l-217 -684l-119 -381h-69l-357 1126h52l112 -354l228 -721l227 721l113 354h69l111 -354l229 -719l228 719z" />
    <glyph glyph-name="Wdieresis" unicode="&#x1e84;" horiz-adv-x="2013" 
d="M774 1720q-23 0 -39 16.5t-16 39.5t16 39t39 16t39 -16t16 -39t-16 -39.5t-39 -16.5zM1237 1720q-23 0 -39 16.5t-16 39.5t16 39t39 16t40 -16t17 -39t-17 -39.5t-40 -16.5zM1882 1434h49l-434 -1434h-70l-157 518l-260 850l-6 2l-259 -852l-157 -518h-70l-436 1434h51
l420 -1381l420 1381h69l207 -686l213 -695z" />
    <glyph glyph-name="wdieresis" unicode="&#x1e85;" horiz-adv-x="1652" 
d="M594 1487q-23 0 -39 16t-16 39t16 39t39 16t39 -16t16 -39t-16 -39t-39 -16zM1057 1487q-23 0 -39.5 16t-16.5 39t16.5 39t39.5 16t40 -16t17 -39t-17 -39t-40 -16zM1540 1126h51l-354 -1126h-72l-118 379l-218 684l-6 2l-217 -684l-119 -381h-69l-357 1126h52l112 -354
l228 -721l227 721l113 354h69l111 -354l229 -719l228 719z" />
    <glyph glyph-name="Ygrave" unicode="&#x1ef2;" horiz-adv-x="1316" 
d="M848 1612l-37 -35l-342 342l35 37zM1235 1434l-551 -873v-561h-49v557l-553 877h57l520 -824l519 824h57z" />
    <glyph glyph-name="ygrave" unicode="&#x1ef3;" horiz-adv-x="1138" 
d="M758 1378l-37 -35l-342 343l35 36zM1024 1126h53l-786 -1638h-53l305 635l-482 1003h54l454 -948z" />
    <glyph glyph-name="uni2009" unicode="&#x2009;" horiz-adv-x="307" 
 />
    <glyph glyph-name="endash" unicode="&#x2013;" horiz-adv-x="1296" 
d="M1092 649v-45h-887v45h887z" />
    <glyph glyph-name="emdash" unicode="&#x2014;" horiz-adv-x="1583" 
d="M1378 649v-45h-1173v45h1173z" />
    <glyph glyph-name="quoteleft" unicode="&#x2018;" horiz-adv-x="579" 
d="M264 1104q22 -3 36.5 -18.5t14.5 -38.5q0 -25 -16 -41.5t-39 -16.5q-21 0 -37.5 14t-17.5 41q-1 12 3 31.5t31.5 105.5t84.5 253h51z" />
    <glyph glyph-name="quoteright" unicode="&#x2019;" horiz-adv-x="579" 
d="M375 1399q1 -12 -3 -31.5t-31 -105t-85 -252.5h-51l110 329q-22 3 -36.5 19t-14.5 39q0 25 16 41t39 16q21 0 38 -14t18 -41z" />
    <glyph glyph-name="quotesinglbase" unicode="&#x201a;" horiz-adv-x="579" 
d="M375 37q1 -12 -3 -31.5t-31 -105t-85 -252.5h-51l110 329q-22 3 -36.5 19t-14.5 39q0 25 16 41t39 16q21 0 38 -14t18 -41z" />
    <glyph glyph-name="quotedblleft" unicode="&#x201c;" horiz-adv-x="894" 
d="M324 1434h51l-111 -330q22 -3 36.5 -18.5t14.5 -38.5q0 -25 -16 -41.5t-39 -16.5q-21 0 -37.5 14t-17.5 41q-1 12 3 31.5t31.5 105.5t84.5 253zM580 1104q22 -3 36.5 -18.5t14.5 -38.5q0 -25 -16.5 -41.5t-39.5 -16.5q-21 0 -37.5 14t-17.5 41q-1 12 3 31.5t31.5 105.5
t84.5 253h51z" />
    <glyph glyph-name="quotedblright" unicode="&#x201d;" horiz-adv-x="894" 
d="M319 1454q21 0 38 -14t18 -41q1 -12 -3 -31.5t-31 -105t-85 -252.5h-51l110 329q-22 3 -36.5 19t-14.5 39q0 25 16 41t39 16zM690 1399q1 -12 -3 -31.5t-31 -105t-85 -252.5h-51l111 329q-22 3 -36.5 19t-14.5 39q0 25 16 41t39 16q21 0 37.5 -14t17.5 -41z" />
    <glyph glyph-name="quotedblbase" unicode="&#x201e;" horiz-adv-x="894" 
d="M319 92q21 0 38 -14t18 -41q1 -12 -3 -31.5t-31 -105t-85 -252.5h-51l110 329q-22 3 -36.5 19t-14.5 39q0 25 16 41t39 16zM690 37q1 -12 -3 -31.5t-31 -105t-85 -252.5h-51l111 329q-22 3 -36.5 19t-14.5 39q0 25 16 41t39 16q21 0 37.5 -14t17.5 -41z" />
    <glyph glyph-name="dagger" unicode="&#x2020;" horiz-adv-x="1280" 
d="M664 1434v-457h411v-47h-411v-1137h-48v1137h-411v47h411v457h48z" />
    <glyph glyph-name="daggerdbl" unicode="&#x2021;" horiz-adv-x="1280" 
d="M664 1434v-451h411v-47h-411v-559h411v-45h-411v-539h-48v539h-411v45h411v559h-411v47h411v451h48z" />
    <glyph glyph-name="bullet" unicode="&#x2022;" horiz-adv-x="919" 
d="M461 829q109 0 181.5 -69t72.5 -174t-72.5 -174.5t-181.5 -69.5q-110 0 -183 69t-73 175q0 105 72.5 174t183.5 69z" />
    <glyph glyph-name="ellipsis" unicode="&#x2026;" horiz-adv-x="1335" 
d="M260 92q23 0 39 -16t16 -39t-16 -40t-39 -17t-39 17t-16 40t16 39t39 16zM668 92q23 0 39 -16t16 -39t-16 -40t-39 -17t-39.5 17t-16.5 40t16.5 39t39.5 16zM1075 92q23 0 39 -16t16 -39t-16 -40t-39 -17t-39 17t-16 40t16 39t39 16z" />
    <glyph glyph-name="perthousand" unicode="&#x2030;" horiz-adv-x="2940" 
d="M553 594q-158 0 -253 108.5t-95 321.5t95 321.5t253 108.5t253 -108.5t95 -321.5t-95 -321.5t-253 -108.5zM1489 1434l-819 -1434h-56l820 1434h55zM553 639q138 0 219.5 95.5t81.5 289.5t-81.5 289.5t-219.5 95.5t-219.5 -95.5t-81.5 -289.5t81.5 -289.5t219.5 -95.5z
M1550 840q158 0 253 -108.5t95 -321.5t-95 -321.5t-253 -108.5t-253 108.5t-95 321.5t95 321.5t253 108.5zM2388 840q158 0 253 -108.5t95 -321.5t-95 -321.5t-253 -108.5t-253 108.5t-95 321.5t95 321.5t253 108.5zM1550 795q-138 0 -219.5 -95.5t-81.5 -289.5t81.5 -289.5
t219.5 -95.5t219.5 95.5t81.5 289.5t-81.5 289.5t-219.5 95.5zM2388 795q-138 0 -219.5 -95.5t-81.5 -289.5t81.5 -289.5t219.5 -95.5t219.5 95.5t81.5 289.5t-81.5 289.5t-219.5 95.5z" />
    <glyph glyph-name="guilsinglleft" unicode="&#x2039;" horiz-adv-x="782" 
d="M545 231l-340 340l340 340l33 -32l-308 -308l308 -307z" />
    <glyph glyph-name="guilsinglright" unicode="&#x203a;" horiz-adv-x="782" 
d="M238 231l-33 33l307 307l-307 308l33 32l340 -340z" />
    <glyph glyph-name="fraction" unicode="&#x2044;" horiz-adv-x="260" 
d="M-307 0l819 1434h55l-819 -1434h-55z" />
    <glyph glyph-name="uni2070" unicode="&#x2070;" horiz-adv-x="860" 
d="M430 737q-158 0 -253 108.5t-95 321.5t95 321.5t253 108.5t253 -108.5t95 -321.5t-95 -321.5t-253 -108.5zM430 782q138 0 219.5 95.5t81.5 289.5t-81.5 289.5t-219.5 95.5t-219.5 -95.5t-81.5 -289.5t81.5 -289.5t219.5 -95.5z" />
    <glyph glyph-name="uni2074" unicode="&#x2074;" horiz-adv-x="843" 
d="M762 999v-45h-156v-196h-47v196h-477v45l455 578h69v-578h156zM139 999h420v535z" />
    <glyph glyph-name="uni2075" unicode="&#x2075;" horiz-adv-x="804" 
d="M426 1303q119 0 208 -76t89 -205q0 -124 -84.5 -204.5t-218.5 -80.5q-55 0 -107 14.5t-100 44t-83 82t-48 121.5h47q23 -103 102 -160t187 -57q117 0 187.5 67.5t70.5 168.5q0 100 -68 169.5t-182 69.5q-155 0 -260 -127h-45l94 447h471v-45h-434l-70 -332
q41 45 105.5 74t138.5 29z" />
    <glyph glyph-name="uni2076" unicode="&#x2076;" horiz-adv-x="780" 
d="M399 1303q131 0 215 -81t84 -200q0 -121 -85.5 -203t-223.5 -82q-137 0 -222 84t-85 203q0 37 11 75.5t25.5 69t51 82t63.5 85.5t88.5 111.5t102.5 129.5h51l-246 -320q73 46 170 46zM389 782q121 0 191.5 69.5t70.5 170.5q0 100 -69 167.5t-193 67.5
q-117 0 -188.5 -65.5t-71.5 -167.5q0 -101 69.5 -171.5t190.5 -70.5z" />
    <glyph glyph-name="uni2077" unicode="&#x2077;" horiz-adv-x="724" 
d="M82 1577h561v-45l-381 -774h-51l383 774h-512v45z" />
    <glyph glyph-name="uni2078" unicode="&#x2078;" horiz-adv-x="802" 
d="M551 1188q67 -15 118.5 -73t51.5 -140q0 -107 -84.5 -172.5t-235.5 -65.5q-150 0 -234.5 65.5t-84.5 172.5q0 82 51.5 140t118.5 73q-137 63 -137 186q0 100 80.5 161.5t205.5 61.5t206 -61.5t81 -161.5q0 -123 -137 -186zM162 1374q0 -79 64.5 -125.5t174.5 -46.5
t175 46.5t65 125.5q0 83 -67 130.5t-173 47.5q-105 0 -172 -47.5t-67 -130.5zM401 782q128 0 200.5 51t72.5 142q0 87 -69 134.5t-204 47.5t-203.5 -47t-68.5 -135q0 -91 72 -142t200 -51z" />
    <glyph glyph-name="uni2079" unicode="&#x2079;" horiz-adv-x="780" 
d="M391 1597q137 0 222 -83.5t85 -202.5q0 -37 -11 -75.5t-25.5 -69t-51 -82t-63.5 -85.5t-88.5 -111.5t-102.5 -129.5h-51l246 319q-72 -45 -170 -45q-132 0 -215.5 80t-83.5 199q0 120 85.5 203t223.5 83zM391 1077q117 0 188.5 65.5t71.5 168.5q0 101 -69.5 171
t-190.5 70t-191.5 -70.5t-70.5 -170.5t69 -167t193 -67z" />
    <glyph glyph-name="Euro" unicode="&#x20ac;" horiz-adv-x="1880" 
d="M1108 25q208 0 372.5 108t245.5 291h52q-83 -206 -261.5 -325t-404.5 -119q-273 0 -471.5 161t-249.5 420h-289v47h281q-6 52 -6 109q0 55 6 108h-281v45h289q50 260 248.5 422t472.5 162q226 0 404.5 -119t261.5 -325h-52q-81 183 -245.5 291t-372.5 108
q-247 0 -432 -151t-236 -388h734v-45h-742q-8 -47 -8 -108q0 -62 8 -109h742v-47h-734q51 -236 236.5 -386t431.5 -150z" />
    <glyph glyph-name="uni2116" unicode="&#x2116;" horiz-adv-x="2592" 
d="M1956 588q-180 0 -307 126.5t-127 305.5q0 180 127 307t307 127q179 0 305.5 -127t126.5 -307q0 -178 -127 -305t-305 -127zM1278 1434h49v-1434h-84l-989 1399v-1399h-49v1434h84l989 -1399v1399zM1956 1407q-160 0 -273.5 -113t-113.5 -274q0 -160 113.5 -273.5
t273.5 -113.5q158 0 271.5 113.5t113.5 273.5q0 161 -113 274t-272 113zM1546 338v47h821v-47h-821zM1546 0v45h821v-45h-821z" />
    <glyph glyph-name="trademark" unicode="&#x2122;" horiz-adv-x="1671" 
d="M205 1532v45h481v-45h-217v-582h-49v582h-215zM1407 1577h59v-627h-47v566l-272 -373h-2l-275 373v-566h-47v627h60l262 -358z" />
    <glyph glyph-name="oneeighth" unicode="&#x215b;" horiz-adv-x="1658" 
d="M365 614v762l-283 -110v49l307 119h23v-820h-47zM1108 1434h55l-819 -1434h-55zM1407 430q67 -15 118.5 -73t51.5 -140q0 -107 -84.5 -172t-235.5 -65t-235 65t-84 172q0 82 51.5 140t118.5 73q-137 63 -137 186q0 100 81 162t205 62q125 0 206 -62t81 -162
q0 -123 -137 -186zM1018 616q0 -79 64.5 -125.5t174.5 -46.5t175 46.5t65 125.5q0 83 -67.5 131t-172.5 48t-172 -48t-67 -131zM1257 25q128 0 200.5 51t72.5 141q0 87 -69 134.5t-204 47.5t-203.5 -47t-68.5 -135q0 -91 72 -141.5t200 -50.5z" />
    <glyph glyph-name="threeeighths" unicode="&#x215c;" horiz-adv-x="1884" 
d="M739 840q0 -107 -83 -176.5t-222 -69.5q-81 0 -151.5 25t-126.5 86t-74 151h47q24 -104 106.5 -160.5t196.5 -56.5q120 0 190 55t70 148q0 85 -49.5 131.5t-124.5 46.5h-196v45h127q84 0 147 38t63 118q0 88 -65.5 138t-171.5 50q-103 0 -177.5 -53.5t-92.5 -163.5h-48
q10 67 40 118.5t73.5 82t95.5 46t111 15.5q127 0 205 -65t78 -168q0 -105 -111 -164q63 -21 103 -78t40 -139zM1333 1434h56l-820 -1434h-55zM1632 430q67 -15 118.5 -73t51.5 -140q0 -107 -84 -172t-235 -65t-235.5 65t-84.5 172q0 82 51.5 140t118.5 73q-137 63 -137 186
q0 100 81 162t206 62q124 0 205 -62t81 -162q0 -123 -137 -186zM1243 616q0 -79 65 -125.5t175 -46.5t174.5 46.5t64.5 125.5q0 83 -67 131t-172 48t-172.5 -48t-67.5 -131zM1483 25q128 0 200 50.5t72 141.5q0 88 -68.5 135t-203.5 47t-204 -47.5t-69 -134.5
q0 -90 72.5 -141t200.5 -51z" />
    <glyph glyph-name="fiveeighths" unicode="&#x215d;" horiz-adv-x="1867" 
d="M723 879q0 -124 -84.5 -204.5t-218.5 -80.5q-55 0 -107 14.5t-100 44t-83 82t-48 121.5h47q23 -103 102 -160t187 -57q117 0 187.5 67t70.5 168q0 100 -68 170t-182 70q-155 0 -260 -127h-45l94 447h471v-45h-434l-70 -332q41 44 105.5 73t138.5 29q119 0 208 -75.5
t89 -204.5zM1317 1434h55l-819 -1434h-55zM1616 430q67 -15 118.5 -73t51.5 -140q0 -107 -84.5 -172t-235.5 -65t-235 65t-84 172q0 82 51.5 140t118.5 73q-137 63 -137 186q0 100 81 162t205 62q125 0 206 -62t81 -162q0 -123 -137 -186zM1227 616q0 -79 64.5 -125.5
t174.5 -46.5t175 46.5t65 125.5q0 83 -67.5 131t-172.5 48t-172 -48t-67 -131zM1466 25q128 0 200.5 51t72.5 141q0 87 -69 134.5t-204 47.5t-203.5 -47t-68.5 -135q0 -91 72 -141.5t200 -50.5z" />
    <glyph glyph-name="seveneighths" unicode="&#x215e;" horiz-adv-x="1644" 
d="M643 1434v-45l-381 -775h-51l383 775h-512v45h561zM1094 1434h55l-819 -1434h-56zM1393 430q67 -15 118.5 -73t51.5 -140q0 -107 -84.5 -172t-235.5 -65t-235 65t-84 172q0 82 51.5 140t118.5 73q-138 64 -138 186q0 100 81 162t206 62t206 -62t81 -162q0 -123 -137 -186
zM1004 616q0 -79 64.5 -125.5t174.5 -46.5t175 46.5t65 125.5q0 83 -67.5 131t-172.5 48t-172 -48t-67 -131zM1243 25q128 0 200.5 51t72.5 141q0 87 -69 134.5t-204 47.5t-203.5 -47t-68.5 -135q0 -91 72 -141.5t200 -50.5z" />
    <glyph glyph-name="arrowleft" unicode="&#x2190;" horiz-adv-x="2007" 
d="M545 451l-340 340l340 339l33 -32l-283 -283h1507v-49h-1507l283 -283z" />
    <glyph glyph-name="arrowup" unicode="&#x2191;" horiz-adv-x="1089" 
d="M520 0v1364l-282 -283l-33 33l340 340l340 -340l-33 -33l-283 283v-1364h-49z" />
    <glyph glyph-name="arrowright" unicode="&#x2192;" horiz-adv-x="2007" 
d="M1462 451l-32 32l282 283h-1507v49h1507l-282 283l32 32l340 -339z" />
    <glyph glyph-name="arrowdown" unicode="&#x2193;" horiz-adv-x="1089" 
d="M545 -12l-340 340l33 32l282 -282v1509h49v-1509l283 282l33 -32z" />
    <glyph glyph-name="arrowboth" unicode="&#x2194;" horiz-adv-x="2199" 
d="M1655 451l-33 32l283 283h-1610l283 -283l-33 -32l-340 340l340 339l33 -32l-283 -283h1610l-283 283l33 32l340 -339z" />
    <glyph glyph-name="arrowupdn" unicode="&#x2195;" horiz-adv-x="1089" 
d="M545 -12l-340 340l33 32l282 -282v1288l-282 -285l-33 33l340 340l340 -340l-33 -33l-283 285v-1288l283 282l33 -32z" />
    <glyph glyph-name="uni2196" unicode="&#x2196;" horiz-adv-x="1556" 
d="M1317 217l-1065 1067v-401h-47v481h481v-45h-401l1067 -1067z" />
    <glyph glyph-name="uni2197" unicode="&#x2197;" horiz-adv-x="1556" 
d="M238 217l-33 35l1067 1067h-402v45h482v-481h-47v401z" />
    <glyph glyph-name="uni2198" unicode="&#x2198;" horiz-adv-x="1556" 
d="M870 225v47h402l-1067 1067l35 35l1065 -1067v400h47v-482h-482z" />
    <glyph glyph-name="uni2199" unicode="&#x2199;" horiz-adv-x="1556" 
d="M205 223v482h47v-402l1065 1067l35 -35l-1067 -1067h401v-45h-481z" />
    <glyph glyph-name="partialdiff" unicode="&#x2202;" horiz-adv-x="1411" 
d="M836 1454q61 0 113.5 -17.5t103 -57.5t84.5 -112.5t54 -174t16 -252t-33 -336.5q-40 -243 -190.5 -383.5t-367.5 -140.5q-210 0 -325 142.5t-80 362.5q35 221 182.5 345t358.5 124q66 0 125.5 -15.5t113.5 -47.5t95 -88.5t61 -132.5q70 739 -320 739q-176 0 -381 -113
l-10 47q207 111 400 111zM1122 485q12 77 -6.5 152.5t-64 136t-123.5 98t-176 37.5q-189 0 -326 -111.5t-168 -312.5q-32 -202 68.5 -331t294.5 -129q190 0 329.5 128t171.5 332z" />
    <glyph glyph-name="emptyset" unicode="&#x2205;" horiz-adv-x="1675" 
d="M1470 1161l-204 -205q145 -164 145 -393q0 -124 -44.5 -232.5t-121 -185.5t-182.5 -121t-225 -44q-233 0 -396 153l-202 -203l-35 35l205 205q-146 162 -146 393q0 124 45.5 233.5t123 186t183 120.5t222.5 44q231 0 393 -156l205 205zM311 563q0 -210 131 -360l758 758
q-71 67 -165 104t-197 37q-107 0 -204 -40.5t-168 -111t-113 -171.5t-42 -216zM1364 563q0 214 -131 361l-758 -758q151 -141 363 -141q145 0 265.5 69t190.5 192.5t70 276.5z" />
    <glyph glyph-name="product" unicode="&#x220f;" horiz-adv-x="1730" 
d="M1526 1434v-45h-207v-1389h-47v1389h-815v-1389h-47v1389h-205v45h1321z" />
    <glyph glyph-name="summation" unicode="&#x2211;" horiz-adv-x="1351" 
d="M1147 1434v-45h-883l588 -650v-45l-588 -649h883v-45h-942v49l600 668l-600 667v50h942z" />
    <glyph glyph-name="minus" unicode="&#x2212;" horiz-adv-x="1435" 
d="M1231 649v-45h-1026v45h1026z" />
    <glyph glyph-name="radical" unicode="&#x221a;" horiz-adv-x="1740" 
d="M1485 1434h51l-588 -1434h-69l-443 1081h-231v45h264l444 -1087z" />
    <glyph glyph-name="infinity" unicode="&#x221e;" horiz-adv-x="1880" 
d="M1350 934q148 0 236.5 -93.5t88.5 -244.5t-89 -243.5t-236 -92.5q-68 0 -129.5 23t-111.5 65.5t-89 90.5t-78 110q-169 -289 -410 -289q-149 0 -238 92.5t-89 243.5t89 244.5t234 93.5q134 0 233 -79.5t181 -215.5q175 293 408 295zM530 303q121 0 214 76.5t174 212.5
q-84 140 -177 218.5t-215 78.5q-123 0 -198.5 -81t-75.5 -212t75.5 -212t202.5 -81zM1352 303q125 0 200.5 81t75.5 212t-74.5 212t-203.5 81q-120 -3 -211.5 -81.5t-169.5 -213.5q81 -137 172 -214t211 -77z" />
    <glyph glyph-name="integral" unicode="&#x222b;" horiz-adv-x="1447" 
d="M1034 1597q110 0 159.5 -59t49.5 -147h-47q0 22 -3.5 42t-14 43t-27.5 39t-47 26.5t-70 10.5q-47 0 -81.5 -15.5t-56 -40t-36.5 -66t-22 -81.5t-13 -98l-155 -1437q-8 -82 -22.5 -139.5t-42 -107t-75.5 -74.5t-116 -25q-110 0 -159.5 59t-49.5 147h47q0 -22 3.5 -42
t14 -43t27.5 -39t47 -26.5t70 -10.5q47 0 81.5 15.5t56 40t36.5 66t22 81.5t13 98l155 1437q8 82 22.5 139.5t42 107t75.5 74.5t116 25z" />
    <glyph glyph-name="approxequal" unicode="&#x2248;" horiz-adv-x="1304" 
d="M883 664q-49 0 -97.5 22t-77.5 46.5t-71 66.5l-8 8q-34 35 -56.5 54.5t-66 41t-86.5 21.5q-81 0 -124.5 -64t-43.5 -164h-47q0 123 59.5 198t157.5 75q49 0 97.5 -22t77.5 -46.5t71 -66.5l8 -8q34 -35 56.5 -54.5t66 -41t86.5 -21.5q81 0 124.5 63.5t43.5 163.5h47
q0 -123 -59.5 -197.5t-157.5 -74.5zM883 295q-49 0 -97.5 22t-77.5 46.5t-71 66.5l-8 8q-34 35 -56.5 54.5t-66 41t-86.5 21.5q-81 0 -124.5 -63.5t-43.5 -163.5h-47q0 123 59.5 197.5t157.5 74.5q49 0 97.5 -22t77.5 -46.5t71 -66.5l8 -8q34 -35 56.5 -54.5t66 -41
t86.5 -21.5q81 0 124.5 63.5t43.5 163.5h47q0 -123 -59.5 -197.5t-157.5 -74.5z" />
    <glyph glyph-name="notequal" unicode="&#x2260;" horiz-adv-x="1435" 
d="M907 1249l-110 -415h434v-48h-447l-84 -323h531v-45h-543l-110 -418h-50l111 418h-434v45h446l86 323h-532v48h543l110 415h49z" />
    <glyph glyph-name="lessequal" unicode="&#x2264;" horiz-adv-x="1435" 
d="M1231 1042v-51l-940 -231l940 -234v-51l-1026 258v51zM1231 285v-45h-1026v45h1026z" />
    <glyph glyph-name="greaterequal" unicode="&#x2265;" horiz-adv-x="1435" 
d="M205 1042l1026 -258v-51l-1026 -258v51l940 234l-940 231v51zM1231 285v-45h-1026v45h1026z" />
    <glyph glyph-name="lozenge" unicode="&#x25ca;" horiz-adv-x="1576" 
d="M788 1147l584 -584l-584 -583l-583 583zM788 1083l-518 -520l518 -518l521 518z" />
    <glyph glyph-name="A.001" horiz-adv-x="1454" 
d="M1321 0l-221 522h-746l-221 -522h-51l610 1434h70l610 -1434h-51zM375 567h704l-352 834z" />
    <glyph glyph-name="zero.subs" horiz-adv-x="860" 
d="M430 737q-158 0 -253 108.5t-95 321.5t95 321.5t253 108.5t253 -108.5t95 -321.5t-95 -321.5t-253 -108.5zM430 782q138 0 219.5 95.5t81.5 289.5t-81.5 289.5t-219.5 95.5t-219.5 -95.5t-81.5 -289.5t81.5 -289.5t219.5 -95.5z" />
    <glyph glyph-name="one.subs" horiz-adv-x="493" 
d="M389 1577h23v-819h-47v762l-283 -111v49z" />
    <glyph glyph-name="two.subs" horiz-adv-x="833" 
d="M170 803h582v-45h-670v35l295 219q173 128 232 193.5t59 146.5q0 87 -65 143.5t-175 56.5q-115 0 -187.5 -60.5t-90.5 -180.5h-48q20 142 107.5 214t220.5 72q130 0 207.5 -71t77.5 -172q0 -50 -16.5 -92.5t-57 -87t-86 -82.5t-125.5 -97z" />
    <glyph glyph-name="three.subs" horiz-adv-x="821" 
d="M596 1200q63 -21 103 -78t40 -139q0 -107 -83 -176.5t-222 -69.5q-81 0 -151.5 25t-126.5 86t-74 151h47q24 -104 106.5 -160.5t196.5 -56.5q120 0 190 55t70 148q0 85 -49.5 131.5t-124.5 46.5h-196v45h127q84 0 147 38t63 118q0 88 -65.5 138t-171.5 50
q-103 0 -177.5 -53.5t-92.5 -163.5h-48q10 67 40 118.5t73.5 82t95.5 46t111 15.5q127 0 205 -65t78 -168q0 -105 -111 -164z" />
    <glyph glyph-name="four.subs" horiz-adv-x="843" 
d="M762 999v-45h-156v-196h-47v196h-477v45l455 578h69v-578h156zM139 999h420v535z" />
    <glyph glyph-name="five.subs" horiz-adv-x="804" 
d="M426 1303q119 0 208 -76t89 -205q0 -124 -84.5 -204.5t-218.5 -80.5q-55 0 -107 14.5t-100 44t-83 82t-48 121.5h47q23 -103 102 -160t187 -57q117 0 187.5 67.5t70.5 168.5q0 100 -68 169.5t-182 69.5q-155 0 -260 -127h-45l94 447h471v-45h-434l-70 -332
q41 45 105.5 74t138.5 29z" />
    <glyph glyph-name="six.subs" horiz-adv-x="780" 
d="M399 1303q131 0 215 -81t84 -200q0 -121 -85.5 -203t-223.5 -82q-137 0 -222 84t-85 203q0 37 11 75.5t25.5 69t51 82t63.5 85.5t88.5 111.5t102.5 129.5h51l-246 -320q73 46 170 46zM389 782q121 0 191.5 69.5t70.5 170.5q0 100 -69 167.5t-193 67.5
q-117 0 -188.5 -65.5t-71.5 -167.5q0 -101 69.5 -171.5t190.5 -70.5z" />
    <glyph glyph-name="seven.subs" horiz-adv-x="724" 
d="M82 1577h561v-45l-381 -774h-51l383 774h-512v45z" />
    <glyph glyph-name="eight.subs" horiz-adv-x="802" 
d="M551 1188q67 -15 118.5 -73t51.5 -140q0 -107 -84.5 -172.5t-235.5 -65.5q-150 0 -234.5 65.5t-84.5 172.5q0 82 51.5 140t118.5 73q-137 63 -137 186q0 100 80.5 161.5t205.5 61.5t206 -61.5t81 -161.5q0 -123 -137 -186zM162 1374q0 -79 64.5 -125.5t174.5 -46.5
t175 46.5t65 125.5q0 83 -67 130.5t-173 47.5q-105 0 -172 -47.5t-67 -130.5zM401 782q128 0 200.5 51t72.5 142q0 87 -69 134.5t-204 47.5t-203.5 -47t-68.5 -135q0 -91 72 -142t200 -51z" />
    <glyph glyph-name="nine.subs" horiz-adv-x="780" 
d="M391 1597q137 0 222 -83.5t85 -202.5q0 -37 -11 -75.5t-25.5 -69t-51 -82t-63.5 -85.5t-88.5 -111.5t-102.5 -129.5h-51l246 319q-72 -45 -170 -45q-132 0 -215.5 80t-83.5 199q0 120 85.5 203t223.5 83zM391 1077q117 0 188.5 65.5t71.5 168.5q0 101 -69.5 171
t-190.5 70t-191.5 -70.5t-70.5 -170.5t69 -167t193 -67z" />
    <glyph glyph-name="zero.dnom" horiz-adv-x="860" 
d="M430 -20q-158 0 -253 108.5t-95 321.5t95 321.5t253 108.5t253 -108.5t95 -321.5t-95 -321.5t-253 -108.5zM430 25q138 0 219.5 95.5t81.5 289.5t-81.5 289.5t-219.5 95.5t-219.5 -95.5t-81.5 -289.5t81.5 -289.5t219.5 -95.5z" />
    <glyph glyph-name="one.dnom" horiz-adv-x="493" 
d="M389 819h23v-819h-47v762l-283 -111v49z" />
    <glyph glyph-name="two.dnom" horiz-adv-x="833" 
d="M170 45h582v-45h-670v35l295 219q173 128 232 193.5t59 146.5q0 87 -65 144t-175 57q-115 0 -187.5 -60.5t-90.5 -181.5h-48q20 142 108 214.5t220 72.5q130 0 207.5 -71.5t77.5 -172.5q0 -50 -16.5 -92t-57 -86.5t-86 -82.5t-125.5 -97z" />
    <glyph glyph-name="three.dnom" horiz-adv-x="821" 
d="M596 442q63 -21 103 -78t40 -139q0 -107 -82.5 -176t-222.5 -69q-81 0 -151.5 25t-126.5 86t-74 151h47q24 -104 106.5 -160.5t196.5 -56.5q120 0 190 55t70 147q0 85 -49.5 132t-124.5 47h-196v45h127q53 0 98 13.5t78.5 50t33.5 91.5q0 88 -65.5 138.5t-171.5 50.5
q-103 0 -177.5 -53.5t-92.5 -163.5h-48q10 67 40 118.5t73.5 82t95.5 46t111 15.5q127 0 205 -65.5t78 -168.5q0 -105 -111 -164z" />
    <glyph glyph-name="four.dnom" horiz-adv-x="843" 
d="M762 242v-45h-156v-197h-47v197h-477v45l455 577h69v-577h156zM139 242h420v534z" />
    <glyph glyph-name="five.dnom" horiz-adv-x="804" 
d="M426 545q119 0 208 -76t89 -205q0 -124 -84.5 -204t-218.5 -80q-55 0 -107 14.5t-100 44t-83 82t-48 121.5h47q23 -103 102 -160t187 -57q117 0 187.5 67t70.5 168q0 100 -68 170t-182 70q-155 0 -260 -127h-45l94 446h471v-45h-434l-70 -332q41 45 105.5 74t138.5 29z
" />
    <glyph glyph-name="six.dnom" horiz-adv-x="780" 
d="M399 545q131 0 215 -81t84 -200q0 -121 -85.5 -202.5t-223.5 -81.5q-137 0 -222 83.5t-85 202.5q0 37 11 75.5t25.5 69t51 82t63.5 85.5t88.5 111.5t102.5 129.5h51l-246 -319q72 45 170 45zM389 25q121 0 191.5 69t70.5 170q0 100 -69 168t-193 68q-117 0 -188.5 -65.5
t-71.5 -168.5q0 -101 69.5 -171t190.5 -70z" />
    <glyph glyph-name="seven.dnom" horiz-adv-x="724" 
d="M82 819h561v-45l-381 -774h-51l383 774h-512v45z" />
    <glyph glyph-name="eight.dnom" horiz-adv-x="802" 
d="M551 430q67 -15 118.5 -73t51.5 -140q0 -107 -84.5 -172t-235.5 -65t-235 65t-84 172q0 82 51.5 140t118.5 73q-137 63 -137 186q0 100 81 162t205 62q125 0 206 -62t81 -162q0 -123 -137 -186zM162 616q0 -79 64.5 -125.5t174.5 -46.5t175 46.5t65 125.5q0 83 -67.5 131
t-172.5 48t-172 -48t-67 -131zM401 25q128 0 200.5 51t72.5 141q0 87 -69 134.5t-204 47.5t-203.5 -47t-68.5 -135q0 -91 72 -141.5t200 -50.5z" />
    <glyph glyph-name="nine.dnom" horiz-adv-x="780" 
d="M391 840q137 0 222 -84t85 -203q0 -37 -11 -75.5t-25.5 -69t-51 -82t-63.5 -85.5t-88.5 -111.5t-102.5 -129.5h-51l246 319q-72 -45 -170 -45q-132 0 -215.5 80t-83.5 199q0 120 85.5 203.5t223.5 83.5zM391 319q117 0 188.5 65.5t71.5 168.5q0 101 -69.5 171.5
t-190.5 70.5t-191.5 -71t-70.5 -171t69 -167t193 -67z" />
    <glyph glyph-name="zero.numr" horiz-adv-x="860" 
d="M430 594q-158 0 -253 108.5t-95 321.5t95 321.5t253 108.5t253 -108.5t95 -321.5t-95 -321.5t-253 -108.5zM430 639q138 0 219.5 95.5t81.5 289.5t-81.5 289.5t-219.5 95.5t-219.5 -95.5t-81.5 -289.5t81.5 -289.5t219.5 -95.5z" />
    <glyph glyph-name="one.numr" horiz-adv-x="493" 
d="M389 1434h23v-820h-47v762l-283 -110v49z" />
    <glyph glyph-name="two.numr" horiz-adv-x="833" 
d="M170 659h582v-45h-670v35l295 219q173 128 232 193.5t59 146.5q0 87 -65 144t-175 57q-115 0 -187.5 -60.5t-90.5 -181.5h-48q20 142 108 214.5t220 72.5q130 0 207.5 -71.5t77.5 -172.5q0 -50 -16.5 -92t-57 -86.5t-86 -82.5t-125.5 -97z" />
    <glyph glyph-name="three.numr" horiz-adv-x="821" 
d="M596 1057q63 -21 103 -78t40 -139q0 -107 -83 -176.5t-222 -69.5q-81 0 -151.5 25t-126.5 86t-74 151h47q24 -104 106.5 -160.5t196.5 -56.5q120 0 190 55t70 148q0 85 -49.5 131.5t-124.5 46.5h-196v45h127q84 0 147 38t63 118q0 88 -65.5 138t-171.5 50
q-103 0 -177.5 -53.5t-92.5 -163.5h-48q10 67 40 118.5t73.5 82t95.5 46t111 15.5q127 0 205 -65t78 -168q0 -105 -111 -164z" />
    <glyph glyph-name="four.numr" horiz-adv-x="843" 
d="M762 856v-45h-156v-197h-47v197h-477v45l455 578h69v-578h156zM139 856h420v535z" />
    <glyph glyph-name="five.numr" horiz-adv-x="804" 
d="M426 1159q119 0 208 -75.5t89 -204.5q0 -124 -84.5 -204.5t-218.5 -80.5q-55 0 -107 14.5t-100 44t-83 82t-48 121.5h47q23 -103 102 -160t187 -57q117 0 187.5 67t70.5 168q0 100 -68 170t-182 70q-155 0 -260 -127h-45l94 447h471v-45h-434l-70 -332q41 44 105.5 73
t138.5 29z" />
    <glyph glyph-name="six.numr" horiz-adv-x="780" 
d="M399 1159q132 0 215.5 -80.5t83.5 -199.5q0 -121 -85.5 -203t-223.5 -82q-137 0 -222 84t-85 203q0 37 11 75.5t25.5 69t51 82t63.5 85.5t88.5 111.5t102.5 129.5h51l-246 -320q72 45 170 45zM389 639q121 0 191.5 69.5t70.5 170.5q0 100 -69 167.5t-193 67.5
q-117 0 -188.5 -65.5t-71.5 -167.5q0 -101 69.5 -171.5t190.5 -70.5z" />
    <glyph glyph-name="seven.numr" horiz-adv-x="724" 
d="M82 1434h561v-45l-381 -775h-51l383 775h-512v45z" />
    <glyph glyph-name="eight.numr" horiz-adv-x="802" 
d="M551 1044q67 -15 118.5 -73t51.5 -140q0 -107 -84.5 -172t-235.5 -65t-235 65t-84 172q0 82 51.5 140t118.5 73q-137 63 -137 187q0 100 80.5 161.5t205.5 61.5t206 -61.5t81 -161.5q0 -124 -137 -187zM162 1231q0 -79 64.5 -125.5t174.5 -46.5t175 46.5t65 125.5
q0 83 -67 130.5t-173 47.5q-105 0 -172 -47.5t-67 -130.5zM401 639q128 0 200.5 51t72.5 141q0 88 -69 135.5t-204 47.5q-134 0 -203 -47.5t-69 -135.5q0 -91 72 -141.5t200 -50.5z" />
    <glyph glyph-name="nine.numr" horiz-adv-x="780" 
d="M391 1454q137 0 222 -84t85 -203q0 -37 -11 -75.5t-25.5 -69t-51 -82t-63.5 -85.5t-88.5 -111.5t-102.5 -129.5h-51l246 320q-72 -45 -170 -45q-132 0 -215.5 79.5t-83.5 198.5q0 120 85.5 203.5t223.5 83.5zM391 934q117 0 188.5 65.5t71.5 167.5q0 101 -69.5 171.5
t-190.5 70.5t-191.5 -71t-70.5 -171t69 -166.5t193 -66.5z" />
    <glyph glyph-name="uni0308.case" 
d="M-725 1831q23 0 39 -16t16 -39t-16 -39.5t-39 -16.5t-39 16.5t-16 39.5t16 39t39 16zM-262 1831q23 0 40 -16t17 -39t-17 -39.5t-40 -16.5t-39 16.5t-16 39.5t16 39t39 16z" />
    <glyph glyph-name="uni0307.case" 
d="M-260 1831q23 0 39 -16t16 -39t-16 -39.5t-39 -16.5t-39 16.5t-16 39.5t16 39t39 16z" />
    <glyph glyph-name="gravecomb.case" 
d="M-549 1956l344 -344l-37 -35l-342 342z" />
    <glyph glyph-name="acutecomb.case" 
d="M-242 1956l37 -37l-344 -342l-35 35z" />
    <glyph glyph-name="uni030B.case" 
d="M-438 1974l43 -24l-215 -373l-43 25zM-248 1974l43 -24l-215 -373l-43 25z" />
    <glyph glyph-name="uni0302.case" 
d="M-205 1612l-37 -35l-307 307l-307 -307l-35 35l342 344z" />
    <glyph glyph-name="uni030C.case" 
d="M-205 1919l-344 -342l-342 342l35 37l307 -307l307 307z" />
    <glyph glyph-name="uni0306.case" 
d="M-205 1929v-18q0 -132 -89 -213.5t-226 -81.5t-225.5 81.5t-88.5 213.5v18h50v-14q0 -116 71.5 -184t192.5 -68q122 0 194 67.5t72 184.5v14h49z" />
    <glyph glyph-name="uni030A.case" 
d="M-434 2036q97 0 163.5 -66.5t65.5 -163.5q1 -95 -66 -162t-163 -67q-95 0 -162.5 67t-67.5 162q0 97 66.5 163.5t163.5 66.5zM-434 1991q-75 0 -128.5 -53.5t-53.5 -131.5q2 -77 54.5 -130.5t127.5 -53.5t128.5 54t53.5 130q0 78 -52.5 131.5t-129.5 53.5z" />
    <glyph glyph-name="tildecomb.case" 
d="M-252 1886h47q0 -260 -160 -260q-48 0 -86 25.5t-108 97.5q-10 10 -33 34t-33 33t-28 22.5t-35 18.5t-37 5q-28 0 -48.5 -11t-32.5 -29.5t-18.5 -47t-9 -58t-2.5 -69.5h-47q0 260 160 260q48 0 86.5 -26t108.5 -97q10 -10 33 -34t33 -33t28 -22.5t35 -18.5t37 -5
q35 0 57.5 15.5t33.5 47.5t15 66.5t4 85.5z" />
    <glyph glyph-name="uni0304.case" 
d="M-205 1810v-45h-514v45h514z" />
    <glyph glyph-name="uni0327.case" 
d="M-440 -178q35 -1 72 -9.5t75.5 -27.5t63 -55.5t24.5 -85.5q0 -84 -68.5 -130t-179.5 -46q-72 0 -122 10v45q50 -10 120 -10q93 0 148 32.5t55 96.5q0 67 -64.5 103t-187.5 36l94 219h45z" />
    <glyph glyph-name="uni0328.case" 
d="M-205 -522q-50 -10 -106 -10q-88 0 -142.5 46t-54.5 128q0 40 15.5 78t49.5 80.5t73 83t100 99.5q12 11 18 17h47q-144 -140 -200 -215t-56 -143q0 -64 41.5 -96.5t110.5 -32.5q54 0 104 10v-45z" />
    <glyph glyph-name="newGlyph" horiz-adv-x="1228" 
 />
    <glyph glyph-name="Bitcoinsymbol" horiz-adv-x="1337" 
d="M1235 383q0 -155 -82 -253t-258 -122v-264h-49v258q-20 -2 -66 -2h-334v-256h-49v256h-192v1434h192v252h49v-252h314q32 0 86 -4v258h49v-265q297 -50 297 -346q0 -260 -238 -327q281 -70 281 -367zM1145 1079q0 72 -19 126t-62 96.5t-119.5 65t-184.5 22.5h-506v-621
h487q115 0 195 22t125 64.5t64.5 97t19.5 127.5zM780 45q408 0 408 338q0 340 -414 340h-520v-678h526z" />
    </font>
</defs>
</svg>
