<svg width="268" height="268" viewBox="0 0 268 268" fill="none" xmlns="http://www.w3.org/2000/svg">
<path d="M261.3 127.3L230.498 127.3L249.061 108.732C249.701 108.114 250.212 107.375 250.563 106.557C250.914 105.74 251.099 104.861 251.107 103.971C251.114 103.081 250.945 102.199 250.608 101.376C250.271 100.552 249.774 99.8043 249.145 99.1752C248.515 98.5461 247.767 98.0486 246.944 97.7118C246.121 97.3749 245.238 97.2054 244.349 97.2131C243.459 97.2208 242.58 97.4056 241.763 97.7568C240.945 98.1079 240.206 98.6183 239.588 99.2583L211.546 127.3H190.54L201.688 116.16C202.328 115.542 202.839 114.803 203.19 113.985C203.541 113.168 203.726 112.289 203.734 111.399C203.741 110.509 203.572 109.627 203.235 108.804C202.898 107.98 202.401 107.232 201.771 106.603C201.142 105.974 200.394 105.477 199.571 105.14C198.748 104.803 197.865 104.633 196.976 104.641C196.086 104.649 195.207 104.834 194.389 105.185C193.572 105.536 192.833 106.046 192.215 106.686L171.592 127.3H150.175L190.575 86.9035H230.235C232.012 86.9035 233.716 86.1976 234.972 84.9411C236.229 83.6846 236.935 81.9804 236.935 80.2035C236.935 78.4265 236.229 76.7223 234.972 75.4659C233.716 74.2094 232.012 73.5035 230.235 73.5035H203.975L228.752 48.7224C229.392 48.1043 229.902 47.365 230.253 46.5476C230.604 45.7302 230.789 44.851 230.797 43.9614C230.805 43.0718 230.635 42.1895 230.298 41.3661C229.961 40.5427 229.464 39.7946 228.835 39.1656C228.206 38.5365 227.458 38.039 226.634 37.7021C225.811 37.3652 224.929 37.1957 224.039 37.2034C223.149 37.2112 222.27 37.396 221.453 37.7471C220.635 38.0983 219.896 38.6087 219.278 39.2486L194.502 64.0297V37.7701C194.502 35.9932 193.796 34.289 192.539 33.0325C191.283 31.776 189.579 31.0701 187.802 31.0701C186.025 31.0701 184.321 31.776 183.064 33.0325C181.808 34.289 181.102 35.9932 181.102 37.7701V77.4297L140.701 117.826V96.4085L161.315 75.7904C161.954 75.1723 162.465 74.433 162.816 73.6156C163.167 72.7982 163.352 71.919 163.36 71.0294C163.367 70.1398 163.198 69.2575 162.861 68.4341C162.524 67.6107 162.027 66.8626 161.398 66.2336C160.769 65.6045 160.02 65.107 159.197 64.7701C158.374 64.4332 157.491 64.2637 156.602 64.2714C155.712 64.2792 154.833 64.464 154.016 64.8151C153.198 65.1663 152.459 65.6767 151.841 66.3166L140.701 77.4609V56.4542L168.747 28.4125C169.387 27.7944 169.897 27.0551 170.248 26.2377C170.6 25.4202 170.784 24.5411 170.792 23.6515C170.8 22.7618 170.63 21.8796 170.294 21.0562C169.957 20.2328 169.459 19.4847 168.83 18.8556C168.201 18.2265 167.453 17.729 166.63 17.3922C165.806 17.0553 164.924 16.8858 164.034 16.8935C163.145 16.9012 162.266 17.086 161.448 17.4372C160.631 17.7883 159.891 18.2987 159.273 18.9387L140.701 37.5021V6.7C140.701 4.92305 139.995 3.21888 138.739 1.96238C137.482 0.705891 135.778 0 134.001 0C132.224 0 130.52 0.705891 129.264 1.96238C128.007 3.21888 127.301 4.92305 127.301 6.7V37.5021L108.738 18.9342C108.12 18.2943 107.381 17.7839 106.563 17.4327C105.746 17.0816 104.867 16.8968 103.977 16.889C103.087 16.8813 102.205 17.0508 101.382 17.3877C100.558 17.7246 99.8102 18.2221 99.1811 18.8512C98.552 19.4802 98.0545 20.2283 97.7177 21.0517C97.3808 21.8751 97.2113 22.7574 97.219 23.647C97.2267 24.5366 97.4115 25.4158 97.7627 26.2332C98.1138 27.0506 98.6242 27.7899 99.2641 28.408L127.301 56.4497V77.4565L116.161 66.3121C115.543 65.6722 114.804 65.1618 113.987 64.8107C113.169 64.4595 112.29 64.2747 111.4 64.267C110.511 64.2592 109.629 64.4287 108.805 64.7656C107.982 65.1025 107.234 65.6 106.605 66.2291C105.976 66.8582 105.478 67.6062 105.141 68.4296C104.804 69.253 104.635 70.1353 104.643 71.0249C104.65 71.9145 104.835 72.7937 105.186 73.6111C105.537 74.4286 106.048 75.1679 106.688 75.7859L127.301 96.4041V117.822L86.9094 77.4252V37.7657C86.9094 35.9887 86.2036 34.2845 84.9471 33.028C83.6906 31.7716 81.9864 31.0657 80.2095 31.0657C78.4326 31.0657 76.7284 31.7716 75.4719 33.028C74.2154 34.2845 73.5096 35.9887 73.5096 37.7657V64.0252L48.7242 39.2441C48.1062 38.6042 47.3669 38.0938 46.5495 37.7427C45.732 37.3915 44.8529 37.2067 43.9633 37.199C43.0736 37.1912 42.1914 37.3607 41.368 37.6976C40.5446 38.0345 39.7965 38.532 39.1675 39.1611C38.5384 39.7902 38.0409 40.5382 37.704 41.3616C37.3671 42.185 37.1976 43.0673 37.2053 43.9569C37.2131 44.8465 37.3979 45.7257 37.749 46.5431C38.1002 47.3606 38.6106 48.0999 39.2505 48.7179L64.0358 73.499H37.7765C35.9996 73.499 34.2954 74.2049 33.0389 75.4614C31.7825 76.7179 31.0766 78.4221 31.0766 80.199C31.0766 81.976 31.7825 83.6801 33.0389 84.9366C34.2954 86.1931 35.9996 86.899 37.7765 86.899H77.4357L117.827 127.296H96.41L75.7965 106.682C75.1784 106.042 74.4391 105.532 73.6217 105.18C72.8043 104.829 71.9251 104.644 71.0355 104.637C70.1459 104.629 69.2636 104.798 68.4402 105.135C67.6168 105.472 66.8688 105.97 66.2397 106.599C65.6106 107.228 65.1131 107.976 64.7763 108.799C64.4394 109.623 64.2699 110.505 64.2776 111.395C64.2853 112.284 64.4701 113.163 64.8213 113.981C65.1724 114.798 65.6828 115.538 66.3227 116.156L77.4625 127.296H56.456L28.4189 99.2538C27.8009 98.6139 27.0616 98.1035 26.2442 97.7523C25.4267 97.4012 24.5476 97.2164 23.658 97.2086C22.7683 97.2009 21.8861 97.3704 21.0627 97.7073C20.2393 98.0442 19.4912 98.5417 18.8622 99.1708C18.2331 99.7998 17.7356 100.548 17.3987 101.371C17.0618 102.195 16.8923 103.077 16.9 103.967C16.9078 104.856 17.0926 105.735 17.4437 106.553C17.7949 107.37 18.3053 108.11 18.9452 108.728L37.5085 127.296H6.70218C4.92465 127.296 3.21992 128.002 1.96302 129.259C0.70612 130.515 0 132.22 0 133.998C0 135.775 0.70612 137.48 1.96302 138.737C3.21992 139.994 4.92465 140.7 6.70218 140.7H37.5041L18.9407 159.268C18.3187 159.89 17.8253 160.629 17.4888 161.442C17.1522 162.255 16.9791 163.126 16.9793 164.006C16.9795 164.886 17.1531 165.758 17.49 166.57C17.8269 167.383 18.3206 168.122 18.943 168.744C19.5653 169.366 20.3041 169.859 21.1171 170.196C21.9301 170.533 22.8015 170.706 23.6814 170.705C24.5613 170.705 25.4326 170.532 26.2455 170.195C27.0583 169.858 27.7969 169.364 28.4189 168.742L56.456 140.7H77.4625L66.3227 151.84C65.0665 153.097 64.3609 154.801 64.3613 156.578C64.3617 158.355 65.0681 160.06 66.325 161.316C67.5819 162.572 69.2863 163.278 71.0634 163.277C72.8405 163.277 74.5446 162.571 75.8009 161.314L96.4144 140.7H117.832L77.4402 181.097H37.781C36.0041 181.097 34.2999 181.802 33.0434 183.059C31.7869 184.315 31.081 186.02 31.081 187.797C31.081 189.573 31.7869 191.278 33.0434 192.534C34.2999 193.791 36.0041 194.497 37.781 194.497H64.0403L39.255 219.278C38.6329 219.9 38.1395 220.639 37.803 221.452C37.4665 222.265 37.2933 223.136 37.2936 224.016C37.294 225.793 38.0003 227.497 39.2572 228.754C40.5141 230.01 42.2186 230.715 43.9956 230.715C45.7727 230.715 47.4769 230.008 48.7332 228.751L73.5185 203.97V230.23C73.5185 232.007 74.2244 233.711 75.4809 234.967C76.7373 236.224 78.4415 236.93 80.2184 236.93C81.9954 236.93 83.6995 236.224 84.956 234.967C86.2125 233.711 86.9184 232.007 86.9184 230.23V190.57L127.31 150.174V171.591L106.697 192.21C105.44 193.467 104.735 195.171 104.735 196.948C104.736 198.725 105.442 200.429 106.699 201.686C107.956 202.942 109.66 203.647 111.437 203.647C113.214 203.647 114.919 202.94 116.175 201.683L127.315 190.539V211.546L99.2775 239.583C98.6555 240.205 98.1621 240.944 97.8256 241.757C97.489 242.57 97.3159 243.442 97.3161 244.322C97.3163 245.201 97.4899 246.073 97.8268 246.886C98.1637 247.698 98.6574 248.437 99.2798 249.059C99.9021 249.681 100.641 250.175 101.454 250.511C102.267 250.848 103.138 251.021 104.018 251.021C104.898 251.02 105.769 250.847 106.582 250.51C107.395 250.173 108.134 249.679 108.756 249.057L127.319 230.493L127.319 261.3C127.319 263.077 128.025 264.781 129.281 266.038C130.538 267.294 132.242 268 134.019 268C135.796 268 137.5 267.294 138.757 266.038C140.013 264.781 140.719 263.077 140.719 261.3V230.498L159.291 249.061C160.6 250.37 162.311 251.022 164.03 251.022C165.355 251.022 166.65 250.629 167.751 249.893C168.853 249.157 169.711 248.111 170.218 246.887C170.725 245.664 170.858 244.317 170.601 243.018C170.343 241.718 169.705 240.525 168.769 239.588L140.701 211.546V190.539L151.841 201.683C153.15 202.992 154.869 203.644 156.58 203.644C157.905 203.644 159.199 203.251 160.301 202.515C161.402 201.779 162.261 200.733 162.768 199.51C163.275 198.286 163.408 196.939 163.15 195.64C162.892 194.341 162.255 193.147 161.319 192.21L140.701 171.591V150.174L181.102 190.57V230.23C181.102 232.007 181.808 233.711 183.064 234.967C184.321 236.224 186.025 236.93 187.802 236.93C189.579 236.93 191.283 236.224 192.539 234.967C193.796 233.711 194.502 232.007 194.502 230.23V203.97L219.278 228.751C220.587 230.06 222.306 230.712 224.017 230.712C225.342 230.712 226.637 230.319 227.738 229.583C228.839 228.847 229.698 227.801 230.205 226.577C230.712 225.354 230.845 224.007 230.587 222.708C230.33 221.409 229.692 220.215 228.756 219.278L203.98 194.497H230.239C232.016 194.497 233.72 193.791 234.977 192.534C236.233 191.278 236.939 189.573 236.939 187.797C236.939 186.02 236.233 184.315 234.977 183.059C233.72 181.802 232.016 181.097 230.239 181.097H190.58L150.175 140.7H171.592L192.215 161.314C193.523 162.622 195.234 163.275 196.954 163.275C198.278 163.274 199.573 162.881 200.675 162.145C201.776 161.409 202.635 160.363 203.142 159.14C203.649 157.916 203.782 156.569 203.524 155.27C203.266 153.971 202.629 152.777 201.693 151.84L190.54 140.7H211.546L239.583 168.742C240.892 170.05 242.612 170.703 244.322 170.703C245.647 170.702 246.942 170.309 248.043 169.573C249.145 168.837 250.003 167.792 250.51 166.568C251.018 165.344 251.151 163.998 250.893 162.698C250.635 161.399 249.998 160.205 249.061 159.268L230.498 140.7H261.3C263.077 140.7 264.781 139.994 266.038 138.738C267.294 137.481 268 135.777 268 134C268 132.223 267.294 130.519 266.038 129.262C264.781 128.006 263.077 127.3 261.3 127.3Z" fill="#C70B01"/>
</svg>
