<?xml version="1.0" standalone="no"?>
<!DOCTYPE svg PUBLIC "-//W3C//DTD SVG 1.1//EN" "http://www.w3.org/Graphics/SVG/1.1/DTD/svg11.dtd" >
<svg xmlns="http://www.w3.org/2000/svg" xmlns:xlink="http://www.w3.org/1999/xlink" version="1.1">
<metadata>
Created by FontForge 20201107 at Thu Mar 28 21:03:30 2024
 By 
Copyright 2010 The Great Vibes Pro Project Authors (https://github.com/googlefonts/great-vibes)
</metadata>
<defs>
<font id="GreatVibes-Regular" horiz-adv-x="0" >
  <font-face 
    font-family="Great Vibes"
    font-weight="400"
    font-stretch="normal"
    units-per-em="1000"
    panose-1="0 0 0 0 0 0 0 0 0 0"
    ascent="800"
    descent="-200"
    x-height="344"
    cap-height="743"
    bbox="-491 -556 2022 1153"
    underline-thickness="35"
    underline-position="-111"
    unicode-range="U+000D-FB02"
  />
<missing-glyph horiz-adv-x="526" 
d="M52 0l-8 9v611l8 10h421l9 -9v-613l-9 -8h-421zM61 16h404v597h-404v-597zM96 577h335v-528h-335v528zM167 116l90 163l91 -163l19 34l-90 164l90 165l-19 35l-91 -164l-90 164l-19 -35l90 -163l-90 -166z" />
    <glyph glyph-name="fi" unicode="fi" horiz-adv-x="372" 
d="M283 0q-37 0 -52 21.5t-15 49.5v3q-24 -32 -52.5 -53.5t-58.5 -21.5q1 -7 1 -14.5v-15.5q0 -52 -12.5 -108t-35.5 -104t-54 -78t-69 -30q-22 0 -38.5 11t-16.5 43q0 50 30 136t73 189q-12 20 -12 42q0 35 20 48q17 14 36 11q36 81 73 159.5t71.5 148.5t62.5 123
q17 33 35.5 51t48.5 18q9 0 21.5 -3.5t22.5 -2.5q-23 -22 -57.5 -73.5t-74.5 -122.5t-81.5 -153.5t-79.5 -167.5q9 -12 18.5 -32t13.5 -43q0 -3 1 -6.5t2 -6.5q30 -2 62 29t58 72q2 5 4 11l67 171q3 8 3 14q0 10 -5 17.5l-7 10.5l55 2q15 1 21.5 -3.5t6.5 -10.5t-7 -22
q-10 -24 -27 -60t-33.5 -74t-28 -71t-11.5 -51q0 -13 6.5 -22t22.5 -9q21 0 41.5 16.5t38.5 42.5t33.5 56t26.5 56q12 0 12 -9q-10 -25 -26 -57t-36.5 -60.5t-45 -47.5t-52.5 -19zM362 407q-13 0 -22.5 10t-9.5 24q0 17 14 30.5t31 13.5q14 0 24 -9t10 -23q0 -18 -14 -32
t-33 -14zM77 14h5q-1 26 -9 45q-6 14 -15 24l-21 -51q9 -18 40 -18zM-50 -324q10 0 24 11.5t27 29.5q25 33 44 81t30 100t10 97q-2 0 -4.5 -0.5t-4.5 -0.5q-13 0 -27 5t-23 12q-26 -67 -48.5 -132.5t-34.5 -115.5q-4 -19 -6 -33t-2 -24q0 -30 15 -30z" />
    <glyph glyph-name="fl" unicode="fl" horiz-adv-x="411" 
d="M304 -3q-37 0 -54.5 22.5t-17.5 53.5q0 18 4 41q-27 -46 -60.5 -80.5t-70.5 -34.5q1 -7 1 -14.5v-15.5q0 -52 -12.5 -108t-35.5 -104t-54 -78t-69 -30q-22 0 -38.5 11t-16.5 43q0 50 30 136t73 189q-12 20 -12 42q0 35 20 48q17 14 36 11q36 81 73 159.5t71.5 148.5
t62.5 123q17 33 35.5 51t48.5 18q9 0 21.5 -3.5t22.5 -2.5q-23 -22 -57.5 -73.5t-74.5 -122.5t-81.5 -153.5t-79.5 -167.5q9 -12 18.5 -32t13.5 -43q0 -3 1 -6.5t2 -6.5q20 -1 41 14.5t41 41t37.5 55t30.5 56.5q1 3 1.5 5.5t1.5 5.5q16 56 40.5 119.5t54 125t58.5 110.5
q23 39 49.5 58.5t46.5 19.5q16 0 25.5 -11.5t9.5 -34.5q0 -16 -5.5 -38t-18.5 -50q-35 -78 -83.5 -156t-122.5 -146q-4 -13 -10.5 -30.5t-11.5 -35.5q-6 -27 -6 -46q0 -62 42 -62q32 0 71 46.5t74 127.5q4 0 8 -1.5t4 -7.5q-11 -27 -27.5 -59.5t-38 -61.5t-49.5 -47.5
t-63 -18.5zM319 225q36 37 70 85.5t63.5 101t49.5 99.5q7 15 11.5 33t4.5 30q0 14 -7 14q-4 0 -12 -7.5t-21 -25.5q-19 -25 -41.5 -68t-45.5 -92t-42 -94.5t-30 -75.5zM77 14h5q-1 26 -9 45q-6 14 -15 24l-21 -51q9 -18 40 -18zM-50 -324q10 0 24 11.5t27 29.5q25 33 44 81
t30 100t10 97q-2 0 -4.5 -0.5t-4.5 -0.5q-13 0 -27 5t-23 12q-26 -67 -48.5 -132.5t-34.5 -115.5q-4 -19 -6 -33t-2 -24q0 -30 15 -30z" />
    <glyph glyph-name="f_f" unicode="ff" horiz-adv-x="443" 
d="M184 -351q-22 0 -38.5 11t-16.5 43q0 50 30 136t73 189q-7 12 -10 25q-29 -24 -60 -39t-57 -15q1 -7 1 -14.5v-15.5q0 -52 -12.5 -108t-35.5 -104t-54 -78t-69 -30q-22 0 -38.5 11t-16.5 43q0 50 30 136t73 189q-12 20 -12 42q0 35 20 48q17 14 36 11q36 81 73 159.5
t71.5 148.5t62.5 123q17 33 35.5 51t48.5 18q9 0 21.5 -3.5t22.5 -2.5q-23 -22 -57.5 -73.5t-74.5 -122.5t-81.5 -153.5t-79.5 -167.5q9 -12 18.5 -32t13.5 -43q0 -3 1 -6.5t2 -6.5q24 -1 55.5 16t60.5 44q3 29 20 40q17 14 36 11q36 81 73 159.5t71.5 148.5t62.5 123
q17 33 35.5 51t48.5 18q9 0 21.5 -3.5t22.5 -2.5q-23 -22 -57.5 -73.5t-74.5 -122.5t-81.5 -153.5t-79.5 -167.5q9 -12 18.5 -32t13.5 -43q0 -3 1 -6.5t2 -6.5q23 -1 45 15.5t42 44t37 58t28 57.5q12 0 12 -9q-13 -30 -30 -62t-37.5 -60t-44.5 -45.5t-51 -17.5q1 -7 1 -14.5
v-15.5q0 -52 -12.5 -108t-35.5 -104t-54 -78t-69 -30zM326 14h5q-1 26 -9 45q-6 14 -15 24l-21 -51q9 -18 40 -18zM77 14h5q-1 26 -9 45q-6 14 -15 24l-21 -51q9 -18 40 -18zM199 -324q10 0 24 11.5t27 29.5q25 33 44 81t30 100t10 97q-2 0 -4.5 -0.5t-4.5 -0.5q-13 0 -27 5
t-23 12q-26 -67 -48.5 -132.5t-34.5 -115.5q-4 -19 -6 -33t-2 -24q0 -30 15 -30zM-50 -324q10 0 24 11.5t27 29.5q25 33 44 81t30 100t10 97q-2 0 -4.5 -0.5t-4.5 -0.5q-13 0 -27 5t-23 12q-26 -67 -48.5 -132.5t-34.5 -115.5q-4 -19 -6 -33t-2 -24q0 -30 15 -30z" />
    <glyph glyph-name="f_f_i" unicode="ffi" horiz-adv-x="582" 
d="M145 -351q-22 0 -38.5 12t-16.5 46q0 50 30 135t73 186q-5 7 -6 11q-20 -18 -41 -29t-41 -11q1 -7 1 -14.5v-15.5q0 -52 -12.5 -108t-35.5 -104t-54 -78t-69 -30q-22 0 -38.5 11t-16.5 43q0 50 30 136t73 189q-12 20 -12 42q0 35 20 48q17 14 36 11q36 81 73 159.5
t71.5 148.5t62.5 123q17 33 35.5 51t48.5 18q9 0 21.5 -3.5t22.5 -2.5q-23 -22 -57.5 -73.5t-74.5 -122.5t-81.5 -153.5t-79.5 -167.5q9 -12 18.5 -32t13.5 -43q0 -3 1 -6.5t2 -6.5q17 -1 37 11t40 31q-1 4 -1 10q0 16 6 29t14 19q18 14 36 11q36 82 73 160.5t71.5 148
t61.5 121.5q17 32 35.5 51t50.5 19q9 0 21 -3.5t23 -2.5q-24 -22 -58.5 -73.5t-75 -122.5t-82 -153.5t-79.5 -167.5q11 -12 19.5 -30.5t13.5 -44.5q2 -8 2 -13q23 -1 44.5 15.5t41 44t36 58.5t29.5 58l42 107q3 8 3 14q0 10 -5 17.5l-7 10.5l55 2q15 1 21.5 -3.5t6.5 -10.5
t-7 -22q-10 -24 -27 -60t-33.5 -74t-28 -71t-11.5 -51q0 -13 6.5 -22t22.5 -9q21 0 41.5 16.5t38.5 42.5t33.5 56t26.5 56q12 0 12 -9q-10 -25 -26 -57t-36.5 -60.5t-45 -47.5t-52.5 -19q-37 0 -52 21.5t-15 49.5v9.5t1 8.5q-23 -37 -51 -63.5t-61 -26.5q1 -7 1 -14.5v-15.5
q0 -52 -12.5 -108t-35.5 -104t-54 -78t-69 -30zM540 441q0 17 14 30.5t31 13.5q14 0 24 -9t10 -23q0 -18 -14 -32t-33 -14q-13 0 -22.5 10t-9.5 24zM37 32q9 -18 40 -18h5q-1 26 -9 45q-6 14 -15 24zM245 32q13 -18 40 -18h7q-1 26 -9 45q-2 5 -7 12t-8 12
q-6 -14 -11.5 -25.5t-11.5 -25.5zM-65 -294q0 -30 15 -30q10 0 24 11.5t27 29.5q25 33 44 81t30 100t10 97q-2 0 -4.5 -0.5t-4.5 -0.5q-13 0 -27 5t-23 12q-26 -67 -48.5 -132.5t-34.5 -115.5q-4 -19 -6 -33t-2 -24zM143 -293q0 -31 16 -31q10 0 24 11.5t27 29.5
q25 33 44.5 81t30 100t8.5 97q-2 0 -4.5 -0.5t-4.5 -0.5q-13 0 -26.5 5t-21.5 12q-27 -67 -50.5 -133.5t-34.5 -115.5q-8 -34 -8 -55z" />
    <glyph glyph-name="f_f_l" unicode="ffl" horiz-adv-x="609" 
d="M135 -351q-22 0 -38.5 12t-16.5 46q0 50 30 135t73 186q-2 4 -3 5q-18 -16 -36.5 -25t-38.5 -9q1 -7 1 -14.5v-15.5q0 -52 -12.5 -108t-35.5 -104t-54 -78t-69 -30q-22 0 -38.5 11t-16.5 43q0 50 30 136t73 189q-12 20 -12 42q0 35 20 48q17 14 36 11q36 81 73 159.5
t71.5 148.5t62.5 123q17 33 35.5 51t48.5 18q9 0 21.5 -3.5t22.5 -2.5q-23 -22 -57.5 -73.5t-74.5 -122.5t-81.5 -153.5t-79.5 -167.5q9 -12 18.5 -32t13.5 -43q0 -3 1 -6.5t2 -6.5q17 -1 34.5 9t33.5 26q-1 4 -1.5 8.5t-0.5 8.5q0 16 6 29t14 19q18 14 36 11
q36 82 73 160.5t71.5 148t61.5 121.5q17 32 35.5 51t50.5 19q9 0 21 -3.5t23 -2.5q-24 -22 -58.5 -73.5t-75 -122.5t-82 -153.5t-79.5 -167.5q11 -12 19.5 -30.5t13.5 -44.5q2 -8 2 -13q23 -1 44.5 16t41.5 45t37 59t30 58q16 56 40.5 119.5t54 125t58.5 110.5
q23 39 49.5 58.5t46.5 19.5q16 0 25.5 -11.5t9.5 -34.5q0 -16 -5.5 -38t-18.5 -50q-35 -78 -83.5 -156t-122.5 -146q-4 -13 -10.5 -30.5t-11.5 -35.5q-6 -27 -6 -46q0 -62 42 -62q32 0 71 46.5t74 127.5q4 0 8 -1.5t4 -7.5q-11 -27 -27.5 -59.5t-38 -61.5t-49.5 -47.5
t-63 -18.5q-37 0 -54.5 22.5t-17.5 53.5q0 11 1.5 23.5t3.5 24.5q-25 -48 -58 -85t-72 -37q1 -7 1 -14.5v-15.5q0 -52 -12.5 -108t-35.5 -104t-54 -78t-69 -30zM517 225q36 37 70 85.5t63.5 101t49.5 99.5q7 15 11.5 33t4.5 30q0 14 -7 14q-4 0 -12 -7.5t-21 -25.5
q-19 -25 -41.5 -68t-45.5 -92t-42 -94.5t-30 -75.5zM37 32q9 -18 40 -18h5q-1 26 -9 45q-6 14 -15 24zM235 32q13 -18 40 -18h7q-1 26 -9 45q-2 5 -7 12t-8 12q-6 -14 -11.5 -25.5t-11.5 -25.5zM-65 -294q0 -30 15 -30q10 0 24 11.5t27 29.5q25 33 44 81t30 100t10 97
q-2 0 -4.5 -0.5t-4.5 -0.5q-13 0 -27 5t-23 12q-26 -67 -48.5 -132.5t-34.5 -115.5q-4 -19 -6 -33t-2 -24zM133 -293q0 -31 16 -31q10 0 24 11.5t27 29.5q25 33 44.5 81t30 100t8.5 97q-2 0 -4.5 -0.5t-4.5 -0.5q-13 0 -26.5 5t-21.5 12q-27 -67 -50.5 -133.5t-34.5 -115.5
q-8 -34 -8 -55z" />
    <glyph glyph-name=".notdef" horiz-adv-x="526" 
d="M52 0l-8 9v611l8 10h421l9 -9v-613l-9 -8h-421zM61 16h404v597h-404v-597zM96 577h335v-528h-335v528zM167 116l90 163l91 -163l19 34l-90 164l90 165l-19 35l-91 -164l-90 164l-19 -35l90 -163l-90 -166z" />
    <glyph glyph-name=".null" 
 />
    <glyph glyph-name="nonmarkingreturn" horiz-adv-x="333" 
 />
    <glyph glyph-name="CR" unicode="&#xd;" horiz-adv-x="600" 
 />
    <glyph glyph-name="space" unicode=" " horiz-adv-x="171" 
 />
    <glyph glyph-name="exclam" unicode="!" horiz-adv-x="312" 
d="M157 107l-11 2l1 6l205 487q5 14 19 17t30 3h32l5 -3l2 -5q-2 -7 -16 -34.5t-37 -69t-51 -91t-56.5 -99t-54 -93.5t-43.5 -76t-25 -44zM118 -15q-19 0 -29 13t-9 30q0 18 14 29t30 11t27 -9.5t12 -24.5q2 -19 -12 -34t-33 -15z" />
    <glyph glyph-name="quotedbl" unicode="&#x22;" horiz-adv-x="206" 
d="M105 465l36 162q2 12 14 19.5t23 3.5q23 -5 16 -31q-4 -14 -14.5 -36.5t-23.5 -46.5t-24.5 -44t-16.5 -30zM205 465l36 162q2 12 14 19.5t23 3.5q23 -5 16 -31q-4 -14 -14.5 -36.5t-23.5 -46.5t-24.5 -44t-16.5 -30z" />
    <glyph glyph-name="numbersign" unicode="#" horiz-adv-x="801" 
d="M198 -15q-4 -7 -10 -7.5t-9 -0.5q-8 0 -12 8q-2 5 3 13t8 13q18 29 55 89t86 140h-150q0 8 5 18t20 12h143q22 37 46 77.5t49 82.5h-176q0 8 5 18t20 12h169q33 57 67 116.5t67 119.5q5 8 12.5 10.5t16.5 2.5t17.5 -3.5t10.5 -9.5q1 -2 -2 -10q-25 -40 -62.5 -99
t-79.5 -127h143q33 57 67 116.5t67 119.5q5 8 12.5 10.5t16.5 2.5t17.5 -3.5t10.5 -9.5q2 -3 -3 -9q-25 -40 -62 -99.5t-79 -127.5h133q0 -4 -3 -17t-20 -13h-129q-25 -40 -50 -80.5t-50 -79.5h165q0 -4 -3 -17t-20 -13h-160q-53 -85 -97 -154t-65 -101q-4 -7 -10 -7.5
t-9 -0.5q-8 0 -12 8q-2 5 3 13t8 13q18 29 55 89t86 140h-149q-53 -85 -97 -154t-65 -101zM378 270h149q22 37 46 77.5t49 82.5h-144q-24 -40 -49.5 -80.5t-50.5 -79.5z" />
    <glyph glyph-name="dollar" unicode="$" horiz-adv-x="452" 
d="M21 -62l35 62q-18 4 -42.5 10t-46.5 16t-34 26q0 5 7 13t10 11h10q22 -22 50 -36t58 -20l150 274q-22 27 -41 59.5t-19 68.5q0 41 21 70.5t54 48.5t71.5 28t72.5 9l28 52l32 5l-34 -60q41 -7 57.5 -32t16.5 -54q0 -26 -15.5 -46.5t-39.5 -20.5q-18 0 -31 13.5t-13 31.5
q0 19 12.5 31.5t32.5 12.5q8 0 19 -5t12 -11q-4 30 -23 42.5t-40 17.5l-118 -213q25 -32 46 -70t21 -79q0 -48 -24 -85t-63 -61.5t-83.5 -37t-86.5 -12.5l-28 -53zM257 363l109 196h-14q-30 0 -60 -14t-50.5 -38.5t-20.5 -58.5q0 -25 11.5 -44.5t24.5 -40.5zM95 18
q43 0 85 19.5t69.5 55t27.5 81.5q0 27 -12.5 52.5t-28.5 46.5z" />
    <glyph glyph-name="percent" unicode="%" horiz-adv-x="624" 
d="M-32 -84l-2 4q127 133 243 273t231 281q-41 -34 -83 -58t-78 -24q-34 0 -59 25q-16 -13 -40 -24.5t-47 -10.5q-35 1 -53 26.5t-18 63.5q0 46 21 95q20 46 52.5 84t69.5 61.5t70 23.5q41 0 57 -21t16 -53q0 -28 -10.5 -61t-27 -65.5t-35 -59t-35.5 -42.5q7 -13 17.5 -18.5
t23.5 -5.5q26 0 61.5 19.5t71.5 47.5q13 10 34 31.5t44.5 47t45.5 50t38 41.5t21 20q6 4 15 4q11 0 11 -8l-618 -747h-37zM152 405q26 0 57 25q-6 11 -10.5 24t-4.5 23q0 18 7.5 32t26.5 14q13 0 22 -8t9 -22q0 -6 -3 -10q11 15 26 45.5t27 66t12 63.5q0 20 -8 32t-28 12
q-31 0 -67.5 -37t-64.5 -96q-16 -35 -25.5 -65.5t-9.5 -54.5q0 -20 8.5 -32t25.5 -12zM354 -29q-37 0 -55 25t-18 63q0 45 21 94q19 46 50.5 84t68 61.5t69.5 23.5q41 0 59.5 -22t18.5 -56q0 -31 -12.5 -67.5t-34.5 -73t-49.5 -66.5t-58 -48t-59.5 -18zM359 -7q8 -2 13 -2
q21 0 40 14t35 33t27 32q11 14 26 45.5t25 57.5q7 19 11 37t4 33q0 21 -8.5 34t-29.5 13t-45 -18t-46 -48t-40 -67q-16 -35 -25.5 -66.5t-9.5 -54.5q0 -36 23 -43z" />
    <glyph glyph-name="ampersand" unicode="&#x26;" horiz-adv-x="610" 
d="M263 -45q-85 0 -141 26.5t-83.5 70t-27.5 92.5q0 55 33 109.5t98.5 94t160.5 49.5q-14 19 -21 43.5t-7 46.5q1 53 30 93.5t74.5 68.5t97.5 42.5t98 14.5q28 0 57 -7.5t49 -26.5t20 -54q0 -29 -18 -52t-44 -23q-19 0 -33 14t-14 32q0 21 13.5 34.5t33.5 13.5q9 0 20.5 -6
t14.5 -12q1 4 1 11q0 27 -22 38t-47 11q-40 0 -93 -19.5t-103 -63.5q-18 -16 -37 -42t-32 -55.5t-13 -59.5q0 -23 8 -40q15 0 34.5 1.5t40.5 1.5q26 0 41 -11t15 -25q0 -10 -12 -19t-38 -9q-33 0 -59.5 14.5t-41.5 29.5q-66 -9 -112 -49t-70 -94.5t-24 -108.5
q0 -43 16.5 -80t50.5 -59.5t86 -22.5q54 0 98.5 19.5t76.5 50.5t49.5 65.5t17.5 64.5q0 26 -18.5 43.5t-48.5 26t-64 8.5q-35 0 -69.5 -9.5t-58.5 -29t-29 -49.5q0 -2 -0.5 -4.5t-0.5 -4.5q0 -22 16.5 -43.5t51.5 -39.5q9 -4 9 -15t-10 -6q-55 29 -80.5 63.5t-25.5 65.5
q0 45 48.5 77.5t138.5 32.5h177q16 0 47.5 7t64.5 20.5t56.5 32t23.5 42.5q0 13 -9 28q-2 3 -2 7q0 6 5 6q4 0 7 -5q15 -22 15 -45q0 -27 -19.5 -50t-52.5 -40.5t-73.5 -26.5t-82.5 -8q19 -16 28 -36t9 -42q0 -37 -22 -75.5t-62 -71t-93.5 -52.5t-117.5 -20zM417 355
q33 0 33 13q0 5 -8.5 10.5t-22.5 6.5q-6 1 -20 1h-29.5h-25.5q25 -31 73 -31z" />
    <glyph glyph-name="quotesingle" unicode="'" horiz-adv-x="106" 
d="M105 465l36 162q2 12 14 19.5t23 3.5q23 -5 16 -31q-4 -14 -14.5 -36.5t-23.5 -46.5t-24.5 -44t-16.5 -30z" />
    <glyph glyph-name="parenleft" unicode="(" horiz-adv-x="532" 
d="M387 -45q0 -6 -10.5 -11t-33.5 -5q-53 0 -95.5 32.5t-67.5 91t-25 135.5q0 75 26 148.5t72 140.5t106.5 122t129 94t139.5 56q4 1 7.5 1.5t7.5 0.5q9 0 9 -6q0 -12 -20 -17q-71 -16 -135 -57.5t-116 -101t-90.5 -129t-59 -142t-20.5 -139.5q0 -58 15.5 -104.5t46.5 -74.5
t77 -28q7 0 14.5 0.5t12.5 0.5q10 0 10 -8z" />
    <glyph glyph-name="parenright" unicode=")" horiz-adv-x="512" 
d="M280 745q0 6 10.5 11t33.5 5q53 0 95.5 -32.5t67.5 -91t25 -135.5q0 -75 -26 -148.5t-72 -140.5t-106.5 -122t-129 -94t-139.5 -56q-4 -1 -7 -1.5t-8 -0.5q-9 0 -9 6q0 12 20 17q71 16 135 57.5t116 101t90.5 129t59 142t20.5 139.5q0 58 -15.5 104.5t-46 74.5t-77.5 28
q-7 0 -14.5 -0.5t-12.5 -0.5q-10 0 -10 8z" />
    <glyph glyph-name="asterisk" unicode="*" horiz-adv-x="553" 
d="M248 327q-4 -4 -13 -4t-17 5t-8 14t8 17l101 101l-133 -4q-7 0 -13.5 8t-6.5 18q0 7 5 12.5t17 5.5h146q-13 30 -27.5 61.5t-30.5 64.5q-3 8 -3 12q0 11 10 11q6 0 12.5 -4.5t13.5 -17.5q12 -22 30 -57t31 -58l116 117q7 7 13 7q9 0 9 -12q0 -14 -15 -31l-86 -93h137
q16 0 16 -10q0 -7 -9 -14t-26 -8l-132 -4q13 -27 25.5 -53t27.5 -53q5 -9 -3.5 -23t-19.5 -14q-3 0 -8 3t-8 10q-4 11 -18 42t-31 70z" />
    <glyph glyph-name="plus" unicode="+" horiz-adv-x="343" 
d="M130 116l38 116h-110q-4 0 -4 3q0 8 5 17.5t22 9.5h97l31 93q6 17 15 20t19 -2q5 0 3 -7l-35 -104h105q5 0 5 -4q0 -11 -6 -18.5t-23 -7.5h-91l-36 -105q-5 -19 -16 -19t-17 1q-3 3 -2 7z" />
    <glyph glyph-name="comma" unicode="," horiz-adv-x="215" 
d="M56 -105q-7 0 -7 10q35 11 58 34t27 56q-6 -4 -13 -7.5t-15 -3.5q-15 0 -23.5 10.5t-8.5 25.5q0 24 15.5 35.5t31.5 11.5q21 0 32.5 -13.5t11.5 -33.5q0 -33 -17 -59t-42 -43t-50 -23z" />
    <glyph glyph-name="hyphen" unicode="-" horiz-adv-x="404" 
d="M128 210q-5 0 -5 4q0 7 5.5 16.5t21.5 9.5h237q5 0 5 -4q0 -11 -6 -18.5t-23 -7.5h-235z" />
    <glyph glyph-name="period" unicode="." horiz-adv-x="205" 
d="M106 -15q-16 0 -26 10t-10 25q0 20 15.5 34t33.5 14q16 0 26 -9.5t10 -24.5q0 -19 -15 -34t-34 -15z" />
    <glyph glyph-name="slash" unicode="/" horiz-adv-x="501" 
d="M111 -32q-7 -7 -13 -8t-9 -1q-9 0 -9 9q0 7 8 16t13 15q26 30 74.5 88t114.5 137t143 173t160.5 197t167.5 209q7 9 16 12.5t18 3.5t16 -4t7 -11q0 -4 -6 -12q-35 -41 -84.5 -99.5t-107.5 -126.5t-119 -140.5t-120.5 -142.5t-112 -132t-93.5 -109.5t-64 -73.5z" />
    <glyph glyph-name="zero" unicode="0" horiz-adv-x="458" 
d="M142 -12q-37 0 -61.5 18.5t-36.5 48.5t-12 64q0 38 15 87t41.5 101t61.5 101t75.5 88.5t83.5 62.5t85 23q53 0 73.5 -32.5t20.5 -79.5q0 -40 -13 -90.5t-36.5 -105t-55.5 -105.5t-70.5 -92t-81.5 -65t-89 -24zM154 8q34 0 69 26.5t68 71t61.5 98t50.5 108t34 101t12 76.5
q0 29 -11 51.5t-43 22.5q-33 0 -68 -27t-68.5 -71.5t-63.5 -98.5t-53 -108t-36 -99.5t-13 -73.5q0 -31 13 -54t48 -23z" />
    <glyph glyph-name="one" unicode="1" horiz-adv-x="303" 
d="M38 -3q-6 0 -9 3t-2 5q68 122 136 243.5t136 242.5q-39 -35 -79 -66.5t-85 -58.5q-2 -1 -6 -1q-2 1 -2.5 4t-0.5 5q0 4 3 7q41 31 92 70.5t92 83.5q11 12 22 22t23 11l31 3q2 1 3.5 0.5t3.5 -0.5v-5l-306 -562q-7 -4 -25 -4.5t-27 -2.5z" />
    <glyph glyph-name="two" unicode="2" horiz-adv-x="392" 
d="M178 -12q-11 0 -33 7.5t-47 18t-46.5 20t-30.5 13.5l-69 -55q-4 -2 -10 1t-4 7q1 2 15 18.5t32.5 37t33.5 36.5t17 17h9q6 0 14 -2q25 22 64 58t82 80t81.5 90.5t62.5 90t24 77.5q0 24 -13 34t-36 10q-38 0 -71 -25t-57.5 -61.5t-37.5 -69.5q-2 -4 -4 -4q-6 -3 -12 0
q-2 5 -1 7q16 44 45.5 86.5t71.5 70.5t93 28q38 0 64.5 -21.5t26.5 -62.5q0 -27 -21 -62t-56 -74t-76 -78t-82 -74t-75 -62.5t-53 -43.5q10 -4 29 -13.5t41 -19.5t40.5 -17t27.5 -7q21 0 39.5 10.5t33.5 24.5t25.5 25.5t14.5 12.5q2 1 5.5 -2t2.5 -8q-12 -15 -30.5 -35
t-41 -39t-45.5 -32t-43 -13z" />
    <glyph glyph-name="three" unicode="3" horiz-adv-x="387" 
d="M45 -12q-23 0 -48 5t-44 19v6l6 6l6 2q14 -7 33.5 -11t35.5 -4q39 0 81 21t78 55.5t58.5 75.5t22.5 81q0 32 -20.5 47t-48.5 15q-17 0 -35.5 -4.5t-35.5 -9.5l-7 3l-1 9l4 6q27 11 66 30t77 45t63 58t25 69q0 36 -38 36q-26 0 -52.5 -15t-49 -35.5t-38.5 -39.5h-5l-7 7v5
q23 28 51 53t61.5 41t71.5 16q30 0 53 -14t23 -47q0 -38 -23.5 -68.5t-59 -54t-73.5 -40.5t-68 -28q30 0 62 -8t54 -28t22 -56q0 -46 -28.5 -90t-74.5 -80t-98 -57t-99 -21z" />
    <glyph glyph-name="four" unicode="4" horiz-adv-x="406" 
d="M169 -8l-4 1v4q0 2 9.5 20.5t23 45t28.5 54t25.5 47.5t13.5 25l-245 -7v8q1 4 2 5l2 2q35 44 79 87.5t78 80.5q34 38 67.5 77t68.5 85q17 23 32 31t33 10.5t45 7.5l6 -4l1 -7q1 -7 -17 -28t-49 -51.5t-69 -66t-77.5 -70.5t-73.5 -65.5t-58 -51.5t-31 -27l218 4l65 127
q8 14 26 16t31 3l7 -2v-7q0 -1 -9 -20t-21.5 -43.5t-23 -44.5t-13.5 -25h29q6 0 6 -4t-4 -12q-2 -4 -7 -4l-35 -1q-6 -11 -19.5 -39t-29 -59.5t-28.5 -56t-18 -29.5q-2 -2 -16 -6t-28.5 -7t-19.5 -3z" />
    <glyph glyph-name="five" unicode="5" horiz-adv-x="372" 
d="M17 -13q-14 0 -36.5 2t-34.5 10q-1 2 -1 6q1 4 2.5 5.5l2.5 2.5q2 2 5 2q15 -5 31.5 -7.5t31.5 -2.5q42 0 87.5 24t84 62t62.5 83t24 87q0 31 -17.5 48t-48.5 17q-36 0 -68.5 -20.5t-64.5 -36.5q-3 0 -5 2t0 6q2 7 13.5 29t29 52.5t36.5 64t36.5 62.5t30 48.5t15.5 22.5
q11 5 24.5 6.5t28.5 1.5q23 0 47.5 -2.5t48.5 -2.5q23 0 44 4t37 17l4 -1q-13 -35 -39.5 -53t-60.5 -24.5t-69 -6.5q-21 0 -41.5 1.5t-38.5 2.5l-110 -193q29 19 65 32t69 13q42 0 72 -21t30 -66q0 -52 -30.5 -101.5t-79.5 -89t-106 -63t-111 -23.5z" />
    <glyph glyph-name="six" unicode="6" horiz-adv-x="395" 
d="M120 -12q-50 0 -80 28.5t-30 80.5q0 55 26.5 112t69.5 113t95 107t103.5 92.5t93.5 70.5q5 4 9.5 -3t1.5 -10q-17 -16 -36.5 -33.5t-36.5 -32.5q-34 -31 -68 -68.5t-61 -72.5q-21 -28 -45 -64t-44.5 -76.5t-34 -81t-13.5 -76.5q0 -25 14 -43.5t41 -18.5q36 0 70 27
t60.5 68.5t42.5 84.5t16 75q0 17 -7 28.5t-26 11.5q-25 0 -48 -17t-42.5 -42.5t-33.5 -52.5t-22 -47q-1 -6 -4 -6q-3 -1 -8 -1q-7 2 -4 7q7 29 24 62t42 62t55.5 47.5t64.5 18.5q35 0 54 -22t19 -55q0 -43 -23.5 -90.5t-61.5 -89t-83.5 -67.5t-89.5 -26z" />
    <glyph glyph-name="seven" unicode="7" horiz-adv-x="347" 
d="M18 -5l-7 2l-1 4q0 8 19.5 37t51 70.5t70.5 90t79 97t75 91t60 72.5t33 40q-79 3 -162 3q-33 0 -49.5 -11t-24.5 -25t-13.5 -25.5t-16.5 -11.5l-3 1l-1 7q12 43 23.5 68.5t27.5 39t43 18t72 4.5q35 0 71 -2t73 -7q3 2 9 7.5t10 5.5q6 -2 6 -7q0 -2 -2 -6
q-14 -21 -20 -30.5t-11.5 -17t-17 -23t-35.5 -47.5t-68 -91t-87 -130t-84 -133q-2 -3 -9.5 -15.5t-16 -27.5t-15.5 -26.5t-8 -12.5q-11 -7 -33.5 -7.5t-37.5 -1.5z" />
    <glyph glyph-name="eight" unicode="8" horiz-adv-x="384" 
d="M109 -12q-29 0 -55 11t-42.5 33t-16.5 54q0 36 21.5 71.5t54.5 69t67.5 61.5t61.5 47q-18 39 -18 81q0 44 24 81t63 59.5t82 22.5q38 0 65.5 -18t27.5 -58q0 -32 -15.5 -62.5t-39 -59t-49.5 -52.5t-48 -43q14 -31 16.5 -55.5t2.5 -57.5q0 -38 -18 -71.5t-47 -59t-65 -40
t-72 -14.5zM284 306q28 22 56 54t47.5 69t19.5 74q0 56 -54 56q-29 0 -53 -16t-38 -41t-14 -53q0 -33 12.5 -73t23.5 -70zM111 9q38 0 68.5 22t49 56t18.5 70q0 37 -14 80.5t-29 78.5q-35 -26 -73 -62t-64.5 -79t-26.5 -92q0 -33 18 -53.5t53 -20.5z" />
    <glyph glyph-name="nine" unicode="9" horiz-adv-x="402" 
d="M64 -23q-6 4 -4 10q1 2 4 5q112 80 192 184t115 240q6 23 8.5 39t2.5 34q0 29 -12.5 49.5t-44.5 20.5q-36 0 -70 -24t-62 -61t-44.5 -77.5t-16.5 -73.5q0 -24 12.5 -40t38.5 -16q35 0 61.5 23.5t45.5 56t31 59.5q1 3 4 4q5 2 11 -1q3 -3 1 -6q-10 -27 -28.5 -60
t-43.5 -64t-55 -50.5t-63 -19.5q-36 0 -54 22.5t-18 55.5q0 34 16.5 73.5t44.5 78t63 70.5t72 51t72 19t57 -17.5t32.5 -45t10.5 -58.5q0 -56 -24.5 -112.5t-65 -110t-90 -102t-99.5 -88t-93 -68.5q-3 -2 -7 0z" />
    <glyph glyph-name="colon" unicode=":" horiz-adv-x="295" 
d="M216 210q-16 0 -26 10t-10 25q0 20 15 34.5t34 14.5q16 0 26 -10t10 -25q0 -19 -15.5 -34t-33.5 -15zM104 -15q-14 0 -24 10t-10 25q0 20 15 34t34 14q16 0 25.5 -9.5t9.5 -24.5q0 -19 -15.5 -34t-34.5 -15z" />
    <glyph glyph-name="semicolon" unicode=";" horiz-adv-x="296" 
d="M217 210q-16 0 -26 10t-10 25q0 20 15 34.5t34 14.5q16 0 26 -10t10 -25q0 -19 -15.5 -34t-33.5 -15zM60 -103q-3 -1 -5 -1q-6 0 -6 4q0 5 8 8q29 9 51 31.5t27 56.5q-14 -11 -30 -11q-14 0 -24 10t-10 25q0 20 15 34t34 14q21 0 30.5 -17t9.5 -37q0 -33 -16 -56.5
t-39 -38t-45 -22.5z" />
    <glyph glyph-name="less" unicode="&#x3c;" horiz-adv-x="235" 
d="M138 112l-91 104q-4 5 -9 11t-4 13q0 13 12 21l113 73q17 11 26 16.5t14 5.5q6 0 10 -3.5t7 -7.5t-3 -9l-117 -76q-17 -11 -31 -17q4 -2 9 -6.5t12 -11.5q6 -6 16.5 -21t23.5 -31t23 -26q11 -11 9 -18q0 -8 -12 -17q-4 -4 -8 0z" />
    <glyph glyph-name="equal" unicode="=" horiz-adv-x="378" 
d="M58 178q-4 0 -4 3q0 8 5 17.5t22 9.5h235q5 0 5 -4q0 -11 -6 -18.5t-23 -7.5h-234zM93 274q-4 0 -4 3q0 8 5 17.5t22 9.5h235q5 0 5 -4q0 -11 -6 -18.5t-23 -7.5h-234z" />
    <glyph glyph-name="greater" unicode="&#x3e;" horiz-adv-x="253" 
d="M47 111q-4 -3 -6 2q-1 3 -2.5 6.5t-1.5 7.5q1 5 4 11t13 11q30 19 63 46.5t59 42.5q10 6 21 11q-4 3 -8.5 7.5l-9.5 9.5l-71 77q-4 5 -3 6l2 2q5 4 9.5 6t10.5 2q8 0 27 -22l63 -67q6 -7 9 -12t2 -11q0 -9 -24 -26z" />
    <glyph glyph-name="question" unicode="?" horiz-adv-x="405" 
d="M211 161q-3 -7 -9 -7q-4 0 -7.5 4.5t-2.5 9.5q9 38 32 78t53 79.5t61 76t56 67.5q20 25 28 45t8 37q0 27 -19.5 41.5t-49.5 14.5q-16 0 -33 -4t-35 -13q-23 -11 -41.5 -31.5t-15.5 -38.5q3 12 12.5 20.5t22.5 15.5q15 8 29 8q17 0 26 -11t9 -26q0 -25 -23 -44
q-22 -16 -44 -16q-21 0 -35.5 14t-14.5 38q0 28 19 52t48.5 42t62 28t60.5 10q41 0 67.5 -19.5t26.5 -55.5q0 -25 -15.5 -57.5t-50.5 -72.5q-32 -37 -64 -67.5t-61.5 -61.5t-55 -68t-44.5 -88zM165 -15q-19 0 -27.5 13t-6.5 30q2 18 17 29t31 11t26 -9.5t10 -24.5
q0 -19 -15.5 -34t-34.5 -15z" />
    <glyph glyph-name="at" unicode="@" horiz-adv-x="1028" 
d="M513 -149q-107 0 -193 36.5t-135.5 109t-49.5 178.5q0 83 30 159t82.5 139.5t121.5 110t147.5 72.5t159.5 26q60 0 118.5 -14.5t107 -46t77.5 -81t29 -120.5q0 -62 -23 -128t-66.5 -122t-105 -91t-137.5 -35q-17 0 -37 8t-34.5 28t-14.5 56q0 14 3 30t8 35
q-12 -20 -30 -47.5t-41 -54t-50 -44t-56 -17.5q-33 0 -52.5 29t-19.5 78q0 50 25 115t82 133q37 44 90 71t104 27q29 0 54.5 -9.5t44.5 -31.5q9 -10 9 -20q0 -8 -5.5 -13t-15.5 -3q-7 23 -23.5 34.5t-36.5 11.5q-24 0 -49 -14q-43 -24 -88 -73.5t-81 -108.5
q-6 -10 -19 -35.5t-23.5 -55.5t-10.5 -55q0 -23 9 -33.5t23 -10.5q22 0 46 18.5t47.5 48t44.5 62t37 60.5t24 44q20 39 37.5 60.5t45.5 21.5q13 0 27.5 -4.5t29.5 -2.5q-10 -9 -27.5 -36t-36.5 -62.5t-33.5 -72t-20.5 -65.5q-3 -16 -3 -28q0 -28 15 -39.5t37 -11.5
q40 0 77.5 21.5t70 58.5t57 82.5t38.5 94.5t14 95q0 66 -24.5 112.5t-65.5 75t-93 41.5t-107 13q-78 0 -150 -26t-132.5 -72.5t-106 -109t-70.5 -135.5t-25 -151q0 -97 41.5 -162.5t115.5 -98.5t170 -33q85 0 170.5 28.5t150.5 75.5q7 0 9.5 -5.5t2.5 -10.5
q-71 -50 -160 -80t-181 -30z" />
    <glyph glyph-name="A" unicode="A" horiz-adv-x="716" 
d="M545 -64q-44 0 -62 34.5t-18 80.5q0 41 11.5 81t27.5 61q-27 -32 -67 -73t-88 -79t-99 -63t-101 -25q-66 0 -98.5 42t-32.5 115q0 57 19.5 122.5t57.5 133.5q18 33 40.5 65.5t48.5 61.5q-31 15 -60 33.5t-47 44.5t-18 62q0 19 8.5 34.5t18.5 15.5q9 0 9 -11q0 -7 -4 -15
q-5 -13 -5 -24q0 -27 19 -50.5t46 -40.5t50 -27q64 70 140.5 129.5t164.5 95.5t185 36q81 0 127 -35.5t46 -91.5q0 -50 -28.5 -85.5t-74.5 -59t-99.5 -37t-105.5 -19t-91 -5.5q-57 0 -110.5 7t-106.5 22q-26 -37 -56.5 -85.5t-58 -102t-45 -106t-17.5 -97.5q0 -49 23 -73.5
t62 -24.5q47 0 99.5 28.5t105.5 74.5t101 100t86 107t60 94q17 32 33 45.5t27 13.5t17 -8.5t6 -22.5q0 -28 -25 -56q-34 -39 -66 -94.5t-52 -116t-20 -113.5q0 -37 11.5 -53t30.5 -16q29 0 58.5 19.5t56.5 52.5t50 73.5t40 81.5q5 0 8.5 -1t3.5 -8q-17 -43 -40.5 -87
t-53.5 -80.5t-67 -58.5t-81 -22zM456 467q40 0 89 4.5t97.5 16.5t89.5 34t66 56t25 83q0 44 -36.5 67t-92.5 23q-93 0 -169.5 -36.5t-140 -95.5t-120.5 -127q44 -13 90.5 -19t101.5 -6z" />
    <glyph glyph-name="B" unicode="B" horiz-adv-x="1047" 
d="M178 -39q-22 0 -50.5 4.5t-55 15.5t-44 31.5t-17.5 51.5q0 37 33 67.5t93 30.5q44 0 82 -14.5t74.5 -35t75.5 -40.5q50 48 91.5 119t83 152.5t90 163.5t112.5 154l58 65q-37 6 -77 9.5t-83 3.5q-59 0 -128.5 -10t-138 -31t-125 -53t-90.5 -76t-34 -101q0 -39 17.5 -62
t44 -33.5t53.5 -10.5q45 0 76 20.5t46.5 47.5t15.5 48q0 7 10 7t10 -16q0 -41 -25 -71t-62.5 -46t-75.5 -16q-35 0 -71.5 17t-60.5 51t-24 84q0 60 34 106.5t91 79.5t127 54.5t141.5 31.5t134.5 10q58 0 113.5 -5.5t104.5 -16.5q14 12 28.5 21t26.5 14q11 5 18 5q8 0 8 -6
q0 -3 -11 -11q-13 -10 -22.5 -18.5t-11.5 -12.5q102 -26 165.5 -71.5t63.5 -107.5q0 -51 -35 -89.5t-91.5 -60.5t-120.5 -25q90 -29 143.5 -75t53.5 -117q0 -53 -30.5 -96t-81 -73.5t-110.5 -47t-119 -16.5q-93 0 -164.5 19t-148.5 54q-97 -73 -211 -73zM688 -10
q62 0 113 19t88.5 50t58 69t20.5 75q0 35 -21 67.5t-66 54.5q-58 29 -102 40.5t-70 21.5q-10 5 -13 7t-3 4q0 10 10 16t23 6q20 0 43 -3t49 -3q65 0 112 26t72.5 65t25.5 77q0 43 -38 75.5t-138 58.5q-50 -69 -100 -154.5t-100 -173t-101 -165.5t-102 -134
q-12 -13 -19 -19.5t-19 -17.5q60 -25 132 -43.5t145 -18.5zM158 -8q56 -3 102.5 13.5t86.5 46.5q-24 12 -61 31t-75 33.5t-66 14.5q-37 0 -56 -19.5t-19 -44.5q0 -26 22 -49.5t66 -25.5z" />
    <glyph glyph-name="C" unicode="C" horiz-adv-x="714" 
d="M371 -107q-91 0 -161.5 36.5t-110 108t-39.5 175.5q0 62 16 124t43.5 119t61.5 105q-15 60 -15 130q0 53 12 101q4 14 14 14q8 0 7 -10q-3 -20 -5 -42.5t-2 -53.5q0 -58 11 -110q10 13 20 24q41 45 97 84.5t124.5 63.5t145.5 24q72 0 132 -26.5t96.5 -76t36.5 -119.5
q0 -44 -23.5 -90t-67 -84.5t-105 -62.5t-137.5 -24q-100 0 -183 44t-129 134q-40 -71 -59 -144t-19 -139q0 -96 32 -156t88.5 -88.5t129.5 -28.5q130 0 228.5 65.5t162.5 202.5q12 0 12 -9q-62 -148 -169.5 -219.5t-244.5 -71.5zM253 548q-13 -18 -25 -37q35 -82 107 -132
t181 -50q69 0 123.5 21t92 56t57.5 77.5t20 85.5q0 53 -28.5 93t-77.5 62.5t-111 22.5t-124.5 -26t-118 -71t-96.5 -102z" />
    <glyph glyph-name="D" unicode="D" horiz-adv-x="1050" 
d="M196 -43q-41 0 -78 12t-60.5 36t-23.5 60q0 37 32.5 67t92.5 30q63 0 119.5 -28.5t119.5 -61.5q53 51 94.5 118.5t80 142.5t79.5 149.5t92 138.5q9 11 18 22.5t19 22.5q-54 32 -116 49.5t-128 17.5q-82 0 -152 -21t-121.5 -56.5t-80.5 -80t-29 -91.5q0 -42 17.5 -69.5
t44.5 -40.5t53 -13q35 0 60 13.5t41 33.5t24 39t9 31q0 7 9 7q14 0 11 -17q-5 -40 -30 -69.5t-60 -46t-72 -16.5q-44 0 -80 16.5t-57.5 50t-21.5 82.5q0 65 35 116.5t96 87.5t140 55t167 19q68 0 137 -16.5t131 -49.5q26 29 53.5 51.5t56.5 34.5q13 5 21 5q6 0 6 -3
q0 -5 -23 -25q-13 -12 -31 -36.5t-37 -53.5q60 -39 106.5 -94.5t73.5 -126t27 -156.5q0 -84 -29 -146.5t-79 -103.5t-115 -61.5t-137 -20.5q-85 0 -157.5 23t-134.5 52q-49 -39 -101.5 -59t-111.5 -20zM786 563q-21 -33 -51 -83.5t-67 -109.5t-77 -118t-80.5 -110.5
t-78.5 -86.5q53 -26 117 -45t145 -19q92 0 160 38.5t106 105t38 150.5q0 109 -46 198.5t-123 149.5q-13 -21 -24 -39.5t-19 -30.5zM196 -12q51 -3 99.5 18.5t80.5 46.5q-60 29 -110.5 53t-93.5 24q-35 0 -54 -20.5t-19 -45.5q0 -32 25.5 -53t71.5 -23z" />
    <glyph glyph-name="E" unicode="E" horiz-adv-x="819" 
d="M326 -59q-104 0 -171.5 29t-100 76t-32.5 100q0 60 31 109t81.5 85t111.5 57t120 24q-52 19 -84.5 52.5t-32.5 73.5q0 41 25.5 78.5t68.5 69t97.5 54.5t113.5 35.5t114 12.5q89 0 142 -30t53 -77q0 -43 -46.5 -85t-128.5 -60q-16 -3 -21 -3q-11 0 -11 9q0 3 3.5 4.5
t15.5 5.5q59 20 94 56.5t35 77.5q0 35 -33.5 56.5t-100.5 21.5q-60 0 -121 -17t-112 -48t-82 -71t-31 -87q0 -34 20 -55t51 -33.5t64.5 -20t61.5 -16.5q10 -3 13 -8t3 -10q0 -13 -14.5 -22t-40.5 -9q-16 0 -35.5 0.5t-41.5 0.5q-31 0 -65.5 -3t-75.5 -16q-52 -16 -90.5 -50
t-59.5 -75t-21 -81q0 -52 24 -94t76 -66.5t137 -24.5q78 0 151 20t135 51.5t106 65.5q36 29 58.5 59t22.5 52q0 28 -39 34q-10 1 -10 6q0 8 14 8q29 0 51.5 -19.5t22.5 -48.5q0 -57 -81 -120q-49 -39 -119.5 -69t-152 -47.5t-163.5 -17.5z" />
    <glyph glyph-name="F" unicode="F" horiz-adv-x="1053" 
d="M388 -101q-110 0 -191.5 34t-126 93.5t-44.5 135.5q0 62 22 113t58.5 85t80.5 45q7 1 7 -5q0 -5 -5 -8q-52 -31 -79.5 -89t-27.5 -129q0 -77 40 -132.5t109.5 -85t156.5 -29.5q75 0 142.5 26.5t124.5 72.5t102.5 104.5t76.5 122.5q7 15 14 29l14 28q-24 1 -43.5 2
t-26.5 1q-27 0 -57.5 -3.5t-57 -13.5t-43.5 -31q-7 -7 -8.5 -11t-4.5 -4q-4 0 -7 6.5t1 14.5q23 51 65 69.5t94 18.5q11 0 41.5 -3.5t64.5 -7.5q44 89 80.5 161t68.5 120q-72 24 -153 42.5t-174 18.5q-69 0 -125 -19t-95.5 -51t-60.5 -71t-21 -78q0 -44 17 -70t44.5 -37.5
t56.5 -11.5q43 0 73.5 21t48.5 47.5t22 43.5q4 16 12 16q12 0 10 -14q-6 -44 -31 -76t-61 -48.5t-76 -16.5q-41 0 -79 20t-62 58t-24 92q0 44 19.5 87.5t59 80t100.5 58.5t144 22q59 0 121 -13.5t125.5 -34t125.5 -42.5q21 27 40 41.5t38 14.5q8 0 11 -3.5t3 -6.5
q0 -4 -3 -9t-11 -5q-33 0 -62 -37q72 -24 138.5 -42.5t123.5 -18.5q44 0 58 9.5t14 26.5q0 11 7 11q5 0 9.5 -6.5t4.5 -15.5q0 -24 -26.5 -39t-73.5 -15q-62 0 -129 20.5t-142 45.5q-27 -45 -53 -117.5t-61 -163.5q43 -4 91 -6.5t78 -2.5q10 0 10 -6q0 -8 -23 -14
q-15 -4 -50.5 -6t-73.5 -2q-8 0 -20 0.5t-26 0.5q-9 -23 -18.5 -46.5t-20.5 -48.5q-42 -99 -102.5 -160.5t-129 -95t-136 -45.5t-123.5 -12z" />
    <glyph glyph-name="G" unicode="G" horiz-adv-x="702" 
d="M82 -376q-59 0 -93.5 22t-34.5 56q0 32 24 60t62.5 50.5t84 40t89 29t76.5 15.5q31 5 68.5 8t76 5.5t69.5 2.5q37 63 60.5 119t41.5 129l4 16q-19 -18 -53.5 -43.5t-80 -51t-97 -42.5t-105.5 -17q-71 0 -122.5 34t-79 94.5t-27.5 139.5q0 47 12 100.5t39 109.5
q-31 32 -48.5 71t-17.5 80q0 36 15 71.5t47 68.5q9 10 17 10q4 0 4 -4q0 -6 -7 -14q-23 -28 -34 -59t-11 -62q0 -35 13.5 -69t38.5 -63q26 55 71.5 107t106.5 93.5t133 66t150 24.5q104 0 164.5 -45t60.5 -136q0 -43 -23.5 -86t-71 -79t-118 -58t-163.5 -24
q-73 -1 -144 18.5t-120 51.5q-25 -53 -36.5 -103.5t-11.5 -94.5q0 -101 49.5 -154t132.5 -53q45 0 90.5 13.5t84.5 35.5t66.5 46.5t36.5 45.5q23 52 45.5 72.5t40.5 20.5q15 0 25.5 -13.5t7.5 -36.5q-10 -83 -45.5 -161t-91.5 -169q68 -1 122.5 -7.5t98.5 -17.5
q12 -3 16.5 -7.5t4.5 -7.5q0 -7 -12 -7q-6 0 -17 3q-23 6 -61 10.5t-81.5 6.5t-83.5 2q-42 -60 -99.5 -108.5t-122 -83.5t-126 -53.5t-110.5 -18.5zM396 424q68 0 132 18t115 50t81.5 74.5t30.5 90.5q0 44 -24.5 75.5t-62.5 48.5t-81 17q-68 0 -130 -26t-115 -69.5
t-96.5 -98.5t-73.5 -113q41 -31 99.5 -49t124.5 -18zM80 -350q39 0 92 15.5t111 45.5t111.5 74t93.5 101q-48 -1 -94.5 -4.5t-92.5 -11.5q-25 -4 -61.5 -15t-75.5 -28t-73.5 -38t-56 -45t-21.5 -49q0 -18 15.5 -31.5t51.5 -13.5z" />
    <glyph glyph-name="H" unicode="H" horiz-adv-x="1395" 
d="M308 -173q-58 0 -114.5 13.5t-102 44.5t-72.5 83.5t-27 130.5q0 56 19 105t50 79.5t66 30.5q12 0 12 -6t-13 -10q-25 -6 -48.5 -30.5t-38.5 -64.5t-15 -95q0 -66 24.5 -108t63.5 -66t82.5 -33.5t82.5 -9.5q110 0 201.5 34.5t165 95.5t128 140.5t90.5 170.5l2 6
q-16 -1 -27 -3t-21 -6q-22 -8 -33 -8q-6 0 -6 8q0 14 14.5 29.5t35.5 16.5q8 0 22.5 0.5t30.5 0.5q19 48 41 99t43 97t37 80t23 48q-55 -6 -114 -10.5t-116 -14t-108 -30.5q-94 -39 -136.5 -102.5t-42.5 -141.5q0 -49 27 -81t71 -32q40 0 70 24.5t47.5 62t17.5 74.5
q0 12 -2.5 21.5t-4.5 13.5q0 7 6 7q13 0 17.5 -18.5t4.5 -36.5q0 -40 -21.5 -79t-59 -64.5t-84.5 -25.5q-42 0 -76.5 21.5t-55.5 58.5t-21 82q0 64 29 113.5t79.5 84.5t113.5 53q61 18 126.5 25t129 10.5t116.5 8.5q10 18 25.5 37t34.5 32.5t39 13.5q15 0 26 -7.5t11 -23.5
q0 -24 -18.5 -39.5t-46.5 -23.5t-55 -12q-11 -21 -26 -59t-32.5 -84.5t-35 -94t-32.5 -88.5q34 -2 79.5 -4.5t93.5 -5t91.5 -4.5t71.5 -2q11 28 23 58q62 151 114 238t83 97q40 13 55 13q6 0 6 -2q0 -3 -14 -10q-7 -4 -28.5 -35t-51.5 -84.5t-63 -123.5t-63 -152
q17 0 34.5 1t26.5 2q11 2 18.5 5t11.5 3q5 0 5 -5q0 -3 -8 -10q-17 -12 -41 -21t-60 -11q-23 -66 -43 -135.5t-20 -128.5q0 -22 8 -42t30 -20q26 0 57 28.5t61 73.5t50 95q12 0 12 -9q-24 -55 -56.5 -107t-71 -85.5t-80.5 -33.5q-33 0 -53.5 24t-20.5 71q0 46 18.5 117
t47.5 152q-30 1 -74 3t-93 4.5t-94 4.5t-75 3q-4 -12 -8 -23t-7 -20q-30 -88 -83.5 -171t-128 -150t-170 -106.5t-209.5 -39.5zM1072 726q10 2 17.5 4t14.5 4q18 6 25.5 14t7.5 14q0 12 -14 12q-7 0 -17 -6t-20 -20q-4 -6 -7.5 -11.5t-6.5 -10.5z" />
    <glyph glyph-name="I" unicode="I" horiz-adv-x="917" 
d="M336 -194q-71 0 -135 20.5t-113.5 57t-78 84.5t-28.5 103q0 57 15.5 99.5t37.5 70.5t43 43q24 17 43 23.5t23 6.5q6 0 6 -5t-5 -8q-52 -31 -79.5 -87.5t-27.5 -119.5q0 -48 17.5 -93.5t54.5 -83t97 -59.5t145 -22q63 0 121.5 26.5t110.5 70t97 96.5t81 106t61 98
q48 85 82 168.5t67.5 164.5t80.5 158q-46 -8 -96 -19.5t-98 -29t-87 -43.5t-62 -62.5t-23 -85.5q0 -40 21 -63.5t58 -23.5q23 0 46.5 14t40 39.5t16.5 61.5q0 15 -3 23.5t-5 12.5q0 4 2.5 8t6.5 4q9 0 13.5 -17.5t4.5 -28.5q0 -36 -15.5 -68t-46 -52t-75.5 -20
q-49 0 -83.5 31t-34.5 83q0 50 27.5 89.5t74 69t103.5 50.5t117 34t114 20q15 31 41.5 58t60.5 27q14 0 23 -7t9 -22q0 -18 -13 -32t-33 -23.5t-39.5 -15t-33.5 -7.5q-43 -79 -69.5 -154t-48 -147.5t-51.5 -144.5q-43 -101 -98.5 -188t-126 -152t-158.5 -101t-195 -36z
M1100 755q39 8 52.5 18t13.5 18q0 13 -11 13q-13 0 -28.5 -13t-26.5 -36z" />
    <glyph glyph-name="J" unicode="J" horiz-adv-x="972" 
d="M277 -382q-95 0 -171.5 32t-121 93t-44.5 147q0 80 31 131.5t68 77.5q21 15 39 21.5t24 6.5t6 -5t-5 -8q-52 -31 -79.5 -88t-27.5 -125q0 -78 36 -135.5t100 -88.5t148 -31q142 0 271 112t249 312q45 77 85 159t76 162q36 78 68.5 140.5t57 105.5t35.5 60
q-253 -34 -391.5 -108t-138.5 -190q0 -60 31 -89.5t71 -29.5q39 0 78.5 25t66 69.5t26.5 103.5q0 29 -18 47q0 10 10 10q12 0 21.5 -18t9.5 -45q0 -67 -31.5 -115.5t-80 -74.5t-99.5 -26q-39 0 -74 17t-57.5 52t-22.5 87q0 68 45.5 118.5t128 86.5t195 62t247.5 45
q28 39 51.5 61t51.5 22q16 0 25.5 -8t9.5 -24q0 -23 -19 -37.5t-48 -23t-58 -13.5q-37 -64 -64.5 -131.5t-51 -138t-50 -144t-62.5 -150.5q-75 -159 -173 -275.5t-217 -180t-257 -63.5zM1170 726q41 7 55 17.5t14 19.5q0 12 -12 12q-11 0 -26.5 -16.5t-30.5 -32.5z" />
    <glyph glyph-name="K" unicode="K" horiz-adv-x="1203" 
d="M1230 -185q-70 0 -135.5 43.5t-111.5 144.5q-20 45 -32.5 91t-18.5 86t-6 66q0 32 7 36q19 -2 63.5 16t106 53t133 84.5t144 111.5t139.5 134t118 151q7 11 11 16t8 5q5 0 9 -4.5t4 -9.5q0 -8 -7 -19q-48 -80 -113.5 -156.5t-139.5 -143.5t-149 -121t-143 -90t-120 -49
q-3 2 -3 -10q0 -17 7 -54.5t21.5 -85t35.5 -96.5q38 -89 89.5 -122.5t106.5 -33.5q35 0 72 14t68 38.5t48 57.5q6 10 9 10q7 0 7 -8q0 -3 -1.5 -6.5t-6.5 -14.5q-14 -28 -46.5 -59.5t-77 -53t-96.5 -21.5zM381 -172q-68 0 -131.5 18.5t-114 54.5t-80 88t-29.5 118
q0 48 14.5 85.5t36 62.5t43 38t35.5 13q10 0 10 -6q0 -5 -5 -8q-23 -12 -47 -35t-40 -60t-16 -92q0 -60 25.5 -102.5t67 -69.5t89.5 -39.5t92 -12.5q98 0 183 38t155.5 101.5t124.5 141.5t89 158q13 29 31 69.5t39 86.5t41 90t36.5 79.5t26.5 54.5q-67 -8 -144.5 -14.5
t-147.5 -26.5q-78 -22 -127.5 -64t-73 -91t-23.5 -92q0 -52 26 -85.5t75 -33.5q37 0 66 21.5t46 56t17 73.5q0 16 -3 27t-3 17q0 7 5 7q7 0 13 -12q10 -23 10 -45q0 -47 -23 -84.5t-59 -59.5t-76 -22q-47 0 -81.5 22.5t-53.5 59.5t-19 80q0 49 27 99.5t87 92t158 63.5
q82 18 167 23.5t150 11.5q35 54 57 68.5t40 14.5t28.5 -10t10.5 -24q0 -20 -27.5 -42.5t-92.5 -29.5q-32 -59 -59 -131.5t-54 -151.5t-59 -157q-54 -130 -128 -227.5t-174 -151.5t-231 -54zM1105 726q25 2 48 14.5t23 27.5q0 10 -10 10q-9 0 -25 -11.5t-36 -40.5z" />
    <glyph glyph-name="L" unicode="L" horiz-adv-x="716" 
d="M799 -311q-10 0 -13 3.5t-3 7.5q18 3 35 26.5t17 54.5q0 49 -32 94.5t-90 83.5t-135.5 65.5t-169.5 40.5q-34 -48 -76.5 -88.5t-94 -65t-111.5 -24.5q-63 0 -96 29t-33 67q0 35 28.5 70.5t87 59t148.5 23.5q69 0 140 -12q25 44 45 88t35 83q-99 4 -156 30.5t-81 66.5
t-24 82q0 53 32 100.5t87 77.5t123 30q8 0 10 -6t2 -10q-38 0 -73.5 -17t-63.5 -45.5t-44.5 -63.5t-16.5 -72q0 -36 19 -70.5t65 -57.5t129 -25q9 23 15.5 42.5t11.5 33.5q24 72 51.5 143t63 129t84.5 93t117 35q44 0 68.5 -25t24.5 -69q0 -43 -20 -94.5t-56 -102.5t-85 -95
t-107 -73t-122 -36q-15 -32 -38 -80.5t-55 -99.5q87 -20 164.5 -54t137 -77.5t93.5 -93t34 -98.5q0 -44 -22 -74t-50 -30zM832 740q-43 0 -81 -37.5t-72.5 -99t-67.5 -136.5t-66 -149q59 8 110 36t93 68.5t72 86.5t46 90.5t16 79.5q0 28 -12 44.5t-38 16.5zM22 -31
q0 -25 27 -43.5t77 -18.5q74 0 134 47.5t107 115.5q-53 5 -106 5q-82 0 -135 -16.5t-78.5 -41t-25.5 -48.5z" />
    <glyph glyph-name="M" unicode="M" horiz-adv-x="1336" 
d="M1365 -115q-15 2 -41 7.5t-53 21.5t-46 48.5t-19 86.5q0 62 25.5 136.5t62.5 155.5t71 160q27 63 27 96t-25 33q-28 0 -83.5 -44.5t-128.5 -134.5q-19 -24 -49 -66.5t-64 -94t-66.5 -104t-57 -96.5t-35.5 -70q-13 -31 -30 -42.5t-32 -11.5q-13 0 -22 7q-10 7 -10 17
q0 6 3 10q6 12 30 55t56 114t61 165q9 29 18.5 67t17.5 78.5t13.5 76t5.5 57.5q0 35 -12 51.5t-32 16.5q-22 0 -50 -19t-57 -55q-50 -63 -88 -116.5t-69.5 -106.5t-62 -113t-64.5 -134.5t-78 -172.5q-7 -16 -23.5 -23t-30.5 -7t-23 6t-6 17q22 35 49 87.5t55 116.5t54 133
t46.5 135t32.5 124t12 99q0 77 -32.5 110t-83.5 33q-45 0 -99 -22t-108.5 -60t-102.5 -86q-69 -69 -108.5 -150t-39.5 -164q0 -56 21 -95t55.5 -59t76.5 -20q43 0 80.5 21.5t66 56t44.5 73t16 72.5q0 29 -16 48t-51 19q-4 0 -8.5 -0.5t-9.5 -0.5h-3q-7 0 -13 2.5t-6 6.5
t10.5 9t38.5 5q45 0 67.5 -26.5t22.5 -67.5q0 -40 -20.5 -82t-55.5 -78t-78.5 -58t-89.5 -22q-54 0 -100.5 25t-74.5 72.5t-28 113.5q0 63 26 124.5t67.5 116t88.5 96.5q52 47 110 80.5t115.5 52t107.5 18.5q74 0 122.5 -44t48.5 -142q0 -40 -11 -91.5t-26 -103t-29 -91.5h2
q36 65 64.5 111.5t57.5 86.5t65 84q31 37 71 59t77 22q33 0 56 -22t23 -75v-10t-1 -12q-9 -96 -38 -188.5t-60 -186.5q31 48 84 122t116 153q77 96 143 144t109 48q54 0 54 -66q0 -25 -9.5 -60t-29.5 -74q-22 -44 -48.5 -101.5t-50.5 -120.5t-39.5 -123.5t-15.5 -111.5
q0 -55 25.5 -88.5t88.5 -33.5h6q15 0 15 -6q0 -4 -10 -8t-28 -2z" />
    <glyph glyph-name="N" unicode="N" horiz-adv-x="1044" 
d="M1001 -147q-75 3 -110.5 39.5t-35.5 98.5q0 41 19.5 99.5t50.5 126t65.5 136t65.5 131.5t50.5 113t19.5 78q0 23 -18 33.5t-38 10.5q-34 0 -74.5 -19.5t-82 -51t-79 -68t-65.5 -70.5q-51 -62 -97 -135t-85 -148.5t-71.5 -143.5t-57.5 -119q-7 -14 -23.5 -21.5t-31.5 -7.5
q-13 0 -22 5.5t-6 16.5q21 31 49 82.5t57.5 115.5t58 133.5t51 136t36 122.5t13.5 94q0 70 -33 99.5t-86 29.5t-116 -25.5t-124 -71t-112 -106t-81.5 -131t-30.5 -144.5q0 -65 31.5 -108t93.5 -43q53 0 97.5 22t77 57t50.5 73t18 70q0 29 -15.5 48t-47.5 19q-10 0 -16 -1
t-11 -1q-7 0 -7 7q0 4 4 6l6 3q13 4 24 5t21 1q41 0 60.5 -22t19.5 -56q0 -36 -20.5 -79.5t-58 -82t-89.5 -63.5t-115 -25q-48 0 -90 23.5t-67.5 67.5t-25.5 106q0 64 28 130.5t79 128.5t118.5 111t146.5 77.5t164 28.5q45 0 82 -15.5t59.5 -50.5t22.5 -94q0 -27 -8.5 -63.5
t-22 -76.5t-28 -77.5t-28 -66.5t-20.5 -43q18 30 45 69.5t57 80t57 73.5q32 38 71 79t83.5 76.5t93 57.5t98.5 22q40 0 69.5 -20.5t29.5 -74.5q0 -43 -20.5 -95.5t-52.5 -112.5t-67.5 -123t-67.5 -127.5t-52.5 -126.5t-20.5 -119q0 -41 16 -64.5t46 -23.5q22 0 49 13
q9 5 16.5 6.5t11.5 1.5q15 0 15 -11t-18 -24t-48 -12z" />
    <glyph glyph-name="O" unicode="O" horiz-adv-x="730" 
d="M316 -61q-102 0 -159.5 63t-57.5 179q0 73 30 151q-42 29 -60.5 65.5t-18.5 88.5q0 69 31.5 123t84.5 92.5t119 58.5t134 20q67 0 130 -20.5t112.5 -63t77 -107.5t23.5 -155q47 29 81.5 63.5t50.5 63.5q5 9 10 9t6.5 -8t-5.5 -19q-25 -39 -61.5 -77t-85.5 -68
q-1 -22 -6.5 -49.5t-15.5 -57.5q-19 -61 -60.5 -123t-98.5 -114t-124 -83.5t-137 -31.5zM349 310q84 0 177.5 24.5t175.5 67.5q2 13 2 25.5v24.5q0 102 -35.5 170t-98.5 102t-147 34q-65 0 -122.5 -20t-102 -56t-69.5 -85t-25 -108q0 -27 7.5 -58.5t35.5 -56.5
q14 30 38 67.5t55.5 76t68 70.5t76 51.5t79.5 19.5q17 0 34.5 -4t33.5 -14q8 -5 8 -9q0 -3 -4.5 -5t-11.5 0q-13 4 -29 4q-36 0 -73 -21.5t-72 -56t-65 -74t-52.5 -77t-34.5 -63.5q61 -29 151 -29zM324 -37q56 0 109.5 28t101 76t84.5 107t59 121q6 17 11 35.5t6 35.5
q-81 -43 -173 -66t-176 -23q-93 0 -162 27q-31 -79 -31 -155q0 -93 48.5 -139.5t122.5 -46.5z" />
    <glyph glyph-name="P" unicode="P" horiz-adv-x="925" 
d="M169 -39q-22 0 -43 3q-63 8 -92.5 37t-29.5 63q0 37 33.5 67t94.5 30q19 0 40.5 -3.5t45.5 -11.5q12 -4 12 -11q0 -4 -6 -4t-10 2q-16 6 -30.5 8.5t-27.5 2.5q-43 0 -65.5 -24.5t-22.5 -53.5q0 -28 23 -51t73 -23q63 0 116.5 29t101.5 76q51 50 93 120.5t83.5 151
t90.5 162.5t113 154q13 14 26.5 29.5t26.5 26.5q-34 5 -70 7.5t-71 2.5q-52 0 -98.5 -4.5t-92.5 -12.5q-47 -9 -105 -28t-112.5 -49.5t-93 -73.5t-47.5 -99q-1 -5 -1.5 -10.5t-0.5 -10.5q0 -46 31.5 -76t73.5 -30q31 0 60 16.5t52 44t34 60.5q1 10 8 10q6 0 6 -11
q-1 -44 -25.5 -76t-61.5 -48.5t-75 -16.5q-39 0 -74 16.5t-57 49t-22 80.5q0 56 27.5 99t73.5 75.5t100 55t108 36t98 20.5q45 7 93.5 11t98.5 4q43 0 86 -4t84 -12q17 13 35 23t40 18q14 6 21 6q6 0 6 -4q0 -7 -16 -17q-8 -4 -20 -14t-26 -23q65 -16 117 -48
q57 -34 81.5 -72t24.5 -78q0 -46 -28 -91.5t-73 -84.5t-99 -67.5t-107 -41.5q-51 -13 -103 -19t-93 -6h-14.5t-14.5 1q-34 -48 -70 -93.5t-81 -88.5q-55 -52 -120 -79t-133 -27zM587 271q38 -1 85 6t94 21q78 24 140.5 69t99 100t36.5 108q0 32 -15.5 61t-50.5 52
q-23 15 -52 26t-61 18q-51 -72 -95.5 -150t-88 -157t-92.5 -154z" />
    <glyph glyph-name="Q" unicode="Q" horiz-adv-x="756" 
d="M316 -63q-62 0 -115.5 30.5t-81.5 100.5q-12 29 -17.5 60.5t-5.5 62.5q0 67 21.5 134.5t59 127.5t84 106.5t98 73.5t100.5 27q39 0 73 -19q8 -5 8 -9q0 -3 -5 -5t-11 0q-12 4 -30 4q-43 0 -90 -29t-91.5 -78.5t-80.5 -111.5t-57.5 -128.5t-21.5 -129.5q0 -38 9 -73
q19 -66 59.5 -95t92.5 -29q45 0 95 20t96 55q73 55 120.5 121.5t71 138t23.5 140.5q0 66 -21.5 125.5t-64 105.5t-105 72.5t-143.5 26.5q-16 0 -33 -1.5t-35 -3.5q-97 -13 -147 -73t-50 -149q0 -19 2.5 -39.5t7.5 -41.5q1 -3 1 -9q0 -12 -8 -12t-17 16q-12 24 -17.5 48
t-5.5 47q0 58 30 107.5t82 83.5t118 45q32 5 61.5 8t56.5 3q119 0 194.5 -43.5t111.5 -116.5t36 -160q0 -86 -32.5 -175t-92 -166.5t-140.5 -131.5q-44 -29 -95 -45t-98 -16zM669 -371q-88 0 -153.5 20t-114 52t-86 67.5t-70.5 67.5t-66.5 52t-74.5 20q-10 0 -23.5 -5
t-24 -15t-10.5 -27q0 -7 -3 -9.5t-5 -2.5q-9 0 -9 15q0 31 24 52.5t58 21.5q54 0 98.5 -23t88 -58.5t95.5 -73.5q47 -34 102.5 -63.5t113 -47.5t108.5 -18q25 0 47 6t36.5 22t14.5 44q0 29 -19.5 59.5t-56.5 54t-89 31.5q-8 2 -12 6t-4 8q0 8 13 7q63 -10 106.5 -35.5
t66.5 -58t23 -64.5q0 -42 -42 -73.5t-132 -31.5z" />
    <glyph glyph-name="R" unicode="R" horiz-adv-x="1028" 
d="M894 -42q-28 0 -55.5 13t-51.5 38q-35 36 -60.5 86.5t-43.5 104t-28 98t-14 68.5q-37 -71 -76.5 -140.5t-100.5 -136.5q-58 -63 -127 -95.5t-143 -32.5q-23 0 -47 3q-66 8 -97 38t-31 64q0 37 33 67t94 30q20 0 43 -4t48 -13q11 -4 11 -9q0 -4 -8 -4q-5 0 -8 1
q-33 12 -59 12q-42 0 -64 -24.5t-22 -53.5q0 -28 24 -52t74 -24q63 0 116 29.5t99 81t88 117t82 136.5q67 119 121.5 216.5t115.5 165.5q-27 3 -55 4t-57 1q-63 0 -130.5 -6.5t-130.5 -20.5q-85 -18 -146 -53.5t-96.5 -79t-44.5 -87.5q-3 -16 -3 -31q0 -51 34 -79t78 -28
q28 0 56.5 11.5t51.5 36.5q19 20 28 37.5t10 26.5q1 14 6 14q3 0 5.5 -5t1.5 -10q-4 -23 -14 -45t-24 -37q-28 -29 -64 -43t-69 -14q-39 0 -73.5 17t-55.5 49.5t-21 80.5q0 56 39 114.5t117.5 103.5t195.5 62q59 8 114.5 12.5t107.5 4.5q42 0 82 -3t79 -8q26 27 35 27
q7 0 7 -11q0 -4 -1 -10t-3 -12q27 -4 52.5 -8.5t45.5 -10.5q79 -22 115.5 -57.5t36.5 -76.5q0 -44 -39.5 -88t-111 -78t-167.5 -50q-31 -5 -54.5 -7t-40.5 -3q2 -10 9 -42t20 -75.5t33.5 -91.5t49.5 -91q23 -34 47 -56t51 -22q17 0 35.5 9t38.5 29q24 24 44 54t34 57.5
t21 43.5q6 0 9 -1t3 -8q-4 -10 -14 -31.5t-23.5 -48t-29.5 -52.5t-32 -44q-23 -25 -51.5 -37.5t-54.5 -12.5zM662 405q29 5 62 7t65 6q52 7 98 27.5t81.5 49.5t55.5 61.5t20 62.5q0 68 -91 94q-18 5 -46.5 10t-51.5 9q-48 -82 -98.5 -161t-94.5 -166z" />
    <glyph glyph-name="S" unicode="S" horiz-adv-x="926" 
d="M413 -92q-98 0 -179.5 29t-131.5 85.5t-55 139.5q-2 34 11 75t36.5 81.5t56 73t69.5 49.5q3 2 9.5 3t9.5 1q6 0 6 -3q0 -5 -15 -16q-42 -33 -69 -76q-28 -43 -42 -92t-14 -99q0 -59 25.5 -101.5t68.5 -70t98 -40.5t115 -13q67 0 132.5 15t119.5 43q83 44 131.5 109
t48.5 129q0 34 -14.5 65t-46.5 56q-24 19 -58.5 36t-73 33t-75.5 32.5t-65 35.5q-40 27 -58.5 58t-18.5 62q0 37 21.5 72t59 63.5t84.5 44.5q41 14 89.5 22t95.5 8q39 0 74.5 -5.5t62.5 -19.5q34 -16 52 -42.5t18 -55.5q0 -40 -36 -70q-13 -10 -29 -18.5t-38 -14.5
q-4 -1 -9 -1q-12 0 -12 7q0 4 6.5 8.5t19.5 5.5q30 4 45.5 23t15.5 44q0 26 -17.5 51.5t-53.5 43t-92 17.5q-32 0 -70.5 -7t-83.5 -23q-55 -19 -91.5 -56t-36.5 -79q0 -26 17.5 -52.5t56.5 -50.5q33 -20 75 -39.5t85 -39t78 -41.5q55 -34 79 -73t24 -80q0 -48 -28.5 -96.5
t-74.5 -91t-101 -75.5q-64 -38 -144.5 -58.5t-162.5 -20.5z" />
    <glyph glyph-name="T" unicode="T" horiz-adv-x="933" 
d="M388 -70q99 0 181 42.5t148.5 116t116.5 164.5q32 58 60 118t52 113.5t43 92.5t32 56q-55 20 -126.5 35.5t-178.5 21.5q-75 4 -133.5 -17t-99 -56.5t-62 -77.5t-21.5 -81q0 -37 17 -60.5t44.5 -34.5t56.5 -11q36 0 63 15t45.5 36.5t28 41t9.5 28.5v1q5 6 10 6
q10 0 10 -14q-5 -43 -30.5 -75t-61.5 -49t-76 -17q-41 0 -79 20t-62 58t-24 92q0 44 19.5 87.5t59 80t100.5 58.5t144 22q74 0 134.5 -14t116 -34.5t112.5 -40.5q16 20 37.5 37.5t43.5 17.5q20 0 20 -12t-14 -12q-15 0 -31 -12.5t-28 -27.5q71 -23 135.5 -39.5t111.5 -16.5
q45 0 64.5 7t19.5 23q0 6 2.5 10.5t9.5 4.5q5 0 7 -8.5t2 -13.5q0 -24 -25.5 -39t-63.5 -15q-33 0 -79.5 9t-98.5 23.5t-101 32.5q-37 -60 -62.5 -122.5t-47 -125.5t-45.5 -124q-49 -122 -119 -198.5t-165.5 -112t-221.5 -35.5q-115 0 -196 34t-123.5 92.5t-42.5 130.5
q0 62 20.5 113t57 85t83.5 45q7 0 7 -5t-5 -8q-52 -31 -79.5 -87.5t-27.5 -118.5q0 -82 41.5 -139t111 -87t153.5 -30z" />
    <glyph glyph-name="U" unicode="U" horiz-adv-x="947" 
d="M902 -79q-28 5 -44 25.5t-22.5 51t-6.5 63.5q0 34 4.5 67t9.5 58q-15 -24 -28.5 -43.5t-33.5 -45.5q-54 -69 -106.5 -102.5t-96.5 -33.5q-41 0 -68 30.5t-27 88.5q0 42 15 93.5t37.5 107.5t48 111.5t46.5 106.5t32 93q8 31 12.5 60.5t4.5 57.5q0 35 -9 60.5t-29 37.5
q-22 14 -49 20t-56 6q-55 0 -114.5 -19t-116.5 -52q-94 -55 -153 -123t-86.5 -138.5t-27.5 -133.5q0 -56 20 -101t57 -71t87 -26q38 0 79 16q32 12 60 38t49.5 59t34 68t12.5 65q0 31 -16 51t-53 20q-8 0 -17 -1t-19 -3q-7 -1 -12.5 -2.5t-8.5 -1.5q-5 0 -5 3q0 4 9 10.5
t13 7.5q18 8 33.5 11t28.5 3q39 0 57.5 -26t18.5 -66q0 -43 -21 -93.5t-62.5 -94.5t-102.5 -70q-49 -21 -95 -21q-56 0 -99 29.5t-66.5 80.5t-23.5 114q0 71 32.5 147.5t101 149t177.5 132.5q60 33 116.5 49t106.5 16q27 0 54.5 -5t51.5 -16q53 -22 74.5 -66t21.5 -97
q0 -41 -11 -90q-10 -46 -31.5 -98t-47 -107t-49 -110t-38.5 -106t-15 -95q0 -41 15.5 -62.5t40.5 -21.5q32 0 76.5 34t93.5 104q34 49 64.5 107t57 112.5t47.5 93.5q17 29 30.5 41t26.5 12q10 0 14 -10t4 -20q0 -16 -9.5 -37t-22.5 -43.5t-23 -45.5q-10 -21 -28 -65.5
t-32 -96.5q-10 -40 -17.5 -81t-7.5 -74t8.5 -53.5t27.5 -20.5h11q19 0 19 -8q0 -6 -10 -11.5t-24 -3.5z" />
    <glyph glyph-name="V" unicode="V" horiz-adv-x="980" 
d="M747 659q0 -38 -14.5 -93.5t-38 -121t-49.5 -133.5t-49.5 -131.5t-38 -115t-14.5 -82.5q0 -47 31 -47q30 0 73 27.5t91.5 74t95.5 106t85.5 123.5t61.5 126.5t23 114.5q0 35 -9.5 63t-39.5 28q-13 0 -20.5 5.5t-7.5 10.5q0 10 17 10q12 0 30.5 -8.5t37 -26t31.5 -44.5
t13 -64q0 -46 -24.5 -106.5t-66 -125t-94 -126t-109.5 -111t-111.5 -79t-100.5 -29.5q-39 0 -52 24t-13 63q0 61 20.5 133t51 149.5t61 154.5t51 148t20.5 131q0 68 -38.5 92t-100.5 24q-61 0 -129.5 -23t-134 -65t-118.5 -100.5t-84.5 -130t-31.5 -153.5q0 -48 16.5 -89.5
t53.5 -67t97 -25.5q45 0 86.5 19t73.5 51.5t51 72.5t19 82q0 34 -14 59.5t-47 25.5q-13 0 -27 -4t-19 -4t-5 6q0 2 2 5t7 6q11 6 27 9.5t28 3.5q44 0 68 -31t24 -75q0 -48 -25 -93t-66.5 -81t-93 -57t-105.5 -21q-67 0 -113.5 33t-70 86.5t-23.5 114.5q0 79 31.5 150.5
t86.5 130t125 101.5t147.5 66.5t154.5 23.5q58 0 104.5 -19t74 -60.5t27.5 -110.5z" />
    <glyph glyph-name="W" unicode="W" horiz-adv-x="1351" 
d="M518 -125q-30 0 -49.5 22t-15.5 83q4 63 39 162t91 233q18 43 36.5 96t31.5 106.5t13 96.5q0 30 -7.5 52.5t-26.5 33.5q-22 14 -47 20t-53 6q-63 0 -132.5 -29t-134 -79.5t-115 -114.5t-76.5 -133q-15 -41 -22 -77t-7 -65q0 -55 20.5 -91.5t54 -54t72.5 -17.5q37 0 70 13
q43 16 77 54t54 84.5t20 85.5q0 34 -17.5 57t-57.5 23h-11.5t-12.5 -2q-4 -1 -7 -1h-5q-9 0 -9 4q0 6 19 13q31 10 58 10q47 0 70 -27.5t23 -69.5t-23 -90.5t-67.5 -92.5t-111.5 -72q-36 -15 -74 -15q-52 0 -98 27t-75 77t-29 118q0 33 8 69t25 76q33 77 90 140.5t127.5 110
t144.5 71.5t141 25q59 0 107 -21q53 -23 74.5 -65.5t21.5 -95.5q0 -58 -19.5 -123.5t-47.5 -128.5q-31 -71 -61 -148t-52 -146t-31 -115q-2 -11 -3 -19.5t-1 -14.5q0 -35 23 -35q14 0 33 12q37 22 75 66t75.5 100.5t72.5 116t67 112.5t58 90q16 22 30 32.5t24 10.5
q21 0 21 -32q0 -19 -9 -46q-13 -38 -35 -86.5t-41 -98t-25 -92.5q-1 -11 -1.5 -19.5t-0.5 -17.5q0 -52 21 -74.5t55 -22.5q39 0 88.5 25t99.5 66.5t90.5 91.5t61.5 100q23 55 35 107t12 95q0 69 -30 112.5t-94 43.5q-5 0 -11 -0.5t-13 -1.5q-24 -6 -35 -6q-13 0 -13 6
q0 8 20 18t42 6q48 4 90.5 -21.5t68.5 -76t26 -122.5q0 -37 -8 -80t-27 -90q-25 -63 -70 -117t-100.5 -95t-113 -63.5t-107.5 -22.5q-57 0 -95.5 35.5t-38.5 114.5q0 33 6 67t14 60q-17 -28 -45 -69.5t-63.5 -86.5t-73.5 -84.5t-76 -64t-72 -24.5z" />
    <glyph glyph-name="X" unicode="X" horiz-adv-x="791" 
d="M-110 -226q-12 0 -12 13q0 17 19 43q79 110 177.5 210t207 189.5t218.5 167.5v48q0 74 -3.5 122.5t-11.5 81.5q-10 47 -38 66t-65 19q-24 0 -50 -7t-52 -19q-42 -19 -81 -58l-74 -74q-1 -1 -5 -1q-5 0 -12 3.5t-7 11.5q0 7 8 18q3 5 24.5 24.5t55.5 44.5t76 49t86 40
t85 16q26 0 49.5 -8t42.5 -26q17 -15 27 -59.5t14 -107t3 -132.5q100 71 186 127.5t155 105.5t116 95q29 28 53 42t34 14q8 0 8 -7q0 -6 -9.5 -19.5t-30.5 -34.5q-37 -36 -112.5 -88.5t-177.5 -120.5t-220 -153q-1 -34 -1.5 -69.5t-0.5 -69.5q0 -67 3 -123.5t11 -87.5
q12 -45 33 -65.5t46 -20.5q47 0 97 58.5t88 160.5q12 0 12 -9q-36 -95 -80 -156t-89.5 -89.5t-84.5 -28.5q-37 0 -64.5 27t-38.5 78q-4 19 -6 51.5t-2 81.5q0 46 1.5 99.5t2.5 110.5q-106 -76 -207 -160t-188.5 -175.5t-152.5 -192.5q-20 -31 -36 -43.5t-27 -12.5z" />
    <glyph glyph-name="Y" unicode="Y" horiz-adv-x="963" 
d="M372 -400q-70 0 -113.5 26t-43.5 63q0 27 28.5 59t92.5 58q98 41 208 52.5t227 11.5q31 50 55.5 115t44.5 136t36 138q-18 -41 -48 -93t-69 -100.5t-86 -80.5q-58 -39 -120 -39q-46 0 -79 27t-33 85q0 6 0.5 13t1.5 14q8 50 32.5 108t56 114.5t58.5 101.5q32 52 56 106
t37 104t13 88q0 29 -8.5 51.5t-27.5 34.5q-44 28 -104 28q-64 0 -135 -29t-138.5 -78.5t-120.5 -112.5t-82 -131q-18 -43 -26.5 -80t-8.5 -68q0 -54 21 -89.5t55 -53.5t73 -18q32 0 64 11q35 12 65.5 40t54 63t36.5 71t13 65t-14.5 47.5t-47.5 18.5q-12 0 -26 -3
q-4 -1 -7 -1h-5q-9 0 -9 4q0 2 6 6.5t13 5.5q29 7 49 7q41 0 60 -23t19 -59q0 -42 -25.5 -93.5t-72.5 -98t-113 -73.5q-36 -15 -74 -15q-50 0 -93.5 25.5t-70.5 72.5t-27 111q0 39 10 76.5t29 77.5q37 77 98 140.5t134.5 110.5t149.5 72.5t143 25.5q29 0 55 -4.5t48 -15.5
q53 -23 75 -64.5t22 -92.5q0 -57 -23 -121.5t-59 -125.5q-34 -57 -66.5 -119t-56.5 -120t-34 -104q-2 -10 -3 -20t-1 -18q0 -35 17 -51t43 -16q42 0 89 33q37 26 71.5 69t64.5 94.5t54 104t41 98.5t26 77q2 9 15 21t25 12q8 0 14.5 -8t6.5 -28t-9 -61q-13 -58 -32.5 -127
t-43.5 -140.5t-50.5 -135.5t-53.5 -112q28 0 66.5 1t78.5 6t74 16t55 30t21 48v6q0 9 3 9q4 0 9 -16q1 -3 1.5 -6t0.5 -7q0 -21 -17.5 -47.5t-58.5 -43.5q-37 -15 -104.5 -18t-144.5 -4q-50 -76 -125.5 -131t-152.5 -84q-42 -16 -80.5 -23t-72.5 -7zM379 -372q29 0 63 6
t67 18q68 25 135.5 72.5t113.5 120.5q-68 0 -138 -6.5t-137 -24t-127 -52.5q-45 -25 -64.5 -47t-19.5 -39q0 -22 30.5 -35t76.5 -13z" />
    <glyph glyph-name="Z" unicode="Z" horiz-adv-x="681" 
d="M120 -40q-23 0 -48.5 10t-43 31.5t-17.5 53.5q0 39 26.5 62t69.5 23q41 0 89.5 -22.5t102.5 -57.5q30 30 64 70t69 83.5t67.5 85t60.5 75.5q89 108 162.5 180.5t129.5 118.5q-61 17 -140 29.5t-180 12.5q-69 0 -119.5 -19t-78 -48t-27.5 -60q0 -28 17.5 -43t30.5 -24
q12 -7 12 -12q0 -7 -12 -7q-21 0 -39.5 16t-30.5 40.5t-12 50.5q0 51 34 87t89 54.5t118 18.5t126 -14t122 -32.5t109 -34.5q17 13 40 30.5t51.5 31t60.5 13.5q27 0 43 -13.5t16 -33.5q0 -31 -26.5 -50t-62.5 -19q-22 0 -48.5 4.5t-56.5 11.5q-27 -24 -59.5 -62.5t-67 -84
t-68 -90t-62.5 -80.5q-56 -69 -113 -126.5t-108 -101.5t-88 -74q43 -24 98.5 -57.5t116.5 -66t121.5 -54t112.5 -21.5q49 0 94.5 8.5t77 31t37.5 63.5q3 23 13 23q5 0 9 -7.5t2 -29.5q-1 -15 -11 -39t-34.5 -48.5t-68.5 -41.5t-114 -17q-61 0 -118.5 19.5t-110.5 50
t-99 63.5t-83 61.5t-63 43.5q-53 -38 -100.5 -52t-81.5 -14zM995 662q23 0 40.5 11t17.5 36q0 14 -11 23t-27 9q-22 0 -49.5 -16.5t-62.5 -45.5q27 -7 50 -12t42 -5zM145 -8q35 0 72.5 17.5t59.5 36.5l-10 7t-18 11q-37 23 -67 32.5t-50 9.5q-37 0 -56 -17t-19 -37
q0 -22 22 -41t66 -19z" />
    <glyph glyph-name="bracketleft" unicode="[" horiz-adv-x="411" 
d="M227 -133q-99 0 -131 37q-10 11 -13.5 27.5t-3.5 36.5q0 33 10 70.5t20.5 69.5t13.5 48q1 6 6.5 33.5t13.5 66t16.5 79t15 73.5t9.5 48q5 25 11 58.5t15.5 68t24.5 64.5t39 48q23 17 61 25.5t84 8.5h4q11 0 11 -6q0 -5 -6 -11t-10 -6q-73 0 -103 -27q-6 -5 -13.5 -12.5
t-15.5 -27.5q-14 -37 -29.5 -93t-31.5 -120.5t-30 -130t-26 -123t-20.5 -98.5t-11.5 -56q-6 -30 -6 -54q0 -32 14 -48q22 -26 90 -26h1q6 0 6 -8q0 -5 -2.5 -10t-6.5 -5h-6z" />
    <glyph glyph-name="backslash" unicode="\" horiz-adv-x="831" 
d="M722 -32q-26 17 -68.5 60t-96 104t-113 133t-120 147t-118 146.5t-106.5 132t-84 101.5q-6 8 -6 12q0 7 7 11t16 4t18 -3.5t16 -12.5q84 -106 167.5 -212t161.5 -204t145 -179.5t118.5 -140t81.5 -84.5q11 -9 11 -17q0 -7 -8 -7q-3 0 -8.5 2t-13.5 7z" />
    <glyph glyph-name="bracketright" unicode="]" horiz-adv-x="451" 
d="M278 729q99 0 131 -37q10 -10 13.5 -27t3.5 -37q0 -33 -9.5 -70.5t-20.5 -69t-14 -48.5q-1 -6 -6.5 -33.5t-13.5 -66t-16.5 -79t-15 -73.5t-9.5 -48q-5 -25 -11 -58.5t-15.5 -68t-24.5 -64.5t-39 -48q-22 -17 -60 -25.5t-85 -8.5h-4q-11 0 -11 6q0 5 6 11t10 6
q73 0 103 27q6 5 14 13t15 27q14 37 29.5 93t31.5 120.5t30 130t26 123t20.5 98.5t11.5 56q6 30 6 54q0 32 -14 48q-22 26 -90 26h-1q-6 0 -6 8q0 5 2.5 10t6.5 5h6z" />
    <glyph glyph-name="asciicircum" unicode="^" horiz-adv-x="321" 
d="M287 310q-16 18 -36 49.5t-37 64t-27 52.5q-18 -21 -42 -53.5t-46.5 -62.5t-38.5 -47l-6 7q4 6 18.5 27.5t33.5 50t39 56.5t36 47t23 20l11 -6q11 -25 25 -62t28.5 -72t26.5 -53l4 -8q0 -5 -4.5 -9t-7.5 -1z" />
    <glyph glyph-name="underscore" unicode="_" horiz-adv-x="729" 
d="M-24 -130q-4 0 -6.5 6.5t-2.5 13.5t6.5 11t13.5 4h744q11 0 19 -9t9 -19l-6 -7h-777z" />
    <glyph glyph-name="grave" unicode="`" horiz-adv-x="183" 
d="M129 395q-6 6 -20 21.5t-30.5 34.5t-29.5 36.5t-18 26.5q6 24 14.5 29.5t15.5 3.5l83 -149q-1 -7 -15 -3z" />
    <glyph glyph-name="a" unicode="a" horiz-adv-x="358" 
d="M276 -3q-23 0 -40.5 13t-17.5 53q0 17 2.5 32t6.5 32q-9 -15 -25 -37t-35.5 -43t-40 -35t-38.5 -14q-26 0 -42 23.5t-16 61.5q0 41 19 88t52 90t76 70t90 27q23 0 44 -7.5t37 -24.5q7 -7 7 -16q0 -6 -5 -10t-13 -2q-11 35 -47 35q-17 0 -39 -11q-27 -14 -57.5 -44.5
t-57 -69t-43.5 -77.5t-17 -71q0 -33 25 -33q22 0 45.5 21t45 52.5t39.5 62.5t28 50q15 27 28 45t37 18q11 0 22 -3t23 -1q-30 -30 -52.5 -71t-34.5 -80.5t-12 -66.5q0 -30 20 -30q16 0 34.5 18t36 45.5t32.5 56t24 49.5q5 0 8.5 -1t3.5 -8q-1 -4 -3.5 -8.5t-7.5 -15.5
q-8 -16 -22 -43t-33 -54.5t-41 -46.5t-46 -19z" />
    <glyph glyph-name="b" unicode="b" horiz-adv-x="327" 
d="M120 -5q-41 0 -58 25t-17 61q0 25 5.5 47t16.5 50h-2q-8 0 -8 8q0 4 8.5 23t22 46t28 55t26.5 50q20 37 44 76.5t47.5 75.5t39.5 59q36 50 67 50h5q9 0 20.5 -3t21.5 -1q-15 -16 -45.5 -57.5t-66.5 -94.5q-15 -22 -37.5 -59t-47.5 -83t-46.5 -93.5t-35.5 -92t-14 -79.5
q0 -23 8 -32t20 -9q15 0 35.5 17.5t42 46t39.5 63t29.5 70t11.5 65.5q0 29 -10.5 42t-27.5 13q-7 0 -14 -3.5t-12 -3.5t-5 5t10.5 11t31.5 6q19 0 38.5 -10t32.5 -32.5t13 -58.5q0 -43 -20 -87.5t-52 -82t-70.5 -60.5t-74.5 -23z" />
    <glyph glyph-name="c" unicode="c" horiz-adv-x="263" 
d="M145 -4q-55 0 -81.5 29t-26.5 78q0 23 9 53t24 61t33 55q29 39 64 60.5t71 21.5q38 0 54.5 -16.5t16.5 -38.5q0 -21 -10 -37.5t-22.5 -26.5t-21.5 -10q-8 0 -14 6q8 10 17 24t13 27q4 12 4 24q0 26 -24 26q-29 0 -56.5 -24t-50 -61.5t-36 -79t-13.5 -76.5q0 -32 13.5 -53
t44.5 -21q41 0 72 26.5t55 67t42 82.5q4 0 8 -1.5t4 -7.5q-20 -50 -47 -93t-61.5 -69t-80.5 -26z" />
    <glyph glyph-name="d" unicode="d" horiz-adv-x="372" 
d="M288 0q-34 0 -50 23t-16 54q0 9 1 18.5t4 19.5q-14 -22 -32.5 -48.5t-42 -46t-52.5 -19.5q-13 0 -29.5 6t-29 23t-12.5 50q0 43 19 91t52 90.5t75 69t87 26.5q36 0 68 -19q15 28 32 62.5t34 68.5t30 62.5t20 43.5q15 35 28.5 44.5t32.5 9.5q11 0 24.5 -2.5t26.5 -1.5
q-5 -5 -23 -33t-44 -72.5t-55.5 -97.5t-58 -108.5t-52.5 -106.5t-38 -90t-14 -59q0 -13 6 -22.5t20 -9.5q19 0 39 19t38.5 47.5t33 56t21.5 44.5q12 0 12 -9q-9 -21 -24 -52t-35 -61t-44.5 -50.5t-51.5 -20.5zM107 30q14 0 35 15.5t45 49.5q28 40 64 100t71 127q-7 6 -15 9
t-22 3q-23 0 -50.5 -19.5t-55 -50.5t-50 -67t-36 -69.5t-13.5 -57.5q0 -40 27 -40z" />
    <glyph glyph-name="e" unicode="e" horiz-adv-x="256" 
d="M131 -4q-37 0 -66.5 24t-29.5 73q0 41 18.5 87t49 86.5t68 66t75.5 25.5q19 0 37 -11t18 -38q0 -25 -19 -55t-54 -56q-15 -11 -38 -21t-46 -16.5t-38 -6.5q-5 -12 -9.5 -32t-4.5 -41q0 -25 10 -45t37 -20q33 0 61.5 19t51 48t38.5 59t25 51q12 0 12 -9q-13 -28 -29.5 -61
t-39 -61.5t-54 -47t-73.5 -18.5zM113 172q14 0 47 10.5t60 33.5q26 23 40 50.5t14 46.5q0 22 -16 22q-12 0 -33 -16t-52 -54q-19 -24 -36 -52t-24 -41z" />
    <glyph glyph-name="f" unicode="f" horiz-adv-x="194" 
d="M-65 -351q-22 0 -38.5 11t-16.5 43q0 50 30 136t73 189q-12 20 -12 42q0 35 20 48q17 14 36 11q36 81 73 159.5t71.5 148.5t62.5 123q17 33 35.5 51t48.5 18q9 0 21.5 -3.5t22.5 -2.5q-23 -22 -57.5 -73.5t-74.5 -122.5t-81.5 -153.5t-79.5 -167.5q16 -20 22 -40t13 -48
q30 -2 57.5 25t51 68t40.5 82q12 0 12 -9q-17 -42 -40.5 -85t-53 -72.5t-65.5 -31.5v-26q0 -52 -12.5 -108t-35.5 -104t-54 -78t-69 -30zM77 14h5q-1 20 -8 39.5t-16 29.5l-21 -51q9 -18 40 -18zM-50 -324q10 0 24 11.5t27 29.5q25 33 44 81t30 100t10 96q-19 0 -34.5 5
t-24.5 12q-26 -67 -48.5 -132.5t-34.5 -115.5q-4 -19 -6 -33t-2 -24q0 -30 15 -30z" />
    <glyph glyph-name="g" unicode="g" horiz-adv-x="396" 
d="M-10 -319q-95 0 -95 78q0 37 26 66t62 50q50 30 98 48t92 31.5t82 29.5q9 26 15 57.5t9 61.5t3 52q0 23 -3 30q-11 -21 -29.5 -52t-43 -61.5t-51.5 -50.5t-55 -20q-10 0 -19 3q-28 12 -40.5 34t-12.5 50q0 45 26 97t62 95q29 35 68 56t79 21q46 0 86 -31q15 -12 15 -26
q0 -15 -12 -15q-10 0 -14 13q-14 37 -45 37q-25 0 -57 -21.5t-60 -53.5q-24 -27 -46.5 -62t-37 -69t-14.5 -59q0 -17 8 -29t25 -12q23 0 48.5 22t49 54t41 65t24.5 55q7 23 19 28.5t24 5.5t20 6q4 -22 5.5 -44.5t1.5 -45.5q0 -46 -5.5 -84t-18.5 -81q36 22 62.5 55.5t44 68
t28.5 59.5q12 0 12 -9q-13 -27 -32.5 -66t-49 -75.5t-73.5 -56.5q-17 -48 -48.5 -101t-74.5 -99.5t-94 -75.5t-105 -29zM-34 -299q22 0 46.5 9.5t46.5 22.5t34 22q23 18 47 45t42 52q17 24 35 50.5t29 52.5l-41 -13q-33 -10 -72.5 -24.5t-78.5 -32.5t-71 -39
q-28 -19 -46.5 -50t-18.5 -54q0 -17 11.5 -29t36.5 -12z" />
    <glyph glyph-name="h" unicode="h" horiz-adv-x="336" 
d="M-38 -8q42 86 87.5 180.5t93.5 190.5t95 183q17 30 31.5 47t38.5 17q9 0 21 -3t23 -1q-13 -14 -35.5 -49t-50 -84t-58 -105.5t-60 -114t-54.5 -107.5q20 26 41 49t41 40q22 20 55.5 42t67 38t53.5 16q7 0 10 -1l-11 -20t-27.5 -51t-34 -67t-30.5 -68.5t-17 -53.5
q-3 -16 -3 -27q0 -16 6 -21.5t13 -5.5q17 0 36.5 17.5t38.5 44.5t35.5 57.5t26.5 57.5q12 0 12 -9q-11 -27 -27.5 -59.5t-37.5 -61.5t-46 -48t-53 -19q-20 0 -41 14t-21 51q0 11 2 23.5t7 28.5q6 20 20 44.5t36 61.5q10 17 10 27q0 12 -12 12q-10 0 -27 -10t-43 -35
q-25 -24 -62 -70t-79 -129q-7 -13 -15.5 -13.5t-22.5 -1.5q-9 -1 -18 -1.5t-15 -5.5z" />
    <glyph glyph-name="i" unicode="i" horiz-adv-x="176" 
d="M87 0q-37 0 -52 21.5t-15 49.5q0 15 3.5 30.5t8.5 28.5l67 171q3 8 3 14q0 10 -5 17.5l-7 10.5l55 2q15 1 21.5 -3.5t6.5 -10.5t-7 -22q-10 -24 -27 -60t-33.5 -74t-28 -71t-11.5 -51q0 -13 6.5 -22t22.5 -9q21 0 41.5 16.5t38.5 42.5t33.5 56t26.5 56q12 0 12 -9
q-10 -25 -26 -57t-36.5 -60.5t-45 -47.5t-52.5 -19zM176 407q-13 0 -22.5 10t-9.5 24q0 17 14 30.5t31 13.5q14 0 24 -9t10 -23q0 -18 -14 -32t-33 -14z" />
    <glyph glyph-name="j" unicode="j" horiz-adv-x="178" 
d="M-302 -319q-52 0 -73.5 20.5t-21.5 48.5q0 27 15 54q14 29 39 49.5t55 34.5q51 24 117.5 39t127.5 33q8 14 16.5 29t15.5 29q20 40 37 79.5t42 85.5q-9 0 -9 10l44 101q1 2 2 5.5t1 7.5q0 11 -5 18.5l-7 10.5l55 2h5q22 0 22 -14q0 -7 -6 -22l-80 -188q-14 -33 -30 -66
t-33 -67q70 27 111.5 66.5t64 79t34.5 66.5q12 0 12 -9q-10 -22 -26 -52.5t-42 -64t-67 -64.5t-103 -54q-24 -43 -55 -89.5t-70 -87t-85.5 -66t-102.5 -25.5zM-326 -299q33 0 68.5 20t68.5 50.5t60.5 62.5t44.5 56q6 8 11 18l10 20q-48 -13 -106 -28.5t-102 -34.5
q-48 -20 -75 -56.5t-27 -65.5q0 -19 11.5 -30.5t35.5 -11.5zM178 400q-13 0 -22.5 10t-9.5 24q0 17 14 30.5t31 13.5q14 0 24 -9t10 -23q0 -18 -14 -32t-33 -14z" />
    <glyph glyph-name="k" unicode="k" horiz-adv-x="360" 
d="M233 -7q-28 3 -46 21.5t-26 43.5t-8 46q0 40 18 64.5t33 25.5q16 -1 39 7.5t40 23.5q29 23 29 47q0 25 -29 25q-16 0 -40.5 -11t-56.5 -38q-40 -34 -83 -91q-6 -13 -14 -38.5t-13.5 -52.5t-5.5 -46q0 -15 5 -20h-63q-11 0 -11 9q0 3 1 5t2 8q14 52 33.5 92t32.5 70
q-9 -3 -10 1.5t-1 7.5q7 16 23.5 51.5t39 82t48.5 97.5t52 98q26 48 42.5 68t40.5 20q9 0 21.5 -3t22.5 -1q-22 -19 -55 -69.5t-70 -117.5t-71 -137q-10 -20 -19 -42t-17 -44q21 26 48 54t56.5 51.5t58.5 34.5q33 12 55 12q23 0 33.5 -11t10.5 -28q0 -19 -15 -45.5
t-41 -45.5q-22 -15 -46 -26t-57 -14q-6 -14 -8.5 -28.5t-2.5 -28.5q0 -39 18 -68.5t47 -29.5q14 0 30.5 8t34.5 27q20 20 40 55.5t40 79.5q12 0 12 -9q-36 -87 -70 -129t-65.5 -53.5t-62.5 -8.5z" />
    <glyph glyph-name="l" unicode="l" horiz-adv-x="213" 
d="M106 -3q-37 0 -54.5 22.5t-17.5 53.5q0 32 9 66t16 57q16 56 40.5 119.5t54 125t58.5 110.5q23 39 49.5 58.5t46.5 19.5q16 0 25.5 -11.5t9.5 -34.5q0 -16 -5.5 -38t-18.5 -50q-35 -78 -83.5 -156t-122.5 -146q-12 -28 -20 -60t-8 -52q0 -62 42 -62q32 0 71 46.5
t74 127.5q4 0 8 -1.5t4 -7.5q-11 -27 -27.5 -59.5t-38 -61.5t-49.5 -47.5t-63 -18.5zM121 225q36 37 70 85.5t63.5 101t49.5 99.5q7 15 11.5 33t4.5 30q0 14 -7 14q-4 0 -12 -7.5t-21 -25.5q-19 -25 -41.5 -68t-45.5 -92t-42 -94.5t-30 -75.5z" />
    <glyph glyph-name="m" unicode="m" horiz-adv-x="509" 
d="M-38 -5q37 71 70 142.5t67 135.5q20 36 33.5 50.5t36.5 14.5q8 0 17 -2.5t18 -2.5q6 0 9 1q-14 -8 -36 -39.5t-45 -72.5t-41 -77q19 23 39.5 46t45.5 44q22 19 46.5 41.5t48.5 38.5t42 16q7 0 9 -1q19 -8 19 -26q0 -6 -5 -18q-13 -34 -33.5 -69.5t-38.5 -71.5
q15 18 37.5 44t45.5 46q22 20 56 42t67 38t53 16q7 0 10 -1l-11 -19.5t-27.5 -51t-33.5 -67t-30.5 -68t-17.5 -54.5q-3 -13 -3 -24q0 -16 6 -21t13 -5q20 0 39.5 17t38.5 43.5t34.5 56.5t26.5 56q12 0 12 -9q-11 -27 -27.5 -59.5t-37.5 -61.5t-46 -48t-54 -19
q-21 0 -39.5 14t-18.5 52q0 41 19.5 82t40.5 75q10 17 10 27q0 12 -12 12q-10 0 -27.5 -10t-43.5 -35q-16 -15 -37.5 -41.5t-43.5 -57.5t-38 -61t-21 -53q-15 0 -24 12.5t-9 29.5v6t1 7q5 31 16 52.5t25 50.5q7 13 16 30.5t16 34t7 27.5q0 10 -8 10q-9 0 -23.5 -9
t-27.5 -20.5t-20 -17.5q-25 -24 -60.5 -69t-77.5 -128q-6 -11 -14 -13.5t-25 -2.5q-11 0 -18.5 -0.5t-15.5 -4.5z" />
    <glyph glyph-name="n" unicode="n" horiz-adv-x="338" 
d="M-37 -8q36 73 69 144.5t68 136.5q20 36 34 50.5t37 14.5q8 0 17 -2.5t18 -2.5q6 0 9 1q-14 -8 -36.5 -39.5t-45.5 -72.5t-41 -77q19 23 40 46t46 44q24 21 57.5 43.5t65.5 37.5t51 15q7 0 10 -1l-11 -19.5t-27.5 -51t-33.5 -67t-30.5 -68t-17.5 -54.5q-3 -13 -3 -24
q0 -16 6 -21t13 -5q19 0 39 17t38.5 43.5t34.5 56.5t27 56q12 0 12 -9q-11 -27 -27.5 -59.5t-37 -61.5t-45.5 -48t-54 -19q-20 0 -41.5 14t-21.5 52q0 11 2 23.5t7 27.5q8 20 19 43t36 63q7 11 8.5 17t1.5 10q0 12 -11 12q-9 0 -26.5 -10t-43.5 -35q-25 -24 -59.5 -68
t-79.5 -130q-7 -13 -15.5 -14t-23.5 -2q-10 -1 -19 -1.5t-15 -5.5z" />
    <glyph glyph-name="o" unicode="o" horiz-adv-x="338" 
d="M119 0q-41 0 -60.5 29.5t-19.5 71.5q0 39 15 81q16 46 44.5 84t63 61.5t68.5 23.5q41 0 60.5 -28t19.5 -71q0 -30 -10 -63t-27 -65q13 -13 37 -13q28 0 48 18t39 64q12 0 12 -9q-19 -46 -43.5 -67.5t-62.5 -20.5q-23 0 -38 13q-28 -46 -66.5 -77.5t-79.5 -31.5zM133 22
q23 0 46 19.5t42 44.5t27 43q-16 29 -18.5 43.5t-2.5 21.5q0 19 10 29t20 10q14 0 24 -12q2 11 3 20.5t1 18.5q0 26 -9.5 42.5t-29.5 16.5q-21 0 -44 -18t-43.5 -48t-35.5 -67q-13 -31 -20 -58.5t-7 -50.5q0 -25 9 -40t28 -15z" />
    <glyph glyph-name="p" unicode="p" horiz-adv-x="336" 
d="M-98 -273q-12 0 -24.5 3.5t-25.5 1.5q6 6 23 34.5t40 71t47.5 92t47.5 98t39.5 90t21.5 66.5q-5 0 -9 2t-3 7l6 18t12 43.5t6 46.5q0 14 -3 24t-11 11l50 8q6 1 11 1.5t9 0.5q9 0 12.5 -6.5t3.5 -26.5q0 -25 -8.5 -63.5t-19.5 -67.5q11 18 28.5 46t40.5 57t48 48.5
t49 19.5q5 0 13 -2q28 -7 39.5 -27.5t11.5 -48.5q0 -30 -11.5 -66t-30.5 -70.5t-42 -62.5q-28 -35 -67 -56t-80 -21q-37 0 -69 19l-95 -239q-14 -30 -27 -41t-33 -11zM94 20q28 0 63 26t67.5 66.5t54.5 81.5q15 28 22 51.5t7 40.5q0 39 -28 39q-13 0 -33.5 -14t-47.5 -51
q-29 -40 -63.5 -100.5t-70.5 -127.5q12 -12 29 -12z" />
    <glyph glyph-name="q" unicode="q" horiz-adv-x="347" 
d="M134 -289q-4 9 -13 16t-15 14q-14 15 -14 34q0 12 5.5 27.5t14.5 34.5q32 72 53.5 118.5t37.5 79t30 60.5t30 63q-2 -4 -11.5 -18.5t-22 -32.5t-23 -32.5t-13.5 -18.5q-18 -21 -41.5 -38t-49.5 -17q-9 0 -20 3q-28 12 -40.5 34t-12.5 50q0 45 26 97t62 95q29 35 68 56
t79 21q22 0 44 -7.5t41 -23.5q9 -7 12.5 -13.5t3.5 -12.5q0 -15 -12 -15q-10 0 -14 13q-14 37 -45 37q-24 0 -52.5 -19.5t-57 -50.5t-52.5 -67t-38.5 -70t-14.5 -59q0 -28 20 -37q3 -1 6 -1.5t5 -0.5q21 0 45.5 22.5t47 54t40 60t24.5 41.5q20 33 31.5 42t30.5 7
q5 -1 18.5 -3t24.5 -1q-19 -29 -43.5 -76t-50.5 -102.5t-50.5 -113t-45 -108.5t-33 -88.5t-15.5 -53.5z" />
    <glyph glyph-name="r" unicode="r" horiz-adv-x="259" 
d="M60 196q8 17 21 54.5t27 83.5t21 87q3 16 11 23.5t17 7.5q13 0 24 -12.5t11 -35.5q0 -28 -16.5 -48t-40.5 -38q10 -1 21 -1.5t24 -0.5q47 0 93 6q2 -6 2 -9q0 -13 -7.5 -33t-15.5 -36q-4 -9 -16 -32.5t-26 -53t-23.5 -58t-9.5 -48.5q0 -26 20 -26q19 0 53 44.5t68 122.5
q12 0 12 -9q-11 -27 -27.5 -59t-36.5 -60.5t-43 -47t-48 -18.5q-19 0 -38 15.5t-19 50.5q0 31 12 60.5t27 55.5t27 46t12 32q0 18 -22.5 26t-58.5 9q-18 -46 -27 -68t-17 -42q-16 0 -11 12z" />
    <glyph glyph-name="s" unicode="s" horiz-adv-x="267" 
d="M80 -4q-41 0 -66.5 25.5t-25.5 53.5q0 23 11.5 42.5t30.5 19.5l1 2q22 40 42.5 81.5t45.5 88.5q21 39 45.5 64t57.5 25q8 0 22 -3.5t14 -14.5q0 -8 -9 -8q-7 0 -15.5 4t-13.5 4q-19 0 -32 -22t-13 -47q0 -27 9 -48.5t21 -41.5t21 -40.5t9 -44.5q0 -48 -18.5 -77.5
t-48.5 -44.5h1q53 0 87.5 49.5t68.5 129.5q12 0 12 -9q-19 -45 -42 -88t-54 -71t-76 -28q-19 0 -35 4q-23 -5 -50 -5zM65 102q0 -24 11 -46t40 -33q26 15 40.5 46.5t14.5 65.5q0 28 -6 57t-12.5 57t-6.5 50q0 7 0.5 12.5t1.5 10.5q-18 -27 -36.5 -63t-35.5 -69t-31 -54
q20 -3 20 -34zM32 52q0 -16 11 -28t33 -12q10 0 19 2q-21 13 -33.5 33t-12.5 46q-9 -10 -13 -20.5t-4 -20.5z" />
    <glyph glyph-name="t" unicode="t" horiz-adv-x="201" 
d="M266 528q-13 -19 -29 -48t-29.5 -56l-20.5 -41h92q0 -4 -3.5 -13t-13.5 -13h-87q-12 -27 -27.5 -65t-30 -79t-24 -76.5t-9.5 -57.5q0 -30 8 -44.5t29 -14.5q27 0 52 26.5t47.5 66.5t39.5 80q12 0 12 -9q-11 -27 -27 -59t-36.5 -61.5t-46 -48t-56.5 -18.5q-42 0 -57 23.5
t-15 60.5q0 27 10 65.5t24.5 79.5t28.5 76.5t22 54.5h-64q0 8 7 17t15 9h53q8 16 18.5 40t28.5 53q15 24 38.5 38t50.5 14z" />
    <glyph glyph-name="u" unicode="u" horiz-adv-x="356" 
d="M88 0q-11 0 -26.5 5t-27 18.5t-11.5 40.5q0 26 17 60l30 60q-11 0 -11 9q1 3 9 19l19 38t21.5 42.5t16.5 31.5q12 22 38 22h62q-17 -13 -30.5 -28.5t-33.5 -56.5l-7 -14t-17.5 -35.5t-21 -43.5t-17.5 -37q-13 -28 -17 -44.5t-4 -30.5q0 -33 22 -33q24 0 58 39
q28 33 55 79t51.5 95t43.5 88q11 22 39 22h55q-22 -18 -44.5 -54t-49.5 -92q-7 -15 -18 -38t-19.5 -49t-8.5 -52q0 -35 25 -35q34 0 66 47t63 120q8 0 9.5 -1t2.5 -8q-11 -27 -26.5 -58.5t-35 -60.5t-43 -47t-51.5 -18q-25 0 -41 18.5t-16 52.5q0 27 10 58q-17 -30 -39 -60
t-47 -49.5t-50 -19.5z" />
    <glyph glyph-name="v" unicode="v" horiz-adv-x="309" 
d="M92 -7q-31 0 -43 16t-12 41q0 26 9 59t24 74q-11 0 -11 10q8 20 17.5 45.5t9.5 57.5q0 16 -4 27t-12 13l10.5 2t22.5 4t16 2q6 1 11 1.5t9 0.5q10 0 13.5 -8t2.5 -35q-1 -25 -10 -60.5t-19 -61.5q-13 -34 -24 -69t-11 -58q0 -20 11 -26q8 -3 14 -3q23 0 45 22t41.5 53.5
t32.5 60.5q-6 23 -6 55q0 34 8 69t25 58.5t44 23.5q19 0 19 -17q0 -4 -9.5 -34t-24.5 -71t-32 -79q-4 -8 -7 -16q4 -17 15 -27.5t27 -10.5q20 0 37.5 18.5t36.5 62.5q12 0 12 -9q-16 -40 -38.5 -64t-50.5 -24q-34 0 -49 35q-17 -35 -40 -66.5t-50.5 -51.5t-59.5 -20z" />
    <glyph glyph-name="w" unicode="w" horiz-adv-x="495" 
d="M279 -2q-6 0 -10.5 0.5t-11.5 1.5q-25 5 -34.5 27.5t-9.5 48.5q0 16 2.5 31.5t6.5 27.5q-9 -16 -23 -38.5t-32 -44.5t-38 -37t-41 -15t-39 12t-23 34q-1 5 -1.5 9.5t-0.5 8.5q0 26 14 53t33 67q-5 0 -8.5 1t-3.5 8q23 52 39.5 84.5t24.5 46.5q13 22 41 22h62
q-17 -13 -30.5 -28.5t-33.5 -56.5l-7 -14l-17.5 -35t-21 -43t-17.5 -38q-10 -22 -15 -41t-5 -33q0 -35 23 -35q16 0 36 20q23 22 47.5 61.5t47.5 83.5t41 81.5t27 55.5q5 11 13.5 16.5t24.5 5.5h61q-6 -6 -17.5 -13t-22.5 -25q-14 -24 -25 -44.5t-30 -61.5q-4 -9 -15.5 -35
t-21.5 -57t-10 -56q0 -16 7 -26t23 -10q28 0 53.5 23t46 56t33.5 64q-1 8 -2.5 23.5t-1.5 26.5q0 65 20.5 110.5t54.5 45.5q19 0 19 -17q0 -3 -6.5 -23.5t-17 -50.5t-23.5 -63t-26 -62q3 -17 14 -28t28 -11q20 0 37.5 18.5t36.5 62.5q12 0 12 -9q-16 -40 -38.5 -64
t-50.5 -24q-34 0 -49 35q-27 -54 -64.5 -93.5t-84.5 -39.5z" />
    <glyph glyph-name="x" unicode="x" horiz-adv-x="334" 
d="M11 -34q-13 0 -15.5 7.5t-2.5 12.5q30 0 58 21t51.5 55t41 73.5t27.5 76.5t10 63q0 35 -21 35q-13 0 -29 -16t-30 -44q-11 -21 -20 -42t-10 -24v0v0v0q-5 0 -8.5 1t-3.5 8l15 35t19 40q14 28 33 48t50 20q35 0 46.5 -21t11.5 -50q0 -27 -6 -56q19 36 42.5 70.5t45.5 54.5
q11 11 21 17t22 6t20.5 -6t8.5 -19q0 -15 -13 -26.5t-28 -11.5q-22 0 -25 18q-20 -19 -41 -49t-39 -63.5t-29 -65.5q-3 -19 -3 -37q0 -26 7.5 -50t33.5 -24q42 0 75 46t67 124q12 0 12 -9q-11 -27 -26 -58.5t-35 -60.5t-46 -47t-60 -18q-27 0 -45 14.5t-27 36t-9 42.5v25
q-23 -49 -53.5 -88.5t-59.5 -53.5q-9 -4 -16 -7t-17 -3z" />
    <glyph glyph-name="y" unicode="y" horiz-adv-x="381" 
d="M-79 -319q-52 0 -74 20.5t-22 48.5q0 43 31.5 79.5t77.5 58.5q52 24 118.5 39t127.5 33q19 33 35 75.5t29 83t21 66.5q-12 -22 -30.5 -53.5t-41.5 -61.5t-49.5 -50t-55.5 -20q-11 0 -26.5 5t-27 18.5t-11.5 40.5q0 26 16 57.5t32 62.5q-5 0 -8.5 1t-3.5 8q3 6 12 26
t20.5 44t20.5 42q11 23 24.5 32t26.5 9h62q-7 -6 -17.5 -13.5t-19.5 -22.5q-27 -46 -47 -88.5t-43 -90.5q-11 -23 -16 -42t-5 -33q0 -33 22 -33q24 0 58 39q28 33 56.5 78.5t55 94t46.5 89.5q11 22 39 22h55q-29 -20 -44.5 -52t-34.5 -82q-21 -55 -40 -114t-42 -121
q49 17 82 44t58.5 69.5t51.5 102.5q12 0 12 -9q-22 -46 -40 -81t-40 -61.5t-55 -49t-85 -43.5q-24 -43 -54.5 -89.5t-69 -87t-85 -66t-102.5 -25.5zM-103 -299q33 0 68 20t68 50.5t60.5 62t44.5 55.5q5 7 11 18t12 21q-49 -13 -107.5 -28.5t-101.5 -34.5q-48 -20 -75.5 -57
t-27.5 -66q0 -18 11.5 -29.5t36.5 -11.5z" />
    <glyph glyph-name="z" unicode="z" horiz-adv-x="343" 
d="M59 193q7 16 15 33.5t23 44.5q18 32 38 47.5t39 20.5t31 5q25 0 44 -7t34.5 -14.5t30.5 -7.5q19 0 28 10t16 10t12 -6t5 -15q0 -13 -11 -19t-37 -20q-28 -15 -50 -43t-42.5 -60t-44.5 -62.5t-56 -51.5q38 -6 70 -13t56 -7q6 0 10.5 0.5t9.5 1.5q30 8 52.5 32.5t39.5 56.5
t30 64q12 0 12 -9q-18 -45 -43 -89t-56 -73t-68 -29q-44 0 -78 8t-57 8q-19 0 -36.5 -10.5t-37.5 -10.5q-18 0 -18 15q0 10 5 17q3 6 21 13.5t37.5 15t26.5 11.5q18 9 39.5 34.5t44.5 58t45 63.5t42 52q-18 4 -41 9t-43 5q-29 0 -50 -5.5t-38.5 -26.5t-37.5 -66q-12 0 -12 9
z" />
    <glyph glyph-name="braceleft" unicode="{" horiz-adv-x="549" 
d="M377 -133q-99 0 -131 37q-10 11 -13.5 27.5t-3.5 36.5q0 33 10 70.5t20.5 69.5t13.5 48q6 30 6 52q0 20 -3.5 30.5t-10.5 18.5q-9 11 -16 16t-19 10q-13 6 -29 7.5t-36 1.5q-7 0 -7 5q0 6 6.5 14l6.5 8q43 5 71.5 13.5t44.5 21.5q32 25 47 102q5 25 11 58.5t15.5 68
t24.5 64.5t39 48q23 17 61 25.5t84 8.5h4q11 0 11 -6q0 -5 -6 -11t-10 -6q-73 0 -103 -27q-25 -22 -38 -62t-21 -86t-19.5 -89t-34.5 -71q-41 -50 -135 -65q41 -8 67 -22t37 -32q10 -17 10 -49q0 -30 -9.5 -66t-20 -68t-14.5 -51q-6 -30 -6 -54q0 -32 14 -48q22 -26 90 -26
h1q6 0 6 -8q0 -5 -2.5 -10t-6.5 -5h-6z" />
    <glyph glyph-name="bar" unicode="|" horiz-adv-x="463" 
d="M0 -233l419 985h44l-419 -985h-44z" />
    <glyph glyph-name="braceright" unicode="}" horiz-adv-x="508" 
d="M57 -133q-6 0 -6 8q0 5 3.5 10t10.5 5q71 0 106 27q21 16 31 46t16 66.5t13.5 75t22 72.5t41.5 59q22 19 54.5 33t75.5 22q-75 13 -97 55q-7 14 -7 37q0 31 9 68t20 71t17 53q13 40 13 69q0 20 -7 31q-19 27 -92 27q-7 0 -7 4q0 5 7 12l7 7h4q51 0 84 -8.5t46 -26.5
q14 -18 14 -49q0 -29 -9.5 -64t-22 -71.5t-22 -70.5t-9.5 -60q0 -24 10 -37q23 -26 97 -32q6 0 6 -5q0 -6 -8 -15l-8 -9q-36 0 -66 -8t-53 -26q-24 -19 -36 -52t-19 -73.5t-15 -82t-24 -76.5t-48 -57q-25 -17 -63 -26t-85 -9h-4z" />
    <glyph glyph-name="asciitilde" unicode="~" horiz-adv-x="373" 
d="M258 222q-23 0 -45.5 9.5t-44 19t-44.5 9.5q-16 0 -28 -9.5t-19 -22.5q-1 -4 -10 -4q-5 0 -9.5 2t-3.5 4q14 25 37.5 50t54.5 25q24 0 46 -9t43.5 -18.5t43.5 -9.5q18 0 30 10t20 27v0v0l2.5 1t4.5 1q5 0 10.5 -1.5t4.5 -3.5q-13 -27 -37 -53.5t-56 -26.5z" />
    <glyph glyph-name="uni00A0" unicode="&#xa0;" horiz-adv-x="171" 
 />
    <glyph glyph-name="exclamdown" unicode="&#xa1;" horiz-adv-x="389" 
d="M305 255q-15 0 -25.5 9.5t-12.5 24.5q-2 20 11 34.5t32 14.5q16 0 27 -10t12 -25q2 -19 -12 -33.5t-32 -14.5zM-5 -299l-5 2l-1 6q1 6 15.5 34t37.5 69.5t51 91t56.5 99t53.5 94t43.5 76t24.5 43.5l11 -1v-7l-204 -487q-9 -21 -48 -21q-9 0 -18 0.5t-17 0.5z" />
    <glyph glyph-name="cent" unicode="&#xa2;" horiz-adv-x="324" 
d="M80 -184q-20 7 -28.5 23.5t-8.5 38.5q0 29 10 63.5t24.5 68.5t27 62t16.5 42q-45 4 -63 32t-18 66q0 33 10.5 69t26.5 67.5t32 49.5q14 16 36 33t48 29t50 12h7l68 170q8 17 17 17q6 0 9 -7.5t0 -15.5l-70 -169q24 -7 38.5 -27t13.5 -49q-1 -26 -15.5 -44t-37.5 -18
q-19 0 -33 13.5t-14 32.5q0 20 13 34t34 14q10 0 20.5 -6.5t12.5 -12.5q3 17 -5.5 29t-15.5 14q-3 1 -9 1q-18 0 -40 -12.5t-43 -32t-36 -39.5q-29 -39 -45 -83.5t-15 -82.5q2 -38 19.5 -52.5t36.5 -14.5q31 0 60 23t52 52q5 5 7 5q5 0 6.5 -6.5t-1.5 -11.5
q-24 -34 -55.5 -55.5t-73.5 -23.5q-3 -10 -16 -38.5t-27.5 -66t-25.5 -74.5t-11 -64q0 -33 21 -37q10 -1 10 -8q0 -5 -5.5 -8.5t-13.5 -1.5z" />
    <glyph glyph-name="sterling" unicode="&#xa3;" horiz-adv-x="753" 
d="M524 -99q-29 0 -67.5 6.5t-80.5 18.5t-80.5 28.5t-67.5 37.5q-20 -9 -41 -14.5t-44 -5.5q-20 0 -48 7.5t-49.5 23.5t-21.5 41q0 31 26 46t52 15q46 0 83.5 -25t71.5 -52q32 27 67 76t73 114h-104q-3 0 -3 2q0 5 6.5 12t10.5 7h103q13 23 27 49q18 32 42.5 72t54.5 80
t64.5 74t72.5 55t79 21q26 0 49.5 -14t23.5 -43q0 -31 -20.5 -64.5t-49 -62t-51.5 -44.5q-5 -5 -12 -5q-5 0 -5 4q0 3 5 8q21 17 49 44.5t48.5 60t20.5 61.5q0 18 -10.5 25t-26.5 7q-36 0 -66 -16.5t-51.5 -38.5t-33.5 -40q-37 -55 -72 -118.5t-61 -114.5h100q3 0 3 -3
q0 -4 -7 -11t-12 -7h-95q-31 -61 -77.5 -113.5t-118.5 -93.5q9 -7 40 -22t70.5 -31.5t77.5 -28t61 -11.5q27 0 53.5 8t44 27t17.5 50q0 1 5.5 3t7.5 2q4 0 4 -8v-1q0 -35 -22 -57t-53.5 -31.5t-61.5 -9.5zM144 -14q35 0 68 19q-15 11 -40.5 29t-51 32.5t-43.5 14.5
q-10 0 -19 -7t-9 -21q0 -18 13 -32.5t31.5 -23t34.5 -10.5z" />
    <glyph glyph-name="currency" unicode="&#xa4;" horiz-adv-x="674" 
d="M61 72l121 141q-12 21 -12 49q0 32 12 59t34 49l-75 132l124 -95q21 11 45.5 18t47.5 7q21 0 42 -5.5t38 -19.5l160 92l-125 -133q11 -15 12.5 -30t0.5 -28q-1 -27 -14 -52t-31 -44l87 -138l-137 100q-43 -24 -91 -24q-21 0 -41.5 5.5t-40.5 17.5zM324 186q27 0 51.5 14
t39.5 38.5t15 56.5q0 43 -30.5 71t-68.5 28q-26 0 -49 -13.5t-38 -36.5t-16 -52q-2 -46 26.5 -76t69.5 -30z" />
    <glyph glyph-name="yen" unicode="&#xa5;" horiz-adv-x="626" 
d="M421 143q3 0 3 -3q0 -4 -7 -11t-12 -7h-89q-50 -66 -112 -107.5t-141 -41.5q-65 0 -63 52q3 24 18 40q17 18 37 18q15 0 24 -12q10 -13 7 -26q-4 -37 -40 -37q-19 0 -26 15q0 -28 43 -28q5 0 9.5 0.5t9.5 1.5q50 8 92.5 41.5t80.5 83.5h-96q-3 0 -3 2q0 5 6.5 12t10.5 7
h97q19 26 38 59h-111q-3 0 -3 2q0 5 6.5 12t10.5 7h100q1 49 -6 98t-17.5 89t-23.5 63q-36 68 -87 68q-32 0 -51 -21.5t-23.5 -54.5t5.5 -68q5 -13 -5.5 -15.5t-16.5 15.5q-13 39 -9 83.5t28 73.5q28 35 71 35q71 0 116 -95q41 -90 51 -230l10 18q53 100 95.5 175t89 117
t108.5 42q23 0 41 -9q3 -1 3 -6q-2 -10 -7 -7q-11 7 -30 7q-41 0 -72.5 -30t-58 -76.5t-50.5 -97.5q-21 -44 -43 -88t-46 -86h108q3 0 3 -3q0 -4 -7 -11t-12 -7h-105q-19 -32 -38 -59h89z" />
    <glyph glyph-name="brokenbar" unicode="&#xa6;" horiz-adv-x="466" 
d="M282 323l-43 5l182 424h45zM0 -233l194 454l43 -4l-192 -450h-45z" />
    <glyph glyph-name="section" unicode="&#xa7;" horiz-adv-x="527" 
d="M325 -57q-1 -46 -24.5 -81.5t-60.5 -59.5t-78 -36t-78 -12q-31 0 -63.5 10t-53 34.5t-16.5 66.5q2 16 10.5 33t23.5 30q20 19 51 29h7q7 0 7 -5q-2 -10 -20 -13q-21 -3 -34 -20t-16 -40t6.5 -46.5t33 -39t62.5 -15.5q26 0 57.5 10t61 29t49 47t20.5 63q1 37 -17.5 72
t-45.5 66t-53 57t-41 45q-28 36 -36 59.5t-7 54.5q1 28 16.5 63.5t51 68.5t98.5 53q-16 25 -25.5 52.5t-8.5 57.5q1 46 24.5 81.5t60 59.5t77.5 36t78 12q32 0 65 -10t54 -34t15 -67q-2 -16 -10.5 -32.5t-22.5 -30.5q-22 -19 -52 -29h-7q-7 0 -7 5q2 10 20 13q22 3 35 20
t17 40q2 23 -8 46.5t-33.5 39t-62.5 15.5q-26 0 -58 -10t-61 -29t-48 -47t-20 -63q-1 -37 17 -72t45 -66t53 -57t41 -45q29 -36 37 -59.5t7 -54.5q0 -28 -15.5 -63t-51.5 -68t-99 -54q15 -25 24.5 -52.5t8.5 -57.5zM155 205q12 -16 33.5 -36t46.5 -45t46 -55q52 18 78.5 46
t35.5 57t9 51q1 47 -31 91q-12 16 -33.5 36t-46.5 45t-46 55q-52 -19 -78 -46.5t-35.5 -56.5t-9.5 -51q-1 -47 31 -91z" />
    <glyph glyph-name="dieresis" unicode="&#xa8;" horiz-adv-x="226" 
d="M149 403q-13 0 -21.5 9.5t-8.5 22.5q0 17 13 29t29 12q14 0 23 -8.5t9 -21.5q0 -16 -13 -29.5t-31 -13.5zM37 403q-13 0 -21.5 9.5t-8.5 22.5q0 17 13 29t29 12q14 0 23 -8.5t9 -21.5q0 -16 -13 -29.5t-31 -13.5z" />
    <glyph glyph-name="copyright" unicode="&#xa9;" horiz-adv-x="721" 
d="M317 -16q-84 0 -150 33t-104 90t-38 128q0 8 0.5 15.5t1.5 14.5q6 62 39 116t85.5 96t117.5 65.5t135 23.5q85 0 152 -33.5t105.5 -90.5t38.5 -129q0 -7 -0.5 -14.5t-1.5 -15.5q-7 -61 -40.5 -115.5t-86 -95.5t-118 -64.5t-136.5 -23.5zM320 -3q61 0 118 22.5t103 61.5
t75.5 91t36.5 110q1 8 1.5 15t0.5 14q0 68 -33 122t-90.5 86t-130.5 32q-65 0 -125 -25.5t-106.5 -69.5t-73.5 -101t-27 -120q0 -67 32.5 -121t89 -85.5t129.5 -31.5zM312 125q-49 0 -69 24t-20 58q0 38 18 81.5t43 76.5q24 32 54 50.5t61 18.5q34 0 49 -17t12 -43
q-2 -18 -17 -35t-29 -17q-8 0 -13 5q8 8 16.5 21t11.5 23q3 11 3 19q0 24 -21 24q-24 0 -49.5 -24.5t-43.5 -50.5q-7 -10 -18.5 -32t-20 -48.5t-8.5 -52.5q0 -25 11.5 -46t39.5 -21q35 0 61 22t46 51q6 9 12 9t6 -8q0 -4 -3 -9q-22 -35 -52.5 -57t-79.5 -22z" />
    <glyph glyph-name="ordfeminine" unicode="&#xaa;" horiz-adv-x="428" 
d="M131 421q-14 0 -22.5 13t-8.5 32q0 20 10 46t33 54q14 17 36 28.5t43 11.5q27 0 41 -17q5 -5 5 -10q0 -4 -4.5 -7t-10.5 0q-3 16 -21 16q-17 0 -40.5 -22t-42.5 -54q-3 -4 -12 -23t-9 -34q0 -14 10 -14q14 0 32 21q14 16 24 34l20 36q8 14 15 24t20 10q8 0 13.5 -2
t12.5 -2l-1 -4q-7 -6 -18 -27t-20 -44.5t-9 -38.5q0 -8 4 -8q9 0 23 16.5t27.5 36.5t18.5 31q6 0 6 -8q-9 -18 -22 -40t-27.5 -37.5t-29.5 -17.5q-10 -1 -22 7t-12 31q0 5 1 11q-12 -17 -27 -31q-9 -10 -18.5 -14t-17.5 -4z" />
    <glyph glyph-name="guillemotleft" unicode="&#xab;" horiz-adv-x="616" 
d="M459 -2q-10 18 -34 49t-82 92q-5 1 -6 4t-1 6q3 8 24 33t64 71q43 45 65.5 67t39.5 39q14 14 28 14q13 0 8 -10q-1 -10 -44 -54t-121 -139q23 -46 47.5 -85.5t41.5 -74.5q-2 -6 -6 -10.5t-11 -4.5q-5 0 -13 3zM256 -2q-11 18 -35.5 49t-82.5 92q-4 1 -5 4t-1 6
q2 8 23.5 34t63.5 70q19 20 26 27.5t9.5 10l7 7t18.5 18t44 42.5q11 10 17 12.5t11 2.5q13 0 8 -10q-1 -10 -43.5 -54t-119.5 -139q22 -46 46 -85.5t41 -74.5q-4 -15 -16 -15q-4 0 -12 3z" />
    <glyph glyph-name="logicalnot" unicode="&#xac;" horiz-adv-x="812" 
d="M594 14q-9 0 -14 7.5t-4 14.5l40 193q-43 1 -87 1h-88q-87 0 -174.5 -0.5t-175.5 -0.5q-6 0 -13 3.5t-7 10.5q0 8 11.5 21t19.5 13h571l-51 -241q-5 -22 -28 -22z" />
    <glyph glyph-name="registered" unicode="&#xae;" horiz-adv-x="721" 
d="M317 -16q-84 0 -150 33t-104 90t-38 128q0 8 0.5 15.5t1.5 14.5q6 62 39 116t85.5 96t117.5 65.5t135 23.5q85 0 152 -33.5t105.5 -90.5t38.5 -129q0 -7 -0.5 -14.5t-1.5 -15.5q-7 -61 -40.5 -115.5t-86 -95.5t-118 -64.5t-136.5 -23.5zM320 -3q61 0 118 22.5t103 61.5
t75.5 91t36.5 110q1 8 1.5 15t0.5 14q0 68 -33 122t-90.5 86t-130.5 32q-65 0 -125 -25.5t-106.5 -69.5t-73.5 -101t-27 -120q0 -67 32.5 -121t89 -85.5t129.5 -31.5zM199 126q-40 0 -58 13.5t-18 30.5q0 16 14.5 28.5t39.5 12.5q17 0 37 -7q4 -1 3.5 -4t-5.5 -2q-7 3 -13 4
t-12 1q-17 0 -26.5 -10t-9.5 -22t10.5 -22t31.5 -10q35 0 62.5 22t51.5 56.5t45 72.5q26 45 50 88t50 72q-10 1 -21.5 1.5t-22.5 0.5q-53 0 -112 -12q-60 -12 -90.5 -43t-30.5 -59q0 -22 14.5 -34t33.5 -12q25 0 44 19q16 18 16 27q0 8 2.5 3.5t2.5 -3.5q-5 -23 -16 -34
q-24 -24 -56 -24q-24 0 -42.5 15.5t-18.5 46.5q0 23 16 47t48 43t81 26q48 6 90 6q19 0 37 -1t34 -3q10 11 14 11q3 0 3 -4q0 -1 -0.5 -3.5t-1.5 -5.5q11 -3 21.5 -4.5t19.5 -3.5q35 -10 51.5 -26.5t16.5 -34.5q0 -25 -31 -49t-89 -34q-18 -3 -33.5 -4.5t-22.5 -1.5
q1 -6 5.5 -26.5t14.5 -47t25 -50.5q11 -16 21 -25t21 -9q15 0 31 16q15 15 24.5 34.5t14.5 29.5q3 6 7 5.5t1 -6.5t-9.5 -20.5t-15.5 -29.5t-18 -25q-18 -20 -47 -20q-32 0 -53 23q-19 20 -28 47.5t-12.5 53t-5.5 38.5q-19 -37 -34.5 -62.5t-40.5 -52.5q-23 -25 -51.5 -36
t-59.5 -11zM406 314q10 0 22.5 1.5t25.5 2.5q26 4 48 17t35 30.5t13 33.5q0 28 -35 39q-7 2 -16.5 3.5t-20.5 3.5q-18 -33 -36.5 -64.5t-35.5 -66.5z" />
    <glyph glyph-name="macron" unicode="&#xaf;" horiz-adv-x="221" 
d="M20 431q0 9 7.5 20t26.5 15l147 2q0 -5 -4.5 -18.5t-19.5 -18.5h-157z" />
    <glyph glyph-name="degree" unicode="&#xb0;" horiz-adv-x="324" 
d="M146 495q-30 0 -45.5 17t-15.5 42q0 28 15 49t37.5 33t42.5 12q29 0 45.5 -17.5t16.5 -43.5q0 -22 -12.5 -43t-34.5 -35t-49 -14zM151 514q17 0 29.5 12.5t19.5 30.5t7 35q0 15 -7 25.5t-22 10.5q-16 0 -29.5 -12.5t-21.5 -30t-8 -34.5q0 -15 7.5 -26t24.5 -11z" />
    <glyph glyph-name="plusminus" unicode="&#xb1;" horiz-adv-x="361" 
d="M161 119l35 109h-103q-4 0 -4 3q0 7 5 16t21 9h91l28 87q6 15 14.5 18t17.5 -1q5 0 3 -7l-33 -97h98q5 0 5 -4q0 -10 -6 -17t-21 -7h-85l-34 -98q-5 -18 -15 -18t-16 1q-3 3 -1 6zM58 12q-4 0 -4 3q0 7 5 16t21 9h219q5 0 5 -4q0 -10 -6 -17t-21 -7h-219z" />
    <glyph glyph-name="uni00B2" unicode="&#xb2;" horiz-adv-x="287" 
d="M103 412q-7 0 -7 6q0 4 4 8q20 16 49 38.5t45 37.5q19 18 42.5 42t44.5 50t35 51.5t14 47.5q0 26 -23 26q-29 0 -49.5 -25.5t-34.5 -54.5q-2 -5 -5.5 -6.5t-5.5 -1.5q-10 0 -7 10q9 26 26 49.5t41 39t54 15.5q24 0 40 -13t16 -37q0 -22 -20.5 -50t-51 -57t-61 -55
t-50.5 -44l-7 -6q8 -10 26.5 -18.5t34.5 -8.5q17 0 34.5 11.5t26.5 22.5q10 11 13 11q6 0 6 -5t-7 -13q-9 -12 -23 -27t-30 -26t-32 -12q-27 -1 -51.5 8t-38.5 18l-36 -27q-2 -1 -5 -3t-7 -2z" />
    <glyph glyph-name="uni00B3" unicode="&#xb3;" horiz-adv-x="258" 
d="M162 417q-24 0 -38 8t-21 22q-2 5 -2.5 7.5t-0.5 3.5q0 4 4 4q5 0 8 -7q5 -10 16 -17t29 -7q31 0 57.5 21t43.5 51t17 56q0 14 -7 23.5t-20 9.5q-9 0 -22.5 -6t-25.5 -6q-8 0 -8 5q0 4 5 6q22 5 49.5 20.5t48 38t20.5 46.5q0 20 -22 20q-19 0 -37 -13.5t-31 -27.5
q-5 -5 -9 -5q-5 0 -5 5q0 3 7 11q16 19 42 38.5t59 19.5q20 0 34.5 -9t14.5 -29q0 -24 -16.5 -43.5t-40 -33.5t-45.5 -23q21 -2 38.5 -14t17.5 -37q0 -34 -25 -66t-62 -52t-73 -20z" />
    <glyph glyph-name="acute" unicode="&#xb4;" horiz-adv-x="183" 
d="M37 397q-7 0 -12 2t-5 7q31 29 61 59.5t59 61.5q8 0 15.5 -8.5t7.5 -33.5q-9 -8 -26 -20.5t-36.5 -26.5t-37 -25t-26.5 -16z" />
    <glyph glyph-name="uni00B5" unicode="&#xb5;" horiz-adv-x="326" 
d="M-91 -265q-7 0 -17.5 1.5t-17.5 4.5q-1 2 -3 3t-1 3l194 380q26 50 50 100t55 96h3q7 -5 16 -5q11 0 25 7t23 14l1 -1q-15 -17 -26.5 -37.5t-22.5 -40.5q-7 -13 -17 -30.5t-29 -49.5q-10 -17 -24 -44.5t-24.5 -55.5t-10.5 -48q0 -12 5.5 -20t18.5 -8q22 0 45.5 21
t45.5 51t39.5 59.5t26.5 45.5q23 40 42 76t34 73h3q5 -3 12 -5.5t14 -2.5q9 0 17.5 5.5t12.5 14.5h3l-79 -153q-7 -13 -18.5 -35.5t-23 -47t-19 -47t-7.5 -37.5q0 -8 3.5 -14.5t13.5 -6.5q21 0 42 19t40 47t33 55t20 42h6l2 -3q-8 -19 -22.5 -47.5t-34 -56t-42 -46.5
t-47.5 -19t-38.5 16.5t-13.5 41.5q0 26 11 53q-12 -19 -32.5 -45t-45.5 -45.5t-51 -19.5q-31 0 -47 29l-130 -283q-1 -3 -5.5 -3.5t-7.5 -0.5z" />
    <glyph glyph-name="paragraph" unicode="&#xb6;" horiz-adv-x="405" 
d="M163 0l120 328q-54 0 -84 18.5t-41.5 46.5t-11.5 55q0 26 12 59q17 45 51.5 81t83.5 55q26 10 59 12t82 2h173l-17 -50h-20l-223 -607h-37l228 625h-108l-230 -625h-37z" />
    <glyph glyph-name="periodcentered" unicode="&#xb7;" horiz-adv-x="254" 
d="M185 196q-13 0 -22 8.5t-9 21.5q0 18 14 30.5t30 12.5q14 0 23 -8t9 -22q0 -19 -13.5 -31t-31.5 -12z" />
    <glyph glyph-name="cedilla" unicode="&#xb8;" horiz-adv-x="201" 
d="M82 -219q-39 0 -60.5 17t-21.5 30q0 11 6 11q10 -10 24.5 -23t44.5 -13q29 0 56.5 21.5t27.5 58.5q0 20 -12 29.5t-27 9.5q-23 0 -33.5 -10.5l-15.5 -15.5q-5 0 -14.5 6t-9.5 11q8 10 20.5 25t26 30.5t23 26t11.5 10.5q3 0 7.5 -2.5t4.5 -4.5q-2 -2 -9.5 -13.5t-16 -24.5
t-15.5 -23q13 8 42 8q24 0 46.5 -15t22.5 -46q0 -25 -18 -48.5t-47 -39t-63 -15.5z" />
    <glyph glyph-name="uni00B9" unicode="&#xb9;" horiz-adv-x="238" 
d="M145 423l134 249q-13 -10 -32.5 -22t-35 -20.5t-18.5 -8.5q-4 0 -4 4q0 3 5 7q34 23 55.5 43.5t40.5 41.5q14 16 23 22t14 7t8.5 1h5.5q8 0 8 -6q0 -3 -3 -9q-40 -73 -76.5 -151t-77.5 -152q-3 -6 -13.5 -8.5t-18.5 -2.5q-15 0 -15 5z" />
    <glyph glyph-name="ordmasculine" unicode="&#xba;" horiz-adv-x="316" 
d="M199 607q22 0 32.5 -15t10.5 -37q0 -30 -18 -64q6 -4 15 -4q13 0 22.5 9t19.5 32q11 1 11 -8q-19 -47 -57 -46q-10 0 -18 5q-14 -22 -33.5 -37.5t-40.5 -15.5q-22 0 -32.5 15.5t-10.5 37.5q0 20 8 42q12 35 38.5 60.5t52.5 25.5zM222 545q1 4 1 7.5v6.5q0 26 -16 26
t-32 -19t-27 -45q-13 -32 -13 -53q0 -25 15 -25q16 0 32 18.5t23 31.5q-8 14 -9.5 21.5t-1.5 11.5q0 11 5.5 16.5t12.5 5.5q6 0 10 -3z" />
    <glyph glyph-name="guillemotright" unicode="&#xbb;" horiz-adv-x="603" 
d="M318 -9q-12 0 -8 11q2 9 45 53.5t120 138.5q-22 46 -46 86t-43 74q2 6 6.5 10.5t11.5 4.5q3 0 6 -0.5t6 -1.5l20 -30t35.5 -44.5t62.5 -66.5q4 -1 4.5 -4.5t0.5 -7.5q-3 -6 -20.5 -27.5t-67.5 -74.5q-36 -39 -63 -65.5t-42 -41.5q-14 -14 -28 -14zM114 -9q-4 0 -7.5 2.5
t-0.5 8.5q2 9 45 53.5t119 138.5q-22 46 -46 86t-41 74q2 6 6 10.5t11 4.5q3 0 6 -0.5t6 -1.5q7 -12 19 -30t35.5 -44.5t62.5 -66.5q4 -1 4.5 -4.5t0.5 -7.5q-2 -8 -26 -35.5t-61 -66.5q-40 -42 -64 -67.5t-40 -39.5q-6 -5 -15 -9.5t-14 -4.5z" />
    <glyph glyph-name="onequarter" unicode="&#xbc;" horiz-adv-x="523" 
d="M105 317l134 249q-13 -10 -32.5 -22t-35 -20.5t-18.5 -8.5q-4 0 -4 4q0 3 5 7q34 23 55.5 43.5t40.5 41.5q14 16 23 22t14 7t8.5 1h5.5q8 0 8 -6q0 -3 -3 -9q-40 -73 -76.5 -151t-77.5 -152q-3 -6 -13.5 -8.5t-18.5 -2.5q-15 0 -15 5zM67 4q-10 -10 -18 -10q-6 0 -6 3
q0 4 6 11q38 42 84.5 98t96.5 118.5t98.5 124t89.5 114.5t70 91.5t40 53.5q5 7 13 9.5t16 2.5q7 0 12 -2t5 -7t-7 -12q-22 -27 -59 -73t-83 -104t-96 -119t-99 -119t-91 -105t-72 -75zM393 -3q15 32 30 62.5t22 45.5l-126 -3l4 17q20 29 42.5 52t41.5 45q20 23 38.5 46
t34.5 48q8 12 22 16.5t27 4.5q17 0 24 -5q-1 -5 -18 -24t-43 -44t-53 -50t-47 -43q-10 -9 -18 -15.5t-19 -23.5l104 3q8 17 14 30t18 38q5 8 18 13t22 5q16 0 11 -12q-1 -3 -7.5 -17t-14 -29.5t-12.5 -25.5h15q7 0 7 -7q0 -4 -4.5 -10t-15.5 -7h-14l-50 -104q-1 -2 -14 -5
t-26 -3q-7 0 -13 2z" />
    <glyph glyph-name="onehalf" unicode="&#xbd;" horiz-adv-x="531" 
d="M105 317l134 249q-13 -10 -32.5 -22t-35 -20.5t-18.5 -8.5q-4 0 -4 4q0 3 5 7q34 23 55.5 43.5t40.5 41.5q14 16 23 22t14 7t8.5 1h5.5q8 0 8 -6q0 -3 -3 -9q-40 -73 -76.5 -151t-77.5 -152q-3 -6 -13.5 -8.5t-18.5 -2.5q-15 0 -15 5zM67 4q-10 -10 -18 -10q-6 0 -6 3
q0 4 6 11q38 42 84.5 98t96.5 118.5t98.5 124t89.5 114.5t70 91.5t40 53.5q5 7 13 9.5t16 2.5q7 0 12 -2t5 -7t-7 -12q-22 -27 -59 -73t-83 -104t-96 -119t-99 -119t-91 -105t-72 -75zM305 -4q-7 0 -7 6q0 4 4 8q20 16 49 38.5t45 37.5q19 18 42.5 42t44.5 50t35 51.5
t14 47.5q0 26 -23 26q-29 0 -49.5 -25.5t-34.5 -54.5q-2 -5 -5.5 -6.5t-5.5 -1.5q-10 0 -7 10q9 26 26 49.5t41 39t54 15.5q24 0 40 -13t16 -37q0 -22 -20.5 -50t-51 -57t-61 -55t-50.5 -44l-7 -6q8 -10 26.5 -18.5t34.5 -8.5q17 0 34.5 11.5t26.5 22.5q10 11 13 11
q6 0 6 -5t-7 -13q-9 -12 -23 -27t-30 -26t-32 -12q-27 -1 -51.5 8t-38.5 18l-36 -27q-2 -1 -5 -3t-7 -2z" />
    <glyph glyph-name="threequarters" unicode="&#xbe;" horiz-adv-x="543" 
d="M117 313q-24 0 -38 8t-21 22q-2 5 -2.5 7.5t-0.5 3.5q0 4 4 4q5 0 8 -7q5 -10 16 -17t29 -7q31 0 57.5 21t43.5 51t17 56q0 14 -7 23.5t-20 9.5q-9 0 -22.5 -6t-25.5 -6q-8 0 -8 5q0 4 5 6q22 5 49.5 20.5t48 38t20.5 46.5q0 20 -22 20q-19 0 -37 -13.5t-31 -27.5
q-5 -5 -9 -5q-5 0 -5 5q0 3 7 11q16 19 42 38.5t59 19.5q20 0 34.5 -9t14.5 -29q0 -24 -16.5 -43.5t-40 -33.5t-45.5 -23q21 -2 38.5 -14t17.5 -37q0 -34 -25 -66t-62 -52t-73 -20zM87 4q-10 -10 -18 -10q-6 0 -6 3q0 4 6 11q38 42 84.5 98t96.5 118.5t98.5 124t89.5 114.5
t70 91.5t40 53.5q5 7 13 9.5t16 2.5q7 0 12 -2t5 -7t-7 -12q-22 -27 -59 -73t-83 -104t-96 -119t-99 -119t-91 -105t-72 -75zM413 -3q15 32 30 62.5t22 45.5l-126 -3l4 17q20 29 42.5 52t41.5 45q20 23 38.5 46t34.5 48q8 12 22 16.5t27 4.5q17 0 24 -5q-1 -5 -18 -24
t-43 -44t-53 -50t-47 -43q-10 -9 -18 -15.5t-19 -23.5l104 3q8 17 14 30t18 38q5 8 18 13t22 5q16 0 11 -12q-1 -3 -7.5 -17t-14 -29.5t-12.5 -25.5h15q7 0 7 -7q0 -4 -4.5 -10t-15.5 -7h-14l-50 -104q-1 -2 -14 -5t-26 -3q-7 0 -13 2z" />
    <glyph glyph-name="questiondown" unicode="&#xbf;" horiz-adv-x="414" 
d="M330 255q-15 0 -25 9.5t-10 24.5q0 20 15 34.5t34 14.5q16 0 25.5 -10t9.5 -25q0 -19 -15.5 -33.5t-33.5 -14.5zM210 -297q-28 -16 -55.5 -23.5t-52.5 -7.5q-40 0 -67.5 19.5t-27.5 56.5q0 25 15.5 57.5t49.5 71.5q33 37 65 67.5t61.5 61.5t54.5 68t44 88q3 7 10 7
q5 0 8 -3.5t1 -9.5q-12 -50 -46 -102.5t-76 -104t-79 -98.5q-19 -23 -27 -43t-8 -37q0 -26 19.5 -40.5t48.5 -14.5q16 0 33 4t35 13q23 11 41 31.5t15 38.5q-3 -12 -13 -21t-22 -15q-15 -8 -29 -8q-16 0 -25 11t-9 26q0 11 5.5 22.5t17.5 20.5q21 17 44 17q21 0 35.5 -14.5
t14.5 -38.5q0 -16 -7 -33q-10 -22 -32 -38.5t-42 -28.5z" />
    <glyph glyph-name="Agrave" unicode="&#xc0;" horiz-adv-x="716" 
d="M545 -64q-44 0 -62 34.5t-18 80.5q0 41 11.5 81t27.5 61q-27 -32 -67 -73t-88 -79t-99 -63t-101 -25q-66 0 -98.5 42t-32.5 115q0 57 19.5 122.5t57.5 133.5q18 33 40.5 65.5t48.5 61.5q-31 15 -60 33.5t-47 44.5t-18 62q0 19 8.5 34.5t18.5 15.5q9 0 9 -11q0 -7 -4 -15
q-5 -13 -5 -24q0 -27 19 -50.5t46 -40.5t50 -27q64 70 140.5 129.5t164.5 95.5t185 36q81 0 127 -35.5t46 -91.5q0 -50 -28.5 -85.5t-74.5 -59t-99.5 -37t-105.5 -19t-91 -5.5q-57 0 -110.5 7t-106.5 22q-26 -37 -56.5 -85.5t-58 -102t-45 -106t-17.5 -97.5q0 -49 23 -73.5
t62 -24.5q47 0 99.5 28.5t105.5 74.5t101 100t86 107t60 94q17 32 33 45.5t27 13.5t17 -8.5t6 -22.5q0 -28 -25 -56q-34 -39 -66 -94.5t-52 -116t-20 -113.5q0 -37 11.5 -53t30.5 -16q29 0 58.5 19.5t56.5 52.5t50 73.5t40 81.5q5 0 8.5 -1t3.5 -8q-17 -43 -40.5 -87
t-53.5 -80.5t-67 -58.5t-81 -22zM456 467q40 0 89 4.5t97.5 16.5t89.5 34t66 56t25 83q0 44 -36.5 67t-92.5 23q-93 0 -169.5 -36.5t-140 -95.5t-120.5 -127q44 -13 90.5 -19t101.5 -6zM782 811q-10 11 -30 33.5t-38 45.5t-24 36q8 23 17 27.5t16 1.5l76 -142q-1 -4 -6 -3.5
t-11 1.5z" />
    <glyph glyph-name="Aacute" unicode="&#xc1;" horiz-adv-x="716" 
d="M545 -64q-44 0 -62 34.5t-18 80.5q0 41 11.5 81t27.5 61q-27 -32 -67 -73t-88 -79t-99 -63t-101 -25q-66 0 -98.5 42t-32.5 115q0 57 19.5 122.5t57.5 133.5q18 33 40.5 65.5t48.5 61.5q-31 15 -60 33.5t-47 44.5t-18 62q0 19 8.5 34.5t18.5 15.5q9 0 9 -11q0 -7 -4 -15
q-5 -13 -5 -24q0 -27 19 -50.5t46 -40.5t50 -27q64 70 140.5 129.5t164.5 95.5t185 36q81 0 127 -35.5t46 -91.5q0 -50 -28.5 -85.5t-74.5 -59t-99.5 -37t-105.5 -19t-91 -5.5q-57 0 -110.5 7t-106.5 22q-26 -37 -56.5 -85.5t-58 -102t-45 -106t-17.5 -97.5q0 -49 23 -73.5
t62 -24.5q47 0 99.5 28.5t105.5 74.5t101 100t86 107t60 94q17 32 33 45.5t27 13.5t17 -8.5t6 -22.5q0 -28 -25 -56q-34 -39 -66 -94.5t-52 -116t-20 -113.5q0 -37 11.5 -53t30.5 -16q29 0 58.5 19.5t56.5 52.5t50 73.5t40 81.5q5 0 8.5 -1t3.5 -8q-17 -43 -40.5 -87
t-53.5 -80.5t-67 -58.5t-81 -22zM456 467q40 0 89 4.5t97.5 16.5t89.5 34t66 56t25 83q0 44 -36.5 67t-92.5 23q-93 0 -169.5 -36.5t-140 -95.5t-120.5 -127q44 -13 90.5 -19t101.5 -6zM746 823q-7 2 -12.5 4.5t-5.5 9.5q39 26 79 57t76 61q8 0 15.5 -9t5.5 -34
q-10 -7 -31.5 -20t-46.5 -26.5t-46.5 -25t-33.5 -17.5z" />
    <glyph glyph-name="Acircumflex" unicode="&#xc2;" horiz-adv-x="716" 
d="M545 -64q-44 0 -62 34.5t-18 80.5q0 41 11.5 81t27.5 61q-27 -32 -67 -73t-88 -79t-99 -63t-101 -25q-66 0 -98.5 42t-32.5 115q0 57 19.5 122.5t57.5 133.5q18 33 40.5 65.5t48.5 61.5q-31 15 -60 33.5t-47 44.5t-18 62q0 19 8.5 34.5t18.5 15.5q9 0 9 -11q0 -7 -4 -15
q-5 -13 -5 -24q0 -27 19 -50.5t46 -40.5t50 -27q64 70 140.5 129.5t164.5 95.5t185 36q81 0 127 -35.5t46 -91.5q0 -50 -28.5 -85.5t-74.5 -59t-99.5 -37t-105.5 -19t-91 -5.5q-57 0 -110.5 7t-106.5 22q-26 -37 -56.5 -85.5t-58 -102t-45 -106t-17.5 -97.5q0 -49 23 -73.5
t62 -24.5q47 0 99.5 28.5t105.5 74.5t101 100t86 107t60 94q17 32 33 45.5t27 13.5t17 -8.5t6 -22.5q0 -28 -25 -56q-34 -39 -66 -94.5t-52 -116t-20 -113.5q0 -37 11.5 -53t30.5 -16q29 0 58.5 19.5t56.5 52.5t50 73.5t40 81.5q5 0 8.5 -1t3.5 -8q-17 -43 -40.5 -87
t-53.5 -80.5t-67 -58.5t-81 -22zM456 467q40 0 89 4.5t97.5 16.5t89.5 34t66 56t25 83q0 44 -36.5 67t-92.5 23q-93 0 -169.5 -36.5t-140 -95.5t-120.5 -127q44 -13 90.5 -19t101.5 -6zM835 950q14 0 18 -4l44 -104q0 -1 0.5 -1.5l0.5 -0.5q0 -3 -8 -3q-4 0 -9.5 1.5
t-7.5 3.5l-56 57l-126 -57q-7 -6 -22 -6q-5 0 -9 2t-1 4l148 104q5 2 11.5 3t16.5 1z" />
    <glyph glyph-name="Atilde" unicode="&#xc3;" horiz-adv-x="716" 
d="M545 -64q-44 0 -62 34.5t-18 80.5q0 41 11.5 81t27.5 61q-27 -32 -67 -73t-88 -79t-99 -63t-101 -25q-66 0 -98.5 42t-32.5 115q0 57 19.5 122.5t57.5 133.5q18 33 40.5 65.5t48.5 61.5q-31 15 -60 33.5t-47 44.5t-18 62q0 19 8.5 34.5t18.5 15.5q9 0 9 -11q0 -7 -4 -15
q-5 -13 -5 -24q0 -27 19 -50.5t46 -40.5t50 -27q64 70 140.5 129.5t164.5 95.5t185 36q81 0 127 -35.5t46 -91.5q0 -50 -28.5 -85.5t-74.5 -59t-99.5 -37t-105.5 -19t-91 -5.5q-57 0 -110.5 7t-106.5 22q-26 -37 -56.5 -85.5t-58 -102t-45 -106t-17.5 -97.5q0 -49 23 -73.5
t62 -24.5q47 0 99.5 28.5t105.5 74.5t101 100t86 107t60 94q17 32 33 45.5t27 13.5t17 -8.5t6 -22.5q0 -28 -25 -56q-34 -39 -66 -94.5t-52 -116t-20 -113.5q0 -37 11.5 -53t30.5 -16q29 0 58.5 19.5t56.5 52.5t50 73.5t40 81.5q5 0 8.5 -1t3.5 -8q-17 -43 -40.5 -87
t-53.5 -80.5t-67 -58.5t-81 -22zM456 467q40 0 89 4.5t97.5 16.5t89.5 34t66 56t25 83q0 44 -36.5 67t-92.5 23q-93 0 -169.5 -36.5t-140 -95.5t-120.5 -127q44 -13 90.5 -19t101.5 -6zM921 909q-11 -24 -32.5 -48t-51.5 -24q-21 0 -40.5 9t-39 17.5t-39.5 8.5
q-15 0 -26 -8.5t-17 -20.5q-1 -3 -9 -3q-14 0 -12 5q12 22 33 44.5t51 22.5q22 0 41.5 -8t39 -16.5t39.5 -8.5q16 0 26.5 9t17.5 23q2 3 8 3q5 0 8.5 -1.5t2.5 -3.5z" />
    <glyph glyph-name="Adieresis" unicode="&#xc4;" horiz-adv-x="716" 
d="M545 -64q-44 0 -62 34.5t-18 80.5q0 41 11.5 81t27.5 61q-27 -32 -67 -73t-88 -79t-99 -63t-101 -25q-66 0 -98.5 42t-32.5 115q0 57 19.5 122.5t57.5 133.5q18 33 40.5 65.5t48.5 61.5q-31 15 -60 33.5t-47 44.5t-18 62q0 19 8.5 34.5t18.5 15.5q9 0 9 -11q0 -7 -4 -15
q-5 -13 -5 -24q0 -27 19 -50.5t46 -40.5t50 -27q64 70 140.5 129.5t164.5 95.5t185 36q81 0 127 -35.5t46 -91.5q0 -50 -28.5 -85.5t-74.5 -59t-99.5 -37t-105.5 -19t-91 -5.5q-57 0 -110.5 7t-106.5 22q-26 -37 -56.5 -85.5t-58 -102t-45 -106t-17.5 -97.5q0 -49 23 -73.5
t62 -24.5q47 0 99.5 28.5t105.5 74.5t101 100t86 107t60 94q17 32 33 45.5t27 13.5t17 -8.5t6 -22.5q0 -28 -25 -56q-34 -39 -66 -94.5t-52 -116t-20 -113.5q0 -37 11.5 -53t30.5 -16q29 0 58.5 19.5t56.5 52.5t50 73.5t40 81.5q5 0 8.5 -1t3.5 -8q-17 -43 -40.5 -87
t-53.5 -80.5t-67 -58.5t-81 -22zM456 467q40 0 89 4.5t97.5 16.5t89.5 34t66 56t25 83q0 44 -36.5 67t-92.5 23q-93 0 -169.5 -36.5t-140 -95.5t-120.5 -127q44 -13 90.5 -19t101.5 -6zM834 829q-13 0 -22 10t-9 23q0 17 14 30t30 13q14 0 23.5 -9t9.5 -22q0 -17 -13.5 -31
t-32.5 -14zM717 829q-13 0 -22 10t-9 23q0 17 14 30t30 13q14 0 23.5 -9t9.5 -22q0 -17 -13.5 -31t-32.5 -14z" />
    <glyph glyph-name="Aring" unicode="&#xc5;" horiz-adv-x="716" 
d="M545 -64q-44 0 -62 34.5t-18 80.5q0 41 11.5 81t27.5 61q-27 -32 -67 -73t-88 -79t-99 -63t-101 -25q-66 0 -98.5 42t-32.5 115q0 57 19.5 122.5t57.5 133.5q18 33 40.5 65.5t48.5 61.5q-31 15 -60 33.5t-47 44.5t-18 62q0 19 8.5 34.5t18.5 15.5q9 0 9 -11q0 -7 -4 -15
q-5 -13 -5 -24q0 -27 19 -50.5t46 -40.5t50 -27q64 70 140.5 129.5t164.5 95.5t185 36q81 0 127 -35.5t46 -91.5q0 -50 -28.5 -85.5t-74.5 -59t-99.5 -37t-105.5 -19t-91 -5.5q-57 0 -110.5 7t-106.5 22q-26 -37 -56.5 -85.5t-58 -102t-45 -106t-17.5 -97.5q0 -49 23 -73.5
t62 -24.5q47 0 99.5 28.5t105.5 74.5t101 100t86 107t60 94q17 32 33 45.5t27 13.5t17 -8.5t6 -22.5q0 -28 -25 -56q-34 -39 -66 -94.5t-52 -116t-20 -113.5q0 -37 11.5 -53t30.5 -16q29 0 58.5 19.5t56.5 52.5t50 73.5t40 81.5q5 0 8.5 -1t3.5 -8q-17 -43 -40.5 -87
t-53.5 -80.5t-67 -58.5t-81 -22zM456 467q40 0 89 4.5t97.5 16.5t89.5 34t66 56t25 83q0 44 -36.5 67t-92.5 23q-93 0 -169.5 -36.5t-140 -95.5t-120.5 -127q44 -13 90.5 -19t101.5 -6zM777 838q-28 0 -49 15t-18 45q3 29 23 49.5t47.5 31.5t53.5 11q29 0 49 -14t17 -46
q-3 -27 -22 -48t-46 -32.5t-55 -11.5zM790 856q20 0 41.5 20t24.5 49q2 25 -7.5 36t-25.5 11q-21 0 -43 -18.5t-26 -50.5q-2 -22 9 -34.5t27 -12.5z" />
    <glyph glyph-name="AE" unicode="&#xc6;" horiz-adv-x="1380" 
d="M829 -115q-116 0 -192.5 33t-114 85.5t-37.5 112.5q0 36 12 70q-27 -32 -66.5 -72t-86.5 -77t-96.5 -61t-97.5 -24q-30 0 -59 12q-37 15 -55 53.5t-18 92.5q0 57 19.5 122.5t57.5 133.5q18 33 40.5 65.5t48.5 61.5q-31 14 -57 31.5t-44 38.5q-12 14 -18 33t-6 37
q0 32 15 42q5 8 12 8q9 0 9 -11q0 -7 -4 -15q-5 -13 -5 -24q0 -16 8 -29.5t19 -25.5q32 -38 88 -63q64 70 140.5 129.5t164.5 95.5t185 36q49 0 85.5 -13.5t58.5 -36.5q66 39 145.5 60t148.5 21h19.5t23.5 -2q90 -10 132 -44t42 -74q0 -44 -46 -86.5t-129 -61.5
q-9 -2 -16.5 -3t-12.5 -1q-14 0 -14 5q0 4 10.5 10.5t28.5 7.5q30 3 56.5 23.5t42.5 50t16 58.5q0 32 -25.5 58t-88.5 32q-9 1 -18.5 1.5t-18.5 0.5q-72 0 -146 -25t-129 -67q5 -10 6.5 -20t1.5 -21q0 -31 -20.5 -67t-68.5 -67q9 -35 36.5 -54.5t63 -29.5t68.5 -17
t53.5 -17.5t17.5 -30.5q-3 -12 -18.5 -16t-40.5 -4q-19 0 -41 1t-48 1q-31 0 -64.5 -3t-67.5 -13q-52 -15 -91 -50t-60 -81t-21 -93q0 -51 27.5 -96.5t87 -74t154.5 -28.5q82 0 161.5 22t146.5 55.5t109 68.5q35 29 55.5 61.5t20.5 54.5q0 28 -31 35q-29 7 -29 15q0 6 12 6
q13 0 28 -7q55 -27 55 -73q0 -28 -19.5 -59t-55.5 -62q-49 -42 -121.5 -73.5t-158 -49.5t-175.5 -18zM436 467q52 0 116 6q41 3 78 11.5t67 20.5q-4 11 -4 26q0 53 32 98.5t82 79.5q-15 20 -45 31t-68 11q-93 0 -169.5 -36.5t-140 -95.5t-120.5 -127q76 -25 172 -25z
M772 552q51 48 51 107q-21 -22 -34.5 -48t-15.5 -55zM156 -17q38 0 86.5 22t101.5 66t103.5 99t92.5 112t68 105q17 32 33 45.5t27 13.5t17 -8.5t6 -22.5q0 -12 -5.5 -27t-19.5 -29q-3 -3 -5 -8q15 8 32 15t33 11q27 8 54.5 12.5t52.5 5.5q-34 11 -69.5 34t-55.5 54
q-39 -16 -77.5 -23t-78.5 -11q-28 -2 -44.5 -3.5t-30 -2t-32.5 -0.5q-52 0 -100.5 7t-96.5 22q-18 -25 -45.5 -68t-54.5 -92t-45 -93q-16 -42 -24 -76.5t-8 -61.5q0 -49 23 -73.5t62 -24.5z" />
    <glyph glyph-name="Ccedilla" unicode="&#xc7;" horiz-adv-x="714" 
d="M371 -107q-91 0 -161.5 36.5t-110 108t-39.5 175.5q0 62 16 124t43.5 119t61.5 105q-15 60 -15 130q0 53 12 101q4 14 14 14q8 0 7 -10q-3 -20 -5 -42.5t-2 -53.5q0 -58 11 -110q10 13 20 24q41 45 97 84.5t124.5 63.5t145.5 24q72 0 132 -26.5t96.5 -76t36.5 -119.5
q0 -44 -23.5 -90t-67 -84.5t-105 -62.5t-137.5 -24q-100 0 -183 44t-129 134q-40 -71 -59 -144t-19 -139q0 -96 32 -156t88.5 -88.5t129.5 -28.5q130 0 228.5 65.5t162.5 202.5q12 0 12 -9q-62 -148 -169.5 -219.5t-244.5 -71.5zM253 548q-13 -18 -25 -37q35 -82 107 -132
t181 -50q69 0 123.5 21t92 56t57.5 77.5t20 85.5q0 53 -28.5 93t-77.5 62.5t-111 22.5t-124.5 -26t-118 -71t-96.5 -102zM303 -316q-39 0 -60.5 17t-21.5 30q0 11 6 11q10 -10 24.5 -23t44.5 -13q29 0 56.5 21.5t27.5 58.5q0 20 -12 29.5t-27 9.5q-23 0 -33.5 -10.5
l-15.5 -15.5q-5 0 -14.5 6t-9.5 11q8 10 20.5 25t26 30.5t23 26t11.5 10.5q3 0 7.5 -2.5t4.5 -4.5q-2 -2 -9.5 -13.5t-16 -24.5t-15.5 -23q13 8 42 8q24 0 46.5 -15t22.5 -46q0 -25 -18 -48.5t-47 -39t-63 -15.5z" />
    <glyph glyph-name="Egrave" unicode="&#xc8;" horiz-adv-x="819" 
d="M326 -59q-104 0 -171.5 29t-100 76t-32.5 100q0 60 31 109t81.5 85t111.5 57t120 24q-52 19 -84.5 52.5t-32.5 73.5q0 41 25.5 78.5t68.5 69t97.5 54.5t113.5 35.5t114 12.5q89 0 142 -30t53 -77q0 -43 -46.5 -85t-128.5 -60q-16 -3 -21 -3q-11 0 -11 9q0 3 3.5 4.5
t15.5 5.5q59 20 94 56.5t35 77.5q0 35 -33.5 56.5t-100.5 21.5q-60 0 -121 -17t-112 -48t-82 -71t-31 -87q0 -34 20 -55t51 -33.5t64.5 -20t61.5 -16.5q10 -3 13 -8t3 -10q0 -13 -14.5 -22t-40.5 -9q-16 0 -35.5 0.5t-41.5 0.5q-31 0 -65.5 -3t-75.5 -16q-52 -16 -90.5 -50
t-59.5 -75t-21 -81q0 -52 24 -94t76 -66.5t137 -24.5q78 0 151 20t135 51.5t106 65.5q36 29 58.5 59t22.5 52q0 28 -39 34q-10 1 -10 6q0 8 14 8q29 0 51.5 -19.5t22.5 -48.5q0 -57 -81 -120q-49 -39 -119.5 -69t-152 -47.5t-163.5 -17.5zM727 842q-10 11 -30 33.5t-38 45.5
t-24 36q8 23 17 27.5t16 1.5l76 -142q-1 -4 -6 -3.5t-11 1.5z" />
    <glyph glyph-name="Eacute" unicode="&#xc9;" horiz-adv-x="819" 
d="M326 -59q-104 0 -171.5 29t-100 76t-32.5 100q0 60 31 109t81.5 85t111.5 57t120 24q-52 19 -84.5 52.5t-32.5 73.5q0 41 25.5 78.5t68.5 69t97.5 54.5t113.5 35.5t114 12.5q89 0 142 -30t53 -77q0 -43 -46.5 -85t-128.5 -60q-16 -3 -21 -3q-11 0 -11 9q0 3 3.5 4.5
t15.5 5.5q59 20 94 56.5t35 77.5q0 35 -33.5 56.5t-100.5 21.5q-60 0 -121 -17t-112 -48t-82 -71t-31 -87q0 -34 20 -55t51 -33.5t64.5 -20t61.5 -16.5q10 -3 13 -8t3 -10q0 -13 -14.5 -22t-40.5 -9q-16 0 -35.5 0.5t-41.5 0.5q-31 0 -65.5 -3t-75.5 -16q-52 -16 -90.5 -50
t-59.5 -75t-21 -81q0 -52 24 -94t76 -66.5t137 -24.5q78 0 151 20t135 51.5t106 65.5q36 29 58.5 59t22.5 52q0 28 -39 34q-10 1 -10 6q0 8 14 8q29 0 51.5 -19.5t22.5 -48.5q0 -57 -81 -120q-49 -39 -119.5 -69t-152 -47.5t-163.5 -17.5zM691 854q-7 2 -12.5 4.5t-5.5 9.5
q39 26 79 57t76 61q8 0 15.5 -9t5.5 -34q-10 -7 -31.5 -20t-46.5 -26.5t-46.5 -25t-33.5 -17.5z" />
    <glyph glyph-name="Ecircumflex" unicode="&#xca;" horiz-adv-x="819" 
d="M326 -59q-104 0 -171.5 29t-100 76t-32.5 100q0 60 31 109t81.5 85t111.5 57t120 24q-52 19 -84.5 52.5t-32.5 73.5q0 41 25.5 78.5t68.5 69t97.5 54.5t113.5 35.5t114 12.5q89 0 142 -30t53 -77q0 -43 -46.5 -85t-128.5 -60q-16 -3 -21 -3q-11 0 -11 9q0 3 3.5 4.5
t15.5 5.5q59 20 94 56.5t35 77.5q0 35 -33.5 56.5t-100.5 21.5q-60 0 -121 -17t-112 -48t-82 -71t-31 -87q0 -34 20 -55t51 -33.5t64.5 -20t61.5 -16.5q10 -3 13 -8t3 -10q0 -13 -14.5 -22t-40.5 -9q-16 0 -35.5 0.5t-41.5 0.5q-31 0 -65.5 -3t-75.5 -16q-52 -16 -90.5 -50
t-59.5 -75t-21 -81q0 -52 24 -94t76 -66.5t137 -24.5q78 0 151 20t135 51.5t106 65.5q36 29 58.5 59t22.5 52q0 28 -39 34q-10 1 -10 6q0 8 14 8q29 0 51.5 -19.5t22.5 -48.5q0 -57 -81 -120q-49 -39 -119.5 -69t-152 -47.5t-163.5 -17.5zM780 981q14 0 18 -4l44 -104
q0 -1 0.5 -1.5l0.5 -0.5q0 -3 -8 -3q-4 0 -9.5 1.5t-7.5 3.5l-56 57l-126 -57q-7 -6 -22 -6q-5 0 -9 2t-1 4l148 104q5 2 11.5 3t16.5 1z" />
    <glyph glyph-name="Edieresis" unicode="&#xcb;" horiz-adv-x="819" 
d="M326 -59q-104 0 -171.5 29t-100 76t-32.5 100q0 60 31 109t81.5 85t111.5 57t120 24q-52 19 -84.5 52.5t-32.5 73.5q0 41 25.5 78.5t68.5 69t97.5 54.5t113.5 35.5t114 12.5q89 0 142 -30t53 -77q0 -43 -46.5 -85t-128.5 -60q-16 -3 -21 -3q-11 0 -11 9q0 3 3.5 4.5
t15.5 5.5q59 20 94 56.5t35 77.5q0 35 -33.5 56.5t-100.5 21.5q-60 0 -121 -17t-112 -48t-82 -71t-31 -87q0 -34 20 -55t51 -33.5t64.5 -20t61.5 -16.5q10 -3 13 -8t3 -10q0 -13 -14.5 -22t-40.5 -9q-16 0 -35.5 0.5t-41.5 0.5q-31 0 -65.5 -3t-75.5 -16q-52 -16 -90.5 -50
t-59.5 -75t-21 -81q0 -52 24 -94t76 -66.5t137 -24.5q78 0 151 20t135 51.5t106 65.5q36 29 58.5 59t22.5 52q0 28 -39 34q-10 1 -10 6q0 8 14 8q29 0 51.5 -19.5t22.5 -48.5q0 -57 -81 -120q-49 -39 -119.5 -69t-152 -47.5t-163.5 -17.5zM779 860q-13 0 -22 10t-9 23
q0 17 14 30t30 13q14 0 23.5 -9t9.5 -22q0 -17 -13.5 -31t-32.5 -14zM662 860q-13 0 -22 10t-9 23q0 17 14 30t30 13q14 0 23.5 -9t9.5 -22q0 -17 -13.5 -31t-32.5 -14z" />
    <glyph glyph-name="Igrave" unicode="&#xcc;" horiz-adv-x="917" 
d="M336 -194q-71 0 -135 20.5t-113.5 57t-78 84.5t-28.5 103q0 57 15.5 99.5t37.5 70.5t43 43q24 17 43 23.5t23 6.5q6 0 6 -5t-5 -8q-52 -31 -79.5 -87.5t-27.5 -119.5q0 -48 17.5 -93.5t54.5 -83t97 -59.5t145 -22q63 0 121.5 26.5t110.5 70t97 96.5t81 106t61 98
q48 85 82 168.5t67.5 164.5t80.5 158q-46 -8 -96 -19.5t-98 -29t-87 -43.5t-62 -62.5t-23 -85.5q0 -40 21 -63.5t58 -23.5q23 0 46.5 14t40 39.5t16.5 61.5q0 15 -3 23.5t-5 12.5q0 4 2.5 8t6.5 4q9 0 13.5 -17.5t4.5 -28.5q0 -36 -15.5 -68t-46 -52t-75.5 -20
q-49 0 -83.5 31t-34.5 83q0 50 27.5 89.5t74 69t103.5 50.5t117 34t114 20q15 31 41.5 58t60.5 27q14 0 23 -7t9 -22q0 -18 -13 -32t-33 -23.5t-39.5 -15t-33.5 -7.5q-43 -79 -69.5 -154t-48 -147.5t-51.5 -144.5q-43 -101 -98.5 -188t-126 -152t-158.5 -101t-195 -36z
M1100 755q39 8 52.5 18t13.5 18q0 13 -11 13q-13 0 -28.5 -13t-26.5 -36zM1186 863q-10 11 -30 33.5t-38 45.5t-24 36q8 23 17 27.5t16 1.5l76 -142q-1 -4 -6 -3.5t-11 1.5z" />
    <glyph glyph-name="Iacute" unicode="&#xcd;" horiz-adv-x="917" 
d="M336 -194q-71 0 -135 20.5t-113.5 57t-78 84.5t-28.5 103q0 57 15.5 99.5t37.5 70.5t43 43q24 17 43 23.5t23 6.5q6 0 6 -5t-5 -8q-52 -31 -79.5 -87.5t-27.5 -119.5q0 -48 17.5 -93.5t54.5 -83t97 -59.5t145 -22q63 0 121.5 26.5t110.5 70t97 96.5t81 106t61 98
q48 85 82 168.5t67.5 164.5t80.5 158q-46 -8 -96 -19.5t-98 -29t-87 -43.5t-62 -62.5t-23 -85.5q0 -40 21 -63.5t58 -23.5q23 0 46.5 14t40 39.5t16.5 61.5q0 15 -3 23.5t-5 12.5q0 4 2.5 8t6.5 4q9 0 13.5 -17.5t4.5 -28.5q0 -36 -15.5 -68t-46 -52t-75.5 -20
q-49 0 -83.5 31t-34.5 83q0 50 27.5 89.5t74 69t103.5 50.5t117 34t114 20q15 31 41.5 58t60.5 27q14 0 23 -7t9 -22q0 -18 -13 -32t-33 -23.5t-39.5 -15t-33.5 -7.5q-43 -79 -69.5 -154t-48 -147.5t-51.5 -144.5q-43 -101 -98.5 -188t-126 -152t-158.5 -101t-195 -36z
M1100 755q39 8 52.5 18t13.5 18q0 13 -11 13q-13 0 -28.5 -13t-26.5 -36zM1150 875q-7 2 -12.5 4.5t-5.5 9.5q39 26 79 57t76 61q8 0 15.5 -9t5.5 -34q-10 -7 -31.5 -20t-46.5 -26.5t-46.5 -25t-33.5 -17.5z" />
    <glyph glyph-name="Icircumflex" unicode="&#xce;" horiz-adv-x="917" 
d="M336 -194q-71 0 -135 20.5t-113.5 57t-78 84.5t-28.5 103q0 57 15.5 99.5t37.5 70.5t43 43q24 17 43 23.5t23 6.5q6 0 6 -5t-5 -8q-52 -31 -79.5 -87.5t-27.5 -119.5q0 -48 17.5 -93.5t54.5 -83t97 -59.5t145 -22q63 0 121.5 26.5t110.5 70t97 96.5t81 106t61 98
q48 85 82 168.5t67.5 164.5t80.5 158q-46 -8 -96 -19.5t-98 -29t-87 -43.5t-62 -62.5t-23 -85.5q0 -40 21 -63.5t58 -23.5q23 0 46.5 14t40 39.5t16.5 61.5q0 15 -3 23.5t-5 12.5q0 4 2.5 8t6.5 4q9 0 13.5 -17.5t4.5 -28.5q0 -36 -15.5 -68t-46 -52t-75.5 -20
q-49 0 -83.5 31t-34.5 83q0 50 27.5 89.5t74 69t103.5 50.5t117 34t114 20q15 31 41.5 58t60.5 27q14 0 23 -7t9 -22q0 -18 -13 -32t-33 -23.5t-39.5 -15t-33.5 -7.5q-43 -79 -69.5 -154t-48 -147.5t-51.5 -144.5q-43 -101 -98.5 -188t-126 -152t-158.5 -101t-195 -36z
M1100 755q39 8 52.5 18t13.5 18q0 13 -11 13q-13 0 -28.5 -13t-26.5 -36zM1239 1002q14 0 18 -4l44 -104q0 -1 0.5 -1.5l0.5 -0.5q0 -3 -8 -3q-4 0 -9.5 1.5t-7.5 3.5l-56 57l-126 -57q-7 -6 -22 -6q-5 0 -9 2t-1 4l148 104q5 2 11.5 3t16.5 1z" />
    <glyph glyph-name="Idieresis" unicode="&#xcf;" horiz-adv-x="917" 
d="M336 -194q-71 0 -135 20.5t-113.5 57t-78 84.5t-28.5 103q0 57 15.5 99.5t37.5 70.5t43 43q24 17 43 23.5t23 6.5q6 0 6 -5t-5 -8q-52 -31 -79.5 -87.5t-27.5 -119.5q0 -48 17.5 -93.5t54.5 -83t97 -59.5t145 -22q63 0 121.5 26.5t110.5 70t97 96.5t81 106t61 98
q48 85 82 168.5t67.5 164.5t80.5 158q-46 -8 -96 -19.5t-98 -29t-87 -43.5t-62 -62.5t-23 -85.5q0 -40 21 -63.5t58 -23.5q23 0 46.5 14t40 39.5t16.5 61.5q0 15 -3 23.5t-5 12.5q0 4 2.5 8t6.5 4q9 0 13.5 -17.5t4.5 -28.5q0 -36 -15.5 -68t-46 -52t-75.5 -20
q-49 0 -83.5 31t-34.5 83q0 50 27.5 89.5t74 69t103.5 50.5t117 34t114 20q15 31 41.5 58t60.5 27q14 0 23 -7t9 -22q0 -18 -13 -32t-33 -23.5t-39.5 -15t-33.5 -7.5q-43 -79 -69.5 -154t-48 -147.5t-51.5 -144.5q-43 -101 -98.5 -188t-126 -152t-158.5 -101t-195 -36z
M1100 755q39 8 52.5 18t13.5 18q0 13 -11 13q-13 0 -28.5 -13t-26.5 -36zM1238 881q-13 0 -22 10t-9 23q0 17 14 30t30 13q14 0 23.5 -9t9.5 -22q0 -17 -13.5 -31t-32.5 -14zM1121 881q-13 0 -22 10t-9 23q0 17 14 30t30 13q14 0 23.5 -9t9.5 -22q0 -17 -13.5 -31t-32.5 -14
z" />
    <glyph glyph-name="Eth" unicode="&#xd0;" horiz-adv-x="1032" 
d="M173 -39q-23 0 -47 3q-63 8 -92.5 37.5t-29.5 63.5q0 37 32.5 67t92.5 30q40 0 87 -16q20 -6 49.5 -20.5t58.5 -29.5t45 -24q44 42 80.5 98t70.5 118h-93q0 6 6 20.5t22 14.5h84q47 89 96.5 180t114.5 163q-52 32 -114.5 49.5t-128.5 17.5q-25 0 -50.5 -3t-51.5 -8
q-93 -20 -157 -63.5t-96.5 -95t-32.5 -97.5q0 -34 18 -60t55 -37q27 -8 47 -8q33 0 57.5 13.5t41.5 33.5t25.5 39t9.5 31q0 7 9 7q14 0 11 -17q-5 -40 -30 -69.5t-60 -46t-72 -16.5q-24 0 -50 8q-46 16 -77.5 55.5t-31.5 93.5q0 53 35.5 106.5t113.5 96.5t204 61q42 6 85 6
q71 0 139.5 -17t129.5 -49l25 29q9 8 25.5 20t33.5 23t25 14q13 5 21 5q6 0 6 -3q0 -7 -16 -17q-10 -7 -18 -15.5t-12 -13.5q-15 -21 -23.5 -34t-22.5 -34q92 -61 150 -157.5t58 -220.5q0 -26 -3 -53q-6 -64 -35 -116t-75.5 -88t-103 -55.5t-118.5 -19.5q-23 0 -46 3
q-98 12 -161.5 31.5t-111.5 40.5q-91 -75 -204 -75zM679 -9q80 0 141.5 34.5t99.5 90.5t45 121q3 24 3 48q0 109 -46.5 198.5t-122.5 150.5q-46 -72 -94.5 -153t-97.5 -158h120q0 -2 -1 -11t-6.5 -16.5t-19.5 -7.5h-115q-39 -60 -75.5 -111.5t-69.5 -86.5q-7 -6 -17.5 -17.5
t-21.5 -18.5q47 -21 107 -38t141 -24q9 -1 15.5 -1h14.5zM151 -8q55 -3 103 13.5t89 46.5q-36 17 -73 35.5t-78 33.5q-27 9 -48 9q-37 0 -56 -20.5t-19 -45.5q0 -27 21 -48.5t61 -23.5z" />
    <glyph glyph-name="Ntilde" unicode="&#xd1;" horiz-adv-x="1044" 
d="M1001 -147q-75 3 -110.5 39.5t-35.5 98.5q0 41 19.5 99.5t50.5 126t65.5 136t65.5 131.5t50.5 113t19.5 78q0 23 -18 33.5t-38 10.5q-34 0 -74.5 -19.5t-82 -51t-79 -68t-65.5 -70.5q-51 -62 -97 -135t-85 -148.5t-71.5 -143.5t-57.5 -119q-7 -14 -23.5 -21.5t-31.5 -7.5
q-13 0 -22 5.5t-6 16.5q21 31 49 82.5t57.5 115.5t58 133.5t51 136t36 122.5t13.5 94q0 70 -33 99.5t-86 29.5t-116 -25.5t-124 -71t-112 -106t-81.5 -131t-30.5 -144.5q0 -65 31.5 -108t93.5 -43q53 0 97.5 22t77 57t50.5 73t18 70q0 29 -15.5 48t-47.5 19q-10 0 -16 -1
t-11 -1q-7 0 -7 7q0 4 4 6l6 3q13 4 24 5t21 1q41 0 60.5 -22t19.5 -56q0 -36 -20.5 -79.5t-58 -82t-89.5 -63.5t-115 -25q-48 0 -90 23.5t-67.5 67.5t-25.5 106q0 64 28 130.5t79 128.5t118.5 111t146.5 77.5t164 28.5q45 0 82 -15.5t59.5 -50.5t22.5 -94q0 -27 -8.5 -63.5
t-22 -76.5t-28 -77.5t-28 -66.5t-20.5 -43q18 30 45 69.5t57 80t57 73.5q32 38 71 79t83.5 76.5t93 57.5t98.5 22q40 0 69.5 -20.5t29.5 -74.5q0 -43 -20.5 -95.5t-52.5 -112.5t-67.5 -123t-67.5 -127.5t-52.5 -126.5t-20.5 -119q0 -41 16 -64.5t46 -23.5q22 0 49 13
q9 5 16.5 6.5t11.5 1.5q15 0 15 -11t-18 -24t-48 -12zM1236 890q-11 -24 -32.5 -48t-51.5 -24q-21 0 -40.5 9t-39 17.5t-39.5 8.5q-15 0 -26 -8.5t-17 -20.5q-1 -3 -9 -3q-14 0 -12 5q12 22 33 44.5t51 22.5q22 0 41.5 -8t39 -16.5t39.5 -8.5q16 0 26.5 9t17.5 23q2 3 8 3
q5 0 8.5 -1.5t2.5 -3.5z" />
    <glyph glyph-name="Ograve" unicode="&#xd2;" horiz-adv-x="730" 
d="M316 -61q-102 0 -159.5 63t-57.5 179q0 73 30 151q-42 29 -60.5 65.5t-18.5 88.5q0 69 31.5 123t84.5 92.5t119 58.5t134 20q67 0 130 -20.5t112.5 -63t77 -107.5t23.5 -155q47 29 81.5 63.5t50.5 63.5q5 9 10 9t6.5 -8t-5.5 -19q-25 -39 -61.5 -77t-85.5 -68
q-1 -22 -6.5 -49.5t-15.5 -57.5q-19 -61 -60.5 -123t-98.5 -114t-124 -83.5t-137 -31.5zM349 310q84 0 177.5 24.5t175.5 67.5q2 13 2 25.5v24.5q0 102 -35.5 170t-98.5 102t-147 34q-65 0 -122.5 -20t-102 -56t-69.5 -85t-25 -108q0 -27 7.5 -58.5t35.5 -56.5
q14 30 38 67.5t55.5 76t68 70.5t76 51.5t79.5 19.5q17 0 34.5 -4t33.5 -14q8 -5 8 -9q0 -3 -4.5 -5t-11.5 0q-13 4 -29 4q-36 0 -73 -21.5t-72 -56t-65 -74t-52.5 -77t-34.5 -63.5q61 -29 151 -29zM324 -37q56 0 109.5 28t101 76t84.5 107t59 121q6 17 11 35.5t6 35.5
q-81 -43 -173 -66t-176 -23q-93 0 -162 27q-31 -79 -31 -155q0 -93 48.5 -139.5t122.5 -46.5zM551 831q-10 11 -30 33.5t-38 45.5t-24 36q8 23 17 27.5t16 1.5l76 -142q-1 -4 -6 -3.5t-11 1.5z" />
    <glyph glyph-name="Oacute" unicode="&#xd3;" horiz-adv-x="730" 
d="M316 -61q-102 0 -159.5 63t-57.5 179q0 73 30 151q-42 29 -60.5 65.5t-18.5 88.5q0 69 31.5 123t84.5 92.5t119 58.5t134 20q67 0 130 -20.5t112.5 -63t77 -107.5t23.5 -155q47 29 81.5 63.5t50.5 63.5q5 9 10 9t6.5 -8t-5.5 -19q-25 -39 -61.5 -77t-85.5 -68
q-1 -22 -6.5 -49.5t-15.5 -57.5q-19 -61 -60.5 -123t-98.5 -114t-124 -83.5t-137 -31.5zM349 310q84 0 177.5 24.5t175.5 67.5q2 13 2 25.5v24.5q0 102 -35.5 170t-98.5 102t-147 34q-65 0 -122.5 -20t-102 -56t-69.5 -85t-25 -108q0 -27 7.5 -58.5t35.5 -56.5
q14 30 38 67.5t55.5 76t68 70.5t76 51.5t79.5 19.5q17 0 34.5 -4t33.5 -14q8 -5 8 -9q0 -3 -4.5 -5t-11.5 0q-13 4 -29 4q-36 0 -73 -21.5t-72 -56t-65 -74t-52.5 -77t-34.5 -63.5q61 -29 151 -29zM324 -37q56 0 109.5 28t101 76t84.5 107t59 121q6 17 11 35.5t6 35.5
q-81 -43 -173 -66t-176 -23q-93 0 -162 27q-31 -79 -31 -155q0 -93 48.5 -139.5t122.5 -46.5zM515 843q-7 2 -12.5 4.5t-5.5 9.5q39 26 79 57t76 61q8 0 15.5 -9t5.5 -34q-10 -7 -31.5 -20t-46.5 -26.5t-46.5 -25t-33.5 -17.5z" />
    <glyph glyph-name="Ocircumflex" unicode="&#xd4;" horiz-adv-x="730" 
d="M316 -61q-102 0 -159.5 63t-57.5 179q0 73 30 151q-42 29 -60.5 65.5t-18.5 88.5q0 69 31.5 123t84.5 92.5t119 58.5t134 20q67 0 130 -20.5t112.5 -63t77 -107.5t23.5 -155q47 29 81.5 63.5t50.5 63.5q5 9 10 9t6.5 -8t-5.5 -19q-25 -39 -61.5 -77t-85.5 -68
q-1 -22 -6.5 -49.5t-15.5 -57.5q-19 -61 -60.5 -123t-98.5 -114t-124 -83.5t-137 -31.5zM349 310q84 0 177.5 24.5t175.5 67.5q2 13 2 25.5v24.5q0 102 -35.5 170t-98.5 102t-147 34q-65 0 -122.5 -20t-102 -56t-69.5 -85t-25 -108q0 -27 7.5 -58.5t35.5 -56.5
q14 30 38 67.5t55.5 76t68 70.5t76 51.5t79.5 19.5q17 0 34.5 -4t33.5 -14q8 -5 8 -9q0 -3 -4.5 -5t-11.5 0q-13 4 -29 4q-36 0 -73 -21.5t-72 -56t-65 -74t-52.5 -77t-34.5 -63.5q61 -29 151 -29zM324 -37q56 0 109.5 28t101 76t84.5 107t59 121q6 17 11 35.5t6 35.5
q-81 -43 -173 -66t-176 -23q-93 0 -162 27q-31 -79 -31 -155q0 -93 48.5 -139.5t122.5 -46.5zM604 970q14 0 18 -4l44 -104q0 -1 0.5 -1.5l0.5 -0.5q0 -3 -8 -3q-4 0 -9.5 1.5t-7.5 3.5l-56 57l-126 -57q-7 -6 -22 -6q-5 0 -9 2t-1 4l148 104q5 2 11.5 3t16.5 1z" />
    <glyph glyph-name="Otilde" unicode="&#xd5;" horiz-adv-x="730" 
d="M316 -61q-102 0 -159.5 63t-57.5 179q0 73 30 151q-42 29 -60.5 65.5t-18.5 88.5q0 69 31.5 123t84.5 92.5t119 58.5t134 20q67 0 130 -20.5t112.5 -63t77 -107.5t23.5 -155q47 29 81.5 63.5t50.5 63.5q5 9 10 9t6.5 -8t-5.5 -19q-25 -39 -61.5 -77t-85.5 -68
q-1 -22 -6.5 -49.5t-15.5 -57.5q-19 -61 -60.5 -123t-98.5 -114t-124 -83.5t-137 -31.5zM349 310q84 0 177.5 24.5t175.5 67.5q2 13 2 25.5v24.5q0 102 -35.5 170t-98.5 102t-147 34q-65 0 -122.5 -20t-102 -56t-69.5 -85t-25 -108q0 -27 7.5 -58.5t35.5 -56.5
q14 30 38 67.5t55.5 76t68 70.5t76 51.5t79.5 19.5q17 0 34.5 -4t33.5 -14q8 -5 8 -9q0 -3 -4.5 -5t-11.5 0q-13 4 -29 4q-36 0 -73 -21.5t-72 -56t-65 -74t-52.5 -77t-34.5 -63.5q61 -29 151 -29zM324 -37q56 0 109.5 28t101 76t84.5 107t59 121q6 17 11 35.5t6 35.5
q-81 -43 -173 -66t-176 -23q-93 0 -162 27q-31 -79 -31 -155q0 -93 48.5 -139.5t122.5 -46.5zM690 929q-11 -24 -32.5 -48t-51.5 -24q-21 0 -40.5 9t-39 17.5t-39.5 8.5q-15 0 -26 -8.5t-17 -20.5q-1 -3 -9 -3q-14 0 -12 5q12 22 33 44.5t51 22.5q22 0 41.5 -8t39 -16.5
t39.5 -8.5q16 0 26.5 9t17.5 23q2 3 8 3q5 0 8.5 -1.5t2.5 -3.5z" />
    <glyph glyph-name="Odieresis" unicode="&#xd6;" horiz-adv-x="730" 
d="M316 -61q-102 0 -159.5 63t-57.5 179q0 73 30 151q-42 29 -60.5 65.5t-18.5 88.5q0 69 31.5 123t84.5 92.5t119 58.5t134 20q67 0 130 -20.5t112.5 -63t77 -107.5t23.5 -155q47 29 81.5 63.5t50.5 63.5q5 9 10 9t6.5 -8t-5.5 -19q-25 -39 -61.5 -77t-85.5 -68
q-1 -22 -6.5 -49.5t-15.5 -57.5q-19 -61 -60.5 -123t-98.5 -114t-124 -83.5t-137 -31.5zM349 310q84 0 177.5 24.5t175.5 67.5q2 13 2 25.5v24.5q0 102 -35.5 170t-98.5 102t-147 34q-65 0 -122.5 -20t-102 -56t-69.5 -85t-25 -108q0 -27 7.5 -58.5t35.5 -56.5
q14 30 38 67.5t55.5 76t68 70.5t76 51.5t79.5 19.5q17 0 34.5 -4t33.5 -14q8 -5 8 -9q0 -3 -4.5 -5t-11.5 0q-13 4 -29 4q-36 0 -73 -21.5t-72 -56t-65 -74t-52.5 -77t-34.5 -63.5q61 -29 151 -29zM324 -37q56 0 109.5 28t101 76t84.5 107t59 121q6 17 11 35.5t6 35.5
q-81 -43 -173 -66t-176 -23q-93 0 -162 27q-31 -79 -31 -155q0 -93 48.5 -139.5t122.5 -46.5zM603 849q-13 0 -22 10t-9 23q0 17 14 30t30 13q14 0 23.5 -9t9.5 -22q0 -17 -13.5 -31t-32.5 -14zM486 849q-13 0 -22 10t-9 23q0 17 14 30t30 13q14 0 23.5 -9t9.5 -22
q0 -17 -13.5 -31t-32.5 -14z" />
    <glyph glyph-name="multiply" unicode="&#xd7;" horiz-adv-x="300" 
d="M39 161q23 21 47.5 42t47.5 43q-16 21 -31 42l-30 42q-3 4 0 7q8 7 18 7t20 -13q12 -15 23.5 -31t23.5 -33q16 15 31.5 30t31.5 29q13 12 25 12q8 -1 15 -10q3 -3 -2 -6l-85 -77q18 -23 35 -46.5t34 -46.5q3 -2 0 -5q-3 -2 -8.5 -4.5t-10.5 -2.5q-11 0 -19 10
q-13 19 -27 37.5t-28 36.5q-18 -17 -36.5 -34t-37.5 -34q-11 -11 -22 -9q-5 0 -9.5 3t-6.5 6q-3 3 1 5z" />
    <glyph glyph-name="Oslash" unicode="&#xd8;" horiz-adv-x="730" 
d="M316 -61q-99 0 -158 63.5t-59 178.5q0 65 21.5 133t58 129.5t83.5 110t99 77t103 28.5q17 0 34.5 -4t33.5 -14q8 -5 8 -9q0 -3 -4.5 -5t-11.5 0q-13 4 -29 4q-42 0 -88.5 -28.5t-91.5 -78t-81.5 -111.5t-58.5 -130t-22 -134q0 -93 48.5 -139.5t122.5 -46.5q53 0 107 28
t103 76t87.5 111t60.5 133t22 141q0 82 -23.5 140.5t-63.5 95.5t-90 54.5t-104 17.5q-7 0 -17.5 -0.5t-15.5 -0.5q-14 0 -19 6q-1 6 4 9q2 1 5.5 2t7.5 1h31q67 0 128.5 -20t110 -62t76.5 -106.5t28 -154.5q0 -70 -24 -140.5t-66.5 -134t-98.5 -113.5t-121.5 -78.5
t-135.5 -28.5zM156 -148q-10 0 -10 9q0 7 5.5 15.5t9.5 15.5q16 25 49 79t77 126.5t94.5 155.5t100.5 167t95 161t79 137q27 48 42.5 75t23 38.5t11 14.5t5.5 3q11 0 18 -10t7 -17t-4.5 -16.5t-9.5 -16.5q-30 -48 -71.5 -115t-89 -145t-97.5 -160t-97.5 -160t-88.5 -144.5
t-71 -115t-44 -70.5q-11 -17 -18.5 -22t-15.5 -5z" />
    <glyph glyph-name="Ugrave" unicode="&#xd9;" horiz-adv-x="947" 
d="M902 -79q-28 5 -44 25.5t-22.5 51t-6.5 63.5q0 34 4.5 67t9.5 58q-15 -24 -28.5 -43.5t-33.5 -45.5q-54 -69 -106.5 -102.5t-96.5 -33.5q-41 0 -68 30.5t-27 88.5q0 42 15 93.5t37.5 107.5t48 111.5t46.5 106.5t32 93q8 31 12.5 60.5t4.5 57.5q0 35 -9 60.5t-29 37.5
q-22 14 -49 20t-56 6q-55 0 -114.5 -19t-116.5 -52q-94 -55 -153 -123t-86.5 -138.5t-27.5 -133.5q0 -56 20 -101t57 -71t87 -26q38 0 79 16q32 12 60 38t49.5 59t34 68t12.5 65q0 31 -16 51t-53 20q-8 0 -17 -1t-19 -3q-7 -1 -12.5 -2.5t-8.5 -1.5q-5 0 -5 3q0 4 9 10.5
t13 7.5q18 8 33.5 11t28.5 3q39 0 57.5 -26t18.5 -66q0 -43 -21 -93.5t-62.5 -94.5t-102.5 -70q-49 -21 -95 -21q-56 0 -99 29.5t-66.5 80.5t-23.5 114q0 71 32.5 147.5t101 149t177.5 132.5q60 33 116.5 49t106.5 16q27 0 54.5 -5t51.5 -16q53 -22 74.5 -66t21.5 -97
q0 -41 -11 -90q-10 -46 -31.5 -98t-47 -107t-49 -110t-38.5 -106t-15 -95q0 -41 15.5 -62.5t40.5 -21.5q32 0 76.5 34t93.5 104q34 49 64.5 107t57 112.5t47.5 93.5q17 29 30.5 41t26.5 12q10 0 14 -10t4 -20q0 -16 -9.5 -37t-22.5 -43.5t-23 -45.5q-10 -21 -28 -65.5
t-32 -96.5q-10 -40 -17.5 -81t-7.5 -74t8.5 -53.5t27.5 -20.5h11q19 0 19 -8q0 -6 -10 -11.5t-24 -3.5zM953 658q-10 11 -30 33.5t-38 45.5t-24 36q8 23 17 27.5t16 1.5l76 -142q-1 -4 -6 -3.5t-11 1.5z" />
    <glyph glyph-name="Uacute" unicode="&#xda;" horiz-adv-x="947" 
d="M902 -79q-28 5 -44 25.5t-22.5 51t-6.5 63.5q0 34 4.5 67t9.5 58q-15 -24 -28.5 -43.5t-33.5 -45.5q-54 -69 -106.5 -102.5t-96.5 -33.5q-41 0 -68 30.5t-27 88.5q0 42 15 93.5t37.5 107.5t48 111.5t46.5 106.5t32 93q8 31 12.5 60.5t4.5 57.5q0 35 -9 60.5t-29 37.5
q-22 14 -49 20t-56 6q-55 0 -114.5 -19t-116.5 -52q-94 -55 -153 -123t-86.5 -138.5t-27.5 -133.5q0 -56 20 -101t57 -71t87 -26q38 0 79 16q32 12 60 38t49.5 59t34 68t12.5 65q0 31 -16 51t-53 20q-8 0 -17 -1t-19 -3q-7 -1 -12.5 -2.5t-8.5 -1.5q-5 0 -5 3q0 4 9 10.5
t13 7.5q18 8 33.5 11t28.5 3q39 0 57.5 -26t18.5 -66q0 -43 -21 -93.5t-62.5 -94.5t-102.5 -70q-49 -21 -95 -21q-56 0 -99 29.5t-66.5 80.5t-23.5 114q0 71 32.5 147.5t101 149t177.5 132.5q60 33 116.5 49t106.5 16q27 0 54.5 -5t51.5 -16q53 -22 74.5 -66t21.5 -97
q0 -41 -11 -90q-10 -46 -31.5 -98t-47 -107t-49 -110t-38.5 -106t-15 -95q0 -41 15.5 -62.5t40.5 -21.5q32 0 76.5 34t93.5 104q34 49 64.5 107t57 112.5t47.5 93.5q17 29 30.5 41t26.5 12q10 0 14 -10t4 -20q0 -16 -9.5 -37t-22.5 -43.5t-23 -45.5q-10 -21 -28 -65.5
t-32 -96.5q-10 -40 -17.5 -81t-7.5 -74t8.5 -53.5t27.5 -20.5h11q19 0 19 -8q0 -6 -10 -11.5t-24 -3.5zM917 670q-7 2 -12.5 4.5t-5.5 9.5q39 26 79 57t76 61q8 0 15.5 -9t5.5 -34q-10 -7 -31.5 -20t-46.5 -26.5t-46.5 -25t-33.5 -17.5z" />
    <glyph glyph-name="Ucircumflex" unicode="&#xdb;" horiz-adv-x="947" 
d="M902 -79q-28 5 -44 25.5t-22.5 51t-6.5 63.5q0 34 4.5 67t9.5 58q-15 -24 -28.5 -43.5t-33.5 -45.5q-54 -69 -106.5 -102.5t-96.5 -33.5q-41 0 -68 30.5t-27 88.5q0 42 15 93.5t37.5 107.5t48 111.5t46.5 106.5t32 93q8 31 12.5 60.5t4.5 57.5q0 35 -9 60.5t-29 37.5
q-22 14 -49 20t-56 6q-55 0 -114.5 -19t-116.5 -52q-94 -55 -153 -123t-86.5 -138.5t-27.5 -133.5q0 -56 20 -101t57 -71t87 -26q38 0 79 16q32 12 60 38t49.5 59t34 68t12.5 65q0 31 -16 51t-53 20q-8 0 -17 -1t-19 -3q-7 -1 -12.5 -2.5t-8.5 -1.5q-5 0 -5 3q0 4 9 10.5
t13 7.5q18 8 33.5 11t28.5 3q39 0 57.5 -26t18.5 -66q0 -43 -21 -93.5t-62.5 -94.5t-102.5 -70q-49 -21 -95 -21q-56 0 -99 29.5t-66.5 80.5t-23.5 114q0 71 32.5 147.5t101 149t177.5 132.5q60 33 116.5 49t106.5 16q27 0 54.5 -5t51.5 -16q53 -22 74.5 -66t21.5 -97
q0 -41 -11 -90q-10 -46 -31.5 -98t-47 -107t-49 -110t-38.5 -106t-15 -95q0 -41 15.5 -62.5t40.5 -21.5q32 0 76.5 34t93.5 104q34 49 64.5 107t57 112.5t47.5 93.5q17 29 30.5 41t26.5 12q10 0 14 -10t4 -20q0 -16 -9.5 -37t-22.5 -43.5t-23 -45.5q-10 -21 -28 -65.5
t-32 -96.5q-10 -40 -17.5 -81t-7.5 -74t8.5 -53.5t27.5 -20.5h11q19 0 19 -8q0 -6 -10 -11.5t-24 -3.5zM1006 797q14 0 18 -4l44 -104q0 -1 0.5 -1.5l0.5 -0.5q0 -3 -8 -3q-4 0 -9.5 1.5t-7.5 3.5l-56 57l-126 -57q-7 -6 -22 -6q-5 0 -9 2t-1 4l148 104q5 2 11.5 3t16.5 1z
" />
    <glyph glyph-name="Udieresis" unicode="&#xdc;" horiz-adv-x="947" 
d="M902 -79q-28 5 -44 25.5t-22.5 51t-6.5 63.5q0 34 4.5 67t9.5 58q-15 -24 -28.5 -43.5t-33.5 -45.5q-54 -69 -106.5 -102.5t-96.5 -33.5q-41 0 -68 30.5t-27 88.5q0 42 15 93.5t37.5 107.5t48 111.5t46.5 106.5t32 93q8 31 12.5 60.5t4.5 57.5q0 35 -9 60.5t-29 37.5
q-22 14 -49 20t-56 6q-55 0 -114.5 -19t-116.5 -52q-94 -55 -153 -123t-86.5 -138.5t-27.5 -133.5q0 -56 20 -101t57 -71t87 -26q38 0 79 16q32 12 60 38t49.5 59t34 68t12.5 65q0 31 -16 51t-53 20q-8 0 -17 -1t-19 -3q-7 -1 -12.5 -2.5t-8.5 -1.5q-5 0 -5 3q0 4 9 10.5
t13 7.5q18 8 33.5 11t28.5 3q39 0 57.5 -26t18.5 -66q0 -43 -21 -93.5t-62.5 -94.5t-102.5 -70q-49 -21 -95 -21q-56 0 -99 29.5t-66.5 80.5t-23.5 114q0 71 32.5 147.5t101 149t177.5 132.5q60 33 116.5 49t106.5 16q27 0 54.5 -5t51.5 -16q53 -22 74.5 -66t21.5 -97
q0 -41 -11 -90q-10 -46 -31.5 -98t-47 -107t-49 -110t-38.5 -106t-15 -95q0 -41 15.5 -62.5t40.5 -21.5q32 0 76.5 34t93.5 104q34 49 64.5 107t57 112.5t47.5 93.5q17 29 30.5 41t26.5 12q10 0 14 -10t4 -20q0 -16 -9.5 -37t-22.5 -43.5t-23 -45.5q-10 -21 -28 -65.5
t-32 -96.5q-10 -40 -17.5 -81t-7.5 -74t8.5 -53.5t27.5 -20.5h11q19 0 19 -8q0 -6 -10 -11.5t-24 -3.5zM1005 676q-13 0 -22 10t-9 23q0 17 14 30t30 13q14 0 23.5 -9t9.5 -22q0 -17 -13.5 -31t-32.5 -14zM888 676q-13 0 -22 10t-9 23q0 17 14 30t30 13q14 0 23.5 -9
t9.5 -22q0 -17 -13.5 -31t-32.5 -14z" />
    <glyph glyph-name="Yacute" unicode="&#xdd;" horiz-adv-x="963" 
d="M372 -400q-70 0 -113.5 26t-43.5 63q0 27 28.5 59t92.5 58q98 41 208 52.5t227 11.5q31 50 55.5 115t44.5 136t36 138q-18 -41 -48 -93t-69 -100.5t-86 -80.5q-58 -39 -120 -39q-46 0 -79 27t-33 85q0 6 0.5 13t1.5 14q8 50 32.5 108t56 114.5t58.5 101.5q32 52 56 106
t37 104t13 88q0 29 -8.5 51.5t-27.5 34.5q-44 28 -104 28q-64 0 -135 -29t-138.5 -78.5t-120.5 -112.5t-82 -131q-18 -43 -26.5 -80t-8.5 -68q0 -54 21 -89.5t55 -53.5t73 -18q32 0 64 11q35 12 65.5 40t54 63t36.5 71t13 65t-14.5 47.5t-47.5 18.5q-12 0 -26 -3
q-4 -1 -7 -1h-5q-9 0 -9 4q0 2 6 6.5t13 5.5q29 7 49 7q41 0 60 -23t19 -59q0 -42 -25.5 -93.5t-72.5 -98t-113 -73.5q-36 -15 -74 -15q-50 0 -93.5 25.5t-70.5 72.5t-27 111q0 39 10 76.5t29 77.5q37 77 98 140.5t134.5 110.5t149.5 72.5t143 25.5q29 0 55 -4.5t48 -15.5
q53 -23 75 -64.5t22 -92.5q0 -57 -23 -121.5t-59 -125.5q-34 -57 -66.5 -119t-56.5 -120t-34 -104q-2 -10 -3 -20t-1 -18q0 -35 17 -51t43 -16q42 0 89 33q37 26 71.5 69t64.5 94.5t54 104t41 98.5t26 77q2 9 15 21t25 12q8 0 14.5 -8t6.5 -28t-9 -61q-13 -58 -32.5 -127
t-43.5 -140.5t-50.5 -135.5t-53.5 -112q28 0 66.5 1t78.5 6t74 16t55 30t21 48v6q0 9 3 9q4 0 9 -16q1 -3 1.5 -6t0.5 -7q0 -21 -17.5 -47.5t-58.5 -43.5q-37 -15 -104.5 -18t-144.5 -4q-50 -76 -125.5 -131t-152.5 -84q-42 -16 -80.5 -23t-72.5 -7zM379 -372q29 0 63 6
t67 18q68 25 135.5 72.5t113.5 120.5q-68 0 -138 -6.5t-137 -24t-127 -52.5q-45 -25 -64.5 -47t-19.5 -39q0 -22 30.5 -35t76.5 -13zM995 635q-7 2 -12.5 4.5t-5.5 9.5q39 26 79 57t76 61q8 0 15.5 -9t5.5 -34q-10 -7 -31.5 -20t-46.5 -26.5t-46.5 -25t-33.5 -17.5z" />
    <glyph glyph-name="Thorn" unicode="&#xde;" horiz-adv-x="613" 
d="M63 3q-13 0 -26 3t-26 2q17 15 42.5 55t56 97t63 125t63.5 140q38 87 69.5 172t50 155t15.5 110q11 -4 22 -6t18 -9q21 -18 21 -41q0 -16 -9 -45l-30 -97q41 -6 86 -19.5t72 -27.5q71 -34 105 -74.5t34 -101.5q0 -35 -21.5 -72.5t-59.5 -72.5t-88 -63.5t-107 -45.5
q-56 -16 -114.5 -19.5t-100.5 -1.5l-76 -111q-20 -30 -30 -41t-30 -11zM211 192q38 0 74.5 0.5t75.5 13.5q70 22 130 60t97 89t37 112q0 41 -26 75t-83 59q-12 6 -35 13t-49 14t-48 12q-21 -59 -47.5 -135t-57.5 -157t-68 -156z" />
    <glyph glyph-name="germandbls" unicode="&#xdf;" horiz-adv-x="421" 
d="M208 140q13 0 22 -9q5 -5 6 -11t1 -12q0 -7 -2 -13q-6 5 -13.5 -1t-12.5 -15.5t-6 -15.5l-1.5 -7.5t-0.5 -5.5q0 -16 10.5 -27t27.5 -11q18 0 29.5 8t21.5 19q13 15 22 40t9 59q0 39 -8 83t-8 78q0 16 0.5 28t6.5 27q10 24 22.5 36.5t30 26t41.5 40.5q22 24 34 57.5
t12 64.5q0 55 -22.5 77.5t-43.5 22.5q-34 0 -65 -22.5t-56.5 -61t-42.5 -86.5q-32 -88 -63.5 -187t-64.5 -194t-70 -173.5t-79 -127.5q-32 -38 -72.5 -72.5t-83 -56.5t-82.5 -25q-25 -1 -50 4t-41 20t-16 42q0 26 12.5 36.5t22.5 10.5q17 0 24.5 -9.5t7.5 -20.5
q0 -12 -7 -21.5t-20 -9.5q-11 0 -14 3q7 -15 25 -22t37 -7q50 0 97 32.5t88.5 87t76 119.5t59.5 129q27 69 46.5 121t34.5 93.5t28 77.5h-55q-7 0 -7 10q0 5 2.5 9t7.5 4h61q13 35 27 71.5t33 80.5q25 59 52 95t62 53t85 17q12 0 30.5 -6t37 -20t30.5 -38t12 -60
q0 -37 -16.5 -71.5t-51.5 -63.5q-23 -19 -45.5 -35t-37 -33t-14.5 -41q0 -22 5 -45.5t10 -36.5q11 -28 23.5 -55t12.5 -58q0 -18 -10 -46t-29 -51t-46 -28q29 -3 60.5 13.5t50.5 39.5q18 22 38 57t34 72q12 0 12 -9q-14 -35 -30 -68.5t-39 -61.5q-31 -37 -71 -51.5
t-85 -14.5q-30 0 -59.5 8.5t-40.5 30.5q-5 11 -7.5 23t-2.5 23q0 26 14.5 46.5t36.5 20.5z" />
    <glyph glyph-name="agrave" unicode="&#xe0;" horiz-adv-x="358" 
d="M276 -3q-23 0 -40.5 13t-17.5 53q0 17 2.5 32t6.5 32q-9 -15 -25 -37t-35.5 -43t-40 -35t-38.5 -14q-26 0 -42 23.5t-16 61.5q0 41 19 88t52 90t76 70t90 27q23 0 44 -7.5t37 -24.5q7 -7 7 -16q0 -6 -5 -10t-13 -2q-11 35 -47 35q-17 0 -39 -11q-27 -14 -57.5 -44.5
t-57 -69t-43.5 -77.5t-17 -71q0 -33 25 -33q22 0 45.5 21t45 52.5t39.5 62.5t28 50q15 27 28 45t37 18q11 0 22 -3t23 -1q-30 -30 -52.5 -71t-34.5 -80.5t-12 -66.5q0 -30 20 -30q16 0 34.5 18t36 45.5t32.5 56t24 49.5q5 0 8.5 -1t3.5 -8q-1 -4 -3.5 -8.5t-7.5 -15.5
q-8 -16 -22 -43t-33 -54.5t-41 -46.5t-46 -19zM308 395q-6 6 -20 21.5t-30.5 34.5t-29.5 36.5t-18 26.5q6 24 14.5 29.5t15.5 3.5l83 -149q-1 -7 -15 -3z" />
    <glyph glyph-name="aacute" unicode="&#xe1;" horiz-adv-x="358" 
d="M276 -3q-23 0 -40.5 13t-17.5 53q0 17 2.5 32t6.5 32q-9 -15 -25 -37t-35.5 -43t-40 -35t-38.5 -14q-26 0 -42 23.5t-16 61.5q0 41 19 88t52 90t76 70t90 27q23 0 44 -7.5t37 -24.5q7 -7 7 -16q0 -6 -5 -10t-13 -2q-11 35 -47 35q-17 0 -39 -11q-27 -14 -57.5 -44.5
t-57 -69t-43.5 -77.5t-17 -71q0 -33 25 -33q22 0 45.5 21t45 52.5t39.5 62.5t28 50q15 27 28 45t37 18q11 0 22 -3t23 -1q-30 -30 -52.5 -71t-34.5 -80.5t-12 -66.5q0 -30 20 -30q16 0 34.5 18t36 45.5t32.5 56t24 49.5q5 0 8.5 -1t3.5 -8q-1 -4 -3.5 -8.5t-7.5 -15.5
q-8 -16 -22 -43t-33 -54.5t-41 -46.5t-46 -19zM292 397q-7 0 -12 2t-5 7q31 29 61 59.5t59 61.5q8 0 15.5 -8.5t7.5 -33.5q-9 -8 -26 -20.5t-36.5 -26.5t-37 -25t-26.5 -16z" />
    <glyph glyph-name="acircumflex" unicode="&#xe2;" horiz-adv-x="358" 
d="M276 -3q-23 0 -40.5 13t-17.5 53q0 17 2.5 32t6.5 32q-9 -15 -25 -37t-35.5 -43t-40 -35t-38.5 -14q-26 0 -42 23.5t-16 61.5q0 41 19 88t52 90t76 70t90 27q23 0 44 -7.5t37 -24.5q7 -7 7 -16q0 -6 -5 -10t-13 -2q-11 35 -47 35q-17 0 -39 -11q-27 -14 -57.5 -44.5
t-57 -69t-43.5 -77.5t-17 -71q0 -33 25 -33q22 0 45.5 21t45 52.5t39.5 62.5t28 50q15 27 28 45t37 18q11 0 22 -3t23 -1q-30 -30 -52.5 -71t-34.5 -80.5t-12 -66.5q0 -30 20 -30q16 0 34.5 18t36 45.5t32.5 56t24 49.5q5 0 8.5 -1t3.5 -8q-1 -4 -3.5 -8.5t-7.5 -15.5
q-8 -16 -22 -43t-33 -54.5t-41 -46.5t-46 -19zM390 410q-12 0 -15 5l-46 63l-101 -61q-4 -2 -8.5 -4t-9.5 -2q-9 0 -11 5l121 107q8 5 22 5q10 0 15 -5l38 -108q0 -1 0.5 -1.5l0.5 -0.5q0 -3 -6 -3z" />
    <glyph glyph-name="atilde" unicode="&#xe3;" horiz-adv-x="358" 
d="M276 -3q-23 0 -40.5 13t-17.5 53q0 17 2.5 32t6.5 32q-9 -15 -25 -37t-35.5 -43t-40 -35t-38.5 -14q-26 0 -42 23.5t-16 61.5q0 41 19 88t52 90t76 70t90 27q23 0 44 -7.5t37 -24.5q7 -7 7 -16q0 -6 -5 -10t-13 -2q-11 35 -47 35q-17 0 -39 -11q-27 -14 -57.5 -44.5
t-57 -69t-43.5 -77.5t-17 -71q0 -33 25 -33q22 0 45.5 21t45 52.5t39.5 62.5t28 50q15 27 28 45t37 18q11 0 22 -3t23 -1q-30 -30 -52.5 -71t-34.5 -80.5t-12 -66.5q0 -30 20 -30q16 0 34.5 18t36 45.5t32.5 56t24 49.5q5 0 8.5 -1t3.5 -8q-1 -4 -3.5 -8.5t-7.5 -15.5
q-8 -16 -22 -43t-33 -54.5t-41 -46.5t-46 -19zM350 398q-17 0 -35 7.5t-34 15t-28 7.5q-13 0 -22 -7t-15 -17q-1 -3 -6 -3q-12 0 -10 5q10 19 27 39.5t41 20.5q19 0 35 -7.5l32 -15t33 -7.5q14 0 22 8t14 21q2 3 6 3q11 0 9 -5q-9 -21 -26.5 -43t-42.5 -22z" />
    <glyph glyph-name="adieresis" unicode="&#xe4;" horiz-adv-x="358" 
d="M276 -3q-23 0 -40.5 13t-17.5 53q0 17 2.5 32t6.5 32q-9 -15 -25 -37t-35.5 -43t-40 -35t-38.5 -14q-26 0 -42 23.5t-16 61.5q0 41 19 88t52 90t76 70t90 27q23 0 44 -7.5t37 -24.5q7 -7 7 -16q0 -6 -5 -10t-13 -2q-11 35 -47 35q-17 0 -39 -11q-27 -14 -57.5 -44.5
t-57 -69t-43.5 -77.5t-17 -71q0 -33 25 -33q22 0 45.5 21t45 52.5t39.5 62.5t28 50q15 27 28 45t37 18q11 0 22 -3t23 -1q-30 -30 -52.5 -71t-34.5 -80.5t-12 -66.5q0 -30 20 -30q16 0 34.5 18t36 45.5t32.5 56t24 49.5q5 0 8.5 -1t3.5 -8q-1 -4 -3.5 -8.5t-7.5 -15.5
q-8 -16 -22 -43t-33 -54.5t-41 -46.5t-46 -19zM360 403q-13 0 -21.5 9.5t-8.5 22.5q0 17 13 29t29 12q14 0 23 -8.5t9 -21.5q0 -16 -13 -29.5t-31 -13.5zM248 403q-13 0 -21.5 9.5t-8.5 22.5q0 17 13 29t29 12q14 0 23 -8.5t9 -21.5q0 -16 -13 -29.5t-31 -13.5z" />
    <glyph glyph-name="aring" unicode="&#xe5;" horiz-adv-x="358" 
d="M276 -3q-23 0 -40.5 13t-17.5 53q0 17 2.5 32t6.5 32q-9 -15 -25 -37t-35.5 -43t-40 -35t-38.5 -14q-26 0 -42 23.5t-16 61.5q0 41 19 88t52 90t76 70t90 27q23 0 44 -7.5t37 -24.5q7 -7 7 -16q0 -6 -5 -10t-13 -2q-11 35 -47 35q-17 0 -39 -11q-27 -14 -57.5 -44.5
t-57 -69t-43.5 -77.5t-17 -71q0 -33 25 -33q22 0 45.5 21t45 52.5t39.5 62.5t28 50q15 27 28 45t37 18q11 0 22 -3t23 -1q-30 -30 -52.5 -71t-34.5 -80.5t-12 -66.5q0 -30 20 -30q16 0 34.5 18t36 45.5t32.5 56t24 49.5q5 0 8.5 -1t3.5 -8q-1 -4 -3.5 -8.5t-7.5 -15.5
q-8 -16 -22 -43t-33 -54.5t-41 -46.5t-46 -19zM303 407q-25 0 -44 12t-19 37q0 22 14.5 38.5t36.5 26t43 9.5q25 0 44 -12t19 -38q0 -23 -15 -39.5t-36.5 -25t-42.5 -8.5zM304 423q14 0 26 12t19.5 28.5t7.5 30.5q0 21 -21 21q-11 0 -24.5 -10.5t-22.5 -26t-9 -31.5
q0 -24 24 -24z" />
    <glyph glyph-name="ae" unicode="&#xe6;" horiz-adv-x="438" 
d="M320 -4q-49 0 -75 28t-26 77q0 6 0.5 12.5t1.5 13.5q-12 -19 -31 -46.5t-41 -48.5q-19 -18 -36 -26t-31 -8q-26 0 -42 23.5t-16 61.5q0 40 20.5 92t64.5 105q29 35 71.5 56.5t83.5 21.5q47 0 78 -32l2 -4q23 17 46.5 26.5t44.5 9.5t38 -12t17 -36q0 -25 -19.5 -55.5
t-55.5 -57.5q-14 -10 -37.5 -20t-46 -16.5t-36.5 -6.5l-4 -8q-5 -11 -8.5 -27t-3.5 -35q0 -26 10.5 -47t38.5 -21q33 0 60.5 19t48 47.5t36 58.5t24.5 52q5 0 8.5 -1.5t3.5 -7.5q-20 -44 -43.5 -87.5t-58 -72t-87.5 -28.5zM303 172q15 1 47 11.5t57 32.5q27 23 41 51t14 47
q0 21 -16 21q-10 0 -32.5 -16t-53.5 -54q-12 -16 -20 -27.5t-16 -26t-21 -39.5zM95 27q22 0 44.5 20t44 50.5t39.5 62t30 53.5q13 23 32.5 49t41.5 45q-14 26 -44 26q-22 0 -47 -16t-49 -41t-44 -51t-32 -47q-13 -22 -27 -56t-14 -62q0 -33 25 -33z" />
    <glyph glyph-name="ccedilla" unicode="&#xe7;" horiz-adv-x="263" 
d="M145 -4q-55 0 -81.5 29t-26.5 78q0 23 9 53t24 61t33 55q29 39 64 60.5t71 21.5q38 0 54.5 -16.5t16.5 -38.5q0 -21 -10 -37.5t-22.5 -26.5t-21.5 -10q-8 0 -14 6q8 10 17 24t13 27q4 12 4 24q0 26 -24 26q-29 0 -56.5 -24t-50 -61.5t-36 -79t-13.5 -76.5q0 -32 13.5 -53
t44.5 -21q41 0 72 26.5t55 67t42 82.5q4 0 8 -1.5t4 -7.5q-20 -50 -47 -93t-61.5 -69t-80.5 -26zM83 -217q-39 0 -60.5 17t-21.5 30q0 11 6 11q10 -10 24.5 -23t44.5 -13q29 0 56.5 21.5t27.5 58.5q0 20 -12 29.5t-27 9.5q-23 0 -33.5 -10.5l-15.5 -15.5q-5 0 -14.5 6
t-9.5 11q8 10 20.5 25t26 30.5t23 26t11.5 10.5q3 0 7.5 -2.5t4.5 -4.5q-2 -2 -9.5 -13.5t-16 -24.5t-15.5 -23q13 8 42 8q24 0 46.5 -15t22.5 -46q0 -25 -18 -48.5t-47 -39t-63 -15.5z" />
    <glyph glyph-name="egrave" unicode="&#xe8;" horiz-adv-x="256" 
d="M131 -4q-37 0 -66.5 24t-29.5 73q0 41 18.5 87t49 86.5t68 66t75.5 25.5q19 0 37 -11t18 -38q0 -25 -19 -55t-54 -56q-15 -11 -38 -21t-46 -16.5t-38 -6.5q-5 -12 -9.5 -32t-4.5 -41q0 -25 10 -45t37 -20q33 0 61.5 19t51 48t38.5 59t25 51q12 0 12 -9q-13 -28 -29.5 -61
t-39 -61.5t-54 -47t-73.5 -18.5zM113 172q14 0 47 10.5t60 33.5q26 23 40 50.5t14 46.5q0 22 -16 22q-12 0 -33 -16t-52 -54q-19 -24 -36 -52t-24 -41zM262 395q-6 6 -20 21.5t-30.5 34.5t-29.5 36.5t-18 26.5q6 24 14.5 29.5t15.5 3.5l83 -149q-1 -7 -15 -3z" />
    <glyph glyph-name="eacute" unicode="&#xe9;" horiz-adv-x="256" 
d="M131 -4q-37 0 -66.5 24t-29.5 73q0 41 18.5 87t49 86.5t68 66t75.5 25.5q19 0 37 -11t18 -38q0 -25 -19 -55t-54 -56q-15 -11 -38 -21t-46 -16.5t-38 -6.5q-5 -12 -9.5 -32t-4.5 -41q0 -25 10 -45t37 -20q33 0 61.5 19t51 48t38.5 59t25 51q12 0 12 -9q-13 -28 -29.5 -61
t-39 -61.5t-54 -47t-73.5 -18.5zM113 172q14 0 47 10.5t60 33.5q26 23 40 50.5t14 46.5q0 22 -16 22q-12 0 -33 -16t-52 -54q-19 -24 -36 -52t-24 -41zM246 397q-7 0 -12 2t-5 7q31 29 61 59.5t59 61.5q8 0 15.5 -8.5t7.5 -33.5q-9 -8 -26 -20.5t-36.5 -26.5t-37 -25
t-26.5 -16z" />
    <glyph glyph-name="ecircumflex" unicode="&#xea;" horiz-adv-x="256" 
d="M131 -4q-37 0 -66.5 24t-29.5 73q0 41 18.5 87t49 86.5t68 66t75.5 25.5q19 0 37 -11t18 -38q0 -25 -19 -55t-54 -56q-15 -11 -38 -21t-46 -16.5t-38 -6.5q-5 -12 -9.5 -32t-4.5 -41q0 -25 10 -45t37 -20q33 0 61.5 19t51 48t38.5 59t25 51q12 0 12 -9q-13 -28 -29.5 -61
t-39 -61.5t-54 -47t-73.5 -18.5zM113 172q14 0 47 10.5t60 33.5q26 23 40 50.5t14 46.5q0 22 -16 22q-12 0 -33 -16t-52 -54q-19 -24 -36 -52t-24 -41zM344 410q-12 0 -15 5l-46 63l-101 -61q-4 -2 -8.5 -4t-9.5 -2q-9 0 -11 5l121 107q8 5 22 5q10 0 15 -5l38 -108
q0 -1 0.5 -1.5l0.5 -0.5q0 -3 -6 -3z" />
    <glyph glyph-name="edieresis" unicode="&#xeb;" horiz-adv-x="256" 
d="M131 -4q-37 0 -66.5 24t-29.5 73q0 41 18.5 87t49 86.5t68 66t75.5 25.5q19 0 37 -11t18 -38q0 -25 -19 -55t-54 -56q-15 -11 -38 -21t-46 -16.5t-38 -6.5q-5 -12 -9.5 -32t-4.5 -41q0 -25 10 -45t37 -20q33 0 61.5 19t51 48t38.5 59t25 51q12 0 12 -9q-13 -28 -29.5 -61
t-39 -61.5t-54 -47t-73.5 -18.5zM113 172q14 0 47 10.5t60 33.5q26 23 40 50.5t14 46.5q0 22 -16 22q-12 0 -33 -16t-52 -54q-19 -24 -36 -52t-24 -41zM314 403q-13 0 -21.5 9.5t-8.5 22.5q0 17 13 29t29 12q14 0 23 -8.5t9 -21.5q0 -16 -13 -29.5t-31 -13.5zM202 403
q-13 0 -21.5 9.5t-8.5 22.5q0 17 13 29t29 12q14 0 23 -8.5t9 -21.5q0 -16 -13 -29.5t-31 -13.5z" />
    <glyph glyph-name="igrave" unicode="&#xec;" horiz-adv-x="176" 
d="M87 0q-37 0 -52 21.5t-15 49.5q0 15 3.5 30.5t8.5 28.5l67 171q3 8 3 14q0 10 -5 17.5l-7 10.5l55 2q15 1 21.5 -3.5t6.5 -10.5t-7 -22q-10 -24 -27 -60t-33.5 -74t-28 -71t-11.5 -51q0 -13 6.5 -22t22.5 -9q21 0 41.5 16.5t38.5 42.5t33.5 56t26.5 56q12 0 12 -9
q-10 -25 -26 -57t-36.5 -60.5t-45 -47.5t-52.5 -19zM166 395q-6 6 -20 21.5t-30.5 34.5t-29.5 36.5t-18 26.5q6 24 14.5 29.5t15.5 3.5l83 -149q-1 -7 -15 -3z" />
    <glyph glyph-name="iacute" unicode="&#xed;" horiz-adv-x="176" 
d="M87 0q-37 0 -52 21.5t-15 49.5q0 15 3.5 30.5t8.5 28.5l67 171q3 8 3 14q0 10 -5 17.5l-7 10.5l55 2q15 1 21.5 -3.5t6.5 -10.5t-7 -22q-10 -24 -27 -60t-33.5 -74t-28 -71t-11.5 -51q0 -13 6.5 -22t22.5 -9q21 0 41.5 16.5t38.5 42.5t33.5 56t26.5 56q12 0 12 -9
q-10 -25 -26 -57t-36.5 -60.5t-45 -47.5t-52.5 -19zM150 397q-7 0 -12 2t-5 7q31 29 61 59.5t59 61.5q8 0 15.5 -8.5t7.5 -33.5q-9 -8 -26 -20.5t-36.5 -26.5t-37 -25t-26.5 -16z" />
    <glyph glyph-name="icircumflex" unicode="&#xee;" horiz-adv-x="176" 
d="M87 0q-37 0 -52 21.5t-15 49.5q0 15 3.5 30.5t8.5 28.5l67 171q3 8 3 14q0 10 -5 17.5l-7 10.5l55 2q15 1 21.5 -3.5t6.5 -10.5t-7 -22q-10 -24 -27 -60t-33.5 -74t-28 -71t-11.5 -51q0 -13 6.5 -22t22.5 -9q21 0 41.5 16.5t38.5 42.5t33.5 56t26.5 56q12 0 12 -9
q-10 -25 -26 -57t-36.5 -60.5t-45 -47.5t-52.5 -19zM248 410q-12 0 -15 5l-46 63l-101 -61q-4 -2 -8.5 -4t-9.5 -2q-9 0 -11 5l121 107q8 5 22 5q10 0 15 -5l38 -108q0 -1 0.5 -1.5l0.5 -0.5q0 -3 -6 -3z" />
    <glyph glyph-name="idieresis" unicode="&#xef;" horiz-adv-x="176" 
d="M87 0q-37 0 -52 21.5t-15 49.5q0 15 3.5 30.5t8.5 28.5l67 171q3 8 3 14q0 10 -5 17.5l-7 10.5l55 2q15 1 21.5 -3.5t6.5 -10.5t-7 -22q-10 -24 -27 -60t-33.5 -74t-28 -71t-11.5 -51q0 -13 6.5 -22t22.5 -9q21 0 41.5 16.5t38.5 42.5t33.5 56t26.5 56q12 0 12 -9
q-10 -25 -26 -57t-36.5 -60.5t-45 -47.5t-52.5 -19zM218 403q-13 0 -21.5 9.5t-8.5 22.5q0 17 13 29t29 12q14 0 23 -8.5t9 -21.5q0 -16 -13 -29.5t-31 -13.5zM106 403q-13 0 -21.5 9.5t-8.5 22.5q0 17 13 29t29 12q14 0 23 -8.5t9 -21.5q0 -16 -13 -29.5t-31 -13.5z" />
    <glyph glyph-name="eth" unicode="&#xf0;" horiz-adv-x="310" 
d="M112 -5q-38 0 -57 17t-25 41t-6 45q0 36 15 79.5t42.5 82.5t65.5 64t83 25q25 0 42 -22t19 -70q8 44 8 91q0 56 -7.5 102t-24.5 79l-83 -56q-3 5 -5 14.5t8 16.5l68 46q-39 58 -112 58q-10 0 -18.5 -2t-17.5 -2q-4 0 -8 1.5t-4 5.5q0 6 11.5 9t26 4t21.5 1q48 0 80.5 -14
t54.5 -38l65 44q2 -3 6 -13t-9 -19l-48 -32q25 -38 32.5 -87.5t7.5 -99.5q0 -67 -16.5 -133t-47.5 -120t-73.5 -86t-93.5 -32zM116 11q23 0 50 23t50.5 60t38.5 79.5t15 82.5t-10 57.5t-30 17.5t-41 -19.5t-40.5 -50t-35 -66t-24.5 -67.5t-9 -54q0 -29 8.5 -46t27.5 -17z
" />
    <glyph glyph-name="ntilde" unicode="&#xf1;" horiz-adv-x="338" 
d="M-37 -8q36 73 69 144.5t68 136.5q20 36 34 50.5t37 14.5q8 0 17 -2.5t18 -2.5q6 0 9 1q-14 -8 -36.5 -39.5t-45.5 -72.5t-41 -77q19 23 40 46t46 44q24 21 57.5 43.5t65.5 37.5t51 15q7 0 10 -1l-11 -19.5t-27.5 -51t-33.5 -67t-30.5 -68t-17.5 -54.5q-3 -13 -3 -24
q0 -16 6 -21t13 -5q19 0 39 17t38.5 43.5t34.5 56.5t27 56q12 0 12 -9q-11 -27 -27.5 -59.5t-37 -61.5t-45.5 -48t-54 -19q-20 0 -41.5 14t-21.5 52q0 11 2 23.5t7 27.5q8 20 19 43t36 63q7 11 8.5 17t1.5 10q0 12 -11 12q-9 0 -26.5 -10t-43.5 -35q-25 -24 -59.5 -68
t-79.5 -130q-7 -13 -15.5 -14t-23.5 -2q-10 -1 -19 -1.5t-15 -5.5zM316 398q-17 0 -35 7.5t-34 15t-28 7.5q-13 0 -22 -7t-15 -17q-1 -3 -6 -3q-12 0 -10 5q10 19 27 39.5t41 20.5q19 0 35 -7.5l32 -15t33 -7.5q14 0 22 8t14 21q2 3 6 3q11 0 9 -5q-9 -21 -26.5 -43
t-42.5 -22z" />
    <glyph glyph-name="ograve" unicode="&#xf2;" horiz-adv-x="338" 
d="M119 0q-41 0 -60.5 29.5t-19.5 71.5q0 39 15 81q16 46 44.5 84t63 61.5t68.5 23.5q41 0 60.5 -28t19.5 -71q0 -30 -10 -63t-27 -65q13 -13 37 -13q28 0 48 18t39 64q12 0 12 -9q-19 -46 -43.5 -67.5t-62.5 -20.5q-23 0 -38 13q-28 -46 -66.5 -77.5t-79.5 -31.5zM133 22
q23 0 46 19.5t42 44.5t27 43q-16 29 -18.5 43.5t-2.5 21.5q0 19 10 29t20 10q14 0 24 -12q2 11 3 20.5t1 18.5q0 26 -9.5 42.5t-29.5 16.5q-21 0 -44 -18t-43.5 -48t-35.5 -67q-13 -31 -20 -58.5t-7 -50.5q0 -25 9 -40t28 -15zM264 394q-6 6 -20 21.5t-30.5 34.5t-29.5 36.5
t-18 26.5q6 24 14.5 29.5t15.5 3.5l83 -149q-1 -7 -15 -3z" />
    <glyph glyph-name="oacute" unicode="&#xf3;" horiz-adv-x="338" 
d="M119 0q-41 0 -60.5 29.5t-19.5 71.5q0 39 15 81q16 46 44.5 84t63 61.5t68.5 23.5q41 0 60.5 -28t19.5 -71q0 -30 -10 -63t-27 -65q13 -13 37 -13q28 0 48 18t39 64q12 0 12 -9q-19 -46 -43.5 -67.5t-62.5 -20.5q-23 0 -38 13q-28 -46 -66.5 -77.5t-79.5 -31.5zM133 22
q23 0 46 19.5t42 44.5t27 43q-16 29 -18.5 43.5t-2.5 21.5q0 19 10 29t20 10q14 0 24 -12q2 11 3 20.5t1 18.5q0 26 -9.5 42.5t-29.5 16.5q-21 0 -44 -18t-43.5 -48t-35.5 -67q-13 -31 -20 -58.5t-7 -50.5q0 -25 9 -40t28 -15zM248 396q-7 0 -12 2t-5 7q31 29 61 59.5
t59 61.5q8 0 15.5 -8.5t7.5 -33.5q-9 -8 -26 -20.5t-36.5 -26.5t-37 -25t-26.5 -16z" />
    <glyph glyph-name="ocircumflex" unicode="&#xf4;" horiz-adv-x="338" 
d="M119 0q-41 0 -60.5 29.5t-19.5 71.5q0 39 15 81q16 46 44.5 84t63 61.5t68.5 23.5q41 0 60.5 -28t19.5 -71q0 -30 -10 -63t-27 -65q13 -13 37 -13q28 0 48 18t39 64q12 0 12 -9q-19 -46 -43.5 -67.5t-62.5 -20.5q-23 0 -38 13q-28 -46 -66.5 -77.5t-79.5 -31.5zM133 22
q23 0 46 19.5t42 44.5t27 43q-16 29 -18.5 43.5t-2.5 21.5q0 19 10 29t20 10q14 0 24 -12q2 11 3 20.5t1 18.5q0 26 -9.5 42.5t-29.5 16.5q-21 0 -44 -18t-43.5 -48t-35.5 -67q-13 -31 -20 -58.5t-7 -50.5q0 -25 9 -40t28 -15zM346 409q-12 0 -15 5l-46 63l-101 -61
q-4 -2 -8.5 -4t-9.5 -2q-9 0 -11 5l121 107q8 5 22 5q10 0 15 -5l38 -108q0 -1 0.5 -1.5l0.5 -0.5q0 -3 -6 -3z" />
    <glyph glyph-name="otilde" unicode="&#xf5;" horiz-adv-x="338" 
d="M119 0q-41 0 -60.5 29.5t-19.5 71.5q0 39 15 81q16 46 44.5 84t63 61.5t68.5 23.5q41 0 60.5 -28t19.5 -71q0 -30 -10 -63t-27 -65q13 -13 37 -13q28 0 48 18t39 64q12 0 12 -9q-19 -46 -43.5 -67.5t-62.5 -20.5q-23 0 -38 13q-28 -46 -66.5 -77.5t-79.5 -31.5zM133 22
q23 0 46 19.5t42 44.5t27 43q-16 29 -18.5 43.5t-2.5 21.5q0 19 10 29t20 10q14 0 24 -12q2 11 3 20.5t1 18.5q0 26 -9.5 42.5t-29.5 16.5q-21 0 -44 -18t-43.5 -48t-35.5 -67q-13 -31 -20 -58.5t-7 -50.5q0 -25 9 -40t28 -15zM306 397q-17 0 -35 7.5t-34 15t-28 7.5
q-13 0 -22 -7t-15 -17q-1 -3 -6 -3q-12 0 -10 5q10 19 27 39.5t41 20.5q19 0 35 -7.5l32 -15t33 -7.5q14 0 22 8t14 21q2 3 6 3q11 0 9 -5q-9 -21 -26.5 -43t-42.5 -22z" />
    <glyph glyph-name="odieresis" unicode="&#xf6;" horiz-adv-x="338" 
d="M119 0q-41 0 -60.5 29.5t-19.5 71.5q0 39 15 81q16 46 44.5 84t63 61.5t68.5 23.5q41 0 60.5 -28t19.5 -71q0 -30 -10 -63t-27 -65q13 -13 37 -13q28 0 48 18t39 64q12 0 12 -9q-19 -46 -43.5 -67.5t-62.5 -20.5q-23 0 -38 13q-28 -46 -66.5 -77.5t-79.5 -31.5zM133 22
q23 0 46 19.5t42 44.5t27 43q-16 29 -18.5 43.5t-2.5 21.5q0 19 10 29t20 10q14 0 24 -12q2 11 3 20.5t1 18.5q0 26 -9.5 42.5t-29.5 16.5q-21 0 -44 -18t-43.5 -48t-35.5 -67q-13 -31 -20 -58.5t-7 -50.5q0 -25 9 -40t28 -15zM316 402q-13 0 -21.5 9.5t-8.5 22.5
q0 17 13 29t29 12q14 0 23 -8.5t9 -21.5q0 -16 -13 -29.5t-31 -13.5zM204 402q-13 0 -21.5 9.5t-8.5 22.5q0 17 13 29t29 12q14 0 23 -8.5t9 -21.5q0 -16 -13 -29.5t-31 -13.5z" />
    <glyph glyph-name="divide" unicode="&#xf7;" horiz-adv-x="343" 
d="M209 310q-13 0 -21.5 8.5t-8.5 21.5q0 17 13.5 30t29.5 13q12 0 20.5 -8.5t8.5 -21.5q0 -17 -12.5 -30t-29.5 -13zM58 232q-4 0 -4 3q0 8 5 17.5t22 9.5h235q5 0 5 -4q0 -11 -6 -18.5t-23 -7.5h-234zM166 114q-13 0 -21.5 9t-8.5 22q0 18 13 30.5t30 12.5q13 0 22.5 -9
t6.5 -28q-1 -16 -14.5 -26.5t-27.5 -10.5z" />
    <glyph glyph-name="oslash" unicode="&#xf8;" horiz-adv-x="339" 
d="M119 0q-41 0 -60.5 29.5t-19.5 71.5q0 39 15 81q16 46 44.5 84t63 61.5t68.5 23.5q41 0 60.5 -28t19.5 -71q0 -30 -10 -63t-27 -65q13 -13 37 -13q28 0 48 18t39 64q12 0 12 -9q-19 -46 -43.5 -67.5t-62.5 -20.5q-23 0 -38 13q-28 -46 -66.5 -77.5t-79.5 -31.5zM133 22
q23 0 46 19.5t42 44.5t27 43q-16 29 -18.5 43.5t-2.5 21.5q0 19 10 29t20 10q14 0 24 -12q2 11 3 20.5t1 18.5q0 26 -9.5 42.5t-29.5 16.5q-21 0 -44 -18t-43.5 -48t-35.5 -67q-13 -31 -20 -58.5t-7 -50.5q0 -25 9 -40t28 -15zM43 -55l248 465q5 10 11 13t11 3t9.5 -2
t6.5 -3l-247 -465q-5 -9 -11.5 -12t-11.5 -3q-10 0 -16 4z" />
    <glyph glyph-name="ugrave" unicode="&#xf9;" horiz-adv-x="356" 
d="M88 0q-11 0 -26.5 5t-27 18.5t-11.5 40.5q0 26 17 60l30 60q-11 0 -11 9q1 3 9 19l19 38t21.5 42.5t16.5 31.5q12 22 38 22h62q-17 -13 -30.5 -28.5t-33.5 -56.5l-7 -14t-17.5 -35.5t-21 -43.5t-17.5 -37q-13 -28 -17 -44.5t-4 -30.5q0 -33 22 -33q24 0 58 39
q28 33 55 79t51.5 95t43.5 88q11 22 39 22h55q-22 -18 -44.5 -54t-49.5 -92q-7 -15 -18 -38t-19.5 -49t-8.5 -52q0 -35 25 -35q34 0 66 47t63 120q8 0 9.5 -1t2.5 -8q-11 -27 -26.5 -58.5t-35 -60.5t-43 -47t-51.5 -18q-25 0 -41 18.5t-16 52.5q0 27 10 58q-17 -30 -39 -60
t-47 -49.5t-50 -19.5zM291 395q-6 6 -20 21.5t-30.5 34.5t-29.5 36.5t-18 26.5q6 24 14.5 29.5t15.5 3.5l83 -149q-1 -7 -15 -3z" />
    <glyph glyph-name="uacute" unicode="&#xfa;" horiz-adv-x="356" 
d="M88 0q-11 0 -26.5 5t-27 18.5t-11.5 40.5q0 26 17 60l30 60q-11 0 -11 9q1 3 9 19l19 38t21.5 42.5t16.5 31.5q12 22 38 22h62q-17 -13 -30.5 -28.5t-33.5 -56.5l-7 -14t-17.5 -35.5t-21 -43.5t-17.5 -37q-13 -28 -17 -44.5t-4 -30.5q0 -33 22 -33q24 0 58 39
q28 33 55 79t51.5 95t43.5 88q11 22 39 22h55q-22 -18 -44.5 -54t-49.5 -92q-7 -15 -18 -38t-19.5 -49t-8.5 -52q0 -35 25 -35q34 0 66 47t63 120q8 0 9.5 -1t2.5 -8q-11 -27 -26.5 -58.5t-35 -60.5t-43 -47t-51.5 -18q-25 0 -41 18.5t-16 52.5q0 27 10 58q-17 -30 -39 -60
t-47 -49.5t-50 -19.5zM275 397q-7 0 -12 2t-5 7q31 29 61 59.5t59 61.5q8 0 15.5 -8.5t7.5 -33.5q-9 -8 -26 -20.5t-36.5 -26.5t-37 -25t-26.5 -16z" />
    <glyph glyph-name="ucircumflex" unicode="&#xfb;" horiz-adv-x="356" 
d="M88 0q-11 0 -26.5 5t-27 18.5t-11.5 40.5q0 26 17 60l30 60q-11 0 -11 9q1 3 9 19l19 38t21.5 42.5t16.5 31.5q12 22 38 22h62q-17 -13 -30.5 -28.5t-33.5 -56.5l-7 -14t-17.5 -35.5t-21 -43.5t-17.5 -37q-13 -28 -17 -44.5t-4 -30.5q0 -33 22 -33q24 0 58 39
q28 33 55 79t51.5 95t43.5 88q11 22 39 22h55q-22 -18 -44.5 -54t-49.5 -92q-7 -15 -18 -38t-19.5 -49t-8.5 -52q0 -35 25 -35q34 0 66 47t63 120q8 0 9.5 -1t2.5 -8q-11 -27 -26.5 -58.5t-35 -60.5t-43 -47t-51.5 -18q-25 0 -41 18.5t-16 52.5q0 27 10 58q-17 -30 -39 -60
t-47 -49.5t-50 -19.5zM373 410q-12 0 -15 5l-46 63l-101 -61q-4 -2 -8.5 -4t-9.5 -2q-9 0 -11 5l121 107q8 5 22 5q10 0 15 -5l38 -108q0 -1 0.5 -1.5l0.5 -0.5q0 -3 -6 -3z" />
    <glyph glyph-name="udieresis" unicode="&#xfc;" horiz-adv-x="356" 
d="M88 0q-11 0 -26.5 5t-27 18.5t-11.5 40.5q0 26 17 60l30 60q-11 0 -11 9q1 3 9 19l19 38t21.5 42.5t16.5 31.5q12 22 38 22h62q-17 -13 -30.5 -28.5t-33.5 -56.5l-7 -14t-17.5 -35.5t-21 -43.5t-17.5 -37q-13 -28 -17 -44.5t-4 -30.5q0 -33 22 -33q24 0 58 39
q28 33 55 79t51.5 95t43.5 88q11 22 39 22h55q-22 -18 -44.5 -54t-49.5 -92q-7 -15 -18 -38t-19.5 -49t-8.5 -52q0 -35 25 -35q34 0 66 47t63 120q8 0 9.5 -1t2.5 -8q-11 -27 -26.5 -58.5t-35 -60.5t-43 -47t-51.5 -18q-25 0 -41 18.5t-16 52.5q0 27 10 58q-17 -30 -39 -60
t-47 -49.5t-50 -19.5zM343 403q-13 0 -21.5 9.5t-8.5 22.5q0 17 13 29t29 12q14 0 23 -8.5t9 -21.5q0 -16 -13 -29.5t-31 -13.5zM231 403q-13 0 -21.5 9.5t-8.5 22.5q0 17 13 29t29 12q14 0 23 -8.5t9 -21.5q0 -16 -13 -29.5t-31 -13.5z" />
    <glyph glyph-name="yacute" unicode="&#xfd;" horiz-adv-x="381" 
d="M-79 -319q-52 0 -74 20.5t-22 48.5q0 43 31.5 79.5t77.5 58.5q52 24 118.5 39t127.5 33q19 33 35 75.5t29 83t21 66.5q-12 -22 -30.5 -53.5t-41.5 -61.5t-49.5 -50t-55.5 -20q-11 0 -26.5 5t-27 18.5t-11.5 40.5q0 26 16 57.5t32 62.5q-5 0 -8.5 1t-3.5 8q3 6 12 26
t20.5 44t20.5 42q11 23 24.5 32t26.5 9h62q-7 -6 -17.5 -13.5t-19.5 -22.5q-27 -46 -47 -88.5t-43 -90.5q-11 -23 -16 -42t-5 -33q0 -33 22 -33q24 0 58 39q28 33 56.5 78.5t55 94t46.5 89.5q11 22 39 22h55q-29 -20 -44.5 -52t-34.5 -82q-21 -55 -40 -114t-42 -121
q49 17 82 44t58.5 69.5t51.5 102.5q12 0 12 -9q-22 -46 -40 -81t-40 -61.5t-55 -49t-85 -43.5q-24 -43 -54.5 -89.5t-69 -87t-85 -66t-102.5 -25.5zM-103 -299q33 0 68 20t68 50.5t60.5 62t44.5 55.5q5 7 11 18t12 21q-49 -13 -107.5 -28.5t-101.5 -34.5q-48 -20 -75.5 -57
t-27.5 -66q0 -18 11.5 -29.5t36.5 -11.5zM272 397q-7 0 -12 2t-5 7q31 29 61 59.5t59 61.5q8 0 15.5 -8.5t7.5 -33.5q-9 -8 -26 -20.5t-36.5 -26.5t-37 -25t-26.5 -16z" />
    <glyph glyph-name="thorn" unicode="&#xfe;" horiz-adv-x="319" 
d="M-144 -276q-10 0 -22 3.5t-23 1.5q7 8 25.5 36.5t42.5 69.5t48.5 85.5t45.5 84.5t33 65q34 71 62.5 145t50 142.5t37 124.5t23 93.5t7.5 47.5q6 -9 19.5 -8.5t20.5 -6.5q20 -17 20 -41q0 -15 -8 -44l-127 -341q11 18 28.5 46t39.5 56.5t46.5 48t49.5 19.5q5 0 13 -2
q27 -7 38.5 -28t11.5 -49q0 -30 -11.5 -66t-30.5 -70.5t-42 -62.5q-26 -31 -65.5 -54t-82.5 -23q-36 0 -68 19l-117 -240q-15 -31 -29 -41.5t-36 -10.5zM76 19q28 0 62.5 26t67 66.5t55.5 81.5q15 27 21.5 50t6.5 40q0 40 -28 40q-13 0 -33.5 -14t-46.5 -51
q-31 -43 -65.5 -102t-69.5 -125q12 -12 30 -12z" />
    <glyph glyph-name="ydieresis" unicode="&#xff;" horiz-adv-x="381" 
d="M-79 -319q-52 0 -74 20.5t-22 48.5q0 43 31.5 79.5t77.5 58.5q52 24 118.5 39t127.5 33q19 33 35 75.5t29 83t21 66.5q-12 -22 -30.5 -53.5t-41.5 -61.5t-49.5 -50t-55.5 -20q-11 0 -26.5 5t-27 18.5t-11.5 40.5q0 26 16 57.5t32 62.5q-5 0 -8.5 1t-3.5 8q3 6 12 26
t20.5 44t20.5 42q11 23 24.5 32t26.5 9h62q-7 -6 -17.5 -13.5t-19.5 -22.5q-27 -46 -47 -88.5t-43 -90.5q-11 -23 -16 -42t-5 -33q0 -33 22 -33q24 0 58 39q28 33 56.5 78.5t55 94t46.5 89.5q11 22 39 22h55q-29 -20 -44.5 -52t-34.5 -82q-21 -55 -40 -114t-42 -121
q49 17 82 44t58.5 69.5t51.5 102.5q12 0 12 -9q-22 -46 -40 -81t-40 -61.5t-55 -49t-85 -43.5q-24 -43 -54.5 -89.5t-69 -87t-85 -66t-102.5 -25.5zM-103 -299q33 0 68 20t68 50.5t60.5 62t44.5 55.5q5 7 11 18t12 21q-49 -13 -107.5 -28.5t-101.5 -34.5q-48 -20 -75.5 -57
t-27.5 -66q0 -18 11.5 -29.5t36.5 -11.5zM340 403q-13 0 -21.5 9.5t-8.5 22.5q0 17 13 29t29 12q14 0 23 -8.5t9 -21.5q0 -16 -13 -29.5t-31 -13.5zM228 403q-13 0 -21.5 9.5t-8.5 22.5q0 17 13 29t29 12q14 0 23 -8.5t9 -21.5q0 -16 -13 -29.5t-31 -13.5z" />
    <glyph glyph-name="Amacron" unicode="&#x100;" horiz-adv-x="716" 
d="M545 -64q-44 0 -62 34.5t-18 80.5q0 41 11.5 81t27.5 61q-27 -32 -67 -73t-88 -79t-99 -63t-101 -25q-66 0 -98.5 42t-32.5 115q0 57 19.5 122.5t57.5 133.5q18 33 40.5 65.5t48.5 61.5q-31 15 -60 33.5t-47 44.5t-18 62q0 19 8.5 34.5t18.5 15.5q9 0 9 -11q0 -7 -4 -15
q-5 -13 -5 -24q0 -27 19 -50.5t46 -40.5t50 -27q64 70 140.5 129.5t164.5 95.5t185 36q81 0 127 -35.5t46 -91.5q0 -50 -28.5 -85.5t-74.5 -59t-99.5 -37t-105.5 -19t-91 -5.5q-57 0 -110.5 7t-106.5 22q-26 -37 -56.5 -85.5t-58 -102t-45 -106t-17.5 -97.5q0 -49 23 -73.5
t62 -24.5q47 0 99.5 28.5t105.5 74.5t101 100t86 107t60 94q17 32 33 45.5t27 13.5t17 -8.5t6 -22.5q0 -28 -25 -56q-34 -39 -66 -94.5t-52 -116t-20 -113.5q0 -37 11.5 -53t30.5 -16q29 0 58.5 19.5t56.5 52.5t50 73.5t40 81.5q5 0 8.5 -1t3.5 -8q-17 -43 -40.5 -87
t-53.5 -80.5t-67 -58.5t-81 -22zM456 467q40 0 89 4.5t97.5 16.5t89.5 34t66 56t25 83q0 44 -36.5 67t-92.5 23q-93 0 -169.5 -36.5t-140 -95.5t-120.5 -127q44 -13 90.5 -19t101.5 -6zM661 845q0 8 7.5 17t20.5 14l210 4q0 -5 -6 -17.5t-21 -17.5h-211z" />
    <glyph glyph-name="amacron" unicode="&#x101;" horiz-adv-x="358" 
d="M276 -3q-23 0 -40.5 13t-17.5 53q0 17 2.5 32t6.5 32q-9 -15 -25 -37t-35.5 -43t-40 -35t-38.5 -14q-26 0 -42 23.5t-16 61.5q0 41 19 88t52 90t76 70t90 27q23 0 44 -7.5t37 -24.5q7 -7 7 -16q0 -6 -5 -10t-13 -2q-11 35 -47 35q-17 0 -39 -11q-27 -14 -57.5 -44.5
t-57 -69t-43.5 -77.5t-17 -71q0 -33 25 -33q22 0 45.5 21t45 52.5t39.5 62.5t28 50q15 27 28 45t37 18q11 0 22 -3t23 -1q-30 -30 -52.5 -71t-34.5 -80.5t-12 -66.5q0 -30 20 -30q16 0 34.5 18t36 45.5t32.5 56t24 49.5q5 0 8.5 -1t3.5 -8q-1 -4 -3.5 -8.5t-7.5 -15.5
q-8 -16 -22 -43t-33 -54.5t-41 -46.5t-46 -19zM231 423q0 9 7.5 20t26.5 15l147 2q0 -5 -4.5 -18.5t-19.5 -18.5h-157z" />
    <glyph glyph-name="Abreve" unicode="&#x102;" horiz-adv-x="716" 
d="M545 -64q-44 0 -62 34.5t-18 80.5q0 41 11.5 81t27.5 61q-27 -32 -67 -73t-88 -79t-99 -63t-101 -25q-66 0 -98.5 42t-32.5 115q0 57 19.5 122.5t57.5 133.5q18 33 40.5 65.5t48.5 61.5q-31 15 -60 33.5t-47 44.5t-18 62q0 19 8.5 34.5t18.5 15.5q9 0 9 -11q0 -7 -4 -15
q-5 -13 -5 -24q0 -27 19 -50.5t46 -40.5t50 -27q64 70 140.5 129.5t164.5 95.5t185 36q81 0 127 -35.5t46 -91.5q0 -50 -28.5 -85.5t-74.5 -59t-99.5 -37t-105.5 -19t-91 -5.5q-57 0 -110.5 7t-106.5 22q-26 -37 -56.5 -85.5t-58 -102t-45 -106t-17.5 -97.5q0 -49 23 -73.5
t62 -24.5q47 0 99.5 28.5t105.5 74.5t101 100t86 107t60 94q17 32 33 45.5t27 13.5t17 -8.5t6 -22.5q0 -28 -25 -56q-34 -39 -66 -94.5t-52 -116t-20 -113.5q0 -37 11.5 -53t30.5 -16q29 0 58.5 19.5t56.5 52.5t50 73.5t40 81.5q5 0 8.5 -1t3.5 -8q-17 -43 -40.5 -87
t-53.5 -80.5t-67 -58.5t-81 -22zM456 467q40 0 89 4.5t97.5 16.5t89.5 34t66 56t25 83q0 44 -36.5 67t-92.5 23q-93 0 -169.5 -36.5t-140 -95.5t-120.5 -127q44 -13 90.5 -19t101.5 -6zM771 826q-46 0 -69.5 22t-23.5 57q0 15 8.5 20t12.5 5q0 -28 20 -45.5t58 -17.5
q31 0 53 12.5t36 28t19 24.5q12 0 12 -10q0 -6 -10 -23q-19 -31 -45.5 -52t-70.5 -21z" />
    <glyph glyph-name="abreve" unicode="&#x103;" horiz-adv-x="358" 
d="M276 -3q-23 0 -40.5 13t-17.5 53q0 17 2.5 32t6.5 32q-9 -15 -25 -37t-35.5 -43t-40 -35t-38.5 -14q-26 0 -42 23.5t-16 61.5q0 41 19 88t52 90t76 70t90 27q23 0 44 -7.5t37 -24.5q7 -7 7 -16q0 -6 -5 -10t-13 -2q-11 35 -47 35q-17 0 -39 -11q-27 -14 -57.5 -44.5
t-57 -69t-43.5 -77.5t-17 -71q0 -33 25 -33q22 0 45.5 21t45 52.5t39.5 62.5t28 50q15 27 28 45t37 18q11 0 22 -3t23 -1q-30 -30 -52.5 -71t-34.5 -80.5t-12 -66.5q0 -30 20 -30q16 0 34.5 18t36 45.5t32.5 56t24 49.5q5 0 8.5 -1t3.5 -8q-1 -4 -3.5 -8.5t-7.5 -15.5
q-8 -16 -22 -43t-33 -54.5t-41 -46.5t-46 -19zM300 409q-43 0 -63 22.5t-20 56.5q0 15 8.5 20t12.5 5q0 -25 18 -43.5t49 -18.5q30 0 51.5 12t34.5 27t18 23q12 0 12 -10q0 -6 -10 -23q-19 -31 -44 -51t-67 -20z" />
    <glyph glyph-name="Aogonek" unicode="&#x104;" horiz-adv-x="716" 
d="M545 -64q-44 0 -62 34.5t-18 80.5q0 41 11.5 81t27.5 61q-27 -32 -67 -73t-88 -79t-99 -63t-101 -25q-66 0 -98.5 42t-32.5 115q0 57 19.5 122.5t57.5 133.5q18 33 40.5 65.5t48.5 61.5q-31 15 -60 33.5t-47 44.5t-18 62q0 19 8.5 34.5t18.5 15.5q9 0 9 -11q0 -7 -4 -15
q-5 -13 -5 -24q0 -27 19 -50.5t46 -40.5t50 -27q64 70 140.5 129.5t164.5 95.5t185 36q81 0 127 -35.5t46 -91.5q0 -50 -28.5 -85.5t-74.5 -59t-99.5 -37t-105.5 -19t-91 -5.5q-57 0 -110.5 7t-106.5 22q-26 -37 -56.5 -85.5t-58 -102t-45 -106t-17.5 -97.5q0 -49 23 -73.5
t62 -24.5q47 0 99.5 28.5t105.5 74.5t101 100t86 107t60 94q17 32 33 45.5t27 13.5t17 -8.5t6 -22.5q0 -28 -25 -56q-34 -39 -66 -94.5t-52 -116t-20 -113.5q0 -37 11.5 -53t30.5 -16q29 0 58.5 19.5t56.5 52.5t50 73.5t40 81.5q5 0 8.5 -1t3.5 -8q-17 -43 -40.5 -87
t-53.5 -80.5t-67 -58.5t-81 -22zM456 467q40 0 89 4.5t97.5 16.5t89.5 34t66 56t25 83q0 44 -36.5 67t-92.5 23q-93 0 -169.5 -36.5t-140 -95.5t-120.5 -127q44 -13 90.5 -19t101.5 -6zM466 -242q-19 0 -33.5 10.5t-14.5 34.5q0 36 22.5 65t53 50t55.5 32q6 0 6 -11
q-40 -31 -63 -61.5t-23 -56.5q0 -13 5.5 -23.5t23.5 -10.5q14 0 27.5 10.5t23.5 20.5q2 1 6 0.5t4 -5.5q-10 -19 -32.5 -37t-60.5 -18z" />
    <glyph glyph-name="aogonek" unicode="&#x105;" horiz-adv-x="358" 
d="M276 -3q-23 0 -40.5 13t-17.5 53q0 17 2.5 32t6.5 32q-9 -15 -25 -37t-35.5 -43t-40 -35t-38.5 -14q-26 0 -42 23.5t-16 61.5q0 41 19 88t52 90t76 70t90 27q23 0 44 -7.5t37 -24.5q7 -7 7 -16q0 -6 -5 -10t-13 -2q-11 35 -47 35q-17 0 -39 -11q-27 -14 -57.5 -44.5
t-57 -69t-43.5 -77.5t-17 -71q0 -33 25 -33q22 0 45.5 21t45 52.5t39.5 62.5t28 50q15 27 28 45t37 18q11 0 22 -3t23 -1q-30 -30 -52.5 -71t-34.5 -80.5t-12 -66.5q0 -30 20 -30q16 0 34.5 18t36 45.5t32.5 56t24 49.5q5 0 8.5 -1t3.5 -8q-1 -4 -3.5 -8.5t-7.5 -15.5
q-8 -16 -22 -43t-33 -54.5t-41 -46.5t-46 -19zM204 -170q-19 0 -33.5 10.5t-14.5 34.5q0 36 22.5 65t53 50t55.5 32q6 0 6 -11q-40 -31 -63 -61.5t-23 -56.5q0 -13 5.5 -23.5t23.5 -10.5q14 0 27.5 10.5t23.5 20.5q2 1 6 0.5t4 -5.5q-10 -19 -32.5 -37t-60.5 -18z" />
    <glyph glyph-name="Cacute" unicode="&#x106;" horiz-adv-x="714" 
d="M371 -107q-91 0 -161.5 36.5t-110 108t-39.5 175.5q0 62 16 124t43.5 119t61.5 105q-15 60 -15 130q0 53 12 101q4 14 14 14q8 0 7 -10q-3 -20 -5 -42.5t-2 -53.5q0 -58 11 -110q10 13 20 24q41 45 97 84.5t124.5 63.5t145.5 24q72 0 132 -26.5t96.5 -76t36.5 -119.5
q0 -44 -23.5 -90t-67 -84.5t-105 -62.5t-137.5 -24q-100 0 -183 44t-129 134q-40 -71 -59 -144t-19 -139q0 -96 32 -156t88.5 -88.5t129.5 -28.5q130 0 228.5 65.5t162.5 202.5q12 0 12 -9q-62 -148 -169.5 -219.5t-244.5 -71.5zM253 548q-13 -18 -25 -37q35 -82 107 -132
t181 -50q69 0 123.5 21t92 56t57.5 77.5t20 85.5q0 53 -28.5 93t-77.5 62.5t-111 22.5t-124.5 -26t-118 -71t-96.5 -102zM606 842q-7 2 -12.5 4.5t-5.5 9.5q39 26 79 57t76 61q8 0 15.5 -9t5.5 -34q-10 -7 -31.5 -20t-46.5 -26.5t-46.5 -25t-33.5 -17.5z" />
    <glyph glyph-name="cacute" unicode="&#x107;" horiz-adv-x="263" 
d="M145 -4q-55 0 -81.5 29t-26.5 78q0 23 9 53t24 61t33 55q29 39 64 60.5t71 21.5q38 0 54.5 -16.5t16.5 -38.5q0 -21 -10 -37.5t-22.5 -26.5t-21.5 -10q-8 0 -14 6q8 10 17 24t13 27q4 12 4 24q0 26 -24 26q-29 0 -56.5 -24t-50 -61.5t-36 -79t-13.5 -76.5q0 -32 13.5 -53
t44.5 -21q41 0 72 26.5t55 67t42 82.5q4 0 8 -1.5t4 -7.5q-20 -50 -47 -93t-61.5 -69t-80.5 -26zM251 397q-7 0 -12 2t-5 7q31 29 61 59.5t59 61.5q8 0 15.5 -8.5t7.5 -33.5q-9 -8 -26 -20.5t-36.5 -26.5t-37 -25t-26.5 -16z" />
    <glyph glyph-name="Ccircumflex" unicode="&#x108;" horiz-adv-x="714" 
d="M371 -107q-91 0 -161.5 36.5t-110 108t-39.5 175.5q0 62 16 124t43.5 119t61.5 105q-15 60 -15 130q0 53 12 101q4 14 14 14q8 0 7 -10q-3 -20 -5 -42.5t-2 -53.5q0 -58 11 -110q10 13 20 24q41 45 97 84.5t124.5 63.5t145.5 24q72 0 132 -26.5t96.5 -76t36.5 -119.5
q0 -44 -23.5 -90t-67 -84.5t-105 -62.5t-137.5 -24q-100 0 -183 44t-129 134q-40 -71 -59 -144t-19 -139q0 -96 32 -156t88.5 -88.5t129.5 -28.5q130 0 228.5 65.5t162.5 202.5q12 0 12 -9q-62 -148 -169.5 -219.5t-244.5 -71.5zM253 548q-13 -18 -25 -37q35 -82 107 -132
t181 -50q69 0 123.5 21t92 56t57.5 77.5t20 85.5q0 53 -28.5 93t-77.5 62.5t-111 22.5t-124.5 -26t-118 -71t-96.5 -102zM695 969q14 0 18 -4l44 -104q0 -1 0.5 -1.5l0.5 -0.5q0 -3 -8 -3q-4 0 -9.5 1.5t-7.5 3.5l-56 57l-126 -57q-7 -6 -22 -6q-5 0 -9 2t-1 4l148 104
q5 2 11.5 3t16.5 1z" />
    <glyph glyph-name="ccircumflex" unicode="&#x109;" horiz-adv-x="263" 
d="M145 -4q-55 0 -81.5 29t-26.5 78q0 23 9 53t24 61t33 55q29 39 64 60.5t71 21.5q38 0 54.5 -16.5t16.5 -38.5q0 -21 -10 -37.5t-22.5 -26.5t-21.5 -10q-8 0 -14 6q8 10 17 24t13 27q4 12 4 24q0 26 -24 26q-29 0 -56.5 -24t-50 -61.5t-36 -79t-13.5 -76.5q0 -32 13.5 -53
t44.5 -21q41 0 72 26.5t55 67t42 82.5q4 0 8 -1.5t4 -7.5q-20 -50 -47 -93t-61.5 -69t-80.5 -26zM349 410q-12 0 -15 5l-46 63l-101 -61q-4 -2 -8.5 -4t-9.5 -2q-9 0 -11 5l121 107q8 5 22 5q10 0 15 -5l38 -108q0 -1 0.5 -1.5l0.5 -0.5q0 -3 -6 -3z" />
    <glyph glyph-name="Cdotaccent" unicode="&#x10a;" horiz-adv-x="714" 
d="M371 -107q-91 0 -161.5 36.5t-110 108t-39.5 175.5q0 62 16 124t43.5 119t61.5 105q-15 60 -15 130q0 53 12 101q4 14 14 14q8 0 7 -10q-3 -20 -5 -42.5t-2 -53.5q0 -58 11 -110q10 13 20 24q41 45 97 84.5t124.5 63.5t145.5 24q72 0 132 -26.5t96.5 -76t36.5 -119.5
q0 -44 -23.5 -90t-67 -84.5t-105 -62.5t-137.5 -24q-100 0 -183 44t-129 134q-40 -71 -59 -144t-19 -139q0 -96 32 -156t88.5 -88.5t129.5 -28.5q130 0 228.5 65.5t162.5 202.5q12 0 12 -9q-62 -148 -169.5 -219.5t-244.5 -71.5zM253 548q-13 -18 -25 -37q35 -82 107 -132
t181 -50q69 0 123.5 21t92 56t57.5 77.5t20 85.5q0 53 -28.5 93t-77.5 62.5t-111 22.5t-124.5 -26t-118 -71t-96.5 -102zM645 849q-13 0 -22.5 10t-9.5 24q0 17 14 30.5t31 13.5q14 0 24 -9t10 -23q0 -18 -14 -32t-33 -14z" />
    <glyph glyph-name="cdotaccent" unicode="&#x10b;" horiz-adv-x="263" 
d="M145 -4q-55 0 -81.5 29t-26.5 78q0 23 9 53t24 61t33 55q29 39 64 60.5t71 21.5q38 0 54.5 -16.5t16.5 -38.5q0 -21 -10 -37.5t-22.5 -26.5t-21.5 -10q-8 0 -14 6q8 10 17 24t13 27q4 12 4 24q0 26 -24 26q-29 0 -56.5 -24t-50 -61.5t-36 -79t-13.5 -76.5q0 -32 13.5 -53
t44.5 -21q41 0 72 26.5t55 67t42 82.5q4 0 8 -1.5t4 -7.5q-20 -50 -47 -93t-61.5 -69t-80.5 -26zM277 407q-13 0 -22.5 10t-9.5 24q0 17 14 30.5t31 13.5q14 0 24 -9t10 -23q0 -18 -14 -32t-33 -14z" />
    <glyph glyph-name="Ccaron" unicode="&#x10c;" horiz-adv-x="714" 
d="M371 -107q-91 0 -161.5 36.5t-110 108t-39.5 175.5q0 62 16 124t43.5 119t61.5 105q-15 60 -15 130q0 53 12 101q4 14 14 14q8 0 7 -10q-3 -20 -5 -42.5t-2 -53.5q0 -58 11 -110q10 13 20 24q41 45 97 84.5t124.5 63.5t145.5 24q72 0 132 -26.5t96.5 -76t36.5 -119.5
q0 -44 -23.5 -90t-67 -84.5t-105 -62.5t-137.5 -24q-100 0 -183 44t-129 134q-40 -71 -59 -144t-19 -139q0 -96 32 -156t88.5 -88.5t129.5 -28.5q130 0 228.5 65.5t162.5 202.5q12 0 12 -9q-62 -148 -169.5 -219.5t-244.5 -71.5zM253 548q-13 -18 -25 -37q35 -82 107 -132
t181 -50q69 0 123.5 21t92 56t57.5 77.5t20 85.5q0 53 -28.5 93t-77.5 62.5t-111 22.5t-124.5 -26t-118 -71t-96.5 -102zM641 854q-17 0 -23 14l-36 85q-1 2 -3 6.5t-2 5.5q0 4 8 4q11 0 18 -7l55 -59l118 58q16 8 30 8q11 0 11 -4q0 -1 -3.5 -3.5t-5.5 -4.5l-133 -93
q-15 -10 -34 -10z" />
    <glyph glyph-name="ccaron" unicode="&#x10d;" horiz-adv-x="263" 
d="M145 -4q-55 0 -81.5 29t-26.5 78q0 23 9 53t24 61t33 55q29 39 64 60.5t71 21.5q38 0 54.5 -16.5t16.5 -38.5q0 -21 -10 -37.5t-22.5 -26.5t-21.5 -10q-8 0 -14 6q8 10 17 24t13 27q4 12 4 24q0 26 -24 26q-29 0 -56.5 -24t-50 -61.5t-36 -79t-13.5 -76.5q0 -32 13.5 -53
t44.5 -21q41 0 72 26.5t55 67t42 82.5q4 0 8 -1.5t4 -7.5q-20 -50 -47 -93t-61.5 -69t-80.5 -26zM263 410q-10 0 -14 4l-36 106q0 1 -0.5 1.5l-0.5 0.5q0 3 6 3q12 0 15 -5l45 -58l102 58q8 6 18 6q5 0 8 -2t0 -4l-120 -106q-4 -1 -9.5 -2.5t-13.5 -1.5z" />
    <glyph glyph-name="Dcaron" unicode="&#x10e;" horiz-adv-x="1050" 
d="M196 -43q-41 0 -78 12t-60.5 36t-23.5 60q0 37 32.5 67t92.5 30q63 0 119.5 -28.5t119.5 -61.5q53 51 94.5 118.5t80 142.5t79.5 149.5t92 138.5q9 11 18 22.5t19 22.5q-54 32 -116 49.5t-128 17.5q-82 0 -152 -21t-121.5 -56.5t-80.5 -80t-29 -91.5q0 -42 17.5 -69.5
t44.5 -40.5t53 -13q35 0 60 13.5t41 33.5t24 39t9 31q0 7 9 7q14 0 11 -17q-5 -40 -30 -69.5t-60 -46t-72 -16.5q-44 0 -80 16.5t-57.5 50t-21.5 82.5q0 65 35 116.5t96 87.5t140 55t167 19q68 0 137 -16.5t131 -49.5q26 29 53.5 51.5t56.5 34.5q13 5 21 5q6 0 6 -3
q0 -5 -23 -25q-13 -12 -31 -36.5t-37 -53.5q60 -39 106.5 -94.5t73.5 -126t27 -156.5q0 -84 -29 -146.5t-79 -103.5t-115 -61.5t-137 -20.5q-85 0 -157.5 23t-134.5 52q-49 -39 -101.5 -59t-111.5 -20zM786 563q-21 -33 -51 -83.5t-67 -109.5t-77 -118t-80.5 -110.5
t-78.5 -86.5q53 -26 117 -45t145 -19q92 0 160 38.5t106 105t38 150.5q0 109 -46 198.5t-123 149.5q-13 -21 -24 -39.5t-19 -30.5zM196 -12q51 -3 99.5 18.5t80.5 46.5q-60 29 -110.5 53t-93.5 24q-35 0 -54 -20.5t-19 -45.5q0 -32 25.5 -53t71.5 -23zM811 854q-17 0 -23 14
l-36 85q-1 2 -3 6.5t-2 5.5q0 4 8 4q11 0 18 -7l55 -59l118 58q16 8 30 8q11 0 11 -4q0 -1 -3.5 -3.5t-5.5 -4.5l-133 -93q-15 -10 -34 -10z" />
    <glyph glyph-name="dcaron" unicode="&#x10f;" horiz-adv-x="372" 
d="M288 0q-34 0 -50 23t-16 54q0 9 1 18.5t4 19.5q-14 -22 -32.5 -48.5t-42 -46t-52.5 -19.5q-13 0 -29.5 6t-29 23t-12.5 50q0 43 19 91t52 90.5t75 69t87 26.5q36 0 68 -19q15 28 32 62.5t34 68.5t30 62.5t20 43.5q15 35 28.5 44.5t32.5 9.5q11 0 24.5 -2.5t26.5 -1.5
q-5 -5 -23 -33t-44 -72.5t-55.5 -97.5t-58 -108.5t-52.5 -106.5t-38 -90t-14 -59q0 -13 6 -22.5t20 -9.5q19 0 39 19t38.5 47.5t33 56t21.5 44.5q12 0 12 -9q-9 -21 -24 -52t-35 -61t-44.5 -50.5t-51.5 -20.5zM107 30q14 0 35 15.5t45 49.5q28 40 64 100t71 127q-7 6 -15 9
t-22 3q-23 0 -50.5 -19.5t-55 -50.5t-50 -67t-36 -69.5t-13.5 -57.5q0 -40 27 -40zM536 462q-2 0 -6.5 2.5t-4.5 4.5q16 26 30 50t27 54t26 74q13 0 21 -6t15 -13q-3 -21 -16.5 -46.5t-31.5 -50.5t-34.5 -44t-25.5 -25z" />
    <glyph glyph-name="Dcroat" unicode="&#x110;" horiz-adv-x="1032" 
d="M173 -39q-23 0 -47 3q-63 8 -92.5 37.5t-29.5 63.5q0 37 32.5 67t92.5 30q40 0 87 -16q20 -6 49.5 -20.5t58.5 -29.5t45 -24q44 42 80.5 98t70.5 118h-93q0 6 6 20.5t22 14.5h84q47 89 96.5 180t114.5 163q-52 32 -114.5 49.5t-128.5 17.5q-25 0 -50.5 -3t-51.5 -8
q-93 -20 -157 -63.5t-96.5 -95t-32.5 -97.5q0 -34 18 -60t55 -37q27 -8 47 -8q33 0 57.5 13.5t41.5 33.5t25.5 39t9.5 31q0 7 9 7q14 0 11 -17q-5 -40 -30 -69.5t-60 -46t-72 -16.5q-24 0 -50 8q-46 16 -77.5 55.5t-31.5 93.5q0 53 35.5 106.5t113.5 96.5t204 61q42 6 85 6
q71 0 139.5 -17t129.5 -49l25 29q9 8 25.5 20t33.5 23t25 14q13 5 21 5q6 0 6 -3q0 -7 -16 -17q-10 -7 -18 -15.5t-12 -13.5q-15 -21 -23.5 -34t-22.5 -34q92 -61 150 -157.5t58 -220.5q0 -26 -3 -53q-6 -64 -35 -116t-75.5 -88t-103 -55.5t-118.5 -19.5q-23 0 -46 3
q-98 12 -161.5 31.5t-111.5 40.5q-91 -75 -204 -75zM679 -9q80 0 141.5 34.5t99.5 90.5t45 121q3 24 3 48q0 109 -46.5 198.5t-122.5 150.5q-46 -72 -94.5 -153t-97.5 -158h120q0 -2 -1 -11t-6.5 -16.5t-19.5 -7.5h-115q-39 -60 -75.5 -111.5t-69.5 -86.5q-7 -6 -17.5 -17.5
t-21.5 -18.5q47 -21 107 -38t141 -24q9 -1 15.5 -1h14.5zM151 -8q55 -3 103 13.5t89 46.5q-36 17 -73 35.5t-78 33.5q-27 9 -48 9q-37 0 -56 -20.5t-19 -45.5q0 -27 21 -48.5t61 -23.5z" />
    <glyph glyph-name="dcroat" unicode="&#x111;" horiz-adv-x="372" 
d="M288 0q-34 0 -50 23t-16 54q0 9 1 18.5t4 19.5q-14 -22 -32.5 -48.5t-42 -46t-52.5 -19.5q-13 0 -29.5 6t-29 23t-12.5 50q0 43 19 91t52 90.5t75 69t87 26.5q36 0 68 -19q15 28 32 62.5t34 68.5t30 62.5t20 43.5q15 35 28.5 44.5t32.5 9.5q11 0 24.5 -2.5t26.5 -1.5
q-5 -5 -23 -33t-44 -72.5t-55.5 -97.5t-58 -108.5t-52.5 -106.5t-38 -90t-14 -59q0 -13 6 -22.5t20 -9.5q19 0 39 19t38.5 47.5t33 56t21.5 44.5q12 0 12 -9q-9 -21 -24 -52t-35 -61t-44.5 -50.5t-51.5 -20.5zM107 30q14 0 35 15.5t45 49.5q28 40 64 100t71 127q-7 6 -15 9
t-22 3q-23 0 -50.5 -19.5t-55 -50.5t-50 -67t-36 -69.5t-13.5 -57.5q0 -40 27 -40zM314 480q0 12 9.5 21.5t21.5 9.5h179q0 -11 -7.5 -21t-24.5 -10h-178z" />
    <glyph glyph-name="Emacron" unicode="&#x112;" horiz-adv-x="819" 
d="M326 -59q-104 0 -171.5 29t-100 76t-32.5 100q0 60 31 109t81.5 85t111.5 57t120 24q-52 19 -84.5 52.5t-32.5 73.5q0 41 25.5 78.5t68.5 69t97.5 54.5t113.5 35.5t114 12.5q89 0 142 -30t53 -77q0 -43 -46.5 -85t-128.5 -60q-16 -3 -21 -3q-11 0 -11 9q0 3 3.5 4.5
t15.5 5.5q59 20 94 56.5t35 77.5q0 35 -33.5 56.5t-100.5 21.5q-60 0 -121 -17t-112 -48t-82 -71t-31 -87q0 -34 20 -55t51 -33.5t64.5 -20t61.5 -16.5q10 -3 13 -8t3 -10q0 -13 -14.5 -22t-40.5 -9q-16 0 -35.5 0.5t-41.5 0.5q-31 0 -65.5 -3t-75.5 -16q-52 -16 -90.5 -50
t-59.5 -75t-21 -81q0 -52 24 -94t76 -66.5t137 -24.5q78 0 151 20t135 51.5t106 65.5q36 29 58.5 59t22.5 52q0 28 -39 34q-10 1 -10 6q0 8 14 8q29 0 51.5 -19.5t22.5 -48.5q0 -57 -81 -120q-49 -39 -119.5 -69t-152 -47.5t-163.5 -17.5zM606 876q0 8 7.5 17t20.5 14l210 4
q0 -5 -6 -17.5t-21 -17.5h-211z" />
    <glyph glyph-name="emacron" unicode="&#x113;" horiz-adv-x="256" 
d="M131 -4q-37 0 -66.5 24t-29.5 73q0 41 18.5 87t49 86.5t68 66t75.5 25.5q19 0 37 -11t18 -38q0 -25 -19 -55t-54 -56q-15 -11 -38 -21t-46 -16.5t-38 -6.5q-5 -12 -9.5 -32t-4.5 -41q0 -25 10 -45t37 -20q33 0 61.5 19t51 48t38.5 59t25 51q12 0 12 -9q-13 -28 -29.5 -61
t-39 -61.5t-54 -47t-73.5 -18.5zM113 172q14 0 47 10.5t60 33.5q26 23 40 50.5t14 46.5q0 22 -16 22q-12 0 -33 -16t-52 -54q-19 -24 -36 -52t-24 -41zM185 423q0 9 7.5 20t26.5 15l147 2q0 -5 -4.5 -18.5t-19.5 -18.5h-157z" />
    <glyph glyph-name="Ebreve" unicode="&#x114;" horiz-adv-x="819" 
d="M326 -59q-104 0 -171.5 29t-100 76t-32.5 100q0 60 31 109t81.5 85t111.5 57t120 24q-52 19 -84.5 52.5t-32.5 73.5q0 41 25.5 78.5t68.5 69t97.5 54.5t113.5 35.5t114 12.5q89 0 142 -30t53 -77q0 -43 -46.5 -85t-128.5 -60q-16 -3 -21 -3q-11 0 -11 9q0 3 3.5 4.5
t15.5 5.5q59 20 94 56.5t35 77.5q0 35 -33.5 56.5t-100.5 21.5q-60 0 -121 -17t-112 -48t-82 -71t-31 -87q0 -34 20 -55t51 -33.5t64.5 -20t61.5 -16.5q10 -3 13 -8t3 -10q0 -13 -14.5 -22t-40.5 -9q-16 0 -35.5 0.5t-41.5 0.5q-31 0 -65.5 -3t-75.5 -16q-52 -16 -90.5 -50
t-59.5 -75t-21 -81q0 -52 24 -94t76 -66.5t137 -24.5q78 0 151 20t135 51.5t106 65.5q36 29 58.5 59t22.5 52q0 28 -39 34q-10 1 -10 6q0 8 14 8q29 0 51.5 -19.5t22.5 -48.5q0 -57 -81 -120q-49 -39 -119.5 -69t-152 -47.5t-163.5 -17.5zM716 857q-46 0 -69.5 22t-23.5 57
q0 15 8.5 20t12.5 5q0 -28 20 -45.5t58 -17.5q31 0 53 12.5t36 28t19 24.5q12 0 12 -10q0 -6 -10 -23q-19 -31 -45.5 -52t-70.5 -21z" />
    <glyph glyph-name="ebreve" unicode="&#x115;" horiz-adv-x="256" 
d="M131 -4q-37 0 -66.5 24t-29.5 73q0 41 18.5 87t49 86.5t68 66t75.5 25.5q19 0 37 -11t18 -38q0 -25 -19 -55t-54 -56q-15 -11 -38 -21t-46 -16.5t-38 -6.5q-5 -12 -9.5 -32t-4.5 -41q0 -25 10 -45t37 -20q33 0 61.5 19t51 48t38.5 59t25 51q12 0 12 -9q-13 -28 -29.5 -61
t-39 -61.5t-54 -47t-73.5 -18.5zM113 172q14 0 47 10.5t60 33.5q26 23 40 50.5t14 46.5q0 22 -16 22q-12 0 -33 -16t-52 -54q-19 -24 -36 -52t-24 -41zM254 409q-43 0 -63 22.5t-20 56.5q0 15 8.5 20t12.5 5q0 -25 18 -43.5t49 -18.5q30 0 51.5 12t34.5 27t18 23
q12 0 12 -10q0 -6 -10 -23q-19 -31 -44 -51t-67 -20z" />
    <glyph glyph-name="Edotaccent" unicode="&#x116;" horiz-adv-x="819" 
d="M326 -59q-104 0 -171.5 29t-100 76t-32.5 100q0 60 31 109t81.5 85t111.5 57t120 24q-52 19 -84.5 52.5t-32.5 73.5q0 41 25.5 78.5t68.5 69t97.5 54.5t113.5 35.5t114 12.5q89 0 142 -30t53 -77q0 -43 -46.5 -85t-128.5 -60q-16 -3 -21 -3q-11 0 -11 9q0 3 3.5 4.5
t15.5 5.5q59 20 94 56.5t35 77.5q0 35 -33.5 56.5t-100.5 21.5q-60 0 -121 -17t-112 -48t-82 -71t-31 -87q0 -34 20 -55t51 -33.5t64.5 -20t61.5 -16.5q10 -3 13 -8t3 -10q0 -13 -14.5 -22t-40.5 -9q-16 0 -35.5 0.5t-41.5 0.5q-31 0 -65.5 -3t-75.5 -16q-52 -16 -90.5 -50
t-59.5 -75t-21 -81q0 -52 24 -94t76 -66.5t137 -24.5q78 0 151 20t135 51.5t106 65.5q36 29 58.5 59t22.5 52q0 28 -39 34q-10 1 -10 6q0 8 14 8q29 0 51.5 -19.5t22.5 -48.5q0 -57 -81 -120q-49 -39 -119.5 -69t-152 -47.5t-163.5 -17.5zM730 861q-13 0 -22.5 10t-9.5 24
q0 17 14 30.5t31 13.5q14 0 24 -9t10 -23q0 -18 -14 -32t-33 -14z" />
    <glyph glyph-name="edotaccent" unicode="&#x117;" horiz-adv-x="256" 
d="M131 -4q-37 0 -66.5 24t-29.5 73q0 41 18.5 87t49 86.5t68 66t75.5 25.5q19 0 37 -11t18 -38q0 -25 -19 -55t-54 -56q-15 -11 -38 -21t-46 -16.5t-38 -6.5q-5 -12 -9.5 -32t-4.5 -41q0 -25 10 -45t37 -20q33 0 61.5 19t51 48t38.5 59t25 51q12 0 12 -9q-13 -28 -29.5 -61
t-39 -61.5t-54 -47t-73.5 -18.5zM113 172q14 0 47 10.5t60 33.5q26 23 40 50.5t14 46.5q0 22 -16 22q-12 0 -33 -16t-52 -54q-19 -24 -36 -52t-24 -41zM272 407q-13 0 -22.5 10t-9.5 24q0 17 14 30.5t31 13.5q14 0 24 -9t10 -23q0 -18 -14 -32t-33 -14z" />
    <glyph glyph-name="Eogonek" unicode="&#x118;" horiz-adv-x="819" 
d="M326 -59q-104 0 -171.5 29t-100 76t-32.5 100q0 60 31 109t81.5 85t111.5 57t120 24q-52 19 -84.5 52.5t-32.5 73.5q0 41 25.5 78.5t68.5 69t97.5 54.5t113.5 35.5t114 12.5q89 0 142 -30t53 -77q0 -43 -46.5 -85t-128.5 -60q-16 -3 -21 -3q-11 0 -11 9q0 3 3.5 4.5
t15.5 5.5q59 20 94 56.5t35 77.5q0 35 -33.5 56.5t-100.5 21.5q-60 0 -121 -17t-112 -48t-82 -71t-31 -87q0 -34 20 -55t51 -33.5t64.5 -20t61.5 -16.5q10 -3 13 -8t3 -10q0 -13 -14.5 -22t-40.5 -9q-16 0 -35.5 0.5t-41.5 0.5q-31 0 -65.5 -3t-75.5 -16q-52 -16 -90.5 -50
t-59.5 -75t-21 -81q0 -52 24 -94t76 -66.5t137 -24.5q78 0 151 20t135 51.5t106 65.5q36 29 58.5 59t22.5 52q0 28 -39 34q-10 1 -10 6q0 8 14 8q29 0 51.5 -19.5t22.5 -48.5q0 -57 -81 -120q-49 -39 -119.5 -69t-152 -47.5t-163.5 -17.5zM538 -181q-19 0 -33.5 10.5
t-14.5 34.5q0 36 22.5 65t53 50t55.5 32q6 0 6 -11q-40 -31 -63 -61.5t-23 -56.5q0 -13 5.5 -23.5t23.5 -10.5q14 0 27.5 10.5t23.5 20.5q2 1 6 0.5t4 -5.5q-10 -19 -32.5 -37t-60.5 -18z" />
    <glyph glyph-name="eogonek" unicode="&#x119;" horiz-adv-x="256" 
d="M131 -4q-37 0 -66.5 24t-29.5 73q0 41 18.5 87t49 86.5t68 66t75.5 25.5q19 0 37 -11t18 -38q0 -25 -19 -55t-54 -56q-15 -11 -38 -21t-46 -16.5t-38 -6.5q-5 -12 -9.5 -32t-4.5 -41q0 -25 10 -45t37 -20q33 0 61.5 19t51 48t38.5 59t25 51q12 0 12 -9q-13 -28 -29.5 -61
t-39 -61.5t-54 -47t-73.5 -18.5zM113 172q14 0 47 10.5t60 33.5q26 23 40 50.5t14 46.5q0 22 -16 22q-12 0 -33 -16t-52 -54q-19 -24 -36 -52t-24 -41zM112 -167q-19 0 -33.5 10.5t-14.5 34.5q0 36 22.5 65t53 50t55.5 32q6 0 6 -11q-40 -31 -63 -61.5t-23 -56.5
q0 -13 5.5 -23.5t23.5 -10.5q14 0 27.5 10.5t23.5 20.5q2 1 6 0.5t4 -5.5q-10 -19 -32.5 -37t-60.5 -18z" />
    <glyph glyph-name="Ecaron" unicode="&#x11a;" horiz-adv-x="819" 
d="M326 -59q-104 0 -171.5 29t-100 76t-32.5 100q0 60 31 109t81.5 85t111.5 57t120 24q-52 19 -84.5 52.5t-32.5 73.5q0 41 25.5 78.5t68.5 69t97.5 54.5t113.5 35.5t114 12.5q89 0 142 -30t53 -77q0 -43 -46.5 -85t-128.5 -60q-16 -3 -21 -3q-11 0 -11 9q0 3 3.5 4.5
t15.5 5.5q59 20 94 56.5t35 77.5q0 35 -33.5 56.5t-100.5 21.5q-60 0 -121 -17t-112 -48t-82 -71t-31 -87q0 -34 20 -55t51 -33.5t64.5 -20t61.5 -16.5q10 -3 13 -8t3 -10q0 -13 -14.5 -22t-40.5 -9q-16 0 -35.5 0.5t-41.5 0.5q-31 0 -65.5 -3t-75.5 -16q-52 -16 -90.5 -50
t-59.5 -75t-21 -81q0 -52 24 -94t76 -66.5t137 -24.5q78 0 151 20t135 51.5t106 65.5q36 29 58.5 59t22.5 52q0 28 -39 34q-10 1 -10 6q0 8 14 8q29 0 51.5 -19.5t22.5 -48.5q0 -57 -81 -120q-49 -39 -119.5 -69t-152 -47.5t-163.5 -17.5zM726 866q-17 0 -23 14l-36 85
q-1 2 -3 6.5t-2 5.5q0 4 8 4q11 0 18 -7l55 -59l118 58q16 8 30 8q11 0 11 -4q0 -1 -3.5 -3.5t-5.5 -4.5l-133 -93q-15 -10 -34 -10z" />
    <glyph glyph-name="ecaron" unicode="&#x11b;" horiz-adv-x="256" 
d="M131 -4q-37 0 -66.5 24t-29.5 73q0 41 18.5 87t49 86.5t68 66t75.5 25.5q19 0 37 -11t18 -38q0 -25 -19 -55t-54 -56q-15 -11 -38 -21t-46 -16.5t-38 -6.5q-5 -12 -9.5 -32t-4.5 -41q0 -25 10 -45t37 -20q33 0 61.5 19t51 48t38.5 59t25 51q12 0 12 -9q-13 -28 -29.5 -61
t-39 -61.5t-54 -47t-73.5 -18.5zM113 172q14 0 47 10.5t60 33.5q26 23 40 50.5t14 46.5q0 22 -16 22q-12 0 -33 -16t-52 -54q-19 -24 -36 -52t-24 -41zM258 410q-10 0 -14 4l-36 106q0 1 -0.5 1.5l-0.5 0.5q0 3 6 3q12 0 15 -5l45 -58l102 58q8 6 18 6q5 0 8 -2t0 -4
l-120 -106q-4 -1 -9.5 -2.5t-13.5 -1.5z" />
    <glyph glyph-name="Gcircumflex" unicode="&#x11c;" horiz-adv-x="702" 
d="M82 -376q-59 0 -93.5 22t-34.5 56q0 32 24 60t62.5 50.5t84 40t89 29t76.5 15.5q31 5 68.5 8t76 5.5t69.5 2.5q37 63 60.5 119t41.5 129l4 16q-19 -18 -53.5 -43.5t-80 -51t-97 -42.5t-105.5 -17q-71 0 -122.5 34t-79 94.5t-27.5 139.5q0 47 12 100.5t39 109.5
q-31 32 -48.5 71t-17.5 80q0 36 15 71.5t47 68.5q9 10 17 10q4 0 4 -4q0 -6 -7 -14q-23 -28 -34 -59t-11 -62q0 -35 13.5 -69t38.5 -63q26 55 71.5 107t106.5 93.5t133 66t150 24.5q104 0 164.5 -45t60.5 -136q0 -43 -23.5 -86t-71 -79t-118 -58t-163.5 -24
q-73 -1 -144 18.5t-120 51.5q-25 -53 -36.5 -103.5t-11.5 -94.5q0 -101 49.5 -154t132.5 -53q45 0 90.5 13.5t84.5 35.5t66.5 46.5t36.5 45.5q23 52 45.5 72.5t40.5 20.5q15 0 25.5 -13.5t7.5 -36.5q-10 -83 -45.5 -161t-91.5 -169q68 -1 122.5 -7.5t98.5 -17.5
q12 -3 16.5 -7.5t4.5 -7.5q0 -7 -12 -7q-6 0 -17 3q-23 6 -61 10.5t-81.5 6.5t-83.5 2q-42 -60 -99.5 -108.5t-122 -83.5t-126 -53.5t-110.5 -18.5zM396 424q68 0 132 18t115 50t81.5 74.5t30.5 90.5q0 44 -24.5 75.5t-62.5 48.5t-81 17q-68 0 -130 -26t-115 -69.5
t-96.5 -98.5t-73.5 -113q41 -31 99.5 -49t124.5 -18zM80 -350q39 0 92 15.5t111 45.5t111.5 74t93.5 101q-48 -1 -94.5 -4.5t-92.5 -11.5q-25 -4 -61.5 -15t-75.5 -28t-73.5 -38t-56 -45t-21.5 -49q0 -18 15.5 -31.5t51.5 -13.5zM671 999q14 0 18 -4l44 -104q0 -1 0.5 -1.5
l0.5 -0.5q0 -3 -8 -3q-4 0 -9.5 1.5t-7.5 3.5l-56 57l-126 -57q-7 -6 -22 -6q-5 0 -9 2t-1 4l148 104q5 2 11.5 3t16.5 1z" />
    <glyph glyph-name="gcircumflex" unicode="&#x11d;" horiz-adv-x="396" 
d="M-10 -319q-95 0 -95 78q0 37 26 66t62 50q50 30 98 48t92 31.5t82 29.5q9 26 15 57.5t9 61.5t3 52q0 23 -3 30q-11 -21 -29.5 -52t-43 -61.5t-51.5 -50.5t-55 -20q-10 0 -19 3q-28 12 -40.5 34t-12.5 50q0 45 26 97t62 95q29 35 68 56t79 21q46 0 86 -31q15 -12 15 -26
q0 -15 -12 -15q-10 0 -14 13q-14 37 -45 37q-25 0 -57 -21.5t-60 -53.5q-24 -27 -46.5 -62t-37 -69t-14.5 -59q0 -17 8 -29t25 -12q23 0 48.5 22t49 54t41 65t24.5 55q7 23 19 28.5t24 5.5t20 6q4 -22 5.5 -44.5t1.5 -45.5q0 -46 -5.5 -84t-18.5 -81q36 22 62.5 55.5t44 68
t28.5 59.5q12 0 12 -9q-13 -27 -32.5 -66t-49 -75.5t-73.5 -56.5q-17 -48 -48.5 -101t-74.5 -99.5t-94 -75.5t-105 -29zM-34 -299q22 0 46.5 9.5t46.5 22.5t34 22q23 18 47 45t42 52q17 24 35 50.5t29 52.5l-41 -13q-33 -10 -72.5 -24.5t-78.5 -32.5t-71 -39
q-28 -19 -46.5 -50t-18.5 -54q0 -17 11.5 -29t36.5 -12zM371 410q-12 0 -15 5l-46 63l-101 -61q-4 -2 -8.5 -4t-9.5 -2q-9 0 -11 5l121 107q8 5 22 5q10 0 15 -5l38 -108q0 -1 0.5 -1.5l0.5 -0.5q0 -3 -6 -3z" />
    <glyph glyph-name="Gbreve" unicode="&#x11e;" horiz-adv-x="702" 
d="M82 -376q-59 0 -93.5 22t-34.5 56q0 32 24 60t62.5 50.5t84 40t89 29t76.5 15.5q31 5 68.5 8t76 5.5t69.5 2.5q37 63 60.5 119t41.5 129l4 16q-19 -18 -53.5 -43.5t-80 -51t-97 -42.5t-105.5 -17q-71 0 -122.5 34t-79 94.5t-27.5 139.5q0 47 12 100.5t39 109.5
q-31 32 -48.5 71t-17.5 80q0 36 15 71.5t47 68.5q9 10 17 10q4 0 4 -4q0 -6 -7 -14q-23 -28 -34 -59t-11 -62q0 -35 13.5 -69t38.5 -63q26 55 71.5 107t106.5 93.5t133 66t150 24.5q104 0 164.5 -45t60.5 -136q0 -43 -23.5 -86t-71 -79t-118 -58t-163.5 -24
q-73 -1 -144 18.5t-120 51.5q-25 -53 -36.5 -103.5t-11.5 -94.5q0 -101 49.5 -154t132.5 -53q45 0 90.5 13.5t84.5 35.5t66.5 46.5t36.5 45.5q23 52 45.5 72.5t40.5 20.5q15 0 25.5 -13.5t7.5 -36.5q-10 -83 -45.5 -161t-91.5 -169q68 -1 122.5 -7.5t98.5 -17.5
q12 -3 16.5 -7.5t4.5 -7.5q0 -7 -12 -7q-6 0 -17 3q-23 6 -61 10.5t-81.5 6.5t-83.5 2q-42 -60 -99.5 -108.5t-122 -83.5t-126 -53.5t-110.5 -18.5zM396 424q68 0 132 18t115 50t81.5 74.5t30.5 90.5q0 44 -24.5 75.5t-62.5 48.5t-81 17q-68 0 -130 -26t-115 -69.5
t-96.5 -98.5t-73.5 -113q41 -31 99.5 -49t124.5 -18zM80 -350q39 0 92 15.5t111 45.5t111.5 74t93.5 101q-48 -1 -94.5 -4.5t-92.5 -11.5q-25 -4 -61.5 -15t-75.5 -28t-73.5 -38t-56 -45t-21.5 -49q0 -18 15.5 -31.5t51.5 -13.5zM607 875q-46 0 -69.5 22t-23.5 57
q0 15 8.5 20t12.5 5q0 -28 20 -45.5t58 -17.5q31 0 53 12.5t36 28t19 24.5q12 0 12 -10q0 -6 -10 -23q-19 -31 -45.5 -52t-70.5 -21z" />
    <glyph glyph-name="gbreve" unicode="&#x11f;" horiz-adv-x="396" 
d="M-10 -319q-95 0 -95 78q0 37 26 66t62 50q50 30 98 48t92 31.5t82 29.5q9 26 15 57.5t9 61.5t3 52q0 23 -3 30q-11 -21 -29.5 -52t-43 -61.5t-51.5 -50.5t-55 -20q-10 0 -19 3q-28 12 -40.5 34t-12.5 50q0 45 26 97t62 95q29 35 68 56t79 21q46 0 86 -31q15 -12 15 -26
q0 -15 -12 -15q-10 0 -14 13q-14 37 -45 37q-25 0 -57 -21.5t-60 -53.5q-24 -27 -46.5 -62t-37 -69t-14.5 -59q0 -17 8 -29t25 -12q23 0 48.5 22t49 54t41 65t24.5 55q7 23 19 28.5t24 5.5t20 6q4 -22 5.5 -44.5t1.5 -45.5q0 -46 -5.5 -84t-18.5 -81q36 22 62.5 55.5t44 68
t28.5 59.5q12 0 12 -9q-13 -27 -32.5 -66t-49 -75.5t-73.5 -56.5q-17 -48 -48.5 -101t-74.5 -99.5t-94 -75.5t-105 -29zM-34 -299q22 0 46.5 9.5t46.5 22.5t34 22q23 18 47 45t42 52q17 24 35 50.5t29 52.5l-41 -13q-33 -10 -72.5 -24.5t-78.5 -32.5t-71 -39
q-28 -19 -46.5 -50t-18.5 -54q0 -17 11.5 -29t36.5 -12zM281 409q-43 0 -63 22.5t-20 56.5q0 15 8.5 20t12.5 5q0 -25 18 -43.5t49 -18.5q30 0 51.5 12t34.5 27t18 23q12 0 12 -10q0 -6 -10 -23q-19 -31 -44 -51t-67 -20z" />
    <glyph glyph-name="Gdotaccent" unicode="&#x120;" horiz-adv-x="702" 
d="M82 -376q-59 0 -93.5 22t-34.5 56q0 32 24 60t62.5 50.5t84 40t89 29t76.5 15.5q31 5 68.5 8t76 5.5t69.5 2.5q37 63 60.5 119t41.5 129l4 16q-19 -18 -53.5 -43.5t-80 -51t-97 -42.5t-105.5 -17q-71 0 -122.5 34t-79 94.5t-27.5 139.5q0 47 12 100.5t39 109.5
q-31 32 -48.5 71t-17.5 80q0 36 15 71.5t47 68.5q9 10 17 10q4 0 4 -4q0 -6 -7 -14q-23 -28 -34 -59t-11 -62q0 -35 13.5 -69t38.5 -63q26 55 71.5 107t106.5 93.5t133 66t150 24.5q104 0 164.5 -45t60.5 -136q0 -43 -23.5 -86t-71 -79t-118 -58t-163.5 -24
q-73 -1 -144 18.5t-120 51.5q-25 -53 -36.5 -103.5t-11.5 -94.5q0 -101 49.5 -154t132.5 -53q45 0 90.5 13.5t84.5 35.5t66.5 46.5t36.5 45.5q23 52 45.5 72.5t40.5 20.5q15 0 25.5 -13.5t7.5 -36.5q-10 -83 -45.5 -161t-91.5 -169q68 -1 122.5 -7.5t98.5 -17.5
q12 -3 16.5 -7.5t4.5 -7.5q0 -7 -12 -7q-6 0 -17 3q-23 6 -61 10.5t-81.5 6.5t-83.5 2q-42 -60 -99.5 -108.5t-122 -83.5t-126 -53.5t-110.5 -18.5zM396 424q68 0 132 18t115 50t81.5 74.5t30.5 90.5q0 44 -24.5 75.5t-62.5 48.5t-81 17q-68 0 -130 -26t-115 -69.5
t-96.5 -98.5t-73.5 -113q41 -31 99.5 -49t124.5 -18zM80 -350q39 0 92 15.5t111 45.5t111.5 74t93.5 101q-48 -1 -94.5 -4.5t-92.5 -11.5q-25 -4 -61.5 -15t-75.5 -28t-73.5 -38t-56 -45t-21.5 -49q0 -18 15.5 -31.5t51.5 -13.5zM621 879q-13 0 -22.5 10t-9.5 24
q0 17 14 30.5t31 13.5q14 0 24 -9t10 -23q0 -18 -14 -32t-33 -14z" />
    <glyph glyph-name="gdotaccent" unicode="&#x121;" horiz-adv-x="396" 
d="M-10 -319q-95 0 -95 78q0 37 26 66t62 50q50 30 98 48t92 31.5t82 29.5q9 26 15 57.5t9 61.5t3 52q0 23 -3 30q-11 -21 -29.5 -52t-43 -61.5t-51.5 -50.5t-55 -20q-10 0 -19 3q-28 12 -40.5 34t-12.5 50q0 45 26 97t62 95q29 35 68 56t79 21q46 0 86 -31q15 -12 15 -26
q0 -15 -12 -15q-10 0 -14 13q-14 37 -45 37q-25 0 -57 -21.5t-60 -53.5q-24 -27 -46.5 -62t-37 -69t-14.5 -59q0 -17 8 -29t25 -12q23 0 48.5 22t49 54t41 65t24.5 55q7 23 19 28.5t24 5.5t20 6q4 -22 5.5 -44.5t1.5 -45.5q0 -46 -5.5 -84t-18.5 -81q36 22 62.5 55.5t44 68
t28.5 59.5q12 0 12 -9q-13 -27 -32.5 -66t-49 -75.5t-73.5 -56.5q-17 -48 -48.5 -101t-74.5 -99.5t-94 -75.5t-105 -29zM-34 -299q22 0 46.5 9.5t46.5 22.5t34 22q23 18 47 45t42 52q17 24 35 50.5t29 52.5l-41 -13q-33 -10 -72.5 -24.5t-78.5 -32.5t-71 -39
q-28 -19 -46.5 -50t-18.5 -54q0 -17 11.5 -29t36.5 -12zM299 407q-13 0 -22.5 10t-9.5 24q0 17 14 30.5t31 13.5q14 0 24 -9t10 -23q0 -18 -14 -32t-33 -14z" />
    <glyph glyph-name="uni0122" unicode="&#x122;" horiz-adv-x="702" 
d="M82 -376q-59 0 -93.5 22t-34.5 56q0 32 24 60t62.5 50.5t84 40t89 29t76.5 15.5q31 5 68.5 8t76 5.5t69.5 2.5q37 63 60.5 119t41.5 129l4 16q-19 -18 -53.5 -43.5t-80 -51t-97 -42.5t-105.5 -17q-71 0 -122.5 34t-79 94.5t-27.5 139.5q0 47 12 100.5t39 109.5
q-31 32 -48.5 71t-17.5 80q0 36 15 71.5t47 68.5q9 10 17 10q4 0 4 -4q0 -6 -7 -14q-23 -28 -34 -59t-11 -62q0 -35 13.5 -69t38.5 -63q26 55 71.5 107t106.5 93.5t133 66t150 24.5q104 0 164.5 -45t60.5 -136q0 -43 -23.5 -86t-71 -79t-118 -58t-163.5 -24
q-73 -1 -144 18.5t-120 51.5q-25 -53 -36.5 -103.5t-11.5 -94.5q0 -101 49.5 -154t132.5 -53q45 0 90.5 13.5t84.5 35.5t66.5 46.5t36.5 45.5q23 52 45.5 72.5t40.5 20.5q15 0 25.5 -13.5t7.5 -36.5q-10 -83 -45.5 -161t-91.5 -169q68 -1 122.5 -7.5t98.5 -17.5
q12 -3 16.5 -7.5t4.5 -7.5q0 -7 -12 -7q-6 0 -17 3q-23 6 -61 10.5t-81.5 6.5t-83.5 2q-42 -60 -99.5 -108.5t-122 -83.5t-126 -53.5t-110.5 -18.5zM396 424q68 0 132 18t115 50t81.5 74.5t30.5 90.5q0 44 -24.5 75.5t-62.5 48.5t-81 17q-68 0 -130 -26t-115 -69.5
t-96.5 -98.5t-73.5 -113q41 -31 99.5 -49t124.5 -18zM80 -350q39 0 92 15.5t111 45.5t111.5 74t93.5 101q-48 -1 -94.5 -4.5t-92.5 -11.5q-25 -4 -61.5 -15t-75.5 -28t-73.5 -38t-56 -45t-21.5 -49q0 -18 15.5 -31.5t51.5 -13.5zM24 -556q-6 0 -6 8q29 9 47.5 27.5
t21.5 45.5q-5 -4 -10.5 -6.5t-12.5 -2.5q-12 0 -19 8.5t-7 20.5q0 20 12.5 29t25.5 9q17 0 26.5 -11t9.5 -27q0 -27 -13.5 -48t-34 -34.5t-40.5 -18.5z" />
    <glyph glyph-name="uni0123" unicode="&#x123;" horiz-adv-x="396" 
d="M-10 -319q-95 0 -95 78q0 37 26 66t62 50q50 30 98 48t92 31.5t82 29.5q9 26 15 57.5t9 61.5t3 52q0 23 -3 30q-11 -21 -29.5 -52t-43 -61.5t-51.5 -50.5t-55 -20q-10 0 -19 3q-28 12 -40.5 34t-12.5 50q0 45 26 97t62 95q29 35 68 56t79 21q46 0 86 -31q15 -12 15 -26
q0 -15 -12 -15q-10 0 -14 13q-14 37 -45 37q-25 0 -57 -21.5t-60 -53.5q-24 -27 -46.5 -62t-37 -69t-14.5 -59q0 -17 8 -29t25 -12q23 0 48.5 22t49 54t41 65t24.5 55q7 23 19 28.5t24 5.5t20 6q4 -22 5.5 -44.5t1.5 -45.5q0 -46 -5.5 -84t-18.5 -81q36 22 62.5 55.5t44 68
t28.5 59.5q12 0 12 -9q-13 -27 -32.5 -66t-49 -75.5t-73.5 -56.5q-17 -48 -48.5 -101t-74.5 -99.5t-94 -75.5t-105 -29zM-34 -299q22 0 46.5 9.5t46.5 22.5t34 22q23 18 47 45t42 52q17 24 35 50.5t29 52.5l-41 -13q-33 -10 -72.5 -24.5t-78.5 -32.5t-71 -39
q-28 -19 -46.5 -50t-18.5 -54q0 -17 11.5 -29t36.5 -12zM334 555q9 0 9 -4t-8 -7q-26 -10 -46 -28.5t-23 -47.5q12 10 25 10q14 0 23.5 -10t6.5 -27q-2 -16 -15 -25.5t-28 -9.5q-19 0 -29.5 12.5t-10.5 29.5q0 29 16 50t38.5 35.5t41.5 21.5z" />
    <glyph glyph-name="Hcircumflex" unicode="&#x124;" horiz-adv-x="1395" 
d="M308 -173q-58 0 -114.5 13.5t-102 44.5t-72.5 83.5t-27 130.5q0 56 19 105t50 79.5t66 30.5q12 0 12 -6t-13 -10q-25 -6 -48.5 -30.5t-38.5 -64.5t-15 -95q0 -66 24.5 -108t63.5 -66t82.5 -33.5t82.5 -9.5q110 0 201.5 34.5t165 95.5t128 140.5t90.5 170.5l2 6
q-16 -1 -27 -3t-21 -6q-22 -8 -33 -8q-6 0 -6 8q0 14 14.5 29.5t35.5 16.5q8 0 22.5 0.5t30.5 0.5q19 48 41 99t43 97t37 80t23 48q-55 -6 -114 -10.5t-116 -14t-108 -30.5q-94 -39 -136.5 -102.5t-42.5 -141.5q0 -49 27 -81t71 -32q40 0 70 24.5t47.5 62t17.5 74.5
q0 12 -2.5 21.5t-4.5 13.5q0 7 6 7q13 0 17.5 -18.5t4.5 -36.5q0 -40 -21.5 -79t-59 -64.5t-84.5 -25.5q-42 0 -76.5 21.5t-55.5 58.5t-21 82q0 64 29 113.5t79.5 84.5t113.5 53q61 18 126.5 25t129 10.5t116.5 8.5q10 18 25.5 37t34.5 32.5t39 13.5q15 0 26 -7.5t11 -23.5
q0 -24 -18.5 -39.5t-46.5 -23.5t-55 -12q-11 -21 -26 -59t-32.5 -84.5t-35 -94t-32.5 -88.5q34 -2 79.5 -4.5t93.5 -5t91.5 -4.5t71.5 -2q11 28 23 58q62 151 114 238t83 97q40 13 55 13q6 0 6 -2q0 -3 -14 -10q-7 -4 -28.5 -35t-51.5 -84.5t-63 -123.5t-63 -152
q17 0 34.5 1t26.5 2q11 2 18.5 5t11.5 3q5 0 5 -5q0 -3 -8 -10q-17 -12 -41 -21t-60 -11q-23 -66 -43 -135.5t-20 -128.5q0 -22 8 -42t30 -20q26 0 57 28.5t61 73.5t50 95q12 0 12 -9q-24 -55 -56.5 -107t-71 -85.5t-80.5 -33.5q-33 0 -53.5 24t-20.5 71q0 46 18.5 117
t47.5 152q-30 1 -74 3t-93 4.5t-94 4.5t-75 3q-4 -12 -8 -23t-7 -20q-30 -88 -83.5 -171t-128 -150t-170 -106.5t-209.5 -39.5zM1072 726q10 2 17.5 4t14.5 4q18 6 25.5 14t7.5 14q0 12 -14 12q-7 0 -17 -6t-20 -20q-4 -6 -7.5 -11.5t-6.5 -10.5zM1388 969q14 0 18 -4
l44 -104q0 -1 0.5 -1.5l0.5 -0.5q0 -3 -8 -3q-4 0 -9.5 1.5t-7.5 3.5l-56 57l-126 -57q-7 -6 -22 -6q-5 0 -9 2t-1 4l148 104q5 2 11.5 3t16.5 1z" />
    <glyph glyph-name="hcircumflex" unicode="&#x125;" horiz-adv-x="336" 
d="M-38 -8q42 86 87.5 180.5t93.5 190.5t95 183q17 30 31.5 47t38.5 17q9 0 21 -3t23 -1q-13 -14 -35.5 -49t-50 -84t-58 -105.5t-60 -114t-54.5 -107.5q20 26 41 49t41 40q22 20 55.5 42t67 38t53.5 16q7 0 10 -1l-11 -20t-27.5 -51t-34 -67t-30.5 -68.5t-17 -53.5
q-3 -16 -3 -27q0 -16 6 -21.5t13 -5.5q17 0 36.5 17.5t38.5 44.5t35.5 57.5t26.5 57.5q12 0 12 -9q-11 -27 -27.5 -59.5t-37.5 -61.5t-46 -48t-53 -19q-20 0 -41 14t-21 51q0 11 2 23.5t7 28.5q6 20 20 44.5t36 61.5q10 17 10 27q0 12 -12 12q-10 0 -27 -10t-43 -35
q-25 -24 -62 -70t-79 -129q-7 -13 -15.5 -13.5t-22.5 -1.5q-9 -1 -18 -1.5t-15 -5.5zM427 671q-12 0 -15 5l-46 63l-101 -61q-4 -2 -8.5 -4t-9.5 -2q-9 0 -11 5l121 107q8 5 22 5q10 0 15 -5l38 -108q0 -1 0.5 -1.5l0.5 -0.5q0 -3 -6 -3z" />
    <glyph glyph-name="Hbar" unicode="&#x126;" horiz-adv-x="1395" 
d="M308 -173q-58 0 -114.5 13.5t-102 44.5t-72.5 83.5t-27 130.5q0 56 19 105t50 79.5t66 30.5q12 0 12 -5q0 -9 -10 -10q-19 -3 -44 -26.5t-43 -65.5t-18 -99q0 -66 24.5 -108t63.5 -66t82.5 -33.5t82.5 -9.5q104 0 192 31t159.5 86.5t126 129t92.5 158.5q-28 -2 -47 -9
q-22 -8 -33 -8q-6 0 -6 8q0 14 14.5 29.5t35.5 16.5q8 0 22 0.5t30 0.5q14 36 30.5 75.5t33.5 79.5h-105q2 14 10.5 22t25.5 8h83q27 62 50.5 112.5t32.5 68.5q-55 -6 -114 -10.5t-116 -14t-108 -30.5q-94 -39 -136.5 -102.5t-42.5 -141.5q0 -49 27 -81t71 -32q40 0 70 24.5
t47.5 62t17.5 74.5q0 12 -2.5 21.5t-4.5 13.5q0 7 6 7q13 0 17.5 -18.5t4.5 -36.5q0 -40 -21.5 -79t-59 -64.5t-84.5 -25.5q-42 0 -76.5 21.5t-55.5 58.5t-21 82q0 64 29 113.5t79.5 84.5t113.5 53q61 18 126.5 25t129 10.5t116.5 8.5q10 18 25.5 37t34.5 32.5t39 13.5
q15 0 26 -7.5t11 -23.5q0 -24 -18.5 -39.5t-46.5 -23.5t-55 -12q-13 -26 -32.5 -75.5t-40.5 -106.5h350q48 105 87.5 164.5t65.5 68.5q40 13 55 13q6 0 6 -2q0 -3 -14 -10q-7 -4 -28 -34t-50 -81.5t-61 -118.5h150q0 -30 -32 -30h-132q-17 -38 -33.5 -78.5t-31.5 -84.5
q-2 -5 -3 -10q17 0 34.5 1t25.5 2q11 2 18.5 5t11.5 3q5 0 5 -5q0 -3 -8 -10q-16 -12 -40 -20.5t-60 -11.5q-19 -57 -33.5 -114.5t-14.5 -107.5q0 -22 8 -42t30 -20q26 0 57 28.5t61 73.5t50 95q12 0 12 -9q-24 -55 -56.5 -107t-71 -85.5t-80.5 -33.5q-33 0 -53.5 24
t-20.5 71q0 40 14 99t37 128q-29 1 -73 3t-93 4.5t-94 4.5t-76 3v-1q-30 -88 -83.5 -171t-128 -150t-170 -106.5t-209.5 -39.5zM1072 726q26 4 45.5 14t19.5 22t-14 12q-10 0 -23.5 -10.5t-27.5 -37.5zM1286 417q15 38 30 72h-347q-16 -43 -30.5 -84t-26.5 -73
q34 -1 79.5 -3.5t94 -5t91 -4.5t71.5 -3q17 49 38 101z" />
    <glyph glyph-name="hbar" unicode="&#x127;" horiz-adv-x="336" 
d="M-38 -8q42 86 87.5 180.5t93.5 190.5t95 183q17 30 31.5 47t38.5 17q9 0 21 -3t23 -1q-13 -14 -35.5 -49t-50 -84t-58 -105.5t-60 -114t-54.5 -107.5q20 26 41 49t41 40q22 20 55.5 42t67 38t53.5 16q7 0 10 -1l-11 -20t-27.5 -51t-34 -67t-30.5 -68.5t-17 -53.5
q-3 -16 -3 -27q0 -16 6 -21.5t13 -5.5q17 0 36.5 17.5t38.5 44.5t35.5 57.5t26.5 57.5q12 0 12 -9q-11 -27 -27.5 -59.5t-37.5 -61.5t-46 -48t-53 -19q-20 0 -41 14t-21 51q0 11 2 23.5t7 28.5q6 20 20 44.5t36 61.5q10 17 10 27q0 12 -12 12q-10 0 -27 -10t-43 -35
q-25 -24 -62 -70t-79 -129q-7 -13 -15.5 -13.5t-22.5 -1.5q-9 -1 -18 -1.5t-15 -5.5zM160 480q0 12 9.5 21.5t21.5 9.5h179q0 -11 -7.5 -21t-24.5 -10h-178z" />
    <glyph glyph-name="Itilde" unicode="&#x128;" horiz-adv-x="917" 
d="M336 -194q-71 0 -135 20.5t-113.5 57t-78 84.5t-28.5 103q0 57 15.5 99.5t37.5 70.5t43 43q24 17 43 23.5t23 6.5q6 0 6 -5t-5 -8q-52 -31 -79.5 -87.5t-27.5 -119.5q0 -48 17.5 -93.5t54.5 -83t97 -59.5t145 -22q63 0 121.5 26.5t110.5 70t97 96.5t81 106t61 98
q48 85 82 168.5t67.5 164.5t80.5 158q-46 -8 -96 -19.5t-98 -29t-87 -43.5t-62 -62.5t-23 -85.5q0 -40 21 -63.5t58 -23.5q23 0 46.5 14t40 39.5t16.5 61.5q0 15 -3 23.5t-5 12.5q0 4 2.5 8t6.5 4q9 0 13.5 -17.5t4.5 -28.5q0 -36 -15.5 -68t-46 -52t-75.5 -20
q-49 0 -83.5 31t-34.5 83q0 50 27.5 89.5t74 69t103.5 50.5t117 34t114 20q15 31 41.5 58t60.5 27q14 0 23 -7t9 -22q0 -18 -13 -32t-33 -23.5t-39.5 -15t-33.5 -7.5q-43 -79 -69.5 -154t-48 -147.5t-51.5 -144.5q-43 -101 -98.5 -188t-126 -152t-158.5 -101t-195 -36z
M1100 755q39 8 52.5 18t13.5 18q0 13 -11 13q-13 0 -28.5 -13t-26.5 -36zM1325 961q-11 -24 -32.5 -48t-51.5 -24q-21 0 -40.5 9t-39 17.5t-39.5 8.5q-15 0 -26 -8.5t-17 -20.5q-1 -3 -9 -3q-14 0 -12 5q12 22 33 44.5t51 22.5q22 0 41.5 -8t39 -16.5t39.5 -8.5q16 0 26.5 9
t17.5 23q2 3 8 3q5 0 8.5 -1.5t2.5 -3.5z" />
    <glyph glyph-name="itilde" unicode="&#x129;" horiz-adv-x="176" 
d="M87 0q-37 0 -52 21.5t-15 49.5q0 15 3.5 30.5t8.5 28.5l67 171q3 8 3 14q0 10 -5 17.5l-7 10.5l55 2q15 1 21.5 -3.5t6.5 -10.5t-7 -22q-10 -24 -27 -60t-33.5 -74t-28 -71t-11.5 -51q0 -13 6.5 -22t22.5 -9q21 0 41.5 16.5t38.5 42.5t33.5 56t26.5 56q12 0 12 -9
q-10 -25 -26 -57t-36.5 -60.5t-45 -47.5t-52.5 -19zM192 398q-14 0 -25 7.5t-20.5 15t-19.5 7.5q-13 0 -22 -7t-15 -17q-1 -3 -6 -3q-12 0 -10 5q10 19 27 39.5t41 20.5q16 0 26 -7.5t19.5 -15t22.5 -7.5q14 0 22 8t14 21q2 3 6 3q11 0 9 -5q-9 -21 -26.5 -43t-42.5 -22z
" />
    <glyph glyph-name="Imacron" unicode="&#x12a;" horiz-adv-x="917" 
d="M336 -194q-71 0 -135 20.5t-113.5 57t-78 84.5t-28.5 103q0 57 15.5 99.5t37.5 70.5t43 43q24 17 43 23.5t23 6.5q6 0 6 -5t-5 -8q-52 -31 -79.5 -87.5t-27.5 -119.5q0 -48 17.5 -93.5t54.5 -83t97 -59.5t145 -22q63 0 121.5 26.5t110.5 70t97 96.5t81 106t61 98
q48 85 82 168.5t67.5 164.5t80.5 158q-46 -8 -96 -19.5t-98 -29t-87 -43.5t-62 -62.5t-23 -85.5q0 -40 21 -63.5t58 -23.5q23 0 46.5 14t40 39.5t16.5 61.5q0 15 -3 23.5t-5 12.5q0 4 2.5 8t6.5 4q9 0 13.5 -17.5t4.5 -28.5q0 -36 -15.5 -68t-46 -52t-75.5 -20
q-49 0 -83.5 31t-34.5 83q0 50 27.5 89.5t74 69t103.5 50.5t117 34t114 20q15 31 41.5 58t60.5 27q14 0 23 -7t9 -22q0 -18 -13 -32t-33 -23.5t-39.5 -15t-33.5 -7.5q-43 -79 -69.5 -154t-48 -147.5t-51.5 -144.5q-43 -101 -98.5 -188t-126 -152t-158.5 -101t-195 -36z
M1100 755q39 8 52.5 18t13.5 18q0 13 -11 13q-13 0 -28.5 -13t-26.5 -36zM1065 897q0 8 7.5 17t20.5 14l210 4q0 -5 -6 -17.5t-21 -17.5h-211z" />
    <glyph glyph-name="imacron" unicode="&#x12b;" horiz-adv-x="176" 
d="M88 423q0 9 6.5 20t22.5 15l125 2q0 -5 -4 -18.5t-17 -18.5h-133zM87 0q-37 0 -52 21.5t-15 49.5q0 15 3.5 30.5t8.5 28.5l67 171q3 8 3 14q0 10 -5 17.5l-7 10.5l55 2q15 1 21.5 -3.5t6.5 -10.5t-7 -22q-10 -24 -27 -60t-33.5 -74t-28 -71t-11.5 -51q0 -13 6.5 -22
t22.5 -9q21 0 41.5 16.5t38.5 42.5t33.5 56t26.5 56q12 0 12 -9q-10 -25 -26 -57t-36.5 -60.5t-45 -47.5t-52.5 -19z" />
    <glyph glyph-name="Ibreve" unicode="&#x12c;" horiz-adv-x="917" 
d="M336 -194q-71 0 -135 20.5t-113.5 57t-78 84.5t-28.5 103q0 57 15.5 99.5t37.5 70.5t43 43q24 17 43 23.5t23 6.5q6 0 6 -5t-5 -8q-52 -31 -79.5 -87.5t-27.5 -119.5q0 -48 17.5 -93.5t54.5 -83t97 -59.5t145 -22q63 0 121.5 26.5t110.5 70t97 96.5t81 106t61 98
q48 85 82 168.5t67.5 164.5t80.5 158q-46 -8 -96 -19.5t-98 -29t-87 -43.5t-62 -62.5t-23 -85.5q0 -40 21 -63.5t58 -23.5q23 0 46.5 14t40 39.5t16.5 61.5q0 15 -3 23.5t-5 12.5q0 4 2.5 8t6.5 4q9 0 13.5 -17.5t4.5 -28.5q0 -36 -15.5 -68t-46 -52t-75.5 -20
q-49 0 -83.5 31t-34.5 83q0 50 27.5 89.5t74 69t103.5 50.5t117 34t114 20q15 31 41.5 58t60.5 27q14 0 23 -7t9 -22q0 -18 -13 -32t-33 -23.5t-39.5 -15t-33.5 -7.5q-43 -79 -69.5 -154t-48 -147.5t-51.5 -144.5q-43 -101 -98.5 -188t-126 -152t-158.5 -101t-195 -36z
M1100 755q39 8 52.5 18t13.5 18q0 13 -11 13q-13 0 -28.5 -13t-26.5 -36zM1175 878q-46 0 -69.5 22t-23.5 57q0 15 8.5 20t12.5 5q0 -28 20 -45.5t58 -17.5q31 0 53 12.5t36 28t19 24.5q12 0 12 -10q0 -6 -10 -23q-19 -31 -45.5 -52t-70.5 -21z" />
    <glyph glyph-name="ibreve" unicode="&#x12d;" horiz-adv-x="176" 
d="M87 0q-37 0 -52 21.5t-15 49.5q0 15 3.5 30.5t8.5 28.5l67 171q3 8 3 14q0 10 -5 17.5l-7 10.5l55 2q15 1 21.5 -3.5t6.5 -10.5t-7 -22q-10 -24 -27 -60t-33.5 -74t-28 -71t-11.5 -51q0 -13 6.5 -22t22.5 -9q21 0 41.5 16.5t38.5 42.5t33.5 56t26.5 56q12 0 12 -9
q-10 -25 -26 -57t-36.5 -60.5t-45 -47.5t-52.5 -19zM158 409q-43 0 -63 22.5t-20 56.5q0 15 8.5 20t12.5 5q0 -25 18 -43.5t49 -18.5q30 0 51.5 12t34.5 27t18 23q12 0 12 -10q0 -6 -10 -23q-19 -31 -44 -51t-67 -20z" />
    <glyph glyph-name="Iogonek" unicode="&#x12e;" horiz-adv-x="917" 
d="M336 -194q-71 0 -135 20.5t-113.5 57t-78 84.5t-28.5 103q0 57 15.5 99.5t37.5 70.5t43 43q24 17 43 23.5t23 6.5q6 0 6 -5t-5 -8q-52 -31 -79.5 -87.5t-27.5 -119.5q0 -48 17.5 -93.5t54.5 -83t97 -59.5t145 -22q63 0 121.5 26.5t110.5 70t97 96.5t81 106t61 98
q48 85 82 168.5t67.5 164.5t80.5 158q-46 -8 -96 -19.5t-98 -29t-87 -43.5t-62 -62.5t-23 -85.5q0 -40 21 -63.5t58 -23.5q23 0 46.5 14t40 39.5t16.5 61.5q0 15 -3 23.5t-5 12.5q0 4 2.5 8t6.5 4q9 0 13.5 -17.5t4.5 -28.5q0 -36 -15.5 -68t-46 -52t-75.5 -20
q-49 0 -83.5 31t-34.5 83q0 50 27.5 89.5t74 69t103.5 50.5t117 34t114 20q15 31 41.5 58t60.5 27q14 0 23 -7t9 -22q0 -18 -13 -32t-33 -23.5t-39.5 -15t-33.5 -7.5q-43 -79 -69.5 -154t-48 -147.5t-51.5 -144.5q-43 -101 -98.5 -188t-126 -152t-158.5 -101t-195 -36z
M1100 755q39 8 52.5 18t13.5 18q0 13 -11 13q-13 0 -28.5 -13t-26.5 -36zM231 -359q-19 0 -33.5 10.5t-14.5 34.5q0 36 22.5 65t53 50t55.5 32q6 0 6 -11q-40 -31 -63 -61.5t-23 -56.5q0 -13 5.5 -23.5t23.5 -10.5q14 0 27.5 10.5t23.5 20.5q2 1 6 0.5t4 -5.5
q-10 -19 -32.5 -37t-60.5 -18z" />
    <glyph glyph-name="iogonek" unicode="&#x12f;" horiz-adv-x="176" 
d="M87 0q-37 0 -52 21.5t-15 49.5q0 15 3.5 30.5t8.5 28.5l67 171q3 8 3 14q0 10 -5 17.5l-7 10.5l55 2q15 1 21.5 -3.5t6.5 -10.5t-7 -22q-10 -24 -27 -60t-33.5 -74t-28 -71t-11.5 -51q0 -13 6.5 -22t22.5 -9q21 0 41.5 16.5t38.5 42.5t33.5 56t26.5 56q12 0 12 -9
q-10 -25 -26 -57t-36.5 -60.5t-45 -47.5t-52.5 -19zM176 407q-13 0 -22.5 10t-9.5 24q0 17 14 30.5t31 13.5q14 0 24 -9t10 -23q0 -18 -14 -32t-33 -14zM39 -169q-19 0 -33.5 10.5t-14.5 34.5q0 36 22.5 65t53 50t55.5 32q6 0 6 -11q-40 -31 -63 -61.5t-23 -56.5
q0 -13 5.5 -23.5t23.5 -10.5q14 0 27.5 10.5t23.5 20.5q2 1 6 0.5t4 -5.5q-10 -19 -32.5 -37t-60.5 -18z" />
    <glyph glyph-name="Idotaccent" unicode="&#x130;" horiz-adv-x="917" 
d="M336 -194q-71 0 -135 20.5t-113.5 57t-78 84.5t-28.5 103q0 57 15.5 99.5t37.5 70.5t43 43q24 17 43 23.5t23 6.5q6 0 6 -5t-5 -8q-52 -31 -79.5 -87.5t-27.5 -119.5q0 -48 17.5 -93.5t54.5 -83t97 -59.5t145 -22q63 0 121.5 26.5t110.5 70t97 96.5t81 106t61 98
q48 85 82 168.5t67.5 164.5t80.5 158q-46 -8 -96 -19.5t-98 -29t-87 -43.5t-62 -62.5t-23 -85.5q0 -40 21 -63.5t58 -23.5q23 0 46.5 14t40 39.5t16.5 61.5q0 15 -3 23.5t-5 12.5q0 4 2.5 8t6.5 4q9 0 13.5 -17.5t4.5 -28.5q0 -36 -15.5 -68t-46 -52t-75.5 -20
q-49 0 -83.5 31t-34.5 83q0 50 27.5 89.5t74 69t103.5 50.5t117 34t114 20q15 31 41.5 58t60.5 27q14 0 23 -7t9 -22q0 -18 -13 -32t-33 -23.5t-39.5 -15t-33.5 -7.5q-43 -79 -69.5 -154t-48 -147.5t-51.5 -144.5q-43 -101 -98.5 -188t-126 -152t-158.5 -101t-195 -36z
M1100 755q39 8 52.5 18t13.5 18q0 13 -11 13q-13 0 -28.5 -13t-26.5 -36zM1189 882q-13 0 -22.5 10t-9.5 24q0 17 14 30.5t31 13.5q14 0 24 -9t10 -23q0 -18 -14 -32t-33 -14z" />
    <glyph glyph-name="dotlessi" unicode="&#x131;" horiz-adv-x="176" 
d="M87 0q-37 0 -52 21.5t-15 49.5q0 15 3.5 30.5t8.5 28.5l67 171q3 8 3 14q0 10 -5 17.5l-7 10.5l55 2q15 1 21.5 -3.5t6.5 -10.5t-7 -22q-10 -24 -27 -60t-33.5 -74t-28 -71t-11.5 -51q0 -13 6.5 -22t22.5 -9q21 0 41.5 16.5t38.5 42.5t33.5 56t26.5 56q12 0 12 -9
q-10 -25 -26 -57t-36.5 -60.5t-45 -47.5t-52.5 -19z" />
    <glyph glyph-name="IJ" unicode="&#x132;" horiz-adv-x="1483" 
d="M336 -194q-71 0 -135 20.5t-113.5 57t-78 84.5t-28.5 103q0 57 15.5 99.5t37.5 70.5t43 43q24 17 43 23.5t23 6.5q6 0 6 -5t-5 -8q-52 -31 -79.5 -87.5t-27.5 -119.5q0 -48 17.5 -93.5t54.5 -83t97 -59.5t145 -22q63 0 121.5 26.5t110.5 70t97 96.5t81 106t61 98
q48 85 82 168.5t67.5 164.5t80.5 158q-46 -8 -96 -19.5t-98 -29t-87 -43.5t-62 -62.5t-23 -85.5q0 -40 21 -63.5t58 -23.5q23 0 46.5 14t40 39.5t16.5 61.5q0 15 -3 23.5t-5 12.5q0 4 2.5 8t6.5 4q9 0 13.5 -17.5t4.5 -28.5q0 -36 -15.5 -68t-46 -52t-75.5 -20
q-49 0 -83.5 31t-34.5 83q0 50 27.5 89.5t74 69t103.5 50.5t117 34t114 20q15 31 41.5 58t60.5 27q14 0 23 -7t9 -22q0 -18 -13 -32t-33 -23.5t-39.5 -15t-33.5 -7.5q-43 -79 -69.5 -154t-48 -147.5t-51.5 -144.5q-43 -101 -98.5 -188t-126 -152t-158.5 -101t-195 -36z
M1100 755q39 8 52.5 18t13.5 18q0 13 -11 13q-13 0 -28.5 -13t-26.5 -36zM788 -382q-95 0 -171.5 32t-121 93t-44.5 147q0 80 31 131.5t68 77.5q21 15 39 21.5t24 6.5t6 -5t-5 -8q-52 -31 -79.5 -88t-27.5 -125q0 -78 36 -135.5t100 -88.5t148 -31q142 0 271 112t249 312
q45 77 85 159t76 162q36 78 68.5 140.5t57 105.5t35.5 60q-253 -34 -391.5 -108t-138.5 -190q0 -60 31 -89.5t71 -29.5q39 0 78.5 25t66 69.5t26.5 103.5q0 29 -18 47q0 10 10 10q12 0 21.5 -18t9.5 -45q0 -67 -31.5 -115.5t-80 -74.5t-99.5 -26q-39 0 -74 17t-57.5 52
t-22.5 87q0 68 45.5 118.5t128 86.5t195 62t247.5 45q28 39 51.5 61t51.5 22q16 0 25.5 -8t9.5 -24q0 -23 -19 -37.5t-48 -23t-58 -13.5q-37 -64 -64.5 -131.5t-51 -138t-50 -144t-62.5 -150.5q-75 -159 -173 -275.5t-217 -180t-257 -63.5zM1681 726q41 7 55 17.5t14 19.5
q0 12 -12 12q-11 0 -26.5 -16.5t-30.5 -32.5z" />
    <glyph glyph-name="ij" unicode="&#x133;" horiz-adv-x="354" 
d="M87 0q-37 0 -52 21.5t-15 49.5q0 15 3.5 30.5t8.5 28.5l67 171q3 8 3 14q0 10 -5 17.5l-7 10.5l55 2q15 1 21.5 -3.5t6.5 -10.5t-7 -22q-10 -24 -27 -60t-33.5 -74t-28 -71t-11.5 -51q0 -13 6.5 -22t22.5 -9q21 0 41.5 16.5t38.5 42.5t33.5 56t26.5 56q12 0 12 -9
q-10 -25 -26 -57t-36.5 -60.5t-45 -47.5t-52.5 -19zM176 407q-13 0 -22.5 10t-9.5 24q0 17 14 30.5t31 13.5q14 0 24 -9t10 -23q0 -18 -14 -32t-33 -14zM-126 -319q-52 0 -73.5 20.5t-21.5 48.5q0 27 15 54q14 29 39 49.5t55 34.5q51 24 117.5 39t127.5 33q8 14 16.5 29
t15.5 29q20 40 37 79.5t42 85.5q-9 0 -9 10l44 101q1 2 2 5.5t1 7.5q0 11 -5 18.5l-7 10.5l55 2h5q22 0 22 -14q0 -7 -6 -22l-80 -188q-14 -33 -30 -66t-33 -67q70 27 111.5 66.5t64 79t34.5 66.5q12 0 12 -9q-10 -22 -26 -52.5t-42 -64t-67 -64.5t-103 -54
q-24 -43 -55 -89.5t-70 -87t-85.5 -66t-102.5 -25.5zM-150 -299q33 0 68.5 20t68.5 50.5t60.5 62.5t44.5 56q6 8 11 18l10 20q-48 -13 -106 -28.5t-102 -34.5q-48 -20 -75 -56.5t-27 -65.5q0 -19 11.5 -30.5t35.5 -11.5zM354 400q-13 0 -22.5 10t-9.5 24q0 17 14 30.5
t31 13.5q14 0 24 -9t10 -23q0 -18 -14 -32t-33 -14z" />
    <glyph glyph-name="Jcircumflex" unicode="&#x134;" horiz-adv-x="972" 
d="M277 -382q-95 0 -171.5 32t-121 93t-44.5 147q0 80 31 131.5t68 77.5q21 15 39 21.5t24 6.5t6 -5t-5 -8q-52 -31 -79.5 -88t-27.5 -125q0 -78 36 -135.5t100 -88.5t148 -31q142 0 271 112t249 312q45 77 85 159t76 162q36 78 68.5 140.5t57 105.5t35.5 60
q-253 -34 -391.5 -108t-138.5 -190q0 -60 31 -89.5t71 -29.5q39 0 78.5 25t66 69.5t26.5 103.5q0 29 -18 47q0 10 10 10q12 0 21.5 -18t9.5 -45q0 -67 -31.5 -115.5t-80 -74.5t-99.5 -26q-39 0 -74 17t-57.5 52t-22.5 87q0 68 45.5 118.5t128 86.5t195 62t247.5 45
q28 39 51.5 61t51.5 22q16 0 25.5 -8t9.5 -24q0 -23 -19 -37.5t-48 -23t-58 -13.5q-37 -64 -64.5 -131.5t-51 -138t-50 -144t-62.5 -150.5q-75 -159 -173 -275.5t-217 -180t-257 -63.5zM1170 726q41 7 55 17.5t14 19.5q0 12 -12 12q-11 0 -26.5 -16.5t-30.5 -32.5zM1233 958
q14 0 18 -4l44 -104q0 -1 0.5 -1.5l0.5 -0.5q0 -3 -8 -3q-4 0 -9.5 1.5t-7.5 3.5l-56 57l-126 -57q-7 -6 -22 -6q-5 0 -9 2t-1 4l148 104q5 2 11.5 3t16.5 1z" />
    <glyph glyph-name="jcircumflex" unicode="&#x135;" horiz-adv-x="178" 
d="M-302 -319q-52 0 -73.5 20.5t-21.5 48.5q0 27 15 54q14 29 39 49.5t55 34.5q51 24 117.5 39t127.5 33q8 14 16.5 29t15.5 29q20 40 37 79.5t42 85.5q-9 0 -9 10l44 101q1 2 2 5.5t1 7.5q0 11 -5 18.5l-7 10.5l55 2h5q22 0 22 -14q0 -7 -6 -22l-80 -188q-14 -33 -30 -66
t-33 -67q70 27 111.5 66.5t64 79t34.5 66.5q12 0 12 -9q-10 -22 -26 -52.5t-42 -64t-67 -64.5t-103 -54q-24 -43 -55 -89.5t-70 -87t-85.5 -66t-102.5 -25.5zM-326 -299q33 0 68.5 20t68.5 50.5t60.5 62.5t44.5 56q6 8 11 18l10 20q-48 -13 -106 -28.5t-102 -34.5
q-48 -20 -75 -56.5t-27 -65.5q0 -19 11.5 -30.5t35.5 -11.5zM250 403q-12 0 -15 5l-46 63l-101 -61q-4 -2 -8.5 -4t-9.5 -2q-9 0 -11 5l121 107q8 5 22 5q10 0 15 -5l38 -108q0 -1 0.5 -1.5l0.5 -0.5q0 -3 -6 -3z" />
    <glyph glyph-name="uni0136" unicode="&#x136;" horiz-adv-x="1203" 
d="M1230 -185q-70 0 -135.5 43.5t-111.5 144.5q-20 45 -32.5 91t-18.5 86t-6 66q0 32 7 36q19 -2 63.5 16t106 53t133 84.5t144 111.5t139.5 134t118 151q7 11 11 16t8 5q5 0 9 -4.5t4 -9.5q0 -8 -7 -19q-48 -80 -113.5 -156.5t-139.5 -143.5t-149 -121t-143 -90t-120 -49
q-3 2 -3 -10q0 -17 7 -54.5t21.5 -85t35.5 -96.5q38 -89 89.5 -122.5t106.5 -33.5q35 0 72 14t68 38.5t48 57.5q6 10 9 10q7 0 7 -8q0 -3 -1.5 -6.5t-6.5 -14.5q-14 -28 -46.5 -59.5t-77 -53t-96.5 -21.5zM381 -172q-68 0 -131.5 18.5t-114 54.5t-80 88t-29.5 118
q0 48 14.5 85.5t36 62.5t43 38t35.5 13q10 0 10 -6q0 -5 -5 -8q-23 -12 -47 -35t-40 -60t-16 -92q0 -60 25.5 -102.5t67 -69.5t89.5 -39.5t92 -12.5q98 0 183 38t155.5 101.5t124.5 141.5t89 158q13 29 31 69.5t39 86.5t41 90t36.5 79.5t26.5 54.5q-67 -8 -144.5 -14.5
t-147.5 -26.5q-78 -22 -127.5 -64t-73 -91t-23.5 -92q0 -52 26 -85.5t75 -33.5q37 0 66 21.5t46 56t17 73.5q0 16 -3 27t-3 17q0 7 5 7q7 0 13 -12q10 -23 10 -45q0 -47 -23 -84.5t-59 -59.5t-76 -22q-47 0 -81.5 22.5t-53.5 59.5t-19 80q0 49 27 99.5t87 92t158 63.5
q82 18 167 23.5t150 11.5q35 54 57 68.5t40 14.5t28.5 -10t10.5 -24q0 -20 -27.5 -42.5t-92.5 -29.5q-32 -59 -59 -131.5t-54 -151.5t-59 -157q-54 -130 -128 -227.5t-174 -151.5t-231 -54zM1105 726q25 2 48 14.5t23 27.5q0 10 -10 10q-9 0 -25 -11.5t-36 -40.5zM768 -336
q-6 0 -6 8q29 9 47.5 27.5t21.5 45.5q-5 -4 -10.5 -6.5t-12.5 -2.5q-12 0 -19 8.5t-7 20.5q0 20 12.5 29t25.5 9q17 0 26.5 -11t9.5 -27q0 -27 -13.5 -48t-34 -34.5t-40.5 -18.5z" />
    <glyph glyph-name="uni0137" unicode="&#x137;" horiz-adv-x="360" 
d="M233 -7q-28 3 -46 21.5t-26 43.5t-8 46q0 40 18 64.5t33 25.5q16 -1 39 7.5t40 23.5q29 23 29 47q0 25 -29 25q-16 0 -40.5 -11t-56.5 -38q-40 -34 -83 -91q-6 -13 -14 -38.5t-13.5 -52.5t-5.5 -46q0 -15 5 -20h-63q-11 0 -11 9q0 3 1 5t2 8q14 52 33.5 92t32.5 70
q-9 -3 -10 1.5t-1 7.5q7 16 23.5 51.5t39 82t48.5 97.5t52 98q26 48 42.5 68t40.5 20q9 0 21.5 -3t22.5 -1q-22 -19 -55 -69.5t-70 -117.5t-71 -137q-10 -20 -19 -42t-17 -44q21 26 48 54t56.5 51.5t58.5 34.5q33 12 55 12q23 0 33.5 -11t10.5 -28q0 -19 -15 -45.5
t-41 -45.5q-22 -15 -46 -26t-57 -14q-6 -14 -8.5 -28.5t-2.5 -28.5q0 -39 18 -68.5t47 -29.5q14 0 30.5 8t34.5 27q20 20 40 55.5t40 79.5q12 0 12 -9q-36 -87 -70 -129t-65.5 -53.5t-62.5 -8.5zM76 -204q-6 0 -6 8q29 9 47.5 27.5t21.5 45.5q-5 -4 -10.5 -6.5t-12.5 -2.5
q-12 0 -19 8.5t-7 20.5q0 20 12.5 29t25.5 9q17 0 26.5 -11t9.5 -27q0 -27 -13.5 -48t-34 -34.5t-40.5 -18.5z" />
    <glyph glyph-name="kgreenlandic" unicode="&#x138;" horiz-adv-x="350" 
d="M-35 -8q44 93 71.5 152.5t45.5 98t32 67.5q17 33 32.5 49t40.5 15l24 -4l-10 -19q-21 -39 -41.5 -80t-41.5 -82q22 27 49.5 57t58.5 54.5t61 35.5q33 12 56 12q28 0 38 -18q3 -7 3 -16q0 -16 -10.5 -27.5t-26.5 -11.5h-5t-5 1q-2 22 -37 22q-18 0 -43 -9.5t-54 -32.5
q-10 -30 -15 -57.5t-5 -51.5q0 -56 22.5 -90t54.5 -34q17 0 36 9.5t33 25.5q18 20 39.5 56t40.5 79q12 0 12 -9q-31 -74 -61 -116t-60 -59t-63 -17q-18 0 -41.5 7.5t-43 28.5t-26.5 61q-2 15 -3 27.5t-1 22.5q0 12 1.5 21.5t2.5 16.5q-13 -16 -25.5 -35t-22.5 -39
q-12 -23 -21.5 -45t-18.5 -44q-5 -13 -14.5 -13.5t-23.5 -1.5q-13 -1 -21.5 -2t-13.5 -5z" />
    <glyph glyph-name="Lacute" unicode="&#x139;" horiz-adv-x="716" 
d="M799 -311q-10 0 -13 3.5t-3 7.5q18 3 35 26.5t17 54.5q0 49 -32 94.5t-90 83.5t-135.5 65.5t-169.5 40.5q-34 -48 -76.5 -88.5t-94 -65t-111.5 -24.5q-63 0 -96 29t-33 67q0 35 28.5 70.5t87 59t148.5 23.5q69 0 140 -12q25 44 45 88t35 83q-99 4 -156 30.5t-81 66.5
t-24 82q0 53 32 100.5t87 77.5t123 30q8 0 10 -6t2 -10q-38 0 -73.5 -17t-63.5 -45.5t-44.5 -63.5t-16.5 -72q0 -36 19 -70.5t65 -57.5t129 -25q9 23 15.5 42.5t11.5 33.5q24 72 51.5 143t63 129t84.5 93t117 35q44 0 68.5 -25t24.5 -69q0 -43 -20 -94.5t-56 -102.5t-85 -95
t-107 -73t-122 -36q-15 -32 -38 -80.5t-55 -99.5q87 -20 164.5 -54t137 -77.5t93.5 -93t34 -98.5q0 -44 -22 -74t-50 -30zM832 740q-43 0 -81 -37.5t-72.5 -99t-67.5 -136.5t-66 -149q59 8 110 36t93 68.5t72 86.5t46 90.5t16 79.5q0 28 -12 44.5t-38 16.5zM22 -31
q0 -25 27 -43.5t77 -18.5q74 0 134 47.5t107 115.5q-53 5 -106 5q-82 0 -135 -16.5t-78.5 -41t-25.5 -48.5zM809 844q-7 2 -12.5 4.5t-5.5 9.5q39 26 79 57t76 61q8 0 15.5 -9t5.5 -34q-10 -7 -31.5 -20t-46.5 -26.5t-46.5 -25t-33.5 -17.5z" />
    <glyph glyph-name="lacute" unicode="&#x13a;" horiz-adv-x="213" 
d="M106 -3q-37 0 -54.5 22.5t-17.5 53.5q0 32 9 66t16 57q16 56 40.5 119.5t54 125t58.5 110.5q23 39 49.5 58.5t46.5 19.5q16 0 25.5 -11.5t9.5 -34.5q0 -16 -5.5 -38t-18.5 -50q-35 -78 -83.5 -156t-122.5 -146q-12 -28 -20 -60t-8 -52q0 -62 42 -62q32 0 71 46.5
t74 127.5q4 0 8 -1.5t4 -7.5q-11 -27 -27.5 -59.5t-38 -61.5t-49.5 -47.5t-63 -18.5zM121 225q36 37 70 85.5t63.5 101t49.5 99.5q7 15 11.5 33t4.5 30q0 14 -7 14q-4 0 -12 -7.5t-21 -25.5q-19 -25 -41.5 -68t-45.5 -92t-42 -94.5t-30 -75.5zM317 657q-7 0 -12 2t-5 7
q31 29 61 59.5t59 61.5q8 0 15.5 -8.5t7.5 -33.5q-9 -8 -26 -20.5t-36.5 -26.5t-37 -25t-26.5 -16z" />
    <glyph glyph-name="uni013B" unicode="&#x13b;" horiz-adv-x="716" 
d="M799 -311q-10 0 -13 3.5t-3 7.5q18 3 35 26.5t17 54.5q0 49 -32 94.5t-90 83.5t-135.5 65.5t-169.5 40.5q-34 -48 -76.5 -88.5t-94 -65t-111.5 -24.5q-63 0 -96 29t-33 67q0 35 28.5 70.5t87 59t148.5 23.5q69 0 140 -12q25 44 45 88t35 83q-99 4 -156 30.5t-81 66.5
t-24 82q0 53 32 100.5t87 77.5t123 30q8 0 10 -6t2 -10q-38 0 -73.5 -17t-63.5 -45.5t-44.5 -63.5t-16.5 -72q0 -36 19 -70.5t65 -57.5t129 -25q9 23 15.5 42.5t11.5 33.5q24 72 51.5 143t63 129t84.5 93t117 35q44 0 68.5 -25t24.5 -69q0 -43 -20 -94.5t-56 -102.5t-85 -95
t-107 -73t-122 -36q-15 -32 -38 -80.5t-55 -99.5q87 -20 164.5 -54t137 -77.5t93.5 -93t34 -98.5q0 -44 -22 -74t-50 -30zM832 740q-43 0 -81 -37.5t-72.5 -99t-67.5 -136.5t-66 -149q59 8 110 36t93 68.5t72 86.5t46 90.5t16 79.5q0 28 -12 44.5t-38 16.5zM22 -31
q0 -25 27 -43.5t77 -18.5q74 0 134 47.5t107 115.5q-53 5 -106 5q-82 0 -135 -16.5t-78.5 -41t-25.5 -48.5zM445 -212q-6 0 -6 8q29 9 47.5 27.5t21.5 45.5q-5 -4 -10.5 -6.5t-12.5 -2.5q-12 0 -19 8.5t-7 20.5q0 20 12.5 29t25.5 9q17 0 26.5 -11t9.5 -27q0 -27 -13.5 -48
t-34 -34.5t-40.5 -18.5z" />
    </font>
</defs>
</svg>
