<svg width="254" height="205" viewBox="0 0 254 205" fill="none" xmlns="http://www.w3.org/2000/svg">
<path d="M234 200H20V205H234V200Z" fill="#B5D9D9"/>
<path opacity="0.1" d="M254 0H0V200H254V0Z" fill="white"/>
<path d="M234 0H20V200H234V0Z" fill="#383838"/>
<path d="M227 0H27V200H227V0Z" fill="#D1AC86"/>
<path d="M226.999 21.3882C222.677 21.3882 220.319 19.8235 217.962 18.65C215.997 17.4764 214.818 16.6941 211.282 16.6941C208.138 16.6941 206.567 17.4764 204.602 18.65C202.638 19.8235 200.28 21.3882 195.565 21.3882C191.243 21.3882 188.885 19.8235 186.528 18.65C184.563 17.4764 183.384 16.6941 180.241 16.6941C177.097 16.6941 175.526 17.4764 173.954 18.65C171.989 19.8235 169.632 21.3882 164.917 21.3882C160.202 21.3882 158.237 19.8235 155.879 18.65C153.915 17.4764 152.736 16.6941 149.593 16.6941C146.449 16.6941 144.877 17.4764 143.306 18.65C141.341 19.8235 138.984 21.3882 134.268 21.3882C129.553 21.3882 127.589 19.8235 125.231 18.65C123.267 17.4764 122.088 16.6941 118.944 16.6941C115.801 16.6941 114.229 17.4764 112.658 18.65C110.693 19.8235 108.335 21.3882 103.62 21.3882C98.9052 21.3882 96.9406 19.8235 94.583 18.65C92.6184 17.4764 91.4396 16.6941 88.2962 16.6941C85.1528 16.6941 83.581 17.4764 82.0093 18.65C80.0447 19.8235 77.6872 21.3882 72.972 21.3882C68.6499 21.3882 66.2923 19.8235 63.9347 18.65C61.9701 17.4764 60.7914 16.6941 57.648 16.6941C54.5046 16.6941 52.9328 17.4764 51.3611 18.65C49.3965 19.8235 47.0389 21.3882 42.3238 21.3882C38.0016 21.3882 35.6441 19.8235 33.2866 18.65C31.322 17.4764 30.1432 16.6941 26.9998 16.6941V12C31.3219 12 33.6795 13.5647 36.0371 14.7382C38.0017 15.9117 39.1804 16.6941 42.3238 16.6941C45.4672 16.6941 47.039 15.9117 48.6107 14.7382C50.5753 13.5647 52.9329 12 57.648 12C61.9701 12 64.3277 13.5647 66.6853 14.7382C68.6499 15.9117 69.8286 16.6941 72.972 16.6941C76.1154 16.6941 77.6872 15.9117 79.2589 14.7382C81.2235 13.5647 83.5811 12 88.2962 12C92.6184 12 94.9759 13.5647 97.3334 14.7382C99.298 15.9117 100.477 16.6941 103.62 16.6941C106.764 16.6941 108.335 15.9117 109.907 14.7382C111.872 13.5647 114.229 12 118.944 12C123.659 12 125.624 13.5647 127.982 14.7382C129.946 15.9117 131.125 16.6941 134.268 16.6941C137.412 16.6941 138.984 15.9117 140.555 14.7382C142.52 13.5647 144.877 12 149.593 12C153.915 12 156.272 13.5647 158.63 14.7382C160.594 15.9117 161.773 16.6941 164.917 16.6941C168.06 16.6941 169.632 15.9117 171.204 14.7382C173.168 13.5647 175.526 12 180.241 12C184.956 12 186.92 13.5647 189.278 14.7382C191.243 15.9117 192.421 16.6941 195.565 16.6941C198.708 16.6941 200.28 15.9117 202.245 14.7382C204.209 13.5647 206.567 12 211.282 12C215.997 12 217.962 13.5647 220.319 14.7382C222.284 15.9117 223.463 16.6941 226.999 16.6941V21.3882Z" fill="#49494A"/>
<path d="M227 31C222.661 31 220.688 29.7647 218.716 28.5294C216.744 27.2941 215.166 26.4706 211.615 26.4706C208.065 26.4706 206.487 27.7059 204.515 28.5294C202.542 29.7647 200.57 31 196.231 31C191.892 31 189.919 29.7647 187.947 28.5294C185.974 27.2941 184.397 26.4706 180.846 26.4706C177.296 26.4706 175.718 27.7059 173.746 28.5294C171.773 29.7647 169.801 31 165.462 31C161.122 31 159.15 29.7647 157.178 28.5294C155.205 27.2941 153.627 26.4706 150.077 26.4706C146.527 26.4706 144.949 27.7059 142.976 28.5294C141.004 29.7647 139.032 31 134.692 31C130.353 31 128.381 29.7647 126.408 28.5294C124.436 27.2941 122.858 26.4706 119.308 26.4706C115.757 26.4706 114.179 27.7059 112.207 28.5294C110.235 29.7647 108.262 31 103.923 31C99.5839 31 97.6115 29.7647 95.6391 28.5294C93.6667 27.2941 92.0887 26.4706 88.5384 26.4706C84.9881 26.4706 83.4103 27.7059 81.4379 28.5294C79.4655 29.7647 77.4931 31 73.1538 31C68.8146 31 66.8422 29.7647 64.8699 28.5294C62.8975 27.2941 61.3195 26.4706 57.7692 26.4706C54.2189 26.4706 52.641 27.7059 50.6686 28.5294C48.6963 29.7647 46.7239 31 42.3847 31C38.0454 31 36.073 29.7647 34.1006 28.5294C32.1282 27.2941 30.5503 26.4706 27 26.4706V24C31.3393 24 33.3117 25.2353 35.284 26.4706C37.2564 27.7059 38.8344 28.5294 42.3847 28.5294C45.9349 28.5294 47.5128 27.2941 49.4852 26.4706C51.4576 25.2353 53.43 24 57.7692 24C62.1085 24 64.0809 25.2353 66.0533 26.4706C68.0257 27.7059 69.6035 28.5294 73.1538 28.5294C76.7041 28.5294 78.2821 27.2941 80.2544 26.4706C82.2268 25.2353 84.1992 24 88.5384 24C92.8777 24 94.8501 25.2353 96.8225 26.4706C98.7949 27.7059 100.373 28.5294 103.923 28.5294C107.473 28.5294 109.051 27.2941 111.024 26.4706C112.996 25.2353 114.968 24 119.308 24C123.647 24 125.619 25.2353 127.592 26.4706C129.564 27.7059 131.142 28.5294 134.692 28.5294C138.243 28.5294 139.82 27.2941 141.793 26.4706C143.765 25.2353 145.738 24 150.077 24C154.416 24 156.389 25.2353 158.361 26.4706C160.333 27.7059 161.911 28.5294 165.462 28.5294C169.012 28.5294 170.59 27.2941 172.562 26.4706C174.535 25.2353 176.507 24 180.846 24C185.185 24 187.158 25.2353 189.13 26.4706C191.103 27.7059 192.681 28.5294 196.231 28.5294C199.781 28.5294 201.359 27.2941 203.331 26.4706C205.304 25.2353 207.276 24 211.615 24C215.955 24 217.927 25.2353 219.899 26.4706C221.872 27.7059 223.45 28.5294 227 28.5294V31Z" fill="#49494A"/>
<path d="M226.999 188.811C222.677 188.811 220.319 187.247 217.962 186.073C215.997 184.9 214.818 184.117 211.282 184.117C208.139 184.117 206.567 184.9 204.602 186.073C202.638 187.247 200.28 188.811 195.565 188.811C191.243 188.811 188.885 187.247 186.528 186.073C184.563 184.9 183.384 184.117 180.241 184.117C177.098 184.117 175.526 184.9 173.954 186.073C171.99 187.247 169.632 188.811 164.917 188.811C160.202 188.811 158.237 187.247 155.88 186.073C153.915 184.9 152.736 184.117 149.593 184.117C146.449 184.117 144.878 184.9 143.306 186.073C141.341 187.247 138.984 188.811 134.269 188.811C129.554 188.811 127.589 187.247 125.231 186.073C123.267 184.9 122.088 184.117 118.945 184.117C115.801 184.117 114.229 184.9 112.658 186.073C110.693 187.247 108.336 188.811 103.62 188.811C98.9054 188.811 96.9408 187.247 94.5833 186.073C92.6186 184.9 91.4398 184.117 88.2964 184.117C85.153 184.117 83.5813 184.9 82.0096 186.073C80.045 187.247 77.6874 188.811 72.9723 188.811C68.6501 188.811 66.2925 187.247 63.935 186.073C61.9704 184.9 60.7916 184.117 57.6482 184.117C54.5048 184.117 52.9331 184.9 51.3614 186.073C49.3967 187.247 47.0392 188.811 42.3241 188.811C38.0019 188.811 35.6444 187.247 33.2868 186.073C31.3222 184.9 30.1434 184.117 27 184.117V179.814C31.3222 179.814 33.6797 181.379 36.0373 182.553C38.0019 183.726 39.1807 184.509 42.3241 184.509C45.4675 184.509 47.0392 183.726 48.6109 182.553C50.5755 181.379 52.9331 179.814 57.6482 179.814C61.9704 179.814 64.328 181.379 66.6855 182.553C68.6501 183.726 69.8289 184.509 72.9723 184.509C76.1157 184.509 77.6874 183.726 79.2591 182.553C81.2238 181.379 83.5813 179.814 88.2964 179.814C92.6186 179.814 94.9761 181.379 97.3337 182.553C99.2983 183.726 100.477 184.509 103.62 184.509C106.764 184.509 108.336 183.726 109.907 182.553C111.872 181.379 114.229 179.814 118.945 179.814C123.66 179.814 125.624 181.379 127.982 182.553C129.947 183.726 131.125 184.509 134.269 184.509C137.412 184.509 138.984 183.726 140.555 182.553C142.52 181.379 144.878 179.814 149.593 179.814C153.915 179.814 156.273 181.379 158.63 182.553C160.595 183.726 161.774 184.509 164.917 184.509C168.06 184.509 169.632 183.726 171.204 182.553C173.168 181.379 175.526 179.814 180.241 179.814C184.956 179.814 186.921 181.379 189.278 182.553C191.243 183.726 192.422 184.509 195.565 184.509C198.708 184.509 200.28 183.726 202.245 182.553C204.209 181.379 206.567 179.814 211.282 179.814C215.997 179.814 217.962 181.379 220.319 182.553C222.284 183.726 223.463 184.509 226.999 184.509V188.811Z" fill="#49494A"/>
<path d="M227 177C222.661 177 220.688 175.765 218.716 174.529C216.744 173.294 215.166 172.471 211.615 172.471C208.065 172.471 206.487 173.706 204.515 174.529C202.542 175.765 200.57 177 196.231 177C191.892 177 189.919 175.765 187.947 174.529C185.974 173.294 184.397 172.471 180.846 172.471C177.296 172.471 175.718 173.706 173.746 174.529C171.773 175.765 169.801 177 165.462 177C161.122 177 159.15 175.765 157.178 174.529C155.205 173.294 153.627 172.471 150.077 172.471C146.527 172.471 144.949 173.706 142.976 174.529C141.004 175.765 139.032 177 134.692 177C130.353 177 128.381 175.765 126.408 174.529C124.436 173.294 122.858 172.471 119.308 172.471C115.757 172.471 114.179 173.706 112.207 174.529C110.235 175.765 108.262 177 103.923 177C99.5839 177 97.6115 175.765 95.6391 174.529C93.6667 173.294 92.0887 172.471 88.5384 172.471C84.9881 172.471 83.4103 173.706 81.4379 174.529C79.4655 175.765 77.4931 177 73.1538 177C68.8146 177 66.8422 175.765 64.8699 174.529C62.8975 173.294 61.3195 172.471 57.7692 172.471C54.2189 172.471 52.641 173.706 50.6686 174.529C48.6963 175.765 46.7239 177 42.3847 177C38.0454 177 36.073 175.765 34.1006 174.529C32.1282 173.294 30.5503 172.471 27 172.471V170C31.3393 170 33.3117 171.235 35.284 172.471C37.2564 173.706 38.8344 174.529 42.3847 174.529C45.9349 174.529 47.5128 173.294 49.4852 172.471C51.4576 171.235 53.43 170 57.7692 170C62.1085 170 64.0809 171.235 66.0533 172.471C68.0257 173.706 69.6035 174.529 73.1538 174.529C76.7041 174.529 78.2821 173.294 80.2544 172.471C82.2268 171.235 84.1992 170 88.5384 170C92.8777 170 94.8501 171.235 96.8225 172.471C98.7949 173.706 100.373 174.529 103.923 174.529C107.473 174.529 109.051 173.294 111.024 172.471C112.996 171.235 114.968 170 119.308 170C123.647 170 125.619 171.235 127.592 172.471C129.564 173.706 131.142 174.529 134.692 174.529C138.243 174.529 139.82 173.294 141.793 172.471C143.765 171.235 145.738 170 150.077 170C154.416 170 156.389 171.235 158.361 172.471C160.333 173.706 161.911 174.529 165.462 174.529C169.012 174.529 170.59 173.294 172.562 172.471C174.535 171.235 176.507 170 180.846 170C185.185 170 187.158 171.235 189.13 172.471C191.103 173.706 192.681 174.529 196.231 174.529C199.781 174.529 201.359 173.294 203.331 172.471C205.304 171.235 207.276 170 211.615 170C215.955 170 217.927 171.235 219.899 172.471C221.872 173.706 223.45 174.529 227 174.529V177Z" fill="#49494A"/>
</svg>
