<svg width="254" height="205" viewBox="0 0 254 205" fill="none" xmlns="http://www.w3.org/2000/svg">
<path d="M234 200H20V205H234V200Z" fill="#B5D9D9"/>
<path opacity="0.1" d="M254 0H0V200H254V0Z" fill="white"/>
<path d="M234 0H20V200H234V0Z" fill="#383838"/>
<path d="M227 0H27V200H227V0Z" fill="#DF332A"/>
<path d="M227 0H26.9998V27.3822H227V0Z" fill="#015F2D"/>
<path d="M38.8098 17.9939L30.9358 10.5616C30.9358 10.5616 30.9358 10.1705 30.9358 9.7793C30.9358 9.7793 31.3295 9.7793 31.7232 9.7793L39.2035 17.2116C39.2035 17.2116 39.2035 17.6027 38.8098 17.9939C39.2035 17.9939 39.2035 17.9939 38.8098 17.9939Z" fill="white"/>
<path d="M31.3295 17.9939C30.9358 17.6027 30.9358 17.6028 30.9358 17.2116L38.4161 9.7793C38.4161 9.7793 38.8098 9.7793 39.2035 9.7793C39.2035 9.7793 39.2035 10.1705 39.2035 10.5616L31.3295 17.9939C31.7232 17.9939 31.7232 17.9939 31.3295 17.9939Z" fill="white"/>
<path d="M57.3152 17.9939C56.9215 17.9939 56.9215 17.9939 57.3152 17.9939L49.4412 10.5616C49.4412 10.5616 49.4412 10.1705 49.4412 9.7793C49.4412 9.7793 49.8349 9.7793 50.2286 9.7793L57.7089 17.2116C57.7089 17.2116 57.7089 17.6027 57.3152 17.9939Z" fill="white"/>
<path d="M49.8349 17.9939C49.4412 17.9939 49.4412 17.9939 49.8349 17.9939C49.4412 17.6027 49.4412 17.6028 49.4412 17.2116L56.9215 9.7793C56.9215 9.7793 57.3152 9.7793 57.7089 9.7793C57.7089 9.7793 57.7089 10.1705 57.7089 10.5616L49.8349 17.9939Z" fill="white"/>
<path d="M75.4236 17.9939L67.5496 10.5616C67.5496 10.5616 67.5496 10.1705 67.5496 9.7793C67.5496 9.7793 67.9433 9.7793 68.337 9.7793L75.8173 17.2116C75.8173 17.2116 75.8173 17.6027 75.4236 17.9939C75.8173 17.9939 75.8173 17.9939 75.4236 17.9939Z" fill="white"/>
<path d="M67.9433 17.9939C67.5496 17.6027 67.5496 17.6028 67.5496 17.2116L75.0299 9.7793C75.0299 9.7793 75.4236 9.7793 75.8173 9.7793C75.8173 9.7793 75.8173 10.1705 75.8173 10.5616L67.9433 17.9939C68.337 17.9939 68.337 17.9939 67.9433 17.9939Z" fill="white"/>
<path d="M93.9287 17.9939L86.0547 10.5616C86.0547 10.5616 86.0547 10.1705 86.0547 9.7793C86.0547 9.7793 86.4484 9.7793 86.8421 9.7793L94.3224 17.2116C94.3224 17.2116 94.3224 17.6027 93.9287 17.9939Z" fill="white"/>
<path d="M86.4484 17.9939C86.0547 17.6027 86.0547 17.6028 86.0547 17.2116L93.535 9.7793C93.535 9.7793 93.9287 9.7793 94.3224 9.7793C94.3224 9.7793 94.3224 10.1705 94.3224 10.5616L86.4484 17.9939Z" fill="white"/>
<path d="M112.037 17.9939L104.163 10.5616C104.163 10.5616 104.163 10.1705 104.163 9.7793C104.163 9.7793 104.557 9.7793 104.95 9.7793L112.431 17.2116C112.824 17.2116 112.824 17.6027 112.037 17.9939C112.431 17.9939 112.431 17.9939 112.037 17.9939Z" fill="white"/>
<path d="M104.557 17.9939C104.163 17.6027 104.163 17.6028 104.163 17.2116L111.643 9.7793C111.643 9.7793 112.037 9.7793 112.431 9.7793C112.431 9.7793 112.431 10.1705 112.431 10.5616L104.557 17.9939C104.95 17.9939 104.95 17.9939 104.557 17.9939Z" fill="white"/>
<path d="M130.543 17.9939L122.669 10.5616C122.669 10.5616 122.669 10.1705 122.669 9.7793C122.669 9.7793 123.062 9.7793 123.456 9.7793L130.936 17.2116C130.936 17.2116 130.936 17.6027 130.543 17.9939Z" fill="white"/>
<path d="M123.062 17.9939C122.669 17.6027 122.669 17.6028 122.669 17.2116L130.149 9.7793C130.149 9.7793 130.543 9.7793 130.936 9.7793C130.936 9.7793 130.936 10.1705 130.936 10.5616L123.062 17.9939Z" fill="white"/>
<path d="M148.655 17.9939L140.781 10.5616C140.781 10.5616 140.781 10.1705 140.781 9.7793C140.781 9.7793 141.174 9.7793 141.568 9.7793L149.048 17.2116C149.442 17.2116 149.442 17.6027 148.655 17.9939C149.048 17.9939 149.048 17.9939 148.655 17.9939Z" fill="white"/>
<path d="M141.174 17.9939C140.781 17.6027 140.781 17.6028 140.781 17.2116L148.261 9.7793C148.261 9.7793 148.655 9.7793 149.048 9.7793C149.048 9.7793 149.048 10.1705 149.048 10.5616L141.174 17.9939C141.568 17.9939 141.568 17.9939 141.174 17.9939Z" fill="white"/>
<path d="M167.155 17.9939L159.281 10.5616C159.281 10.5616 159.281 10.1705 159.281 9.7793C159.281 9.7793 159.675 9.7793 160.069 9.7793L167.549 17.2116C167.549 17.2116 167.549 17.6027 167.155 17.9939Z" fill="white"/>
<path d="M159.675 17.9939C159.281 17.6027 159.281 17.6028 159.281 17.2116L166.762 9.7793C166.762 9.7793 167.155 9.7793 167.549 9.7793C167.549 9.7793 167.549 10.1705 167.549 10.5616L159.675 17.9939Z" fill="white"/>
<path d="M185.267 17.9939L177.393 10.5616C177.393 10.5616 177.393 10.1705 177.393 9.7793C177.393 9.7793 177.787 9.7793 178.181 9.7793L185.661 17.2116C186.055 17.2116 186.055 17.6027 185.267 17.9939C185.661 17.9939 185.661 17.9939 185.267 17.9939Z" fill="white"/>
<path d="M177.787 17.9939C177.393 17.6027 177.393 17.6028 177.393 17.2116L184.874 9.7793C184.874 9.7793 185.267 9.7793 185.661 9.7793C185.661 9.7793 185.661 10.1705 185.661 10.5616L177.787 17.9939C178.181 17.9939 178.181 17.9939 177.787 17.9939Z" fill="white"/>
<path d="M203.773 17.9939L195.899 10.5616C195.899 10.5616 195.899 10.1705 195.899 9.7793C195.899 9.7793 196.293 9.7793 196.687 9.7793L204.167 17.2116C204.167 17.2116 204.167 17.6027 203.773 17.9939Z" fill="white"/>
<path d="M196.293 17.9939C195.899 17.6027 195.899 17.6028 195.899 17.2116L203.379 9.7793C203.379 9.7793 203.773 9.7793 204.167 9.7793C204.167 9.7793 204.167 10.1705 204.167 10.5616L196.293 17.9939Z" fill="white"/>
<path d="M221.882 17.9939L214.008 10.5616C214.008 10.5616 214.008 10.1705 214.008 9.7793C214.008 9.7793 214.401 9.7793 214.795 9.7793L222.275 17.2116C222.669 17.2116 222.669 17.6027 221.882 17.9939C222.275 17.9939 222.275 17.9939 221.882 17.9939Z" fill="white"/>
<path d="M214.401 17.9939C214.008 17.6027 214.008 17.6028 214.008 17.2116L221.488 9.7793C221.488 9.7793 221.882 9.7793 222.275 9.7793C222.275 9.7793 222.275 10.1705 222.275 10.5616L214.401 17.9939C214.795 17.9939 214.795 17.9939 214.401 17.9939Z" fill="white"/>
<path d="M227 173H26.9998V200.382H227V173Z" fill="#015F2D"/>
<path d="M38.8098 190.994L30.9358 183.562C30.9358 183.562 30.9358 183.17 30.9358 182.779C30.9358 182.779 31.3295 182.779 31.7232 182.779L39.2035 190.212C39.2035 190.212 39.2035 190.603 38.8098 190.994C39.2035 190.994 39.2035 190.994 38.8098 190.994Z" fill="white"/>
<path d="M31.3295 190.994C30.9358 190.603 30.9358 190.603 30.9358 190.212L38.4161 182.779C38.4161 182.779 38.8098 182.779 39.2035 182.779C39.2035 182.779 39.2035 183.17 39.2035 183.562L31.3295 190.994C31.7232 190.994 31.7232 190.994 31.3295 190.994Z" fill="white"/>
<path d="M57.3152 190.994C56.9215 190.994 56.9215 190.994 57.3152 190.994L49.4412 183.562C49.4412 183.562 49.4412 183.17 49.4412 182.779C49.4412 182.779 49.8349 182.779 50.2286 182.779L57.7089 190.212C57.7089 190.212 57.7089 190.603 57.3152 190.994Z" fill="white"/>
<path d="M49.8349 190.994C49.4412 190.994 49.4412 190.994 49.8349 190.994C49.4412 190.603 49.4412 190.603 49.4412 190.212L56.9215 182.779C56.9215 182.779 57.3152 182.779 57.7089 182.779C57.7089 182.779 57.7089 183.17 57.7089 183.562L49.8349 190.994Z" fill="white"/>
<path d="M75.4236 190.994L67.5496 183.562C67.5496 183.562 67.5496 183.17 67.5496 182.779C67.5496 182.779 67.9433 182.779 68.337 182.779L75.8173 190.212C75.8173 190.212 75.8173 190.603 75.4236 190.994C75.8173 190.994 75.8173 190.994 75.4236 190.994Z" fill="white"/>
<path d="M67.9433 190.994C67.5496 190.603 67.5496 190.603 67.5496 190.212L75.0299 182.779C75.0299 182.779 75.4236 182.779 75.8173 182.779C75.8173 182.779 75.8173 183.17 75.8173 183.562L67.9433 190.994C68.337 190.994 68.337 190.994 67.9433 190.994Z" fill="white"/>
<path d="M93.9287 190.994L86.0547 183.562C86.0547 183.562 86.0547 183.17 86.0547 182.779C86.0547 182.779 86.4484 182.779 86.8421 182.779L94.3224 190.212C94.3224 190.212 94.3224 190.603 93.9287 190.994Z" fill="white"/>
<path d="M86.4484 190.994C86.0547 190.603 86.0547 190.603 86.0547 190.212L93.535 182.779C93.535 182.779 93.9287 182.779 94.3224 182.779C94.3224 182.779 94.3224 183.17 94.3224 183.562L86.4484 190.994Z" fill="white"/>
<path d="M112.037 190.994L104.163 183.562C104.163 183.562 104.163 183.17 104.163 182.779C104.163 182.779 104.557 182.779 104.95 182.779L112.431 190.212C112.824 190.212 112.824 190.603 112.037 190.994C112.431 190.994 112.431 190.994 112.037 190.994Z" fill="white"/>
<path d="M104.557 190.994C104.163 190.603 104.163 190.603 104.163 190.212L111.643 182.779C111.643 182.779 112.037 182.779 112.431 182.779C112.431 182.779 112.431 183.17 112.431 183.562L104.557 190.994C104.95 190.994 104.95 190.994 104.557 190.994Z" fill="white"/>
<path d="M130.543 190.994L122.669 183.562C122.669 183.562 122.669 183.17 122.669 182.779C122.669 182.779 123.062 182.779 123.456 182.779L130.936 190.212C130.936 190.212 130.936 190.603 130.543 190.994Z" fill="white"/>
<path d="M123.062 190.994C122.669 190.603 122.669 190.603 122.669 190.212L130.149 182.779C130.149 182.779 130.543 182.779 130.936 182.779C130.936 182.779 130.936 183.17 130.936 183.562L123.062 190.994Z" fill="white"/>
<path d="M148.655 190.994L140.781 183.562C140.781 183.562 140.781 183.17 140.781 182.779C140.781 182.779 141.174 182.779 141.568 182.779L149.048 190.212C149.442 190.212 149.442 190.603 148.655 190.994C149.048 190.994 149.048 190.994 148.655 190.994Z" fill="white"/>
<path d="M141.174 190.994C140.781 190.603 140.781 190.603 140.781 190.212L148.261 182.779C148.261 182.779 148.655 182.779 149.048 182.779C149.048 182.779 149.048 183.17 149.048 183.562L141.174 190.994C141.568 190.994 141.568 190.994 141.174 190.994Z" fill="white"/>
<path d="M167.155 190.994L159.281 183.562C159.281 183.562 159.281 183.17 159.281 182.779C159.281 182.779 159.675 182.779 160.069 182.779L167.549 190.212C167.549 190.212 167.549 190.603 167.155 190.994Z" fill="white"/>
<path d="M159.675 190.994C159.281 190.603 159.281 190.603 159.281 190.212L166.762 182.779C166.762 182.779 167.155 182.779 167.549 182.779C167.549 182.779 167.549 183.17 167.549 183.562L159.675 190.994Z" fill="white"/>
<path d="M185.267 190.994L177.393 183.562C177.393 183.562 177.393 183.17 177.393 182.779C177.393 182.779 177.787 182.779 178.181 182.779L185.661 190.212C186.055 190.212 186.055 190.603 185.267 190.994C185.661 190.994 185.661 190.994 185.267 190.994Z" fill="white"/>
<path d="M177.787 190.994C177.393 190.603 177.393 190.603 177.393 190.212L184.874 182.779C184.874 182.779 185.267 182.779 185.661 182.779C185.661 182.779 185.661 183.17 185.661 183.562L177.787 190.994C178.181 190.994 178.181 190.994 177.787 190.994Z" fill="white"/>
<path d="M203.773 190.994L195.899 183.562C195.899 183.562 195.899 183.17 195.899 182.779C195.899 182.779 196.293 182.779 196.687 182.779L204.167 190.212C204.167 190.212 204.167 190.603 203.773 190.994Z" fill="white"/>
<path d="M196.293 190.994C195.899 190.603 195.899 190.603 195.899 190.212L203.379 182.779C203.379 182.779 203.773 182.779 204.167 182.779C204.167 182.779 204.167 183.17 204.167 183.562L196.293 190.994Z" fill="white"/>
<path d="M221.882 190.994L214.008 183.562C214.008 183.562 214.008 183.17 214.008 182.779C214.008 182.779 214.401 182.779 214.795 182.779L222.275 190.212C222.669 190.212 222.669 190.603 221.882 190.994C222.275 190.994 222.275 190.994 221.882 190.994Z" fill="white"/>
<path d="M214.401 190.994C214.008 190.603 214.008 190.603 214.008 190.212L221.488 182.779C221.488 182.779 221.882 182.779 222.275 182.779C222.275 182.779 222.275 183.17 222.275 183.562L214.401 190.994C214.795 190.994 214.795 190.994 214.401 190.994Z" fill="white"/>
</svg>
