<svg width="254" height="205" viewBox="0 0 254 205" fill="none" xmlns="http://www.w3.org/2000/svg">
<path d="M234 200H20V205H234V200Z" fill="#B5D9D9"/>
<path opacity="0.1" d="M254 0H0V200H254V0Z" fill="white"/>
<path d="M234 0H20V200H234V0Z" fill="#383838"/>
<path d="M227 0H27V200H227V0Z" fill="#DF332A"/>
<path d="M227 23.0234V26.209H27V19.1777L38.4395 25.7158L54.6133 16.4854L70.3926 25.7158L86.5664 16.4854L102.739 25.7158L118.913 16.4854L135.087 25.7158L150.866 16.4854L167.039 25.7158L183.213 16.4854L199.387 25.7158L215.561 16.4854L227 23.0234ZM227 12.0908V17.6387L215.561 10.7158L199.387 20.3311L183.213 10.7158L167.039 20.3311L150.866 10.7158L135.087 20.3311L118.913 10.7158L102.739 20.3311L86.5664 10.7158L70.3926 20.3311L54.6133 10.7158L38.4395 20.3311L27 13.4082V7.96582L38.4395 14.7158L54.6133 5.34082L70.3926 14.7158L86.5664 5.34082L102.739 14.7158L118.913 5.34082L135.087 14.7158L150.866 5.34082L167.039 14.7158L183.213 5.34082L199.387 14.7158L215.561 5.34082L227 12.0908ZM53.4297 0.46582L38.4395 9.09082L27 2.34082V0H54.165L53.4297 0.46582ZM85.7773 0.46582L70.3926 9.09082L55.4023 0.46582L54.9121 0H86.2676L85.7773 0.46582ZM117.729 0.46582L102.739 9.09082L87.749 0.46582L87.0146 0H118.465L117.729 0.46582ZM150.077 0.46582L135.087 9.09082L120.097 0.46582L119.361 0H150.567L150.077 0.46582ZM182.029 0.46582L167.039 9.09082L152.049 0.46582L151.314 0H182.765L182.029 0.46582ZM214.377 0.46582L199.387 9.09082L184.396 0.46582L183.661 0H215.112L214.377 0.46582ZM227 6.46582L216.744 0.46582L216.009 0H227V6.46582Z" fill="#D1AC86"/>
<path d="M227 196.839V200H27V193.023L38.4395 199.51L54.6133 190.353L70.3926 199.51L86.5664 190.353L102.739 199.51L118.913 190.353L135.087 199.51L150.866 190.353L167.039 199.51L183.213 190.353L199.387 199.51L215.561 190.353L227 196.839ZM227 185.993V191.497L215.561 184.63L199.387 194.168L183.213 184.63L167.039 194.168L150.866 184.63L135.087 194.168L118.913 184.63L102.739 194.168L86.5664 184.63L70.3926 194.168L54.6133 184.63L38.4395 194.168L27 187.3V181.901L38.4395 188.598L54.6133 179.297L70.3926 188.598L86.5664 179.297L102.739 188.598L118.913 179.297L135.087 188.598L150.866 179.297L167.039 188.598L183.213 179.297L199.387 188.598L215.561 179.297L227 185.993ZM53.4297 174.461L38.4395 183.018L27 176.321V174H54.1631L53.4297 174.461ZM85.7773 174.461L70.3926 183.018L55.4023 174.461L54.9141 174H86.2656L85.7773 174.461ZM117.729 174.461L102.739 183.018L87.749 174.461L87.0166 174H118.463L117.729 174.461ZM150.077 174.461L135.087 183.018L120.097 174.461L119.363 174H150.565L150.077 174.461ZM182.029 174.461L167.039 183.018L152.049 174.461L151.316 174H182.763L182.029 174.461ZM214.377 174.461L199.387 183.018L184.396 174.461L183.663 174H215.11L214.377 174.461ZM227 180.413L216.744 174.461L216.011 174H227V180.413Z" fill="#D1AC86"/>
</svg>
