<svg width="254" height="205" viewBox="0 0 254 205" fill="none" xmlns="http://www.w3.org/2000/svg">
<path d="M234 200H20V205H234V200Z" fill="#B5D9D9"/>
<path opacity="0.1" d="M254 0H0V200H254V0Z" fill="white"/>
<path d="M234 0H20V200H234V0Z" fill="#383838"/>
<path d="M227 0H27V200H227V0Z" fill="#DF332A"/>
<path d="M36 8V191.07H218.678V8H36ZM200.684 172.293H54.3852V25.994H200.684V172.293Z" fill="#B1CFD3"/>
<path d="M214.259 13.3818L214.421 12.7344L217.551 13.9082L214.421 26.8164L217.551 40.1162L214.421 53.0254L217.551 66.3252L214.421 79.625L217.551 92.9248L214.421 106.225L217.551 119.524L214.421 132.825L217.551 146.125L214.421 159.425L217.551 172.725L214.173 186.235L214.811 186.418L213.637 189.547L201.119 186.418L187.819 189.547L174.52 186.418L161.22 189.547L147.92 186.418L134.619 189.547L121.319 186.418L108.02 189.547L94.7197 186.418L81.4199 189.547L68.1201 186.418L54.8203 189.547L41.6797 186.168L41.5205 186.807L38 185.634L41.5205 172.725L38 159.815L41.5205 146.516L38 133.216L41.5205 119.916L38 106.616L41.5205 93.3164L38 80.0166L41.5205 66.7168L38 53.416L41.5205 40.1162L38 26.8164L41.4014 13.207L41.1289 13.1299L41.9111 10L54.8203 13.1299L68.1201 10L81.4199 13.1299L94.7197 10L108.02 13.1299L121.319 10L134.229 13.1299L147.528 10L160.828 13.1299L174.128 10L187.428 13.1299L200.729 10L214.259 13.3818ZM187.428 17.041L174.128 13.5205L160.828 17.041L147.528 13.5205L134.229 17.041L121.319 13.5205L108.02 17.041L94.7197 13.5205L81.4199 17.041L68.1201 13.5205L54.8203 17.041L44.5977 14.1201L41.5205 26.8164L45.041 40.1162L41.5205 53.416L45.041 66.7168L41.5205 80.0166L45.041 93.3164L41.5205 106.616L45.041 119.916L41.5205 133.216L45.041 146.516L41.5205 159.815L45.041 172.725L42.4639 183.031L54.8203 186.026L68.1201 182.506L81.4199 186.026L94.7197 182.506L108.02 186.026L121.319 182.506L134.619 186.026L147.92 182.506L161.22 186.026L174.52 182.506L187.819 186.026L201.119 182.506L210.976 185.322L214.03 172.725L210.9 159.425L214.03 146.125L210.9 132.825L214.03 119.524L210.9 106.225L214.03 92.9248L210.9 79.625L214.03 66.3252L210.9 53.0254L214.03 40.1162L210.9 26.8164L213.452 16.6055L200.729 13.5205L187.428 17.041ZM206.907 20.8252L206.988 20.5664L210.117 21.3486L206.988 33.084L210.117 45.21L206.988 57.3369L210.117 69.4629L206.988 81.5898L210.117 93.7158L206.988 105.843L210.117 117.969L206.988 130.095L210.117 142.222L206.988 154.348L210.117 166.475L206.754 178.43L207.379 178.601L206.206 182.121L194.471 178.601L182.344 182.121L170.218 178.601L158.091 182.121L145.965 178.601L133.839 182.121L121.712 178.601L109.586 182.121L97.459 178.601L85.333 182.121L73.207 178.601L61.0801 182.121L49.0283 178.731L48.9551 178.992L45.4346 178.21L48.9551 166.475L45.4346 154.348L48.9551 142.222L45.4346 130.095L48.9551 117.969L45.4346 105.843L48.9551 93.7158L45.4346 81.5898L48.9551 69.4629L45.4346 57.3369L48.9551 45.21L45.4346 33.084L48.8252 21.0273L48.5625 20.9541L49.3447 17.4336L61.0801 20.9541L73.207 17.4336L85.333 20.9541L97.459 17.4336L109.586 20.9541L121.712 17.4336L133.839 20.9541L145.965 17.4336L158.091 20.9541L170.218 17.4336L182.344 20.9541L194.471 17.4336L206.907 20.8252ZM182.344 24.4746L170.218 20.9541L158.091 24.4746L145.965 20.9541L133.839 24.4746L121.712 20.9541L109.586 24.4746L97.459 20.9541L85.333 24.4746L73.207 20.9541L61.0801 24.4746L52.2793 21.999L48.9551 33.084L52.4756 45.21L48.9551 57.3369L52.4756 69.4629L48.9551 81.5898L52.4756 93.7158L48.9551 105.843L52.4756 117.969L48.9551 130.095L52.4756 142.222L48.9551 154.348L52.4756 166.475L49.9023 175.62L61.0801 178.601L73.207 175.08L85.333 178.601L97.459 175.08L109.586 178.601L121.712 175.08L133.839 178.601L145.965 175.08L158.091 178.601L170.218 175.08L182.344 178.601L194.471 175.08L203.636 177.579L206.597 166.475L203.076 154.348L206.597 142.222L203.076 130.095L206.597 117.969L203.076 105.843L206.597 93.7158L203.076 81.5898L206.597 69.4629L203.076 57.3369L206.597 45.21L203.076 33.084L205.913 24.0059L194.471 20.9541L182.344 24.4746Z" fill="#DF332A"/>
</svg>
