<svg width="254" height="205" viewBox="0 0 254 205" fill="none" xmlns="http://www.w3.org/2000/svg">
<path d="M234 200H20V205H234V200Z" fill="#B5D9D9"/>
<path opacity="0.1" d="M254 0H0V200H254V0Z" fill="white"/>
<path d="M234 0H20V200H234V0Z" fill="#383838"/>
<path d="M227 0H27V200H227V0Z" fill="#015F2D"/>
<path d="M46.2558 59.8425L36.4765 75.9843L46.2558 92.126L36.4765 107.874L46.2558 124.016L36.4765 140.157L46.2558 156.299L36.4765 172.441L46.2558 188.583L39.2147 200H33.7382L40.3882 188.583L31 172.441L40.3882 156.299L31 140.157L40.3882 124.016L31 107.874L40.3882 92.126L31 75.9843L40.3882 59.8425L31 43.7007L40.3882 27.5591L31 11.811L37.65 0H43.5176L36.4765 11.811L46.2558 27.5591L36.4765 43.7007L46.2558 59.8425Z" fill="white"/>
<path d="M57.2079 59.8425L47.4286 75.9843L57.2079 92.126L47.4286 107.874L57.2079 124.016L47.4286 140.157L57.2079 156.299L47.4286 172.441L57.2079 188.583L50.1668 200H44.6904L51.3403 188.583L41.9521 172.441L51.3403 156.299L41.9521 140.157L51.3403 124.016L41.9521 107.874L51.3403 92.126L41.9521 75.9843L51.3403 59.8425L41.9521 43.7007L51.3403 27.5591L41.9521 11.811L48.6021 0H54.4697L47.4286 11.811L57.2079 27.5591L47.4286 43.7007L57.2079 59.8425Z" fill="white"/>
<path d="M212.894 59.8425L203.506 75.9843L212.894 92.126L203.506 107.874L212.894 124.016L203.506 140.157L212.894 156.299L203.506 172.441L212.894 188.583L206.244 200H200.377L207.418 188.583L197.639 172.441L207.418 156.299L197.639 140.157L207.418 124.016L197.639 107.874L207.418 92.126L197.639 75.9843L207.418 59.8425L197.639 43.7007L207.418 27.5591L197.639 11.811L204.68 0H210.156L203.506 11.811L212.894 27.5591L203.506 43.7007L212.894 59.8425Z" fill="white"/>
<path d="M223.459 61.0236L214.462 75.9843L223.459 90.9448L223.85 92.126L223.459 92.9133L214.462 107.874L223.459 123.228L223.85 124.016L223.459 125.197L214.462 140.157L223.459 155.118L223.85 156.299L223.459 157.48L214.462 172.441L223.459 187.402L223.85 188.583L223.459 189.37L217.201 200H211.333L218.374 188.583L208.595 172.441L218.374 156.299L208.595 140.157L218.374 124.016L208.595 107.874L218.374 92.126L208.595 75.9843L218.374 59.8425L208.595 43.7007L218.374 27.5591L208.595 11.811L215.636 0H221.112L214.462 11.811L223.459 26.7717L223.85 27.5591L223.459 28.7402L214.462 43.7007L223.459 58.6614L223.85 59.8425L223.459 61.0236Z" fill="white"/>
</svg>
