<svg width="254" height="205" viewBox="0 0 254 205" fill="none" xmlns="http://www.w3.org/2000/svg">
<path d="M234 200H20V205H234V200Z" fill="#B5D9D9"/>
<path opacity="0.1" d="M254 0H0V200H254V0Z" fill="white"/>
<path d="M234 0H20V200H234V0Z" fill="#383838"/>
<path d="M227 0H27V200H227V0Z" fill="#B1CFD3"/>
<path d="M227 27.209H27V0H227V27.209ZM33.2969 18.6777C32.1158 18.6777 31.3282 19.4898 31.3281 20.708C31.3281 21.9263 32.1158 22.7383 33.2969 22.7383C34.4779 22.7382 35.2656 21.9263 35.2656 20.708C35.2654 19.8958 34.0842 18.6778 33.2969 18.6777ZM56.5273 18.6777C55.3463 18.6777 54.5587 19.4898 54.5586 20.708C54.5586 21.9263 55.3462 22.7383 56.5273 22.7383C57.7084 22.7383 58.4961 21.9263 58.4961 20.708C58.4959 19.8958 57.7083 18.6777 56.5273 18.6777ZM80.1494 18.6777C78.9684 18.6777 78.1808 19.4898 78.1807 20.708C78.1807 21.9263 78.9683 22.7383 80.1494 22.7383C81.3305 22.7383 82.1182 21.9263 82.1182 20.708C82.118 19.8958 81.3304 18.6778 80.1494 18.6777ZM103.771 18.6777C102.59 18.6777 101.803 19.4898 101.803 20.708C101.803 21.9263 102.59 22.7383 103.771 22.7383C104.953 22.7382 105.74 21.9263 105.74 20.708C105.74 19.8958 104.559 18.6778 103.771 18.6777ZM126.997 18.6777C125.816 18.6777 125.028 19.4898 125.028 20.708C125.028 21.9263 125.816 22.7383 126.997 22.7383C128.178 22.7382 128.966 21.9262 128.966 20.708C128.966 19.8959 128.178 18.6779 126.997 18.6777ZM150.619 18.6777C149.438 18.6777 148.65 19.4898 148.65 20.708C148.65 21.9263 149.438 22.7383 150.619 22.7383C151.8 22.7382 152.588 21.9262 152.588 20.708C152.588 19.8959 151.8 18.6779 150.619 18.6777ZM174.242 18.6777C173.061 18.6777 172.274 19.4898 172.273 20.708C172.273 21.9263 173.061 22.7383 174.242 22.7383C175.423 22.7381 176.21 21.9262 176.21 20.708C176.21 19.8959 175.423 18.6779 174.242 18.6777ZM197.864 18.6777C196.683 18.6777 195.896 19.4898 195.896 20.708C195.896 21.9263 196.683 22.7383 197.864 22.7383C199.045 22.7382 199.833 21.9263 199.833 20.708C199.833 19.8958 198.652 18.6778 197.864 18.6777ZM221.094 18.6777C219.913 18.6777 219.125 19.4898 219.125 20.708C219.125 21.9263 219.913 22.7383 221.094 22.7383C222.275 22.7382 223.062 21.9263 223.062 20.708C223.062 19.8958 222.275 18.6778 221.094 18.6777ZM44.7168 11.373C43.5358 11.373 42.7481 12.1851 42.748 13.4033C42.748 14.6216 43.5357 15.4336 44.7168 15.4336C45.8978 15.4335 46.6846 14.6215 46.6846 13.4033C46.6845 12.1852 45.8977 11.3732 44.7168 11.373ZM68.3389 11.373C67.1578 11.373 66.3702 12.1851 66.3701 13.4033C66.3701 14.6216 67.1578 15.4336 68.3389 15.4336C69.5199 15.4336 70.3076 14.6216 70.3076 13.4033C70.3075 12.1852 69.5198 11.3731 68.3389 11.373ZM91.9609 11.373C90.7799 11.373 89.9923 12.1851 89.9922 13.4033C89.9922 14.6216 90.7798 15.4336 91.9609 15.4336C93.142 15.4336 93.9297 14.6216 93.9297 13.4033C93.9296 12.1852 93.1419 11.3731 91.9609 11.373ZM115.582 11.373C114.401 11.373 113.613 12.1851 113.613 13.4033C113.613 14.6216 114.401 15.4336 115.582 15.4336C116.763 15.4336 117.551 14.6216 117.551 13.4033C117.551 12.1852 116.369 11.3731 115.582 11.373ZM138.812 11.373C137.63 11.373 136.843 12.1851 136.843 13.4033C136.843 14.6216 137.63 15.4336 138.812 15.4336C139.993 15.4336 140.78 14.6216 140.78 13.4033C140.78 12.1852 139.993 11.3731 138.812 11.373ZM162.435 11.373C161.254 11.373 160.466 12.1851 160.466 13.4033C160.466 14.6216 161.253 15.4336 162.435 15.4336C163.616 15.4336 164.403 14.6216 164.403 13.4033C164.403 12.1852 163.616 11.3731 162.435 11.373ZM186.057 11.373C184.876 11.373 184.088 12.1851 184.088 13.4033C184.088 14.6216 184.876 15.4336 186.057 15.4336C187.238 15.4336 188.025 14.6216 188.025 13.4033C188.025 12.1852 186.844 11.3731 186.057 11.373ZM209.281 11.373C208.1 11.3731 207.313 12.1852 207.312 13.4033C207.312 14.6216 208.1 15.4335 209.281 15.4336C210.462 15.4336 211.25 14.6216 211.25 13.4033C211.25 12.1851 210.462 11.373 209.281 11.373ZM33.2969 3.65625C32.1158 3.65625 31.3282 4.46835 31.3281 5.68652C31.3281 6.90482 32.1158 7.7168 33.2969 7.7168C34.4779 7.71675 35.2656 6.90479 35.2656 5.68652C35.2655 4.4684 34.0842 3.65631 33.2969 3.65625ZM56.5273 3.65625C55.4402 3.65625 54.5587 4.56522 54.5586 5.68652C54.5586 6.80793 55.4402 7.71679 56.5273 7.7168C57.6145 7.7168 58.4961 6.80794 58.4961 5.68652C58.496 4.56521 57.6144 3.65625 56.5273 3.65625ZM80.1494 3.65625C78.9684 3.65625 78.1808 4.46835 78.1807 5.68652C78.1807 6.90482 78.9683 7.7168 80.1494 7.7168C81.3305 7.71678 82.1182 6.90481 82.1182 5.68652C82.1181 4.46837 81.3304 3.65627 80.1494 3.65625ZM103.771 3.65625C102.684 3.65625 101.803 4.56521 101.803 5.68652C101.803 6.80794 102.684 7.7168 103.771 7.7168C104.859 7.71674 105.74 6.8079 105.74 5.68652C105.74 4.56525 104.859 3.65631 103.771 3.65625ZM126.997 3.65625C125.816 3.65625 125.028 4.46835 125.028 5.68652C125.028 6.90482 125.816 7.7168 126.997 7.7168C128.178 7.71671 128.966 6.90476 128.966 5.68652C128.966 4.46841 128.178 3.65633 126.997 3.65625ZM150.619 3.65625C149.438 3.65625 148.65 4.46835 148.65 5.68652C148.65 6.90482 149.438 7.7168 150.619 7.7168C151.8 7.71669 152.588 6.90474 152.588 5.68652C152.588 4.46843 151.8 3.65636 150.619 3.65625ZM174.242 3.65625C173.155 3.65625 172.274 4.56521 172.273 5.68652C172.273 6.80794 173.155 7.7168 174.242 7.7168C175.329 7.71664 176.21 6.80784 176.21 5.68652C176.21 4.56531 175.329 3.65641 174.242 3.65625ZM197.864 3.65625C196.683 3.65625 195.896 4.46835 195.896 5.68652C195.896 6.90482 196.683 7.7168 197.864 7.7168C199.045 7.71675 199.833 6.90479 199.833 5.68652C199.833 4.4684 198.652 3.65631 197.864 3.65625ZM221.094 3.65625C220.007 3.65625 219.125 4.56521 219.125 5.68652C219.125 6.80794 220.007 7.7168 221.094 7.7168C222.181 7.71675 223.062 6.8079 223.062 5.68652C223.062 4.56525 222.181 3.6563 221.094 3.65625Z" fill="#DF332A"/>
<path d="M227 200.209H27V173H227V200.209ZM33.2969 191.678C32.1158 191.678 31.3282 192.49 31.3281 193.708C31.3281 194.926 32.1158 195.738 33.2969 195.738C34.4779 195.738 35.2656 194.926 35.2656 193.708C35.2654 192.896 34.0842 191.678 33.2969 191.678ZM56.5273 191.678C55.3463 191.678 54.5587 192.49 54.5586 193.708C54.5586 194.926 55.3462 195.738 56.5273 195.738C57.7084 195.738 58.4961 194.926 58.4961 193.708C58.4959 192.896 57.7083 191.678 56.5273 191.678ZM80.1494 191.678C78.9684 191.678 78.1808 192.49 78.1807 193.708C78.1807 194.926 78.9683 195.738 80.1494 195.738C81.3305 195.738 82.1182 194.926 82.1182 193.708C82.118 192.896 81.3304 191.678 80.1494 191.678ZM103.771 191.678C102.59 191.678 101.803 192.49 101.803 193.708C101.803 194.926 102.59 195.738 103.771 195.738C104.953 195.738 105.74 194.926 105.74 193.708C105.74 192.896 104.559 191.678 103.771 191.678ZM126.997 191.678C125.816 191.678 125.028 192.49 125.028 193.708C125.028 194.926 125.816 195.738 126.997 195.738C128.178 195.738 128.966 194.926 128.966 193.708C128.966 192.896 128.178 191.678 126.997 191.678ZM150.619 191.678C149.438 191.678 148.65 192.49 148.65 193.708C148.65 194.926 149.438 195.738 150.619 195.738C151.8 195.738 152.588 194.926 152.588 193.708C152.588 192.896 151.8 191.678 150.619 191.678ZM174.242 191.678C173.061 191.678 172.274 192.49 172.273 193.708C172.273 194.926 173.061 195.738 174.242 195.738C175.423 195.738 176.21 194.926 176.21 193.708C176.21 192.896 175.423 191.678 174.242 191.678ZM197.864 191.678C196.683 191.678 195.896 192.49 195.896 193.708C195.896 194.926 196.683 195.738 197.864 195.738C199.045 195.738 199.833 194.926 199.833 193.708C199.833 192.896 198.652 191.678 197.864 191.678ZM221.094 191.678C219.913 191.678 219.125 192.49 219.125 193.708C219.125 194.926 219.913 195.738 221.094 195.738C222.275 195.738 223.062 194.926 223.062 193.708C223.062 192.896 222.275 191.678 221.094 191.678ZM44.7168 184.373C43.5358 184.373 42.7481 185.185 42.748 186.403C42.748 187.622 43.5357 188.434 44.7168 188.434C45.8978 188.433 46.6846 187.622 46.6846 186.403C46.6845 185.185 45.8977 184.373 44.7168 184.373ZM68.3389 184.373C67.1578 184.373 66.3702 185.185 66.3701 186.403C66.3701 187.622 67.1578 188.434 68.3389 188.434C69.5199 188.434 70.3076 187.622 70.3076 186.403C70.3075 185.185 69.5198 184.373 68.3389 184.373ZM91.9609 184.373C90.7799 184.373 89.9923 185.185 89.9922 186.403C89.9922 187.622 90.7798 188.434 91.9609 188.434C93.142 188.434 93.9297 187.622 93.9297 186.403C93.9296 185.185 93.1419 184.373 91.9609 184.373ZM115.582 184.373C114.401 184.373 113.613 185.185 113.613 186.403C113.613 187.622 114.401 188.434 115.582 188.434C116.763 188.434 117.551 187.622 117.551 186.403C117.551 185.185 116.369 184.373 115.582 184.373ZM138.812 184.373C137.63 184.373 136.843 185.185 136.843 186.403C136.843 187.622 137.63 188.434 138.812 188.434C139.993 188.434 140.78 187.622 140.78 186.403C140.78 185.185 139.993 184.373 138.812 184.373ZM162.435 184.373C161.254 184.373 160.466 185.185 160.466 186.403C160.466 187.622 161.253 188.434 162.435 188.434C163.616 188.434 164.403 187.622 164.403 186.403C164.403 185.185 163.616 184.373 162.435 184.373ZM186.057 184.373C184.876 184.373 184.088 185.185 184.088 186.403C184.088 187.622 184.876 188.434 186.057 188.434C187.238 188.434 188.025 187.622 188.025 186.403C188.025 185.185 186.844 184.373 186.057 184.373ZM209.281 184.373C208.1 184.373 207.313 185.185 207.312 186.403C207.312 187.622 208.1 188.434 209.281 188.434C210.462 188.434 211.25 187.622 211.25 186.403C211.25 185.185 210.462 184.373 209.281 184.373ZM33.2969 176.656C32.1158 176.656 31.3282 177.468 31.3281 178.687C31.3281 179.905 32.1158 180.717 33.2969 180.717C34.4779 180.717 35.2656 179.905 35.2656 178.687C35.2655 177.468 34.0842 176.656 33.2969 176.656ZM56.5273 176.656C55.4402 176.656 54.5587 177.565 54.5586 178.687C54.5586 179.808 55.4402 180.717 56.5273 180.717C57.6145 180.717 58.4961 179.808 58.4961 178.687C58.496 177.565 57.6144 176.656 56.5273 176.656ZM80.1494 176.656C78.9684 176.656 78.1808 177.468 78.1807 178.687C78.1807 179.905 78.9683 180.717 80.1494 180.717C81.3305 180.717 82.1182 179.905 82.1182 178.687C82.1181 177.468 81.3304 176.656 80.1494 176.656ZM103.771 176.656C102.684 176.656 101.803 177.565 101.803 178.687C101.803 179.808 102.684 180.717 103.771 180.717C104.859 180.717 105.74 179.808 105.74 178.687C105.74 177.565 104.859 176.656 103.771 176.656ZM126.997 176.656C125.816 176.656 125.028 177.468 125.028 178.687C125.028 179.905 125.816 180.717 126.997 180.717C128.178 180.717 128.966 179.905 128.966 178.687C128.966 177.468 128.178 176.656 126.997 176.656ZM150.619 176.656C149.438 176.656 148.65 177.468 148.65 178.687C148.65 179.905 149.438 180.717 150.619 180.717C151.8 180.717 152.588 179.905 152.588 178.687C152.588 177.468 151.8 176.656 150.619 176.656ZM174.242 176.656C173.155 176.656 172.274 177.565 172.273 178.687C172.273 179.808 173.155 180.717 174.242 180.717C175.329 180.717 176.21 179.808 176.21 178.687C176.21 177.565 175.329 176.656 174.242 176.656ZM197.864 176.656C196.683 176.656 195.896 177.468 195.896 178.687C195.896 179.905 196.683 180.717 197.864 180.717C199.045 180.717 199.833 179.905 199.833 178.687C199.833 177.468 198.652 176.656 197.864 176.656ZM221.094 176.656C220.007 176.656 219.125 177.565 219.125 178.687C219.125 179.808 220.007 180.717 221.094 180.717C222.181 180.717 223.062 179.808 223.062 178.687C223.062 177.565 222.181 176.656 221.094 176.656Z" fill="#DF332A"/>
</svg>
