<svg width="149" height="149" viewBox="0 0 149 149" fill="none" xmlns="http://www.w3.org/2000/svg">
<path d="M77.7127 11.8379C41.1718 11.8379 11.8732 41.4657 11.8732 77.6774C11.8732 114.218 41.501 143.517 77.7127 143.517C114.254 143.517 143.552 113.889 143.552 77.6774C143.552 41.4657 113.924 11.8379 77.7127 11.8379Z" fill="#B1CFD3"/>
<path d="M74.4206 8.87891C37.8796 8.87891 8.58105 38.5067 8.58105 74.7184C8.58105 111.259 38.2088 140.558 74.4206 140.558C110.962 140.558 140.26 110.93 140.26 74.7184C140.589 38.1775 110.962 8.87891 74.4206 8.87891Z" fill="#B1CFD3"/>
<path d="M74.4222 16.7754C42.49 16.7754 16.4834 42.782 16.4834 74.7142C16.4834 106.646 42.49 132.653 74.4222 132.653C106.354 132.653 132.361 106.646 132.361 74.7142C132.69 42.782 106.684 16.7754 74.4222 16.7754Z" fill="white"/>
<path d="M111.732 111.732C132.302 91.163 132.302 57.8135 111.732 37.2442C91.1631 16.6748 57.8136 16.6748 37.2442 37.2442C16.6749 57.8135 16.6749 91.163 37.2442 111.732C57.8136 132.302 91.1631 132.302 111.732 111.732Z" fill="#015F2D"/>
</svg>
