<svg width="254" height="205" viewBox="0 0 254 205" fill="none" xmlns="http://www.w3.org/2000/svg">
<path d="M234 200H20V205H234V200Z" fill="#B5D9D9"/>
<path opacity="0.1" d="M254 0H0V200H254V0Z" fill="white"/>
<path d="M234 0H20V200H234V0Z" fill="#383838"/>
<path d="M227 0H27V200H227V0Z" fill="#B1CFD3"/>
<path d="M218.069 8V191.069H35V8H218.069ZM45.9521 180.508H42.8232L45.1699 182.464L44.3877 185.593L46.7354 183.637L49.4736 185.593L48.2998 182.464L51.0381 180.508H47.9082L46.7354 177.77L45.9521 180.508ZM68.6406 180.508H65.5107L67.8574 182.464L67.0752 185.593L69.4229 183.637L72.1611 185.593L70.9873 182.464L73.7256 180.508H70.5957L69.4229 177.77L68.6406 180.508ZM91.3271 180.508H88.1982L90.9365 182.464L89.7627 185.593L92.501 183.637L94.8486 185.593L94.0654 182.464L96.4131 180.508H93.2832L92.501 177.77L91.3271 180.508ZM114.019 180.508H110.89L113.628 182.464L112.454 185.593L115.192 183.637L117.54 185.593L116.757 182.464L119.104 180.508H115.975L115.192 177.77L114.019 180.508ZM136.706 180.508H133.577L136.315 182.464L135.142 185.593L137.88 183.637L140.228 185.593L139.444 182.464L141.792 180.508H138.662L137.88 177.77L136.706 180.508ZM159.393 180.508H156.264L159.002 182.464L157.828 185.593L160.566 183.637L162.914 185.593L162.131 182.464L164.479 180.508H161.349L160.566 177.77L159.393 180.508ZM182.081 180.508H178.951L181.689 182.464L180.516 185.593L183.254 183.637L185.602 185.593L184.818 182.464L187.166 180.508H184.036L183.254 177.77L182.081 180.508ZM205.162 180.508H202.032L204.379 182.464L203.597 185.593L205.944 183.637L208.683 185.593L207.509 182.464L210.247 180.508H207.117L205.944 177.77L205.162 180.508ZM53.3848 25.9941V172.293H199.685V25.9941H53.3848ZM206.727 154.686L203.988 155.469L206.727 156.642V159.771L208.683 157.033L211.812 158.206L209.855 155.469L211.812 153.121L208.683 153.903L206.727 151.557V154.686ZM42.4336 154.297L39.6953 155.471L42.4336 156.253V159.383L44.3896 157.035L47.5186 157.818L45.5625 155.471L47.5186 152.732L44.3896 153.906L42.4336 151.168V154.297ZM206.727 132.003L203.988 132.785L206.727 133.958V137.088L208.683 134.35L211.812 135.523L209.855 132.785L211.812 130.438L208.683 131.22L206.727 128.873V132.003ZM42.4336 131.605L39.6953 132.779L42.4336 133.562V136.691L44.3896 134.344L47.5186 135.126L45.5625 132.779L47.5186 130.041L44.3896 131.215L42.4336 128.477V131.605ZM42.4336 108.923L39.6953 110.096L42.4336 110.878V114.008L44.3896 111.66L47.5186 112.443L45.5625 110.096L47.5186 107.357L44.3896 108.531L42.4336 105.793V108.923ZM206.727 108.923L203.988 110.096L206.727 110.879V114.008L208.683 111.661L211.812 112.443L209.855 110.096L211.812 107.357L208.683 108.531L206.727 105.793V108.923ZM42.4336 86.2305L39.6953 87.4043L42.4336 88.1865V91.3164L44.3896 88.9688L47.5186 89.751L45.5625 87.4043L47.5186 84.666L44.3896 85.8398L42.4336 83.1016V86.2305ZM206.727 86.2305L203.988 87.4043L206.727 88.1865V91.3164L208.683 88.9688L211.812 89.751L209.855 87.4043L211.812 84.666L208.683 85.8398L206.727 83.1016V86.2305ZM42.4336 63.5479L39.6953 64.3301L42.4336 65.5029V68.6328L44.3896 65.8945L47.5186 67.0684L45.5625 64.3301L47.5186 61.9824L44.3896 62.7646L42.4336 60.418V63.5479ZM206.727 63.5479L203.988 64.7207L206.727 65.5029V68.6328L208.683 66.2852L211.812 67.0684L209.855 64.7207L211.812 61.9824L208.683 63.1562L206.727 60.418V63.5479ZM42.4336 40.8555L39.6953 41.6387L42.4336 42.8115V45.9414L44.3896 43.2031L47.5186 44.377L45.5625 41.6387L47.5186 39.291L44.3896 40.0732L42.4336 37.7266V40.8555ZM206.727 40.8555L203.988 42.0293L206.727 42.8115V45.9414L208.683 43.5938L211.812 44.377L209.855 42.0293L211.812 39.291L208.683 40.4648L206.727 37.7266V40.8555ZM45.9521 14.6484H42.8232L45.1699 16.6045L44.3877 19.3428L46.7354 17.7773L49.4736 19.3428L48.2998 16.6045L51.0381 14.6484H47.9082L46.7354 11.9102L45.9521 14.6484ZM68.6406 14.6484H65.5107L67.8574 16.6045L67.0752 19.3428L69.4229 17.7773L72.1611 19.3428L70.9873 16.6045L73.7256 14.6484H70.5957L69.4229 11.9102L68.6406 14.6484ZM91.3271 14.6484H88.1982L90.9365 16.6045L89.7627 19.3428L92.501 17.7773L94.8486 19.3428L94.0654 16.6045L96.4131 14.6484H93.2832L92.501 11.9102L91.3271 14.6484ZM114.019 14.6484H110.89L113.628 16.6045L112.454 19.3428L115.192 17.7773L117.54 19.3428L116.757 16.6045L119.104 14.6484H115.975L115.192 11.9102L114.019 14.6484ZM136.706 14.6484H133.577L136.315 16.6045L135.142 19.3428L137.88 17.7773L140.228 19.3428L139.444 16.6045L141.792 14.6484H138.662L137.88 11.9102L136.706 14.6484ZM159.393 14.6484H156.264L159.002 16.6045L157.828 19.3428L160.566 17.7773L162.914 19.3428L162.131 16.6045L164.479 14.6484H161.349L160.566 11.9102L159.393 14.6484ZM182.081 14.6484H178.951L181.689 16.6045L180.516 19.3428L183.254 17.7773L185.602 19.3428L184.818 16.6045L187.166 14.6484H184.036L183.254 11.9102L182.081 14.6484ZM205.162 14.6484H202.032L204.379 16.6045L203.597 19.3428L205.944 17.7773L208.683 19.3428L207.509 16.6045L210.247 14.6484H207.117L205.944 11.9102L205.162 14.6484Z" fill="white"/>
</svg>
