<svg width="254" height="205" viewBox="0 0 254 205" fill="none" xmlns="http://www.w3.org/2000/svg">
<path d="M234 200H20V205H234V200Z" fill="#B5D9D9"/>
<path opacity="0.1" d="M254 0H0V200H254V0Z" fill="white"/>
<path d="M234 0H20V200H234V0Z" fill="#383838"/>
<path d="M227 0H27V200H227V0Z" fill="#D1AC86"/>
<path d="M227 3.52051H221.79V9.38281H227V12.9033H221.79V19.1621H227V22.6826H221.79V28.9414H227V32.4619H27V28.9414H31.8096V22.6826H27V19.1621H31.8096V12.9033H27V9.38281H31.8096V3.52051H27V0H227V3.52051ZM208.564 22.6826V28.9414H218.183V22.6826H208.564ZM35.417 28.9414H45.0361V22.6826H35.417V28.9414ZM48.6436 28.9414H58.665V22.6826H48.6436V28.9414ZM62.2725 28.9414H71.8906V22.6826H62.2725V28.9414ZM75.498 28.9414H85.1152V22.6826H75.498V28.9414ZM88.7227 28.9414H98.3418V22.6826H88.7227V28.9414ZM101.949 28.9414H111.571V22.6826H101.949V28.9414ZM115.179 28.9414H125.196V22.6826H115.179V28.9414ZM128.804 28.9414H138.421V22.6826H128.804V28.9414ZM142.028 28.9414H151.651V22.6826H142.028V28.9414ZM155.259 28.9414H164.877V22.6826H155.259V28.9414ZM168.484 28.9414H178.103V22.6826H168.484V28.9414ZM181.71 28.9414H191.328V22.6826H181.71V28.9414ZM194.936 28.9414H204.957V22.6826H194.936V28.9414ZM208.564 12.9033V19.1621H218.183V12.9033H208.564ZM35.417 19.1621H45.0361V12.9033H35.417V19.1621ZM48.6436 19.1621H58.665V12.9033H48.6436V19.1621ZM62.2725 19.1621H71.8906V12.9033H62.2725V19.1621ZM75.498 19.1621H85.1152V12.9033H75.498V19.1621ZM88.7227 19.1621H98.3418V12.9033H88.7227V19.1621ZM101.949 19.1621H111.571V12.9033H101.949V19.1621ZM115.179 19.1621H125.196V12.9033H115.179V19.1621ZM128.804 19.1621H138.421V12.9033H128.804V19.1621ZM142.028 19.1621H151.651V12.9033H142.028V19.1621ZM155.259 19.1621H164.877V12.9033H155.259V19.1621ZM168.484 19.1621H178.103V12.9033H168.484V19.1621ZM181.71 19.1621H191.328V12.9033H181.71V19.1621ZM194.936 19.1621H204.957V12.9033H194.936V19.1621ZM208.564 3.52051V9.38281H218.183V3.52051H208.564ZM35.417 9.38281H45.0361V3.52051H35.417V9.38281ZM48.6436 9.38281H58.665V3.52051H48.6436V9.38281ZM62.2725 9.38281H71.8906V3.52051H62.2725V9.38281ZM75.498 9.38281H85.1152V3.52051H75.498V9.38281ZM88.7227 9.38281H98.3418V3.52051H88.7227V9.38281ZM101.949 9.38281H111.571V3.52051H101.949V9.38281ZM115.179 9.38281H125.196V3.52051H115.179V9.38281ZM128.804 9.38281H138.421V3.52051H128.804V9.38281ZM142.028 9.38281H151.651V3.52051H142.028V9.38281ZM155.259 9.38281H164.877V3.52051H155.259V9.38281ZM168.484 9.38281H178.103V3.52051H168.484V9.38281ZM181.71 9.38281H191.328V3.52051H181.71V9.38281ZM194.936 9.38281H204.957V3.52051H194.936V9.38281Z" fill="white"/>
<path d="M227 171.521H221.79V177.383H227V180.903H221.79V187.162H227V190.683H221.79V196.941H227V200.462H27V196.941H31.8096V190.683H27V187.162H31.8096V180.903H27V177.383H31.8096V171.521H27V168H227V171.521ZM208.564 190.683V196.941H218.183V190.683H208.564ZM35.417 196.941H45.0361V190.683H35.417V196.941ZM48.6436 196.941H58.665V190.683H48.6436V196.941ZM62.2725 196.941H71.8906V190.683H62.2725V196.941ZM75.498 196.941H85.1152V190.683H75.498V196.941ZM88.7227 196.941H98.3418V190.683H88.7227V196.941ZM101.949 196.941H111.571V190.683H101.949V196.941ZM115.179 196.941H125.196V190.683H115.179V196.941ZM128.804 196.941H138.421V190.683H128.804V196.941ZM142.028 196.941H151.651V190.683H142.028V196.941ZM155.259 196.941H164.877V190.683H155.259V196.941ZM168.484 196.941H178.103V190.683H168.484V196.941ZM181.71 196.941H191.328V190.683H181.71V196.941ZM194.936 196.941H204.957V190.683H194.936V196.941ZM208.564 180.903V187.162H218.183V180.903H208.564ZM35.417 187.162H45.0361V180.903H35.417V187.162ZM48.6436 187.162H58.665V180.903H48.6436V187.162ZM62.2725 187.162H71.8906V180.903H62.2725V187.162ZM75.498 187.162H85.1152V180.903H75.498V187.162ZM88.7227 187.162H98.3418V180.903H88.7227V187.162ZM101.949 187.162H111.571V180.903H101.949V187.162ZM115.179 187.162H125.196V180.903H115.179V187.162ZM128.804 187.162H138.421V180.903H128.804V187.162ZM142.028 187.162H151.651V180.903H142.028V187.162ZM155.259 187.162H164.877V180.903H155.259V187.162ZM168.484 187.162H178.103V180.903H168.484V187.162ZM181.71 187.162H191.328V180.903H181.71V187.162ZM194.936 187.162H204.957V180.903H194.936V187.162ZM208.564 171.521V177.383H218.183V171.521H208.564ZM35.417 177.383H45.0361V171.521H35.417V177.383ZM48.6436 177.383H58.665V171.521H48.6436V177.383ZM62.2725 177.383H71.8906V171.521H62.2725V177.383ZM75.498 177.383H85.1152V171.521H75.498V177.383ZM88.7227 177.383H98.3418V171.521H88.7227V177.383ZM101.949 177.383H111.571V171.521H101.949V177.383ZM115.179 177.383H125.196V171.521H115.179V177.383ZM128.804 177.383H138.421V171.521H128.804V177.383ZM142.028 177.383H151.651V171.521H142.028V177.383ZM155.259 177.383H164.877V171.521H155.259V177.383ZM168.484 177.383H178.103V171.521H168.484V177.383ZM181.71 177.383H191.328V171.521H181.71V177.383ZM194.936 177.383H204.957V171.521H194.936V177.383Z" fill="white"/>
</svg>
