<svg width="254" height="205" viewBox="0 0 254 205" fill="none" xmlns="http://www.w3.org/2000/svg">
<path d="M234 200H20V205H234V200Z" fill="#B5D9D9"/>
<path opacity="0.1" d="M254 0H0V200H254V0Z" fill="white"/>
<path d="M234 0H20V200H234V0Z" fill="#383838"/>
<path d="M227 0H27V200H227V0Z" fill="white"/>
<mask id="mask0_210_3360" style="mask-type:luminance" maskUnits="userSpaceOnUse" x="27" y="0" width="200" height="200">
<path d="M227 0H27V200H227V0Z" fill="white"/>
</mask>
<g mask="url(#mask0_210_3360)">
<path d="M38.0235 209.051C37.2361 209.051 36.8424 208.657 36.4487 208.263L18.7322 190.547C17.9448 189.759 17.9448 188.185 18.7322 187.397C19.5196 186.61 21.0944 186.61 21.8818 187.397L39.5983 205.114C40.3857 205.901 40.3857 207.476 39.5983 208.263C39.2046 208.657 38.8109 209.051 38.0235 209.051Z" fill="#015F2D"/>
<path d="M53.3799 209.051C52.5925 209.051 52.1988 208.657 51.8051 208.263L34.0886 190.547C33.3012 189.759 33.3012 188.185 34.0886 187.397C34.876 186.61 36.4508 186.61 37.2382 187.397L54.9547 205.114C55.7421 205.901 55.7421 207.476 54.9547 208.263C54.561 208.657 53.7736 209.051 53.3799 209.051Z" fill="#015F2D"/>
<path d="M68.3389 209.051C67.5515 209.051 67.1578 208.657 66.7641 208.263L49.0476 190.547C48.2602 189.759 48.2602 188.185 49.0476 187.397C49.835 186.61 51.4098 186.61 52.1972 187.397L69.9137 205.114C70.7011 205.901 70.7011 207.476 69.9137 208.263C69.52 208.657 68.7326 209.051 68.3389 209.051Z" fill="#015F2D"/>
<path d="M83.2989 209.051C82.5115 209.051 82.1178 208.657 81.7241 208.263L64.0075 190.547C63.2201 189.759 63.2201 188.185 64.0075 187.397C64.7949 186.61 66.3697 186.61 67.1571 187.397L84.8737 205.114C85.6611 205.901 85.6611 207.476 84.8737 208.263C84.48 208.657 83.6926 209.051 83.2989 209.051Z" fill="#015F2D"/>
<path d="M98.2589 209.051C97.4714 209.051 97.0777 208.657 96.684 208.263L78.9675 190.547C78.1801 189.759 78.1801 188.185 78.9675 187.397C79.7549 186.61 81.3297 186.61 82.1171 187.397L99.8337 205.114C100.621 205.901 100.621 207.476 99.8337 208.263C99.44 208.657 99.0463 209.051 98.2589 209.051Z" fill="#015F2D"/>
<path d="M113.219 209.051C112.431 209.051 112.038 208.657 111.644 208.263L93.9275 190.547C93.1401 189.759 93.1401 188.185 93.9275 187.397C94.7149 186.61 96.2897 186.61 97.0771 187.397L114.794 205.114C115.581 205.901 115.581 207.476 114.794 208.263C114.4 208.657 114.006 209.051 113.219 209.051Z" fill="#015F2D"/>
<path d="M128.574 209.051C127.787 209.051 127.393 208.657 126.999 208.263L109.283 190.547C108.496 189.759 108.496 188.185 109.283 187.397C110.07 186.61 111.645 186.61 112.433 187.397L130.149 205.114C130.936 205.901 130.936 207.476 130.149 208.263C129.755 208.657 128.968 209.051 128.574 209.051Z" fill="#015F2D"/>
<path d="M143.534 209.051C142.747 209.051 142.353 208.657 141.959 208.263L124.243 190.547C123.455 189.759 123.455 188.185 124.243 187.397C125.03 186.61 126.605 186.61 127.393 187.397L145.109 205.114C145.896 205.901 145.896 207.476 145.109 208.263C144.715 208.657 143.928 209.051 143.534 209.051Z" fill="#015F2D"/>
<path d="M158.494 209.051C157.707 209.051 157.313 208.657 156.919 208.263L139.203 190.547C138.415 189.759 138.415 188.185 139.203 187.397C139.99 186.61 141.565 186.61 142.352 187.397L160.069 205.114C160.856 205.901 160.856 207.476 160.069 208.263C159.675 208.657 159.282 209.051 158.494 209.051Z" fill="#015F2D"/>
<path d="M173.458 209.051C172.671 209.051 172.277 208.657 171.883 208.263L154.167 190.547C153.379 189.759 153.379 188.185 154.167 187.397C154.954 186.61 156.529 186.61 157.316 187.397L175.033 205.114C175.82 205.901 175.82 207.476 175.033 208.263C174.639 208.657 174.245 209.051 173.458 209.051Z" fill="#015F2D"/>
<path d="M188.811 209.051C188.023 209.051 187.629 208.657 187.236 208.263L169.519 190.547C168.732 189.759 168.732 188.185 169.519 187.397C170.307 186.61 171.881 186.61 172.669 187.397L190.385 205.114C191.173 205.901 191.173 207.476 190.385 208.263C189.992 208.657 189.204 209.051 188.811 209.051Z" fill="#015F2D"/>
<path d="M203.77 209.051C202.982 209.051 202.588 208.657 202.195 208.263L184.478 190.547C183.691 189.759 183.691 188.185 184.478 187.397C185.266 186.61 186.84 186.61 187.628 187.397L205.344 205.114C206.132 205.901 206.132 207.476 205.344 208.263C204.951 208.657 204.163 209.051 203.77 209.051Z" fill="#015F2D"/>
<path d="M218.733 209.051C217.946 209.051 217.552 208.657 217.159 208.263L199.442 190.547C198.655 189.759 198.655 188.185 199.442 187.397C200.23 186.61 201.804 186.61 202.592 187.397L220.308 205.114C221.096 205.901 221.096 207.476 220.308 208.263C219.915 208.657 219.521 209.051 218.733 209.051Z" fill="#015F2D"/>
<path d="M233.693 209.051C232.906 209.051 232.512 208.657 232.119 208.263L214.402 190.547C213.615 189.759 213.615 188.185 214.402 187.397C215.189 186.61 216.764 186.61 217.552 187.397L235.268 205.114C236.056 205.901 236.056 207.476 235.268 208.263C234.875 208.657 234.481 209.051 233.693 209.051Z" fill="#015F2D"/>
<path d="M38.0235 13.3847C37.2361 13.3847 36.8424 12.991 36.4487 12.5973L18.7322 -5.11924C17.9448 -5.90664 17.9448 -7.48142 18.7322 -8.26882C19.5196 -9.05623 21.0944 -9.05623 21.8818 -8.26882L39.5983 9.44768C40.3857 10.2351 40.3857 11.8099 39.5983 12.5973C39.2046 12.991 38.8109 13.3847 38.0235 13.3847Z" fill="#015F2D"/>
<path d="M53.3799 13.3847C52.5925 13.3847 52.1988 12.991 51.8051 12.5973L34.0886 -5.11924C33.3012 -5.90664 33.3012 -7.48142 34.0886 -8.26882C34.876 -9.05623 36.4508 -9.05623 37.2382 -8.26882L54.9547 9.44768C55.7421 10.2351 55.7421 11.8099 54.9547 12.5973C54.561 12.991 53.7736 13.3847 53.3799 13.3847Z" fill="#015F2D"/>
<path d="M68.3389 13.3847C67.5515 13.3847 67.1578 12.991 66.7641 12.5973L49.0476 -5.11924C48.2602 -5.90664 48.2602 -7.48142 49.0476 -8.26882C49.835 -9.05623 51.4098 -9.05623 52.1972 -8.26882L69.9137 9.44768C70.7011 10.2351 70.7011 11.8099 69.9137 12.5973C69.52 12.991 68.7326 13.3847 68.3389 13.3847Z" fill="#015F2D"/>
<path d="M83.2989 13.3847C82.5115 13.3847 82.1178 12.991 81.7241 12.5973L64.0075 -5.11924C63.2201 -5.90664 63.2201 -7.48142 64.0075 -8.26882C64.7949 -9.05623 66.3697 -9.05623 67.1571 -8.26882L84.8737 9.44768C85.6611 10.2351 85.6611 11.8099 84.8737 12.5973C84.48 12.991 83.6926 13.3847 83.2989 13.3847Z" fill="#015F2D"/>
<path d="M98.2589 13.3847C97.4714 13.3847 97.0777 12.991 96.684 12.5973L78.9675 -5.11924C78.1801 -5.90664 78.1801 -7.48142 78.9675 -8.26882C79.7549 -9.05623 81.3297 -9.05623 82.1171 -8.26882L99.8337 9.44768C100.621 10.2351 100.621 11.8099 99.8337 12.5973C99.44 12.991 99.0463 13.3847 98.2589 13.3847Z" fill="#015F2D"/>
<path d="M113.219 13.3847C112.431 13.3847 112.038 12.991 111.644 12.5973L93.9275 -5.11924C93.1401 -5.90664 93.1401 -7.48142 93.9275 -8.26882C94.7149 -9.05623 96.2897 -9.05623 97.0771 -8.26882L114.794 9.44768C115.581 10.2351 115.581 11.8099 114.794 12.5973C114.4 12.991 114.006 13.3847 113.219 13.3847Z" fill="#015F2D"/>
<path d="M128.574 13.3847C127.787 13.3847 127.393 12.991 126.999 12.5973L109.283 -5.11924C108.496 -5.90664 108.496 -7.48142 109.283 -8.26882C110.07 -9.05623 111.645 -9.05623 112.433 -8.26882L130.149 9.44768C130.936 10.2351 130.936 11.8099 130.149 12.5973C129.755 12.991 128.968 13.3847 128.574 13.3847Z" fill="#015F2D"/>
<path d="M143.534 13.3847C142.747 13.3847 142.353 12.991 141.959 12.5973L124.243 -5.11924C123.455 -5.90664 123.455 -7.48142 124.243 -8.26882C125.03 -9.05623 126.605 -9.05623 127.393 -8.26882L145.109 9.44768C145.896 10.2351 145.896 11.8099 145.109 12.5973C144.715 12.991 143.928 13.3847 143.534 13.3847Z" fill="#015F2D"/>
<path d="M158.494 13.3847C157.707 13.3847 157.313 12.991 156.919 12.5973L139.203 -5.11924C138.415 -5.90664 138.415 -7.48142 139.203 -8.26882C139.99 -9.05623 141.565 -9.05623 142.352 -8.26882L160.069 9.44768C160.856 10.2351 160.856 11.8099 160.069 12.5973C159.675 12.991 159.282 13.3847 158.494 13.3847Z" fill="#015F2D"/>
<path d="M173.458 13.3847C172.671 13.3847 172.277 12.991 171.883 12.5973L154.167 -5.11924C153.379 -5.90664 153.379 -7.48142 154.167 -8.26882C154.954 -9.05623 156.529 -9.05623 157.316 -8.26882L175.033 9.44768C175.82 10.2351 175.82 11.8099 175.033 12.5973C174.639 12.991 174.245 13.3847 173.458 13.3847Z" fill="#015F2D"/>
<path d="M188.811 13.3847C188.023 13.3847 187.629 12.991 187.236 12.5973L169.519 -5.11924C168.732 -5.90664 168.732 -7.48142 169.519 -8.26882C170.307 -9.05623 171.881 -9.05623 172.669 -8.26882L190.385 9.44768C191.173 10.2351 191.173 11.8099 190.385 12.5973C189.992 12.991 189.204 13.3847 188.811 13.3847Z" fill="#015F2D"/>
<path d="M203.77 13.3847C202.982 13.3847 202.588 12.991 202.195 12.5973L184.478 -5.11924C183.691 -5.90664 183.691 -7.48142 184.478 -8.26882C185.266 -9.05623 186.84 -9.05623 187.628 -8.26882L205.344 9.44768C206.132 10.2351 206.132 11.8099 205.344 12.5973C204.951 12.991 204.163 13.3847 203.77 13.3847Z" fill="#015F2D"/>
<path d="M218.733 13.3847C217.946 13.3847 217.552 12.991 217.159 12.5973L199.442 -5.11924C198.655 -5.90664 198.655 -7.48142 199.442 -8.26882C200.23 -9.05623 201.804 -9.05623 202.592 -8.26882L220.308 9.44768C221.096 10.2351 221.096 11.8099 220.308 12.5973C219.915 12.991 219.521 13.3847 218.733 13.3847Z" fill="#015F2D"/>
<path d="M233.693 13.3847C232.906 13.3847 232.512 12.991 232.119 12.5973L214.402 -5.11924C213.615 -5.90664 213.615 -7.48142 214.402 -8.26882C215.189 -9.05623 216.764 -9.05623 217.552 -8.26882L235.268 9.44768C236.056 10.2351 236.056 11.8099 235.268 12.5973C234.875 12.991 234.481 13.3847 233.693 13.3847Z" fill="#015F2D"/>
<path d="M215.977 209.052C215.189 209.052 214.796 208.658 214.402 208.264C213.615 207.477 213.615 205.902 214.402 205.115L232.119 187.005C232.906 186.217 234.481 186.217 235.268 187.005C236.056 187.792 236.056 189.367 235.268 190.154L217.552 207.871C217.158 208.658 216.764 209.052 215.977 209.052Z" fill="#015F2D"/>
<path d="M215.977 193.703C215.189 193.703 214.796 193.309 214.402 192.916C213.615 192.128 213.615 190.553 214.402 189.766L232.119 172.05C232.906 171.262 234.481 171.262 235.268 172.05C236.056 172.837 236.056 174.412 235.268 175.199L217.552 192.916C217.158 193.703 216.764 193.703 215.977 193.703Z" fill="#015F2D"/>
<path d="M215.977 178.74C215.189 178.74 214.796 178.346 214.402 177.953C213.615 177.165 213.615 175.591 214.402 174.803L232.119 157.087C232.906 156.299 234.481 156.299 235.268 157.087C236.056 157.874 236.056 159.449 235.268 160.236L217.552 177.953C217.158 178.74 216.764 178.74 215.977 178.74Z" fill="#015F2D"/>
<path d="M215.977 163.775C215.189 163.775 214.796 163.382 214.402 162.988C213.615 162.2 213.615 160.626 214.402 159.838L232.119 142.122C232.906 141.334 234.481 141.334 235.268 142.122C236.056 142.909 236.056 144.484 235.268 145.271L217.552 162.988C217.158 163.382 216.764 163.775 215.977 163.775Z" fill="#015F2D"/>
<path d="M215.977 148.82C215.189 148.82 214.796 148.427 214.402 148.033C213.615 147.245 213.615 145.671 214.402 144.883L232.119 127.167C232.906 126.379 234.481 126.379 235.268 127.167C236.056 127.954 236.056 129.529 235.268 130.316L217.552 148.033C217.158 148.427 216.764 148.82 215.977 148.82Z" fill="#015F2D"/>
<path d="M215.977 133.855C215.189 133.855 214.796 133.462 214.402 133.068C213.615 132.281 213.615 130.706 214.402 129.918L232.119 112.202C232.906 111.414 234.481 111.414 235.268 112.202C236.056 112.989 236.056 114.564 235.268 115.351L217.552 133.068C217.158 133.462 216.764 133.855 215.977 133.855Z" fill="#015F2D"/>
<path d="M215.977 118.5C215.189 118.5 214.796 118.106 214.402 117.713C213.615 116.925 213.615 115.35 214.402 114.563L232.119 96.8464C232.906 96.059 234.481 96.059 235.268 96.8464C236.056 97.6338 236.056 99.2086 235.268 99.996L217.552 117.713C217.158 118.5 216.764 118.5 215.977 118.5Z" fill="#015F2D"/>
<path d="M215.977 103.543C215.189 103.543 214.796 103.149 214.402 102.756C213.615 101.968 213.615 100.393 214.402 99.6059L232.119 81.8894C232.906 81.102 234.481 81.102 235.268 81.8894C236.056 82.6768 236.056 84.2516 235.268 85.039L217.552 102.756C217.158 103.149 216.764 103.543 215.977 103.543Z" fill="#015F2D"/>
<path d="M215.977 88.58C215.189 88.58 214.796 88.1863 214.402 87.7926C213.615 87.0052 213.615 85.4304 214.402 84.643L232.119 66.9265C232.906 66.1391 234.481 66.1391 235.268 66.9265C236.056 67.7139 236.056 69.2887 235.268 70.0761L217.552 87.7926C217.158 88.1863 216.764 88.58 215.977 88.58Z" fill="#015F2D"/>
<path d="M215.977 73.625C215.189 73.625 214.796 73.2313 214.402 72.8376C213.615 72.0502 213.615 70.4753 214.402 69.6879L232.119 51.9714C232.906 51.184 234.481 51.184 235.268 51.9714C236.056 52.7588 236.056 54.3336 235.268 55.121L217.552 72.8376C217.158 73.2313 216.764 73.625 215.977 73.625Z" fill="#015F2D"/>
<path d="M215.977 58.2675C215.189 58.2675 214.796 57.8738 214.402 57.4801C213.615 56.6927 213.615 55.1179 214.402 54.3305L232.119 36.614C232.906 35.8266 234.481 35.8266 235.268 36.614C236.056 37.4014 236.056 38.9762 235.268 39.7636L217.552 57.4801C217.158 58.2675 216.764 58.2675 215.977 58.2675Z" fill="#015F2D"/>
<path d="M215.977 43.3046C215.189 43.3046 214.796 42.9109 214.402 42.5173C213.615 41.7298 213.615 40.155 214.402 39.3676L232.119 21.6511C232.906 20.8637 234.481 20.8637 235.268 21.6511C236.056 22.4385 236.056 24.0133 235.268 24.8007L217.552 42.5173C217.158 43.3047 216.764 43.3046 215.977 43.3046Z" fill="#015F2D"/>
<path d="M215.977 28.3476C215.189 28.3476 214.796 27.9539 214.402 27.5602C213.615 26.7728 213.615 25.198 214.402 24.4106L232.119 6.69407C232.906 5.90667 234.481 5.90667 235.268 6.69407C236.056 7.48147 236.056 9.05628 235.268 9.84368L217.552 27.5602C217.158 27.9539 216.764 28.3476 215.977 28.3476Z" fill="#015F2D"/>
<path d="M215.977 13.3847C215.189 13.3847 214.796 12.991 214.402 12.5973C213.615 11.8099 213.615 10.2351 214.402 9.44768L232.119 -8.26882C232.906 -9.05623 234.481 -9.05623 235.268 -8.26882C236.056 -7.48142 236.056 -5.90664 235.268 -5.11924L217.552 12.5973C217.158 12.991 216.764 13.3847 215.977 13.3847Z" fill="#015F2D"/>
<path d="M20.307 209.051C19.5196 209.051 19.1259 208.657 18.7322 208.263C17.9448 207.476 17.9448 205.901 18.7322 205.114L36.4487 187.397C37.2361 186.61 38.8109 186.61 39.5983 187.397C40.3857 188.185 40.3857 189.759 39.5983 190.547L21.8818 208.263C21.4881 208.657 21.0944 209.051 20.307 209.051Z" fill="#015F2D"/>
<path d="M20.307 193.703C19.5196 193.703 19.1259 193.309 18.7322 192.916C17.9448 192.128 17.9448 190.553 18.7322 189.766L36.4487 172.05C37.2361 171.262 38.8109 171.262 39.5983 172.05C40.3857 172.837 40.3857 174.412 39.5983 175.199L21.8818 192.916C21.4881 193.703 21.0944 193.703 20.307 193.703Z" fill="#015F2D"/>
<path d="M20.307 178.74C19.5196 178.74 19.1259 178.346 18.7322 177.953C17.9448 177.165 17.9448 175.591 18.7322 174.803L36.4487 157.087C37.2361 156.299 38.8109 156.299 39.5983 157.087C40.3857 157.874 40.3857 159.449 39.5983 160.236L21.8818 177.953C21.4881 178.74 21.0944 178.74 20.307 178.74Z" fill="#015F2D"/>
<path d="M20.307 163.775C19.5196 163.775 19.1259 163.382 18.7322 162.988C17.9448 162.2 17.9448 160.626 18.7322 159.838L36.4487 142.122C37.2361 141.334 38.8109 141.334 39.5983 142.122C40.3857 142.909 40.3857 144.484 39.5983 145.271L21.8818 162.988C21.4881 163.382 21.0944 163.775 20.307 163.775Z" fill="#015F2D"/>
<path d="M20.307 148.82C19.5196 148.82 19.1259 148.427 18.7322 148.033C17.9448 147.245 17.9448 145.671 18.7322 144.883L36.4487 127.167C37.2361 126.379 38.8109 126.379 39.5983 127.167C40.3857 127.954 40.3857 129.529 39.5983 130.316L21.8818 148.033C21.4881 148.427 21.0944 148.82 20.307 148.82Z" fill="#015F2D"/>
<path d="M20.307 133.855C19.5196 133.855 19.1259 133.462 18.7322 133.068C17.9448 132.281 17.9448 130.706 18.7322 129.918L36.4487 112.202C37.2361 111.414 38.8109 111.414 39.5983 112.202C40.3857 112.989 40.3857 114.564 39.5983 115.351L21.8818 133.068C21.4881 133.462 21.0944 133.855 20.307 133.855Z" fill="#015F2D"/>
<path d="M20.307 118.5C19.5196 118.5 19.1259 118.106 18.7322 117.713C17.9448 116.925 17.9448 115.35 18.7322 114.563L36.4487 96.8464C37.2361 96.059 38.8109 96.059 39.5983 96.8464C40.3857 97.6338 40.3857 99.2086 39.5983 99.996L21.8818 117.713C21.4881 118.5 21.0944 118.5 20.307 118.5Z" fill="#015F2D"/>
<path d="M20.307 103.543C19.5196 103.543 19.1259 103.149 18.7322 102.756C17.9448 101.968 17.9448 100.393 18.7322 99.6059L36.4487 81.8894C37.2361 81.102 38.8109 81.102 39.5983 81.8894C40.3857 82.6768 40.3857 84.2516 39.5983 85.039L21.8818 102.756C21.4881 103.149 21.0944 103.543 20.307 103.543Z" fill="#015F2D"/>
<path d="M20.307 88.58C19.5196 88.58 19.1259 88.1863 18.7322 87.7926C17.9448 87.0052 17.9448 85.4304 18.7322 84.643L36.4487 66.9265C37.2361 66.1391 38.8109 66.1391 39.5983 66.9265C40.3857 67.7139 40.3857 69.2887 39.5983 70.0761L21.8818 87.7926C21.4881 88.1863 21.0944 88.58 20.307 88.58Z" fill="#015F2D"/>
<path d="M20.307 73.625C19.5196 73.625 19.1259 73.2313 18.7322 72.8376C17.9448 72.0502 17.9448 70.4753 18.7322 69.6879L36.4487 51.9714C37.2361 51.184 38.8109 51.184 39.5983 51.9714C40.3857 52.7588 40.3857 54.3336 39.5983 55.121L21.8818 72.8376C21.4881 73.2313 21.0944 73.625 20.307 73.625Z" fill="#015F2D"/>
<path d="M20.307 58.2675C19.5196 58.2675 19.1259 57.8738 18.7322 57.4801C17.9448 56.6927 17.9448 55.1179 18.7322 54.3305L36.4487 36.614C37.2361 35.8266 38.8109 35.8266 39.5983 36.614C40.3857 37.4014 40.3857 38.9762 39.5983 39.7636L21.8818 57.4801C21.4881 58.2675 21.0944 58.2675 20.307 58.2675Z" fill="#015F2D"/>
<path d="M20.307 43.3046C19.5196 43.3046 19.1259 42.9109 18.7322 42.5173C17.9448 41.7298 17.9448 40.155 18.7322 39.3676L36.4487 21.6511C37.2361 20.8637 38.8109 20.8637 39.5983 21.6511C40.3857 22.4385 40.3857 24.0133 39.5983 24.8007L21.8818 42.5173C21.4881 43.3047 21.0944 43.3046 20.307 43.3046Z" fill="#015F2D"/>
<path d="M20.307 28.3476C19.5196 28.3476 19.1259 27.9539 18.7322 27.5602C17.9448 26.7728 17.9448 25.198 18.7322 24.4106L36.4487 6.69407C37.2361 5.90667 38.8109 5.90667 39.5983 6.69407C40.3857 7.48147 40.3857 9.05628 39.5983 9.84368L21.8818 27.5602C21.4881 27.9539 21.0944 28.3476 20.307 28.3476Z" fill="#015F2D"/>
<path d="M20.307 13.3847C19.5196 13.3847 19.1259 12.991 18.7322 12.5973C17.9448 11.8099 17.9448 10.2351 18.7322 9.44768L36.4487 -8.26882C37.2361 -9.05623 38.8109 -9.05623 39.5983 -8.26882C40.3857 -7.48142 40.3857 -5.90664 39.5983 -5.11924L21.8818 12.5973C21.4881 12.991 21.0944 13.3847 20.307 13.3847Z" fill="#015F2D"/>
</g>
</svg>
