<?xml version="1.0" standalone="no"?>
<!DOCTYPE svg PUBLIC "-//W3C//DTD SVG 1.1//EN" "http://www.w3.org/Graphics/SVG/1.1/DTD/svg11.dtd" >
<svg xmlns="http://www.w3.org/2000/svg" xmlns:xlink="http://www.w3.org/1999/xlink" version="1.1">
<metadata>
Created by FontForge 20201107 at Thu Nov 27 15:56:34 2025
 By 
Copyright (c) 2015 by Mariya Pigoulevskaya. All rights reserved.
</metadata>
<defs>
<font id="Stolzl-Regular" horiz-adv-x="0" >
  <font-face 
    font-family="Stolzl"
    font-weight="400"
    font-stretch="normal"
    units-per-em="2048"
    panose-1="0 0 5 0 0 0 0 0 0 0"
    ascent="1638"
    descent="-410"
    x-height="1126"
    cap-height="1434"
    bbox="-1149 -537 2939 2161"
    underline-thickness="102"
    underline-position="-204"
    unicode-range="U+0020-25CA"
  />
<missing-glyph horiz-adv-x="1044" 
d="M856 1577v-2089h-661v2089h661zM696 1438h-346v-70h137v-78h-139v-67h348v67h-139v78h139v70zM557 1167h-209v-217h348v72h-139v145zM487 1096v-74h-69v74h69zM696 893h-348v-68h139v-77h-139v-70h209v147h139v68zM696 768h-69v-137h-279v-72h348v209zM696 514h-209v-117
h70v47h70v-98h-209v168h-70v-235h348v235zM696 152h-348v-236h348v236zM627 84v-98h-209v98h209zM696 -131h-348v-70h148l-148 -98v-70h348v70h-213l146 98h67v70z" />
    <glyph glyph-name=".notdef" horiz-adv-x="1044" 
d="M856 1577v-2089h-661v2089h661zM696 1438h-346v-70h137v-78h-139v-67h348v67h-139v78h139v70zM557 1167h-209v-217h348v72h-139v145zM487 1096v-74h-69v74h69zM696 893h-348v-68h139v-77h-139v-70h209v147h139v68zM696 768h-69v-137h-279v-72h348v209zM696 514h-209v-117
h70v47h70v-98h-209v168h-70v-235h348v235zM696 152h-348v-236h348v236zM627 84v-98h-209v98h209zM696 -131h-348v-70h148l-148 -98v-70h348v70h-213l146 98h67v70z" />
    <glyph glyph-name=".null" 
 />
    <glyph glyph-name="nonmarkingreturn" horiz-adv-x="682" 
 />
    <glyph glyph-name="space" unicode=" " horiz-adv-x="614" 
 />
    <glyph glyph-name="exclam" unicode="!" horiz-adv-x="634" 
d="M434 1434v-516l-14 -467h-203l-16 467v516h233zM317 266q65 0 108.5 -41t43.5 -104t-43.5 -104.5t-108.5 -41.5q-64 0 -106.5 41.5t-42.5 104.5t42 104t107 41z" />
    <glyph glyph-name="quotedbl" unicode="&#x22;" horiz-adv-x="956" 
d="M195 772l-27 418v244h231v-244l-28 -418h-176zM586 772l-27 418v244h232v-244l-29 -418h-176z" />
    <glyph glyph-name="numbersign" unicode="#" horiz-adv-x="1906" 
d="M1690 975h-306l-92 -344h307l-49 -189h-307l-117 -442h-213l117 442h-342l-117 -442h-213l117 442h-307l49 189h307l90 344h-307l51 188h306l110 414h213l-108 -414h340l110 414h213l-108 -414h307zM1079 631l90 344h-340l-92 -344h342z" />
    <glyph glyph-name="dollar" unicode="$" horiz-adv-x="1318" 
d="M1235 412q0 -101 -38.5 -182t-104 -131.5t-145 -80t-169.5 -38.5v-234h-229v242q-209 35 -323.5 158t-141.5 298h233q33 -127 123.5 -189t257.5 -62q145 0 224 54t79 154q0 82 -69 123q-57 34 -236 75q-16 3 -78 17q-94 21 -160 40.5t-133.5 52t-108.5 73.5t-67 102.5
t-26 139.5q0 123 59 216t154 144.5t217 67.5v236h231v-240q190 -29 297.5 -137.5t135.5 -266.5h-234q-68 197 -332 197q-143 0 -220 -56.5t-77 -154.5q0 -74 66.5 -110t253.5 -76q100 -22 168.5 -41t137 -45t111.5 -56.5t78 -72t50.5 -95.5t15.5 -122z" />
    <glyph glyph-name="percent" unicode="%" horiz-adv-x="2222" 
d="M555 596q-176 0 -281.5 112t-105.5 318t105.5 319t281.5 113q175 0 281 -113t106 -319t-106 -318t-281 -112zM1632 1434l-819 -1434h-223l819 1434h223zM555 776q184 0 184 250t-184 250t-184 -250t184 -250zM1669 838q175 0 281 -112t106 -318t-106 -319.5t-281 -113.5
q-176 0 -281.5 113.5t-105.5 319.5t105.5 318t281.5 112zM1669 657q-186 0 -186 -249q0 -250 186 -250q184 0 184 250q0 249 -184 249z" />
    <glyph glyph-name="ampersand" unicode="&#x26;" horiz-adv-x="1476" 
d="M1393 0h-293q-12 13 -50 51.5t-57 59.5q-183 -136 -418 -136q-139 0 -248 42.5t-176 134t-67 221.5q0 67 19.5 122t61.5 102t91.5 84.5t126.5 84.5q-84 105 -118 180.5t-34 151.5q0 86 33.5 156t90.5 113.5t128.5 67t151.5 23.5q165 0 276 -94t111 -254q0 -54 -16 -103
t-42 -87t-68 -76.5t-84 -68t-101 -64.5q108 -117 268 -283q52 100 72 227h235q-25 -226 -145 -393q42 -44 128.5 -134t123.5 -128zM633 1245q-76 0 -122 -42.5t-46 -119.5q0 -45 22.5 -93t79.5 -120q128 79 174.5 127.5t46.5 110.5t-41 99.5t-114 37.5zM590 188
q143 0 252 78q-252 264 -318 336q-116 -69 -161.5 -114.5t-45.5 -108.5q0 -87 71 -139t202 -52z" />
    <glyph glyph-name="quotesingle" unicode="'" horiz-adv-x="565" 
d="M399 1434v-244l-28 -418h-176l-27 418v244h231z" />
    <glyph glyph-name="parenleft" unicode="(" horiz-adv-x="845" 
d="M678 1497q-152 -292 -215.5 -506.5t-63.5 -458.5t63.5 -457.5t215.5 -506.5l-176 -105q-334 513 -334 1069q0 557 334 1070z" />
    <glyph glyph-name="parenright" unicode=")" horiz-adv-x="845" 
d="M168 1497l176 105q334 -513 334 -1070q0 -556 -334 -1069l-176 105q152 292 215 505.5t63 458.5t-63 459t-215 506z" />
    <glyph glyph-name="asterisk" unicode="*" horiz-adv-x="1155" 
d="M989 1108l-272 -115l188 -229l-137 -111l-193 236l-190 -236l-135 111l186 229l-268 115l68 160l256 -107v273h170v-273l256 107z" />
    <glyph glyph-name="plus" unicode="+" horiz-adv-x="1359" 
d="M797 1116v-397h397v-221h-397v-398h-232v398h-397v221h397v397h232z" />
    <glyph glyph-name="comma" unicode="," horiz-adv-x="686" 
d="M518 111q1 -26 -6.5 -56.5t-53.5 -133.5t-136 -273h-154l145 336q-44 14 -70 48.5t-26 84.5q0 65 43 106t107 41q26 0 50.5 -7t48 -23t38 -47.5t14.5 -75.5z" />
    <glyph glyph-name="hyphen" unicode="-" horiz-adv-x="1009" 
d="M844 723v-221h-676v221h676z" />
    <glyph glyph-name="period" unicode="." horiz-adv-x="634" 
d="M317 264q65 0 108.5 -40.5t43.5 -102.5q0 -63 -43.5 -104.5t-108.5 -41.5q-64 0 -106.5 41.5t-42.5 104.5t42 103t107 40z" />
    <glyph glyph-name="slash" unicode="/" horiz-adv-x="722" 
d="M686 1577l-416 -1577h-233l416 1577h233z" />
    <glyph glyph-name="zero" unicode="0" horiz-adv-x="1406" 
d="M702 1458q282 0 440 -197t158 -544t-158 -544.5t-440 -197.5q-280 0 -438 196.5t-158 545.5t158 545t438 196zM702 197q176 0 270.5 128t94.5 392t-94.5 392t-270.5 128q-175 0 -268.5 -128t-93.5 -392t93.5 -392t268.5 -128z" />
    <glyph glyph-name="one" unicode="1" horiz-adv-x="788" 
d="M516 1434h105v-1434h-232v1163l-326 -133v227z" />
    <glyph glyph-name="two" unicode="2" horiz-adv-x="1255" 
d="M463 221h708v-221h-1087v166l416 364q74 65 110.5 97t87 78t72.5 68t51.5 54t40 50t23 43t15.5 45.5t3 44.5q0 98 -72.5 162.5t-199.5 64.5t-202 -68.5t-99 -195.5h-234q25 223 173 354t372 131q223 0 359.5 -126t136.5 -312q0 -45 -10 -87.5t-25 -78.5t-46 -78.5
t-59.5 -75.5t-81 -82.5t-94.5 -86.5t-114 -100q-10 -9 -15 -13l-225 -195z" />
    <glyph glyph-name="three" unicode="3" horiz-adv-x="1255" 
d="M940 754q109 -40 170 -130.5t61 -215.5q0 -200 -144 -316.5t-380 -116.5q-148 0 -267 48.5t-199.5 152.5t-96.5 252h233q49 -233 328 -233q140 0 216.5 62.5t76.5 170.5q0 205 -272 205h-195v205h154q268 0 268 182q0 99 -71.5 159t-198.5 60q-115 0 -187 -50t-100 -165
h-234q30 214 173 324t354 110q216 0 356.5 -115t140.5 -294q0 -99 -49 -178t-137 -117z" />
    <glyph glyph-name="four" unicode="4" horiz-adv-x="1302" 
d="M1241 547v-217h-207v-330h-231v330l-740 -2v219l627 887h344v-887h207zM315 547h488v672h-19z" />
    <glyph glyph-name="five" unicode="5" horiz-adv-x="1259" 
d="M694 954q132 0 241 -55t176 -164.5t67 -253.5q0 -149 -70.5 -265.5t-192 -178.5t-272.5 -62q-104 0 -198.5 29.5t-171 86t-127 146.5t-62.5 203h233q24 -119 112.5 -182t211.5 -63q133 0 217 82t84 206q0 126 -83 202.5t-214 76.5q-197 0 -291 -152h-221l176 824h801
v-222h-627l-73 -348q118 90 284 90z" />
    <glyph glyph-name="six" unicode="6" horiz-adv-x="1259" 
d="M696 971q94 0 179 -31t153 -89t108 -149.5t40 -203.5q0 -116 -42.5 -214.5t-116.5 -165.5t-174 -105t-214 -38q-111 0 -210.5 36.5t-173.5 103t-117.5 166.5t-43.5 219q0 75 20 150t53 145t94 162.5t123.5 178t160.5 215.5q41 54 63 83h272l-397 -521q109 58 223 58z
M629 197q136 0 224.5 82.5t88.5 218.5t-88 215.5t-223 79.5q-139 0 -226.5 -80.5t-87.5 -216.5q0 -135 89 -217t223 -82z" />
    <glyph glyph-name="seven" unicode="7" horiz-adv-x="1126" 
d="M63 1434h1000v-170l-623 -1264h-262l608 1212h-723v222z" />
    <glyph glyph-name="eight" unicode="8" horiz-adv-x="1247" 
d="M924 752q115 -41 177 -135.5t62 -219.5q0 -128 -71 -225t-192.5 -147t-274.5 -50q-154 0 -276 50t-193.5 147t-71.5 225q0 125 62.5 219.5t177.5 135.5q-92 40 -143.5 121t-51.5 184q0 118 65.5 210t178 141.5t252.5 49.5q212 0 352.5 -111.5t140.5 -289.5
q0 -103 -51 -184t-143 -121zM625 1239q-125 0 -195 -56.5t-70 -154.5q0 -87 63.5 -137.5t201.5 -50.5q136 0 199 50.5t63 137.5q0 98 -69.5 154.5t-192.5 56.5zM625 195q142 0 224.5 58t82.5 165q0 221 -307 221q-310 0 -310 -221q0 -107 83 -165t227 -58z" />
    <glyph glyph-name="nine" unicode="9" horiz-adv-x="1259" 
d="M631 1458q150 0 273 -62t197.5 -183t74.5 -279q0 -75 -20 -150t-53 -145t-94 -162.5t-123.5 -178t-160.5 -215.5q-41 -54 -63 -83h-273l397 520q-107 -57 -223 -57q-94 0 -179 31t-152.5 89t-107.5 149.5t-40 203.5q0 154 73 274t197.5 184t276.5 64zM629 641
q139 0 226 80.5t87 216.5q0 135 -88.5 217t-222.5 82q-136 0 -225 -82.5t-89 -218.5t88.5 -215.5t223.5 -79.5z" />
    <glyph glyph-name="colon" unicode=":" horiz-adv-x="634" 
d="M317 1049q65 0 108.5 -40.5t43.5 -103.5t-43.5 -104t-108.5 -41t-107 41t-42 104t42 103.5t107 40.5zM317 264q65 0 108.5 -40.5t43.5 -102.5q0 -63 -43.5 -104.5t-108.5 -41.5q-64 0 -106.5 41.5t-42.5 104.5t42 103t107 40z" />
    <glyph glyph-name="semicolon" unicode=";" horiz-adv-x="686" 
d="M369 760q-65 0 -108.5 41t-43.5 104t43.5 103.5t108.5 40.5t107 -40.5t42 -103.5t-42 -104t-107 -41zM518 111q1 -26 -6.5 -56.5t-53.5 -133.5t-136 -273h-154l145 336q-44 14 -70 48.5t-26 84.5q0 65 43 106t107 41q26 0 50.5 -7t48 -23t38 -47.5t14.5 -75.5z" />
    <glyph glyph-name="less" unicode="&#x3c;" horiz-adv-x="1359" 
d="M1194 1044v-239l-680 -197l680 -196v-244l-1026 362v154z" />
    <glyph glyph-name="equal" unicode="=" horiz-adv-x="1359" 
d="M1194 938v-213h-1026v213h1026zM1194 514v-211h-1026v211h1026z" />
    <glyph glyph-name="greater" unicode="&#x3e;" horiz-adv-x="1359" 
d="M168 1047l1026 -361v-156l-1026 -360v242l678 196l-678 195v244z" />
    <glyph glyph-name="question" unicode="?" horiz-adv-x="1177" 
d="M457 451v106q0 54 12.5 92t45.5 70t66.5 52.5t100.5 55.5q50 26 79 44t54 41.5t35 51.5t10 66q0 96 -68.5 154.5t-199.5 58.5q-252 0 -275 -256h-233q13 228 155 349.5t361 121.5q218 0 356 -114t138 -308q0 -59 -15 -107.5t-37.5 -82.5t-62 -67t-74.5 -54.5t-90 -50.5
q-70 -38 -100.5 -71t-30.5 -89v-63h-227zM571 -25q-66 0 -109.5 41t-43.5 105t43 103.5t110 39.5t111.5 -39.5t44.5 -103.5t-44.5 -105t-111.5 -41z" />
    <glyph glyph-name="at" unicode="@" horiz-adv-x="2332" 
d="M1188 1602q174 0 330.5 -43t285.5 -129t223.5 -206.5t146.5 -284t52 -353.5q0 -287 -114.5 -440.5t-315.5 -153.5q-69 0 -130 18t-118 70t-82 133q-58 -104 -151.5 -162.5t-218.5 -58.5q-202 0 -333.5 147t-131.5 375q0 230 131.5 377t331.5 147q116 0 206 -52.5
t148 -143.5v174h205v-651q0 -89 44 -133t113 -44q207 0 207 371q0 214 -65 379t-179 265.5t-260.5 151t-318.5 50.5q-256 0 -454.5 -106t-311.5 -307t-113 -468q0 -201 64.5 -365t178.5 -273t271 -167.5t342 -58.5q226 0 400 82l41 -191q-206 -88 -447 -88q-228 0 -423.5 76
t-336 212t-220 335.5t-79.5 437.5q0 317 140 563.5t386 380.5t556 134zM1139 190q132 0 219.5 90.5t87.5 233.5q0 142 -88 234t-219 92q-130 0 -213.5 -91.5t-83.5 -234.5q0 -142 84 -233t213 -91z" />
    <glyph glyph-name="A" unicode="A" horiz-adv-x="1531" 
d="M1223 0l-146 385h-622l-146 -385h-246l555 1434h295l555 -1434h-245zM539 604h454l-227 600z" />
    <glyph glyph-name="B" unicode="B" horiz-adv-x="1345" 
d="M1024 766q118 -36 178 -130.5t60 -229.5q0 -190 -125.5 -298t-350.5 -108h-618v1434h610q209 0 322.5 -96t113.5 -273q0 -109 -46.5 -182t-143.5 -117zM981 1028q0 95 -54 139.5t-177 44.5h-351v-368h353q122 0 175.5 46.5t53.5 137.5zM780 221q134 0 191 52.5t57 150.5
q0 103 -57 155t-193 52h-379v-410h381z" />
    <glyph glyph-name="C" unicode="C" horiz-adv-x="1622" 
d="M852 -25q-157 0 -294.5 56.5t-235 155t-153.5 236t-56 294.5q0 209 95 378.5t264.5 266t379.5 96.5q247 0 432.5 -136t253.5 -361h-248q-58 128 -174 202t-266 74q-219 0 -361.5 -147.5t-142.5 -372.5t142.5 -372.5t361.5 -147.5q150 0 266 74t174 202h248
q-68 -225 -253.5 -361.5t-432.5 -136.5z" />
    <glyph glyph-name="D" unicode="D" horiz-adv-x="1509" 
d="M670 1434q207 0 374.5 -92t263 -256t95.5 -369q0 -153 -56.5 -286.5t-154 -228t-233 -148.5t-289.5 -54h-502v1434h502zM672 221q218 0 358.5 138.5t140.5 357.5q0 217 -140.5 356t-358.5 139h-273v-991h273z" />
    <glyph glyph-name="E" unicode="E" horiz-adv-x="1187" 
d="M1104 1212h-705v-370h654v-221h-654v-400h705v-221h-936v1434h936v-222z" />
    <glyph glyph-name="F" unicode="F" horiz-adv-x="1187" 
d="M1104 1212h-705v-381h654v-221h-654v-610h-231v1434h936v-222z" />
    <glyph glyph-name="G" unicode="G" horiz-adv-x="1701" 
d="M770 762h774v-762h-201v287q-52 -141 -190.5 -226.5t-327.5 -85.5q-150 0 -283 56t-229 153t-151.5 235t-55.5 296q0 211 96 381t265.5 266t378.5 96q248 0 433 -133t253 -354h-248q-59 125 -174.5 195.5t-265.5 70.5q-220 0 -362 -148t-142 -378q0 -109 35.5 -204
t99.5 -165.5t159 -111t208 -40.5q182 0 311 101t156 274h-539v197z" />
    <glyph glyph-name="H" unicode="H" horiz-adv-x="1531" 
d="M1135 1434h231v-1434h-231v627h-736v-627h-231v1434h231v-586h736v586z" />
    <glyph glyph-name="I" unicode="I" horiz-adv-x="567" 
d="M168 0v1434h231v-1434h-231z" />
    <glyph glyph-name="J" unicode="J" horiz-adv-x="1169" 
d="M768 1434h233v-971q0 -155 -63.5 -267t-169 -166.5t-240.5 -54.5q-99 0 -183.5 31t-147.5 90t-98.5 151t-35.5 208v84h234v-78q0 -264 233 -264q109 0 173.5 65.5t64.5 206.5v965z" />
    <glyph glyph-name="K" unicode="K" horiz-adv-x="1361" 
d="M1298 0h-292l-607 684v-684h-231v1434h231v-656l580 656h291l-619 -699z" />
    <glyph glyph-name="L" unicode="L" horiz-adv-x="1114" 
d="M399 221h654v-221h-885v1434h231v-1213z" />
    <glyph glyph-name="M" unicode="M" horiz-adv-x="1693" 
d="M1253 1434h273v-1434h-232v1120l-442 -667h-23l-440 667v-1120h-231v1434h272l412 -619z" />
    <glyph glyph-name="N" unicode="N" horiz-adv-x="1515" 
d="M1126 1434h232v-1434h-275l-716 1108l22 -508v-600h-231v1434h272l717 -1106l-21 506v600z" />
    <glyph glyph-name="O" unicode="O" horiz-adv-x="1697" 
d="M850 1458q155 0 292.5 -57t236 -155t156 -235.5t58.5 -293.5q-1 -208 -98.5 -378t-267.5 -267t-377 -97t-377.5 97t-268.5 267t-98 378t98 378t268.5 266.5t377.5 96.5zM850 1237q-219 0 -364.5 -148t-145.5 -372t145.5 -372t364.5 -148q217 0 362.5 148t145.5 372
t-145.5 372t-362.5 148z" />
    <glyph glyph-name="P" unicode="P" horiz-adv-x="1363" 
d="M756 1434q233 0 368.5 -128.5t135.5 -342.5t-136 -346t-368 -132h-357v-485h-231v1434h588zM748 707q136 0 206 70t70 184t-70 182.5t-206 68.5h-349v-505h349z" />
    <glyph glyph-name="Q" unicode="Q" horiz-adv-x="1697" 
d="M1593 717q-1 -158 -59 -296t-162 -239l221 -291l-178 -133l-223 297q-160 -80 -342 -80q-207 0 -377.5 97t-268.5 267t-98 378t98 378t268.5 266.5t377.5 96.5q155 0 292.5 -57t236 -155t156 -235.5t58.5 -293.5zM340 717q0 -224 145.5 -372t364.5 -148q217 0 362.5 148
t145.5 372t-145.5 372t-362.5 148q-219 0 -364.5 -148t-145.5 -372z" />
    <glyph glyph-name="R" unicode="R" horiz-adv-x="1378" 
d="M1030 0l-409 535h-222v-535h-231v1434h592q229 0 358 -124.5t129 -330.5q0 -176 -94.5 -288t-265.5 -144l428 -547h-285zM399 1212v-473h336q138 0 208.5 64.5t70.5 173.5q0 108 -71 171.5t-208 63.5h-336z" />
    <glyph glyph-name="S" unicode="S" horiz-adv-x="1318" 
d="M674 844q100 -22 168.5 -41t137 -45t111.5 -56.5t78 -72t50.5 -95.5t15.5 -122q0 -91 -31 -165.5t-83 -124t-122 -83.5t-145 -49t-154 -15q-117 0 -214 25t-165 68.5t-118.5 103.5t-78.5 127.5t-40 144.5h233q33 -127 123.5 -189t257.5 -62q145 0 224 54t79 154
q0 82 -69 123q-57 34 -236 75q-16 3 -78 17q-94 21 -160 40.5t-133.5 52t-108.5 73.5t-67 102.5t-26 139.5q0 103 43.5 187t117 137t167.5 81.5t198 28.5q131 0 234 -32t170.5 -90t107.5 -131t56 -161h-234q-68 197 -332 197q-142 0 -219.5 -57.5t-77.5 -153.5
q0 -74 66.5 -110t253.5 -76z" />
    <glyph glyph-name="T" unicode="T" horiz-adv-x="1232" 
d="M1169 1434v-222h-438v-1212h-231v1212h-437v222h1106z" />
    <glyph glyph-name="U" unicode="U" horiz-adv-x="1484" 
d="M1092 1434h235v-863q0 -146 -44 -261t-122 -187.5t-183 -110t-230 -37.5t-230 37.5t-183.5 110t-122.5 187.5t-44 261v863h235v-848q0 -200 93 -294.5t252 -94.5t251.5 94.5t92.5 294.5v848z" />
    <glyph glyph-name="V" unicode="V" horiz-adv-x="1406" 
d="M1098 1434h245l-493 -1434h-295l-492 1434h246l393 -1168z" />
    <glyph glyph-name="W" unicode="W" horiz-adv-x="2056" 
d="M1755 1434h238l-381 -1434h-289l-137 518l-139 641h-37l-138 -641l-137 -518h-291l-381 1434h238l182 -686l109 -506l108 506l181 686h295l180 -686l110 -508l109 508z" />
    <glyph glyph-name="X" unicode="X" horiz-adv-x="1347" 
d="M1284 0h-274l-338 545l-334 -545h-275l467 739l-446 695h276l318 -512l317 512h275l-451 -709z" />
    <glyph glyph-name="Y" unicode="Y" horiz-adv-x="1394" 
d="M1331 1434l-516 -940l-2 -494h-231v489l-519 945h263l372 -684l373 684h260z" />
    <glyph glyph-name="Z" unicode="Z" horiz-adv-x="1220" 
d="M373 221h764v-221h-1053v221l762 991h-727v222h1016v-222z" />
    <glyph glyph-name="bracketleft" unicode="[" horiz-adv-x="839" 
d="M674 1577v-221h-275v-1647h275v-221h-506v2089h506z" />
    <glyph glyph-name="backslash" unicode="\" horiz-adv-x="985" 
d="M401 1577l416 -1577h-233l-416 1577h233z" />
    <glyph glyph-name="bracketright" unicode="]" horiz-adv-x="839" 
d="M168 1577h506v-2089h-506v221h272v1647h-272v221z" />
    <glyph glyph-name="asciicircum" unicode="^" horiz-adv-x="1228" 
d="M614 1458l447 -448l-162 -162l-285 282l-284 -282l-162 162z" />
    <glyph glyph-name="underscore" unicode="_" horiz-adv-x="1275" 
d="M1110 -39v-219h-942v219h942z" />
    <glyph glyph-name="grave" unicode="`" horiz-adv-x="808" 
d="M305 1718l336 -336l-106 -104l-367 301z" />
    <glyph glyph-name="a" unicode="a" horiz-adv-x="1378" 
d="M1012 1126h231v-1126h-231v188q-63 -100 -164 -156.5t-230 -56.5q-226 0 -373 165.5t-147 422.5q0 256 147.5 422t370.5 166q129 0 230.5 -58t165.5 -159v192zM668 197q149 0 247.5 102.5t98.5 263.5q0 160 -98.5 263.5t-247.5 103.5q-148 0 -242 -103t-94 -264
q0 -162 94.5 -264t241.5 -102z" />
    <glyph glyph-name="b" unicode="b" horiz-adv-x="1378" 
d="M762 1151q223 0 370.5 -166t147.5 -422q0 -257 -147 -422.5t-373 -165.5q-128 0 -228.5 57t-164.5 156v-188h-232v1577h232v-643q64 101 165 159t230 58zM711 197q147 0 241.5 102t94.5 264q0 161 -94 264t-242 103q-149 0 -247.5 -103.5t-98.5 -263.5
q0 -161 98.5 -263.5t247.5 -102.5z" />
    <glyph glyph-name="c" unicode="c" horiz-adv-x="1314" 
d="M682 -25q-250 0 -417 168t-167 420q0 166 76 300.5t210 211t300 76.5q134 0 249.5 -51t197 -150.5t106.5 -232.5h-240q-32 104 -117 161.5t-196 57.5q-156 0 -254 -104.5t-98 -268.5t98.5 -268.5t251.5 -104.5q112 0 197.5 59.5t117.5 162.5h240q-39 -203 -194.5 -320
t-360.5 -117z" />
    <glyph glyph-name="d" unicode="d" horiz-adv-x="1390" 
d="M1026 1577h231v-1577h-231v188q-66 -99 -166.5 -156t-228.5 -57q-226 0 -373 165.5t-147 422.5q0 256 147.5 422t370.5 166q129 0 230 -58t167 -159v643zM680 197q149 0 247.5 102.5t98.5 263.5q0 160 -98.5 263.5t-247.5 103.5q-148 0 -242 -103t-94 -264
q0 -162 94.5 -264t241.5 -102z" />
    <glyph glyph-name="e" unicode="e" horiz-adv-x="1339" 
d="M680 1151q133 0 244.5 -50t185 -136.5t111 -206.5t28.5 -258h-915q13 -152 110 -237t242 -85q103 0 182.5 43t118.5 125h240q-64 -183 -209.5 -277t-333.5 -94q-256 0 -421 165.5t-165 420.5q0 256 164 423t418 167zM680 950q-128 0 -216 -72t-118 -190h655
q-27 119 -111.5 190.5t-209.5 71.5z" />
    <glyph glyph-name="f" unicode="f" horiz-adv-x="987" 
d="M723 1397q-234 0 -234 -264v-7h416v-217h-416v-909h-231v909h-209v217h209v17q0 112 34 200.5t94.5 144.5t139 85t170.5 29q141 0 254 -50l-41 -190l-32 10q-83 25 -154 25z" />
    <glyph glyph-name="g" unicode="g" horiz-adv-x="1378" 
d="M1012 1126h231v-1112q0 -252 -147.5 -401.5t-397.5 -149.5q-137 0 -253.5 45.5t-200 142t-107.5 232.5h240q28 -105 112.5 -159t202.5 -54q156 0 238 86t82 250v193q-66 -98 -167 -154.5t-227 -56.5q-226 0 -373 164t-147 417q0 166 67.5 299.5t186.5 208t266 74.5
q127 0 228.5 -58.5t165.5 -158.5v192zM668 209q149 0 247.5 101.5t98.5 258.5q0 156 -99 258.5t-247 102.5q-147 0 -241.5 -102t-94.5 -259q0 -158 94.5 -259t241.5 -101z" />
    <glyph glyph-name="h" unicode="h" horiz-adv-x="1282" 
d="M754 1151q189 0 297 -117.5t108 -322.5v-711h-231v664q0 266 -248 266q-146 0 -224.5 -91t-78.5 -255v-584h-232v1577h232v-635q128 209 377 209z" />
    <glyph glyph-name="i" unicode="i" horiz-adv-x="499" 
d="M250 1634q66 0 108.5 -39.5t42.5 -101.5q0 -63 -42.5 -104t-108.5 -41q-64 0 -107 41t-43 104q0 61 43 101t107 40zM135 0v1126h232v-1126h-232z" />
    <glyph glyph-name="j" unicode="j" horiz-adv-x="499" 
d="M250 1634q66 0 108.5 -39.5t42.5 -101.5q0 -63 -42.5 -104t-108.5 -41q-64 0 -107 41t-43 104q0 61 43 101t107 40zM135 -512v1638h232v-1638h-232z" />
    <glyph glyph-name="k" unicode="k" horiz-adv-x="1255" 
d="M1206 0h-299l-530 520v-520h-232v1577h232v-938l487 487h297l-551 -534z" />
    <glyph glyph-name="l" unicode="l" horiz-adv-x="499" 
d="M137 0v1577h234v-1577h-234z" />
    <glyph glyph-name="m" unicode="m" horiz-adv-x="1951" 
d="M1446 1151q179 0 280 -113.5t101 -314.5v-723h-232v674q0 128 -54 192t-169 64q-133 0 -204.5 -94t-71.5 -252l2 -584h-234v674q0 128 -54 192t-169 64q-133 0 -203.5 -94t-70.5 -252v-584h-232v1126h232v-180q124 205 350 205q128 0 217.5 -61t130.5 -175
q124 236 381 236z" />
    <glyph glyph-name="n" unicode="n" horiz-adv-x="1273" 
d="M743 1151q190 0 298 -117t108 -323v-711h-231v664q0 266 -246 266q-148 0 -226.5 -91t-78.5 -255v-584h-232v1126h232v-186q129 211 376 211z" />
    <glyph glyph-name="o" unicode="o" horiz-adv-x="1361" 
d="M682 1151q161 0 294.5 -75.5t211.5 -210.5t78 -302q0 -166 -77 -301t-211 -211t-296 -76q-161 0 -295 76.5t-211.5 211.5t-77.5 300q0 166 78.5 301.5t212 211t293.5 75.5zM682 930q-148 0 -249 -103t-101 -264t100 -263.5t250 -102.5t250 102.5t100 263.5t-101 264
t-249 103z" />
    <glyph glyph-name="p" unicode="p" horiz-adv-x="1388" 
d="M772 1151q223 0 370.5 -166t147.5 -422q0 -257 -147 -422.5t-373 -165.5q-128 0 -228.5 57t-164.5 156v-700h-232v1638h232v-192q64 101 165 159t230 58zM721 197q147 0 241.5 102t94.5 264q0 161 -94 264t-242 103q-149 0 -247.5 -103.5t-98.5 -263.5
q0 -161 98.5 -263.5t247.5 -102.5z" />
    <glyph glyph-name="q" unicode="q" horiz-adv-x="1378" 
d="M1012 1126h231v-1638h-231v700q-64 -99 -165 -156t-229 -57q-226 0 -373 165.5t-147 422.5q0 256 147.5 422t370.5 166q129 0 230.5 -58t165.5 -159v192zM668 197q149 0 247.5 102.5t98.5 263.5q0 160 -98.5 263.5t-247.5 103.5q-148 0 -242 -103t-94 -264
q0 -162 94.5 -264t241.5 -102z" />
    <glyph glyph-name="r" unicode="r" horiz-adv-x="858" 
d="M741 1151q44 0 68 -6v-236q-40 4 -70 4q-168 0 -270 -98.5t-102 -298.5v-516h-232v1126h232v-223q52 120 147 184t227 64z" />
    <glyph glyph-name="s" unicode="s" horiz-adv-x="1196" 
d="M633 -25q-224 0 -372.5 102.5t-180.5 284.5h235q27 -95 102 -138.5t220 -43.5q114 0 178 33.5t64 95.5q0 25 -10.5 44t-29.5 32t-50.5 24.5t-67 20.5t-85.5 21q-34 8 -52 12q-127 32 -204.5 58.5t-136.5 64.5t-83.5 87.5t-24.5 119.5q0 168 129.5 263t345.5 95
q210 0 335 -91.5t157 -250.5h-234q-49 137 -262 137q-111 0 -174 -35t-63 -94q0 -51 51.5 -74.5t214.5 -62.5q66 -16 109 -27t94.5 -26.5t83.5 -29.5t67 -33.5t55.5 -41.5t38.5 -50t25.5 -61.5t7.5 -74.5q0 -117 -66 -200t-173.5 -122t-243.5 -39z" />
    <glyph glyph-name="t" unicode="t" horiz-adv-x="1067" 
d="M950 246l41 -189q-52 -32 -142 -57t-179 -25q-88 0 -162 28t-130.5 83t-88 143.5t-31.5 202.5v477h-209v217h209v256l231 52v-308h463v-217h-463v-465q0 -123 57 -188.5t165 -65.5q80 0 239 56z" />
    <glyph glyph-name="u" unicode="u" horiz-adv-x="1261" 
d="M899 1126h231v-1126h-231v186q-131 -211 -375 -211q-187 0 -293 117.5t-106 323.5v710h231v-663q0 -133 59 -199.5t183 -66.5q144 0 222.5 91t78.5 255v583z" />
    <glyph glyph-name="v" unicode="v" horiz-adv-x="1189" 
d="M895 1126h246l-406 -1126h-280l-406 1126h246l299 -884z" />
    <glyph glyph-name="w" unicode="w" horiz-adv-x="1761" 
d="M1481 1126h231l-321 -1126h-271l-108 379l-113 514h-37l-112 -514l-109 -379h-270l-322 1126h230l100 -354l131 -528l131 528l100 354h279l98 -354l131 -524l133 524z" />
    <glyph glyph-name="x" unicode="x" horiz-adv-x="1187" 
d="M1139 0h-277l-272 403l-262 -403h-279l404 580l-381 546h276l250 -376l242 376h278l-381 -551z" />
    <glyph glyph-name="y" unicode="y" horiz-adv-x="1239" 
d="M942 1126h248l-746 -1638h-247l297 655l-445 983h248l319 -733z" />
    <glyph glyph-name="z" unicode="z" horiz-adv-x="1110" 
d="M375 219h655v-219h-950v219l643 688h-606v219h903v-219z" />
    <glyph glyph-name="braceleft" unicode="{" horiz-adv-x="1050" 
d="M651 864q0 -159 -53.5 -233t-177.5 -99q124 -25 177.5 -98.5t53.5 -232.5v-82q0 -165 23 -256t72 -131t139 -47v-222q-101 0 -184.5 34.5t-147 103.5t-98.5 181t-35 259v94q0 62 -3.5 101t-15 77.5t-33.5 59t-59.5 33t-91.5 12.5h-49v229h49q54 0 91.5 12.5t59.5 33
t33.5 59t15 77.5t3.5 101v94q0 147 35 259t98.5 181t147 103.5t184.5 34.5v-222q-90 -7 -139 -47t-72 -131t-23 -256v-82z" />
    <glyph glyph-name="bar" unicode="|" horiz-adv-x="565" 
d="M399 1434v-1627h-231v1627h231z" />
    <glyph glyph-name="braceright" unicode="}" horiz-adv-x="1050" 
d="M834 647h51v-229h-51q-54 0 -91.5 -12.5t-59.5 -33t-33.5 -59t-15 -77.5t-3.5 -101v-94q0 -147 -35 -259t-98.5 -181t-146.5 -103.5t-183 -34.5v222q90 7 138.5 47t70.5 130.5t22 256.5v82q0 159 54 232.5t178 98.5q-123 25 -177.5 99t-54.5 233v82q0 166 -22 256.5
t-70.5 130.5t-138.5 47v222q100 0 183 -34.5t146.5 -103.5t98.5 -181t35 -259v-94q0 -62 3.5 -101t15 -77.5t33.5 -59t59.5 -33t91.5 -12.5z" />
    <glyph glyph-name="asciitilde" unicode="~" horiz-adv-x="1308" 
d="M889 479q-44 0 -90.5 15.5t-71 29.5t-86.5 51q-24 13 -57.5 32.5t-48 27.5t-35 15t-39.5 7q-101 0 -101 -153h-192q0 360 252 360q16 0 30.5 -1t30.5 -5.5t26 -6.5t28 -10t24.5 -10.5t27.5 -14.5t25.5 -14.5t29 -17t28.5 -16.5q24 -13 57 -32.5t48 -27.5t35 -15t38 -7
q102 0 102 154h193q0 -361 -254 -361z" />
    <glyph glyph-name="exclamdown" unicode="&#xa1;" horiz-adv-x="634" 
d="M317 682q-64 0 -106.5 40.5t-42.5 102.5q0 63 42.5 104.5t106.5 41.5q65 0 108.5 -41.5t43.5 -104.5q0 -61 -43.5 -102t-108.5 -41zM434 -487h-233v516l16 467h203l14 -467v-516z" />
    <glyph glyph-name="cent" unicode="&#xa2;" horiz-adv-x="1314" 
d="M682 190q112 0 197.5 59.5t117.5 162.5h240q-33 -173 -152.5 -284.5t-287.5 -141.5v-293h-230v293q-208 38 -338.5 197.5t-130.5 379.5t130.5 380t338.5 198v293h230v-293q168 -30 288 -142.5t152 -281.5h-240q-32 104 -117 161.5t-196 57.5q-156 0 -254 -104.5
t-98 -268.5t98.5 -268.5t251.5 -104.5z" />
    <glyph glyph-name="sterling" unicode="&#xa3;" horiz-adv-x="1505" 
d="M1145 397h233q0 -214 -95.5 -305.5t-293.5 -91.5h-862v221h80q80 0 108.5 34t28.5 110v229h-217v205h217v202q0 203 121 330t342 127q218 0 346.5 -125.5t128.5 -333.5h-233q0 111 -56 174.5t-174 63.5q-126 0 -185 -65.5t-59 -180.5v-192h392v-205h-392v-217
q0 -61 -14.5 -97t-50.5 -59h448q108 0 147.5 36.5t39.5 139.5z" />
    <glyph glyph-name="currency" unicode="&#xa4;" horiz-adv-x="1511" 
d="M1239 715q0 -136 -65 -250l169 -174l-161 -164l-170 172q-120 -70 -256 -70t-254 72l-170 -174l-164 164l172 172q-66 114 -66 252q0 137 68 254l-174 172l164 164l172 -175q115 70 252 70q139 0 254 -67l170 172l163 -164l-172 -172q68 -117 68 -254zM756 434
q117 0 195.5 78.5t78.5 202.5q0 123 -78.5 201.5t-195.5 78.5q-115 0 -194 -78t-79 -202t79 -202.5t194 -78.5z" />
    <glyph glyph-name="yen" unicode="&#xa5;" horiz-adv-x="1523" 
d="M1397 1434l-467 -848h305v-127h-356v-123h356v-127h-356v-209h-232v209h-358v127h358v123h-358v127h305l-467 848h262l373 -684l373 684h262z" />
    <glyph glyph-name="brokenbar" unicode="&#xa6;" horiz-adv-x="565" 
d="M399 1434v-727h-231v727h231zM399 535v-728h-231v728h231z" />
    <glyph glyph-name="section" unicode="&#xa7;" horiz-adv-x="1318" 
d="M977 383q81 -38 120.5 -95t39.5 -147q0 -171 -126 -264.5t-337 -93.5q-202 0 -330 86.5t-160 247.5h236q23 -80 93 -118t167 -38q102 0 162.5 41t60.5 115q0 51 -47 75t-199 60q-60 15 -91.5 22.5t-82.5 22t-78 25t-66 27t-59.5 32.5t-45 38.5t-36 46.5t-20 55t-8.5 67
q0 88 43.5 151t126.5 117q-81 40 -120.5 96.5t-39.5 147.5q0 170 130 264t339 94q200 0 326 -84.5t158 -243.5h-234q-16 53 -55 87t-89 48.5t-112 14.5q-100 0 -164.5 -41.5t-64.5 -114.5q0 -51 48 -75t200 -60q60 -15 91 -22.5t82 -22t77.5 -25t65.5 -27.5t59.5 -32.5
t45 -38.5t36 -47.5t20 -55.5t8.5 -67q0 -87 -43 -150t-127 -118zM410 637q0 -61 53 -92q42 -25 197 -64q46 -11 49 -12q80 -21 88 -23q59 38 85.5 74t26.5 84q0 61 -53 92q-42 25 -197 64q-46 11 -49 12q-22 4 -90 23q-58 -38 -84 -74t-26 -84z" />
    <glyph glyph-name="dieresis" unicode="&#xa8;" horiz-adv-x="1077" 
d="M305 1624q60 0 98.5 -37t38.5 -94q0 -58 -38.5 -95.5t-98.5 -37.5q-59 0 -98 37.5t-39 95.5q0 57 39 94t98 37zM770 1624q60 0 99.5 -37t39.5 -94q0 -58 -39.5 -95.5t-99.5 -37.5t-99.5 37.5t-39.5 95.5q0 57 39.5 94t99.5 37z" />
    <glyph glyph-name="copyright" unicode="&#xa9;" horiz-adv-x="1439" 
d="M721 1602q112 0 214.5 -44t176.5 -118t118 -176.5t44 -214.5t-44 -214.5t-118 -176.5t-176.5 -118t-214.5 -44t-214.5 44t-176.5 118t-118 176.5t-44 214.5t44 214.5t118 176.5t176.5 118t214.5 44zM721 592q189 0 322 133.5t133 323.5q0 189 -133 321.5t-322 132.5
t-322 -132.5t-133 -321.5q0 -190 133 -323.5t322 -133.5zM723 1221q-71 0 -117.5 -48.5t-46.5 -123.5q0 -76 46.5 -124t117.5 -48q51 0 88.5 25t54.5 71h127q-21 -96 -96.5 -153.5t-173.5 -57.5q-122 0 -203.5 82t-81.5 205t81.5 204.5t203.5 81.5q98 0 173.5 -57.5
t96.5 -153.5h-127q-18 45 -55.5 71t-87.5 26z" />
    <glyph glyph-name="guillemotleft" unicode="&#xab;" horiz-adv-x="1454" 
d="M610 129l-442 442l442 443l158 -160l-285 -283l285 -282zM1130 129l-444 442l444 443l158 -160l-284 -283l284 -282z" />
    <glyph glyph-name="logicalnot" unicode="&#xac;" horiz-adv-x="1359" 
d="M1194 723v-490h-231v269h-795v221h1026z" />
    <glyph glyph-name="registered" unicode="&#xae;" horiz-adv-x="1439" 
d="M721 1602q112 0 214.5 -44t176.5 -118t118 -176.5t44 -214.5t-44 -214.5t-118 -176.5t-176.5 -118t-214.5 -44t-214.5 44t-176.5 118t-118 176.5t-44 214.5t44 214.5t118 176.5t176.5 118t214.5 44zM721 592q189 0 322 133.5t133 323.5q0 189 -133 321.5t-322 132.5
t-323 -132.5t-134 -321.5q0 -190 134 -323.5t323 -133.5zM956 1143q0 -66 -36 -110t-101 -58l160 -207h-143l-152 201h-55v-201h-119v551h266q87 0 133.5 -48t46.5 -128zM629 1217v-156h114q51 0 72 20t21 60q0 38 -21 57t-72 19h-114z" />
    <glyph glyph-name="macron" unicode="&#xaf;" horiz-adv-x="847" 
d="M680 1577v-170h-512v170h512z" />
    <glyph glyph-name="degree" unicode="&#xb0;" horiz-adv-x="1036" 
d="M518 1602q148 0 250 -102t102 -249q0 -146 -103 -249t-249 -103q-145 0 -248 103t-102 249q-1 146 101.5 248.5t248.5 102.5zM518 1434q-76 0 -128.5 -54t-51.5 -131q-1 -77 51.5 -130.5t128.5 -53.5t129 53.5t53 130.5q0 78 -53.5 131.5t-128.5 53.5z" />
    <glyph glyph-name="plusminus" unicode="&#xb1;" horiz-adv-x="1359" 
d="M797 1116v-276h397v-176h-397v-283h-232v283h-397v176h397v276h232zM1194 299v-176h-1026v176h1026z" />
    <glyph glyph-name="uni00B2" unicode="&#xb2;" horiz-adv-x="860" 
d="M342 924h449v-162h-721v145l299 226q115 87 150.5 126.5t35.5 88.5q0 47 -32 75.5t-91 28.5q-132 0 -149 -147h-203q11 130 103.5 213.5t252.5 83.5q79 0 142 -22.5t101.5 -60.5t58.5 -84.5t20 -97.5q0 -91 -65 -161.5t-210 -159.5z" />
    <glyph glyph-name="uni00B3" unicode="&#xb3;" horiz-adv-x="858" 
d="M664 1196q57 -29 90.5 -80.5t33.5 -118.5q0 -106 -87.5 -182t-254.5 -76q-164 0 -263 76t-113 203h202q26 -131 166 -131q70 0 109 32.5t39 86.5q0 53 -28.5 80.5t-80.5 27.5h-131v131h105q47 0 78.5 27.5t31.5 73.5q0 48 -34 77t-95 29q-60 0 -98 -32.5t-47 -98.5h-203
q11 128 105 204.5t247 76.5q154 0 241 -75t87 -179q0 -99 -100 -152z" />
    <glyph glyph-name="acute" unicode="&#xb4;" horiz-adv-x="808" 
d="M502 1720l139 -139l-369 -301l-104 106z" />
    <glyph glyph-name="paragraph" unicode="&#xb6;" horiz-adv-x="1372" 
d="M377 1434h827v-1641h-231v1419h-277v-1419h-231v1043h-88q-91 0 -150 58.5t-59 149.5v181q0 91 59 150t150 59z" />
    <glyph glyph-name="periodcentered" unicode="&#xb7;" horiz-adv-x="634" 
d="M317 784q65 0 108.5 -41t43.5 -104q0 -61 -43.5 -102t-108.5 -41q-64 0 -106.5 40.5t-42.5 102.5q0 63 42 104t107 41z" />
    <glyph glyph-name="cedilla" unicode="&#xb8;" horiz-adv-x="727" 
d="M399 -162q81 -15 134 -61t53 -123q0 -94 -80 -142.5t-217 -48.5q-49 0 -121 9v118q64 -8 94 -8q67 0 105.5 21t38.5 63q0 87 -187 103l100 231h160z" />
    <glyph glyph-name="uni00B9" unicode="&#xb9;" horiz-adv-x="579" 
d="M406 1577h104v-815h-199v608l-241 -82v182z" />
    <glyph glyph-name="guillemotright" unicode="&#xbb;" horiz-adv-x="1454" 
d="M326 129l-158 160l285 282l-285 283l158 160l442 -443zM846 129l-160 160l285 282l-285 283l160 160l442 -443z" />
    <glyph glyph-name="onequarter" unicode="&#xbc;" horiz-adv-x="1878" 
d="M510 618h-199v609l-241 -82v182l336 107h104v-816zM1182 1434h223l-819 -1434h-224zM1808 324v-162h-145v-162h-201v162h-422v162l375 491h248v-491h145zM1204 324h258v344z" />
    <glyph glyph-name="onehalf" unicode="&#xbd;" horiz-adv-x="1970" 
d="M510 618h-199v609l-241 -82v182l336 107h104v-816zM1182 1434h223l-819 -1434h-224zM1450 162h451v-162h-721v143l299 226q117 90 151.5 128t34.5 87q0 48 -32 77t-91 29q-132 0 -149 -149h-203q11 130 103.5 213.5t252.5 83.5q154 0 238 -78t84 -185q0 -91 -64.5 -161.5
t-210.5 -161.5z" />
    <glyph glyph-name="threequarters" unicode="&#xbe;" horiz-adv-x="2078" 
d="M788 854q0 -106 -87.5 -182t-254.5 -76q-164 0 -263 75.5t-113 202.5h202q26 -131 166 -131q70 0 109 32.5t39 86.5q0 53 -28.5 81t-80.5 28h-131v131h105q47 0 78.5 27t31.5 73q0 48 -34.5 77.5t-94.5 29.5t-98 -32.5t-47 -98.5h-203q11 128 104.5 204t247.5 76t241 -75
t87 -179q0 -98 -100 -151q57 -29 90.5 -80.5t33.5 -118.5zM1382 1434h224l-820 -1434h-223zM2009 324v-162h-145v-162h-201v162h-422v162l375 491h248v-491h145zM1405 324h258v344z" />
    <glyph glyph-name="questiondown" unicode="&#xbf;" horiz-adv-x="1177" 
d="M604 946q67 0 111.5 -40.5t44.5 -104.5t-44.5 -104t-111.5 -40t-110 40t-43 104t43.5 104.5t109.5 40.5zM719 471v-106q0 -44 -9.5 -78t-24.5 -58t-46.5 -48.5t-61 -42t-81.5 -44.5q-101 -52 -141 -92t-40 -111q0 -96 69.5 -154.5t201.5 -58.5q251 0 274 256h234
q-15 -229 -156.5 -350t-362.5 -121q-218 0 -354.5 113.5t-136.5 308.5q0 59 14.5 107.5t37 83t61.5 67.5t75 55t90 50q71 38 101.5 71t30.5 89v63h225z" />
    <glyph glyph-name="Agrave" unicode="&#xc0;" horiz-adv-x="1531" 
d="M1001 1681l-106 -104l-367 301l138 139zM1223 0l-146 385h-622l-146 -385h-246l555 1434h295l555 -1434h-245zM539 604h454l-227 600z" />
    <glyph glyph-name="Aacute" unicode="&#xc1;" horiz-adv-x="1531" 
d="M1001 1878l-368 -301l-105 104l334 336zM1223 0l-146 385h-622l-146 -385h-246l555 1434h295l555 -1434h-245zM539 604h454l-227 600z" />
    <glyph glyph-name="Acircumflex" unicode="&#xc2;" horiz-adv-x="1531" 
d="M766 1798l-209 -221l-125 125l334 336l336 -336l-127 -125zM1223 0l-146 385h-622l-146 -385h-246l555 1434h295l555 -1434h-245zM539 604h454l-227 600z" />
    <glyph glyph-name="Atilde" unicode="&#xc3;" horiz-adv-x="1531" 
d="M625 1745q-76 0 -76 -129h-143q0 309 210 309q48 0 80.5 -17t85.5 -61q31 -25 44.5 -35.5t36 -21t42.5 -10.5q78 0 78 131h143q0 -162 -56.5 -237t-156.5 -75q-46 0 -79.5 17t-85.5 61q-29 25 -42.5 35.5t-36.5 21.5t-44 11zM1223 0l-146 385h-622l-146 -385h-246
l555 1434h295l555 -1434h-245zM539 604h454l-227 600z" />
    <glyph glyph-name="Adieresis" unicode="&#xc4;" horiz-adv-x="1531" 
d="M532 1657q-59 0 -98 38t-39 95t39 95t98 38q60 0 99 -38t39 -95t-39 -95t-99 -38zM997 1657q-60 0 -99.5 38t-39.5 95t39.5 95t99.5 38t100 -38t40 -95t-40 -95t-100 -38zM1223 0l-146 385h-622l-146 -385h-246l555 1434h295l555 -1434h-245zM539 604h454l-227 600z" />
    <glyph glyph-name="Aring" unicode="&#xc5;" horiz-adv-x="1531" 
d="M764 1577q-106 0 -181 75.5t-75 182.5t74.5 182.5t181.5 75.5q108 0 183.5 -75.5t74.5 -182.5q1 -107 -75.5 -182.5t-182.5 -75.5zM764 1956q-50 0 -85 -35t-34 -88q-1 -52 34 -87.5t85 -35.5q51 0 86 35.5t35 87.5q0 53 -34.5 88t-86.5 35zM1223 0l-146 385h-622
l-146 -385h-246l555 1434h295l555 -1434h-245zM539 604h454l-227 600z" />
    <glyph glyph-name="AE" unicode="&#xc6;" horiz-adv-x="1789" 
d="M1706 1212h-705v-370h652v-221h-652v-400h705v-221h-936v385h-315l-146 -385h-246l555 1434h295h793v-222zM539 604h231v610z" />
    <glyph glyph-name="Ccedilla" unicode="&#xc7;" horiz-adv-x="1622" 
d="M850 197q150 0 266 74t174 202h248q-67 -218 -243.5 -353.5t-413.5 -144.5l-70 -137q82 -15 135 -60.5t53 -123.5q0 -94 -80 -142.5t-217 -48.5q-48 0 -120 9v118q64 -8 94 -8q67 0 105 21t38 63q0 87 -186 103l94 217q-271 41 -442.5 244t-171.5 487q0 209 95 378.5
t264.5 266t379.5 96.5q247 0 432.5 -136t253.5 -361h-248q-58 128 -174 202t-266 74q-219 0 -361.5 -147.5t-142.5 -372.5t142.5 -372.5t361.5 -147.5z" />
    <glyph glyph-name="Egrave" unicode="&#xc8;" horiz-adv-x="1187" 
d="M831 1681l-106 -104l-367 301l138 139zM1104 1212h-705v-370h654v-221h-654v-400h705v-221h-936v1434h936v-222z" />
    <glyph glyph-name="Eacute" unicode="&#xc9;" horiz-adv-x="1187" 
d="M831 1878l-368 -301l-105 104l334 336zM1104 1212h-705v-370h654v-221h-654v-400h705v-221h-936v1434h936v-222z" />
    <glyph glyph-name="Ecircumflex" unicode="&#xca;" horiz-adv-x="1187" 
d="M594 1798l-209 -221l-125 125l334 336l336 -336l-127 -125zM1104 1212h-705v-370h654v-221h-654v-400h705v-221h-936v1434h936v-222z" />
    <glyph glyph-name="Edieresis" unicode="&#xcb;" horiz-adv-x="1187" 
d="M360 1657q-59 0 -98 38t-39 95t39 95t98 38q60 0 99 -38t39 -95t-39 -95t-99 -38zM825 1657q-60 0 -99.5 38t-39.5 95t39.5 95t99.5 38t100 -38t40 -95t-40 -95t-100 -38zM1104 1212h-705v-370h654v-221h-654v-400h705v-221h-936v1434h936v-222z" />
    <glyph glyph-name="Igrave" unicode="&#xcc;" horiz-adv-x="567" 
d="M182 2017l336 -336l-106 -104l-367 301zM168 0v1434h231v-1434h-231z" />
    <glyph glyph-name="Iacute" unicode="&#xcd;" horiz-adv-x="567" 
d="M379 2017l139 -139l-368 -301l-105 104zM168 0v1434h231v-1434h-231z" />
    <glyph glyph-name="Icircumflex" unicode="&#xce;" horiz-adv-x="567" 
d="M618 1702l-126 -125l-209 221l-209 -221l-125 125l334 336zM168 0v1434h231v-1434h-231z" />
    <glyph glyph-name="Idieresis" unicode="&#xcf;" horiz-adv-x="567" 
d="M49 1923q60 0 98.5 -38t38.5 -95t-38.5 -95t-98.5 -38q-59 0 -98 38t-39 95t39 95t98 38zM514 1923q60 0 99.5 -38t39.5 -95t-39.5 -95t-99.5 -38t-99.5 38t-39.5 95t39.5 95t99.5 38zM168 0v1434h231v-1434h-231z" />
    <glyph glyph-name="Eth" unicode="&#xd0;" horiz-adv-x="1509" 
d="M670 1434q207 0 374.5 -92t263 -256t95.5 -369q0 -153 -56.5 -286.5t-154 -228t-233 -148.5t-289.5 -54h-502v606h-131v221h131v607h502zM672 221q218 0 358.5 138.5t140.5 357.5q0 217 -140.5 356t-358.5 139h-273v-385h250v-221h-250v-385h273z" />
    <glyph glyph-name="Ntilde" unicode="&#xd1;" horiz-adv-x="1515" 
d="M616 1745q-75 0 -75 -129h-144q0 309 211 309q48 0 80.5 -17t85.5 -61q31 -25 44.5 -35.5t36 -21t42.5 -10.5q78 0 78 131h143q0 -162 -56.5 -237t-156.5 -75q-46 0 -80 17t-86 61q-29 25 -42.5 35.5t-36.5 21.5t-44 11zM1126 1434h232v-1434h-275l-716 1108l22 -508
v-600h-231v1434h272l717 -1106l-21 506v600z" />
    <glyph glyph-name="Ograve" unicode="&#xd2;" horiz-adv-x="1697" 
d="M750 2017l335 -336l-106 -104l-367 301zM850 1458q155 0 292.5 -57t236 -155t156 -235.5t58.5 -293.5q-1 -208 -98.5 -378t-267.5 -267t-377 -97t-377.5 97t-268.5 267t-98 378t98 378t268.5 266.5t377.5 96.5zM850 1237q-219 0 -364.5 -148t-145.5 -372t145.5 -372
t364.5 -148q217 0 362.5 148t145.5 372t-145.5 372t-362.5 148z" />
    <glyph glyph-name="Oacute" unicode="&#xd3;" horiz-adv-x="1697" 
d="M946 2017l139 -139l-368 -301l-105 104zM850 1458q155 0 292.5 -57t236 -155t156 -235.5t58.5 -293.5q-1 -208 -98.5 -378t-267.5 -267t-377 -97t-377.5 97t-268.5 267t-98 378t98 378t268.5 266.5t377.5 96.5zM850 1237q-219 0 -364.5 -148t-145.5 -372t145.5 -372
t364.5 -148q217 0 362.5 148t145.5 372t-145.5 372t-362.5 148z" />
    <glyph glyph-name="Ocircumflex" unicode="&#xd4;" horiz-adv-x="1697" 
d="M1184 1702l-127 -125l-209 221l-209 -221l-125 125l334 336zM850 1458q155 0 292.5 -57t236 -155t156 -235.5t58.5 -293.5q-1 -208 -98.5 -378t-267.5 -267t-377 -97t-377.5 97t-268.5 267t-98 378t98 378t268.5 266.5t377.5 96.5zM850 1237q-219 0 -364.5 -148
t-145.5 -372t145.5 -372t364.5 -148q217 0 362.5 148t145.5 372t-145.5 372t-362.5 148z" />
    <glyph glyph-name="Otilde" unicode="&#xd5;" horiz-adv-x="1697" 
d="M1065 1911h143q0 -162 -56.5 -237t-156.5 -75q-46 0 -80 17t-86 61q-30 26 -42.5 36t-35.5 21t-44 11q-76 0 -76 -129h-144q0 309 211 309q48 0 80.5 -17t85.5 -61q31 -25 44.5 -35.5t36 -21t42.5 -10.5q78 0 78 131zM850 1458q155 0 292.5 -57t236 -155t156 -235.5
t58.5 -293.5q-1 -208 -98.5 -378t-267.5 -267t-377 -97t-377.5 97t-268.5 267t-98 378t98 378t268.5 266.5t377.5 96.5zM850 1237q-219 0 -364.5 -148t-145.5 -372t145.5 -372t364.5 -148q217 0 362.5 148t145.5 372t-145.5 372t-362.5 148z" />
    <glyph glyph-name="Odieresis" unicode="&#xd6;" horiz-adv-x="1697" 
d="M614 1923q60 0 99 -38t39 -95t-39 -95t-99 -38q-59 0 -98 38t-39 95t39 95t98 38zM1079 1923q60 0 100 -38t40 -95t-40 -95t-100 -38t-99.5 38t-39.5 95t39.5 95t99.5 38zM850 1458q155 0 292.5 -57t236 -155t156 -235.5t58.5 -293.5q-1 -208 -98.5 -378t-267.5 -267
t-377 -97t-377.5 97t-268.5 267t-98 378t98 378t268.5 266.5t377.5 96.5zM850 1237q-219 0 -364.5 -148t-145.5 -372t145.5 -372t364.5 -148q217 0 362.5 148t145.5 372t-145.5 372t-362.5 148z" />
    <glyph glyph-name="multiply" unicode="&#xd7;" horiz-adv-x="1353" 
d="M1030 1120l158 -157l-354 -353l354 -354l-158 -156l-354 355l-352 -355l-156 156l352 354l-352 353l156 157l352 -352z" />
    <glyph glyph-name="Oslash" unicode="&#xd8;" horiz-adv-x="1697" 
d="M1262 1339q153 -98 241.5 -261t89.5 -361q-1 -208 -98.5 -378t-267.5 -267t-377 -97q-112 0 -221 31l-37 -78h-234l78 166q-153 98 -241.5 262t-88.5 361q0 208 98 378t268.5 266.5t377.5 96.5q112 0 217 -31l37 78h235zM340 717q0 -128 52 -236t143 -180l436 922
q-55 14 -121 14q-219 0 -364.5 -148t-145.5 -372zM850 197q217 0 362.5 148t145.5 372q0 129 -52 237t-143 179l-438 -922q57 -14 125 -14z" />
    <glyph glyph-name="Ugrave" unicode="&#xd9;" horiz-adv-x="1484" 
d="M643 2017l336 -336l-107 -104l-366 301zM1092 1434h235v-863q0 -146 -44 -261t-122 -187.5t-183 -110t-230 -37.5t-230 37.5t-183.5 110t-122.5 187.5t-44 261v863h235v-848q0 -200 93 -294.5t252 -94.5t251.5 94.5t92.5 294.5v848z" />
    <glyph glyph-name="Uacute" unicode="&#xda;" horiz-adv-x="1484" 
d="M840 2017l139 -139l-369 -301l-104 104zM1092 1434h235v-863q0 -146 -44 -261t-122 -187.5t-183 -110t-230 -37.5t-230 37.5t-183.5 110t-122.5 187.5t-44 261v863h235v-848q0 -200 93 -294.5t252 -94.5t251.5 94.5t92.5 294.5v848z" />
    <glyph glyph-name="Ucircumflex" unicode="&#xdb;" horiz-adv-x="1484" 
d="M1079 1702l-127 -125l-209 221l-208 -221l-125 125l333 336zM1092 1434h235v-863q0 -146 -44 -261t-122 -187.5t-183 -110t-230 -37.5t-230 37.5t-183.5 110t-122.5 187.5t-44 261v863h235v-848q0 -200 93 -294.5t252 -94.5t251.5 94.5t92.5 294.5v848z" />
    <glyph glyph-name="Udieresis" unicode="&#xdc;" horiz-adv-x="1484" 
d="M510 1923q60 0 98.5 -38t38.5 -95t-38.5 -95t-98.5 -38q-59 0 -98 38t-39 95t39 95t98 38zM975 1923q60 0 99.5 -38t39.5 -95t-39.5 -95t-99.5 -38t-99.5 38t-39.5 95t39.5 95t99.5 38zM1092 1434h235v-863q0 -146 -44 -261t-122 -187.5t-183 -110t-230 -37.5t-230 37.5
t-183.5 110t-122.5 187.5t-44 261v863h235v-848q0 -200 93 -294.5t252 -94.5t251.5 94.5t92.5 294.5v848z" />
    <glyph glyph-name="Yacute" unicode="&#xdd;" horiz-adv-x="1394" 
d="M934 1878l-369 -301l-104 104l334 336zM1331 1434l-516 -940l-2 -494h-231v489l-519 945h263l372 -684l373 684h260z" />
    <glyph glyph-name="Thorn" unicode="&#xde;" horiz-adv-x="1363" 
d="M756 1245q233 0 368.5 -128.5t135.5 -342.5q0 -215 -136 -346t-368 -131h-357v-297h-231v1434h231v-189h357zM748 518q136 0 206 70t70 184t-70 183t-206 69h-349v-506h349z" />
    <glyph glyph-name="germandbls" unicode="&#xdf;" horiz-adv-x="1294" 
d="M944 825q128 -38 199 -146t71 -257q0 -140 -62.5 -243t-166 -153.5t-233.5 -50.5q-66 0 -150 13t-139 35l47 213q103 -39 203 -39q124 0 196 63t72 178q0 111 -71 176.5t-205 65.5h-173v221h142q107 0 172 63t65 169t-68.5 176.5t-199.5 70.5q-133 0 -204.5 -77.5
t-71.5 -217.5v-1085h-232v1090q0 237 137 374.5t371 137.5q116 0 212 -35.5t158.5 -96.5t97 -141.5t34.5 -171.5q0 -115 -53.5 -201t-147.5 -131z" />
    <glyph glyph-name="agrave" unicode="&#xe0;" horiz-adv-x="1378" 
d="M938 1382l-107 -104l-366 301l137 139zM1012 1126h231v-1126h-231v188q-63 -100 -164 -156.5t-230 -56.5q-226 0 -373 165.5t-147 422.5q0 256 147.5 422t370.5 166q129 0 230.5 -58t165.5 -159v192zM668 197q149 0 247.5 102.5t98.5 263.5q0 160 -98.5 263.5
t-247.5 103.5q-148 0 -242 -103t-94 -264q0 -162 94.5 -264t241.5 -102z" />
    <glyph glyph-name="aacute" unicode="&#xe1;" horiz-adv-x="1378" 
d="M938 1581l-369 -301l-104 106l334 334zM1012 1126h231v-1126h-231v188q-63 -100 -164 -156.5t-230 -56.5q-226 0 -373 165.5t-147 422.5q0 256 147.5 422t370.5 166q129 0 230.5 -58t165.5 -159v192zM668 197q149 0 247.5 102.5t98.5 263.5q0 160 -98.5 263.5
t-247.5 103.5q-148 0 -242 -103t-94 -264q0 -162 94.5 -264t241.5 -102z" />
    <glyph glyph-name="acircumflex" unicode="&#xe2;" horiz-adv-x="1378" 
d="M700 1503l-208 -223l-125 125l333 336l336 -336l-127 -125zM1012 1126h231v-1126h-231v188q-63 -100 -164 -156.5t-230 -56.5q-226 0 -373 165.5t-147 422.5q0 256 147.5 422t370.5 166q129 0 230.5 -58t165.5 -159v192zM668 197q149 0 247.5 102.5t98.5 263.5
q0 160 -98.5 263.5t-247.5 103.5q-148 0 -242 -103t-94 -264q0 -162 94.5 -264t241.5 -102z" />
    <glyph glyph-name="atilde" unicode="&#xe3;" horiz-adv-x="1378" 
d="M561 1460q-76 0 -76 -129h-143q0 309 211 309q48 0 81 -16.5t85 -60.5q32 -27 44.5 -36t35.5 -20.5t43 -11.5q78 0 78 131h143q0 -311 -213 -311q-46 0 -80 17t-86 61q-28 24 -42.5 35t-37 21.5t-43.5 10.5zM1012 1126h231v-1126h-231v188q-63 -100 -164 -156.5
t-230 -56.5q-226 0 -373 165.5t-147 422.5q0 256 147.5 422t370.5 166q129 0 230.5 -58t165.5 -159v192zM668 197q149 0 247.5 102.5t98.5 263.5q0 160 -98.5 263.5t-247.5 103.5q-148 0 -242 -103t-94 -264q0 -162 94.5 -264t241.5 -102z" />
    <glyph glyph-name="adieresis" unicode="&#xe4;" horiz-adv-x="1378" 
d="M469 1360q-59 0 -98 37.5t-39 95.5q0 57 39 94t98 37q60 0 98.5 -37t38.5 -94q0 -58 -38.5 -95.5t-98.5 -37.5zM934 1360q-60 0 -99.5 37.5t-39.5 95.5q0 57 39.5 94t99.5 37t99.5 -37t39.5 -94q0 -58 -39.5 -95.5t-99.5 -37.5zM1012 1126h231v-1126h-231v188
q-63 -100 -164 -156.5t-230 -56.5q-226 0 -373 165.5t-147 422.5q0 256 147.5 422t370.5 166q129 0 230.5 -58t165.5 -159v192zM668 197q149 0 247.5 102.5t98.5 263.5q0 160 -98.5 263.5t-247.5 103.5q-148 0 -242 -103t-94 -264q0 -162 94.5 -264t241.5 -102z" />
    <glyph glyph-name="aring" unicode="&#xe5;" horiz-adv-x="1378" 
d="M700 1280q-106 0 -181 76t-75 182q0 107 74.5 182.5t181.5 75.5q108 0 183.5 -75.5t74.5 -182.5q1 -105 -75.5 -181.5t-182.5 -76.5zM700 1661q-50 0 -84.5 -35.5t-33.5 -87.5q-1 -53 33.5 -88t84.5 -35q52 0 86.5 34.5t34.5 88.5q0 52 -35 87.5t-86 35.5zM1012 1126h231
v-1126h-231v188q-63 -100 -164 -156.5t-230 -56.5q-226 0 -373 165.5t-147 422.5q0 256 147.5 422t370.5 166q129 0 230.5 -58t165.5 -159v192zM668 197q149 0 247.5 102.5t98.5 263.5q0 160 -98.5 263.5t-247.5 103.5q-148 0 -242 -103t-94 -264q0 -162 94.5 -264
t241.5 -102z" />
    <glyph glyph-name="ae" unicode="&#xe6;" horiz-adv-x="2254" 
d="M1595 1151q178 0 312.5 -85t201.5 -233.5t56 -332.5h-916q13 -152 110.5 -237t242.5 -85q103 0 182.5 43t118.5 125h239q-64 -183 -209.5 -277t-333.5 -94q-234 0 -393 140v-117h-194v186q-64 -98 -165 -154.5t-229 -56.5q-225 0 -372.5 166.5t-147.5 423.5t148 422.5
t372 165.5q128 0 229.5 -58.5t166.5 -160.5v194h194l-2 -114q162 139 389 139zM1595 950q-128 0 -215.5 -72t-117.5 -190h655q-27 118 -112 190t-210 72zM668 197q150 0 248 102t98 264q0 160 -98.5 263.5t-247.5 103.5q-147 0 -241.5 -103t-94.5 -264q0 -162 94.5 -264
t241.5 -102z" />
    <glyph glyph-name="ccedilla" unicode="&#xe7;" horiz-adv-x="1314" 
d="M682 190q112 0 197.5 59.5t117.5 162.5h240q-36 -189 -175 -304t-327 -131l-71 -139q82 -15 135 -60.5t53 -123.5q0 -94 -80 -142.5t-217 -48.5q-49 0 -121 9v118q64 -8 94 -8q67 0 105.5 21t38.5 63q0 87 -187 103l95 215q-213 35 -347.5 195.5t-134.5 383.5
q0 166 76 300.5t210 211t300 76.5q134 0 249.5 -51t197 -150.5t106.5 -232.5h-240q-32 104 -117 161.5t-196 57.5q-156 0 -254 -104.5t-98 -268.5t98.5 -268.5t251.5 -104.5z" />
    <glyph glyph-name="egrave" unicode="&#xe8;" horiz-adv-x="1339" 
d="M905 1382l-106 -104l-367 301l137 139zM680 1151q133 0 244.5 -50t185 -136.5t111 -206.5t28.5 -258h-915q13 -152 110 -237t242 -85q103 0 182.5 43t118.5 125h240q-64 -183 -209.5 -277t-333.5 -94q-256 0 -421 165.5t-165 420.5q0 256 164 423t418 167zM680 950
q-128 0 -216 -72t-118 -190h655q-27 119 -111.5 190.5t-209.5 71.5z" />
    <glyph glyph-name="eacute" unicode="&#xe9;" horiz-adv-x="1339" 
d="M905 1581l-368 -301l-105 106l334 334zM680 1151q133 0 244.5 -50t185 -136.5t111 -206.5t28.5 -258h-915q13 -152 110 -237t242 -85q103 0 182.5 43t118.5 125h240q-64 -183 -209.5 -277t-333.5 -94q-256 0 -421 165.5t-165 420.5q0 256 164 423t418 167zM680 950
q-128 0 -216 -72t-118 -190h655q-27 119 -111.5 190.5t-209.5 71.5z" />
    <glyph glyph-name="ecircumflex" unicode="&#xea;" horiz-adv-x="1339" 
d="M668 1503l-209 -223l-125 125l334 336l336 -336l-127 -125zM680 1151q133 0 244.5 -50t185 -136.5t111 -206.5t28.5 -258h-915q13 -152 110 -237t242 -85q103 0 182.5 43t118.5 125h240q-64 -183 -209.5 -277t-333.5 -94q-256 0 -421 165.5t-165 420.5q0 256 164 423
t418 167zM680 950q-128 0 -216 -72t-118 -190h655q-27 119 -111.5 190.5t-209.5 71.5z" />
    <glyph glyph-name="edieresis" unicode="&#xeb;" horiz-adv-x="1339" 
d="M434 1360q-59 0 -98 37.5t-39 95.5q0 57 39 94t98 37q60 0 98.5 -37t38.5 -94q0 -58 -38.5 -95.5t-98.5 -37.5zM899 1360q-60 0 -99.5 37.5t-39.5 95.5q0 57 39.5 94t99.5 37t99.5 -37t39.5 -94q0 -58 -39.5 -95.5t-99.5 -37.5zM680 1151q133 0 244.5 -50t185 -136.5
t111 -206.5t28.5 -258h-915q13 -152 110 -237t242 -85q103 0 182.5 43t118.5 125h240q-64 -183 -209.5 -277t-333.5 -94q-256 0 -421 165.5t-165 420.5q0 256 164 423t418 167zM680 950q-128 0 -216 -72t-118 -190h655q-27 119 -111.5 190.5t-209.5 71.5z" />
    <glyph glyph-name="igrave" unicode="&#xec;" horiz-adv-x="499" 
d="M150 1718l335 -336l-106 -104l-367 301zM135 0v1126h232v-1126h-232z" />
    <glyph glyph-name="iacute" unicode="&#xed;" horiz-adv-x="499" 
d="M346 1720l139 -139l-368 -301l-105 106zM135 0v1126h232v-1126h-232z" />
    <glyph glyph-name="icircumflex" unicode="&#xee;" horiz-adv-x="499" 
d="M586 1405l-127 -125l-209 223l-209 -223l-125 125l334 336zM135 0v1126h232v-1126h-232z" />
    <glyph glyph-name="idieresis" unicode="&#xef;" horiz-adv-x="499" 
d="M16 1624q60 0 99 -37t39 -94q0 -58 -39 -95.5t-99 -37.5q-59 0 -98 37.5t-39 95.5q0 57 39 94t98 37zM481 1624q60 0 100 -37t40 -94q0 -58 -40 -95.5t-100 -37.5t-99.5 37.5t-39.5 95.5q0 57 39.5 94t99.5 37zM135 0v1126h232v-1126h-232z" />
    <glyph glyph-name="eth" unicode="&#xf0;" horiz-adv-x="1353" 
d="M1257 1413l-151 -131q151 -222 151 -618q-1 -138 -32.5 -252.5t-85.5 -194.5t-128 -135t-160 -81t-181 -26q-161 0 -290.5 71.5t-205.5 205.5t-76 305q0 242 144.5 392.5t363.5 150.5q130 0 239.5 -58t170.5 -168q-18 148 -71.5 247.5t-147.5 156.5t-215.5 80.5
t-292.5 23.5v220q432 0 655 -158l162 139zM678 176q150 0 247 101.5t97 267.5q0 158 -103.5 257t-250.5 99q-148 0 -243 -98t-95 -258q0 -166 99.5 -267.5t248.5 -101.5z" />
    <glyph glyph-name="ntilde" unicode="&#xf1;" horiz-adv-x="1273" 
d="M496 1460q-76 0 -76 -129h-144q0 309 211 309q48 0 81 -16.5t85 -60.5q32 -27 44.5 -36t35.5 -20.5t43 -11.5q78 0 78 131h143q0 -311 -213 -311q-46 0 -80 17t-86 61q-28 25 -42 35.5t-36.5 21t-43.5 10.5zM743 1151q190 0 298 -117t108 -323v-711h-231v664
q0 266 -246 266q-148 0 -226.5 -91t-78.5 -255v-584h-232v1126h232v-186q129 211 376 211z" />
    <glyph glyph-name="ograve" unicode="&#xf2;" horiz-adv-x="1361" 
d="M582 1718l336 -336l-107 -104l-367 301zM682 1151q161 0 294.5 -75.5t211.5 -210.5t78 -302q0 -166 -77 -301t-211 -211t-296 -76q-161 0 -295 76.5t-211.5 211.5t-77.5 300q0 166 78.5 301.5t212 211t293.5 75.5zM682 930q-148 0 -249 -103t-101 -264t100 -263.5
t250 -102.5t250 102.5t100 263.5t-101 264t-249 103z" />
    <glyph glyph-name="oacute" unicode="&#xf3;" horiz-adv-x="1361" 
d="M778 1720l140 -139l-369 -301l-105 106zM682 1151q161 0 294.5 -75.5t211.5 -210.5t78 -302q0 -166 -77 -301t-211 -211t-296 -76q-161 0 -295 76.5t-211.5 211.5t-77.5 300q0 166 78.5 301.5t212 211t293.5 75.5zM682 930q-148 0 -249 -103t-101 -264t100 -263.5
t250 -102.5t250 102.5t100 263.5t-101 264t-249 103z" />
    <glyph glyph-name="ocircumflex" unicode="&#xf4;" horiz-adv-x="1361" 
d="M1016 1405l-127 -125l-209 223l-209 -223l-125 125l334 336zM682 1151q161 0 294.5 -75.5t211.5 -210.5t78 -302q0 -166 -77 -301t-211 -211t-296 -76q-161 0 -295 76.5t-211.5 211.5t-77.5 300q0 166 78.5 301.5t212 211t293.5 75.5zM682 930q-148 0 -249 -103
t-101 -264t100 -263.5t250 -102.5t250 102.5t100 263.5t-101 264t-249 103z" />
    <glyph glyph-name="otilde" unicode="&#xf5;" horiz-adv-x="1361" 
d="M897 1626h143q0 -311 -213 -311q-46 0 -79.5 17t-85.5 61q-28 24 -42.5 35t-37 21.5t-43.5 10.5q-76 0 -76 -129h-144q0 309 211 309q48 0 81 -16.5t85 -60.5q32 -27 44.5 -36t35.5 -20.5t43 -11.5q78 0 78 131zM682 1151q161 0 294.5 -75.5t211.5 -210.5t78 -302
q0 -166 -77 -301t-211 -211t-296 -76q-161 0 -295 76.5t-211.5 211.5t-77.5 300q0 166 78.5 301.5t212 211t293.5 75.5zM682 930q-148 0 -249 -103t-101 -264t100 -263.5t250 -102.5t250 102.5t100 263.5t-101 264t-249 103z" />
    <glyph glyph-name="odieresis" unicode="&#xf6;" horiz-adv-x="1361" 
d="M446 1624q60 0 99 -37t39 -94q0 -58 -39 -95.5t-99 -37.5q-59 0 -98 37.5t-39 95.5q0 57 39 94t98 37zM911 1624q60 0 100 -37t40 -94q0 -58 -40 -95.5t-100 -37.5t-99.5 37.5t-39.5 95.5q0 57 39.5 94t99.5 37zM682 1151q161 0 294.5 -75.5t211.5 -210.5t78 -302
q0 -166 -77 -301t-211 -211t-296 -76q-161 0 -295 76.5t-211.5 211.5t-77.5 300q0 166 78.5 301.5t212 211t293.5 75.5zM682 930q-148 0 -249 -103t-101 -264t100 -263.5t250 -102.5t250 102.5t100 263.5t-101 264t-249 103z" />
    <glyph glyph-name="divide" unicode="&#xf7;" horiz-adv-x="1359" 
d="M680 1139q65 0 108 -40t43 -102t-43 -101.5t-108 -39.5t-108.5 39.5t-43.5 101.5t43.5 102t108.5 40zM1194 723v-221h-1026v221h1026zM680 369q65 0 108 -40t43 -102q0 -61 -43 -100t-108 -39t-108.5 39t-43.5 100q0 62 43.5 102t108.5 40z" />
    <glyph glyph-name="oslash" unicode="&#xf8;" horiz-adv-x="1361" 
d="M1079 997q88 -80 137.5 -191.5t49.5 -242.5q0 -166 -77 -301t-211 -211t-296 -76q-151 0 -285 72l-32 -47h-175l93 129q-88 79 -136.5 191.5t-48.5 242.5q0 166 78.5 301.5t212 211t293.5 75.5q144 0 281 -70l32 45h176zM332 563q0 -146 84 -246l415 580q-74 33 -149 33
q-148 0 -249 -103t-101 -264zM682 197q150 0 250 102.5t100 263.5q0 147 -88 248l-416 -582q75 -32 154 -32z" />
    <glyph glyph-name="ugrave" unicode="&#xf9;" horiz-adv-x="1261" 
d="M862 1382l-106 -104l-367 301l137 139zM899 1126h231v-1126h-231v186q-131 -211 -375 -211q-187 0 -293 117.5t-106 323.5v710h231v-663q0 -133 59 -199.5t183 -66.5q144 0 222.5 91t78.5 255v583z" />
    <glyph glyph-name="uacute" unicode="&#xfa;" horiz-adv-x="1261" 
d="M862 1581l-368 -301l-105 106l334 334zM899 1126h231v-1126h-231v186q-131 -211 -375 -211q-187 0 -293 117.5t-106 323.5v710h231v-663q0 -133 59 -199.5t183 -66.5q144 0 222.5 91t78.5 255v583z" />
    <glyph glyph-name="ucircumflex" unicode="&#xfb;" horiz-adv-x="1261" 
d="M627 1503l-209 -223l-125 125l334 336l336 -336l-127 -125zM899 1126h231v-1126h-231v186q-131 -211 -375 -211q-187 0 -293 117.5t-106 323.5v710h231v-663q0 -133 59 -199.5t183 -66.5q144 0 222.5 91t78.5 255v583z" />
    <glyph glyph-name="udieresis" unicode="&#xfc;" horiz-adv-x="1261" 
d="M393 1360q-59 0 -98 37.5t-39 95.5q0 57 39 94t98 37q60 0 98.5 -37t38.5 -94q0 -58 -38.5 -95.5t-98.5 -37.5zM858 1360q-60 0 -99.5 37.5t-39.5 95.5q0 57 39.5 94t99.5 37t99.5 -37t39.5 -94q0 -58 -39.5 -95.5t-99.5 -37.5zM899 1126h231v-1126h-231v186
q-131 -211 -375 -211q-187 0 -293 117.5t-106 323.5v710h231v-663q0 -133 59 -199.5t183 -66.5q144 0 222.5 91t78.5 255v583z" />
    <glyph glyph-name="yacute" unicode="&#xfd;" horiz-adv-x="1239" 
d="M856 1581l-369 -301l-104 106l334 334zM942 1126h248l-746 -1638h-247l297 655l-445 983h248l319 -733z" />
    <glyph glyph-name="thorn" unicode="&#xfe;" horiz-adv-x="1388" 
d="M772 1151q223 0 370.5 -166t147.5 -422q0 -257 -147 -422.5t-373 -165.5q-128 0 -228.5 57t-164.5 156v-700h-232v2089h232v-643q64 101 165 159t230 58zM721 197q147 0 241.5 102t94.5 264q0 161 -94 264t-242 103q-149 0 -247.5 -103.5t-98.5 -263.5
q0 -161 98.5 -263.5t247.5 -102.5z" />
    <glyph glyph-name="ydieresis" unicode="&#xff;" horiz-adv-x="1239" 
d="M385 1360q-59 0 -98 37.5t-39 95.5q0 57 39 94t98 37q60 0 98.5 -37t38.5 -94q0 -58 -38.5 -95.5t-98.5 -37.5zM850 1360q-60 0 -99.5 37.5t-39.5 95.5q0 57 39.5 94t99.5 37t99.5 -37t39.5 -94q0 -58 -39.5 -95.5t-99.5 -37.5zM942 1126h248l-746 -1638h-247l297 655
l-445 983h248l319 -733z" />
    <glyph glyph-name="Amacron" unicode="&#x100;" horiz-adv-x="1531" 
d="M1022 1874v-172h-512v172h512zM1223 0l-146 385h-622l-146 -385h-246l555 1434h295l555 -1434h-245zM539 604h454l-227 600z" />
    <glyph glyph-name="amacron" unicode="&#x101;" horiz-adv-x="1378" 
d="M958 1577v-170h-512v170h512zM1012 1126h231v-1126h-231v188q-63 -100 -164 -156.5t-230 -56.5q-226 0 -373 165.5t-147 422.5q0 256 147.5 422t370.5 166q129 0 230.5 -58t165.5 -159v192zM668 197q149 0 247.5 102.5t98.5 263.5q0 160 -98.5 263.5t-247.5 103.5
q-148 0 -242 -103t-94 -264q0 -162 94.5 -264t241.5 -102z" />
    <glyph glyph-name="Abreve" unicode="&#x102;" horiz-adv-x="1531" 
d="M766 1591q-140 0 -238 87.5t-98 232.5v45h184v-39q0 -67 41.5 -107.5t110.5 -40.5q68 0 108.5 40.5t40.5 107.5v39h185v-45q0 -144 -97.5 -232t-236.5 -88zM1223 0l-146 385h-622l-146 -385h-246l555 1434h295l555 -1434h-245zM539 604h454l-227 600z" />
    <glyph glyph-name="abreve" unicode="&#x103;" horiz-adv-x="1378" 
d="M702 1296q-140 0 -237.5 87t-97.5 231v47h184v-39q0 -69 41 -109t110 -40q68 0 109 40t41 109v39h184v-47q0 -144 -97.5 -231t-236.5 -87zM1012 1126h231v-1126h-231v188q-63 -100 -164 -156.5t-230 -56.5q-226 0 -373 165.5t-147 422.5q0 256 147.5 422t370.5 166
q129 0 230.5 -58t165.5 -159v192zM668 197q149 0 247.5 102.5t98.5 263.5q0 160 -98.5 263.5t-247.5 103.5q-148 0 -242 -103t-94 -264q0 -162 94.5 -264t241.5 -102z" />
    <glyph glyph-name="Aogonek" unicode="&#x104;" horiz-adv-x="1531" 
d="M1468 0q-123 -135 -165.5 -195.5t-42.5 -115.5q0 -95 120 -95q44 0 88 11v-133q-72 -9 -125 -9q-122 0 -193 48.5t-71 148.5q0 36 13 72.5t29 64t53 67.5t62 63.5t79 72.5h-92l-146 385h-622l-146 -385h-246l555 1434h295zM539 604h454l-227 600z" />
    <glyph glyph-name="aogonek" unicode="&#x105;" horiz-adv-x="1378" 
d="M1012 1126h231v-1126h-2q-124 -137 -166.5 -196.5t-42.5 -114.5q0 -95 121 -95q44 0 88 11v-133q-72 -9 -125 -9q-122 0 -193 48.5t-71 148.5q0 84 53.5 155.5t177.5 184.5h-71v188q-63 -100 -164 -156.5t-230 -56.5q-226 0 -373 165.5t-147 422.5q0 256 147.5 422
t370.5 166q129 0 230.5 -58t165.5 -159v192zM668 197q149 0 247.5 102.5t98.5 263.5q0 160 -98.5 263.5t-247.5 103.5q-148 0 -242 -103t-94 -264q0 -162 94.5 -264t241.5 -102z" />
    <glyph glyph-name="Cacute" unicode="&#x106;" horiz-adv-x="1622" 
d="M907 2017l140 -139l-369 -301l-105 104zM852 -25q-157 0 -294.5 56.5t-235 155t-153.5 236t-56 294.5q0 209 95 378.5t264.5 266t379.5 96.5q247 0 432.5 -136t253.5 -361h-248q-58 128 -174 202t-266 74q-219 0 -361.5 -147.5t-142.5 -372.5t142.5 -372.5t361.5 -147.5
q150 0 266 74t174 202h248q-68 -225 -253.5 -361.5t-432.5 -136.5z" />
    <glyph glyph-name="cacute" unicode="&#x107;" horiz-adv-x="1314" 
d="M760 1720l139 -139l-369 -301l-104 106zM682 -25q-250 0 -417 168t-167 420q0 166 76 300.5t210 211t300 76.5q134 0 249.5 -51t197 -150.5t106.5 -232.5h-240q-32 104 -117 161.5t-196 57.5q-156 0 -254 -104.5t-98 -268.5t98.5 -268.5t251.5 -104.5q112 0 197.5 59.5
t117.5 162.5h240q-39 -203 -194.5 -320t-360.5 -117z" />
    <glyph glyph-name="Ccaron" unicode="&#x10c;" horiz-adv-x="1622" 
d="M1147 1917l-336 -336l-334 336l125 125l209 -221l209 221zM852 -25q-157 0 -294.5 56.5t-235 155t-153.5 236t-56 294.5q0 209 95 378.5t264.5 266t379.5 96.5q247 0 432.5 -136t253.5 -361h-248q-58 128 -174 202t-266 74q-219 0 -361.5 -147.5t-142.5 -372.5
t142.5 -372.5t361.5 -147.5q150 0 266 74t174 202h248q-68 -225 -253.5 -361.5t-432.5 -136.5z" />
    <glyph glyph-name="ccaron" unicode="&#x10d;" horiz-adv-x="1314" 
d="M997 1616l-335 -336l-334 336l125 125l209 -221l208 221zM682 -25q-250 0 -417 168t-167 420q0 166 76 300.5t210 211t300 76.5q134 0 249.5 -51t197 -150.5t106.5 -232.5h-240q-32 104 -117 161.5t-196 57.5q-156 0 -254 -104.5t-98 -268.5t98.5 -268.5t251.5 -104.5
q112 0 197.5 59.5t117.5 162.5h240q-39 -203 -194.5 -320t-360.5 -117z" />
    <glyph glyph-name="Dcaron" unicode="&#x10e;" horiz-adv-x="1509" 
d="M1006 1917l-336 -336l-334 336l125 125l209 -221l209 221zM670 1434q207 0 374.5 -92t263 -256t95.5 -369q0 -153 -56.5 -286.5t-154 -228t-233 -148.5t-289.5 -54h-502v1434h502zM672 221q218 0 358.5 138.5t140.5 357.5q0 217 -140.5 356t-358.5 139h-273v-991h273z
" />
    <glyph glyph-name="dcaron" unicode="&#x10f;" horiz-adv-x="1390" 
d="M1638 1501q0 -31 -21.5 -86.5t-88.5 -185.5h-131l94 178q-40 6 -64 31t-24 63q0 49 35 79t82 30q46 0 81.5 -29t36.5 -80zM1026 934v643h231v-1577h-231v188q-66 -99 -166.5 -156t-228.5 -57q-226 0 -373 165.5t-147 422.5q0 256 147.5 422t370.5 166q129 0 230 -58
t167 -159zM680 197q149 0 247.5 102.5t98.5 263.5q0 160 -98.5 263.5t-247.5 103.5q-148 0 -242 -103t-94 -264q0 -162 94.5 -264t241.5 -102z" />
    <glyph glyph-name="Dcroat" unicode="&#x110;" horiz-adv-x="1509" 
d="M670 1434q207 0 374.5 -92t263 -256t95.5 -369q0 -153 -56.5 -286.5t-154 -228t-233 -148.5t-289.5 -54h-502v606h-131v221h131v607h502zM672 221q218 0 358.5 138.5t140.5 357.5q0 217 -140.5 356t-358.5 139h-273v-385h250v-221h-250v-385h273z" />
    <glyph glyph-name="dcroat" unicode="&#x111;" horiz-adv-x="1390" 
d="M1358 1470v-221h-101v-1249h-231v188q-66 -99 -166.5 -156t-228.5 -57q-226 0 -373 165.5t-147 422.5q0 256 147.5 422t370.5 166q129 0 230 -58t167 -159v315h-281v221h281v107h231v-107h101zM680 197q149 0 247.5 102.5t98.5 263.5q0 160 -98.5 263.5t-247.5 103.5
q-148 0 -242 -103t-94 -264q0 -162 94.5 -264t241.5 -102z" />
    <glyph glyph-name="Emacron" unicode="&#x112;" horiz-adv-x="1187" 
d="M850 1874v-172h-512v172h512zM1104 1212h-705v-370h654v-221h-654v-400h705v-221h-936v1434h936v-222z" />
    <glyph glyph-name="emacron" unicode="&#x113;" horiz-adv-x="1339" 
d="M924 1577v-170h-512v170h512zM680 1151q133 0 244.5 -50t185 -136.5t111 -206.5t28.5 -258h-915q13 -152 110 -237t242 -85q103 0 182.5 43t118.5 125h240q-64 -183 -209.5 -277t-333.5 -94q-256 0 -421 165.5t-165 420.5q0 256 164 423t418 167zM680 950
q-128 0 -216 -72t-118 -190h655q-27 119 -111.5 190.5t-209.5 71.5z" />
    <glyph glyph-name="Edotaccent" unicode="&#x116;" horiz-adv-x="1187" 
d="M594 1657q-59 0 -98 38t-39 95t39 95t98 38q60 0 98.5 -38t38.5 -95t-38.5 -95t-98.5 -38zM1104 1212h-705v-370h654v-221h-654v-400h705v-221h-936v1434h936v-222z" />
    <glyph glyph-name="edotaccent" unicode="&#x117;" horiz-adv-x="1339" 
d="M668 1348q-64 0 -107 41t-43 104q0 61 43 101t107 40q66 0 108.5 -39.5t42.5 -101.5q0 -63 -42.5 -104t-108.5 -41zM680 1151q133 0 244.5 -50t185 -136.5t111 -206.5t28.5 -258h-915q13 -152 110 -237t242 -85q103 0 182.5 43t118.5 125h240q-64 -183 -209.5 -277
t-333.5 -94q-256 0 -421 165.5t-165 420.5q0 256 164 423t418 167zM680 950q-128 0 -216 -72t-118 -190h655q-27 119 -111.5 190.5t-209.5 71.5z" />
    <glyph glyph-name="Eogonek" unicode="&#x118;" horiz-adv-x="1187" 
d="M1104 1212h-705v-370h654v-221h-654v-400h705v-221q-124 -137 -166.5 -196.5t-42.5 -114.5q0 -95 121 -95q44 0 88 11v-133q-72 -9 -125 -9q-122 0 -193 48.5t-71 148.5q0 36 12.5 72.5t29 64t53 67t62 64t78.5 72.5h-782v1434h936v-222z" />
    <glyph glyph-name="eogonek" unicode="&#x119;" horiz-adv-x="1339" 
d="M680 1151q133 0 244.5 -50t185 -136.5t111 -206.5t28.5 -258h-915q13 -152 110 -237t242 -85q103 0 182.5 43t118.5 125h240q-48 -137 -143 -224t-222 -122h6q-124 -137 -166.5 -196.5t-42.5 -114.5q0 -95 121 -95q44 0 88 11v-133q-72 -9 -125 -9q-122 0 -193 48.5
t-71 148.5q0 42 13 80.5t45 80t61.5 72.5t85.5 84v-2q-256 0 -421 165.5t-165 420.5q0 256 164 423t418 167zM680 950q-128 0 -216 -72t-118 -190h655q-27 119 -111.5 190.5t-209.5 71.5z" />
    <glyph glyph-name="Ecaron" unicode="&#x11a;" horiz-adv-x="1187" 
d="M930 1917l-336 -336l-334 336l125 125l209 -221l209 221zM1104 1212h-705v-370h654v-221h-654v-400h705v-221h-936v1434h936v-222z" />
    <glyph glyph-name="ecaron" unicode="&#x11b;" horiz-adv-x="1339" 
d="M1004 1616l-336 -336l-334 336l125 125l209 -221l209 221zM680 1151q133 0 244.5 -50t185 -136.5t111 -206.5t28.5 -258h-915q13 -152 110 -237t242 -85q103 0 182.5 43t118.5 125h240q-64 -183 -209.5 -277t-333.5 -94q-256 0 -421 165.5t-165 420.5q0 256 164 423
t418 167zM680 950q-128 0 -216 -72t-118 -190h655q-27 119 -111.5 190.5t-209.5 71.5z" />
    <glyph glyph-name="Gcommaaccent" unicode="&#x122;" horiz-adv-x="1701" 
d="M770 762h774v-762h-201v287q-52 -141 -190.5 -226.5t-327.5 -85.5q-150 0 -283 56t-229 153t-151.5 235t-55.5 296q0 211 96 381t265.5 266t378.5 96q248 0 433 -133t253 -354h-248q-59 125 -174.5 195.5t-265.5 70.5q-220 0 -362 -148t-142 -378q0 -109 35.5 -204
t99.5 -165.5t159 -111t208 -40.5q182 0 311 101t156 274h-539v197zM858 -131q46 0 81 -29t36 -80q2 -29 -19.5 -83t-89.5 -189h-133l94 178q-40 6 -64 31t-24 63q0 49 35.5 79t83.5 30z" />
    <glyph glyph-name="gcommaaccent" unicode="&#x123;" horiz-adv-x="1378" 
d="M684 1280q-46 0 -81.5 29.5t-35.5 79.5q-2 29 19.5 83.5t89.5 190.5h131l-94 -178q41 -6 65.5 -31.5t24.5 -64.5q0 -49 -35.5 -79t-83.5 -30zM1012 1126h231v-1112q0 -252 -147.5 -401.5t-397.5 -149.5q-137 0 -253.5 45.5t-200 142t-107.5 232.5h240q28 -105 112.5 -159
t202.5 -54q156 0 238 86t82 250v193q-66 -98 -167 -154.5t-227 -56.5q-226 0 -373 164t-147 417q0 166 67.5 299.5t186.5 208t266 74.5q127 0 228.5 -58.5t165.5 -158.5v192zM668 209q149 0 247.5 101.5t98.5 258.5q0 156 -99 258.5t-247 102.5q-147 0 -241.5 -102
t-94.5 -259q0 -158 94.5 -259t241.5 -101z" />
    <glyph glyph-name="Imacron" unicode="&#x12a;" horiz-adv-x="567" 
d="M539 1874v-172h-512v172h512zM168 0v1434h231v-1434h-231z" />
    <glyph glyph-name="imacron" unicode="&#x12b;" horiz-adv-x="499" 
d="M506 1577v-170h-512v170h512zM135 0v1126h232v-1126h-232z" />
    <glyph glyph-name="Iogonek" unicode="&#x12e;" horiz-adv-x="567" 
d="M168 1434h231v-1434q-124 -137 -166.5 -196.5t-42.5 -114.5q0 -95 121 -95q44 0 88 11v-133q-72 -9 -125 -9q-122 0 -193 48.5t-71 148.5q0 36 13 72.5t29 64t53 67.5t62 63.5t79 72.5h-78v1434z" />
    <glyph glyph-name="iogonek" unicode="&#x12f;" horiz-adv-x="499" 
d="M250 1348q-64 0 -107 41t-43 104q0 61 43 101t107 40q66 0 108.5 -39.5t42.5 -101.5q0 -63 -42.5 -104t-108.5 -41zM135 0v1126h232v-1126h-2q-124 -137 -166.5 -196.5t-42.5 -114.5q0 -95 120 -95q45 0 89 11v-133q-72 -9 -125 -9q-122 0 -193.5 48.5t-71.5 148.5
q0 45 15 85.5t51 85t69.5 78.5t96.5 91h-72z" />
    <glyph glyph-name="dotlessi" unicode="&#x131;" horiz-adv-x="499" 
d="M135 0v1126h232v-1126h-232z" />
    <glyph glyph-name="Kcommaaccent" unicode="&#x136;" horiz-adv-x="1361" 
d="M651 735l647 -735h-292l-607 684v-684h-231v1434h231v-656l580 656h291zM690 -131q46 0 81 -29t36 -80q2 -29 -19.5 -83t-89.5 -189h-133l94 178q-40 6 -64 31t-24 63q0 49 35.5 79t83.5 30z" />
    <glyph glyph-name="kcommaaccent" unicode="&#x137;" horiz-adv-x="1255" 
d="M610 592l596 -592h-299l-530 520v-520h-232v1577h232v-938l487 487h297zM635 -131q46 0 81 -29t36 -80q2 -29 -19.5 -83t-89.5 -189h-133l94 178q-40 6 -64 31t-24 63q0 49 35.5 79t83.5 30z" />
    <glyph glyph-name="Lacute" unicode="&#x139;" horiz-adv-x="1114" 
d="M795 1878l-369 -301l-104 104l333 336zM399 221h654v-221h-885v1434h231v-1213z" />
    <glyph glyph-name="lacute" unicode="&#x13a;" horiz-adv-x="499" 
d="M344 2161l139 -140l-368 -301l-105 105zM137 0v1577h234v-1577h-234z" />
    <glyph glyph-name="Lcommaaccent" unicode="&#x13b;" horiz-adv-x="1114" 
d="M399 221h654v-221h-885v1434h231v-1213zM567 -131q46 0 81 -29t36 -80q2 -29 -19.5 -83t-89.5 -189h-133l95 178q-40 6 -64 31t-24 63q0 49 35 79t83 30z" />
    <glyph glyph-name="lcommaaccent" unicode="&#x13c;" horiz-adv-x="499" 
d="M371 1577v-1577h-234v1577h234zM373 -240q2 -29 -19.5 -83t-89.5 -189h-133l94 178q-40 6 -64 31t-24 63q0 49 35.5 79t83.5 30q46 0 81 -29t36 -80z" />
    <glyph glyph-name="Lcaron" unicode="&#x13d;" horiz-adv-x="1114" 
d="M788 1077h-131l95 178q-41 6 -64.5 31t-23.5 64q0 49 34.5 78.5t81.5 29.5q46 0 82 -29t37 -79q0 -31 -22 -86.5t-89 -186.5zM399 221h654v-221h-885v1434h231v-1213z" />
    <glyph glyph-name="lcaron" unicode="&#x13e;" horiz-adv-x="493" 
d="M752 1501q2 -29 -19.5 -83t-89.5 -189h-133l96 178q-42 6 -66 31t-24 63q0 49 35.5 79t83.5 30q46 0 81 -29t36 -80zM137 0v1577h234v-1577h-234z" />
    <glyph glyph-name="Lslash" unicode="&#x141;" horiz-adv-x="1114" 
d="M399 221h654v-221h-885v535l-131 -33v221l131 33v678h231v-621l252 61v-221l-252 -61v-371z" />
    <glyph glyph-name="lslash" unicode="&#x142;" horiz-adv-x="493" 
d="M535 864v-221l-164 -41v-602h-234v545l-172 -43v221l172 43v811h234v-754z" />
    <glyph glyph-name="Nacute" unicode="&#x143;" horiz-adv-x="1515" 
d="M993 1878l-368 -301l-105 104l334 336zM1126 1434h232v-1434h-275l-716 1108l22 -508v-600h-231v1434h272l717 -1106l-21 506v600z" />
    <glyph glyph-name="nacute" unicode="&#x144;" horiz-adv-x="1273" 
d="M872 1581l-368 -301l-105 106l334 334zM743 1151q190 0 298 -117t108 -323v-711h-231v664q0 266 -246 266q-148 0 -226.5 -91t-78.5 -255v-584h-232v1126h232v-186q129 211 376 211z" />
    <glyph glyph-name="Ncommaaccent" unicode="&#x145;" horiz-adv-x="1515" 
d="M1126 1434h232v-1434h-275l-716 1108l22 -508v-600h-231v1434h272l717 -1106l-21 506v600zM766 -131q46 0 81 -29t36 -80q2 -29 -19.5 -83t-89.5 -189h-133l94 178q-40 6 -64 31t-24 63q0 49 35.5 79t83.5 30z" />
    <glyph glyph-name="ncommaaccent" unicode="&#x146;" horiz-adv-x="1273" 
d="M743 1151q190 0 298 -117t108 -323v-711h-231v664q0 266 -246 266q-148 0 -226.5 -91t-78.5 -255v-584h-232v1126h232v-186q129 211 376 211zM645 -131q46 0 81 -29t36 -80q2 -29 -19.5 -83t-89.5 -189h-133l94 178q-40 6 -64 31t-24 63q0 49 35.5 79t83.5 30z" />
    <glyph glyph-name="Ncaron" unicode="&#x147;" horiz-adv-x="1515" 
d="M1092 1917l-336 -336l-334 336l125 125l209 -221l209 221zM1126 1434h232v-1434h-275l-716 1108l22 -508v-600h-231v1434h272l717 -1106l-21 506v600z" />
    <glyph glyph-name="ncaron" unicode="&#x148;" horiz-adv-x="1273" 
d="M973 1616l-336 -336l-334 336l125 125l209 -221l209 221zM743 1151q190 0 298 -117t108 -323v-711h-231v664q0 266 -246 266q-148 0 -226.5 -91t-78.5 -255v-584h-232v1126h232v-186q129 211 376 211z" />
    <glyph glyph-name="Eng" unicode="&#x14a;" horiz-adv-x="1515" 
d="M1126 1434h232v-1434v-80q0 -224 -115 -340.5t-299 -116.5q-89 0 -178 25t-141 57l39 189q163 -56 241 -56q108 0 164.5 65.5t56.5 188.5v68h-43l-716 1108l22 -508v-600h-231v1434h272l717 -1106l-21 506v600z" />
    <glyph glyph-name="eng" unicode="&#x14b;" horiz-adv-x="1273" 
d="M743 1151q190 0 298 -117t108 -323v-711v-80q0 -224 -115 -340.5t-299 -116.5q-88 0 -177.5 25t-141.5 57l41 189q159 -56 239 -56q108 0 165 65.5t57 188.5v373v359q0 266 -246 266q-148 0 -226.5 -91t-78.5 -255v-584h-232v1126h232v-186q129 211 376 211z" />
    <glyph glyph-name="Omacron" unicode="&#x14c;" horiz-adv-x="1697" 
d="M1106 1874v-172h-512v172h512zM850 1458q155 0 292.5 -57t236 -155t156 -235.5t58.5 -293.5q-1 -208 -98.5 -378t-267.5 -267t-377 -97t-377.5 97t-268.5 267t-98 378t98 378t268.5 266.5t377.5 96.5zM850 1237q-219 0 -364.5 -148t-145.5 -372t145.5 -372t364.5 -148
q217 0 362.5 148t145.5 372t-145.5 372t-362.5 148z" />
    <glyph glyph-name="omacron" unicode="&#x14d;" horiz-adv-x="1361" 
d="M936 1577v-170h-512v170h512zM682 1151q161 0 294.5 -75.5t211.5 -210.5t78 -302q0 -166 -77 -301t-211 -211t-296 -76q-161 0 -295 76.5t-211.5 211.5t-77.5 300q0 166 78.5 301.5t212 211t293.5 75.5zM682 930q-148 0 -249 -103t-101 -264t100 -263.5t250 -102.5
t250 102.5t100 263.5t-101 264t-249 103z" />
    <glyph glyph-name="Ohungarumlaut" unicode="&#x150;" horiz-adv-x="1697" 
d="M741 2032l144 -68l-242 -387l-104 51zM1016 2032l143 -68l-241 -387l-105 51zM850 1458q155 0 292.5 -57t236 -155t156 -235.5t58.5 -293.5q-1 -208 -98.5 -378t-267.5 -267t-377 -97t-377.5 97t-268.5 267t-98 378t98 378t268.5 266.5t377.5 96.5zM850 1237
q-219 0 -364.5 -148t-145.5 -372t145.5 -372t364.5 -148q217 0 362.5 148t145.5 372t-145.5 372t-362.5 148z" />
    <glyph glyph-name="ohungarumlaut" unicode="&#x151;" horiz-adv-x="1361" 
d="M573 1737l144 -70l-242 -387l-104 51zM848 1737l143 -70l-241 -387l-105 51zM682 1151q161 0 294.5 -75.5t211.5 -210.5t78 -302q0 -166 -77 -301t-211 -211t-296 -76q-161 0 -295 76.5t-211.5 211.5t-77.5 300q0 166 78.5 301.5t212 211t293.5 75.5zM682 930
q-148 0 -249 -103t-101 -264t100 -263.5t250 -102.5t250 102.5t100 263.5t-101 264t-249 103z" />
    <glyph glyph-name="OE" unicode="&#x152;" horiz-adv-x="2379" 
d="M2296 1212h-707v-370h654v-221h-654v-400h707v-221h-938v188q-94 -100 -225.5 -156.5t-282.5 -56.5q-207 0 -377.5 97t-268.5 267t-98 378t98 378t268.5 266.5t377.5 96.5q151 0 282.5 -56.5t225.5 -156.5v189h938v-222zM850 197q217 0 362.5 148t145.5 372t-145.5 372
t-362.5 148q-219 0 -364.5 -148t-145.5 -372t145.5 -372t364.5 -148z" />
    <glyph glyph-name="oe" unicode="&#x153;" horiz-adv-x="2273" 
d="M1614 1151q133 0 243.5 -50t184 -136.5t111 -206.5t30.5 -258h-915q13 -152 110 -237t242 -85q102 0 182 43.5t119 124.5h240q-44 -123 -128 -207.5t-188.5 -124t-226.5 -39.5q-151 0 -275 61t-202 169q-76 -108 -196.5 -170t-262.5 -62q-161 0 -295 76.5t-211.5 212
t-77.5 301.5q0 124 46 234t125 187t186.5 122t226.5 45q141 0 262 -62.5t197 -170.5q78 109 200.5 171t272.5 62zM1612 950q-128 0 -215.5 -72t-116.5 -190h655q-27 119 -112 190.5t-211 71.5zM682 197q150 0 250 102t100 264q0 159 -101 263t-249 104t-249 -104t-101 -263
q0 -161 100 -263.5t250 -102.5z" />
    <glyph glyph-name="Racute" unicode="&#x154;" horiz-adv-x="1378" 
d="M926 1878l-369 -301l-104 104l333 336zM1030 0l-409 535h-222v-535h-231v1434h592q229 0 358 -124.5t129 -330.5q0 -176 -94.5 -288t-265.5 -144l428 -547h-285zM399 1212v-473h336q138 0 208.5 64.5t70.5 173.5q0 108 -71 171.5t-208 63.5h-336z" />
    <glyph glyph-name="racute" unicode="&#x155;" horiz-adv-x="858" 
d="M666 1581l-369 -301l-104 106l333 334zM741 1151q44 0 68 -6v-236q-40 4 -70 4q-168 0 -270 -98.5t-102 -298.5v-516h-232v1126h232v-223q52 120 147 184t227 64z" />
    <glyph glyph-name="Rcommaaccent" unicode="&#x156;" horiz-adv-x="1378" 
d="M887 547l428 -547h-285l-409 535h-222v-535h-231v1434h592q229 0 358 -124.5t129 -330.5q0 -176 -94.5 -288t-265.5 -144zM399 1212v-473h336q138 0 208.5 64.5t70.5 173.5q0 108 -71 171.5t-208 63.5h-336zM698 -131q46 0 81 -29t36 -80q2 -29 -19.5 -84t-88.5 -188
h-134l95 178q-40 6 -64 31t-24 63q0 49 35 79t83 30z" />
    <glyph glyph-name="rcommaaccent" unicode="&#x157;" horiz-adv-x="858" 
d="M741 1151q44 0 68 -6v-236q-40 4 -70 4q-168 0 -270 -98.5t-102 -298.5v-516h-232v1126h232v-223q52 120 147 184t227 64zM438 -131q46 0 81 -29t36 -80q2 -29 -19.5 -83t-89.5 -189h-133l95 178q-40 6 -64.5 31t-24.5 63q0 49 35.5 79t83.5 30z" />
    <glyph glyph-name="Rcaron" unicode="&#x158;" horiz-adv-x="1378" 
d="M1024 1917l-336 -336l-334 336l125 125l209 -221l209 221zM1030 0l-409 535h-222v-535h-231v1434h592q229 0 358 -124.5t129 -330.5q0 -176 -94.5 -288t-265.5 -144l428 -547h-285zM399 1212v-473h336q138 0 208.5 64.5t70.5 173.5q0 108 -71 171.5t-208 63.5h-336z" />
    <glyph glyph-name="rcaron" unicode="&#x159;" horiz-adv-x="858" 
d="M766 1616l-336 -336l-334 336l125 125l209 -221l209 221zM741 1151q44 0 68 -6v-236q-40 4 -70 4q-168 0 -270 -98.5t-102 -298.5v-516h-232v1126h232v-223q52 120 147 184t227 64z" />
    <glyph glyph-name="Sacute" unicode="&#x15a;" horiz-adv-x="1318" 
d="M756 2017l139 -139l-369 -301l-104 104zM674 844q100 -22 168.5 -41t137 -45t111.5 -56.5t78 -72t50.5 -95.5t15.5 -122q0 -91 -31 -165.5t-83 -124t-122 -83.5t-145 -49t-154 -15q-117 0 -214 25t-165 68.5t-118.5 103.5t-78.5 127.5t-40 144.5h233q33 -127 123.5 -189
t257.5 -62q145 0 224 54t79 154q0 82 -69 123q-57 34 -236 75q-16 3 -78 17q-94 21 -160 40.5t-133.5 52t-108.5 73.5t-67 102.5t-26 139.5q0 103 43.5 187t117 137t167.5 81.5t198 28.5q131 0 234 -32t170.5 -90t107.5 -131t56 -161h-234q-68 197 -332 197
q-142 0 -219.5 -57.5t-77.5 -153.5q0 -74 66.5 -110t253.5 -76z" />
    <glyph glyph-name="sacute" unicode="&#x15b;" horiz-adv-x="1196" 
d="M696 1720l140 -139l-369 -301l-105 106zM633 -25q-224 0 -372.5 102.5t-180.5 284.5h235q27 -95 102 -138.5t220 -43.5q114 0 178 33.5t64 95.5q0 25 -10.5 44t-29.5 32t-50.5 24.5t-67 20.5t-85.5 21q-34 8 -52 12q-127 32 -204.5 58.5t-136.5 64.5t-83.5 87.5
t-24.5 119.5q0 168 129.5 263t345.5 95q210 0 335 -91.5t157 -250.5h-234q-49 137 -262 137q-111 0 -174 -35t-63 -94q0 -51 51.5 -74.5t214.5 -62.5q66 -16 109 -27t94.5 -26.5t83.5 -29.5t67 -33.5t55.5 -41.5t38.5 -50t25.5 -61.5t7.5 -74.5q0 -117 -66 -200t-173.5 -122
t-243.5 -39z" />
    <glyph glyph-name="Scedilla" unicode="&#x15e;" horiz-adv-x="1318" 
d="M1235 412q0 -87 -29 -159.5t-77 -121.5t-113.5 -84t-136.5 -52t-148 -20l-69 -137q82 -15 135 -60.5t53 -123.5q0 -94 -80 -142.5t-217 -48.5q-49 0 -121 9v118q64 -8 94 -8q67 0 105.5 21t38.5 63q0 87 -187 103l92 215q-114 15 -203.5 57.5t-147 105.5t-92 137
t-48.5 160h233q33 -127 123.5 -189t257.5 -62q145 0 224 54t79 154q0 82 -69 123q-57 34 -236 75q-16 3 -78 17q-94 21 -160 40.5t-133.5 52t-108.5 73.5t-67 102.5t-26 139.5q0 103 43.5 187t117 137t167.5 81.5t198 28.5q131 0 234 -32t170.5 -90t107.5 -131t56 -161h-234
q-68 197 -332 197q-142 0 -219.5 -57.5t-77.5 -153.5q0 -74 66.5 -110t253.5 -76q100 -22 168.5 -41t137 -45t111.5 -56.5t78 -72t50.5 -95.5t15.5 -122z" />
    <glyph glyph-name="scedilla" unicode="&#x15f;" horiz-adv-x="1196" 
d="M1116 336q0 -165 -124.5 -258t-319.5 -101l-70 -139q82 -15 135.5 -60.5t53.5 -123.5q0 -94 -80 -142.5t-217 -48.5q-49 0 -121 9v118q64 -8 94 -8q67 0 105 21t38 63q0 87 -186 103l94 215q-180 25 -295.5 123t-142.5 255h235q27 -95 102 -138.5t220 -43.5
q114 0 178 33.5t64 95.5q0 25 -10.5 44t-29.5 32t-50.5 24.5t-67 20.5t-85.5 21q-34 8 -52 12q-127 32 -204.5 58.5t-136.5 64.5t-83.5 87.5t-24.5 119.5q0 168 129.5 263t345.5 95q210 0 335 -91.5t157 -250.5h-234q-49 137 -262 137q-111 0 -174 -35t-63 -94
q0 -51 51.5 -74.5t214.5 -62.5q66 -16 109 -27t94.5 -26.5t83.5 -29.5t67 -33.5t55.5 -41.5t38.5 -50t25.5 -61.5t7.5 -74.5z" />
    <glyph glyph-name="Scaron" unicode="&#x160;" horiz-adv-x="1318" 
d="M995 1917l-336 -336l-333 336l125 125l208 -221l209 221zM674 844q100 -22 168.5 -41t137 -45t111.5 -56.5t78 -72t50.5 -95.5t15.5 -122q0 -91 -31 -165.5t-83 -124t-122 -83.5t-145 -49t-154 -15q-117 0 -214 25t-165 68.5t-118.5 103.5t-78.5 127.5t-40 144.5h233
q33 -127 123.5 -189t257.5 -62q145 0 224 54t79 154q0 82 -69 123q-57 34 -236 75q-16 3 -78 17q-94 21 -160 40.5t-133.5 52t-108.5 73.5t-67 102.5t-26 139.5q0 103 43.5 187t117 137t167.5 81.5t198 28.5q131 0 234 -32t170.5 -90t107.5 -131t56 -161h-234
q-68 197 -332 197q-142 0 -219.5 -57.5t-77.5 -153.5q0 -74 66.5 -110t253.5 -76z" />
    <glyph glyph-name="scaron" unicode="&#x161;" horiz-adv-x="1196" 
d="M936 1616l-336 -336l-334 336l125 125l209 -221l209 221zM633 -25q-224 0 -372.5 102.5t-180.5 284.5h235q27 -95 102 -138.5t220 -43.5q114 0 178 33.5t64 95.5q0 25 -10.5 44t-29.5 32t-50.5 24.5t-67 20.5t-85.5 21q-34 8 -52 12q-127 32 -204.5 58.5t-136.5 64.5
t-83.5 87.5t-24.5 119.5q0 168 129.5 263t345.5 95q210 0 335 -91.5t157 -250.5h-234q-49 137 -262 137q-111 0 -174 -35t-63 -94q0 -51 51.5 -74.5t214.5 -62.5q66 -16 109 -27t94.5 -26.5t83.5 -29.5t67 -33.5t55.5 -41.5t38.5 -50t25.5 -61.5t7.5 -74.5q0 -117 -66 -200
t-173.5 -122t-243.5 -39z" />
    <glyph glyph-name="uni0162" unicode="&#x162;" horiz-adv-x="1232" 
d="M731 0h-31l-82 -162q82 -15 135.5 -60.5t53.5 -123.5q0 -94 -80 -142.5t-217 -48.5q-49 0 -121 9v118q64 -8 94 -8q67 0 105.5 21t38.5 63q0 87 -187 103l101 231h-41v1212h-437v222h1106v-222h-438v-1212z" />
    <glyph glyph-name="uni0163" unicode="&#x163;" horiz-adv-x="1067" 
d="M674 -162q82 -15 135 -60.5t53 -123.5q0 -94 -80 -142.5t-217 -48.5q-49 0 -121 9v118q64 -8 95 -8q67 0 105 21t38 63q0 87 -186 103l92 213q-150 26 -240 140t-90 310v477h-209v217h209v256l231 52v-308h463v-217h-463v-465q0 -123 57 -188.5t165 -65.5q80 0 239 56
l41 -189q-87 -55 -246 -77z" />
    <glyph glyph-name="Tcaron" unicode="&#x164;" horiz-adv-x="1232" 
d="M952 1917l-336 -336l-333 336l125 125l208 -221l209 221zM1169 1434v-222h-438v-1212h-231v1212h-437v222h1106z" />
    <glyph glyph-name="tcaron" unicode="&#x165;" horiz-adv-x="1081" 
d="M807 1229h-131l94 178q-40 6 -64 31t-24 63q0 49 35 79t82 30q46 0 82 -29t37 -80q0 -30 -21.5 -85.5t-89.5 -186.5zM950 246l41 -189q-52 -32 -142 -57t-179 -25q-88 0 -162 28t-130.5 83t-88 143.5t-31.5 202.5v477h-209v217h209v256l231 52v-308h463v-217h-463v-465
q0 -123 57 -188.5t165 -65.5q80 0 239 56z" />
    <glyph glyph-name="Tbar" unicode="&#x166;" horiz-adv-x="1232" 
d="M1169 1212h-438v-385h193v-221h-193v-606h-231v606h-189v221h189v385h-437v222h1106v-222z" />
    <glyph glyph-name="tbar" unicode="&#x167;" horiz-adv-x="1067" 
d="M950 246l41 -189q-52 -32 -142 -57t-179 -25q-88 0 -162 28t-130.5 83t-88 143.5t-31.5 202.5v21h-209v221h209v235h-209v217h209v256l231 52v-308h463v-217h-463v-235h173v-221h-173v-9q0 -123 57 -188.5t165 -65.5q80 0 239 56z" />
    <glyph glyph-name="Umacron" unicode="&#x16a;" horiz-adv-x="1484" 
d="M999 1874v-172h-512v172h512zM1092 1434h235v-863q0 -146 -44 -261t-122 -187.5t-183 -110t-230 -37.5t-230 37.5t-183.5 110t-122.5 187.5t-44 261v863h235v-848q0 -200 93 -294.5t252 -94.5t251.5 94.5t92.5 294.5v848z" />
    <glyph glyph-name="umacron" unicode="&#x16b;" horiz-adv-x="1261" 
d="M883 1577v-170h-512v170h512zM899 1126h231v-1126h-231v186q-131 -211 -375 -211q-187 0 -293 117.5t-106 323.5v710h231v-663q0 -133 59 -199.5t183 -66.5q144 0 222.5 91t78.5 255v583z" />
    <glyph glyph-name="Uring" unicode="&#x16e;" horiz-adv-x="1484" 
d="M741 2093q108 0 183.5 -75.5t74.5 -182.5q1 -107 -75.5 -182.5t-182.5 -75.5t-181 75.5t-75 182.5t74.5 182.5t181.5 75.5zM741 1956q-50 0 -84.5 -35t-33.5 -88q-1 -52 33.5 -87.5t84.5 -35.5q51 0 86 35.5t35 87.5q0 53 -35 88t-86 35zM1092 1434h235v-863
q0 -146 -44 -261t-122 -187.5t-183 -110t-230 -37.5t-230 37.5t-183.5 110t-122.5 187.5t-44 261v863h235v-848q0 -200 93 -294.5t252 -94.5t251.5 94.5t92.5 294.5v848z" />
    <glyph glyph-name="uring" unicode="&#x16f;" horiz-adv-x="1261" 
d="M627 1280q-106 0 -181 76t-75 182q0 107 74.5 182.5t181.5 75.5q108 0 183.5 -75.5t74.5 -182.5q1 -105 -75.5 -181.5t-182.5 -76.5zM627 1661q-50 0 -85 -35.5t-34 -87.5q-1 -53 33.5 -88t85.5 -35t86 34.5t35 88.5q0 52 -35 87.5t-86 35.5zM899 1126h231v-1126h-231
v186q-131 -211 -375 -211q-187 0 -293 117.5t-106 323.5v710h231v-663q0 -133 59 -199.5t183 -66.5q144 0 222.5 91t78.5 255v583z" />
    <glyph glyph-name="Uhungarumlaut" unicode="&#x170;" horiz-adv-x="1484" 
d="M635 2032l143 -68l-241 -387l-105 51zM909 2032l144 -68l-242 -387l-104 51zM1092 1434h235v-863q0 -146 -44 -261t-122 -187.5t-183 -110t-230 -37.5t-230 37.5t-183.5 110t-122.5 187.5t-44 261v863h235v-848q0 -200 93 -294.5t252 -94.5t251.5 94.5t92.5 294.5v848z
" />
    <glyph glyph-name="uhungarumlaut" unicode="&#x171;" horiz-adv-x="1261" 
d="M662 1667l-242 -387l-105 51l203 406zM694 1280l-104 51l203 406l143 -70zM899 1126h231v-1126h-231v186q-131 -211 -375 -211q-187 0 -293 117.5t-106 323.5v710h231v-663q0 -133 59 -199.5t183 -66.5q144 0 222.5 91t78.5 255v583z" />
    <glyph glyph-name="Uogonek" unicode="&#x172;" horiz-adv-x="1484" 
d="M1092 1434h235v-863q0 -230 -105.5 -376t-285.5 -195q-124 -137 -166.5 -196.5t-42.5 -114.5q0 -95 121 -95q44 0 88 11v-133q-72 -9 -125 -9q-122 0 -193 48.5t-71 148.5q0 80 49.5 147t159.5 168h-8q-125 0 -230 37.5t-183.5 110t-122.5 187.5t-44 261v863h235v-848
q0 -200 93 -294.5t252 -94.5t251.5 94.5t92.5 294.5v848z" />
    <glyph glyph-name="uogonek" unicode="&#x173;" horiz-adv-x="1261" 
d="M899 1126h231v-1126h-2q-123 -135 -165.5 -195.5t-42.5 -115.5q0 -95 120 -95q44 0 88 11v-133q-72 -9 -124 -9q-122 0 -193.5 48.5t-71.5 148.5q0 45 15 85.5t51 85t69.5 78.5t96.5 91h-72v186q-131 -211 -375 -211q-187 0 -293 117.5t-106 323.5v710h231v-663
q0 -133 59 -199.5t183 -66.5q144 0 222.5 91t78.5 255v583z" />
    <glyph glyph-name="Wcircumflex" unicode="&#x174;" horiz-adv-x="2056" 
d="M1028 1798l-209 -221l-125 125l334 336l336 -336l-127 -125zM1755 1434h238l-381 -1434h-289l-137 518l-139 641h-37l-138 -641l-137 -518h-291l-381 1434h238l182 -686l109 -506l108 506l181 686h295l180 -686l110 -508l109 508z" />
    <glyph glyph-name="wcircumflex" unicode="&#x175;" horiz-adv-x="1761" 
d="M881 1503l-209 -223l-125 125l334 336l336 -336l-127 -125zM1481 1126h231l-321 -1126h-271l-108 379l-113 514h-37l-112 -514l-109 -379h-270l-322 1126h230l100 -354l131 -528l131 528l100 354h279l98 -354l131 -524l133 524z" />
    <glyph glyph-name="Ycircumflex" unicode="&#x176;" horiz-adv-x="1394" 
d="M698 1798l-209 -221l-124 125l333 336l336 -336l-127 -125zM1331 1434l-516 -940l-2 -494h-231v489l-519 945h263l372 -684l373 684h260z" />
    <glyph glyph-name="ycircumflex" unicode="&#x177;" horiz-adv-x="1239" 
d="M618 1503l-208 -223l-125 125l333 336l336 -336l-127 -125zM942 1126h248l-746 -1638h-247l297 655l-445 983h248l319 -733z" />
    <glyph glyph-name="Ydieresis" unicode="&#x178;" horiz-adv-x="1394" 
d="M465 1657q-59 0 -98 38t-39 95t39 95t98 38q60 0 98.5 -38t38.5 -95t-38.5 -95t-98.5 -38zM930 1657q-60 0 -99.5 38t-39.5 95t39.5 95t99.5 38t99.5 -38t39.5 -95t-39.5 -95t-99.5 -38zM1331 1434l-516 -940l-2 -494h-231v489l-519 945h263l372 -684l373 684h260z" />
    <glyph glyph-name="Zacute" unicode="&#x179;" horiz-adv-x="1220" 
d="M846 1878l-369 -301l-104 104l334 336zM373 221h764v-221h-1053v221l762 991h-727v222h1016v-222z" />
    <glyph glyph-name="zacute" unicode="&#x17a;" horiz-adv-x="1110" 
d="M791 1581l-369 -301l-105 106l334 334zM375 219h655v-219h-950v219l643 688h-606v219h903v-219z" />
    <glyph glyph-name="Zdotaccent" unicode="&#x17b;" horiz-adv-x="1220" 
d="M610 1657q-59 0 -98 38t-39 95t39 95t98 38q60 0 99 -38t39 -95t-39 -95t-99 -38zM373 221h764v-221h-1053v221l762 991h-727v222h1016v-222z" />
    <glyph glyph-name="zdotaccent" unicode="&#x17c;" horiz-adv-x="1110" 
d="M555 1348q-63 0 -106 41t-43 104q0 61 43 101t106 40q66 0 109 -40t43 -101q0 -63 -43 -104t-109 -41zM375 219h655v-219h-950v219l643 688h-606v219h903v-219z" />
    <glyph glyph-name="Zcaron" unicode="&#x17d;" horiz-adv-x="1220" 
d="M946 1917l-336 -336l-334 336l125 125l209 -221l209 221zM373 221h764v-221h-1053v221l762 991h-727v222h1016v-222z" />
    <glyph glyph-name="zcaron" unicode="&#x17e;" horiz-adv-x="1110" 
d="M891 1616l-336 -336l-334 336l125 125l209 -221l209 221zM375 219h655v-219h-950v219l643 688h-606v219h903v-219z" />
    <glyph glyph-name="uni0237" unicode="&#x237;" horiz-adv-x="499" 
d="M135 -512v1638h232v-1638h-232z" />
    <glyph glyph-name="circumflex" unicode="&#x2c6;" horiz-adv-x="1003" 
d="M838 1405l-127 -125l-209 223l-209 -223l-125 125l334 336z" />
    <glyph glyph-name="caron" unicode="&#x2c7;" horiz-adv-x="1003" 
d="M838 1616l-336 -336l-334 336l125 125l209 -221l209 221z" />
    <glyph glyph-name="breve" unicode="&#x2d8;" horiz-adv-x="993" 
d="M831 1661v-47q0 -144 -97 -231t-236 -87q-141 0 -238.5 87t-97.5 231v47h184v-39q0 -69 41.5 -109t110.5 -40q68 0 108.5 40t40.5 109v39h184z" />
    <glyph glyph-name="dotaccent" unicode="&#x2d9;" horiz-adv-x="610" 
d="M305 1634q66 0 109 -40t43 -101q0 -63 -43 -104t-109 -41q-63 0 -106 41t-43 104q0 61 43 101t106 40z" />
    <glyph glyph-name="ring" unicode="&#x2da;" horiz-adv-x="849" 
d="M424 1796q108 0 183.5 -75.5t74.5 -182.5q1 -105 -75.5 -181.5t-182.5 -76.5t-181 76t-75 182q0 107 74.5 182.5t181.5 75.5zM424 1661q-50 0 -85 -35.5t-34 -87.5q-1 -53 34 -88t85 -35q52 0 86.5 34.5t34.5 88.5q0 52 -35 87.5t-86 35.5z" />
    <glyph glyph-name="ogonek" unicode="&#x2db;" horiz-adv-x="700" 
d="M557 -528q-72 -9 -125 -9q-122 0 -193 48.5t-71 148.5q0 45 15 86t51.5 86.5t70.5 79t98 92.5l154 -4q-124 -137 -166.5 -196.5t-42.5 -114.5q0 -95 121 -95q44 0 88 11v-133z" />
    <glyph glyph-name="tilde" unicode="&#x2dc;" horiz-adv-x="1038" 
d="M745 1626h144q0 -311 -213 -311q-46 0 -80 17t-86 61q-28 24 -42.5 35t-37 21.5t-43.5 10.5q-76 0 -76 -129h-143q0 309 211 309q48 0 81 -16.5t85 -60.5q32 -27 44.5 -36t35.5 -20.5t43 -11.5q77 0 77 131z" />
    <glyph glyph-name="hungarumlaut" unicode="&#x2dd;" horiz-adv-x="956" 
d="M371 1737l143 -70l-242 -387l-104 51zM645 1737l143 -70l-241 -387l-105 51z" />
    <glyph glyph-name="gravecomb" unicode="&#x300;" 
d="M-504 1718l336 -336l-106 -104l-367 301z" />
    <glyph glyph-name="acutecomb" unicode="&#x301;" 
d="M-307 1720l139 -139l-369 -301l-104 106z" />
    <glyph glyph-name="uni0302" unicode="&#x302;" 
d="M-166 1405l-127 -125l-209 223l-209 -223l-125 125l334 336z" />
    <glyph glyph-name="tildecomb" unicode="&#x303;" 
d="M-311 1626h143q0 -311 -213 -311q-46 0 -80 17t-86 61q-28 24 -42.5 35t-37 21.5t-43.5 10.5q-75 0 -75 -129h-144q0 309 211 309q48 0 81 -16.5t85 -60.5q32 -27 44.5 -36t35.5 -20.5t43 -11.5q78 0 78 131z" />
    <glyph glyph-name="uni0304" unicode="&#x304;" 
d="M-168 1577v-170h-512v170h512z" />
    <glyph glyph-name="uni0306" unicode="&#x306;" 
d="M-162 1661v-47q0 -144 -97.5 -231t-236.5 -87q-140 0 -237.5 87t-97.5 231v47h184v-39q0 -69 41 -109t110 -40q68 0 109 40t41 109v39h184z" />
    <glyph glyph-name="uni0307" unicode="&#x307;" 
d="M-305 1634q66 0 108.5 -39.5t42.5 -101.5q0 -63 -42.5 -104t-108.5 -41q-64 0 -107 41t-43 104q0 61 43 101t107 40z" />
    <glyph glyph-name="uni0308" unicode="&#x308;" 
d="M-772 1624q60 0 98.5 -37t38.5 -94q0 -58 -38.5 -95.5t-98.5 -37.5q-59 0 -98 37.5t-39 95.5q0 57 39 94t98 37zM-307 1624q60 0 99.5 -37t39.5 -94q0 -58 -39.5 -95.5t-99.5 -37.5t-99.5 37.5t-39.5 95.5q0 57 39.5 94t99.5 37z" />
    <glyph glyph-name="uni030A" unicode="&#x30a;" 
d="M-426 1796q108 0 183.5 -75.5t74.5 -182.5q1 -105 -75.5 -181.5t-182.5 -76.5t-181 76t-75 182q0 107 74.5 182.5t181.5 75.5zM-426 1661q-50 0 -85 -35.5t-34 -87.5q-1 -53 34 -88t85 -35q52 0 86.5 34.5t34.5 88.5q0 52 -35 87.5t-86 35.5z" />
    <glyph glyph-name="uni030B" unicode="&#x30b;" 
d="M-586 1737l144 -70l-242 -387l-104 51zM-311 1737l143 -70l-242 -387l-104 51z" />
    <glyph glyph-name="uni030C" unicode="&#x30c;" 
d="M-166 1616l-336 -336l-334 336l125 125l209 -221l209 221z" />
    <glyph glyph-name="uni0312" unicode="&#x312;" 
d="M-268 1485q42 -8 66 -32.5t24 -63.5q0 -49 -35.5 -79t-83.5 -30q-46 0 -81.5 29.5t-35.5 79.5q-2 29 19.5 83.5t89.5 190.5h131z" />
    <glyph glyph-name="uni0326" unicode="&#x326;" 
d="M-168 -240q2 -29 -19.5 -84t-88.5 -188h-134l97 178q-42 6 -66 31t-24 63q0 49 35 79t83 30q46 0 81 -29t36 -80z" />
    <glyph glyph-name="uni0327" unicode="&#x327;" 
d="M-354 -162q80 -15 133 -60.5t53 -123.5q0 -94 -80 -142.5t-217 -48.5q-49 0 -121 9v118q64 -8 94 -8q67 0 105.5 21t38.5 63q0 87 -187 103l101 231h160z" />
    <glyph glyph-name="uni0328" unicode="&#x328;" 
d="M-168 -528q-72 -9 -125 -9q-122 0 -193 48.5t-71 148.5q0 45 15 86t51.5 86.5t70.5 79t98 92.5l154 -4q-124 -137 -166.5 -196.5t-42.5 -114.5q0 -95 121 -95q44 0 88 11v-133z" />
    <glyph glyph-name="uni0335" unicode="&#x335;" 
d="M-168 723v-221h-612v221h612z" />
    <glyph glyph-name="uni0337" unicode="&#x337;" 
d="M-168 1126l-807 -1126h-174l805 1126h176z" />
    <glyph glyph-name="uni0338" unicode="&#x338;" 
d="M-166 1577l-747 -1577h-234l746 1577h235z" />
    <glyph glyph-name="uni0401" unicode="&#x401;" horiz-adv-x="1187" 
d="M397 1657q-59 0 -98 38t-39 95t39 95t98 38q60 0 99 -38t39 -95t-39 -95t-99 -38zM862 1657q-60 0 -99.5 38t-39.5 95t39.5 95t99.5 38t99.5 -38t39.5 -95t-39.5 -95t-99.5 -38zM1104 1212h-705v-370h654v-221h-654v-400h705v-221h-936v1434h936v-222z" />
    <glyph glyph-name="uni0404" unicode="&#x404;" horiz-adv-x="1622" 
d="M850 197q150 0 266 74t174 202h248q-68 -225 -253.5 -361.5t-432.5 -136.5q-157 0 -294.5 56.5t-235 155t-153.5 236t-56 294.5q0 209 95 378.5t264.5 266t379.5 96.5q247 0 432.5 -136t253.5 -361h-248q-58 128 -174 202t-266 74q-189 0 -323.5 -112t-170.5 -294h602
v-221h-604q34 -185 169 -299t327 -114z" />
    <glyph glyph-name="uni0406" unicode="&#x406;" horiz-adv-x="567" 
d="M168 0v1434h231v-1434h-231z" />
    <glyph glyph-name="uni0407" unicode="&#x407;" horiz-adv-x="567" 
d="M49 1923q60 0 98.5 -38t38.5 -95t-38.5 -95t-98.5 -38q-59 0 -98 38t-39 95t39 95t98 38zM514 1923q60 0 99.5 -38t39.5 -95t-39.5 -95t-99.5 -38t-99.5 38t-39.5 95t39.5 95t99.5 38zM168 0v1434h231v-1434h-231z" />
    <glyph glyph-name="uni040E" unicode="&#x40e;" horiz-adv-x="1458" 
d="M1090 1956v-45q0 -144 -97.5 -232t-236.5 -88q-140 0 -238 87.5t-98 232.5v45h184v-39q0 -67 41.5 -107.5t110.5 -40.5q68 0 108.5 40.5t40.5 107.5v39h185zM1395 1434l-779 -1434h-258l277 508l-508 926h260l377 -676l373 676h258z" />
    <glyph glyph-name="uni0410" unicode="&#x410;" horiz-adv-x="1531" 
d="M1223 0l-146 385h-622l-146 -385h-246l555 1434h295l555 -1434h-245zM539 604h454l-227 600z" />
    <glyph glyph-name="uni0411" unicode="&#x411;" horiz-adv-x="1341" 
d="M784 874q234 0 355 -113t121 -321q0 -206 -128.5 -323t-361.5 -117h-602v1434h231h756v-222h-756v-338h385zM762 221q130 0 196 58.5t66 162.5q0 220 -250 220h-375v-441h363z" />
    <glyph glyph-name="uni0412" unicode="&#x412;" horiz-adv-x="1345" 
d="M1024 766q118 -36 178 -130.5t60 -229.5q0 -190 -125.5 -298t-350.5 -108h-618v1434h610q209 0 322.5 -96t113.5 -273q0 -109 -46.5 -182t-143.5 -117zM981 1028q0 95 -54 139.5t-177 44.5h-351v-368h353q122 0 175.5 46.5t53.5 137.5zM780 221q134 0 191 52.5t57 150.5
q0 103 -57 155t-193 52h-379v-410h381z" />
    <glyph glyph-name="uni0413" unicode="&#x413;" horiz-adv-x="1116" 
d="M1053 1434v-222h-654v-1212h-231v1434h885z" />
    <glyph glyph-name="uni0414" unicode="&#x414;" horiz-adv-x="1673" 
d="M1405 221h205v-514h-232v293h-1083v-293h-232v514h203q32 26 52 81t38 157l158 975h891v-1213zM584 438q-24 -148 -62 -217h652v991h-465z" />
    <glyph glyph-name="uni0415" unicode="&#x415;" horiz-adv-x="1187" 
d="M1104 1212h-705v-370h654v-221h-654v-400h705v-221h-936v1434h936v-222z" />
    <glyph glyph-name="uni0416" unicode="&#x416;" horiz-adv-x="2082" 
d="M2021 0h-288l-576 682v-682h-231v682l-576 -682h-287l613 735l-586 699h285l551 -652v652h231v-652l551 652h285l-586 -699z" />
    <glyph glyph-name="uni0417" unicode="&#x417;" horiz-adv-x="1290" 
d="M969 754q113 -40 176 -130.5t63 -215.5q0 -199 -146.5 -316t-391.5 -117q-158 0 -282 48.5t-206 152.5t-98 252h233q48 -231 349 -231q152 0 229.5 61t77.5 170q0 205 -281 205h-217v205h174q277 0 277 182q0 99 -74 158t-211 59q-128 0 -202.5 -48.5t-102.5 -164.5h-234
q30 217 175.5 325.5t369.5 108.5q227 0 370.5 -114.5t143.5 -294.5q0 -99 -51 -178t-141 -117z" />
    <glyph glyph-name="uni0418" unicode="&#x418;" horiz-adv-x="1515" 
d="M1085 1434h273v-1434h-232v600l23 508l-719 -1108h-272v1434h231v-600l-20 -506z" />
    <glyph glyph-name="uni0419" unicode="&#x419;" horiz-adv-x="1515" 
d="M758 1591q-140 0 -238 87.5t-98 232.5v45h184v-39q0 -67 41.5 -107.5t110.5 -40.5q68 0 108.5 40.5t40.5 107.5v39h185v-45q0 -144 -97.5 -232t-236.5 -88zM1085 1434h273v-1434h-232v600l23 508l-719 -1108h-272v1434h231v-600l-20 -506z" />
    <glyph glyph-name="uni041A" unicode="&#x41a;" horiz-adv-x="1361" 
d="M1298 0h-292l-607 684v-684h-231v1434h231v-656l580 656h291l-619 -699z" />
    <glyph glyph-name="uni041B" unicode="&#x41b;" horiz-adv-x="1554" 
d="M492 1434h894v-1434h-231v1212h-469l-125 -774q-40 -246 -131 -354.5t-240 -108.5q-51 0 -127 13v209q81 -7 82 -7q81 0 122 57t67 212z" />
    <glyph glyph-name="uni041C" unicode="&#x41c;" horiz-adv-x="1693" 
d="M1253 1434h273v-1434h-232v1120l-442 -667h-23l-440 667v-1120h-231v1434h272l412 -619z" />
    <glyph glyph-name="uni041D" unicode="&#x41d;" horiz-adv-x="1531" 
d="M1135 1434h231v-1434h-231v627h-736v-627h-231v1434h231v-586h736v586z" />
    <glyph glyph-name="uni041E" unicode="&#x41e;" horiz-adv-x="1697" 
d="M850 1458q155 0 292.5 -57t236 -155t156 -235.5t58.5 -293.5q-1 -208 -98.5 -378t-267.5 -267t-377 -97t-377.5 97t-268.5 267t-98 378t98 378t268.5 266.5t377.5 96.5zM850 1237q-219 0 -364.5 -148t-145.5 -372t145.5 -372t364.5 -148q217 0 362.5 148t145.5 372
t-145.5 372t-362.5 148z" />
    <glyph glyph-name="uni041F" unicode="&#x41f;" horiz-adv-x="1531" 
d="M1366 1434v-1434h-231v1212h-736v-1212h-231v1434h231h967z" />
    <glyph glyph-name="uni0420" unicode="&#x420;" horiz-adv-x="1363" 
d="M756 1434q233 0 368.5 -128.5t135.5 -342.5t-136 -346t-368 -132h-357v-485h-231v1434h588zM748 707q136 0 206 70t70 184t-70 182.5t-206 68.5h-349v-505h349z" />
    <glyph glyph-name="uni0421" unicode="&#x421;" horiz-adv-x="1622" 
d="M852 -25q-157 0 -294.5 56.5t-235 155t-153.5 236t-56 294.5q0 209 95 378.5t264.5 266t379.5 96.5q247 0 432.5 -136t253.5 -361h-248q-58 128 -174 202t-266 74q-219 0 -361.5 -147.5t-142.5 -372.5t142.5 -372.5t361.5 -147.5q150 0 266 74t174 202h248
q-68 -225 -253.5 -361.5t-432.5 -136.5z" />
    <glyph glyph-name="uni0422" unicode="&#x422;" horiz-adv-x="1232" 
d="M1169 1434v-222h-438v-1212h-231v1212h-437v222h1106z" />
    <glyph glyph-name="uni0423" unicode="&#x423;" horiz-adv-x="1458" 
d="M1395 1434l-779 -1434h-258l277 508l-508 926h260l377 -676l373 676h258z" />
    <glyph glyph-name="uni0424" unicode="&#x424;" horiz-adv-x="1884" 
d="M1196 1276q163 0 294.5 -65t209.5 -190t78 -290t-77.5 -290t-208.5 -190t-296 -65h-119v-186h-231v186h-121q-165 0 -296 65t-208.5 190t-77.5 290t78 290t209.5 190t294.5 65h121v158h231v-158h119zM725 406h121v649h-121q-154 0 -251 -84t-97 -240q0 -157 97 -241
t251 -84zM1196 406q154 0 251 84t97 241q0 156 -97 240t-251 84h-119v-649h119z" />
    <glyph glyph-name="uni0425" unicode="&#x425;" horiz-adv-x="1347" 
d="M1284 0h-274l-338 545l-334 -545h-275l467 739l-446 695h276l318 -512l317 512h275l-451 -709z" />
    <glyph glyph-name="uni0426" unicode="&#x426;" horiz-adv-x="1601" 
d="M1307 221h231v-514h-231v293h-1139v221v1213h231v-1213h676v1213h232v-1213z" />
    <glyph glyph-name="uni0427" unicode="&#x427;" horiz-adv-x="1349" 
d="M950 1434h232v-1434h-232v528q-141 -67 -344 -67q-233 0 -366.5 119.5t-133.5 363.5v490h234v-463q0 -155 79.5 -222t231.5 -67q200 0 299 61v691z" />
    <glyph glyph-name="uni0428" unicode="&#x428;" horiz-adv-x="2086" 
d="M1690 1434h231v-1258v-176h-1753v221v1213h231v-1213h529v1213h231v-1213h531v1213z" />
    <glyph glyph-name="uni0429" unicode="&#x429;" horiz-adv-x="2215" 
d="M1921 221h231v-514h-231v293h-1753v221v1213h231v-1213h529v1213h231v-1213h531v1213h231v-1213z" />
    <glyph glyph-name="uni042A" unicode="&#x42a;" horiz-adv-x="1527" 
d="M940 879q235 0 358 -115.5t123 -323.5q0 -206 -127 -323t-360 -117h-594v1212h-277v222h406h104v-555h367zM926 221q130 0 196 58.5t66 162.5q0 220 -256 220h-359v-441h353z" />
    <glyph glyph-name="uni042B" unicode="&#x42b;" horiz-adv-x="1798" 
d="M766 879q235 0 359 -115.5t124 -323.5q0 -206 -128 -323t-361 -117h-592v1434h231v-555h367zM1432 1434h231v-1434h-231v1434zM752 221q130 0 196 58.5t66 162.5q0 220 -256 220h-359v-441h353z" />
    <glyph glyph-name="uni042C" unicode="&#x42c;" horiz-adv-x="1353" 
d="M766 879q235 0 359 -115.5t124 -323.5q0 -206 -128 -323t-361 -117h-592v1434h231v-555h367zM752 221q130 0 196 58.5t66 162.5q0 220 -256 220h-359v-441h353z" />
    <glyph glyph-name="uni042D" unicode="&#x42d;" horiz-adv-x="1615" 
d="M774 1458q210 0 377.5 -96.5t260.5 -265.5t93 -379q0 -157 -54.5 -294.5t-150.5 -236t-232 -155t-292 -56.5q-252 0 -440.5 137t-251.5 361h248q54 -129 173 -202.5t271 -73.5q191 0 323 115t163 300h-605v222h603q-34 181 -165 292t-319 111q-153 0 -271.5 -73
t-172.5 -203h-248q62 224 249.5 360.5t440.5 136.5z" />
    <glyph glyph-name="uni042E" unicode="&#x42e;" horiz-adv-x="2220" 
d="M1372 1458q207 0 377.5 -96.5t268.5 -266.5t98 -378t-98 -378t-268.5 -267t-377.5 -97q-188 0 -347 80.5t-261 224t-127 324.5h-238v-604h-231v1434h231v-609h236q25 182 127 326t261.5 225.5t348.5 81.5zM1372 197q217 0 362.5 148t145.5 372t-145.5 372t-362.5 148
q-143 0 -259 -67t-183 -186.5t-68 -266.5q1 -147 68 -266.5t183 -186.5t259 -67z" />
    <glyph glyph-name="uni042F" unicode="&#x42f;" horiz-adv-x="1378" 
d="M618 1434h592v-1434h-231v518h-240l-391 -518h-285l412 535q-163 38 -253.5 153.5t-90.5 288.5q0 209 128 333t359 124zM643 729h336v483h-336q-138 0 -208 -65.5t-70 -175.5t70 -176t208 -66z" />
    <glyph glyph-name="uni0430" unicode="&#x430;" horiz-adv-x="1378" 
d="M1012 1126h231v-1126h-231v188q-63 -100 -164 -156.5t-230 -56.5q-226 0 -373 165.5t-147 422.5q0 256 147.5 422t370.5 166q129 0 230.5 -58t165.5 -159v192zM668 197q149 0 247.5 102.5t98.5 263.5q0 160 -98.5 263.5t-247.5 103.5q-148 0 -242 -103t-94 -264
q0 -162 94.5 -264t241.5 -102z" />
    <glyph glyph-name="uni0431" unicode="&#x431;" horiz-adv-x="1353" 
d="M748 1100q219 0 364 -150.5t145 -392.5q0 -171 -75.5 -305t-205.5 -205.5t-290 -71.5q-96 0 -182 26t-160.5 81t-128.5 135t-85 194.5t-32 252.5q0 170 24.5 304.5t67.5 232t112.5 169t149.5 116t189.5 70.5t220.5 36t254 10v-220q-116 0 -203.5 -5.5t-169 -20.5
t-140 -40t-108.5 -64t-81.5 -94t-52 -127.5t-27.5 -166.5q60 114 171 175t243 61zM676 176q150 0 250 102t100 267q0 159 -95.5 257.5t-242.5 98.5t-251.5 -99t-104.5 -257q0 -166 97.5 -267.5t246.5 -101.5z" />
    <glyph glyph-name="uni0432" unicode="&#x432;" horiz-adv-x="1191" 
d="M903 604q103 -30 156 -103t53 -177q0 -158 -106.5 -241t-296.5 -83h-574v1126h524q398 0 398 -284q0 -81 -39.5 -137t-114.5 -101zM823 799q0 72 -40.5 108.5t-141.5 36.5h-274v-282h270q186 0 186 137zM694 182q101 0 143 41.5t42 118.5q0 152 -187 152h-325v-312h327z
" />
    <glyph glyph-name="uni0433" unicode="&#x433;" horiz-adv-x="933" 
d="M885 1126v-217h-518v-909h-232v1126h750z" />
    <glyph glyph-name="uni0434" unicode="&#x434;" horiz-adv-x="1515" 
d="M1262 217h204v-510h-231v293h-954v-293h-232v510h197q38 29 64 96.5t46 188.5l101 624h805v-909zM498 217h532v692h-377l-67 -417q-29 -188 -88 -275z" />
    <glyph glyph-name="uni0435" unicode="&#x435;" horiz-adv-x="1339" 
d="M680 1151q133 0 244.5 -50t185 -136.5t111 -206.5t28.5 -258h-915q13 -152 110 -237t242 -85q103 0 182.5 43t118.5 125h240q-64 -183 -209.5 -277t-333.5 -94q-256 0 -421 165.5t-165 420.5q0 256 164 423t418 167zM680 950q-128 0 -216 -72t-118 -190h655
q-27 119 -111.5 190.5t-209.5 71.5z" />
    <glyph glyph-name="uni0436" unicode="&#x436;" horiz-adv-x="1988" 
d="M1939 0h-297l-532 520v-520h-231v520l-533 -520h-297l594 592l-551 534h299l488 -489v489h231v-489l487 489h299l-550 -534z" />
    <glyph glyph-name="uni0437" unicode="&#x437;" horiz-adv-x="1179" 
d="M918 596q89 -33 135.5 -106t46.5 -171q0 -161 -131.5 -252.5t-354.5 -91.5q-475 0 -548 396h233q24 -115 99 -165t210 -50q131 0 194.5 47.5t63.5 132.5q0 156 -198 156h-209v178h168q112 0 158 36t46 103q0 75 -57.5 120.5t-181.5 45.5q-222 0 -262 -168h-236
q33 158 156 251t346 93q216 0 342.5 -88t126.5 -238q0 -157 -147 -229z" />
    <glyph glyph-name="uni0438" unicode="&#x438;" horiz-adv-x="1314" 
d="M909 1126h273v-1126h-232v471l15 356l-557 -827h-273v1126h232v-471l-15 -354z" />
    <glyph glyph-name="uni0439" unicode="&#x439;" horiz-adv-x="1314" 
d="M659 1296q-140 0 -237.5 87t-97.5 231v47h184v-39q0 -69 41 -109t110 -40q68 0 109 40t41 109v39h184v-47q0 -144 -97.5 -231t-236.5 -87zM909 1126h273v-1126h-232v471l15 356l-557 -827h-273v1126h232v-471l-15 -354z" />
    <glyph glyph-name="uni043A" unicode="&#x43a;" horiz-adv-x="1245" 
d="M1196 0h-299l-530 520v-520h-232v1126h232v-487l487 487h297l-551 -534z" />
    <glyph glyph-name="uni043B" unicode="&#x43b;" horiz-adv-x="1347" 
d="M414 1126h800v-1126h-231v909h-373l-73 -471q-40 -245 -132 -354t-241 -109q-35 0 -115 13v209q6 -1 30.5 -4t37.5 -3q82 0 123 57t67 212z" />
    <glyph glyph-name="uni043C" unicode="&#x43c;" horiz-adv-x="1480" 
d="M1073 1126h273v-1126h-232v471l16 391l-387 -551h-6l-387 551l17 -391v-471h-232v1126h273l331 -462z" />
    <glyph glyph-name="uni043D" unicode="&#x43d;" horiz-adv-x="1329" 
d="M965 1126h231v-1126h-231v465h-598v-465h-232v1126h232v-442h598v442z" />
    <glyph glyph-name="uni043E" unicode="&#x43e;" horiz-adv-x="1361" 
d="M682 1151q161 0 294.5 -75.5t211.5 -210.5t78 -302q0 -166 -77 -301t-211 -211t-296 -76q-161 0 -295 76.5t-211.5 211.5t-77.5 300q0 166 78.5 301.5t212 211t293.5 75.5zM682 930q-148 0 -249 -103t-101 -264t100 -263.5t250 -102.5t250 102.5t100 263.5t-101 264
t-249 103z" />
    <glyph glyph-name="uni043F" unicode="&#x43f;" horiz-adv-x="1312" 
d="M1180 1126v-1126h-232v909h-581v-909h-232v1126h232h813z" />
    <glyph glyph-name="uni0440" unicode="&#x440;" horiz-adv-x="1388" 
d="M772 1151q223 0 370.5 -166t147.5 -422q0 -257 -147 -422.5t-373 -165.5q-128 0 -228.5 57t-164.5 156v-700h-232v1638h232v-192q64 101 165 159t230 58zM721 197q147 0 241.5 102t94.5 264q0 161 -94 264t-242 103q-149 0 -247.5 -103.5t-98.5 -263.5
q0 -161 98.5 -263.5t247.5 -102.5z" />
    <glyph glyph-name="uni0441" unicode="&#x441;" horiz-adv-x="1314" 
d="M682 -25q-250 0 -417 168t-167 420q0 166 76 300.5t210 211t300 76.5q134 0 249.5 -51t197 -150.5t106.5 -232.5h-240q-32 104 -117 161.5t-196 57.5q-156 0 -254 -104.5t-98 -268.5t98.5 -268.5t251.5 -104.5q112 0 197.5 59.5t117.5 162.5h240q-39 -203 -194.5 -320
t-360.5 -117z" />
    <glyph glyph-name="uni0442" unicode="&#x442;" horiz-adv-x="1064" 
d="M1016 1126v-217h-367v-909h-231v909h-369v217h600h367z" />
    <glyph glyph-name="uni0443" unicode="&#x443;" horiz-adv-x="1239" 
d="M942 1126h248l-746 -1638h-247l297 655l-445 983h248l319 -733z" />
    <glyph glyph-name="uni0444" unicode="&#x444;" horiz-adv-x="2256" 
d="M1638 1151q224 0 372.5 -166t148.5 -422q0 -257 -148 -422.5t-373 -165.5q-128 0 -228 56t-167 155v-673h-231v673q-65 -99 -165.5 -155t-228.5 -56q-226 0 -373 165.5t-147 422.5q0 256 147.5 422t370.5 166q129 0 231 -58t165 -159v643h231v-643q65 102 166 159.5
t229 57.5zM668 197q149 0 247.5 102.5t98.5 263.5q0 160 -98.5 263.5t-247.5 103.5q-148 0 -242 -103t-94 -264q0 -162 94.5 -264t241.5 -102zM1589 197q147 0 241.5 102t94.5 264q0 161 -94 264t-242 103q-149 0 -247.5 -103.5t-98.5 -263.5q0 -161 98.5 -263.5
t247.5 -102.5z" />
    <glyph glyph-name="uni0445" unicode="&#x445;" horiz-adv-x="1187" 
d="M1139 0h-277l-272 403l-262 -403h-279l404 580l-381 546h276l250 -376l242 376h278l-381 -551z" />
    <glyph glyph-name="uni0446" unicode="&#x446;" horiz-adv-x="1404" 
d="M1151 217h205v-510h-232v293h-757h-232v1126h232v-909h553v909h231v-909z" />
    <glyph glyph-name="uni0447" unicode="&#x447;" horiz-adv-x="1212" 
d="M846 1126h231v-1126h-231v385q-130 -55 -297 -55q-77 0 -142.5 13t-122 43.5t-96 77t-62 117t-22.5 160.5v385h232v-329q0 -139 57.5 -199.5t200.5 -60.5q158 0 252 55v534z" />
    <glyph glyph-name="uni0448" unicode="&#x448;" horiz-adv-x="1783" 
d="M1417 1126h232v-1126h-232h-641h-526h-115v1126h232v-909h409v909h232v-909h409v909z" />
    <glyph glyph-name="uni0449" unicode="&#x449;" horiz-adv-x="1902" 
d="M1649 217h204v-510h-231v293h-614h-641h-232v1126h232v-909h409v909h232v-909h409v909h232v-909z" />
    <glyph glyph-name="uni044A" unicode="&#x44a;" horiz-adv-x="1361" 
d="M860 774q184 0 294 -93t110 -286q0 -194 -114.5 -294.5t-297.5 -100.5h-547l-2 907h-254v219h486v-352h325zM846 221q184 0 184 174q0 84 -41 129t-141 45h-313l2 -348h309z" />
    <glyph glyph-name="uni044B" unicode="&#x44b;" horiz-adv-x="1624" 
d="M690 774q184 0 294 -93t110 -286q0 -194 -114.5 -294.5t-297.5 -100.5h-547v1126h232v-352h323zM1260 1126h231v-1126h-231v1126zM674 221q186 0 186 174q0 84 -41 129t-141 45h-311v-348h307z" />
    <glyph glyph-name="uni044C" unicode="&#x44c;" horiz-adv-x="1193" 
d="M692 774q184 0 294 -93t110 -286q0 -194 -114.5 -294.5t-297.5 -100.5h-549v1126h232v-352h325zM678 221q184 0 184 174q0 84 -41 129t-141 45h-313v-348h311z" />
    <glyph glyph-name="uni044D" unicode="&#x44d;" horiz-adv-x="1318" 
d="M637 1151q166 0 300 -76.5t209 -211t75 -300.5t-74.5 -300.5t-208 -211t-299.5 -76.5q-135 0 -252 49.5t-200.5 150.5t-108.5 237h239q30 -107 119 -167.5t203 -60.5q133 0 225 80t115 213h-416v182h414q-25 129 -116.5 206t-223.5 77q-116 0 -203.5 -60t-116.5 -165
h-239q36 199 193.5 316.5t365.5 117.5z" />
    <glyph glyph-name="uni044E" unicode="&#x44e;" horiz-adv-x="1841" 
d="M1159 1151q160 0 294 -76t212 -211t78 -301t-77 -301t-211 -211t-296 -76q-217 0 -376.5 133.5t-196.5 344.5h-219v-453h-232v1126h232v-454h219q37 212 197 345.5t376 133.5zM1159 197q150 0 250 102.5t100 263.5q0 160 -100.5 263.5t-249.5 103.5q-148 0 -249 -103
t-101 -264q0 -160 101 -263t249 -103z" />
    <glyph glyph-name="uni044F" unicode="&#x44f;" horiz-adv-x="1216" 
d="M516 1126h565v-1126h-231v408h-223l-293 -408h-285l330 424q-125 31 -199 111.5t-74 214.5q0 95 31.5 168t87.5 118t129.5 67.5t161.5 22.5zM535 598h315v320h-322q-188 0 -188 -164q0 -72 48 -114t147 -42z" />
    <glyph glyph-name="uni0451" unicode="&#x451;" horiz-adv-x="1339" 
d="M436 1360q-59 0 -98 37.5t-39 95.5q0 57 39 94t98 37q60 0 98.5 -37t38.5 -94q0 -58 -38.5 -95.5t-98.5 -37.5zM901 1360q-60 0 -99.5 37.5t-39.5 95.5q0 57 39.5 94t99.5 37t99.5 -37t39.5 -94q0 -58 -39.5 -95.5t-99.5 -37.5zM680 1151q133 0 244.5 -50t185 -136.5
t111 -206.5t28.5 -258h-915q13 -152 110 -237t242 -85q103 0 182.5 43t118.5 125h240q-64 -183 -209.5 -277t-333.5 -94q-256 0 -421 165.5t-165 420.5q0 256 164 423t418 167zM680 950q-128 0 -216 -72t-118 -190h655q-27 119 -111.5 190.5t-209.5 71.5z" />
    <glyph glyph-name="uni0454" unicode="&#x454;" horiz-adv-x="1314" 
d="M682 184q112 0 197.5 60.5t117.5 167.5h240q-39 -203 -194.5 -320t-360.5 -117q-250 0 -417 168t-167 420q0 166 76 300.5t210 211t300 76.5q134 0 249.5 -51t197 -150.5t106.5 -232.5h-240q-31 108 -116 166.5t-197 58.5q-132 0 -223.5 -77t-118.5 -206h414v-182h-416
q25 -134 117.5 -213.5t224.5 -79.5z" />
    <glyph glyph-name="uni0456" unicode="&#x456;" horiz-adv-x="499" 
d="M250 1634q66 0 108.5 -39.5t42.5 -101.5q0 -63 -42.5 -104t-108.5 -41q-64 0 -107 41t-43 104q0 61 43 101t107 40zM135 0v1126h232v-1126h-232z" />
    <glyph glyph-name="uni0457" unicode="&#x457;" horiz-adv-x="499" 
d="M16 1624q60 0 99 -37t39 -94q0 -58 -39 -95.5t-99 -37.5q-59 0 -98 37.5t-39 95.5q0 57 39 94t98 37zM481 1624q60 0 100 -37t40 -94q0 -58 -40 -95.5t-100 -37.5t-99.5 37.5t-39.5 95.5q0 57 39.5 94t99.5 37zM135 0v1126h232v-1126h-232z" />
    <glyph glyph-name="uni045E" unicode="&#x45e;" horiz-adv-x="1239" 
d="M621 1296q-141 0 -238.5 87t-97.5 231v47h184v-39q0 -69 41.5 -109t110.5 -40q68 0 108.5 40t40.5 109v39h184v-47q0 -144 -97 -231t-236 -87zM942 1126h248l-746 -1638h-247l297 655l-445 983h248l319 -733z" />
    <glyph glyph-name="uni0490" unicode="&#x490;" horiz-adv-x="1116" 
d="M1053 1577v-365h-654v-1212h-231v1434h653v143h232z" />
    <glyph glyph-name="uni0491" unicode="&#x491;" horiz-adv-x="933" 
d="M885 1278v-369h-518v-909h-232v1126h518v152h232z" />
    <glyph glyph-name="Wgrave" unicode="&#x1e80;" horiz-adv-x="2056" 
d="M1266 1681l-107 -104l-366 301l137 139zM1755 1434h238l-381 -1434h-289l-137 518l-139 641h-37l-138 -641l-137 -518h-291l-381 1434h238l182 -686l109 -506l108 506l181 686h295l180 -686l110 -508l109 508z" />
    <glyph glyph-name="wgrave" unicode="&#x1e81;" horiz-adv-x="1761" 
d="M1116 1382l-106 -104l-367 301l137 139zM1481 1126h231l-321 -1126h-271l-108 379l-113 514h-37l-112 -514l-109 -379h-270l-322 1126h230l100 -354l131 -528l131 528l100 354h279l98 -354l131 -524l133 524z" />
    <glyph glyph-name="Wacute" unicode="&#x1e82;" horiz-adv-x="2056" 
d="M1266 1878l-369 -301l-104 104l333 336zM1755 1434h238l-381 -1434h-289l-137 518l-139 641h-37l-138 -641l-137 -518h-291l-381 1434h238l182 -686l109 -506l108 506l181 686h295l180 -686l110 -508l109 508z" />
    <glyph glyph-name="wacute" unicode="&#x1e83;" horiz-adv-x="1761" 
d="M1116 1581l-368 -301l-105 106l334 334zM1481 1126h231l-321 -1126h-271l-108 379l-113 514h-37l-112 -514l-109 -379h-270l-322 1126h230l100 -354l131 -528l131 528l100 354h279l98 -354l131 -524l133 524z" />
    <glyph glyph-name="Wdieresis" unicode="&#x1e84;" horiz-adv-x="2056" 
d="M795 1657q-59 0 -98.5 38t-39.5 95t39.5 95t98.5 38q60 0 98.5 -38t38.5 -95t-38.5 -95t-98.5 -38zM1260 1657q-60 0 -100 38t-40 95t40 95t100 38t99.5 -38t39.5 -95t-39.5 -95t-99.5 -38zM1755 1434h238l-381 -1434h-289l-137 518l-139 641h-37l-138 -641l-137 -518
h-291l-381 1434h238l182 -686l109 -506l108 506l181 686h295l180 -686l110 -508l109 508z" />
    <glyph glyph-name="wdieresis" unicode="&#x1e85;" horiz-adv-x="1761" 
d="M647 1360q-59 0 -98 37.5t-39 95.5q0 57 39 94t98 37q60 0 98.5 -37t38.5 -94q0 -58 -38.5 -95.5t-98.5 -37.5zM1112 1360q-60 0 -99.5 37.5t-39.5 95.5q0 57 39.5 94t99.5 37t99.5 -37t39.5 -94q0 -58 -39.5 -95.5t-99.5 -37.5zM1481 1126h231l-321 -1126h-271l-108 379
l-113 514h-37l-112 -514l-109 -379h-270l-322 1126h230l100 -354l131 -528l131 528l100 354h279l98 -354l131 -524l133 524z" />
    <glyph glyph-name="Ygrave" unicode="&#x1ef2;" horiz-adv-x="1394" 
d="M934 1681l-107 -104l-366 301l137 139zM1331 1434l-516 -940l-2 -494h-231v489l-519 945h263l372 -684l373 684h260z" />
    <glyph glyph-name="ygrave" unicode="&#x1ef3;" horiz-adv-x="1239" 
d="M856 1382l-106 -104l-367 301l137 139zM942 1126h248l-746 -1638h-247l297 655l-445 983h248l319 -733z" />
    <glyph glyph-name="uni2009" unicode="&#x2009;" horiz-adv-x="307" 
 />
    <glyph glyph-name="endash" unicode="&#x2013;" horiz-adv-x="1323" 
d="M1155 723v-221h-987v221h987z" />
    <glyph glyph-name="emdash" unicode="&#x2014;" horiz-adv-x="1529" 
d="M1362 723v-221h-1194v221h1194z" />
    <glyph glyph-name="quoteleft" unicode="&#x2018;" horiz-adv-x="686" 
d="M373 1098q44 -14 70 -48.5t26 -84.5q0 -65 -43 -106.5t-107 -41.5q-26 0 -50.5 7t-48 23.5t-38 48t-14.5 75.5q-1 26 6.5 57t54 133t136.5 273h153z" />
    <glyph glyph-name="quoteright" unicode="&#x2019;" horiz-adv-x="686" 
d="M518 1303q1 -25 -6.5 -55.5t-53.5 -134t-136 -273.5h-154l145 336q-44 14 -70 49.5t-26 85.5q0 65 43 106t107 41q26 0 50.5 -7.5t48 -23.5t38 -48t14.5 -76z" />
    <glyph glyph-name="quotesinglbase" unicode="&#x201a;" horiz-adv-x="686" 
d="M518 111q1 -26 -6.5 -56.5t-53.5 -133.5t-136 -273h-154l145 336q-44 14 -70 48.5t-26 84.5q0 65 43 106t107 41q26 0 50.5 -7t48 -23t38 -47.5t14.5 -75.5z" />
    <glyph glyph-name="quotedblleft" unicode="&#x201c;" horiz-adv-x="1116" 
d="M365 1434h153l-145 -336q44 -14 70 -48.5t26 -84.5q0 -65 -43 -106.5t-107 -41.5q-26 0 -50.5 7t-48 23.5t-38 48t-14.5 75.5q-1 26 6.5 57t54 133t136.5 273zM801 1098q45 -14 70.5 -48.5t25.5 -84.5q0 -66 -42 -107t-107 -41q-25 0 -49.5 7t-48.5 23.5t-38.5 48
t-15.5 75.5q0 26 8 56.5t54 133.5t135 273h155z" />
    <glyph glyph-name="quotedblright" unicode="&#x201d;" horiz-adv-x="1116" 
d="M367 1458q26 0 50.5 -7.5t48 -23.5t38 -48t14.5 -76q1 -25 -6.5 -55.5t-53.5 -134t-136 -273.5h-154l145 336q-44 14 -70 49.5t-26 85.5q0 65 43 106t107 41zM948 1303q1 -25 -7 -56t-54 -133.5t-135 -273.5h-156l147 336q-44 14 -70 49.5t-26 85.5q0 65 43 106t107 41
q35 0 67 -12t58 -49t26 -94z" />
    <glyph glyph-name="quotedblbase" unicode="&#x201e;" horiz-adv-x="1116" 
d="M367 264q26 0 50.5 -7t48 -23t38 -47.5t14.5 -75.5q1 -26 -6.5 -56.5t-53.5 -133.5t-136 -273h-154l145 336q-44 14 -70 48.5t-26 84.5q0 65 43 106t107 41zM948 111q1 -25 -7 -56.5t-54 -133.5t-135 -273h-156l147 336q-44 14 -70 48.5t-26 84.5q0 65 43 106t107 41
q26 0 50 -7t48 -23t38.5 -47.5t14.5 -75.5z" />
    <glyph glyph-name="dagger" unicode="&#x2020;" horiz-adv-x="1210" 
d="M721 1434v-420h323v-221h-323v-1000h-232v1000h-321v221h321v420h232z" />
    <glyph glyph-name="daggerdbl" unicode="&#x2021;" horiz-adv-x="1210" 
d="M721 1434v-357h323v-221h-323v-367h323v-221h-323v-475h-232v475h-321v221h321v367h-321v221h321v357h232z" />
    <glyph glyph-name="bullet" unicode="&#x2022;" horiz-adv-x="962" 
d="M481 895q132 0 224 -89.5t92 -219.5t-92 -220t-224 -90t-222.5 89.5t-90.5 220.5q0 130 90.5 219.5t222.5 89.5z" />
    <glyph glyph-name="ellipsis" unicode="&#x2026;" horiz-adv-x="1656" 
d="M317 264q65 0 108.5 -40.5t43.5 -102.5q0 -63 -43.5 -104.5t-108.5 -41.5q-64 0 -106.5 41.5t-42.5 104.5t42 103t107 40zM827 264q65 0 108.5 -40.5t43.5 -102.5q0 -63 -43.5 -104.5t-108.5 -41.5q-64 0 -106.5 41.5t-42.5 104.5t42 103t107 40zM1337 264
q65 0 108.5 -40.5t43.5 -102.5q0 -63 -43.5 -104.5t-108.5 -41.5q-63 0 -106 41.5t-43 104.5q0 62 42.5 102.5t106.5 40.5z" />
    <glyph glyph-name="perthousand" unicode="&#x2030;" horiz-adv-x="3106" 
d="M555 596q-176 0 -281.5 112t-105.5 318t105.5 319t281.5 113q175 0 281 -113t106 -319t-106 -318t-281 -112zM1632 1434l-819 -1434h-223l819 1434h223zM555 776q184 0 184 250t-184 250t-184 -250t184 -250zM1669 838q175 0 281 -112t106 -318t-106 -319.5t-281 -113.5
q-176 0 -281.5 113.5t-105.5 319.5t105.5 318t281.5 112zM2552 838q176 0 281.5 -112t105.5 -318t-105.5 -319.5t-281.5 -113.5q-175 0 -281 113.5t-106 319.5t106 318t281 112zM1669 657q-186 0 -186 -249q0 -250 186 -250q184 0 184 250q0 249 -184 249zM2552 657
q-185 0 -185 -249q0 -250 185 -250q184 0 184 250q0 249 -184 249z" />
    <glyph glyph-name="guilsinglleft" unicode="&#x2039;" horiz-adv-x="935" 
d="M610 129l-442 442l442 443l158 -160l-285 -283l285 -282z" />
    <glyph glyph-name="guilsinglright" unicode="&#x203a;" horiz-adv-x="935" 
d="M326 129l-158 160l285 282l-285 283l158 160l442 -443z" />
    <glyph glyph-name="fraction" unicode="&#x2044;" horiz-adv-x="452" 
d="M-295 0l819 1434h224l-820 -1434h-223z" />
    <glyph glyph-name="uni2070" unicode="&#x2070;" horiz-adv-x="913" 
d="M457 739q-176 0 -281.5 112t-105.5 318t105.5 319.5t281.5 113.5q175 0 281 -113.5t106 -319.5t-106 -318t-281 -112zM457 920q184 0 184 249q0 250 -184 250q-185 0 -185 -250q0 -249 185 -249z" />
    <glyph glyph-name="uni2074" unicode="&#x2074;" horiz-adv-x="907" 
d="M838 1085v-161h-146v-162h-200v162h-422v161l374 492h248v-492h146zM233 1085h259v345z" />
    <glyph glyph-name="uni2075" unicode="&#x2075;" horiz-adv-x="843" 
d="M473 1303q133 0 217 -75t84 -198q0 -124 -87.5 -207.5t-250.5 -83.5q-157 0 -251.5 77t-114.5 194h202q13 -58 56 -90.5t102 -32.5q68 0 106.5 39.5t38.5 103.5q0 63 -38 103.5t-107 40.5q-84 0 -139 -72h-189l101 475h522v-156h-399l-39 -178q79 60 186 60z" />
    <glyph glyph-name="uni2076" unicode="&#x2076;" horiz-adv-x="823" 
d="M469 1298q131 0 209 -81t78 -191q0 -116 -90.5 -201.5t-249.5 -85.5q-84 0 -151.5 26.5t-109 70.5t-63.5 98.5t-22 114.5q0 38 7.5 73.5t30.5 78.5t43 75t66.5 89.5t78.5 95t101 116.5h213l-268 -299q68 20 127 20zM412 895q67 0 105 37.5t38 97.5t-37.5 97.5
t-105.5 37.5q-66 0 -105 -36.5t-39 -96.5t38.5 -98.5t105.5 -38.5z" />
    <glyph glyph-name="uni2077" unicode="&#x2077;" horiz-adv-x="753" 
d="M70 1577h614v-129l-338 -686h-188l325 653h-413v162z" />
    <glyph glyph-name="uni2078" unicode="&#x2078;" horiz-adv-x="856" 
d="M637 1192q66 -26 107.5 -80t41.5 -127q0 -109 -91.5 -177.5t-266.5 -68.5q-176 0 -267 68.5t-91 177.5q0 73 41 127t106 80q-123 54 -123 176q0 102 88 168t246 66t246 -66t88 -168q0 -122 -125 -176zM428 1452q-60 0 -95.5 -29t-35.5 -77q0 -47 34.5 -75t96.5 -28
t96.5 28t34.5 75q0 48 -35.5 77t-95.5 29zM428 887q75 0 115.5 31t40.5 83q0 51 -39.5 81t-116.5 30t-116.5 -30t-39.5 -81q0 -52 40.5 -83t115.5 -31z" />
    <glyph glyph-name="uni2079" unicode="&#x2079;" horiz-adv-x="823" 
d="M410 1602q84 0 151.5 -26.5t109 -71t63.5 -99t22 -113.5q0 -33 -8 -66.5t-18 -61t-36.5 -69t-45 -68t-63.5 -80.5t-71.5 -84.5t-87.5 -100.5h-211l266 301q-61 -21 -125 -21q-132 0 -209 80t-77 191q0 117 90 203t250 86zM412 1176q67 0 105 36t38 97q0 59 -37.5 97
t-105.5 38q-67 0 -105.5 -38t-38.5 -97q0 -60 37.5 -96.5t106.5 -36.5z" />
    <glyph glyph-name="Euro" unicode="&#x20ac;" horiz-adv-x="1826" 
d="M1055 197q150 0 265 74t175 202h248q-68 -225 -253.5 -361.5t-432.5 -136.5q-252 0 -442 137.5t-261 362.5h-258v176h223q-2 20 -2 66q0 41 2 61h-223v176h256q71 227 262 365.5t443 138.5q247 0 432.5 -136t253.5 -361h-248q-60 128 -175 202t-265 74q-153 0 -273.5 -76
t-181.5 -207h549v-176h-596q-2 -20 -2 -61q0 -46 4 -66h594v-176h-545q61 -129 179.5 -203.5t271.5 -74.5z" />
    <glyph glyph-name="uni2116" unicode="&#x2116;" horiz-adv-x="2529" 
d="M1948 633q-175 0 -296.5 119t-121.5 292q0 174 121.5 294t296.5 120q173 0 294 -120t121 -294t-120.5 -292.5t-294.5 -118.5zM1137 834v600h233v-1434h-274l-719 1108l22 -508v-600h-231v1434h274l715 -1106zM1948 1266q-93 0 -157.5 -64.5t-64.5 -157.5q0 -94 64 -157.5
t158 -63.5q92 0 154.5 63.5t62.5 157.5q0 93 -62.5 157.5t-154.5 64.5zM1556 334v176h783v-176h-783zM1556 0v176h783v-176h-783z" />
    <glyph glyph-name="trademark" unicode="&#x2122;" horiz-adv-x="1705" 
d="M168 1446v131h541v-131h-201v-496h-141v496h-199zM1380 1577h158v-627h-139v439l-213 -289h-8l-213 289v-439h-140v627h158l199 -270z" />
    <glyph glyph-name="oneeighth" unicode="&#x215b;" horiz-adv-x="1964" 
d="M510 618h-199v609l-241 -82v182l336 107h104v-816zM1182 1434h223l-819 -1434h-224zM1747 428q67 -26 108 -79.5t41 -127.5q0 -107 -91.5 -176.5t-266.5 -69.5q-176 0 -267 69t-91 177q0 74 41 127.5t108 79.5q-125 54 -125 176q0 103 88 168.5t246 65.5t246 -65.5
t88 -168.5q0 -122 -125 -176zM1538 690q-60 0 -95.5 -29.5t-35.5 -78.5q0 -46 35 -74.5t96 -28.5t96 28.5t35 74.5q0 49 -35.5 78.5t-95.5 29.5zM1538 125q75 0 115.5 30.5t40.5 82.5q0 53 -39.5 82.5t-116.5 29.5t-116.5 -29.5t-39.5 -82.5q0 -52 40.5 -82.5t115.5 -30.5z
" />
    <glyph glyph-name="threeeighths" unicode="&#x215c;" horiz-adv-x="2164" 
d="M788 854q0 -106 -87.5 -182t-254.5 -76q-164 0 -263 75.5t-113 202.5h202q26 -131 166 -131q70 0 109 32.5t39 86.5q0 53 -28.5 81t-80.5 28h-131v131h105q47 0 78.5 27t31.5 73q0 48 -34.5 77.5t-94.5 29.5t-98 -32.5t-47 -98.5h-203q11 128 104.5 204t247.5 76t241 -75
t87 -179q0 -98 -100 -151q57 -29 90.5 -80.5t33.5 -118.5zM1382 1434h224l-820 -1434h-223zM1946 428q67 -26 108 -79.5t41 -127.5q0 -107 -91.5 -176.5t-266.5 -69.5q-176 0 -267.5 69t-91.5 177q0 74 41.5 127.5t108.5 79.5q-125 54 -125 176q0 103 88 168.5t246 65.5
t246 -65.5t88 -168.5q0 -122 -125 -176zM1737 690q-60 0 -95.5 -29.5t-35.5 -78.5q0 -46 35 -74.5t96 -28.5t96 28.5t35 74.5q0 49 -35.5 78.5t-95.5 29.5zM1737 125q75 0 115 30.5t40 82.5q0 53 -39 82.5t-116 29.5t-116.5 -29.5t-39.5 -82.5q0 -52 40.5 -82.5t115.5 -30.5
z" />
    <glyph glyph-name="fiveeighths" unicode="&#x215d;" horiz-adv-x="2150" 
d="M774 887q0 -124 -87.5 -207.5t-250.5 -83.5q-157 0 -251.5 76.5t-114.5 193.5h202q13 -58 56 -90.5t102 -32.5q68 0 106.5 40t38.5 104q0 63 -38 103t-107 40q-84 0 -139 -72h-189l101 476h522v-156h-399l-39 -178q78 59 186 59q133 0 217 -74.5t84 -197.5zM1368 1434
h223l-819 -1434h-223zM1933 428q67 -26 108.5 -79.5t41.5 -127.5q0 -107 -92 -176.5t-267 -69.5q-176 0 -267 69t-91 177q0 74 41.5 127.5t108.5 79.5q-125 54 -125 176q0 103 87.5 168.5t245.5 65.5t246 -65.5t88 -168.5q0 -122 -125 -176zM1724 690q-60 0 -95.5 -29.5
t-35.5 -78.5q0 -46 35 -74.5t96 -28.5t96 28.5t35 74.5q0 49 -35.5 78.5t-95.5 29.5zM1724 125q75 0 115.5 30.5t40.5 82.5q0 53 -39.5 82.5t-116.5 29.5t-116 -29.5t-39 -82.5q0 -52 40 -82.5t115 -30.5z" />
    <glyph glyph-name="seveneighths" unicode="&#x215e;" horiz-adv-x="1931" 
d="M346 618h-188l325 654h-413v162h614v-129zM1147 1434h223l-819 -1434h-223zM1712 428q67 -26 108.5 -79.5t41.5 -127.5q0 -107 -92 -176.5t-267 -69.5q-176 0 -267 69t-91 177q0 74 41 127.5t108 79.5q-125 54 -125 176q0 103 88 168.5t246 65.5t246 -65.5t88 -168.5
q0 -122 -125 -176zM1503 690q-60 0 -95.5 -29.5t-35.5 -78.5q0 -46 35 -74.5t96 -28.5t96 28.5t35 74.5q0 49 -35.5 78.5t-95.5 29.5zM1503 125q75 0 115.5 30.5t40.5 82.5q0 53 -39.5 82.5t-116.5 29.5t-116 -29.5t-39 -82.5q0 -52 40 -82.5t115 -30.5z" />
    <glyph glyph-name="arrowleft" unicode="&#x2190;" horiz-adv-x="1847" 
d="M727 178l-559 559l559 561l162 -163l-291 -281h1083v-231h-1083l291 -281z" />
    <glyph glyph-name="arrowup" unicode="&#x2191;" horiz-adv-x="1454" 
d="M610 0v1026l-280 -289l-162 162l559 559l561 -559l-164 -164l-282 293v-1028h-232z" />
    <glyph glyph-name="arrowright" unicode="&#x2192;" horiz-adv-x="1847" 
d="M1120 156l-162 163l293 281h-1083v234h1081l-291 278l162 164l561 -559z" />
    <glyph glyph-name="arrowdown" unicode="&#x2193;" horiz-adv-x="1454" 
d="M727 -20l-559 559l162 163l282 -292v1083h232v-1083l280 290l164 -161z" />
    <glyph glyph-name="arrowboth" unicode="&#x2194;" horiz-adv-x="2410" 
d="M1686 178l-162 164l288 281h-1214l291 -281l-162 -164l-559 559l559 561l162 -163l-291 -281h1217l-293 281l164 163l559 -561z" />
    <glyph glyph-name="arrowupdn" unicode="&#x2195;" horiz-adv-x="1454" 
d="M727 -264l-559 559l162 164l282 -293v1091l-282 -292l-162 163l559 560l561 -560l-164 -161l-280 290v-1091l280 291l164 -162z" />
    <glyph glyph-name="uni2196" unicode="&#x2196;" horiz-adv-x="1486" 
d="M1155 139l-766 766l8 -403l-229 -2v790l790 2v-231l-405 10l766 -768z" />
    <glyph glyph-name="uni2197" unicode="&#x2197;" horiz-adv-x="1486" 
d="M330 102l-162 164l766 766l-406 -6v229h791l2 -792h-231l8 405z" />
    <glyph glyph-name="uni2198" unicode="&#x2198;" horiz-adv-x="1486" 
d="M526 180v232l408 -9l-766 766l164 164l764 -766l-6 404l229 2v-791z" />
    <glyph glyph-name="uni2199" unicode="&#x2199;" horiz-adv-x="1486" 
d="M168 164v792h231l-8 -405l766 766l164 -164l-766 -766l403 6v-229h-790z" />
    <glyph glyph-name="partialdiff" unicode="&#x2202;" horiz-adv-x="1413" 
d="M838 1458q281 0 363 -216.5t5 -696.5q-44 -270 -201.5 -420t-398.5 -150q-149 0 -256.5 69.5t-153.5 193.5t-22 280q18 113 67 201t119.5 142t154.5 82t177 28q102 0 189.5 -39.5t134.5 -120.5l2 8q11 125 2.5 208t-44 133.5t-84 71.5t-118.5 21q-160 0 -348 -82l-41 183
q209 104 453 104zM965 504q19 124 -43 206.5t-191 82.5q-127 0 -213.5 -76t-109.5 -213q-21 -138 41.5 -222.5t191.5 -84.5q127 0 214.5 84t109.5 223z" />
    <glyph glyph-name="emptyset" unicode="&#x2205;" horiz-adv-x="1673" 
d="M1505 1124l-202 -202q116 -150 116 -359q0 -166 -77 -301t-210.5 -211t-295.5 -76q-203 0 -359 121l-203 -202l-106 108l201 203q-117 156 -117 358q0 166 78.5 301.5t212 211t293.5 75.5q204 0 360 -121l203 203zM487 563q0 -110 48 -192l499 499q-89 60 -198 60
q-148 0 -248.5 -103t-100.5 -264zM1186 563q0 109 -49 193l-500 -500q86 -59 199 -59q150 0 250 102.5t100 263.5z" />
    <glyph glyph-name="product" unicode="&#x220f;" horiz-adv-x="1716" 
d="M1550 1434v-222h-192v-1212h-232v1212h-534v-1212h-232v1212h-192v222h1382z" />
    <glyph glyph-name="summation" unicode="&#x2211;" horiz-adv-x="1300" 
d="M1133 1434v-222h-639l456 -471v-49l-456 -471h639v-221h-965v207l491 510l-491 510v207h965z" />
    <glyph glyph-name="minus" unicode="&#x2212;" horiz-adv-x="1359" 
d="M1194 723v-221h-1026v221h1026z" />
    <glyph glyph-name="radical" unicode="&#x221a;" horiz-adv-x="1699" 
d="M1292 1434h242l-510 -1434h-281l-323 905h-252v221h418l301 -856z" />
    <glyph glyph-name="infinity" unicode="&#x221e;" horiz-adv-x="1816" 
d="M1280 932q161 0 266 -104.5t105 -264.5q0 -161 -105.5 -264.5t-265.5 -103.5q-206 0 -371 208q-165 -208 -372 -208q-160 0 -264.5 103.5t-104.5 264.5t105 265t264 104q203 0 372 -209q166 209 371 209zM537 379q83 0 142 47t118 137q-31 45 -55 73.5t-56 57t-69.5 41.5
t-81.5 13q-78 0 -126.5 -51.5t-48.5 -133.5q0 -83 48 -133.5t129 -50.5zM1280 379q79 0 128.5 51t49.5 133q0 83 -48.5 134t-129.5 51q-82 -1 -139.5 -47.5t-118.5 -137.5q63 -93 119.5 -138.5t138.5 -45.5z" />
    <glyph glyph-name="integral" unicode="&#x222b;" horiz-adv-x="1556" 
d="M1083 1602q149 0 228.5 -86t79.5 -244h-162q0 57 -31.5 91t-93.5 34q-72 0 -107 -48.5t-45 -142.5l-116 -1329q-15 -202 -109 -308t-254 -106q-148 0 -226.5 86t-78.5 244h160q0 -57 32 -91t95 -34q70 0 104.5 48.5t44.5 142.5l117 1329q15 202 108.5 308t253.5 106z" />
    <glyph glyph-name="approxequal" unicode="&#x2248;" horiz-adv-x="1259" 
d="M858 674q-41 0 -84.5 14.5t-72 30t-85.5 49.5q-24 13 -58 33.5t-49 28.5t-35 15t-38 7q-102 0 -102 -154h-166q0 163 61.5 242.5t171.5 79.5q41 0 84.5 -14.5t72 -30t85.5 -49.5q24 -13 58 -33.5t49 -28.5t35 -15t38 -7q103 0 103 153h166q0 -163 -62 -242t-172 -79z
M858 276q-40 0 -84.5 15t-72 30t-85.5 50q-24 13 -58 33.5t-49 28.5t-35 15t-38 7q-102 0 -102 -154h-166q0 163 61.5 242.5t171.5 79.5q14 0 27.5 -1t28.5 -5.5t24.5 -6.5t27.5 -10.5t24.5 -10.5t27.5 -14t25 -14t29 -16.5t28 -16.5q24 -13 58 -33.5t49 -28.5t35 -15t38 -7
q103 0 103 154h166q0 -163 -62 -242.5t-172 -79.5z" />
    <glyph glyph-name="notequal" unicode="&#x2260;" horiz-adv-x="1359" 
d="M958 1241l-81 -311h317v-213h-373l-51 -195h424v-211h-481l-82 -311h-234l82 311h-311v211h367l51 195h-418v213h473l84 311h233z" />
    <glyph glyph-name="lessequal" unicode="&#x2264;" horiz-adv-x="1359" 
d="M1194 1057v-189l-627 -137l627 -137v-191l-1026 250v156zM1194 299v-176h-1026v176h1026z" />
    <glyph glyph-name="greaterequal" unicode="&#x2265;" horiz-adv-x="1359" 
d="M168 1057l1026 -248v-156l-1026 -250v191l627 137l-627 137v189zM1194 299v-176h-1026v176h1026z" />
    <glyph glyph-name="lozenge" unicode="&#x25ca;" horiz-adv-x="1624" 
d="M811 1266l645 -645l-645 -646l-643 646zM811 938l-317 -317l317 -318l319 318z" />
    <glyph glyph-name="A.001" horiz-adv-x="1531" 
d="M1223 0l-146 385h-622l-146 -385h-246l555 1434h295l555 -1434h-245zM539 604h454l-227 600z" />
    <glyph glyph-name="zero.subs" horiz-adv-x="913" 
d="M457 739q-176 0 -281.5 112t-105.5 318t105.5 319.5t281.5 113.5q175 0 281 -113.5t106 -319.5t-106 -318t-281 -112zM457 920q184 0 184 249q0 250 -184 250q-185 0 -185 -250q0 -249 185 -249z" />
    <glyph glyph-name="one.subs" horiz-adv-x="579" 
d="M406 1577h104v-815h-199v608l-241 -82v182z" />
    <glyph glyph-name="two.subs" horiz-adv-x="860" 
d="M340 924h451v-162h-721v145l299 226q115 87 150.5 126.5t35.5 88.5q0 47 -32 75.5t-91 28.5q-132 0 -149 -147h-203q11 130 103.5 213.5t252.5 83.5q79 0 142 -22.5t101.5 -60.5t58.5 -84.5t20 -97.5q0 -91 -65 -161.5t-210 -159.5z" />
    <glyph glyph-name="three.subs" horiz-adv-x="858" 
d="M664 1196q57 -27 90.5 -78.5t33.5 -120.5q0 -106 -87.5 -182t-254.5 -76q-164 0 -263 76t-113 203h202q26 -131 166 -131q70 0 109 32.5t39 86.5q0 53 -28.5 80.5t-80.5 27.5h-131v131h105q47 0 78.5 27.5t31.5 73.5q0 48 -34 77t-95 29q-60 0 -98 -32.5t-47 -98.5h-203
q11 128 105 204.5t247 76.5q154 0 241 -75t87 -179q0 -101 -100 -152z" />
    <glyph glyph-name="four.subs" horiz-adv-x="907" 
d="M838 1085v-161h-146v-162h-200v162h-422v161l374 492h248v-492h146zM233 1085h259v347z" />
    <glyph glyph-name="five.subs" horiz-adv-x="843" 
d="M473 1303q133 0 217 -75t84 -198q0 -124 -87.5 -207.5t-250.5 -83.5q-157 0 -251.5 77t-114.5 194h202q13 -58 56 -90.5t102 -32.5q68 0 106.5 39.5t38.5 103.5q0 63 -38 103.5t-107 40.5q-84 0 -139 -72h-189l101 475h522v-156h-401l-37 -180q78 62 186 62z" />
    <glyph glyph-name="six.subs" horiz-adv-x="823" 
d="M469 1298q131 0 209 -81t78 -191q0 -116 -90.5 -201.5t-249.5 -85.5q-84 0 -151.5 26.5t-109 70.5t-63.5 98.5t-22 114.5q0 38 7.5 73.5t30.5 78.5t43 75t66.5 89.5t78.5 95t101 116.5h213l-268 -299q68 20 127 20zM412 895q67 0 105 37.5t38 97.5t-37.5 97.5
t-105.5 37.5q-66 0 -105 -36.5t-39 -96.5t38.5 -98.5t105.5 -38.5z" />
    <glyph glyph-name="seven.subs" horiz-adv-x="753" 
d="M70 1577h614v-129l-338 -686h-188l325 653h-413v162z" />
    <glyph glyph-name="eight.subs" horiz-adv-x="856" 
d="M639 1192q65 -26 106 -80t41 -127q0 -109 -91.5 -177.5t-266.5 -68.5q-176 0 -267 68.5t-91 177.5q0 73 41 127t106 80q-56 25 -89.5 69.5t-33.5 106.5q0 102 88 168t246 66t246 -66t88 -168q0 -62 -33.5 -106.5t-89.5 -69.5zM428 1452q-60 0 -95.5 -29t-35.5 -77
q0 -47 34.5 -75t96.5 -28t96.5 28t34.5 75q0 48 -35.5 77t-95.5 29zM428 887q75 0 115.5 31t40.5 83q0 51 -39.5 81t-116.5 30t-116.5 -30t-39.5 -81q0 -52 40.5 -83t115.5 -31z" />
    <glyph glyph-name="nine.subs" horiz-adv-x="823" 
d="M410 1602q84 0 151.5 -26.5t109 -71t63.5 -99t22 -113.5q0 -33 -8 -66.5t-18 -61t-36.5 -69t-45 -68t-63.5 -80.5t-71.5 -84.5t-87.5 -100.5h-211l266 301q-72 -21 -125 -21q-132 0 -209 80t-77 191q0 117 90 203t250 86zM412 1176q67 0 105 36t38 97q0 59 -37.5 97
t-105.5 38q-67 0 -105.5 -38t-38.5 -97q0 -60 37.5 -96.5t106.5 -36.5z" />
    <glyph glyph-name="zero.dnom" horiz-adv-x="913" 
d="M457 -25q-176 0 -281.5 113.5t-105.5 319.5t105.5 318t281.5 112q175 0 281 -112t106 -318t-106 -319.5t-281 -113.5zM457 158q184 0 184 250q0 249 -184 249q-185 0 -185 -249q0 -250 185 -250z" />
    <glyph glyph-name="one.dnom" horiz-adv-x="579" 
d="M406 815h104v-815h-199v608l-241 -82v181z" />
    <glyph glyph-name="two.dnom" horiz-adv-x="860" 
d="M342 162h449v-162h-721v143l299 226q117 90 151.5 128t34.5 87q0 48 -32 77t-91 29q-132 0 -149 -149h-203q11 130 103.5 213.5t252.5 83.5q154 0 238 -78t84 -185q0 -91 -64.5 -161.5t-210.5 -161.5z" />
    <glyph glyph-name="three.dnom" horiz-adv-x="858" 
d="M664 434q57 -29 90.5 -80.5t33.5 -120.5q0 -106 -87.5 -182t-254.5 -76q-164 0 -263 77t-113 204h202q26 -131 166 -131q70 0 109 32.5t39 84.5q0 53 -28.5 81.5t-80.5 28.5h-131v129h105q47 0 78.5 28t31.5 73q0 48 -34.5 78t-94.5 30t-98 -33t-47 -98h-203
q11 126 105 202.5t247 76.5q154 0 241 -74.5t87 -177.5q0 -99 -100 -152z" />
    <glyph glyph-name="four.dnom" horiz-adv-x="907" 
d="M838 324v-162h-146v-162h-200v162h-422v162l374 491h248v-491h146zM233 324h259v344z" />
    <glyph glyph-name="five.dnom" horiz-adv-x="843" 
d="M473 541q133 0 217 -75.5t84 -197.5q0 -125 -87.5 -209t-250.5 -84q-157 0 -251.5 77.5t-114.5 193.5h202q13 -58 55.5 -89.5t102.5 -31.5q68 0 106.5 39.5t38.5 103.5q0 63 -38 103.5t-107 40.5q-85 0 -139 -74h-189l101 477h522v-156h-399l-39 -180q78 62 186 62z" />
    <glyph glyph-name="six.dnom" horiz-adv-x="823" 
d="M469 535q130 0 208.5 -81t78.5 -190q0 -117 -90 -203t-250 -86q-84 0 -151.5 26.5t-109 71t-63.5 99t-22 113.5q0 46 15 93t35.5 86.5t69.5 103t88 109.5t119 138h213l-268 -301q62 21 127 21zM412 133q67 0 105 37.5t38 97.5q0 59 -37.5 96t-105.5 37q-66 0 -105 -36.5
t-39 -96.5q0 -59 38.5 -97t105.5 -38z" />
    <glyph glyph-name="seven.dnom" horiz-adv-x="753" 
d="M70 815h614v-129l-338 -686h-188l325 653h-413v162z" />
    <glyph glyph-name="eight.dnom" horiz-adv-x="856" 
d="M637 428q66 -26 107.5 -80t41.5 -127q0 -107 -91.5 -176.5t-266.5 -69.5q-176 0 -267 69t-91 177q0 73 41 127t106 80q-56 25 -89.5 69.5t-33.5 106.5q0 103 88 168.5t246 65.5t246 -65.5t88 -168.5q0 -62 -34 -106.5t-91 -69.5zM428 690q-60 0 -95.5 -29.5t-35.5 -78.5
q0 -46 35 -74.5t96 -28.5t96 28.5t35 74.5q0 49 -35.5 78.5t-95.5 29.5zM428 125q75 0 115.5 30.5t40.5 82.5q0 53 -39.5 82.5t-116.5 29.5t-116.5 -29.5t-39.5 -82.5q0 -52 40.5 -82.5t115.5 -30.5z" />
    <glyph glyph-name="nine.dnom" horiz-adv-x="823" 
d="M410 838q84 0 151.5 -26.5t109 -70.5t63.5 -98.5t22 -114.5q0 -104 -66.5 -203.5t-250.5 -309.5q-9 -10 -13 -15h-211l266 299q-68 -20 -125 -20q-131 0 -208.5 80t-77.5 190q0 56 21.5 107t62.5 92t107.5 65.5t148.5 24.5zM412 412q67 0 105 36t38 97t-37.5 99
t-105.5 38q-67 0 -105.5 -38.5t-38.5 -98.5q0 -59 38 -96t106 -37z" />
    <glyph glyph-name="zero.numr" horiz-adv-x="913" 
d="M457 596q-176 0 -281.5 112t-105.5 318t105.5 319t281.5 113q175 0 281 -113t106 -319t-106 -318t-281 -112zM457 776q184 0 184 250t-184 250q-185 0 -185 -250t185 -250z" />
    <glyph glyph-name="one.numr" horiz-adv-x="579" 
d="M406 1434h104v-816h-199v609l-241 -82v182z" />
    <glyph glyph-name="two.numr" horiz-adv-x="860" 
d="M342 780h449v-162h-721v146l299 225q115 87 150.5 126.5t35.5 88.5q0 47 -32.5 76t-90.5 29q-132 0 -149 -148h-203q11 130 103.5 213.5t252.5 83.5q79 0 142 -22.5t101.5 -60t58.5 -84t20 -97.5q0 -91 -65 -162t-210 -160z" />
    <glyph glyph-name="three.numr" horiz-adv-x="858" 
d="M664 1053q57 -29 90.5 -80.5t33.5 -118.5q0 -106 -87.5 -182t-254.5 -76q-164 0 -263 75.5t-113 202.5h202q26 -131 166 -131q70 0 109 32.5t39 86.5q0 53 -28.5 81t-80.5 28h-131v131h105q47 0 78.5 27t31.5 73q0 48 -34.5 77.5t-94.5 29.5t-98 -32.5t-47 -98.5h-203
q11 128 104.5 204t247.5 76t241 -75t87 -179q0 -98 -100 -151z" />
    <glyph glyph-name="four.numr" horiz-adv-x="907" 
d="M838 942v-162h-146v-162h-200v162h-422v162l374 492h248v-492h146zM233 942h259v344z" />
    <glyph glyph-name="five.numr" horiz-adv-x="843" 
d="M473 1159q133 0 217 -74.5t84 -197.5q0 -124 -87.5 -207.5t-250.5 -83.5q-157 0 -251.5 76.5t-114.5 193.5h202q13 -58 56 -90.5t102 -32.5q68 0 106.5 40t38.5 104q0 63 -38 103t-107 40q-84 0 -139 -72h-189l101 476h522v-156h-399l-39 -178q78 59 186 59z" />
    <glyph glyph-name="six.numr" horiz-adv-x="823" 
d="M469 1155q131 0 209 -81t78 -191q0 -116 -90.5 -201.5t-249.5 -85.5q-84 0 -151.5 26t-109 70t-63.5 98.5t-22 114.5q0 46 15 93t35.5 86t69.5 103t87.5 109t119.5 138h213l-268 -299q68 20 127 20zM412 752q67 0 105 37.5t38 97.5q0 61 -37.5 98t-105.5 37
q-66 0 -105 -36.5t-39 -96.5t38.5 -98.5t105.5 -38.5z" />
    <glyph glyph-name="seven.numr" horiz-adv-x="753" 
d="M70 1434h614v-129l-338 -687h-188l325 654h-413v162z" />
    <glyph glyph-name="eight.numr" horiz-adv-x="856" 
d="M637 1049q66 -26 107.5 -80t41.5 -127q0 -109 -91.5 -177.5t-266.5 -68.5q-176 0 -267 68.5t-91 177.5q0 73 41 127t106 80q-123 54 -123 176q0 102 88 167.5t246 65.5t246 -65.5t88 -167.5q0 -122 -125 -176zM428 1309q-59 0 -95 -29.5t-36 -77.5q0 -47 34.5 -74.5
t96.5 -27.5t96.5 27.5t34.5 74.5q0 48 -36 77.5t-95 29.5zM428 743q75 0 115.5 31.5t40.5 83.5q0 51 -39.5 81t-116.5 30t-116.5 -30t-39.5 -81q0 -52 40.5 -83.5t115.5 -31.5z" />
    <glyph glyph-name="nine.numr" horiz-adv-x="823" 
d="M410 1458q84 0 151.5 -26.5t109 -70.5t63.5 -98.5t22 -113.5q0 -46 -15.5 -93.5t-36 -86t-71 -104t-87.5 -109t-120 -138.5h-211l266 302q-61 -21 -125 -21q-132 0 -209 79.5t-77 190.5q0 117 90 203t250 86zM412 1032q67 0 105 36t38 97q0 59 -37.5 97t-105.5 38
q-67 0 -105.5 -38t-38.5 -97q0 -60 37.5 -96.5t106.5 -36.5z" />
    <glyph glyph-name="uni0308.case" 
d="M-772 1923q60 0 98.5 -38t38.5 -95t-38.5 -95t-98.5 -38q-59 0 -98 38t-39 95t39 95t98 38zM-307 1923q60 0 99.5 -38t39.5 -95t-39.5 -95t-99.5 -38t-99.5 38t-39.5 95t39.5 95t99.5 38z" />
    <glyph glyph-name="uni0307.case" 
d="M-305 1923q60 0 98.5 -38t38.5 -95t-38.5 -95t-98.5 -38q-59 0 -98 38t-39 95t39 95t98 38z" />
    <glyph glyph-name="gravecomb.case" 
d="M-504 2017l336 -336l-106 -104l-367 301z" />
    <glyph glyph-name="acutecomb.case" 
d="M-307 2017l139 -139l-369 -301l-104 104z" />
    <glyph glyph-name="uni030B.case" 
d="M-586 2032l144 -68l-242 -387l-104 51zM-311 2032l143 -68l-242 -387l-104 51z" />
    <glyph glyph-name="uni0302.case" 
d="M-166 1702l-127 -125l-209 221l-209 -221l-125 125l334 336z" />
    <glyph glyph-name="uni030C.case" 
d="M-166 1917l-336 -336l-334 336l125 125l209 -221l209 221z" />
    <glyph glyph-name="uni0306.case" 
d="M-162 1956v-45q0 -144 -97.5 -232t-236.5 -88q-140 0 -237.5 87.5t-97.5 232.5v45h184v-39q0 -68 41 -108t110 -40q68 0 109 40.5t41 107.5v39h184z" />
    <glyph glyph-name="uni030A.case" 
d="M-426 2093q108 0 183.5 -75.5t74.5 -182.5q1 -107 -75.5 -182.5t-182.5 -75.5t-181 75.5t-75 182.5t74.5 182.5t181.5 75.5zM-426 1956q-50 0 -85 -35t-34 -88q-1 -52 34 -87.5t85 -35.5q51 0 86 35.5t35 87.5q0 53 -34.5 88t-86.5 35z" />
    <glyph glyph-name="tildecomb.case" 
d="M-311 1911h143q0 -162 -56.5 -237t-156.5 -75q-46 0 -80 17t-86 61q-29 25 -42.5 35.5t-36.5 21.5t-44 11q-75 0 -75 -129h-144q0 309 211 309q48 0 80.5 -17t85.5 -61q31 -25 44.5 -35.5t36 -21t42.5 -10.5q78 0 78 131z" />
    <glyph glyph-name="uni0304.case" 
d="M-168 1874v-172h-512v172h512z" />
    <glyph glyph-name="uni0327.case" 
d="M-354 -162q80 -15 133 -60.5t53 -123.5q0 -94 -80 -142.5t-217 -48.5q-49 0 -121 9v118q64 -8 94 -8q67 0 105.5 21t38.5 63q0 87 -187 103l101 231h160z" />
    <glyph glyph-name="uni0328.case" 
d="M-168 -528q-72 -9 -125 -9q-122 0 -193 48.5t-71 148.5q0 36 12.5 72.5t29 64t53 67t62 64t78.5 72.5h154q-124 -137 -166.5 -196.5t-42.5 -114.5q0 -95 121 -95q44 0 88 11v-133z" />
    <glyph glyph-name="newGlyph" horiz-adv-x="1228" 
 />
    <glyph glyph-name="Bitcoinsymbol" horiz-adv-x="1345" 
d="M1262 406q0 -151 -79 -251t-227 -137v-274h-204v256h-226v-256h-207v256h-151v1434h151v254h207v-254h226v254h204v-277q127 -35 194 -123.5t67 -222.5q0 -111 -47 -184.5t-144 -118.5q117 -36 176.5 -130t59.5 -226zM981 1028q0 95 -54 139.5t-177 44.5h-351v-374h353
q122 0 175.5 48t53.5 142zM782 221q134 0 190 52t56 151q0 100 -57.5 151.5t-192.5 51.5h-379v-406h383z" />
    </font>
</defs>
</svg>
