<svg width="188" height="152" viewBox="0 0 188 152" fill="none" xmlns="http://www.w3.org/2000/svg">
<path d="M173.196 148.031H14.8027V151.732H173.196V148.031Z" fill="#B5D9D9"/>
<path opacity="0.1" d="M188 0H0V148.031H188V0Z" fill="white"/>
<path d="M173.196 0H14.8027V148.031H173.196V0Z" fill="#383838"/>
<path d="M168.016 0H19.9844V148.031H168.016V0Z" fill="#DF332A"/>
<path d="M39.6904 6.36523V20.0566H39.6914V20.0723H26.0762V23.5928H39.6914V29.6758H26.252V33.1963H39.6914V39.2793H26.0342V42.7998H39.6914V48.8828H26.21V52.4033H39.6914V68.0898H26.1719V71.6104H39.6914V87.29H26.1338V90.8105H39.6914V106.497H26.0918V110.018H39.6914V125.704H26.0537V129.225H39.6904V142.885H26V119.621H39.5684V116.101H26V100.414H39.6064V96.8936H26V81.2139H39.6484V77.6934H26V62.0068H39.6875V58.4863H26V6.36523H39.6904ZM43.2109 6.36523H49.4707V20.0566H43.2109V6.36523ZM52.9912 6.36523H58.8604V20.0566H52.9912V6.36523ZM62.3809 6.36523H68.6396V20.0566H62.3809V6.36523ZM72.1602 6.36523H78.0254V20.0566H72.1602V6.36523ZM81.5459 6.36523H87.8047V20.0566H81.5459V6.36523ZM91.3252 6.36523H97.1943V20.0566H91.3252V6.36523ZM100.715 6.36523H106.974V20.0566H100.715V6.36523ZM110.494 6.36523H116.359V20.0566H110.494V6.36523ZM119.88 6.36523H126.139V20.0566H119.88V6.36523ZM129.659 6.36523H135.918V20.0566H129.659V6.36523ZM139.438 6.36523H145.308V20.0566H139.438V6.36523ZM148.828 6.36523H162.52V20.0645H148.895V23.585H162.52V29.668H149.074V33.1885H162.52V39.2715H148.856V42.792H162.52V48.875H149.032V52.3955H162.52V68.0752H148.994V71.5957H162.52V87.2822H148.956V90.8027H162.52V106.489H148.914V110.01H162.52V125.696H148.876V129.217H162.52V142.885H148.828V129.195H145.308V142.885H139.438V129.195H135.918V142.885H129.659V129.195H126.139V142.885H119.88V129.195H116.359V142.885H110.494V129.195H106.974V142.885H100.715V129.195H97.1943V142.885H91.3252V129.195H87.8047V142.885H81.5459V129.195H78.0254V142.885H72.1602V129.195H68.6396V142.885H62.3809V129.195H58.8604V142.885H52.9912V129.195H49.4707V142.885H43.2109V129.195H39.7441V129.194H148.829V119.613H162.392V116.093H148.829V100.406H162.43V96.8857H148.829V81.1992H162.472V77.6787H148.829V61.999H162.51V58.4785H148.829V20.0566H148.828V6.36523Z" fill="white"/>
</svg>
