<svg width="254" height="205" viewBox="0 0 254 205" fill="none" xmlns="http://www.w3.org/2000/svg">
<path d="M234 200H20V205H234V200Z" fill="#B5D9D9"/>
<path opacity="0.1" d="M254 0H0V200H254V0Z" fill="white"/>
<path d="M234 0H20V200H234V0Z" fill="#383838"/>
<path d="M227 0H27V200H227V0Z" fill="#015F2D"/>
<path d="M227 0V28.9473H27V0H227ZM33.2979 19.5586H29.3613L32.5107 21.9062L31.3301 25.8174L34.873 23.4707L38.417 25.8174L36.8418 21.9062L40.3848 19.5586H36.0547L34.873 15.2559L33.2979 19.5586ZM59.6738 19.5586H55.3428L58.8867 21.9062L57.7051 25.8174L60.8545 23.4707L64.3984 25.8174L63.2168 21.9062L66.7607 19.5586H62.4297L60.8545 15.2559L59.6738 19.5586ZM86.0537 19.5586H81.7227L85.2656 21.9062L83.6914 25.8174L87.2344 23.4707L90.7773 25.8174L89.5967 21.9062L92.7461 19.5586H88.415L87.2344 15.2559L86.0537 19.5586ZM112.039 19.5586H107.708L111.251 21.9062L110.07 25.8174L113.613 23.4707L117.157 25.8174L115.582 21.9062L119.125 19.5586H114.795L113.613 15.2559L112.039 19.5586ZM138.415 19.5586H134.084L137.627 21.9062L136.446 25.8174L139.596 23.4707L143.139 25.8174L141.958 21.9062L145.501 19.5586H141.171L139.596 15.2559L138.415 19.5586ZM164.792 19.5586H160.462L164.005 21.9062L162.43 25.8174L165.974 23.4707L169.517 25.8174L167.941 21.9062L171.485 19.5586H167.154L165.974 15.2559L164.792 19.5586ZM190.78 19.5586H186.449L189.992 21.9062L188.812 25.8174L192.354 23.4707L195.505 25.8174L194.323 21.9062L197.866 19.5586H193.536L192.354 15.2559L190.78 19.5586ZM217.153 19.5586H212.823L216.366 21.9062L214.791 25.8174L218.335 23.4707L221.878 25.8174L220.697 21.9062L223.847 19.5586H219.909L218.335 15.2559L217.153 19.5586ZM46.291 6.64648H41.96L45.5029 9.38477L43.9287 13.2959L47.4717 10.9492L51.0146 13.2959L49.4404 9.38477L52.9834 6.64648H48.6523L47.4717 2.73438L46.291 6.64648ZM72.2734 6.64648H67.9424L71.4854 9.38477L70.3047 13.2959L73.8477 10.9492L76.9971 13.2959L75.8164 9.38477L79.3594 6.64648H75.0293L73.8477 2.73438L72.2734 6.64648ZM98.6523 6.64648H94.3213L97.8643 9.38477L96.29 13.2959L99.833 10.9492L103.377 13.2959L102.195 9.38477L105.345 6.64648H101.408L99.833 2.73438L98.6523 6.64648ZM124.637 6.64648H120.7L123.85 9.38477L122.669 13.2959L126.212 10.9492L129.755 13.2959L128.181 9.38477L131.724 6.64648H127.393L126.212 2.73438L124.637 6.64648ZM151.014 6.64648H146.683L150.226 9.38477L149.045 13.2959L152.194 10.9492L155.737 13.2959L154.557 9.38477L158.1 6.64648H153.77L152.194 2.73438L151.014 6.64648ZM177.392 6.64648H173.062L176.604 9.38477L175.03 13.2959L178.573 10.9492L182.116 13.2959L180.936 9.38477L184.085 6.64648H179.754L178.573 2.73438L177.392 6.64648ZM203.379 6.64648H199.048L202.591 9.38477L201.41 13.2959L204.953 10.9492L208.497 13.2959L206.922 9.38477L210.465 6.64648H206.135L204.953 2.73438L203.379 6.64648Z" fill="#D1AC86"/>
<path d="M227 171V199.947H27V171H227ZM33.2979 190.559H29.3613L32.5107 192.906L31.3301 196.817L34.873 194.471L38.417 196.817L36.8418 192.906L40.3848 190.559H36.0547L34.873 186.256L33.2979 190.559ZM59.6738 190.559H55.3428L58.8867 192.906L57.7051 196.817L60.8545 194.471L64.3984 196.817L63.2168 192.906L66.7607 190.559H62.4297L60.8545 186.256L59.6738 190.559ZM86.0537 190.559H81.7227L85.2656 192.906L83.6914 196.817L87.2344 194.471L90.7773 196.817L89.5967 192.906L92.7461 190.559H88.415L87.2344 186.256L86.0537 190.559ZM112.039 190.559H107.708L111.251 192.906L110.07 196.817L113.613 194.471L117.157 196.817L115.582 192.906L119.125 190.559H114.795L113.613 186.256L112.039 190.559ZM138.415 190.559H134.084L137.627 192.906L136.446 196.817L139.596 194.471L143.139 196.817L141.958 192.906L145.501 190.559H141.171L139.596 186.256L138.415 190.559ZM164.792 190.559H160.462L164.005 192.906L162.43 196.817L165.974 194.471L169.517 196.817L167.941 192.906L171.485 190.559H167.154L165.974 186.256L164.792 190.559ZM190.78 190.559H186.449L189.992 192.906L188.812 196.817L192.354 194.471L195.505 196.817L194.323 192.906L197.866 190.559H193.536L192.354 186.256L190.78 190.559ZM217.153 190.559H212.823L216.366 192.906L214.791 196.817L218.335 194.471L221.878 196.817L220.697 192.906L223.847 190.559H219.909L218.335 186.256L217.153 190.559ZM46.291 177.646H41.96L45.5029 180.385L43.9287 184.296L47.4717 181.949L51.0146 184.296L49.4404 180.385L52.9834 177.646H48.6523L47.4717 173.734L46.291 177.646ZM72.2734 177.646H67.9424L71.4854 180.385L70.3047 184.296L73.8477 181.949L76.9971 184.296L75.8164 180.385L79.3594 177.646H75.0293L73.8477 173.734L72.2734 177.646ZM98.6523 177.646H94.3213L97.8643 180.385L96.29 184.296L99.833 181.949L103.377 184.296L102.195 180.385L105.345 177.646H101.408L99.833 173.734L98.6523 177.646ZM124.637 177.646H120.7L123.85 180.385L122.669 184.296L126.212 181.949L129.755 184.296L128.181 180.385L131.724 177.646H127.393L126.212 173.734L124.637 177.646ZM151.014 177.646H146.683L150.226 180.385L149.045 184.296L152.194 181.949L155.737 184.296L154.557 180.385L158.1 177.646H153.77L152.194 173.734L151.014 177.646ZM177.392 177.646H173.062L176.604 180.385L175.03 184.296L178.573 181.949L182.116 184.296L180.936 180.385L184.085 177.646H179.754L178.573 173.734L177.392 177.646ZM203.379 177.646H199.048L202.591 180.385L201.41 184.296L204.953 181.949L208.497 184.296L206.922 180.385L210.465 177.646H206.135L204.953 173.734L203.379 177.646Z" fill="#D1AC86"/>
</svg>
