<svg width="254" height="205" viewBox="0 0 254 205" fill="none" xmlns="http://www.w3.org/2000/svg">
<path d="M234 200H20V205H234V200Z" fill="#B5D9D9"/>
<path opacity="0.1" d="M254 0H0V200H254V0Z" fill="white"/>
<path d="M234 0H20V200H234V0Z" fill="#383838"/>
<path d="M227 0H27V200H227V0Z" fill="#015F2D"/>
<path d="M31.7337 0H27V26.2087H31.7337V0Z" fill="white"/>
<path d="M41.595 0H36.8613V26.2087H41.595V0Z" fill="white"/>
<path d="M51.4573 0H46.7236V26.2087H51.4573V0Z" fill="white"/>
<path d="M61.3186 0H56.585V26.2087H61.3186V0Z" fill="white"/>
<path d="M71.1808 0H66.4471V26.2087H71.1808V0Z" fill="white"/>
<path d="M81.0423 0H76.3086V26.2087H81.0423V0Z" fill="white"/>
<path d="M90.9044 0H86.1708V26.2087H90.9044V0Z" fill="white"/>
<path d="M100.766 0H96.0322V26.2087H100.766V0Z" fill="white"/>
<path d="M110.628 0H105.894V26.2087H110.628V0Z" fill="white"/>
<path d="M120.489 0H115.756V26.2087H120.489V0Z" fill="white"/>
<path d="M130.352 0H125.618V26.2087H130.352V0Z" fill="white"/>
<path d="M140.214 0H135.48V26.2087H140.214V0Z" fill="white"/>
<path d="M150.076 0H145.343V26.2087H150.076V0Z" fill="white"/>
<path d="M159.938 0H155.204V26.2087H159.938V0Z" fill="white"/>
<path d="M169.8 0H165.066V26.2087H169.8V0Z" fill="white"/>
<path d="M179.661 0H174.928V26.2087H179.661V0Z" fill="white"/>
<path d="M189.13 0H184.396V26.2087H189.13V0Z" fill="white"/>
<path d="M198.992 0H194.259V26.2087H198.992V0Z" fill="white"/>
<path d="M208.854 0H204.12V26.2087H208.854V0Z" fill="white"/>
<path d="M218.716 0H213.982V26.2087H218.716V0Z" fill="white"/>
<path d="M226.999 0H223.844V26.2087H226.999V0Z" fill="white"/>
<path d="M31.7337 174H27V200.209H31.7337V174Z" fill="white"/>
<path d="M41.595 174H36.8613V200.209H41.595V174Z" fill="white"/>
<path d="M51.4573 174H46.7236V200.209H51.4573V174Z" fill="white"/>
<path d="M61.3186 174H56.585V200.209H61.3186V174Z" fill="white"/>
<path d="M71.1808 174H66.4471V200.209H71.1808V174Z" fill="white"/>
<path d="M81.0423 174H76.3086V200.209H81.0423V174Z" fill="white"/>
<path d="M90.9044 174H86.1708V200.209H90.9044V174Z" fill="white"/>
<path d="M100.766 174H96.0322V200.209H100.766V174Z" fill="white"/>
<path d="M110.628 174H105.894V200.209H110.628V174Z" fill="white"/>
<path d="M120.489 174H115.756V200.209H120.489V174Z" fill="white"/>
<path d="M130.352 174H125.618V200.209H130.352V174Z" fill="white"/>
<path d="M140.214 174H135.48V200.209H140.214V174Z" fill="white"/>
<path d="M150.076 174H145.343V200.209H150.076V174Z" fill="white"/>
<path d="M159.938 174H155.204V200.209H159.938V174Z" fill="white"/>
<path d="M169.8 174H165.066V200.209H169.8V174Z" fill="white"/>
<path d="M179.661 174H174.928V200.209H179.661V174Z" fill="white"/>
<path d="M189.13 174H184.396V200.209H189.13V174Z" fill="white"/>
<path d="M198.992 174H194.259V200.209H198.992V174Z" fill="white"/>
<path d="M208.854 174H204.12V200.209H208.854V174Z" fill="white"/>
<path d="M218.716 174H213.982V200.209H218.716V174Z" fill="white"/>
<path d="M226.999 174H223.844V200.209H226.999V174Z" fill="white"/>
</svg>
