<svg width="254" height="205" viewBox="0 0 254 205" fill="none" xmlns="http://www.w3.org/2000/svg">
<path d="M234 200H20V205H234V200Z" fill="#B5D9D9"/>
<path opacity="0.1" d="M254 0H0V200H254V0Z" fill="white"/>
<path d="M234 0H20V200H234V0Z" fill="#383838"/>
<path d="M227 0H27V200H227V0Z" fill="#DF332A"/>
<mask id="mask0_210_2962" style="mask-type:luminance" maskUnits="userSpaceOnUse" x="27" y="0" width="200" height="200">
<path d="M227 0H27V200H227V0Z" fill="white"/>
</mask>
<g mask="url(#mask0_210_2962)">
<path d="M38.0235 209.051C37.2361 209.051 36.8424 208.657 36.4487 208.263L18.7322 190.547C17.9448 189.759 17.9448 188.185 18.7322 187.397C19.5196 186.61 21.0943 186.61 21.8817 187.397L39.5982 205.114C40.3856 205.901 40.3856 207.476 39.5982 208.263C39.2045 208.657 38.4172 209.051 38.0235 209.051Z" fill="white"/>
<path d="M52.9834 209.051C52.196 209.051 51.8023 208.657 51.4086 208.263L33.6921 190.547C32.9047 189.759 32.9047 188.185 33.6921 187.397C34.4795 186.61 36.0543 186.61 36.8417 187.397L54.5582 205.114C55.3456 205.901 55.3456 207.476 54.5582 208.263C54.1645 208.657 53.3771 209.051 52.9834 209.051Z" fill="white"/>
<path d="M67.9425 209.051C67.1551 209.051 66.7613 208.657 66.3676 208.263L48.6511 190.547C47.8637 189.759 47.8637 188.185 48.6511 187.397C49.4385 186.61 51.0134 186.61 51.8008 187.397L69.5173 205.114C70.3047 205.901 70.3047 207.476 69.5173 208.263C69.1236 208.657 68.7299 209.051 67.9425 209.051Z" fill="white"/>
<path d="M82.9073 209.051C82.1199 209.051 81.7262 208.657 81.3325 208.263L63.6159 190.547C62.8285 189.759 62.8285 188.185 63.6159 187.397C64.4033 186.61 65.9781 186.61 66.7655 187.397L84.482 205.114C85.2694 205.901 85.2694 207.476 84.482 208.263C84.0883 208.657 83.6947 209.051 82.9073 209.051Z" fill="white"/>
<path d="M98.2598 209.051C97.4724 209.051 97.0787 208.657 96.685 208.263L78.9685 190.547C78.1811 189.759 78.1811 188.185 78.9685 187.397C79.7559 186.61 81.3306 186.61 82.118 187.397L99.8346 205.114C100.622 205.901 100.622 207.476 99.8346 208.263C99.4409 208.657 98.6535 209.051 98.2598 209.051Z" fill="white"/>
<path d="M113.219 209.051C112.431 209.051 112.038 208.657 111.644 208.263L93.9275 190.547C93.1401 189.759 93.1401 188.185 93.9275 187.397C94.7149 186.61 96.2897 186.61 97.0771 187.397L114.794 205.114C115.581 205.901 115.581 207.476 114.794 208.263C114.4 208.657 113.613 209.051 113.219 209.051Z" fill="white"/>
<path d="M128.183 209.051C127.395 209.051 127.002 208.657 126.608 208.263L108.891 190.547C108.104 189.759 108.104 188.185 108.891 187.397C109.679 186.61 111.253 186.61 112.041 187.397L129.757 205.114C130.545 205.901 130.545 207.476 129.757 208.263C129.364 208.657 128.576 209.051 128.183 209.051Z" fill="white"/>
<path d="M143.143 209.051C142.355 209.051 141.962 208.657 141.568 208.263L123.851 190.547C123.064 189.759 123.064 188.185 123.851 187.397C124.639 186.61 126.214 186.61 127.001 187.397L144.718 205.114C145.505 205.901 145.505 207.476 144.718 208.263C144.324 208.657 143.93 209.051 143.143 209.051Z" fill="white"/>
<path d="M158.103 209.051C157.315 209.051 156.921 208.657 156.528 208.263L138.811 190.547C138.024 189.759 138.024 188.185 138.811 187.397C139.599 186.61 141.173 186.61 141.961 187.397L159.677 205.114C160.465 205.901 160.465 207.476 159.677 208.263C159.284 208.657 158.89 209.051 158.103 209.051Z" fill="white"/>
<path d="M173.458 209.051C172.671 209.051 172.277 208.657 171.883 208.263L154.167 190.547C153.379 189.759 153.379 188.185 154.167 187.397C154.954 186.61 156.529 186.61 157.316 187.397L175.033 205.114C175.82 205.901 175.82 207.476 175.033 208.263C174.639 208.657 173.852 209.051 173.458 209.051Z" fill="white"/>
<path d="M188.418 209.051C187.631 209.051 187.237 208.657 186.843 208.263L169.127 190.547C168.339 189.759 168.339 188.185 169.127 187.397C169.914 186.61 171.489 186.61 172.276 187.397L189.993 205.114C190.78 205.901 190.78 207.476 189.993 208.263C189.599 208.657 188.812 209.051 188.418 209.051Z" fill="white"/>
<path d="M203.378 209.051C202.591 209.051 202.197 208.657 201.803 208.263L184.087 190.547C183.299 189.759 183.299 188.185 184.087 187.397C184.874 186.61 186.449 186.61 187.236 187.397L204.953 205.114C205.74 205.901 205.74 207.476 204.953 208.263C204.559 208.657 204.165 209.051 203.378 209.051Z" fill="white"/>
<path d="M218.338 209.051C217.551 209.051 217.157 208.657 216.763 208.263L199.047 190.547C198.259 189.759 198.259 188.185 199.047 187.397C199.834 186.61 201.409 186.61 202.196 187.397L219.913 205.114C220.7 205.901 220.7 207.476 219.913 208.263C219.519 208.657 219.125 209.051 218.338 209.051Z" fill="white"/>
<path d="M233.694 209.051C232.907 209.051 232.513 208.657 232.12 208.263L214.403 190.547C213.616 189.759 213.616 188.185 214.403 187.397C215.19 186.61 216.765 186.61 217.553 187.397L235.269 205.114C236.057 205.901 236.057 207.476 235.269 208.263C234.876 208.657 234.088 209.051 233.694 209.051Z" fill="white"/>
<path d="M38.0235 13.3847C37.2361 13.3847 36.8424 12.991 36.4487 12.5973L18.7322 -5.11924C17.9448 -5.90664 17.9448 -7.48142 18.7322 -8.26882C19.5196 -9.05623 21.0943 -9.05623 21.8817 -8.26882L39.5982 9.44768C40.3856 10.2351 40.3856 11.8099 39.5982 12.5973C39.2045 12.991 38.4172 13.3847 38.0235 13.3847Z" fill="white"/>
<path d="M52.9834 13.3847C52.196 13.3847 51.8023 12.991 51.4086 12.5973L33.6921 -5.11924C32.9047 -5.90664 32.9047 -7.48142 33.6921 -8.26882C34.4795 -9.05623 36.0543 -9.05623 36.8417 -8.26882L54.5582 9.44768C55.3456 10.2351 55.3456 11.8099 54.5582 12.5973C54.1645 12.991 53.3771 13.3847 52.9834 13.3847Z" fill="white"/>
<path d="M67.9425 13.3847C67.1551 13.3847 66.7613 12.991 66.3676 12.5973L48.6511 -5.11924C47.8637 -5.90664 47.8637 -7.48142 48.6511 -8.26882C49.4385 -9.05623 51.0134 -9.05623 51.8008 -8.26882L69.5173 9.44768C70.3047 10.2351 70.3047 11.8099 69.5173 12.5973C69.1236 12.991 68.7299 13.3847 67.9425 13.3847Z" fill="white"/>
<path d="M82.9073 13.3847C82.1199 13.3847 81.7262 12.991 81.3325 12.5973L63.6159 -5.11924C62.8285 -5.90664 62.8285 -7.48142 63.6159 -8.26882C64.4033 -9.05623 65.9781 -9.05623 66.7655 -8.26882L84.482 9.44768C85.2694 10.2351 85.2694 11.8099 84.482 12.5973C84.0883 12.991 83.6947 13.3847 82.9073 13.3847Z" fill="white"/>
<path d="M98.2598 13.3847C97.4724 13.3847 97.0787 12.991 96.685 12.5973L78.9685 -5.11924C78.1811 -5.90664 78.1811 -7.48142 78.9685 -8.26882C79.7559 -9.05623 81.3306 -9.05623 82.118 -8.26882L99.8346 9.44768C100.622 10.2351 100.622 11.8099 99.8346 12.5973C99.4409 12.991 98.6535 13.3847 98.2598 13.3847Z" fill="white"/>
<path d="M113.219 13.3847C112.431 13.3847 112.038 12.991 111.644 12.5973L93.9275 -5.11924C93.1401 -5.90664 93.1401 -7.48142 93.9275 -8.26882C94.7149 -9.05623 96.2897 -9.05623 97.0771 -8.26882L114.794 9.44768C115.581 10.2351 115.581 11.8099 114.794 12.5973C114.4 12.991 113.613 13.3847 113.219 13.3847Z" fill="white"/>
<path d="M128.183 13.3847C127.395 13.3847 127.002 12.991 126.608 12.5973L108.891 -5.11924C108.104 -5.90664 108.104 -7.48142 108.891 -8.26882C109.679 -9.05623 111.253 -9.05623 112.041 -8.26882L129.757 9.44768C130.545 10.2351 130.545 11.8099 129.757 12.5973C129.364 12.991 128.576 13.3847 128.183 13.3847Z" fill="white"/>
<path d="M143.143 13.3847C142.355 13.3847 141.962 12.991 141.568 12.5973L123.851 -5.11924C123.064 -5.90664 123.064 -7.48142 123.851 -8.26882C124.639 -9.05623 126.214 -9.05623 127.001 -8.26882L144.718 9.44768C145.505 10.2351 145.505 11.8099 144.718 12.5973C144.324 12.991 143.93 13.3847 143.143 13.3847Z" fill="white"/>
<path d="M158.103 13.3847C157.315 13.3847 156.921 12.991 156.528 12.5973L138.811 -5.11924C138.024 -5.90664 138.024 -7.48142 138.811 -8.26882C139.599 -9.05623 141.173 -9.05623 141.961 -8.26882L159.677 9.44768C160.465 10.2351 160.465 11.8099 159.677 12.5973C159.284 12.991 158.89 13.3847 158.103 13.3847Z" fill="white"/>
<path d="M173.458 13.3847C172.671 13.3847 172.277 12.991 171.883 12.5973L154.167 -5.11924C153.379 -5.90664 153.379 -7.48142 154.167 -8.26882C154.954 -9.05623 156.529 -9.05623 157.316 -8.26882L175.033 9.44768C175.82 10.2351 175.82 11.8099 175.033 12.5973C174.639 12.991 173.852 13.3847 173.458 13.3847Z" fill="white"/>
<path d="M188.418 13.3847C187.631 13.3847 187.237 12.991 186.843 12.5973L169.127 -5.11924C168.339 -5.90664 168.339 -7.48142 169.127 -8.26882C169.914 -9.05623 171.489 -9.05623 172.276 -8.26882L189.993 9.44768C190.78 10.2351 190.78 11.8099 189.993 12.5973C189.599 12.991 188.812 13.3847 188.418 13.3847Z" fill="white"/>
<path d="M203.378 13.3847C202.591 13.3847 202.197 12.991 201.803 12.5973L184.087 -5.11924C183.299 -5.90664 183.299 -7.48142 184.087 -8.26882C184.874 -9.05623 186.449 -9.05623 187.236 -8.26882L204.953 9.44768C205.74 10.2351 205.74 11.8099 204.953 12.5973C204.559 12.991 204.165 13.3847 203.378 13.3847Z" fill="white"/>
<path d="M218.338 13.3847C217.551 13.3847 217.157 12.991 216.763 12.5973L199.047 -5.11924C198.259 -5.90664 198.259 -7.48142 199.047 -8.26882C199.834 -9.05623 201.409 -9.05623 202.196 -8.26882L219.913 9.44768C220.7 10.2351 220.7 11.8099 219.913 12.5973C219.519 12.991 219.125 13.3847 218.338 13.3847Z" fill="white"/>
<path d="M233.694 13.3847C232.907 13.3847 232.513 12.991 232.12 12.5973L214.403 -5.11924C213.616 -5.90664 213.616 -7.48142 214.403 -8.26882C215.19 -9.05623 216.765 -9.05623 217.553 -8.26882L235.269 9.44768C236.057 10.2351 236.057 11.8099 235.269 12.5973C234.876 12.991 234.088 13.3847 233.694 13.3847Z" fill="white"/>
<path d="M215.581 209.051C214.794 209.051 214.4 208.657 214.007 208.263C213.219 207.476 213.219 205.901 214.007 205.114L231.723 187.397C232.51 186.61 234.085 186.61 234.873 187.397C235.66 188.185 235.66 189.759 234.873 190.547L217.156 208.263C216.763 208.657 216.369 209.051 215.581 209.051Z" fill="white"/>
<path d="M215.581 193.703C214.794 193.703 214.4 193.309 214.007 192.916C213.219 192.128 213.219 190.553 214.007 189.766L231.723 172.05C232.51 171.262 234.085 171.262 234.873 172.05C235.66 172.837 235.66 174.412 234.873 175.199L217.156 192.916C216.763 193.703 216.369 193.703 215.581 193.703Z" fill="white"/>
<path d="M215.581 178.738C214.794 178.738 214.4 178.345 214.007 177.951C213.219 177.163 213.219 175.589 214.007 174.801L231.723 157.085C232.51 156.297 234.085 156.297 234.873 157.085C235.66 157.872 235.66 159.447 234.873 160.234L217.156 177.951C216.763 178.738 216.369 178.738 215.581 178.738Z" fill="white"/>
<path d="M215.581 163.775C214.794 163.775 214.4 163.382 214.007 162.988C213.219 162.2 213.219 160.626 214.007 159.838L231.723 142.122C232.51 141.334 234.085 141.334 234.873 142.122C235.66 142.909 235.66 144.484 234.873 145.271L217.156 162.988C216.763 163.382 216.369 163.775 215.581 163.775Z" fill="white"/>
<path d="M215.581 148.82C214.794 148.82 214.4 148.427 214.007 148.033C213.219 147.245 213.219 145.671 214.007 144.883L231.723 127.167C232.51 126.379 234.085 126.379 234.873 127.167C235.66 127.954 235.66 129.529 234.873 130.316L217.156 148.033C216.763 148.427 216.369 148.82 215.581 148.82Z" fill="white"/>
<path d="M215.581 133.855C214.794 133.855 214.4 133.462 214.007 133.068C213.219 132.281 213.219 130.706 214.007 129.918L231.723 112.202C232.51 111.414 234.085 111.414 234.873 112.202C235.66 112.989 235.66 114.564 234.873 115.351L217.156 133.068C216.763 133.462 216.369 133.855 215.581 133.855Z" fill="white"/>
<path d="M215.581 118.5C214.794 118.5 214.4 118.106 214.007 117.713C213.219 116.925 213.219 115.35 214.007 114.563L231.723 96.8464C232.51 96.059 234.085 96.059 234.873 96.8464C235.66 97.6338 235.66 99.2086 234.873 99.996L217.156 117.713C216.763 118.5 216.369 118.5 215.581 118.5Z" fill="white"/>
<path d="M215.581 103.543C214.794 103.543 214.4 103.149 214.007 102.756C213.219 101.968 213.219 100.393 214.007 99.6059L231.723 81.8894C232.51 81.102 234.085 81.102 234.873 81.8894C235.66 82.6768 235.66 84.2516 234.873 85.039L217.156 102.756C216.763 103.149 216.369 103.543 215.581 103.543Z" fill="white"/>
<path d="M215.581 88.58C214.794 88.58 214.4 88.1863 214.007 87.7926C213.219 87.0052 213.219 85.4304 214.007 84.643L231.723 66.9265C232.51 66.1391 234.085 66.1391 234.873 66.9265C235.66 67.7139 235.66 69.2887 234.873 70.0761L217.156 87.7926C216.763 88.1863 216.369 88.58 215.581 88.58Z" fill="white"/>
<path d="M215.581 73.625C214.794 73.625 214.4 73.2313 214.007 72.8376C213.219 72.0502 213.219 70.4753 214.007 69.6879L231.723 51.9714C232.51 51.184 234.085 51.184 234.873 51.9714C235.66 52.7588 235.66 54.3336 234.873 55.121L217.156 72.8376C216.763 73.2313 216.369 73.625 215.581 73.625Z" fill="white"/>
<path d="M215.581 58.2675C214.794 58.2675 214.4 57.8738 214.007 57.4801C213.219 56.6927 213.219 55.1179 214.007 54.3305L231.723 36.614C232.51 35.8266 234.085 35.8266 234.873 36.614C235.66 37.4014 235.66 38.9762 234.873 39.7636L217.156 57.4801C216.763 58.2675 216.369 58.2675 215.581 58.2675Z" fill="white"/>
<path d="M215.581 43.3046C214.794 43.3046 214.4 42.9109 214.007 42.5173C213.219 41.7298 213.219 40.155 214.007 39.3676L231.723 21.6511C232.51 20.8637 234.085 20.8637 234.873 21.6511C235.66 22.4385 235.66 24.0133 234.873 24.8007L217.156 42.5173C216.763 43.3047 216.369 43.3046 215.581 43.3046Z" fill="white"/>
<path d="M215.581 28.3476C214.794 28.3476 214.4 27.9539 214.007 27.5602C213.219 26.7728 213.219 25.198 214.007 24.4106L231.723 6.69407C232.51 5.90667 234.085 5.90667 234.873 6.69407C235.66 7.48147 235.66 9.05628 234.873 9.84368L217.156 27.5602C216.763 27.9539 216.369 28.3476 215.581 28.3476Z" fill="white"/>
<path d="M215.581 13.3847C214.794 13.3847 214.4 12.991 214.007 12.5973C213.219 11.8099 213.219 10.2351 214.007 9.44768L231.723 -8.26882C232.51 -9.05623 234.085 -9.05623 234.873 -8.26882C235.66 -7.48142 235.66 -5.90664 234.873 -5.11924L217.156 12.5973C216.763 12.991 216.369 13.3847 215.581 13.3847Z" fill="white"/>
<path d="M20.3069 209.051C19.5195 209.051 19.1259 208.657 18.7322 208.263C17.9448 207.476 17.9448 205.901 18.7322 205.114L36.4487 187.397C37.2361 186.61 38.8108 186.61 39.5982 187.397C40.3856 188.185 40.3856 189.759 39.5982 190.547L21.8817 208.263C21.488 208.657 20.7006 209.051 20.3069 209.051Z" fill="white"/>
<path d="M20.3069 193.703C19.5195 193.703 19.1259 193.309 18.7322 192.916C17.9448 192.128 17.9448 190.553 18.7322 189.766L36.4487 172.05C37.2361 171.262 38.8108 171.262 39.5982 172.05C40.3856 172.837 40.3856 174.412 39.5982 175.199L21.8817 192.916C21.488 193.703 20.7006 193.703 20.3069 193.703Z" fill="white"/>
<path d="M20.3069 178.738C19.5195 178.738 19.1259 178.345 18.7322 177.951C17.9448 177.163 17.9448 175.589 18.7322 174.801L36.4487 157.085C37.2361 156.297 38.8108 156.297 39.5982 157.085C40.3856 157.872 40.3856 159.447 39.5982 160.234L21.8817 177.951C21.488 178.738 20.7006 178.738 20.3069 178.738Z" fill="white"/>
<path d="M20.3069 163.775C19.5195 163.775 19.1259 163.382 18.7322 162.988C17.9448 162.2 17.9448 160.626 18.7322 159.838L36.4487 142.122C37.2361 141.334 38.8108 141.334 39.5982 142.122C40.3856 142.909 40.3856 144.484 39.5982 145.271L21.8817 162.988C21.488 163.382 20.7006 163.775 20.3069 163.775Z" fill="white"/>
<path d="M20.3069 148.82C19.5195 148.82 19.1259 148.427 18.7322 148.033C17.9448 147.245 17.9448 145.671 18.7322 144.883L36.4487 127.167C37.2361 126.379 38.8108 126.379 39.5982 127.167C40.3856 127.954 40.3856 129.529 39.5982 130.316L21.8817 148.033C21.488 148.427 20.7006 148.82 20.3069 148.82Z" fill="white"/>
<path d="M20.3069 133.855C19.5195 133.855 19.1259 133.462 18.7322 133.068C17.9448 132.281 17.9448 130.706 18.7322 129.918L36.4487 112.202C37.2361 111.414 38.8108 111.414 39.5982 112.202C40.3856 112.989 40.3856 114.564 39.5982 115.351L21.8817 133.068C21.488 133.462 20.7006 133.855 20.3069 133.855Z" fill="white"/>
<path d="M20.3069 118.5C19.5195 118.5 19.1259 118.106 18.7322 117.713C17.9448 116.925 17.9448 115.35 18.7322 114.563L36.4487 96.8464C37.2361 96.059 38.8108 96.059 39.5982 96.8464C40.3856 97.6338 40.3856 99.2086 39.5982 99.996L21.8817 117.713C21.488 118.5 20.7006 118.5 20.3069 118.5Z" fill="white"/>
<path d="M20.3069 103.543C19.5195 103.543 19.1259 103.149 18.7322 102.756C17.9448 101.968 17.9448 100.393 18.7322 99.6059L36.4487 81.8894C37.2361 81.102 38.8108 81.102 39.5982 81.8894C40.3856 82.6768 40.3856 84.2516 39.5982 85.039L21.8817 102.756C21.488 103.149 20.7006 103.543 20.3069 103.543Z" fill="white"/>
<path d="M20.3069 88.58C19.5195 88.58 19.1259 88.1863 18.7322 87.7926C17.9448 87.0052 17.9448 85.4304 18.7322 84.643L36.4487 66.9265C37.2361 66.1391 38.8108 66.1391 39.5982 66.9265C40.3856 67.7139 40.3856 69.2887 39.5982 70.0761L21.8817 87.7926C21.488 88.1863 20.7006 88.58 20.3069 88.58Z" fill="white"/>
<path d="M20.3069 73.625C19.5195 73.625 19.1259 73.2313 18.7322 72.8376C17.9448 72.0502 17.9448 70.4753 18.7322 69.6879L36.4487 51.9714C37.2361 51.184 38.8108 51.184 39.5982 51.9714C40.3856 52.7588 40.3856 54.3336 39.5982 55.121L21.8817 72.8376C21.488 73.2313 20.7006 73.625 20.3069 73.625Z" fill="white"/>
<path d="M20.3069 58.2675C19.5195 58.2675 19.1259 57.8738 18.7322 57.4801C17.9448 56.6927 17.9448 55.1179 18.7322 54.3305L36.4487 36.614C37.2361 35.8266 38.8108 35.8266 39.5982 36.614C40.3856 37.4014 40.3856 38.9762 39.5982 39.7636L21.8817 57.4801C21.488 58.2675 20.7006 58.2675 20.3069 58.2675Z" fill="white"/>
<path d="M20.3069 43.3046C19.5195 43.3046 19.1259 42.9109 18.7322 42.5173C17.9448 41.7298 17.9448 40.155 18.7322 39.3676L36.4487 21.6511C37.2361 20.8637 38.8108 20.8637 39.5982 21.6511C40.3856 22.4385 40.3856 24.0133 39.5982 24.8007L21.8817 42.5173C21.488 43.3047 20.7006 43.3046 20.3069 43.3046Z" fill="white"/>
<path d="M20.3069 28.3476C19.5195 28.3476 19.1259 27.9539 18.7322 27.5602C17.9448 26.7728 17.9448 25.198 18.7322 24.4106L36.4487 6.69407C37.2361 5.90667 38.8108 5.90667 39.5982 6.69407C40.3856 7.48147 40.3856 9.05628 39.5982 9.84368L21.8817 27.5602C21.488 27.9539 20.7006 28.3476 20.3069 28.3476Z" fill="white"/>
<path d="M20.3069 13.3847C19.5195 13.3847 19.1259 12.991 18.7322 12.5973C17.9448 11.8099 17.9448 10.2351 18.7322 9.44768L36.4487 -8.26882C37.2361 -9.05623 38.8108 -9.05623 39.5982 -8.26882C40.3856 -7.48142 40.3856 -5.90664 39.5982 -5.11924L21.8817 12.5973C21.488 12.991 20.7006 13.3847 20.3069 13.3847Z" fill="white"/>
</g>
</svg>
