<svg width="254" height="205" viewBox="0 0 254 205" fill="none" xmlns="http://www.w3.org/2000/svg">
<path d="M234 200H20V205H234V200Z" fill="#B5D9D9"/>
<path opacity="0.1" d="M254 0H0V200H254V0Z" fill="white"/>
<path d="M234 0H20V200H234V0Z" fill="#383838"/>
<path d="M227 0H27V200H227V0Z" fill="#D1AC86"/>
<path d="M35 9V192.07H218.07V9H35ZM199.684 173.293H53.3852V26.994H199.684V173.293Z" fill="#494949"/>
<path d="M210.639 184.639H205.554V181.118H207.51V179.162H210.639V184.639Z" fill="white"/>
<path d="M198.903 184.638H191.862V181.117H198.903V184.638ZM184.821 184.638H177.78V181.117H184.821V184.638ZM171.13 184.638H164.089V181.117H171.13V184.638ZM157.439 184.638H150.398V181.117H157.439V184.638ZM143.748 184.638H136.707V181.117H143.748V184.638ZM130.057 184.638H123.016V181.117H130.057V184.638ZM116.366 184.638H109.324V181.117H116.366V184.638ZM102.674 184.638H95.6333V181.117H102.674V184.638ZM88.9833 184.638H81.9422V181.117H88.9833V184.638ZM75.2922 184.638H68.2511V181.117H75.2922V184.638ZM61.21 184.638H54.1688V181.117H61.21V184.638Z" fill="white"/>
<path d="M47.5189 184.639H42.4336V179.162H45.9541V181.118H47.5189V184.639Z" fill="white"/>
<path d="M45.9541 172.513H42.4336V165.472H45.9541V172.513ZM45.9541 158.822H42.4336V151.781H45.9541V158.822ZM45.9541 145.131H42.4336V138.09H45.9541V145.131ZM45.9541 131.049H42.4336V124.008H45.9541V131.049ZM45.9541 117.358H42.4336V110.317H45.9541V117.358ZM45.9541 103.667H42.4336V96.6254H45.9541V103.667ZM45.9541 89.9754H42.4336V82.9343H45.9541V89.9754ZM45.9541 76.2843H42.4336V69.2432H45.9541V76.2843ZM45.9541 62.5932H42.4336V55.5521H45.9541V62.5932ZM45.9541 48.9021H42.4336V41.861H45.9541V48.9021ZM45.9541 35.211H42.4336V28.1699H45.9541V35.211Z" fill="white"/>
<path d="M45.9541 21.5213H42.4336V16.0449H47.5189V19.5655H45.9541V21.5213Z" fill="white"/>
<path d="M198.903 19.5655H191.862V16.0449H198.903V19.5655ZM184.821 19.5655H177.78V16.0449H184.821V19.5655ZM171.13 19.5655H164.089V16.0449H171.13V19.5655ZM157.439 19.5655H150.398V16.0449H157.439V19.5655ZM143.748 19.5655H136.707V16.0449H143.748V19.5655ZM130.057 19.5655H123.016V16.0449H130.057V19.5655ZM116.366 19.5655H109.324V16.0449H116.366V19.5655ZM102.674 19.5655H95.6333V16.0449H102.674V19.5655ZM88.9833 19.5655H81.9422V16.0449H88.9833V19.5655ZM75.2922 19.5655H68.2511V16.0449H75.2922V19.5655ZM61.21 19.5655H54.1688V16.0449H61.21V19.5655Z" fill="white"/>
<path d="M210.639 21.5213H207.51V19.5655H205.554V16.0449H210.639V21.5213Z" fill="white"/>
<path d="M210.637 172.513H207.116V165.472H210.637V172.513ZM210.637 158.822H207.116V151.781H210.637V158.822ZM210.637 145.131H207.116V138.09H210.637V145.131ZM210.637 131.049H207.116V124.008H210.637V131.049ZM210.637 117.358H207.116V110.317H210.637V117.358ZM210.637 103.667H207.116V96.6254H210.637V103.667ZM210.637 89.9754H207.116V82.9343H210.637V89.9754ZM210.637 76.2843H207.116V69.2432H210.637V76.2843ZM210.637 62.5932H207.116V55.5521H210.637V62.5932ZM210.637 48.9021H207.116V41.861H210.637V48.9021ZM210.637 35.211H207.116V28.1699H210.637V35.211Z" fill="white"/>
</svg>
