<svg width="254" height="205" viewBox="0 0 254 205" fill="none" xmlns="http://www.w3.org/2000/svg">
<path d="M234 200H20V205H234V200Z" fill="#B5D9D9"/>
<path opacity="0.1" d="M254 0H0V200H254V0Z" fill="white"/>
<path d="M234 0H20V200H234V0Z" fill="#383838"/>
<path d="M227 0H27V200H227V0Z" fill="#B1CFD3"/>
<path d="M42.5205 0H39V199.717H42.5205V0Z" fill="#DF332A"/>
<path d="M48.7793 6.28666C48.7793 9.03866 53.0821 9.03866 53.0821 6.28666C52.6909 3.53466 48.7793 3.53466 48.7793 6.28666Z" fill="#DF332A"/>
<path d="M48.7793 14.5406C48.7793 17.2926 53.0821 17.2926 53.0821 14.5406C52.6909 11.7886 48.7793 11.7886 48.7793 14.5406Z" fill="#DF332A"/>
<path d="M48.7793 22.4038C48.7793 25.1558 53.0821 25.1558 53.0821 22.4038C52.6909 19.6518 48.7793 19.6518 48.7793 22.4038Z" fill="#DF332A"/>
<path d="M48.7793 30.6577C48.7793 33.4097 53.0821 33.4097 53.0821 30.6577C52.6909 27.9058 48.7793 27.9058 48.7793 30.6577Z" fill="#DF332A"/>
<path d="M48.7793 38.9195C48.7793 41.6715 53.0821 41.6715 53.0821 38.9195C52.6909 36.1675 48.7793 36.1675 48.7793 38.9195Z" fill="#DF332A"/>
<path d="M48.7793 46.7789C48.7793 49.5309 53.0821 49.5309 53.0821 46.7789C52.6909 44.4201 48.7793 44.4201 48.7793 46.7789Z" fill="#DF332A"/>
<path d="M48.7793 55.0386C48.7793 57.7906 53.0821 57.7906 53.0821 55.0386C52.6909 52.2866 48.7793 52.2866 48.7793 55.0386Z" fill="#DF332A"/>
<path d="M48.7793 63.2925C48.7793 66.0445 53.0821 66.0445 53.0821 63.2925C52.6909 60.5405 48.7793 60.5405 48.7793 63.2925Z" fill="#DF332A"/>
<path d="M48.7793 71.5464C48.7793 74.2984 53.0821 74.2984 53.0821 71.5464C52.6909 68.7944 48.7793 68.7944 48.7793 71.5464Z" fill="#DF332A"/>
<path d="M48.7793 79.4097C48.7793 82.1617 53.0821 82.1617 53.0821 79.4097C52.6909 76.6577 48.7793 76.6577 48.7793 79.4097Z" fill="#DF332A"/>
<path d="M48.7793 87.6636C48.7793 90.4156 53.0821 90.4156 53.0821 87.6636C52.6909 84.9116 48.7793 84.9116 48.7793 87.6636Z" fill="#DF332A"/>
<path d="M48.7793 95.9273C48.7793 98.6793 53.0821 98.6793 53.0821 95.9273C52.6909 93.1753 48.7793 93.1753 48.7793 95.9273Z" fill="#DF332A"/>
<path d="M48.7793 104.181C48.7793 106.933 53.0821 106.933 53.0821 104.181C52.6909 101.429 48.7793 101.429 48.7793 104.181Z" fill="#DF332A"/>
<path d="M48.7793 112.043C48.7793 114.795 53.0821 114.795 53.0821 112.043C52.6909 109.291 48.7793 109.291 48.7793 112.043Z" fill="#DF332A"/>
<path d="M48.7793 120.298C48.7793 123.05 53.0821 123.05 53.0821 120.298C52.6909 117.546 48.7793 117.546 48.7793 120.298Z" fill="#DF332A"/>
<path d="M48.7793 128.552C48.7793 131.304 53.0821 131.304 53.0821 128.552C52.6909 125.8 48.7793 125.8 48.7793 128.552Z" fill="#DF332A"/>
<path d="M48.7793 136.417C48.7793 139.169 53.0821 139.169 53.0821 136.417C52.6909 134.059 48.7793 133.665 48.7793 136.417Z" fill="#DF332A"/>
<path d="M48.7793 144.669C48.7793 147.421 53.0821 147.421 53.0821 144.669C52.6909 141.917 48.7793 141.917 48.7793 144.669Z" fill="#DF332A"/>
<path d="M48.7793 152.931C48.7793 155.683 53.0821 155.683 53.0821 152.931C52.6909 150.179 48.7793 150.179 48.7793 152.931Z" fill="#DF332A"/>
<path d="M48.7793 161.187C48.7793 163.939 53.0821 163.939 53.0821 161.187C52.6909 158.435 48.7793 158.435 48.7793 161.187Z" fill="#DF332A"/>
<path d="M48.7793 169.048C48.7793 171.8 53.0821 171.8 53.0821 169.048C52.6909 166.296 48.7793 166.296 48.7793 169.048Z" fill="#DF332A"/>
<path d="M48.7793 177.302C48.7793 180.054 53.0821 180.054 53.0821 177.302C52.6909 174.55 48.7793 174.55 48.7793 177.302Z" fill="#DF332A"/>
<path d="M48.7793 185.556C48.7793 188.308 53.0821 188.308 53.0821 185.556C52.6909 182.804 48.7793 182.804 48.7793 185.556Z" fill="#DF332A"/>
<path d="M48.7793 193.425C48.7793 196.177 53.0821 196.177 53.0821 193.425C52.6909 191.067 48.7793 191.067 48.7793 193.425Z" fill="#DF332A"/>
<path d="M215.811 0H212.29V199.717H215.811V0Z" fill="#DF332A"/>
<path d="M201.731 6.28666C201.731 9.03866 206.034 9.03866 206.034 6.28666C206.034 3.53466 201.731 3.53466 201.731 6.28666Z" fill="#DF332A"/>
<path d="M201.731 14.5406C201.731 17.2926 206.034 17.2926 206.034 14.5406C206.034 11.7886 201.731 11.7886 201.731 14.5406Z" fill="#DF332A"/>
<path d="M201.731 22.4038C201.731 25.1558 206.034 25.1558 206.034 22.4038C206.034 19.6518 201.731 19.6518 201.731 22.4038Z" fill="#DF332A"/>
<path d="M201.731 30.6577C201.731 33.4097 206.034 33.4097 206.034 30.6577C206.034 27.9058 201.731 27.9058 201.731 30.6577Z" fill="#DF332A"/>
<path d="M201.731 38.9195C201.731 41.6715 206.034 41.6715 206.034 38.9195C206.034 36.1675 201.731 36.1675 201.731 38.9195Z" fill="#DF332A"/>
<path d="M201.731 46.7789C201.731 49.5309 206.034 49.5309 206.034 46.7789C206.034 44.4201 201.731 44.4201 201.731 46.7789Z" fill="#DF332A"/>
<path d="M201.731 55.0386C201.731 57.7906 206.034 57.7906 206.034 55.0386C206.034 52.2866 201.731 52.2866 201.731 55.0386Z" fill="#DF332A"/>
<path d="M201.731 63.2925C201.731 66.0445 206.034 66.0445 206.034 63.2925C206.034 60.5405 201.731 60.5405 201.731 63.2925Z" fill="#DF332A"/>
<path d="M201.731 71.5464C201.731 74.2984 206.034 74.2984 206.034 71.5464C206.034 68.7944 201.731 68.7944 201.731 71.5464Z" fill="#DF332A"/>
<path d="M201.731 79.4097C201.731 82.1617 206.034 82.1617 206.034 79.4097C206.034 76.6577 201.731 76.6577 201.731 79.4097Z" fill="#DF332A"/>
<path d="M201.731 87.6636C201.731 90.4156 206.034 90.4156 206.034 87.6636C206.034 84.9116 201.731 84.9116 201.731 87.6636Z" fill="#DF332A"/>
<path d="M201.731 95.9273C201.731 98.6793 206.034 98.6793 206.034 95.9273C206.034 93.1753 201.731 93.1753 201.731 95.9273Z" fill="#DF332A"/>
<path d="M201.731 104.181C201.731 106.933 206.034 106.933 206.034 104.181C206.034 101.429 201.731 101.429 201.731 104.181Z" fill="#DF332A"/>
<path d="M201.731 112.043C201.731 114.795 206.034 114.795 206.034 112.043C206.034 109.291 201.731 109.291 201.731 112.043Z" fill="#DF332A"/>
<path d="M201.731 120.298C201.731 123.05 206.034 123.05 206.034 120.298C206.034 117.546 201.731 117.546 201.731 120.298Z" fill="#DF332A"/>
<path d="M201.731 128.552C201.731 131.304 206.034 131.304 206.034 128.552C206.034 125.8 201.731 125.8 201.731 128.552Z" fill="#DF332A"/>
<path d="M201.731 136.417C201.731 139.169 206.034 139.169 206.034 136.417C206.034 134.059 201.731 133.665 201.731 136.417Z" fill="#DF332A"/>
<path d="M201.731 144.669C201.731 147.421 206.034 147.421 206.034 144.669C206.034 141.917 201.731 141.917 201.731 144.669Z" fill="#DF332A"/>
<path d="M201.731 152.931C201.731 155.683 206.034 155.683 206.034 152.931C206.034 150.179 201.731 150.179 201.731 152.931Z" fill="#DF332A"/>
<path d="M201.731 161.187C201.731 163.939 206.034 163.939 206.034 161.187C206.034 158.435 201.731 158.435 201.731 161.187Z" fill="#DF332A"/>
<path d="M201.731 169.048C201.731 171.8 206.034 171.8 206.034 169.048C206.034 166.296 201.731 166.296 201.731 169.048Z" fill="#DF332A"/>
<path d="M201.731 177.302C201.731 180.054 206.034 180.054 206.034 177.302C206.034 174.55 201.731 174.55 201.731 177.302Z" fill="#DF332A"/>
<path d="M201.731 185.556C201.731 188.308 206.034 188.308 206.034 185.556C206.034 182.804 201.731 182.804 201.731 185.556Z" fill="#DF332A"/>
<path d="M201.731 193.425C201.731 196.177 206.034 196.177 206.034 193.425C206.034 191.067 201.731 191.067 201.731 193.425Z" fill="#DF332A"/>
</svg>
