<svg width="188" height="152" viewBox="0 0 188 152" fill="none" xmlns="http://www.w3.org/2000/svg">
<path d="M173.196 148.031H14.8027V151.732H173.196V148.031Z" fill="#B5D9D9"/>
<path opacity="0.1" d="M188 0H0V148.031H188V0Z" fill="white"/>
<path d="M173.196 0H14.8027V148.031H173.196V0Z" fill="#383838"/>
<path d="M167.984 0H19.9844V148H167.984V0Z" fill="#D1AC86"/>
<path d="M160 9H28V141H160V9Z" fill="#015F2D"/>
<path d="M36.4775 132.476L34.2168 134.909L36.8672 137.56C36.8672 137.56 36.8668 137.56 36.4756 137.951L33.8389 135.314L31.3916 137.951C31.0009 137.56 31.001 137.56 31.001 137.169L33.3467 134.822L31.3906 132.866V132.475H31.7822L33.7383 134.431L36.0859 132.084H36.4775V132.476ZM48.6025 132.476L46.1543 135.111L48.6025 137.56C48.6025 137.56 48.6021 137.56 48.2109 137.951L45.7773 135.518L43.5176 137.951C43.1264 137.56 43.126 137.56 43.126 137.169L45.2773 135.018L43.126 132.866V132.475H43.5176L45.6689 134.626L48.2109 132.084H48.6025V132.476ZM60.7305 132.476L58.2822 135.111L60.7305 137.56C60.7305 137.56 60.73 137.56 60.3389 137.951L57.9053 135.518L55.6455 137.951C55.2543 137.56 55.2539 137.56 55.2539 137.169L57.4053 135.018L55.2539 132.866V132.475H55.6455L57.7969 134.626L60.3389 132.084H60.7305V132.476ZM72.4658 132.476L70.2051 134.909L72.8555 137.56C72.8555 137.56 72.855 137.56 72.4639 137.951L69.8281 135.315L67.3809 137.951C66.9897 137.56 66.9893 137.56 66.9893 137.169L69.335 134.822L67.3789 132.866V132.475H67.7705L69.7266 134.431L72.0742 132.084H72.4658V132.476ZM84.5908 132.476L82.1426 135.111L84.5908 137.56C84.5908 137.56 84.5904 137.56 84.1992 137.951L81.7656 135.518L79.5059 137.951C79.1147 137.56 79.1143 137.56 79.1143 137.169L81.2656 135.018L79.1143 132.866V132.475H79.5059L81.6572 134.626L84.1992 132.084H84.5908V132.476ZM96.7197 132.476L94.2715 135.111L96.7197 137.56C96.7197 137.56 96.7193 137.56 96.3281 137.951L93.8945 135.518L91.6348 137.951C91.2436 137.56 91.2432 137.56 91.2432 137.169L93.3945 135.018L91.2432 132.866V132.475H91.6348L93.7861 134.626L96.3281 132.084H96.7197V132.476ZM108.455 132.476L106.194 134.909L108.845 137.56L108.453 137.951L105.817 135.315L103.37 137.951C102.979 137.56 102.979 137.56 102.979 137.169L105.324 134.822L103.368 132.866V132.475H103.759L105.716 134.431L108.063 132.084H108.455V132.476ZM120.58 132.476L118.131 135.111L120.58 137.56C120.58 137.56 120.58 137.56 120.188 137.951L117.754 135.517L115.494 137.951C115.103 137.56 115.104 137.56 115.104 137.169L117.255 135.018L115.104 132.866V132.475H115.494L117.646 134.626L120.188 132.084H120.58V132.476ZM132.315 132.476L130.055 134.909L132.705 137.56C132.705 137.56 132.705 137.56 132.313 137.951L129.677 135.314L127.229 137.951C126.839 137.56 126.839 137.56 126.839 137.169L129.185 134.822L127.229 132.866V132.475H127.62L129.576 134.431L131.924 132.084H132.315V132.476ZM144.439 132.476L142.179 134.909L144.829 137.56L144.438 137.951L141.802 135.315L139.354 137.951C138.963 137.56 138.963 137.56 138.963 137.169L141.309 134.822L139.353 132.866V132.475H139.744L141.7 134.431L144.048 132.084H144.439V132.476ZM156.568 132.476L154.12 135.111L156.568 137.56C156.568 137.56 156.568 137.56 156.177 137.951L153.743 135.518L151.483 137.951C151.092 137.56 151.092 137.56 151.092 137.169L153.243 135.018L151.092 132.866V132.475H151.483L153.635 134.626L156.177 132.084H156.568V132.476ZM36.4775 120.351L34.2168 122.784L36.8672 125.435C36.8672 125.435 36.8668 125.826 36.4756 125.826L33.8389 123.189L31.3916 125.826C31.0009 125.435 31.001 125.435 31.001 125.044L33.3467 122.697L31.3906 120.741V120.35H31.7822L33.7383 122.306L36.0859 119.959H36.4775V120.351ZM156.568 120.351L154.12 122.986L156.568 125.435C156.568 125.435 156.568 125.826 156.177 125.826L153.743 123.393L151.483 125.826C151.092 125.435 151.092 125.435 151.092 125.044L153.243 122.893L151.092 120.741V120.35H151.483L153.635 122.501L156.177 119.959H156.568V120.351ZM36.4775 108.616L34.2178 111.049L36.8008 113.632C36.7476 113.737 36.6518 113.914 36.4756 114.09L33.8398 111.454L31.3916 114.092C31.0009 113.701 31.001 113.701 31.001 113.31L33.3477 110.962L31.3906 109.005V108.613H31.7822L33.7393 110.57L36.0859 108.225H36.4775V108.616ZM156.568 108.616L154.121 111.251L156.502 113.632C156.449 113.737 156.353 113.914 156.177 114.09L153.744 111.657L151.483 114.092C151.092 113.701 151.092 113.701 151.092 113.31L153.244 111.157L151.092 109.005V108.613H151.483L153.636 110.766L156.177 108.225H156.568V108.616ZM36.8008 113.632C36.8657 113.504 36.8672 113.484 36.8672 113.698L36.8008 113.632ZM156.502 113.632C156.567 113.504 156.568 113.484 156.568 113.698L156.502 113.632ZM36.4775 96.4912L34.2178 98.9238L36.8672 101.573C36.8672 101.573 36.8668 101.574 36.4756 101.965L33.8398 99.3291L31.3916 101.967C31.0009 101.576 31.001 101.576 31.001 101.185L33.3477 98.8369L31.3906 96.8799V96.4883H31.7822L33.7393 98.4453L36.0859 96.0996H36.4775V96.4912ZM156.568 96.4902L154.12 99.125L156.568 101.573C156.568 101.573 156.569 101.574 156.178 101.965L153.744 99.5312L151.483 101.967C151.092 101.576 151.092 101.576 151.092 101.185L153.244 99.0312L151.092 96.8789V96.4883H151.483L153.636 98.6406L156.178 96.0996H156.568V96.4902ZM36.4775 84.3662L34.2178 86.7988L36.8672 89.4482C36.8672 89.4482 36.8668 89.8398 36.4756 89.8398L33.8398 87.2041L31.3916 89.8418C31.0009 89.4511 31.001 89.4506 31.001 89.0596L33.3477 86.7119L31.3906 84.7549V84.3633H31.7822L33.7393 86.3203L36.0859 83.9746H36.4775V84.3662ZM156.568 84.3662L154.121 87.001L156.568 89.4482C156.568 89.4482 156.568 89.8396 156.178 89.8398L153.744 87.4062L151.483 89.8418C151.092 89.4508 151.092 89.4507 151.092 89.0596L153.244 86.9072L151.092 84.7549V84.3633H151.483L153.636 86.5156L156.178 83.9746H156.568V84.3662ZM36.4775 72.6318L34.2178 75.0645L36.8008 77.6475C36.7476 77.7522 36.6518 77.9292 36.4756 78.1055L33.8398 75.4697L31.3916 78.1074C31.0009 77.7167 31.001 77.7162 31.001 77.3252L33.3477 74.9775L31.3906 73.0205V72.6289H31.7822L33.7393 74.5859L36.0859 72.2402H36.4775V72.6318ZM156.568 72.6318L154.121 75.2666L156.502 77.6475C156.449 77.7521 156.354 77.9293 156.178 78.1055L153.744 75.6719L151.483 78.1074C151.092 77.7163 151.092 77.7164 151.092 77.3252L153.244 75.1719L151.092 73.0205V72.6289H151.483L153.636 74.7812L156.177 72.2402H156.568V72.6318ZM36.8008 77.6475C36.8657 77.5198 36.8672 77.4993 36.8672 77.7139L36.8008 77.6475ZM156.502 77.6475C156.567 77.5199 156.568 77.4994 156.568 77.7139L156.502 77.6475ZM36.4775 60.5068L34.2178 62.9395L36.8672 65.5889C36.8672 65.5889 36.8668 65.5893 36.4756 65.9805L33.8398 63.3447L31.3916 65.9824C31.0009 65.5917 31.001 65.5912 31.001 65.2002L33.3477 62.8525L31.3906 60.8955V60.5039H31.7822L33.7393 62.4609L36.0859 60.1152H36.4775V60.5068ZM156.568 60.5068L154.121 63.1416L156.568 65.5889C156.568 65.5889 156.568 65.5893 156.177 65.9805L153.744 63.5479L151.483 65.9824C151.092 65.5913 151.092 65.5914 151.092 65.2002L153.244 63.0479L151.092 60.8955V60.5039H151.483L153.636 62.6562L156.177 60.1152H156.568V60.5068ZM36.4775 48.374L34.2178 50.8066L36.8672 53.4561C36.8672 53.4561 36.8668 53.8477 36.4756 53.8477L33.8398 51.2119L31.3916 53.8496C31.0009 53.4589 31.001 53.4584 31.001 53.0674L33.3477 50.7197L31.3906 48.7627V48.3711H31.7822L33.7393 50.3281L36.0859 47.9824H36.4775V48.374ZM156.568 48.374L154.121 51.0088L156.568 53.4561C156.568 53.4561 156.568 53.8477 156.177 53.8477L153.744 51.415L151.483 53.8496C151.092 53.4584 151.092 53.4586 151.092 53.0674L153.244 50.915L151.092 48.7627V48.3711H151.483L153.636 50.5234L156.177 47.9824H156.568V48.374ZM36.4775 36.6377L34.2168 39.0713L36.8672 41.7217C36.8672 41.7217 36.8668 41.7221 36.4756 42.1133L33.8389 39.4766L31.3916 42.1133C31.0009 41.7225 31.001 41.7221 31.001 41.3311L33.3467 38.9844L31.3906 37.0283V36.6367H31.7822L33.7383 38.5928L36.0859 36.2461H36.4775V36.6377ZM156.568 36.6377L154.12 39.2734L156.568 41.7217C156.568 41.7217 156.568 41.7222 156.177 42.1133L153.743 39.6797L151.483 42.1133C151.092 41.7221 151.092 41.7222 151.092 41.3311L153.243 39.1797L151.092 37.0283V36.6367H151.483L153.635 38.7881L156.177 36.2461H156.568V36.6377ZM36.4775 24.5127L34.2168 26.9463L36.8672 29.5967C36.8672 29.5967 36.8668 29.5971 36.4756 29.9883L33.8389 27.3516L31.3916 29.9883C31.0009 29.5975 31.001 29.5971 31.001 29.2061L33.3467 26.8594L31.3906 24.9033V24.5117H31.7822L33.7383 26.4678L36.0859 24.1211H36.4775V24.5127ZM156.568 24.5127L154.12 27.1484L156.568 29.5967C156.568 29.5967 156.569 29.5972 156.178 29.9883L153.743 27.5537L151.483 29.9883C151.092 29.5971 151.092 29.5972 151.092 29.2061L153.243 27.0537L151.092 24.9023V24.5117H151.483L153.635 26.6631L156.177 24.1211H156.568V24.5127ZM36.4775 12.3877L34.2168 14.8213L36.8672 17.4717C36.8672 17.4717 36.8668 17.8633 36.4756 17.8633L33.8389 15.2266L31.3916 17.8633C31.0009 17.4725 31.001 17.4721 31.001 17.0811L33.3467 14.7344L31.3906 12.7783V12.3867H31.7822L33.7383 14.3428L36.0859 11.9961H36.4775V12.3877ZM48.6025 12.3877L46.1543 15.0234L48.6025 17.4717C48.6025 17.4717 48.6021 17.8633 48.2109 17.8633L45.7773 15.4297L43.5176 17.8633C43.1264 17.4721 43.126 17.4722 43.126 17.0811L45.2773 14.9297L43.126 12.7783V12.3867H43.5176L45.6689 14.5381L48.2109 11.9961H48.6025V12.3877ZM60.7305 12.3877L58.2822 15.0234L60.7305 17.4717C60.7305 17.4717 60.73 17.8633 60.3389 17.8633L57.9053 15.4297L55.6455 17.8633C55.2543 17.4721 55.2539 17.4722 55.2539 17.0811L57.4053 14.9297L55.2539 12.7783V12.3867H55.6455L57.7969 14.5381L60.3389 11.9961H60.7305V12.3877ZM72.4658 12.3877L70.2051 14.8213L72.8555 17.4717C72.8555 17.4717 72.855 17.8633 72.4639 17.8633L69.8281 15.2275L67.3809 17.8633C66.9897 17.4721 66.9893 17.4722 66.9893 17.0811L69.335 14.7344L67.3789 12.7783V12.3867H67.7705L69.7266 14.3428L72.0742 11.9961H72.4658V12.3877ZM84.5908 12.3877L82.1426 15.0234L84.5908 17.4717C84.5908 17.4717 84.5904 17.8633 84.1992 17.8633L81.7656 15.4297L79.5059 17.8633C79.1147 17.4721 79.1143 17.4722 79.1143 17.0811L81.2656 14.9297L79.1143 12.7783V12.3867H79.5059L81.6572 14.5381L84.1992 11.9961H84.5908V12.3877ZM96.7197 12.3877L94.2715 15.0234L96.7197 17.4717C96.7197 17.4717 96.7193 17.8633 96.3281 17.8633L93.8945 15.4297L91.6348 17.8633C91.2436 17.4721 91.2432 17.4722 91.2432 17.0811L93.3945 14.9297L91.2432 12.7783V12.3867H91.6348L93.7861 14.5381L96.3281 11.9961H96.7197V12.3877ZM108.455 12.3877L106.194 14.8213L108.845 17.4717C108.845 17.4717 108.844 17.8152 108.522 17.8584L108.453 17.8633L105.817 15.2275L103.37 17.8633C102.979 17.4721 102.979 17.4722 102.979 17.0811L105.324 14.7344L103.368 12.7783V12.3867H103.759L105.716 14.3428L108.063 11.9961H108.455V12.3877ZM120.58 12.3877L118.131 15.0234L120.58 17.4717C120.58 17.4717 120.58 17.8633 120.188 17.8633L117.754 15.4287L115.494 17.8633C115.103 17.4725 115.104 17.4721 115.104 17.0811L117.255 14.9297L115.104 12.7783V12.3867H115.494L117.646 14.5381L120.188 11.9961H120.58V12.3877ZM132.315 12.3877L130.055 14.8213L132.705 17.4717C132.705 17.4717 132.705 17.8633 132.313 17.8633L129.677 15.2266L127.229 17.8633C126.839 17.4725 126.839 17.4721 126.839 17.0811L129.185 14.7344L127.229 12.7783V12.3867H127.62L129.576 14.3428L131.924 11.9961H132.315V12.3877ZM144.439 12.3877L142.179 14.8213L144.829 17.4717C144.829 17.4717 144.829 17.8153 144.507 17.8584L144.438 17.8633L141.802 15.2275L139.354 17.8633C138.963 17.4721 138.963 17.4722 138.963 17.0811L141.309 14.7344L139.353 12.7783V12.3867H139.744L141.7 14.3428L144.048 11.9961H144.439V12.3877ZM156.568 12.3877L154.12 15.0234L156.568 17.4717C156.568 17.4717 156.568 17.863 156.178 17.8633L153.743 15.4287L151.483 17.8633C151.092 17.4721 151.092 17.4722 151.092 17.0811L153.242 14.9287L151.092 12.7783V12.3867H151.483L153.635 14.5381L156.177 11.9961H156.568V12.3877Z" fill="white"/>
</svg>
