<svg width="188" height="152" viewBox="0 0 188 152" fill="none" xmlns="http://www.w3.org/2000/svg">
<path d="M173.196 148.031H14.8027V151.732H173.196V148.031Z" fill="#B5D9D9"/>
<path opacity="0.1" d="M188 0H0V148.031H188V0Z" fill="white"/>
<path d="M173.196 0H14.8027V148.031H173.196V0Z" fill="#383838"/>
<path d="M168.016 0H19.9844V148.031H168.016V0Z" fill="#DF332A"/>
<path d="M24 4V144.432H164.432V4H24ZM150.349 130.349H38.0823V18.0823H150.349V130.349Z" fill="#D1AC86"/>
<path d="M32.7382 132.826C32.7382 131.261 30 131.261 30 132.826C30.3912 134.391 32.7382 134.391 32.7382 132.826Z" fill="white"/>
<path d="M32.7382 128.134C32.7382 126.57 30 126.57 30 128.134C30.3912 129.699 32.7382 129.699 32.7382 128.134Z" fill="white"/>
<path d="M32.7382 123.047C32.7382 121.482 30 121.482 30 123.047C30.3912 124.611 32.7382 124.611 32.7382 123.047Z" fill="white"/>
<path d="M32.7382 118.355C32.7382 116.79 30 116.79 30 118.355C30.3912 119.92 32.7382 119.92 32.7382 118.355Z" fill="white"/>
<path d="M32.7382 113.267C32.7382 111.703 30 111.703 30 113.267C30.3912 114.832 32.7382 114.832 32.7382 113.267Z" fill="white"/>
<path d="M32.7382 108.576C32.7382 107.011 30 107.011 30 108.576C30.3912 110.141 32.7382 110.141 32.7382 108.576Z" fill="white"/>
<path d="M32.7382 103.879C32.7382 102.314 30 102.314 30 103.879C30.3912 105.443 32.7382 105.443 32.7382 103.879Z" fill="white"/>
<path d="M32.7382 98.7966C32.7382 97.2319 30 97.2319 30 98.7966C30.3912 100.361 32.7382 100.361 32.7382 98.7966Z" fill="white"/>
<path d="M32.7382 94.0993C32.7382 92.5346 30 92.5346 30 94.0993C30.3912 95.664 32.7382 95.664 32.7382 94.0993Z" fill="white"/>
<path d="M32.7382 89.0173C32.7382 87.4526 30 87.4526 30 89.0173C30.3912 90.9731 32.7382 90.9731 32.7382 89.0173Z" fill="white"/>
<path d="M32.7382 84.32C32.7382 82.7553 30 82.7553 30 84.32C30.3912 85.8847 32.7382 85.8847 32.7382 84.32Z" fill="white"/>
<path d="M32.7382 79.6286C32.7382 78.0639 30 78.0639 30 79.6286C30.3912 81.1933 32.7382 81.1933 32.7382 79.6286Z" fill="white"/>
<path d="M32.7382 74.5407C32.7382 72.976 30 72.976 30 74.5407C30.3912 76.1054 32.7382 76.1054 32.7382 74.5407Z" fill="white"/>
<path d="M32.7382 69.8493C32.7382 68.2846 30 68.2846 30 69.8493C30.3912 71.414 32.7382 71.414 32.7382 69.8493Z" fill="white"/>
<path d="M32.7382 64.7614C32.7382 63.1967 30 63.1967 30 64.7614C30.3912 66.7173 32.7382 66.7173 32.7382 64.7614Z" fill="white"/>
<path d="M32.7382 60.07C32.7382 58.5053 30 58.5053 30 60.07C30.3912 61.6347 32.7382 61.6347 32.7382 60.07Z" fill="white"/>
<path d="M32.7382 55.3786C32.7382 53.8139 30 53.8139 30 55.3786C30.3912 56.9433 32.7382 56.9433 32.7382 55.3786Z" fill="white"/>
<path d="M32.7382 50.2907C32.7382 48.726 30 48.726 30 50.2907C30.3912 51.8554 32.7382 51.8554 32.7382 50.2907Z" fill="white"/>
<path d="M32.7382 45.5993C32.7382 44.0346 30 44.0346 30 45.5993C30.3912 47.164 32.7382 47.164 32.7382 45.5993Z" fill="white"/>
<path d="M32.7382 40.5114C32.7382 38.9467 30 38.9467 30 40.5114C30.3912 42.4673 32.7382 42.4673 32.7382 40.5114Z" fill="white"/>
<path d="M32.7382 35.82C32.7382 34.2553 30 34.2553 30 35.82C30.3912 37.3847 32.7382 37.3847 32.7382 35.82Z" fill="white"/>
<path d="M32.7382 31.1208C32.7382 29.5561 30 29.5561 30 31.1208C30.3912 32.6855 32.7382 32.6855 32.7382 31.1208Z" fill="white"/>
<path d="M32.7382 26.0407C32.7382 24.476 30 24.476 30 26.0407C30.3912 27.6054 32.7382 27.6054 32.7382 26.0407Z" fill="white"/>
<path d="M32.7382 21.3415C32.7382 19.7768 30 19.7768 30 21.3415C30.3912 22.9062 32.7382 22.9062 32.7382 21.3415Z" fill="white"/>
<path d="M32.7382 16.2614C32.7382 14.6967 30 14.6967 30 16.2614C30.3912 18.2173 32.7382 18.2173 32.7382 16.2614Z" fill="white"/>
<path d="M36.2575 12.7382C37.8222 12.7382 37.8222 10 36.2575 10C34.6928 10.3912 34.6928 12.7382 36.2575 12.7382Z" fill="white"/>
<path d="M41.3425 12.7382C42.9072 12.7382 42.9072 10 41.3425 10C39.7778 10.3912 39.7778 12.7382 41.3425 12.7382Z" fill="white"/>
<path d="M46.0378 12.7382C47.6025 12.7382 47.6025 10 46.0378 10C44.4731 10.3912 44.4731 12.7382 46.0378 12.7382Z" fill="white"/>
<path d="M51.1251 12.7382C52.6898 12.7382 52.6898 10 51.1251 10C49.1692 10.3912 49.1692 12.7382 51.1251 12.7382Z" fill="white"/>
<path d="M55.8171 12.7382C57.3818 12.7382 57.3818 10 55.8171 10C54.2524 10.3912 54.2524 12.7382 55.8171 12.7382Z" fill="white"/>
<path d="M60.5114 12.7382C62.0761 12.7382 62.0761 10 60.5114 10C58.9467 10.3912 58.9467 12.7382 60.5114 12.7382Z" fill="white"/>
<path d="M65.5964 12.7382C67.1611 12.7382 67.1611 10 65.5964 10C64.0317 10.3912 64.0317 12.7382 65.5964 12.7382Z" fill="white"/>
<path d="M70.2907 12.7382C71.8554 12.7382 71.8554 10 70.2907 10C68.726 10.3912 68.726 12.7382 70.2907 12.7382Z" fill="white"/>
<path d="M75.3751 12.7382C76.9398 12.7382 76.9398 10 75.3751 10C73.4192 10.3912 73.4192 12.7382 75.3751 12.7382Z" fill="white"/>
<path d="M80.07 12.7382C81.6347 12.7382 81.6347 10 80.07 10C78.5053 10.3912 78.5053 12.7382 80.07 12.7382Z" fill="white"/>
<path d="M84.7653 12.7382C86.33 12.7382 86.33 10 84.7653 10C83.2006 10.3912 83.2006 12.7382 84.7653 12.7382Z" fill="white"/>
<path d="M89.8493 12.7382C91.414 12.7382 91.414 10 89.8493 10C88.2846 10.3912 88.2846 12.7382 89.8493 12.7382Z" fill="white"/>
<path d="M94.5446 12.7382C96.1093 12.7382 96.1093 10 94.5446 10C92.9799 10.3912 92.9799 12.7382 94.5446 12.7382Z" fill="white"/>
<path d="M99.628 12.7382C101.193 12.7382 101.193 10 99.628 10C97.6722 10.3912 97.6722 12.7382 99.628 12.7382Z" fill="white"/>
<path d="M104.324 12.7382C105.889 12.7382 105.889 10 104.324 10C102.759 10.3912 102.759 12.7382 104.324 12.7382Z" fill="white"/>
<path d="M109.018 12.7382C110.583 12.7382 110.583 10 109.018 10C107.454 10.3912 107.454 12.7382 109.018 12.7382Z" fill="white"/>
<path d="M114.103 12.7382C115.668 12.7382 115.668 10 114.103 10C112.539 10.3912 112.539 12.7382 114.103 12.7382Z" fill="white"/>
<path d="M118.798 12.7382C120.362 12.7382 120.362 10 118.798 10C117.233 10.3912 117.233 12.7382 118.798 12.7382Z" fill="white"/>
<path d="M123.489 12.7382C125.054 12.7382 125.054 10 123.489 10C121.924 10.3912 121.924 12.7382 123.489 12.7382Z" fill="white"/>
<path d="M128.578 12.7382C130.143 12.7382 130.143 10 128.578 10C127.013 10.3912 127.013 12.7382 128.578 12.7382Z" fill="white"/>
<path d="M133.268 12.7382C134.833 12.7382 134.833 10 133.268 10C131.704 10.3912 131.704 12.7382 133.268 12.7382Z" fill="white"/>
<path d="M138.357 12.7382C139.922 12.7382 139.922 10 138.357 10C136.792 10.3912 136.792 12.7382 138.357 12.7382Z" fill="white"/>
<path d="M143.048 12.7382C144.612 12.7382 144.612 10 143.048 10C141.483 10.3912 141.483 12.7382 143.048 12.7382Z" fill="white"/>
<path d="M147.743 12.7382C149.308 12.7382 149.308 10 147.743 10C146.178 10.3912 146.178 12.7382 147.743 12.7382Z" fill="white"/>
<path d="M152.827 12.7382C154.392 12.7382 154.392 10 152.827 10C151.262 10.3912 151.262 12.7382 152.827 12.7382Z" fill="white"/>
<path d="M156.349 16.2614C156.349 17.8261 159.087 17.8261 159.087 16.2614C159.087 14.6967 156.349 14.6967 156.349 16.2614Z" fill="white"/>
<path d="M156.348 21.3415C156.348 22.9062 159.087 22.9062 159.087 21.3415C159.087 19.7768 156.348 19.7768 156.348 21.3415Z" fill="white"/>
<path d="M156.349 26.0407C156.349 27.6054 159.087 27.6054 159.087 26.0407C159.087 24.476 156.349 24.476 156.349 26.0407Z" fill="white"/>
<path d="M156.349 31.1208C156.349 32.6855 159.087 32.6855 159.087 31.1208C159.087 29.5561 156.349 29.5561 156.349 31.1208Z" fill="white"/>
<path d="M156.349 35.82C156.349 37.3847 159.087 37.3847 159.087 35.82C159.087 34.2553 156.349 34.2553 156.349 35.82Z" fill="white"/>
<path d="M156.349 40.5114C156.349 42.0761 159.087 42.0761 159.087 40.5114C159.087 38.9467 156.349 38.9467 156.349 40.5114Z" fill="white"/>
<path d="M156.348 45.5993C156.348 47.164 159.087 47.164 159.087 45.5993C159.087 44.0346 156.348 44.0346 156.348 45.5993Z" fill="white"/>
<path d="M156.349 50.2907C156.349 51.8554 159.087 51.8554 159.087 50.2907C159.087 48.726 156.349 48.726 156.349 50.2907Z" fill="white"/>
<path d="M156.349 55.3732C156.349 56.9379 159.087 56.9379 159.087 55.3732C159.087 53.4173 156.349 53.4173 156.349 55.3732Z" fill="white"/>
<path d="M156.349 60.07C156.349 61.6347 159.087 61.6347 159.087 60.07C159.087 58.5053 156.349 58.5053 156.349 60.07Z" fill="white"/>
<path d="M156.349 64.7614C156.349 66.3261 159.087 66.3261 159.087 64.7614C159.087 63.1967 156.349 63.1967 156.349 64.7614Z" fill="white"/>
<path d="M156.349 69.8493C156.349 71.414 159.087 71.414 159.087 69.8493C159.087 68.2846 156.349 68.2846 156.349 69.8493Z" fill="white"/>
<path d="M156.349 74.5407C156.349 76.1054 159.087 76.1054 159.087 74.5407C159.087 72.976 156.349 72.976 156.349 74.5407Z" fill="white"/>
<path d="M156.349 79.631C156.349 81.1957 159.087 81.1957 159.087 79.631C159.087 77.6751 156.349 77.6751 156.349 79.631Z" fill="white"/>
<path d="M156.349 84.32C156.349 85.8847 159.087 85.8847 159.087 84.32C159.087 82.7553 156.349 82.7553 156.349 84.32Z" fill="white"/>
<path d="M156.349 89.0173C156.349 90.582 159.087 90.582 159.087 89.0173C159.087 87.4526 156.349 87.4526 156.349 89.0173Z" fill="white"/>
<path d="M156.349 94.0993C156.349 95.664 159.087 95.664 159.087 94.0993C159.087 92.5346 156.349 92.5346 156.349 94.0993Z" fill="white"/>
<path d="M156.349 98.7966C156.349 100.361 159.087 100.361 159.087 98.7966C159.087 97.2319 156.349 97.2319 156.349 98.7966Z" fill="white"/>
<path d="M156.348 103.881C156.348 105.446 159.087 105.446 159.087 103.881C159.087 101.925 156.348 101.925 156.348 103.881Z" fill="white"/>
<path d="M156.349 108.576C156.349 110.141 159.087 110.141 159.087 108.576C159.087 107.011 156.349 107.011 156.349 108.576Z" fill="white"/>
<path d="M156.349 113.267C156.349 114.832 159.087 114.832 159.087 113.267C159.087 111.703 156.349 111.703 156.349 113.267Z" fill="white"/>
<path d="M156.349 118.355C156.349 119.92 159.087 119.92 159.087 118.355C159.087 116.79 156.349 116.79 156.349 118.355Z" fill="white"/>
<path d="M156.349 123.047C156.349 124.611 159.087 124.611 159.087 123.047C159.087 121.482 156.349 121.482 156.349 123.047Z" fill="white"/>
<path d="M156.348 128.131C156.348 129.696 159.087 129.696 159.087 128.131C159.087 126.175 156.348 126.175 156.348 128.131Z" fill="white"/>
<path d="M156.349 132.826C156.349 134.391 159.087 134.391 159.087 132.826C159.087 131.261 156.349 131.261 156.349 132.826Z" fill="white"/>
<path d="M152.827 136.352C151.262 136.352 151.262 139.09 152.827 139.09C154.392 139.09 154.392 136.352 152.827 136.352Z" fill="white"/>
<path d="M147.742 136.352C146.177 136.352 146.177 139.09 147.742 139.09C149.698 139.09 149.698 136.352 147.742 136.352Z" fill="white"/>
<path d="M143.048 136.352C141.484 136.352 141.484 139.09 143.048 139.09C144.613 139.09 144.613 136.352 143.048 136.352Z" fill="white"/>
<path d="M138.357 136.352C136.792 136.352 136.792 139.09 138.357 139.09C139.922 139.09 139.922 136.352 138.357 136.352Z" fill="white"/>
<path d="M133.268 136.352C131.704 136.352 131.704 139.09 133.268 139.09C134.833 139.09 134.833 136.352 133.268 136.352Z" fill="white"/>
<path d="M128.578 136.352C127.013 136.352 127.013 139.09 128.578 139.09C130.143 139.09 130.143 136.352 128.578 136.352Z" fill="white"/>
<path d="M123.489 136.352C121.925 136.352 121.925 139.09 123.489 139.09C125.445 139.09 125.445 136.352 123.489 136.352Z" fill="white"/>
<path d="M118.798 136.352C117.233 136.352 117.233 139.09 118.798 139.09C120.362 139.09 120.362 136.352 118.798 136.352Z" fill="white"/>
<path d="M114.103 136.352C112.539 136.352 112.539 139.09 114.103 139.09C115.668 139.09 115.668 136.352 114.103 136.352Z" fill="white"/>
<path d="M109.018 136.352C107.454 136.352 107.454 139.09 109.018 139.09C110.583 139.09 110.583 136.352 109.018 136.352Z" fill="white"/>
<path d="M104.324 136.352C102.759 136.352 102.759 139.09 104.324 139.09C105.888 139.09 105.888 136.352 104.324 136.352Z" fill="white"/>
<path d="M99.6286 136.352C98.0639 136.352 98.0639 139.09 99.6286 139.09C101.193 139.09 101.193 136.352 99.6286 136.352Z" fill="white"/>
<path d="M94.5443 136.352C92.9796 136.352 92.9796 139.09 94.5443 139.09C96.1089 139.09 96.1089 136.352 94.5443 136.352Z" fill="white"/>
<path d="M89.8493 136.352C88.2846 136.352 88.2846 139.09 89.8493 139.09C91.414 139.09 91.414 136.352 89.8493 136.352Z" fill="white"/>
<path d="M84.7646 136.352C83.1999 136.352 83.1999 139.09 84.7646 139.09C86.3293 139.09 86.3293 136.352 84.7646 136.352Z" fill="white"/>
<path d="M80.0707 136.352C78.506 136.352 78.506 139.09 80.0707 139.09C81.6354 139.09 81.6354 136.352 80.0707 136.352Z" fill="white"/>
<path d="M75.3757 136.352C73.811 136.352 73.811 139.09 75.3757 139.09C76.9404 139.09 76.9404 136.352 75.3757 136.352Z" fill="white"/>
<path d="M70.2908 136.352C68.7261 136.352 68.7261 139.09 70.2908 139.09C71.8555 139.09 71.8555 136.352 70.2908 136.352Z" fill="white"/>
<path d="M65.5964 136.352C64.0317 136.352 64.0317 139.09 65.5964 139.09C67.1611 139.09 67.1611 136.352 65.5964 136.352Z" fill="white"/>
<path d="M60.5118 136.352C58.9471 136.352 58.9471 139.09 60.5118 139.09C62.0765 139.09 62.0765 136.352 60.5118 136.352Z" fill="white"/>
<path d="M55.8171 136.352C54.2524 136.352 54.2524 139.09 55.8171 139.09C57.3818 139.09 57.3818 136.352 55.8171 136.352Z" fill="white"/>
<path d="M51.1218 136.352C49.5571 136.352 49.5571 139.09 51.1218 139.09C52.6865 139.09 52.6865 136.352 51.1218 136.352Z" fill="white"/>
<path d="M46.0378 136.352C44.4731 136.352 44.4731 139.09 46.0378 139.09C47.6025 139.09 47.6025 136.352 46.0378 136.352Z" fill="white"/>
<path d="M41.3425 136.352C39.7778 136.352 39.7778 139.09 41.3425 139.09C42.9072 139.09 42.9072 136.352 41.3425 136.352Z" fill="white"/>
<path d="M36.2575 136.352C34.6928 136.352 34.6928 139.09 36.2575 139.09C38.2134 139.09 38.2134 136.352 36.2575 136.352Z" fill="white"/>
<mask id="mask0_210_3652" style="mask-type:luminance" maskUnits="userSpaceOnUse" x="30" y="10" width="3" height="3">
<path d="M32.7367 12.7357L30.3896 10.3887V12.7357H32.7367Z" fill="white"/>
</mask>
<g mask="url(#mask0_210_3652)">
<path d="M32.7381 11.5622C32.7381 9.9975 29.9999 9.9975 29.9999 11.5622C30.3911 13.1269 32.7381 13.1269 32.7381 11.5622Z" fill="white"/>
</g>
<mask id="mask1_210_3652" style="mask-type:luminance" maskUnits="userSpaceOnUse" x="30" y="10" width="3" height="3">
<path d="M32.7367 12.7357L30.3896 10.3887H32.7367V12.7357Z" fill="white"/>
</mask>
<g mask="url(#mask1_210_3652)">
<path d="M31.5626 12.7382C33.1273 12.7382 33.1273 10 31.5626 10C29.6067 10.3912 29.6067 12.7382 31.5626 12.7382Z" fill="white"/>
</g>
<mask id="mask2_210_3652" style="mask-type:luminance" maskUnits="userSpaceOnUse" x="156" y="10" width="4" height="3">
<path d="M156.348 12.7357L159.086 10.3887H156.348V12.7357Z" fill="white"/>
</mask>
<g mask="url(#mask2_210_3652)">
<path d="M157.522 12.7382C159.086 12.7382 159.086 10 157.522 10C155.957 10.3912 155.957 12.7382 157.522 12.7382Z" fill="white"/>
</g>
<mask id="mask3_210_3652" style="mask-type:luminance" maskUnits="userSpaceOnUse" x="156" y="10" width="4" height="3">
<path d="M156.348 12.7357L159.086 10.3887V12.7357H156.348Z" fill="white"/>
</mask>
<g mask="url(#mask3_210_3652)">
<path d="M156.348 11.5622C156.348 13.1269 159.086 13.1269 159.086 11.5622C159.086 9.9975 156.348 9.9975 156.348 11.5622Z" fill="white"/>
</g>
<mask id="mask4_210_3652" style="mask-type:luminance" maskUnits="userSpaceOnUse" x="156" y="136" width="4" height="4">
<path d="M156.348 136.352L159.086 139.09V136.352H156.348Z" fill="white"/>
</mask>
<g mask="url(#mask4_210_3652)">
<path d="M156.348 137.525C156.348 139.09 159.086 139.09 159.086 137.525C159.086 135.96 156.348 135.96 156.348 137.525Z" fill="white"/>
</g>
<mask id="mask5_210_3652" style="mask-type:luminance" maskUnits="userSpaceOnUse" x="156" y="136" width="4" height="4">
<path d="M156.348 136.352L159.086 139.09H156.348V136.352Z" fill="white"/>
</mask>
<g mask="url(#mask5_210_3652)">
<path d="M157.522 136.352C155.957 136.352 155.957 139.09 157.522 139.09C159.478 139.09 159.478 136.352 157.522 136.352Z" fill="white"/>
</g>
<mask id="mask6_210_3652" style="mask-type:luminance" maskUnits="userSpaceOnUse" x="30" y="136" width="3" height="4">
<path d="M32.7367 136.352L30.3896 139.09H32.7367V136.352Z" fill="white"/>
</mask>
<g mask="url(#mask6_210_3652)">
<path d="M31.5632 136.352C29.9985 136.352 29.9985 139.09 31.5632 139.09C33.1279 139.09 33.1279 136.352 31.5632 136.352Z" fill="white"/>
</g>
<mask id="mask7_210_3652" style="mask-type:luminance" maskUnits="userSpaceOnUse" x="30" y="136" width="3" height="4">
<path d="M32.7367 136.352L30.3896 139.09V136.352H32.7367Z" fill="white"/>
</mask>
<g mask="url(#mask7_210_3652)">
<path d="M32.7382 137.525C32.7382 135.96 30 135.96 30 137.525C30.3912 139.481 32.7382 139.481 32.7382 137.525Z" fill="white"/>
</g>
</svg>
