<svg width="254" height="205" viewBox="0 0 254 205" fill="none" xmlns="http://www.w3.org/2000/svg">
<path d="M234 200H20V205H234V200Z" fill="#B5D9D9"/>
<path opacity="0.1" d="M254 0H0V200H254V0Z" fill="white"/>
<path d="M234 0H20V200H234V0Z" fill="#383838"/>
<path d="M227 0H27V200H227V0Z" fill="#015F2D"/>
<path d="M218.069 8V191.069H35V8H218.069ZM48.3008 177.769C47.9096 177.377 47.5181 177.377 47.127 177.769L43.8027 181.092L40.4785 177.769C40.0873 177.377 39.6968 177.377 39.3057 177.769C38.9145 178.16 38.9145 178.55 39.3057 178.941L42.6289 182.266L39.6953 185.2C39.3041 185.591 39.3041 185.983 39.6953 186.374C40.0861 186.765 40.0865 186.765 40.4775 186.765C40.492 186.765 40.868 186.757 40.8682 186.374L43.8027 183.438L46.7373 186.374C47.1282 186.765 47.1287 186.765 47.5195 186.765C47.9105 186.765 47.9111 186.765 47.9111 186.374C48.3023 185.983 48.3022 185.591 47.9111 185.2L44.9756 182.266L48.3008 178.941C48.6917 178.55 48.6915 178.16 48.3008 177.769ZM71.7705 177.769C71.3793 177.377 70.9879 177.377 70.5967 177.769L67.2725 181.092L63.9482 177.769C63.5571 177.377 63.1666 177.377 62.7754 177.769C62.3842 178.16 62.3842 178.55 62.7754 178.941L66.0986 182.266L63.165 185.2C62.7739 185.591 62.7739 185.983 63.165 186.374C63.5558 186.765 63.5562 186.765 63.9473 186.765C63.9617 186.765 64.3377 186.757 64.3379 186.374L67.2725 183.438L70.207 186.374C70.598 186.765 70.5985 186.765 70.9893 186.765C71.3802 186.765 71.3809 186.765 71.3809 186.374C71.772 185.983 71.7719 185.591 71.3809 185.2L68.4453 182.266L71.7705 178.941C72.1614 178.55 72.1613 178.16 71.7705 177.769ZM95.2412 177.769C94.85 177.377 94.4586 177.377 94.0674 177.769L90.7432 181.092L87.4189 177.769C87.0278 177.377 86.6373 177.377 86.2461 177.769C85.8549 178.16 85.8549 178.55 86.2461 178.941L89.5693 182.266L86.6357 185.2C86.2446 185.591 86.2446 185.983 86.6357 186.374C87.0265 186.765 87.0269 186.765 87.418 186.765C87.4329 186.764 87.8084 186.757 87.8086 186.374L90.7432 183.438L93.6777 186.374C94.0687 186.765 94.0692 186.765 94.46 186.765C94.8509 186.765 94.8516 186.765 94.8516 186.374C95.2427 185.983 95.2426 185.591 94.8516 185.2L91.916 182.266L95.2412 178.941C95.6321 178.55 95.632 178.16 95.2412 177.769ZM118.712 177.769C118.321 177.377 117.929 177.377 117.538 177.769L114.214 181.092L110.89 177.769C110.498 177.377 110.108 177.377 109.717 177.769C109.326 178.16 109.326 178.55 109.717 178.941L113.04 182.266L110.106 185.2C109.715 185.591 109.715 185.983 110.106 186.374C110.497 186.765 110.498 186.765 110.889 186.765C110.904 186.764 111.279 186.757 111.279 186.374L114.214 183.438L117.148 186.374C117.539 186.765 117.54 186.765 117.931 186.765C118.322 186.765 118.322 186.765 118.322 186.374C118.713 185.983 118.713 185.591 118.322 185.2L115.387 182.266L118.712 178.941C119.103 178.55 119.103 178.16 118.712 177.769ZM142.183 177.769C141.791 177.377 141.4 177.377 141.009 177.769L137.685 181.092L134.36 177.769C133.969 177.377 133.579 177.377 133.188 177.769C132.796 178.16 132.796 178.55 133.188 178.941L136.511 182.266L133.577 185.2C133.186 185.591 133.186 185.983 133.577 186.374C133.968 186.765 133.968 186.765 134.359 186.765C134.374 186.764 134.75 186.757 134.75 186.374L137.685 183.438L140.619 186.374C141.01 186.765 141.011 186.765 141.401 186.765C141.792 186.765 141.793 186.765 141.793 186.374C142.184 185.983 142.184 185.591 141.793 185.2L138.857 182.266L142.183 178.941C142.574 178.55 142.573 178.16 142.183 177.769ZM165.652 177.769C165.261 177.377 164.87 177.377 164.479 177.769L161.154 181.092L157.83 177.769C157.439 177.377 157.048 177.377 156.657 177.769C156.266 178.16 156.266 178.55 156.657 178.941L159.98 182.266L157.047 185.2C156.656 185.591 156.656 185.983 157.047 186.374C157.438 186.765 157.438 186.765 157.829 186.765C157.844 186.764 158.22 186.757 158.22 186.374L161.154 183.438L164.089 186.374C164.48 186.765 164.48 186.765 164.871 186.765C165.262 186.765 165.263 186.765 165.263 186.374C165.654 185.983 165.654 185.591 165.263 185.2L162.327 182.266L165.652 178.941C166.043 178.55 166.043 178.16 165.652 177.769ZM189.123 177.769C188.732 177.377 188.34 177.377 187.949 177.769L184.625 181.092L181.301 177.769C180.91 177.377 180.519 177.377 180.128 177.769C179.737 178.16 179.737 178.55 180.128 178.941L183.451 182.266L180.518 185.2C180.126 185.591 180.126 185.983 180.518 186.374C180.908 186.765 180.909 186.765 181.3 186.765C181.315 186.764 181.69 186.757 181.69 186.374L184.625 183.438L187.56 186.374C187.951 186.765 187.951 186.765 188.342 186.765C188.733 186.765 188.733 186.765 188.733 186.374C189.125 185.983 189.124 185.591 188.733 185.2L185.798 182.266L189.123 178.941C189.514 178.55 189.514 178.16 189.123 177.769ZM212.594 177.769C212.203 177.377 211.811 177.377 211.42 177.769L208.096 181.092L204.771 177.769C204.38 177.377 203.99 177.377 203.599 177.769C203.207 178.16 203.207 178.55 203.599 178.941L206.922 182.266L203.988 185.2C203.597 185.591 203.597 185.983 203.988 186.374C204.379 186.765 204.379 186.765 204.771 186.765C204.785 186.764 205.161 186.757 205.161 186.374L208.096 183.438L211.03 186.374C211.421 186.765 211.422 186.765 211.812 186.765C212.203 186.765 212.204 186.765 212.204 186.374C212.595 185.983 212.595 185.591 212.204 185.2L209.269 182.266L212.594 178.941C212.985 178.55 212.984 178.16 212.594 177.769ZM53.3848 25.9941V172.293H199.685V25.9941H53.3848ZM47.9111 153.907C47.52 153.516 47.1285 153.516 46.7373 153.907L43.4131 157.23L40.0889 153.907C39.6977 153.516 39.3072 153.516 38.916 153.907C38.5248 154.298 38.5248 154.689 38.916 155.08L42.2393 158.404L39.3057 161.339C38.9145 161.73 38.9145 162.122 39.3057 162.513C39.6964 162.903 39.6969 162.903 40.0879 162.903C40.1028 162.903 40.4783 162.896 40.4785 162.513L43.4131 159.577L46.3477 162.513C46.7386 162.904 46.7391 162.903 47.1299 162.903C47.5209 162.903 47.9122 162.904 47.5215 162.513C47.9126 162.122 47.9125 161.73 47.5215 161.339L44.5859 158.404L47.9111 155.08C48.302 154.689 48.3019 154.298 47.9111 153.907ZM212.983 153.907C212.592 153.516 212.201 153.516 211.81 153.907L208.485 157.23L205.161 153.907C204.77 153.516 204.379 153.516 203.988 153.907C203.597 154.298 203.597 154.689 203.988 155.08L207.312 158.404L204.378 161.339C203.987 161.73 203.987 162.122 204.378 162.513C204.769 162.903 204.769 162.903 205.16 162.903C205.175 162.903 205.551 162.896 205.551 162.513L208.485 159.577L211.42 162.513C211.811 162.904 211.811 162.903 212.202 162.903C212.593 162.903 212.594 162.904 212.594 162.513C212.985 162.122 212.985 161.73 212.594 161.339L209.658 158.404L212.983 155.08C213.374 154.689 213.374 154.298 212.983 153.907ZM47.9111 130.437C47.52 130.045 47.1285 130.045 46.7373 130.437L43.4131 133.76L40.0889 130.437C39.6977 130.045 39.3072 130.045 38.916 130.437C38.5248 130.828 38.5248 131.218 38.916 131.609L42.2393 134.934L39.3057 137.868C38.9145 138.259 38.9145 138.651 39.3057 139.042C39.6964 139.433 39.6969 139.433 40.0879 139.433C40.1028 139.432 40.4783 139.425 40.4785 139.042L43.4131 136.106L46.3477 139.042C46.7386 139.433 46.7391 139.433 47.1299 139.433C47.5209 139.433 47.9122 139.433 47.5215 139.042C47.9126 138.651 47.9125 138.259 47.5215 137.868L44.5859 134.934L47.9111 131.609C48.302 131.218 48.3019 130.828 47.9111 130.437ZM212.983 130.437C212.592 130.045 212.201 130.045 211.81 130.437L208.485 133.76L205.161 130.437C204.77 130.045 204.379 130.045 203.988 130.437C203.597 130.828 203.597 131.218 203.988 131.609L207.312 134.934L204.378 137.868C203.987 138.259 203.987 138.651 204.378 139.042C204.769 139.433 204.769 139.433 205.16 139.433C205.175 139.432 205.551 139.425 205.551 139.042L208.485 136.106L211.42 139.042C211.811 139.433 211.811 139.433 212.202 139.433C212.593 139.433 212.594 139.433 212.594 139.042C212.985 138.651 212.985 138.259 212.594 137.868L209.658 134.934L212.983 131.609C213.374 131.218 213.374 130.828 212.983 130.437ZM47.9111 106.966C47.52 106.575 47.1285 106.575 46.7373 106.966L43.4131 110.289L40.0889 106.966C39.6977 106.575 39.3072 106.575 38.916 106.966C38.5248 107.357 38.5248 107.747 38.916 108.139L42.2393 111.463L39.3057 114.397C38.9145 114.789 38.9145 115.18 39.3057 115.571C39.6964 115.962 39.6969 115.962 40.0879 115.962C40.1028 115.962 40.4783 115.954 40.4785 115.571L43.4131 112.636L46.3477 115.571C46.7386 115.962 46.7391 115.962 47.1299 115.962C47.5209 115.962 47.9122 115.962 47.5215 115.571C47.9126 115.18 47.9125 114.789 47.5215 114.397L44.5859 111.463L47.9111 108.139C48.302 107.748 48.3019 107.357 47.9111 106.966ZM212.983 106.966C212.592 106.575 212.201 106.575 211.81 106.966L208.485 110.289L205.161 106.966C204.77 106.575 204.379 106.575 203.988 106.966C203.597 107.357 203.597 107.747 203.988 108.139L207.312 111.463L204.378 114.397C203.987 114.789 203.987 115.18 204.378 115.571C204.769 115.962 204.769 115.962 205.16 115.962C205.175 115.962 205.551 115.954 205.551 115.571L208.485 112.636L211.42 115.571C211.811 115.962 211.811 115.962 212.202 115.962C212.593 115.962 212.594 115.962 212.594 115.571C212.985 115.18 212.985 114.789 212.594 114.397L209.658 111.463L212.983 108.139C213.374 107.748 213.374 107.357 212.983 106.966ZM47.9111 83.4971C47.52 83.1059 47.1285 83.1059 46.7373 83.4971L43.4131 86.8203L40.0889 83.4971C39.6977 83.1059 39.3072 83.1059 38.916 83.4971C38.5248 83.8882 38.5248 84.2787 38.916 84.6699L42.2393 87.9941L39.3057 90.9287C38.9145 91.3199 38.9145 91.7114 39.3057 92.1025C39.6964 92.4933 39.6969 92.4932 40.0879 92.4932C40.1028 92.493 40.4783 92.4857 40.4785 92.1025L43.4131 89.167L46.3477 92.1025C46.7386 92.4935 46.7391 92.4932 47.1299 92.4932C47.5209 92.4932 47.9122 92.4934 47.5215 92.1025C47.9126 91.7114 47.9125 91.3198 47.5215 90.9287L44.5859 87.9941L47.9111 84.6699C48.302 84.2789 48.3019 83.8881 47.9111 83.4971ZM212.983 83.4971C212.592 83.1059 212.201 83.1059 211.81 83.4971L208.485 86.8203L205.161 83.4971C204.77 83.1059 204.379 83.1059 203.988 83.4971C203.597 83.8882 203.597 84.2787 203.988 84.6699L207.312 87.9941L204.378 90.9287C203.987 91.3199 203.987 91.7114 204.378 92.1025C204.769 92.4933 204.769 92.4932 205.16 92.4932C205.175 92.493 205.551 92.4857 205.551 92.1025L208.485 89.167L211.42 92.1025C211.811 92.4935 211.811 92.4932 212.202 92.4932C212.593 92.4932 212.594 92.4934 212.594 92.1025C212.985 91.7114 212.985 91.3198 212.594 90.9287L209.658 87.9941L212.983 84.6699C213.374 84.2789 213.374 83.8881 212.983 83.4971ZM47.9111 60.0264C47.52 59.6352 47.1285 59.6352 46.7373 60.0264L43.4131 63.3496L40.0889 60.0264C39.6977 59.6352 39.3072 59.6352 38.916 60.0264C38.5248 60.4175 38.5248 60.808 38.916 61.1992L42.2393 64.5234L39.3057 67.458C38.9145 67.8492 38.9145 68.2407 39.3057 68.6318C39.6964 69.0226 39.6969 69.0225 40.0879 69.0225C40.1028 69.0223 40.4783 69.015 40.4785 68.6318L43.4131 65.6963L46.3477 68.6318C46.7386 69.0228 46.7391 69.0225 47.1299 69.0225C47.5209 69.0225 47.9122 69.0227 47.5215 68.6318C47.9126 68.2407 47.9125 67.8491 47.5215 67.458L44.5859 64.5234L47.9111 61.1992C48.302 60.8082 48.3019 60.4174 47.9111 60.0264ZM212.983 60.0264C212.592 59.6352 212.201 59.6352 211.81 60.0264L208.485 63.3496L205.161 60.0264C204.77 59.6352 204.379 59.6352 203.988 60.0264C203.597 60.4175 203.597 60.808 203.988 61.1992L207.312 64.5234L204.378 67.458C203.987 67.8492 203.987 68.2407 204.378 68.6318C204.769 69.0226 204.769 69.0225 205.16 69.0225C205.175 69.0223 205.551 69.015 205.551 68.6318L208.485 65.6963L211.42 68.6318C211.811 69.0228 211.811 69.0225 212.202 69.0225C212.593 69.0225 212.594 69.0227 212.594 68.6318C212.985 68.2407 212.985 67.8491 212.594 67.458L209.658 64.5234L212.983 61.1992C213.374 60.8082 213.374 60.4174 212.983 60.0264ZM47.9111 36.5557C47.52 36.1645 47.1285 36.1645 46.7373 36.5557L43.4131 39.8789L40.0889 36.5557C39.6977 36.1645 39.3072 36.1645 38.916 36.5557C38.5248 36.9468 38.5248 37.3373 38.916 37.7285L42.2393 41.0527L39.3057 43.9873C38.9145 44.3785 38.9145 44.77 39.3057 45.1611C39.6964 45.5519 39.6969 45.5518 40.0879 45.5518C40.1028 45.5516 40.4783 45.5443 40.4785 45.1611L43.4131 42.2256L46.3477 45.1611C46.7386 45.5521 46.7391 45.5518 47.1299 45.5518C47.5209 45.5518 47.9122 45.552 47.5215 45.1611C47.9126 44.77 47.9125 44.3784 47.5215 43.9873L44.5859 41.0527L47.9111 37.7285C48.302 37.3375 48.3019 36.9467 47.9111 36.5557ZM212.983 36.5557C212.592 36.1645 212.201 36.1645 211.81 36.5557L208.485 39.8789L205.161 36.5557C204.77 36.1645 204.379 36.1645 203.988 36.5557C203.597 36.9468 203.597 37.3373 203.988 37.7285L207.312 41.0527L204.378 43.9873C203.987 44.3785 203.987 44.77 204.378 45.1611C204.769 45.5519 204.769 45.5518 205.16 45.5518C205.175 45.5516 205.551 45.5443 205.551 45.1611L208.485 42.2256L211.42 45.1611C211.811 45.5521 211.811 45.5518 212.202 45.5518C212.593 45.5518 212.594 45.552 212.594 45.1611C212.985 44.77 212.985 44.3784 212.594 43.9873L209.658 41.0527L212.983 37.7285C213.374 37.3375 213.374 36.9467 212.983 36.5557ZM48.3008 12.6943C47.9096 12.3032 47.5181 12.3032 47.127 12.6943L43.8027 16.0176L40.4785 12.6943C40.0873 12.3032 39.6968 12.3032 39.3057 12.6943C38.9145 13.0855 38.9145 13.476 39.3057 13.8672L42.6289 17.1914L39.6953 20.126C39.3041 20.5171 39.3041 20.9086 39.6953 21.2998C40.0861 21.6906 40.0865 21.6904 40.4775 21.6904C40.492 21.6903 40.8681 21.6833 40.8682 21.2998L43.8027 18.3643L46.7373 21.2998C47.1282 21.6907 47.1287 21.6904 47.5195 21.6904C47.9105 21.6904 47.9111 21.6908 47.9111 21.2998C48.3022 20.9087 48.3022 20.5171 47.9111 20.126L44.9756 17.1914L48.3008 13.8672C48.6917 13.4762 48.6915 13.0853 48.3008 12.6943ZM71.7705 12.6943C71.3793 12.3032 70.9879 12.3032 70.5967 12.6943L67.2725 16.0176L63.9482 12.6943C63.5571 12.3032 63.1666 12.3032 62.7754 12.6943C62.3842 13.0855 62.3842 13.476 62.7754 13.8672L66.0986 17.1914L63.165 20.126C62.7739 20.5171 62.7739 20.9086 63.165 21.2998C63.5559 21.6906 63.5562 21.6904 63.9473 21.6904C63.9617 21.6903 64.3378 21.6833 64.3379 21.2998L67.2725 18.3643L70.207 21.2998C70.598 21.6907 70.5985 21.6904 70.9893 21.6904C71.3803 21.6904 71.3809 21.6908 71.3809 21.2998C71.772 20.9087 71.7719 20.5171 71.3809 20.126L68.4453 17.1914L71.7705 13.8672C72.1614 13.4762 72.1613 13.0853 71.7705 12.6943ZM95.2412 12.6943C94.85 12.3032 94.4586 12.3032 94.0674 12.6943L90.7432 16.0176L87.4189 12.6943C87.0278 12.3032 86.6373 12.3032 86.2461 12.6943C85.8549 13.0855 85.8549 13.476 86.2461 13.8672L89.5693 17.1914L86.6357 20.126C86.2446 20.5171 86.2446 20.9086 86.6357 21.2998C87.0266 21.6906 87.0269 21.6904 87.418 21.6904C87.4329 21.6903 87.8085 21.6831 87.8086 21.2998L90.7432 18.3643L93.6777 21.2998C94.0687 21.6907 94.0692 21.6904 94.46 21.6904C94.851 21.6904 94.8516 21.6908 94.8516 21.2998C95.2427 20.9087 95.2426 20.5171 94.8516 20.126L91.916 17.1914L95.2412 13.8672C95.6321 13.4762 95.632 13.0853 95.2412 12.6943ZM118.712 12.6943C118.321 12.3032 117.929 12.3032 117.538 12.6943L114.214 16.0176L110.89 12.6943C110.498 12.3032 110.108 12.3032 109.717 12.6943C109.326 13.0855 109.326 13.476 109.717 13.8672L113.04 17.1914L110.106 20.126C109.715 20.5171 109.715 20.9086 110.106 21.2998C110.497 21.6906 110.498 21.6904 110.889 21.6904C110.904 21.6903 111.279 21.6831 111.279 21.2998L114.214 18.3643L117.148 21.2998C117.539 21.6907 117.54 21.6904 117.931 21.6904C118.322 21.6904 118.322 21.6908 118.322 21.2998C118.713 20.9087 118.713 20.5171 118.322 20.126L115.387 17.1914L118.712 13.8672C119.103 13.4762 119.103 13.0853 118.712 12.6943ZM142.183 12.6943C141.791 12.3032 141.4 12.3032 141.009 12.6943L137.685 16.0176L134.36 12.6943C133.969 12.3032 133.579 12.3032 133.188 12.6943C132.796 13.0855 132.796 13.476 133.188 13.8672L136.511 17.1914L133.577 20.126C133.186 20.5171 133.186 20.9086 133.577 21.2998C133.968 21.6906 133.968 21.6904 134.359 21.6904C134.374 21.6903 134.75 21.6831 134.75 21.2998L137.685 18.3643L140.619 21.2998C141.01 21.6907 141.011 21.6904 141.401 21.6904C141.792 21.6904 141.793 21.6908 141.793 21.2998C142.184 20.9087 142.184 20.5171 141.793 20.126L138.857 17.1914L142.183 13.8672C142.574 13.4762 142.573 13.0853 142.183 12.6943ZM165.652 12.6943C165.261 12.3032 164.87 12.3032 164.479 12.6943L161.154 16.0176L157.83 12.6943C157.439 12.3032 157.048 12.3032 156.657 12.6943C156.266 13.0855 156.266 13.476 156.657 13.8672L159.98 17.1914L157.047 20.126C156.656 20.5171 156.656 20.9086 157.047 21.2998C157.438 21.6906 157.438 21.6904 157.829 21.6904C157.844 21.6903 158.22 21.6831 158.22 21.2998L161.154 18.3643L164.089 21.2998C164.48 21.6907 164.48 21.6904 164.871 21.6904C165.262 21.6904 165.263 21.6908 165.263 21.2998C165.654 20.9087 165.654 20.5171 165.263 20.126L162.327 17.1914L165.652 13.8672C166.043 13.4762 166.043 13.0853 165.652 12.6943ZM189.123 12.6943C188.732 12.3032 188.34 12.3032 187.949 12.6943L184.625 16.0176L181.301 12.6943C180.91 12.3032 180.519 12.3032 180.128 12.6943C179.737 13.0855 179.737 13.476 180.128 13.8672L183.451 17.1914L180.518 20.126C180.126 20.5171 180.126 20.9086 180.518 21.2998C180.908 21.6906 180.909 21.6904 181.3 21.6904C181.315 21.6903 181.69 21.6831 181.69 21.2998L184.625 18.3643L187.56 21.2998C187.951 21.6907 187.951 21.6904 188.342 21.6904C188.733 21.6904 188.733 21.6908 188.733 21.2998C189.124 20.9087 189.124 20.5171 188.733 20.126L185.798 17.1914L189.123 13.8672C189.514 13.4762 189.514 13.0853 189.123 12.6943ZM212.594 12.6943C212.203 12.3032 211.811 12.3032 211.42 12.6943L208.096 16.0176L204.771 12.6943C204.38 12.3032 203.99 12.3032 203.599 12.6943C203.207 13.0855 203.207 13.476 203.599 13.8672L206.922 17.1914L203.988 20.126C203.597 20.5171 203.597 20.9086 203.988 21.2998C204.379 21.6906 204.379 21.6904 204.771 21.6904C204.785 21.6903 205.161 21.6831 205.161 21.2998L208.096 18.3643L211.03 21.2998C211.421 21.6907 211.422 21.6904 211.812 21.6904C212.204 21.6904 212.204 21.6908 212.204 21.2998C212.595 20.9087 212.595 20.5171 212.204 20.126L209.269 17.1914L212.594 13.8672C212.985 13.4762 212.984 13.0853 212.594 12.6943Z" fill="#DF332A"/>
</svg>
